%
M48
M72
T01C0.01181
T02C0.01575
T03C0.01969
T04C0.02362
T05C0.08661
%
T01
X63598Y79740
X63598Y82496
X63598Y85252
X63598Y88008
X63598Y90764
X63598Y93520
X100606Y159661
X107693Y152575
X107299Y172260
X102969Y172260
X98638Y172260
X96669Y181709
X101394Y181709
X105331Y181709
X109661Y181709
X112417Y180921
X112024Y176591
X112024Y172654
X129346Y186433
X135646Y163205
X137614Y160055
X140764Y160055
X143913Y160055
X145882Y163598
X181709Y194307
X190370Y179740
X187220Y176591
X187614Y171866
X189976Y169504
X195488Y169110
X198244Y171866
X198638Y177378
X196276Y179740
X201787Y210843
X201787Y218323
X202969Y226591
X191945Y234465
X191945Y236827
X191945Y239189
X188008Y239189
X188008Y236827
X188008Y234465
X184465Y234465
X184465Y236827
X184465Y239189
X191846Y248933
X184465Y264386
X181709Y264386
X178953Y264386
X191157Y272260
X192339Y297063
X189976Y299031
X188008Y297457
X187614Y300606
X190370Y302181
X192732Y300606
X165567Y269898
X163992Y271866
X162417Y269898
X160843Y271866
X159268Y269898
X156906Y271472
X155331Y268323
X153362Y250606
X169504Y232496
X174622Y236039
X186433Y218323
X186827Y210843
X130134Y324622
X98638Y312417
X89189Y302969
X91157Y297457
X101000Y290764
X80921Y279346
X72260Y265173
X67929Y270291
X123047Y375409
X123047Y378165
X159268Y376591
X164780Y384858
X162417Y386433
X164780Y388402
X167236Y392280
X169898Y389976
X172654Y391157
X171866Y387614
X169504Y386039
X171866Y382890
X173835Y384858
X176591Y383283
X178559Y385646
X178953Y380528
X176984Y378559
X174228Y380134
X182496Y381709
X182496Y378559
X186039Y379346
X188402Y381315
X188008Y385252
X185252Y384071
X181709Y385252
X188008Y388402
X199425Y368323
X197457Y366354
X197063Y363205
X197063Y360843
X190764Y357299
X202575Y367535
X171472Y370685
X83677Y388008
X123441Y93126
X123441Y90370
X123441Y87614
X123441Y84858
X123441Y82102
X123441Y79346
X141157Y76197
X147850Y88008
X150213Y67142
X152969Y67142
X155724Y67142
X158480Y67142
X161630Y67142
X164386Y67142
X193126Y65173
X196276Y65173
X199425Y65173
X201394Y67142
X201787Y69898
T02
X186547Y249031
T03
X175409Y373441
X155724Y373441
T04
X165567Y243913
T05
X52575Y44701
X206118Y44701
X206118Y402969
X52575Y402969
M30
