G75*
%MOIN*%
%OFA0B0*%
%FSLAX25Y25*%
%IPPOS*%
%LPD*%
%AMOC8*
5,1,8,0,0,1.08239X$1,22.5*
%
%ADD10C,0.01981*%
%ADD11C,0.00787*%
%ADD12C,0.02953*%
%ADD13C,0.01969*%
%ADD14C,0.03543*%
%ADD15C,0.02375*%
%ADD16C,0.03937*%
D10*
X0063598Y0079740D03*
X0063598Y0082496D03*
X0063598Y0085252D03*
X0063598Y0088008D03*
X0063598Y0090764D03*
X0063598Y0093520D03*
X0100606Y0159661D03*
X0107693Y0152575D03*
X0107299Y0172260D03*
X0102969Y0172260D03*
X0098638Y0172260D03*
X0096669Y0181709D03*
X0101394Y0181709D03*
X0105331Y0181709D03*
X0109661Y0181709D03*
X0112417Y0180921D03*
X0112024Y0176591D03*
X0112024Y0172654D03*
X0129346Y0186433D03*
X0135646Y0163205D03*
X0137614Y0160055D03*
X0140764Y0160055D03*
X0143913Y0160055D03*
X0145882Y0163598D03*
X0181709Y0194307D03*
X0190370Y0179740D03*
X0187220Y0176591D03*
X0187614Y0171866D03*
X0189976Y0169504D03*
X0195488Y0169110D03*
X0198244Y0171866D03*
X0198638Y0177378D03*
X0196276Y0179740D03*
X0201787Y0210843D03*
X0201787Y0218323D03*
X0202969Y0226591D03*
X0191945Y0234465D03*
X0191945Y0236827D03*
X0191945Y0239189D03*
X0188008Y0239189D03*
X0188008Y0236827D03*
X0188008Y0234465D03*
X0184465Y0234465D03*
X0184465Y0236827D03*
X0184465Y0239189D03*
X0191846Y0248933D03*
X0184465Y0264386D03*
X0181709Y0264386D03*
X0178953Y0264386D03*
X0191157Y0272260D03*
X0192339Y0297063D03*
X0189976Y0299031D03*
X0188008Y0297457D03*
X0187614Y0300606D03*
X0190370Y0302181D03*
X0192732Y0300606D03*
X0165567Y0269898D03*
X0163992Y0271866D03*
X0162417Y0269898D03*
X0160843Y0271866D03*
X0159268Y0269898D03*
X0156906Y0271472D03*
X0155331Y0268323D03*
X0153362Y0250606D03*
X0169504Y0232496D03*
X0174622Y0236039D03*
X0186433Y0218323D03*
X0186827Y0210843D03*
X0130134Y0324622D03*
X0098638Y0312417D03*
X0089189Y0302969D03*
X0091157Y0297457D03*
X0101000Y0290764D03*
X0080921Y0279346D03*
X0072260Y0265173D03*
X0067929Y0270291D03*
X0123047Y0375409D03*
X0123047Y0378165D03*
X0158480Y0384858D03*
X0161630Y0386433D03*
X0164780Y0384858D03*
X0164780Y0388402D03*
X0167236Y0392280D03*
X0169898Y0389976D03*
X0172654Y0391157D03*
X0171866Y0387614D03*
X0169504Y0386039D03*
X0171866Y0382890D03*
X0173835Y0384858D03*
X0176591Y0383283D03*
X0178559Y0385646D03*
X0178953Y0380528D03*
X0176984Y0378559D03*
X0174228Y0380134D03*
X0182496Y0381709D03*
X0182496Y0378559D03*
X0186039Y0379346D03*
X0188402Y0381315D03*
X0188008Y0385252D03*
X0185252Y0384071D03*
X0181709Y0385252D03*
X0188008Y0388402D03*
X0199425Y0368323D03*
X0197457Y0366354D03*
X0197063Y0363205D03*
X0197063Y0360843D03*
X0190764Y0357299D03*
X0202575Y0367535D03*
X0171472Y0370685D03*
X0159268Y0376591D03*
X0158480Y0388402D03*
X0083677Y0388008D03*
X0123441Y0093126D03*
X0123441Y0090370D03*
X0123441Y0087614D03*
X0123441Y0084858D03*
X0123441Y0082102D03*
X0123441Y0079346D03*
X0141157Y0076197D03*
X0147850Y0088008D03*
X0150213Y0067142D03*
X0152969Y0067142D03*
X0155724Y0067142D03*
X0158480Y0067142D03*
X0161630Y0067142D03*
X0164386Y0067142D03*
X0193126Y0065173D03*
X0196276Y0065173D03*
X0199425Y0065173D03*
X0201394Y0067142D03*
X0201787Y0069898D03*
D11*
X0147850Y0088008D02*
X0141157Y0081315D01*
X0141157Y0076197D01*
X0107693Y0152575D02*
X0100606Y0159661D01*
X0153362Y0242339D02*
X0153362Y0250606D01*
X0153362Y0242339D02*
X0184858Y0210843D01*
X0186827Y0210843D01*
X0186433Y0218323D02*
X0183677Y0218323D01*
X0169504Y0232496D01*
X0186547Y0249031D02*
X0186547Y0249311D01*
X0186433Y0249425D01*
X0191157Y0249622D02*
X0191846Y0248933D01*
X0191157Y0249622D02*
X0191157Y0272260D01*
X0164780Y0376591D02*
X0159268Y0376591D01*
X0164780Y0376591D02*
X0167236Y0379047D01*
X0167236Y0392280D01*
X0098638Y0312417D02*
X0089189Y0302969D01*
X0101000Y0290764D02*
X0080724Y0270488D01*
X0077575Y0270488D01*
X0072260Y0265173D01*
X0067929Y0270291D02*
X0072850Y0275213D01*
X0076787Y0275213D01*
X0080921Y0279346D01*
D12*
X0155724Y0373441D03*
X0175409Y0373441D03*
D13*
X0155724Y0373441D01*
D14*
X0165567Y0243913D03*
D15*
X0186547Y0249031D03*
D16*
X0186433Y0249425D02*
X0171079Y0249425D01*
X0165567Y0243913D01*
M02*
