G75*
%MOIN*%
%OFA0B0*%
%FSLAX25Y25*%
%IPPOS*%
%LPD*%
%AMOC8*
5,1,8,0,0,1.08239X$1,22.5*
%
%ADD10C,0.00000*%
D10*
X0044701Y0036827D02*
X0213992Y0036827D01*
X0213992Y0410843D01*
X0044701Y0410843D01*
X0044701Y0036827D01*
X0048244Y0044701D02*
X0048246Y0044832D01*
X0048252Y0044964D01*
X0048262Y0045095D01*
X0048276Y0045226D01*
X0048294Y0045356D01*
X0048316Y0045485D01*
X0048341Y0045614D01*
X0048371Y0045742D01*
X0048405Y0045869D01*
X0048442Y0045996D01*
X0048483Y0046120D01*
X0048528Y0046244D01*
X0048577Y0046366D01*
X0048629Y0046487D01*
X0048685Y0046605D01*
X0048745Y0046723D01*
X0048808Y0046838D01*
X0048875Y0046951D01*
X0048945Y0047063D01*
X0049018Y0047172D01*
X0049094Y0047278D01*
X0049174Y0047383D01*
X0049257Y0047485D01*
X0049343Y0047584D01*
X0049432Y0047681D01*
X0049524Y0047775D01*
X0049619Y0047866D01*
X0049716Y0047955D01*
X0049816Y0048040D01*
X0049919Y0048122D01*
X0050024Y0048201D01*
X0050131Y0048277D01*
X0050241Y0048349D01*
X0050353Y0048418D01*
X0050467Y0048484D01*
X0050582Y0048546D01*
X0050700Y0048605D01*
X0050819Y0048660D01*
X0050940Y0048712D01*
X0051063Y0048759D01*
X0051187Y0048803D01*
X0051312Y0048844D01*
X0051438Y0048880D01*
X0051566Y0048913D01*
X0051694Y0048941D01*
X0051823Y0048966D01*
X0051953Y0048987D01*
X0052083Y0049004D01*
X0052214Y0049017D01*
X0052345Y0049026D01*
X0052476Y0049031D01*
X0052608Y0049032D01*
X0052739Y0049029D01*
X0052871Y0049022D01*
X0053002Y0049011D01*
X0053132Y0048996D01*
X0053262Y0048977D01*
X0053392Y0048954D01*
X0053520Y0048928D01*
X0053648Y0048897D01*
X0053775Y0048862D01*
X0053901Y0048824D01*
X0054025Y0048782D01*
X0054149Y0048736D01*
X0054270Y0048686D01*
X0054390Y0048633D01*
X0054509Y0048576D01*
X0054626Y0048516D01*
X0054740Y0048452D01*
X0054853Y0048384D01*
X0054964Y0048313D01*
X0055073Y0048239D01*
X0055179Y0048162D01*
X0055283Y0048081D01*
X0055384Y0047998D01*
X0055483Y0047911D01*
X0055579Y0047821D01*
X0055672Y0047728D01*
X0055763Y0047633D01*
X0055850Y0047535D01*
X0055935Y0047434D01*
X0056016Y0047331D01*
X0056094Y0047225D01*
X0056169Y0047117D01*
X0056241Y0047007D01*
X0056309Y0046895D01*
X0056374Y0046781D01*
X0056435Y0046664D01*
X0056493Y0046546D01*
X0056547Y0046426D01*
X0056598Y0046305D01*
X0056645Y0046182D01*
X0056688Y0046058D01*
X0056727Y0045933D01*
X0056763Y0045806D01*
X0056794Y0045678D01*
X0056822Y0045550D01*
X0056846Y0045421D01*
X0056866Y0045291D01*
X0056882Y0045160D01*
X0056894Y0045029D01*
X0056902Y0044898D01*
X0056906Y0044767D01*
X0056906Y0044635D01*
X0056902Y0044504D01*
X0056894Y0044373D01*
X0056882Y0044242D01*
X0056866Y0044111D01*
X0056846Y0043981D01*
X0056822Y0043852D01*
X0056794Y0043724D01*
X0056763Y0043596D01*
X0056727Y0043469D01*
X0056688Y0043344D01*
X0056645Y0043220D01*
X0056598Y0043097D01*
X0056547Y0042976D01*
X0056493Y0042856D01*
X0056435Y0042738D01*
X0056374Y0042621D01*
X0056309Y0042507D01*
X0056241Y0042395D01*
X0056169Y0042285D01*
X0056094Y0042177D01*
X0056016Y0042071D01*
X0055935Y0041968D01*
X0055850Y0041867D01*
X0055763Y0041769D01*
X0055672Y0041674D01*
X0055579Y0041581D01*
X0055483Y0041491D01*
X0055384Y0041404D01*
X0055283Y0041321D01*
X0055179Y0041240D01*
X0055073Y0041163D01*
X0054964Y0041089D01*
X0054853Y0041018D01*
X0054741Y0040950D01*
X0054626Y0040886D01*
X0054509Y0040826D01*
X0054390Y0040769D01*
X0054270Y0040716D01*
X0054149Y0040666D01*
X0054025Y0040620D01*
X0053901Y0040578D01*
X0053775Y0040540D01*
X0053648Y0040505D01*
X0053520Y0040474D01*
X0053392Y0040448D01*
X0053262Y0040425D01*
X0053132Y0040406D01*
X0053002Y0040391D01*
X0052871Y0040380D01*
X0052739Y0040373D01*
X0052608Y0040370D01*
X0052476Y0040371D01*
X0052345Y0040376D01*
X0052214Y0040385D01*
X0052083Y0040398D01*
X0051953Y0040415D01*
X0051823Y0040436D01*
X0051694Y0040461D01*
X0051566Y0040489D01*
X0051438Y0040522D01*
X0051312Y0040558D01*
X0051187Y0040599D01*
X0051063Y0040643D01*
X0050940Y0040690D01*
X0050819Y0040742D01*
X0050700Y0040797D01*
X0050582Y0040856D01*
X0050467Y0040918D01*
X0050353Y0040984D01*
X0050241Y0041053D01*
X0050131Y0041125D01*
X0050024Y0041201D01*
X0049919Y0041280D01*
X0049816Y0041362D01*
X0049716Y0041447D01*
X0049619Y0041536D01*
X0049524Y0041627D01*
X0049432Y0041721D01*
X0049343Y0041818D01*
X0049257Y0041917D01*
X0049174Y0042019D01*
X0049094Y0042124D01*
X0049018Y0042230D01*
X0048945Y0042339D01*
X0048875Y0042451D01*
X0048808Y0042564D01*
X0048745Y0042679D01*
X0048685Y0042797D01*
X0048629Y0042915D01*
X0048577Y0043036D01*
X0048528Y0043158D01*
X0048483Y0043282D01*
X0048442Y0043406D01*
X0048405Y0043533D01*
X0048371Y0043660D01*
X0048341Y0043788D01*
X0048316Y0043917D01*
X0048294Y0044046D01*
X0048276Y0044176D01*
X0048262Y0044307D01*
X0048252Y0044438D01*
X0048246Y0044570D01*
X0048244Y0044701D01*
X0201787Y0044701D02*
X0201789Y0044832D01*
X0201795Y0044964D01*
X0201805Y0045095D01*
X0201819Y0045226D01*
X0201837Y0045356D01*
X0201859Y0045485D01*
X0201884Y0045614D01*
X0201914Y0045742D01*
X0201948Y0045869D01*
X0201985Y0045996D01*
X0202026Y0046120D01*
X0202071Y0046244D01*
X0202120Y0046366D01*
X0202172Y0046487D01*
X0202228Y0046605D01*
X0202288Y0046723D01*
X0202351Y0046838D01*
X0202418Y0046951D01*
X0202488Y0047063D01*
X0202561Y0047172D01*
X0202637Y0047278D01*
X0202717Y0047383D01*
X0202800Y0047485D01*
X0202886Y0047584D01*
X0202975Y0047681D01*
X0203067Y0047775D01*
X0203162Y0047866D01*
X0203259Y0047955D01*
X0203359Y0048040D01*
X0203462Y0048122D01*
X0203567Y0048201D01*
X0203674Y0048277D01*
X0203784Y0048349D01*
X0203896Y0048418D01*
X0204010Y0048484D01*
X0204125Y0048546D01*
X0204243Y0048605D01*
X0204362Y0048660D01*
X0204483Y0048712D01*
X0204606Y0048759D01*
X0204730Y0048803D01*
X0204855Y0048844D01*
X0204981Y0048880D01*
X0205109Y0048913D01*
X0205237Y0048941D01*
X0205366Y0048966D01*
X0205496Y0048987D01*
X0205626Y0049004D01*
X0205757Y0049017D01*
X0205888Y0049026D01*
X0206019Y0049031D01*
X0206151Y0049032D01*
X0206282Y0049029D01*
X0206414Y0049022D01*
X0206545Y0049011D01*
X0206675Y0048996D01*
X0206805Y0048977D01*
X0206935Y0048954D01*
X0207063Y0048928D01*
X0207191Y0048897D01*
X0207318Y0048862D01*
X0207444Y0048824D01*
X0207568Y0048782D01*
X0207692Y0048736D01*
X0207813Y0048686D01*
X0207933Y0048633D01*
X0208052Y0048576D01*
X0208169Y0048516D01*
X0208283Y0048452D01*
X0208396Y0048384D01*
X0208507Y0048313D01*
X0208616Y0048239D01*
X0208722Y0048162D01*
X0208826Y0048081D01*
X0208927Y0047998D01*
X0209026Y0047911D01*
X0209122Y0047821D01*
X0209215Y0047728D01*
X0209306Y0047633D01*
X0209393Y0047535D01*
X0209478Y0047434D01*
X0209559Y0047331D01*
X0209637Y0047225D01*
X0209712Y0047117D01*
X0209784Y0047007D01*
X0209852Y0046895D01*
X0209917Y0046781D01*
X0209978Y0046664D01*
X0210036Y0046546D01*
X0210090Y0046426D01*
X0210141Y0046305D01*
X0210188Y0046182D01*
X0210231Y0046058D01*
X0210270Y0045933D01*
X0210306Y0045806D01*
X0210337Y0045678D01*
X0210365Y0045550D01*
X0210389Y0045421D01*
X0210409Y0045291D01*
X0210425Y0045160D01*
X0210437Y0045029D01*
X0210445Y0044898D01*
X0210449Y0044767D01*
X0210449Y0044635D01*
X0210445Y0044504D01*
X0210437Y0044373D01*
X0210425Y0044242D01*
X0210409Y0044111D01*
X0210389Y0043981D01*
X0210365Y0043852D01*
X0210337Y0043724D01*
X0210306Y0043596D01*
X0210270Y0043469D01*
X0210231Y0043344D01*
X0210188Y0043220D01*
X0210141Y0043097D01*
X0210090Y0042976D01*
X0210036Y0042856D01*
X0209978Y0042738D01*
X0209917Y0042621D01*
X0209852Y0042507D01*
X0209784Y0042395D01*
X0209712Y0042285D01*
X0209637Y0042177D01*
X0209559Y0042071D01*
X0209478Y0041968D01*
X0209393Y0041867D01*
X0209306Y0041769D01*
X0209215Y0041674D01*
X0209122Y0041581D01*
X0209026Y0041491D01*
X0208927Y0041404D01*
X0208826Y0041321D01*
X0208722Y0041240D01*
X0208616Y0041163D01*
X0208507Y0041089D01*
X0208396Y0041018D01*
X0208284Y0040950D01*
X0208169Y0040886D01*
X0208052Y0040826D01*
X0207933Y0040769D01*
X0207813Y0040716D01*
X0207692Y0040666D01*
X0207568Y0040620D01*
X0207444Y0040578D01*
X0207318Y0040540D01*
X0207191Y0040505D01*
X0207063Y0040474D01*
X0206935Y0040448D01*
X0206805Y0040425D01*
X0206675Y0040406D01*
X0206545Y0040391D01*
X0206414Y0040380D01*
X0206282Y0040373D01*
X0206151Y0040370D01*
X0206019Y0040371D01*
X0205888Y0040376D01*
X0205757Y0040385D01*
X0205626Y0040398D01*
X0205496Y0040415D01*
X0205366Y0040436D01*
X0205237Y0040461D01*
X0205109Y0040489D01*
X0204981Y0040522D01*
X0204855Y0040558D01*
X0204730Y0040599D01*
X0204606Y0040643D01*
X0204483Y0040690D01*
X0204362Y0040742D01*
X0204243Y0040797D01*
X0204125Y0040856D01*
X0204010Y0040918D01*
X0203896Y0040984D01*
X0203784Y0041053D01*
X0203674Y0041125D01*
X0203567Y0041201D01*
X0203462Y0041280D01*
X0203359Y0041362D01*
X0203259Y0041447D01*
X0203162Y0041536D01*
X0203067Y0041627D01*
X0202975Y0041721D01*
X0202886Y0041818D01*
X0202800Y0041917D01*
X0202717Y0042019D01*
X0202637Y0042124D01*
X0202561Y0042230D01*
X0202488Y0042339D01*
X0202418Y0042451D01*
X0202351Y0042564D01*
X0202288Y0042679D01*
X0202228Y0042797D01*
X0202172Y0042915D01*
X0202120Y0043036D01*
X0202071Y0043158D01*
X0202026Y0043282D01*
X0201985Y0043406D01*
X0201948Y0043533D01*
X0201914Y0043660D01*
X0201884Y0043788D01*
X0201859Y0043917D01*
X0201837Y0044046D01*
X0201819Y0044176D01*
X0201805Y0044307D01*
X0201795Y0044438D01*
X0201789Y0044570D01*
X0201787Y0044701D01*
X0201787Y0402969D02*
X0201789Y0403100D01*
X0201795Y0403232D01*
X0201805Y0403363D01*
X0201819Y0403494D01*
X0201837Y0403624D01*
X0201859Y0403753D01*
X0201884Y0403882D01*
X0201914Y0404010D01*
X0201948Y0404137D01*
X0201985Y0404264D01*
X0202026Y0404388D01*
X0202071Y0404512D01*
X0202120Y0404634D01*
X0202172Y0404755D01*
X0202228Y0404873D01*
X0202288Y0404991D01*
X0202351Y0405106D01*
X0202418Y0405219D01*
X0202488Y0405331D01*
X0202561Y0405440D01*
X0202637Y0405546D01*
X0202717Y0405651D01*
X0202800Y0405753D01*
X0202886Y0405852D01*
X0202975Y0405949D01*
X0203067Y0406043D01*
X0203162Y0406134D01*
X0203259Y0406223D01*
X0203359Y0406308D01*
X0203462Y0406390D01*
X0203567Y0406469D01*
X0203674Y0406545D01*
X0203784Y0406617D01*
X0203896Y0406686D01*
X0204010Y0406752D01*
X0204125Y0406814D01*
X0204243Y0406873D01*
X0204362Y0406928D01*
X0204483Y0406980D01*
X0204606Y0407027D01*
X0204730Y0407071D01*
X0204855Y0407112D01*
X0204981Y0407148D01*
X0205109Y0407181D01*
X0205237Y0407209D01*
X0205366Y0407234D01*
X0205496Y0407255D01*
X0205626Y0407272D01*
X0205757Y0407285D01*
X0205888Y0407294D01*
X0206019Y0407299D01*
X0206151Y0407300D01*
X0206282Y0407297D01*
X0206414Y0407290D01*
X0206545Y0407279D01*
X0206675Y0407264D01*
X0206805Y0407245D01*
X0206935Y0407222D01*
X0207063Y0407196D01*
X0207191Y0407165D01*
X0207318Y0407130D01*
X0207444Y0407092D01*
X0207568Y0407050D01*
X0207692Y0407004D01*
X0207813Y0406954D01*
X0207933Y0406901D01*
X0208052Y0406844D01*
X0208169Y0406784D01*
X0208283Y0406720D01*
X0208396Y0406652D01*
X0208507Y0406581D01*
X0208616Y0406507D01*
X0208722Y0406430D01*
X0208826Y0406349D01*
X0208927Y0406266D01*
X0209026Y0406179D01*
X0209122Y0406089D01*
X0209215Y0405996D01*
X0209306Y0405901D01*
X0209393Y0405803D01*
X0209478Y0405702D01*
X0209559Y0405599D01*
X0209637Y0405493D01*
X0209712Y0405385D01*
X0209784Y0405275D01*
X0209852Y0405163D01*
X0209917Y0405049D01*
X0209978Y0404932D01*
X0210036Y0404814D01*
X0210090Y0404694D01*
X0210141Y0404573D01*
X0210188Y0404450D01*
X0210231Y0404326D01*
X0210270Y0404201D01*
X0210306Y0404074D01*
X0210337Y0403946D01*
X0210365Y0403818D01*
X0210389Y0403689D01*
X0210409Y0403559D01*
X0210425Y0403428D01*
X0210437Y0403297D01*
X0210445Y0403166D01*
X0210449Y0403035D01*
X0210449Y0402903D01*
X0210445Y0402772D01*
X0210437Y0402641D01*
X0210425Y0402510D01*
X0210409Y0402379D01*
X0210389Y0402249D01*
X0210365Y0402120D01*
X0210337Y0401992D01*
X0210306Y0401864D01*
X0210270Y0401737D01*
X0210231Y0401612D01*
X0210188Y0401488D01*
X0210141Y0401365D01*
X0210090Y0401244D01*
X0210036Y0401124D01*
X0209978Y0401006D01*
X0209917Y0400889D01*
X0209852Y0400775D01*
X0209784Y0400663D01*
X0209712Y0400553D01*
X0209637Y0400445D01*
X0209559Y0400339D01*
X0209478Y0400236D01*
X0209393Y0400135D01*
X0209306Y0400037D01*
X0209215Y0399942D01*
X0209122Y0399849D01*
X0209026Y0399759D01*
X0208927Y0399672D01*
X0208826Y0399589D01*
X0208722Y0399508D01*
X0208616Y0399431D01*
X0208507Y0399357D01*
X0208396Y0399286D01*
X0208284Y0399218D01*
X0208169Y0399154D01*
X0208052Y0399094D01*
X0207933Y0399037D01*
X0207813Y0398984D01*
X0207692Y0398934D01*
X0207568Y0398888D01*
X0207444Y0398846D01*
X0207318Y0398808D01*
X0207191Y0398773D01*
X0207063Y0398742D01*
X0206935Y0398716D01*
X0206805Y0398693D01*
X0206675Y0398674D01*
X0206545Y0398659D01*
X0206414Y0398648D01*
X0206282Y0398641D01*
X0206151Y0398638D01*
X0206019Y0398639D01*
X0205888Y0398644D01*
X0205757Y0398653D01*
X0205626Y0398666D01*
X0205496Y0398683D01*
X0205366Y0398704D01*
X0205237Y0398729D01*
X0205109Y0398757D01*
X0204981Y0398790D01*
X0204855Y0398826D01*
X0204730Y0398867D01*
X0204606Y0398911D01*
X0204483Y0398958D01*
X0204362Y0399010D01*
X0204243Y0399065D01*
X0204125Y0399124D01*
X0204010Y0399186D01*
X0203896Y0399252D01*
X0203784Y0399321D01*
X0203674Y0399393D01*
X0203567Y0399469D01*
X0203462Y0399548D01*
X0203359Y0399630D01*
X0203259Y0399715D01*
X0203162Y0399804D01*
X0203067Y0399895D01*
X0202975Y0399989D01*
X0202886Y0400086D01*
X0202800Y0400185D01*
X0202717Y0400287D01*
X0202637Y0400392D01*
X0202561Y0400498D01*
X0202488Y0400607D01*
X0202418Y0400719D01*
X0202351Y0400832D01*
X0202288Y0400947D01*
X0202228Y0401065D01*
X0202172Y0401183D01*
X0202120Y0401304D01*
X0202071Y0401426D01*
X0202026Y0401550D01*
X0201985Y0401674D01*
X0201948Y0401801D01*
X0201914Y0401928D01*
X0201884Y0402056D01*
X0201859Y0402185D01*
X0201837Y0402314D01*
X0201819Y0402444D01*
X0201805Y0402575D01*
X0201795Y0402706D01*
X0201789Y0402838D01*
X0201787Y0402969D01*
X0048244Y0402969D02*
X0048246Y0403100D01*
X0048252Y0403232D01*
X0048262Y0403363D01*
X0048276Y0403494D01*
X0048294Y0403624D01*
X0048316Y0403753D01*
X0048341Y0403882D01*
X0048371Y0404010D01*
X0048405Y0404137D01*
X0048442Y0404264D01*
X0048483Y0404388D01*
X0048528Y0404512D01*
X0048577Y0404634D01*
X0048629Y0404755D01*
X0048685Y0404873D01*
X0048745Y0404991D01*
X0048808Y0405106D01*
X0048875Y0405219D01*
X0048945Y0405331D01*
X0049018Y0405440D01*
X0049094Y0405546D01*
X0049174Y0405651D01*
X0049257Y0405753D01*
X0049343Y0405852D01*
X0049432Y0405949D01*
X0049524Y0406043D01*
X0049619Y0406134D01*
X0049716Y0406223D01*
X0049816Y0406308D01*
X0049919Y0406390D01*
X0050024Y0406469D01*
X0050131Y0406545D01*
X0050241Y0406617D01*
X0050353Y0406686D01*
X0050467Y0406752D01*
X0050582Y0406814D01*
X0050700Y0406873D01*
X0050819Y0406928D01*
X0050940Y0406980D01*
X0051063Y0407027D01*
X0051187Y0407071D01*
X0051312Y0407112D01*
X0051438Y0407148D01*
X0051566Y0407181D01*
X0051694Y0407209D01*
X0051823Y0407234D01*
X0051953Y0407255D01*
X0052083Y0407272D01*
X0052214Y0407285D01*
X0052345Y0407294D01*
X0052476Y0407299D01*
X0052608Y0407300D01*
X0052739Y0407297D01*
X0052871Y0407290D01*
X0053002Y0407279D01*
X0053132Y0407264D01*
X0053262Y0407245D01*
X0053392Y0407222D01*
X0053520Y0407196D01*
X0053648Y0407165D01*
X0053775Y0407130D01*
X0053901Y0407092D01*
X0054025Y0407050D01*
X0054149Y0407004D01*
X0054270Y0406954D01*
X0054390Y0406901D01*
X0054509Y0406844D01*
X0054626Y0406784D01*
X0054740Y0406720D01*
X0054853Y0406652D01*
X0054964Y0406581D01*
X0055073Y0406507D01*
X0055179Y0406430D01*
X0055283Y0406349D01*
X0055384Y0406266D01*
X0055483Y0406179D01*
X0055579Y0406089D01*
X0055672Y0405996D01*
X0055763Y0405901D01*
X0055850Y0405803D01*
X0055935Y0405702D01*
X0056016Y0405599D01*
X0056094Y0405493D01*
X0056169Y0405385D01*
X0056241Y0405275D01*
X0056309Y0405163D01*
X0056374Y0405049D01*
X0056435Y0404932D01*
X0056493Y0404814D01*
X0056547Y0404694D01*
X0056598Y0404573D01*
X0056645Y0404450D01*
X0056688Y0404326D01*
X0056727Y0404201D01*
X0056763Y0404074D01*
X0056794Y0403946D01*
X0056822Y0403818D01*
X0056846Y0403689D01*
X0056866Y0403559D01*
X0056882Y0403428D01*
X0056894Y0403297D01*
X0056902Y0403166D01*
X0056906Y0403035D01*
X0056906Y0402903D01*
X0056902Y0402772D01*
X0056894Y0402641D01*
X0056882Y0402510D01*
X0056866Y0402379D01*
X0056846Y0402249D01*
X0056822Y0402120D01*
X0056794Y0401992D01*
X0056763Y0401864D01*
X0056727Y0401737D01*
X0056688Y0401612D01*
X0056645Y0401488D01*
X0056598Y0401365D01*
X0056547Y0401244D01*
X0056493Y0401124D01*
X0056435Y0401006D01*
X0056374Y0400889D01*
X0056309Y0400775D01*
X0056241Y0400663D01*
X0056169Y0400553D01*
X0056094Y0400445D01*
X0056016Y0400339D01*
X0055935Y0400236D01*
X0055850Y0400135D01*
X0055763Y0400037D01*
X0055672Y0399942D01*
X0055579Y0399849D01*
X0055483Y0399759D01*
X0055384Y0399672D01*
X0055283Y0399589D01*
X0055179Y0399508D01*
X0055073Y0399431D01*
X0054964Y0399357D01*
X0054853Y0399286D01*
X0054741Y0399218D01*
X0054626Y0399154D01*
X0054509Y0399094D01*
X0054390Y0399037D01*
X0054270Y0398984D01*
X0054149Y0398934D01*
X0054025Y0398888D01*
X0053901Y0398846D01*
X0053775Y0398808D01*
X0053648Y0398773D01*
X0053520Y0398742D01*
X0053392Y0398716D01*
X0053262Y0398693D01*
X0053132Y0398674D01*
X0053002Y0398659D01*
X0052871Y0398648D01*
X0052739Y0398641D01*
X0052608Y0398638D01*
X0052476Y0398639D01*
X0052345Y0398644D01*
X0052214Y0398653D01*
X0052083Y0398666D01*
X0051953Y0398683D01*
X0051823Y0398704D01*
X0051694Y0398729D01*
X0051566Y0398757D01*
X0051438Y0398790D01*
X0051312Y0398826D01*
X0051187Y0398867D01*
X0051063Y0398911D01*
X0050940Y0398958D01*
X0050819Y0399010D01*
X0050700Y0399065D01*
X0050582Y0399124D01*
X0050467Y0399186D01*
X0050353Y0399252D01*
X0050241Y0399321D01*
X0050131Y0399393D01*
X0050024Y0399469D01*
X0049919Y0399548D01*
X0049816Y0399630D01*
X0049716Y0399715D01*
X0049619Y0399804D01*
X0049524Y0399895D01*
X0049432Y0399989D01*
X0049343Y0400086D01*
X0049257Y0400185D01*
X0049174Y0400287D01*
X0049094Y0400392D01*
X0049018Y0400498D01*
X0048945Y0400607D01*
X0048875Y0400719D01*
X0048808Y0400832D01*
X0048745Y0400947D01*
X0048685Y0401065D01*
X0048629Y0401183D01*
X0048577Y0401304D01*
X0048528Y0401426D01*
X0048483Y0401550D01*
X0048442Y0401674D01*
X0048405Y0401801D01*
X0048371Y0401928D01*
X0048341Y0402056D01*
X0048316Y0402185D01*
X0048294Y0402314D01*
X0048276Y0402444D01*
X0048262Y0402575D01*
X0048252Y0402706D01*
X0048246Y0402838D01*
X0048244Y0402969D01*
M02*
