G75*
%MOIN*%
%OFA0B0*%
%FSLAX25Y25*%
%IPPOS*%
%LPD*%
%AMOC8*
5,1,8,0,0,1.08239X$1,22.5*
%
%ADD10C,0.01181*%
%ADD11C,0.01300*%
%ADD12R,0.04290X0.00165*%
%ADD13R,0.04290X0.00165*%
%ADD14R,0.02640X0.00165*%
%ADD15R,0.02805X0.00165*%
%ADD16R,0.02640X0.00165*%
%ADD17R,0.02805X0.00165*%
%ADD18R,0.02640X0.00165*%
%ADD19R,0.03300X0.00165*%
%ADD20R,0.01980X0.00165*%
%ADD21R,0.05610X0.00165*%
%ADD22R,0.04620X0.00165*%
%ADD23R,0.04620X0.00165*%
%ADD24R,0.07260X0.00165*%
%ADD25R,0.04950X0.00165*%
%ADD26R,0.05940X0.00165*%
%ADD27R,0.02640X0.00165*%
%ADD28R,0.08415X0.00165*%
%ADD29R,0.05775X0.00165*%
%ADD30R,0.06765X0.00165*%
%ADD31R,0.04950X0.00165*%
%ADD32R,0.09405X0.00165*%
%ADD33R,0.06270X0.00165*%
%ADD34R,0.07590X0.00165*%
%ADD35R,0.09570X0.00165*%
%ADD36R,0.10230X0.00165*%
%ADD37R,0.06600X0.00165*%
%ADD38R,0.08250X0.00165*%
%ADD39R,0.05940X0.00165*%
%ADD40R,0.10395X0.00165*%
%ADD41R,0.11220X0.00165*%
%ADD42R,0.06930X0.00165*%
%ADD43R,0.08910X0.00165*%
%ADD44R,0.11220X0.00165*%
%ADD45R,0.12045X0.00165*%
%ADD46R,0.07095X0.00165*%
%ADD47R,0.09240X0.00165*%
%ADD48R,0.06930X0.00165*%
%ADD49R,0.11880X0.00165*%
%ADD50R,0.12210X0.00165*%
%ADD51R,0.07425X0.00165*%
%ADD52R,0.09900X0.00165*%
%ADD53R,0.07260X0.00165*%
%ADD54R,0.12705X0.00165*%
%ADD55R,0.12375X0.00165*%
%ADD56R,0.13365X0.00165*%
%ADD57R,0.12540X0.00165*%
%ADD58R,0.10560X0.00165*%
%ADD59R,0.07920X0.00165*%
%ADD60R,0.13695X0.00165*%
%ADD61R,0.07755X0.00165*%
%ADD62R,0.10890X0.00165*%
%ADD63R,0.14025X0.00165*%
%ADD64R,0.12870X0.00165*%
%ADD65R,0.07755X0.00165*%
%ADD66R,0.11220X0.00165*%
%ADD67R,0.08580X0.00165*%
%ADD68R,0.14190X0.00165*%
%ADD69R,0.11220X0.00165*%
%ADD70R,0.13035X0.00165*%
%ADD71R,0.07920X0.00165*%
%ADD72R,0.11550X0.00165*%
%ADD73R,0.14355X0.00165*%
%ADD74R,0.11880X0.00165*%
%ADD75R,0.13200X0.00165*%
%ADD76R,0.14520X0.00165*%
%ADD77R,0.08085X0.00165*%
%ADD78R,0.13365X0.00165*%
%ADD79R,0.14685X0.00165*%
%ADD80R,0.14850X0.00165*%
%ADD81R,0.13365X0.00165*%
%ADD82R,0.08085X0.00165*%
%ADD83R,0.12540X0.00165*%
%ADD84R,0.13530X0.00165*%
%ADD85R,0.15015X0.00165*%
%ADD86R,0.13530X0.00165*%
%ADD87R,0.12870X0.00165*%
%ADD88R,0.15180X0.00165*%
%ADD89R,0.12870X0.00165*%
%ADD90R,0.06435X0.00165*%
%ADD91R,0.15345X0.00165*%
%ADD92R,0.05115X0.00165*%
%ADD93R,0.06105X0.00165*%
%ADD94R,0.05280X0.00165*%
%ADD95R,0.04125X0.00165*%
%ADD96R,0.05445X0.00165*%
%ADD97R,0.05115X0.00165*%
%ADD98R,0.04785X0.00165*%
%ADD99R,0.03465X0.00165*%
%ADD100R,0.05115X0.00165*%
%ADD101R,0.04620X0.00165*%
%ADD102R,0.05445X0.00165*%
%ADD103R,0.06435X0.00165*%
%ADD104R,0.02970X0.00165*%
%ADD105R,0.02475X0.00165*%
%ADD106R,0.04455X0.00165*%
%ADD107R,0.05940X0.00165*%
%ADD108R,0.01650X0.00165*%
%ADD109R,0.01155X0.00165*%
%ADD110R,0.04455X0.00165*%
%ADD111R,0.04620X0.00165*%
%ADD112R,0.04785X0.00165*%
%ADD113R,0.05445X0.00165*%
%ADD114R,0.00825X0.00165*%
%ADD115R,0.05445X0.00165*%
%ADD116R,0.00495X0.00165*%
%ADD117R,0.00165X0.00165*%
%ADD118R,0.05280X0.00165*%
%ADD119R,0.05775X0.00165*%
%ADD120R,0.06270X0.00165*%
%ADD121R,0.06765X0.00165*%
%ADD122R,0.07095X0.00165*%
%ADD123R,0.07590X0.00165*%
%ADD124R,0.08745X0.00165*%
%ADD125R,0.07095X0.00165*%
%ADD126R,0.10890X0.00165*%
%ADD127R,0.11055X0.00165*%
%ADD128R,0.11385X0.00165*%
%ADD129R,0.11385X0.00165*%
%ADD130R,0.10890X0.00165*%
%ADD131R,0.09735X0.00165*%
%ADD132R,0.10890X0.00165*%
%ADD133R,0.08745X0.00165*%
%ADD134R,0.12870X0.00165*%
%ADD135R,0.11550X0.00165*%
%ADD136R,0.13035X0.00165*%
%ADD137R,0.08580X0.00165*%
%ADD138R,0.09900X0.00165*%
%ADD139R,0.05115X0.00165*%
%ADD140R,0.09240X0.00165*%
%ADD141R,0.06765X0.00165*%
%ADD142R,0.00495X0.00165*%
%ADD143R,0.00660X0.00165*%
%ADD144R,0.01155X0.00165*%
%ADD145R,0.00990X0.00165*%
%ADD146R,0.01485X0.00165*%
%ADD147R,0.01485X0.00165*%
%ADD148R,0.02970X0.00165*%
%ADD149R,0.03795X0.00165*%
%ADD150R,0.07590X0.00165*%
%ADD151R,0.14190X0.00165*%
%ADD152R,0.12210X0.00165*%
%ADD153R,0.14025X0.00165*%
%ADD154R,0.13860X0.00165*%
%ADD155R,0.12045X0.00165*%
%ADD156R,0.11715X0.00165*%
%ADD157R,0.12045X0.00165*%
%ADD158R,0.10725X0.00165*%
%ADD159R,0.10560X0.00165*%
%ADD160R,0.09570X0.00165*%
%ADD161R,0.03300X0.00165*%
%ADD162R,0.00130X0.00130*%
%ADD163R,0.00260X0.00130*%
%ADD164R,0.00390X0.00130*%
%ADD165R,0.00520X0.00130*%
%ADD166R,0.00650X0.00130*%
%ADD167R,0.00780X0.00130*%
%ADD168R,0.00910X0.00130*%
%ADD169R,0.01040X0.00130*%
%ADD170R,0.01170X0.00130*%
%ADD171R,0.01300X0.00130*%
%ADD172R,0.01430X0.00130*%
%ADD173R,0.01560X0.00130*%
%ADD174R,0.01690X0.00130*%
%ADD175R,0.01820X0.00130*%
%ADD176R,0.01950X0.00130*%
%ADD177R,0.02080X0.00130*%
%ADD178R,0.02210X0.00130*%
%ADD179R,0.02340X0.00130*%
%ADD180R,0.02470X0.00130*%
%ADD181R,0.02600X0.00130*%
%ADD182R,0.02730X0.00130*%
%ADD183R,0.02860X0.00130*%
%ADD184R,0.02990X0.00130*%
%ADD185R,0.03120X0.00130*%
%ADD186R,0.03250X0.00130*%
%ADD187R,0.03380X0.00130*%
%ADD188R,0.03510X0.00130*%
%ADD189R,0.03640X0.00130*%
%ADD190R,0.03770X0.00130*%
%ADD191R,0.03900X0.00130*%
%ADD192R,0.04030X0.00130*%
%ADD193R,0.04160X0.00130*%
%ADD194R,0.04290X0.00130*%
%ADD195R,0.04420X0.00130*%
%ADD196R,0.04550X0.00130*%
%ADD197R,0.04680X0.00130*%
%ADD198R,0.04810X0.00130*%
%ADD199R,0.04940X0.00130*%
%ADD200R,0.05070X0.00130*%
%ADD201R,0.05200X0.00130*%
%ADD202R,0.05330X0.00130*%
%ADD203R,0.05460X0.00130*%
%ADD204R,0.05590X0.00130*%
%ADD205R,0.05720X0.00130*%
%ADD206R,0.05850X0.00130*%
%ADD207R,0.05980X0.00130*%
%ADD208R,0.06110X0.00130*%
%ADD209R,0.06240X0.00130*%
%ADD210R,0.07020X0.00130*%
%ADD211R,0.08190X0.00130*%
%ADD212R,0.09230X0.00130*%
%ADD213R,0.10270X0.00130*%
%ADD214R,0.11180X0.00130*%
%ADD215R,0.12090X0.00130*%
%ADD216R,0.12870X0.00130*%
%ADD217R,0.13650X0.00130*%
%ADD218R,0.14560X0.00130*%
%ADD219R,0.15210X0.00130*%
%ADD220R,0.15990X0.00130*%
%ADD221R,0.00390X0.00130*%
%ADD222R,0.16640X0.00130*%
%ADD223R,0.17290X0.00130*%
%ADD224R,0.01170X0.00130*%
%ADD225R,0.17810X0.00130*%
%ADD226R,0.18460X0.00130*%
%ADD227R,0.01820X0.00130*%
%ADD228R,0.18980X0.00130*%
%ADD229R,0.19630X0.00130*%
%ADD230R,0.02470X0.00130*%
%ADD231R,0.20150X0.00130*%
%ADD232R,0.20670X0.00130*%
%ADD233R,0.03120X0.00130*%
%ADD234R,0.21190X0.00130*%
%ADD235R,0.21580X0.00130*%
%ADD236R,0.03770X0.00130*%
%ADD237R,0.21970X0.00130*%
%ADD238R,0.22490X0.00130*%
%ADD239R,0.04290X0.00130*%
%ADD240R,0.23010X0.00130*%
%ADD241R,0.23400X0.00130*%
%ADD242R,0.04940X0.00130*%
%ADD243R,0.23920X0.00130*%
%ADD244R,0.24310X0.00130*%
%ADD245R,0.24830X0.00130*%
%ADD246R,0.05720X0.00130*%
%ADD247R,0.25220X0.00130*%
%ADD248R,0.25610X0.00130*%
%ADD249R,0.06370X0.00130*%
%ADD250R,0.26000X0.00130*%
%ADD251R,0.06630X0.00130*%
%ADD252R,0.26390X0.00130*%
%ADD253R,0.06890X0.00130*%
%ADD254R,0.26910X0.00130*%
%ADD255R,0.07150X0.00130*%
%ADD256R,0.27300X0.00130*%
%ADD257R,0.07410X0.00130*%
%ADD258R,0.27560X0.00130*%
%ADD259R,0.07670X0.00130*%
%ADD260R,0.27820X0.00130*%
%ADD261R,0.07930X0.00130*%
%ADD262R,0.28210X0.00130*%
%ADD263R,0.08060X0.00130*%
%ADD264R,0.28600X0.00130*%
%ADD265R,0.08320X0.00130*%
%ADD266R,0.28990X0.00130*%
%ADD267R,0.08580X0.00130*%
%ADD268R,0.29250X0.00130*%
%ADD269R,0.08840X0.00130*%
%ADD270R,0.29380X0.00130*%
%ADD271R,0.09100X0.00130*%
%ADD272R,0.29510X0.00130*%
%ADD273R,0.09490X0.00130*%
%ADD274R,0.29640X0.00130*%
%ADD275R,0.09750X0.00130*%
%ADD276R,0.29640X0.00130*%
%ADD277R,0.09880X0.00130*%
%ADD278R,0.29770X0.00130*%
%ADD279R,0.10140X0.00130*%
%ADD280R,0.29770X0.00130*%
%ADD281R,0.10400X0.00130*%
%ADD282R,0.29900X0.00130*%
%ADD283R,0.10530X0.00130*%
%ADD284R,0.10790X0.00130*%
%ADD285R,0.30030X0.00130*%
%ADD286R,0.10920X0.00130*%
%ADD287R,0.30160X0.00130*%
%ADD288R,0.11310X0.00130*%
%ADD289R,0.11440X0.00130*%
%ADD290R,0.11700X0.00130*%
%ADD291R,0.30290X0.00130*%
%ADD292R,0.11830X0.00130*%
%ADD293R,0.11960X0.00130*%
%ADD294R,0.12220X0.00130*%
%ADD295R,0.12350X0.00130*%
%ADD296R,0.30420X0.00130*%
%ADD297R,0.12480X0.00130*%
%ADD298R,0.30420X0.00130*%
%ADD299R,0.12610X0.00130*%
%ADD300R,0.12740X0.00130*%
%ADD301R,0.13000X0.00130*%
%ADD302R,0.30550X0.00130*%
%ADD303R,0.13130X0.00130*%
%ADD304R,0.13260X0.00130*%
%ADD305R,0.13390X0.00130*%
%ADD306R,0.13520X0.00130*%
%ADD307R,0.30680X0.00130*%
%ADD308R,0.13780X0.00130*%
%ADD309R,0.13910X0.00130*%
%ADD310R,0.14040X0.00130*%
%ADD311R,0.14170X0.00130*%
%ADD312R,0.14300X0.00130*%
%ADD313R,0.14430X0.00130*%
%ADD314R,0.22360X0.00130*%
%ADD315R,0.14690X0.00130*%
%ADD316R,0.18070X0.00130*%
%ADD317R,0.17420X0.00130*%
%ADD318R,0.14820X0.00130*%
%ADD319R,0.16900X0.00130*%
%ADD320R,0.16380X0.00130*%
%ADD321R,0.14950X0.00130*%
%ADD322R,0.15860X0.00130*%
%ADD323R,0.15470X0.00130*%
%ADD324R,0.15080X0.00130*%
%ADD325R,0.05070X0.00130*%
%ADD326R,0.14690X0.00130*%
%ADD327R,0.14040X0.00130*%
%ADD328R,0.04420X0.00130*%
%ADD329R,0.12870X0.00130*%
%ADD330R,0.11570X0.00130*%
%ADD331R,0.11440X0.00130*%
%ADD332R,0.11050X0.00130*%
%ADD333R,0.10660X0.00130*%
%ADD334R,0.10790X0.00130*%
%ADD335R,0.10270X0.00130*%
%ADD336R,0.09620X0.00130*%
%ADD337R,0.10010X0.00130*%
%ADD338R,0.09360X0.00130*%
%ADD339R,0.09620X0.00130*%
%ADD340R,0.08840X0.00130*%
%ADD341R,0.08320X0.00130*%
%ADD342R,0.08970X0.00130*%
%ADD343R,0.08710X0.00130*%
%ADD344R,0.08450X0.00130*%
%ADD345R,0.07800X0.00130*%
%ADD346R,0.06890X0.00130*%
%ADD347R,0.06760X0.00130*%
%ADD348R,0.06500X0.00130*%
%ADD349R,0.07020X0.00130*%
%ADD350R,0.00520X0.00130*%
%ADD351R,0.05590X0.00130*%
%ADD352R,0.03640X0.00130*%
%ADD353R,0.02990X0.00130*%
%ADD354R,0.02340X0.00130*%
%ADD355R,0.01690X0.00130*%
%ADD356R,0.01040X0.00130*%
%ADD357R,0.06370X0.00130*%
%ADD358R,0.07280X0.00130*%
%ADD359R,0.07540X0.00130*%
%ADD360R,0.08190X0.00130*%
%ADD361R,0.10920X0.00130*%
%ADD362R,0.14170X0.00130*%
%ADD363R,0.14820X0.00130*%
%ADD364R,0.15600X0.00130*%
%ADD365R,0.15340X0.00130*%
%ADD366R,0.16250X0.00130*%
%ADD367R,0.16770X0.00130*%
%ADD368R,0.17550X0.00130*%
%ADD369R,0.18200X0.00130*%
%ADD370R,0.17680X0.00130*%
%ADD371R,0.19110X0.00130*%
%ADD372R,0.18330X0.00130*%
%ADD373R,0.20020X0.00130*%
%ADD374R,0.20280X0.00130*%
%ADD375R,0.22750X0.00130*%
%ADD376R,0.25090X0.00130*%
%ADD377R,0.23790X0.00130*%
%ADD378R,0.53560X0.00130*%
%ADD379R,0.53300X0.00130*%
%ADD380R,0.53040X0.00130*%
%ADD381R,0.52910X0.00130*%
%ADD382R,0.52650X0.00130*%
%ADD383R,0.52390X0.00130*%
%ADD384R,0.52260X0.00130*%
%ADD385R,0.52000X0.00130*%
%ADD386R,0.51610X0.00130*%
%ADD387R,0.51350X0.00130*%
%ADD388R,0.51090X0.00130*%
%ADD389R,0.50830X0.00130*%
%ADD390R,0.50570X0.00130*%
%ADD391R,0.50310X0.00130*%
%ADD392R,0.49790X0.00130*%
%ADD393R,0.49530X0.00130*%
%ADD394R,0.49270X0.00130*%
%ADD395R,0.48880X0.00130*%
%ADD396R,0.48620X0.00130*%
%ADD397R,0.48100X0.00130*%
%ADD398R,0.47840X0.00130*%
%ADD399R,0.47450X0.00130*%
%ADD400R,0.47060X0.00130*%
%ADD401R,0.46670X0.00130*%
%ADD402R,0.46410X0.00130*%
%ADD403R,0.45890X0.00130*%
%ADD404R,0.45500X0.00130*%
%ADD405R,0.45110X0.00130*%
%ADD406R,0.44720X0.00130*%
%ADD407R,0.44200X0.00130*%
%ADD408R,0.43680X0.00130*%
%ADD409R,0.43290X0.00130*%
%ADD410R,0.42770X0.00130*%
%ADD411R,0.42380X0.00130*%
%ADD412R,0.41860X0.00130*%
%ADD413R,0.41340X0.00130*%
%ADD414R,0.40950X0.00130*%
%ADD415R,0.40300X0.00130*%
%ADD416R,0.39780X0.00130*%
%ADD417R,0.39260X0.00130*%
%ADD418R,0.38740X0.00130*%
%ADD419R,0.38220X0.00130*%
%ADD420R,0.37570X0.00130*%
%ADD421R,0.37050X0.00130*%
%ADD422R,0.36270X0.00130*%
%ADD423R,0.35750X0.00130*%
%ADD424R,0.34970X0.00130*%
%ADD425R,0.34320X0.00130*%
%ADD426R,0.33670X0.00130*%
%ADD427R,0.32890X0.00130*%
%ADD428R,0.32110X0.00130*%
%ADD429R,0.31330X0.00130*%
%ADD430R,0.28860X0.00130*%
%ADD431R,0.27040X0.00130*%
%ADD432R,0.24960X0.00130*%
%ADD433R,0.23790X0.00130*%
%ADD434R,0.22620X0.00130*%
%ADD435R,0.21320X0.00130*%
%ADD436R,0.20020X0.00130*%
%ADD437R,0.18590X0.00130*%
%ADD438R,0.17160X0.00130*%
D10*
X0048638Y0082102D02*
X0048638Y0137220D01*
X0048637Y0137220D02*
X0048640Y0137458D01*
X0048648Y0137696D01*
X0048663Y0137933D01*
X0048683Y0138170D01*
X0048709Y0138406D01*
X0048740Y0138642D01*
X0048777Y0138877D01*
X0048820Y0139111D01*
X0048869Y0139344D01*
X0048923Y0139576D01*
X0048983Y0139806D01*
X0049048Y0140035D01*
X0049119Y0140262D01*
X0049195Y0140487D01*
X0049277Y0140710D01*
X0049364Y0140932D01*
X0049456Y0141151D01*
X0049554Y0141368D01*
X0049656Y0141582D01*
X0049764Y0141794D01*
X0049878Y0142004D01*
X0049996Y0142210D01*
X0050119Y0142414D01*
X0050247Y0142614D01*
X0050379Y0142811D01*
X0050517Y0143006D01*
X0050659Y0143196D01*
X0050806Y0143384D01*
X0050957Y0143567D01*
X0051112Y0143747D01*
X0051272Y0143923D01*
X0051436Y0144095D01*
X0051605Y0144264D01*
X0051777Y0144428D01*
X0051953Y0144588D01*
X0052133Y0144743D01*
X0052316Y0144894D01*
X0052504Y0145041D01*
X0052694Y0145183D01*
X0052889Y0145321D01*
X0053086Y0145453D01*
X0053286Y0145581D01*
X0053490Y0145704D01*
X0053696Y0145822D01*
X0053906Y0145936D01*
X0054118Y0146044D01*
X0054332Y0146146D01*
X0054549Y0146244D01*
X0054768Y0146336D01*
X0054990Y0146423D01*
X0055213Y0146505D01*
X0055438Y0146581D01*
X0055665Y0146652D01*
X0055894Y0146717D01*
X0056124Y0146777D01*
X0056356Y0146831D01*
X0056589Y0146880D01*
X0056823Y0146923D01*
X0057058Y0146960D01*
X0057294Y0146991D01*
X0057530Y0147017D01*
X0057767Y0147037D01*
X0058004Y0147052D01*
X0058242Y0147060D01*
X0058480Y0147063D01*
X0200213Y0147063D01*
X0200213Y0158874D02*
X0145094Y0158874D01*
X0144856Y0158877D01*
X0144618Y0158885D01*
X0144381Y0158900D01*
X0144144Y0158920D01*
X0143908Y0158946D01*
X0143672Y0158977D01*
X0143437Y0159014D01*
X0143203Y0159057D01*
X0142970Y0159106D01*
X0142738Y0159160D01*
X0142508Y0159220D01*
X0142279Y0159285D01*
X0142052Y0159356D01*
X0141827Y0159432D01*
X0141604Y0159514D01*
X0141382Y0159601D01*
X0141163Y0159693D01*
X0140946Y0159791D01*
X0140732Y0159893D01*
X0140520Y0160001D01*
X0140310Y0160115D01*
X0140104Y0160233D01*
X0139900Y0160356D01*
X0139700Y0160484D01*
X0139503Y0160616D01*
X0139308Y0160754D01*
X0139118Y0160896D01*
X0138930Y0161043D01*
X0138747Y0161194D01*
X0138567Y0161349D01*
X0138391Y0161509D01*
X0138219Y0161673D01*
X0138050Y0161842D01*
X0137886Y0162014D01*
X0137726Y0162190D01*
X0137571Y0162370D01*
X0137420Y0162553D01*
X0137273Y0162741D01*
X0137131Y0162931D01*
X0136993Y0163126D01*
X0136861Y0163323D01*
X0136733Y0163523D01*
X0136610Y0163727D01*
X0136492Y0163933D01*
X0136378Y0164143D01*
X0136270Y0164355D01*
X0136168Y0164569D01*
X0136070Y0164786D01*
X0135978Y0165005D01*
X0135891Y0165227D01*
X0135809Y0165450D01*
X0135733Y0165675D01*
X0135662Y0165902D01*
X0135597Y0166131D01*
X0135537Y0166361D01*
X0135483Y0166593D01*
X0135434Y0166826D01*
X0135391Y0167060D01*
X0135354Y0167295D01*
X0135323Y0167531D01*
X0135297Y0167767D01*
X0135277Y0168004D01*
X0135262Y0168241D01*
X0135254Y0168479D01*
X0135251Y0168717D01*
X0135252Y0168717D02*
X0135252Y0334071D01*
X0135251Y0334071D02*
X0135254Y0334309D01*
X0135262Y0334547D01*
X0135277Y0334784D01*
X0135297Y0335021D01*
X0135323Y0335257D01*
X0135354Y0335493D01*
X0135391Y0335728D01*
X0135434Y0335962D01*
X0135483Y0336195D01*
X0135537Y0336427D01*
X0135597Y0336657D01*
X0135662Y0336886D01*
X0135733Y0337113D01*
X0135809Y0337338D01*
X0135891Y0337561D01*
X0135978Y0337783D01*
X0136070Y0338002D01*
X0136168Y0338219D01*
X0136270Y0338433D01*
X0136378Y0338645D01*
X0136492Y0338855D01*
X0136610Y0339061D01*
X0136733Y0339265D01*
X0136861Y0339465D01*
X0136993Y0339662D01*
X0137131Y0339857D01*
X0137273Y0340047D01*
X0137420Y0340235D01*
X0137571Y0340418D01*
X0137726Y0340598D01*
X0137886Y0340774D01*
X0138050Y0340946D01*
X0138219Y0341115D01*
X0138391Y0341279D01*
X0138567Y0341439D01*
X0138747Y0341594D01*
X0138930Y0341745D01*
X0139118Y0341892D01*
X0139308Y0342034D01*
X0139503Y0342172D01*
X0139700Y0342304D01*
X0139900Y0342432D01*
X0140104Y0342555D01*
X0140310Y0342673D01*
X0140520Y0342787D01*
X0140732Y0342895D01*
X0140946Y0342997D01*
X0141163Y0343095D01*
X0141382Y0343187D01*
X0141604Y0343274D01*
X0141827Y0343356D01*
X0142052Y0343432D01*
X0142279Y0343503D01*
X0142508Y0343568D01*
X0142738Y0343628D01*
X0142970Y0343682D01*
X0143203Y0343731D01*
X0143437Y0343774D01*
X0143672Y0343811D01*
X0143908Y0343842D01*
X0144144Y0343868D01*
X0144381Y0343888D01*
X0144618Y0343903D01*
X0144856Y0343911D01*
X0145094Y0343914D01*
X0145094Y0343913D02*
X0200213Y0343913D01*
X0200213Y0343914D02*
X0200451Y0343911D01*
X0200689Y0343903D01*
X0200926Y0343888D01*
X0201163Y0343868D01*
X0201399Y0343842D01*
X0201635Y0343811D01*
X0201870Y0343774D01*
X0202104Y0343731D01*
X0202337Y0343682D01*
X0202569Y0343628D01*
X0202799Y0343568D01*
X0203028Y0343503D01*
X0203255Y0343432D01*
X0203480Y0343356D01*
X0203703Y0343274D01*
X0203925Y0343187D01*
X0204144Y0343095D01*
X0204361Y0342997D01*
X0204575Y0342895D01*
X0204787Y0342787D01*
X0204997Y0342673D01*
X0205203Y0342555D01*
X0205407Y0342432D01*
X0205607Y0342304D01*
X0205804Y0342172D01*
X0205999Y0342034D01*
X0206189Y0341892D01*
X0206377Y0341745D01*
X0206560Y0341594D01*
X0206740Y0341439D01*
X0206916Y0341279D01*
X0207088Y0341115D01*
X0207257Y0340946D01*
X0207421Y0340774D01*
X0207581Y0340598D01*
X0207736Y0340418D01*
X0207887Y0340235D01*
X0208034Y0340047D01*
X0208176Y0339857D01*
X0208314Y0339662D01*
X0208446Y0339465D01*
X0208574Y0339265D01*
X0208697Y0339061D01*
X0208815Y0338855D01*
X0208929Y0338645D01*
X0209037Y0338433D01*
X0209139Y0338219D01*
X0209237Y0338002D01*
X0209329Y0337783D01*
X0209416Y0337561D01*
X0209498Y0337338D01*
X0209574Y0337113D01*
X0209645Y0336886D01*
X0209710Y0336657D01*
X0209770Y0336427D01*
X0209824Y0336195D01*
X0209873Y0335962D01*
X0209916Y0335728D01*
X0209953Y0335493D01*
X0209984Y0335257D01*
X0210010Y0335021D01*
X0210030Y0334784D01*
X0210045Y0334547D01*
X0210053Y0334309D01*
X0210056Y0334071D01*
X0210055Y0334071D02*
X0210055Y0168717D01*
X0210056Y0168717D02*
X0210053Y0168479D01*
X0210045Y0168241D01*
X0210030Y0168004D01*
X0210010Y0167767D01*
X0209984Y0167531D01*
X0209953Y0167295D01*
X0209916Y0167060D01*
X0209873Y0166826D01*
X0209824Y0166593D01*
X0209770Y0166361D01*
X0209710Y0166131D01*
X0209645Y0165902D01*
X0209574Y0165675D01*
X0209498Y0165450D01*
X0209416Y0165227D01*
X0209329Y0165005D01*
X0209237Y0164786D01*
X0209139Y0164569D01*
X0209037Y0164355D01*
X0208929Y0164143D01*
X0208815Y0163933D01*
X0208697Y0163727D01*
X0208574Y0163523D01*
X0208446Y0163323D01*
X0208314Y0163126D01*
X0208176Y0162931D01*
X0208034Y0162741D01*
X0207887Y0162553D01*
X0207736Y0162370D01*
X0207581Y0162190D01*
X0207421Y0162014D01*
X0207257Y0161842D01*
X0207088Y0161673D01*
X0206916Y0161509D01*
X0206740Y0161349D01*
X0206560Y0161194D01*
X0206377Y0161043D01*
X0206189Y0160896D01*
X0205999Y0160754D01*
X0205804Y0160616D01*
X0205607Y0160484D01*
X0205407Y0160356D01*
X0205203Y0160233D01*
X0204997Y0160115D01*
X0204787Y0160001D01*
X0204575Y0159893D01*
X0204361Y0159791D01*
X0204144Y0159693D01*
X0203925Y0159601D01*
X0203703Y0159514D01*
X0203480Y0159432D01*
X0203255Y0159356D01*
X0203028Y0159285D01*
X0202799Y0159220D01*
X0202569Y0159160D01*
X0202337Y0159106D01*
X0202104Y0159057D01*
X0201870Y0159014D01*
X0201635Y0158977D01*
X0201399Y0158946D01*
X0201163Y0158920D01*
X0200926Y0158900D01*
X0200689Y0158885D01*
X0200451Y0158877D01*
X0200213Y0158874D01*
X0200213Y0147063D02*
X0200451Y0147060D01*
X0200689Y0147052D01*
X0200926Y0147037D01*
X0201163Y0147017D01*
X0201399Y0146991D01*
X0201635Y0146960D01*
X0201870Y0146923D01*
X0202104Y0146880D01*
X0202337Y0146831D01*
X0202569Y0146777D01*
X0202799Y0146717D01*
X0203028Y0146652D01*
X0203255Y0146581D01*
X0203480Y0146505D01*
X0203703Y0146423D01*
X0203925Y0146336D01*
X0204144Y0146244D01*
X0204361Y0146146D01*
X0204575Y0146044D01*
X0204787Y0145936D01*
X0204997Y0145822D01*
X0205203Y0145704D01*
X0205407Y0145581D01*
X0205607Y0145453D01*
X0205804Y0145321D01*
X0205999Y0145183D01*
X0206189Y0145041D01*
X0206377Y0144894D01*
X0206560Y0144743D01*
X0206740Y0144588D01*
X0206916Y0144428D01*
X0207088Y0144264D01*
X0207257Y0144095D01*
X0207421Y0143923D01*
X0207581Y0143747D01*
X0207736Y0143567D01*
X0207887Y0143384D01*
X0208034Y0143196D01*
X0208176Y0143006D01*
X0208314Y0142811D01*
X0208446Y0142614D01*
X0208574Y0142414D01*
X0208697Y0142210D01*
X0208815Y0142004D01*
X0208929Y0141794D01*
X0209037Y0141582D01*
X0209139Y0141368D01*
X0209237Y0141151D01*
X0209329Y0140932D01*
X0209416Y0140710D01*
X0209498Y0140487D01*
X0209574Y0140262D01*
X0209645Y0140035D01*
X0209710Y0139806D01*
X0209770Y0139576D01*
X0209824Y0139344D01*
X0209873Y0139111D01*
X0209916Y0138877D01*
X0209953Y0138642D01*
X0209984Y0138406D01*
X0210010Y0138170D01*
X0210030Y0137933D01*
X0210045Y0137696D01*
X0210053Y0137458D01*
X0210056Y0137220D01*
X0210055Y0137220D02*
X0210055Y0082102D01*
X0210056Y0082102D02*
X0210053Y0081864D01*
X0210045Y0081626D01*
X0210030Y0081389D01*
X0210010Y0081152D01*
X0209984Y0080916D01*
X0209953Y0080680D01*
X0209916Y0080445D01*
X0209873Y0080211D01*
X0209824Y0079978D01*
X0209770Y0079746D01*
X0209710Y0079516D01*
X0209645Y0079287D01*
X0209574Y0079060D01*
X0209498Y0078835D01*
X0209416Y0078612D01*
X0209329Y0078390D01*
X0209237Y0078171D01*
X0209139Y0077954D01*
X0209037Y0077740D01*
X0208929Y0077528D01*
X0208815Y0077318D01*
X0208697Y0077112D01*
X0208574Y0076908D01*
X0208446Y0076708D01*
X0208314Y0076511D01*
X0208176Y0076316D01*
X0208034Y0076126D01*
X0207887Y0075938D01*
X0207736Y0075755D01*
X0207581Y0075575D01*
X0207421Y0075399D01*
X0207257Y0075227D01*
X0207088Y0075058D01*
X0206916Y0074894D01*
X0206740Y0074734D01*
X0206560Y0074579D01*
X0206377Y0074428D01*
X0206189Y0074281D01*
X0205999Y0074139D01*
X0205804Y0074001D01*
X0205607Y0073869D01*
X0205407Y0073741D01*
X0205203Y0073618D01*
X0204997Y0073500D01*
X0204787Y0073386D01*
X0204575Y0073278D01*
X0204361Y0073176D01*
X0204144Y0073078D01*
X0203925Y0072986D01*
X0203703Y0072899D01*
X0203480Y0072817D01*
X0203255Y0072741D01*
X0203028Y0072670D01*
X0202799Y0072605D01*
X0202569Y0072545D01*
X0202337Y0072491D01*
X0202104Y0072442D01*
X0201870Y0072399D01*
X0201635Y0072362D01*
X0201399Y0072331D01*
X0201163Y0072305D01*
X0200926Y0072285D01*
X0200689Y0072270D01*
X0200451Y0072262D01*
X0200213Y0072259D01*
X0200213Y0072260D02*
X0058480Y0072260D01*
X0058480Y0072259D02*
X0058242Y0072262D01*
X0058004Y0072270D01*
X0057767Y0072285D01*
X0057530Y0072305D01*
X0057294Y0072331D01*
X0057058Y0072362D01*
X0056823Y0072399D01*
X0056589Y0072442D01*
X0056356Y0072491D01*
X0056124Y0072545D01*
X0055894Y0072605D01*
X0055665Y0072670D01*
X0055438Y0072741D01*
X0055213Y0072817D01*
X0054990Y0072899D01*
X0054768Y0072986D01*
X0054549Y0073078D01*
X0054332Y0073176D01*
X0054118Y0073278D01*
X0053906Y0073386D01*
X0053696Y0073500D01*
X0053490Y0073618D01*
X0053286Y0073741D01*
X0053086Y0073869D01*
X0052889Y0074001D01*
X0052694Y0074139D01*
X0052504Y0074281D01*
X0052316Y0074428D01*
X0052133Y0074579D01*
X0051953Y0074734D01*
X0051777Y0074894D01*
X0051605Y0075058D01*
X0051436Y0075227D01*
X0051272Y0075399D01*
X0051112Y0075575D01*
X0050957Y0075755D01*
X0050806Y0075938D01*
X0050659Y0076126D01*
X0050517Y0076316D01*
X0050379Y0076511D01*
X0050247Y0076708D01*
X0050119Y0076908D01*
X0049996Y0077112D01*
X0049878Y0077318D01*
X0049764Y0077528D01*
X0049656Y0077740D01*
X0049554Y0077954D01*
X0049456Y0078171D01*
X0049364Y0078390D01*
X0049277Y0078612D01*
X0049195Y0078835D01*
X0049119Y0079060D01*
X0049048Y0079287D01*
X0048983Y0079516D01*
X0048923Y0079746D01*
X0048869Y0079978D01*
X0048820Y0080211D01*
X0048777Y0080445D01*
X0048740Y0080680D01*
X0048709Y0080916D01*
X0048683Y0081152D01*
X0048663Y0081389D01*
X0048648Y0081626D01*
X0048640Y0081864D01*
X0048637Y0082102D01*
X0058480Y0158874D02*
X0113598Y0158874D01*
X0113836Y0158877D01*
X0114074Y0158885D01*
X0114311Y0158900D01*
X0114548Y0158920D01*
X0114784Y0158946D01*
X0115020Y0158977D01*
X0115255Y0159014D01*
X0115489Y0159057D01*
X0115722Y0159106D01*
X0115954Y0159160D01*
X0116184Y0159220D01*
X0116413Y0159285D01*
X0116640Y0159356D01*
X0116865Y0159432D01*
X0117088Y0159514D01*
X0117310Y0159601D01*
X0117529Y0159693D01*
X0117746Y0159791D01*
X0117960Y0159893D01*
X0118172Y0160001D01*
X0118382Y0160115D01*
X0118588Y0160233D01*
X0118792Y0160356D01*
X0118992Y0160484D01*
X0119189Y0160616D01*
X0119384Y0160754D01*
X0119574Y0160896D01*
X0119762Y0161043D01*
X0119945Y0161194D01*
X0120125Y0161349D01*
X0120301Y0161509D01*
X0120473Y0161673D01*
X0120642Y0161842D01*
X0120806Y0162014D01*
X0120966Y0162190D01*
X0121121Y0162370D01*
X0121272Y0162553D01*
X0121419Y0162741D01*
X0121561Y0162931D01*
X0121699Y0163126D01*
X0121831Y0163323D01*
X0121959Y0163523D01*
X0122082Y0163727D01*
X0122200Y0163933D01*
X0122314Y0164143D01*
X0122422Y0164355D01*
X0122524Y0164569D01*
X0122622Y0164786D01*
X0122714Y0165005D01*
X0122801Y0165227D01*
X0122883Y0165450D01*
X0122959Y0165675D01*
X0123030Y0165902D01*
X0123095Y0166131D01*
X0123155Y0166361D01*
X0123209Y0166593D01*
X0123258Y0166826D01*
X0123301Y0167060D01*
X0123338Y0167295D01*
X0123369Y0167531D01*
X0123395Y0167767D01*
X0123415Y0168004D01*
X0123430Y0168241D01*
X0123438Y0168479D01*
X0123441Y0168717D01*
X0123441Y0334071D01*
X0123438Y0334309D01*
X0123430Y0334547D01*
X0123415Y0334784D01*
X0123395Y0335021D01*
X0123369Y0335257D01*
X0123338Y0335493D01*
X0123301Y0335728D01*
X0123258Y0335962D01*
X0123209Y0336195D01*
X0123155Y0336427D01*
X0123095Y0336657D01*
X0123030Y0336886D01*
X0122959Y0337113D01*
X0122883Y0337338D01*
X0122801Y0337561D01*
X0122714Y0337783D01*
X0122622Y0338002D01*
X0122524Y0338219D01*
X0122422Y0338433D01*
X0122314Y0338645D01*
X0122200Y0338855D01*
X0122082Y0339061D01*
X0121959Y0339265D01*
X0121831Y0339465D01*
X0121699Y0339662D01*
X0121561Y0339857D01*
X0121419Y0340047D01*
X0121272Y0340235D01*
X0121121Y0340418D01*
X0120966Y0340598D01*
X0120806Y0340774D01*
X0120642Y0340946D01*
X0120473Y0341115D01*
X0120301Y0341279D01*
X0120125Y0341439D01*
X0119945Y0341594D01*
X0119762Y0341745D01*
X0119574Y0341892D01*
X0119384Y0342034D01*
X0119189Y0342172D01*
X0118992Y0342304D01*
X0118792Y0342432D01*
X0118588Y0342555D01*
X0118382Y0342673D01*
X0118172Y0342787D01*
X0117960Y0342895D01*
X0117746Y0342997D01*
X0117529Y0343095D01*
X0117310Y0343187D01*
X0117088Y0343274D01*
X0116865Y0343356D01*
X0116640Y0343432D01*
X0116413Y0343503D01*
X0116184Y0343568D01*
X0115954Y0343628D01*
X0115722Y0343682D01*
X0115489Y0343731D01*
X0115255Y0343774D01*
X0115020Y0343811D01*
X0114784Y0343842D01*
X0114548Y0343868D01*
X0114311Y0343888D01*
X0114074Y0343903D01*
X0113836Y0343911D01*
X0113598Y0343914D01*
X0113598Y0343913D02*
X0058480Y0343913D01*
X0058480Y0343914D02*
X0058242Y0343911D01*
X0058004Y0343903D01*
X0057767Y0343888D01*
X0057530Y0343868D01*
X0057294Y0343842D01*
X0057058Y0343811D01*
X0056823Y0343774D01*
X0056589Y0343731D01*
X0056356Y0343682D01*
X0056124Y0343628D01*
X0055894Y0343568D01*
X0055665Y0343503D01*
X0055438Y0343432D01*
X0055213Y0343356D01*
X0054990Y0343274D01*
X0054768Y0343187D01*
X0054549Y0343095D01*
X0054332Y0342997D01*
X0054118Y0342895D01*
X0053906Y0342787D01*
X0053696Y0342673D01*
X0053490Y0342555D01*
X0053286Y0342432D01*
X0053086Y0342304D01*
X0052889Y0342172D01*
X0052694Y0342034D01*
X0052504Y0341892D01*
X0052316Y0341745D01*
X0052133Y0341594D01*
X0051953Y0341439D01*
X0051777Y0341279D01*
X0051605Y0341115D01*
X0051436Y0340946D01*
X0051272Y0340774D01*
X0051112Y0340598D01*
X0050957Y0340418D01*
X0050806Y0340235D01*
X0050659Y0340047D01*
X0050517Y0339857D01*
X0050379Y0339662D01*
X0050247Y0339465D01*
X0050119Y0339265D01*
X0049996Y0339061D01*
X0049878Y0338855D01*
X0049764Y0338645D01*
X0049656Y0338433D01*
X0049554Y0338219D01*
X0049456Y0338002D01*
X0049364Y0337783D01*
X0049277Y0337561D01*
X0049195Y0337338D01*
X0049119Y0337113D01*
X0049048Y0336886D01*
X0048983Y0336657D01*
X0048923Y0336427D01*
X0048869Y0336195D01*
X0048820Y0335962D01*
X0048777Y0335728D01*
X0048740Y0335493D01*
X0048709Y0335257D01*
X0048683Y0335021D01*
X0048663Y0334784D01*
X0048648Y0334547D01*
X0048640Y0334309D01*
X0048637Y0334071D01*
X0048638Y0334071D02*
X0048638Y0168717D01*
X0048637Y0168717D02*
X0048640Y0168479D01*
X0048648Y0168241D01*
X0048663Y0168004D01*
X0048683Y0167767D01*
X0048709Y0167531D01*
X0048740Y0167295D01*
X0048777Y0167060D01*
X0048820Y0166826D01*
X0048869Y0166593D01*
X0048923Y0166361D01*
X0048983Y0166131D01*
X0049048Y0165902D01*
X0049119Y0165675D01*
X0049195Y0165450D01*
X0049277Y0165227D01*
X0049364Y0165005D01*
X0049456Y0164786D01*
X0049554Y0164569D01*
X0049656Y0164355D01*
X0049764Y0164143D01*
X0049878Y0163933D01*
X0049996Y0163727D01*
X0050119Y0163523D01*
X0050247Y0163323D01*
X0050379Y0163126D01*
X0050517Y0162931D01*
X0050659Y0162741D01*
X0050806Y0162553D01*
X0050957Y0162370D01*
X0051112Y0162190D01*
X0051272Y0162014D01*
X0051436Y0161842D01*
X0051605Y0161673D01*
X0051777Y0161509D01*
X0051953Y0161349D01*
X0052133Y0161194D01*
X0052316Y0161043D01*
X0052504Y0160896D01*
X0052694Y0160754D01*
X0052889Y0160616D01*
X0053086Y0160484D01*
X0053286Y0160356D01*
X0053490Y0160233D01*
X0053696Y0160115D01*
X0053906Y0160001D01*
X0054118Y0159893D01*
X0054332Y0159791D01*
X0054549Y0159693D01*
X0054768Y0159601D01*
X0054990Y0159514D01*
X0055213Y0159432D01*
X0055438Y0159356D01*
X0055665Y0159285D01*
X0055894Y0159220D01*
X0056124Y0159160D01*
X0056356Y0159106D01*
X0056589Y0159057D01*
X0056823Y0159014D01*
X0057058Y0158977D01*
X0057294Y0158946D01*
X0057530Y0158920D01*
X0057767Y0158900D01*
X0058004Y0158885D01*
X0058242Y0158877D01*
X0058480Y0158874D01*
X0107693Y0367535D02*
X0151000Y0367535D01*
X0151238Y0367538D01*
X0151476Y0367546D01*
X0151713Y0367561D01*
X0151950Y0367581D01*
X0152186Y0367607D01*
X0152422Y0367638D01*
X0152657Y0367675D01*
X0152891Y0367718D01*
X0153124Y0367767D01*
X0153356Y0367821D01*
X0153586Y0367881D01*
X0153815Y0367946D01*
X0154042Y0368017D01*
X0154267Y0368093D01*
X0154490Y0368175D01*
X0154712Y0368262D01*
X0154931Y0368354D01*
X0155148Y0368452D01*
X0155362Y0368554D01*
X0155574Y0368662D01*
X0155784Y0368776D01*
X0155990Y0368894D01*
X0156194Y0369017D01*
X0156394Y0369145D01*
X0156591Y0369277D01*
X0156786Y0369415D01*
X0156976Y0369557D01*
X0157164Y0369704D01*
X0157347Y0369855D01*
X0157527Y0370010D01*
X0157703Y0370170D01*
X0157875Y0370334D01*
X0158044Y0370503D01*
X0158208Y0370675D01*
X0158368Y0370851D01*
X0158523Y0371031D01*
X0158674Y0371214D01*
X0158821Y0371402D01*
X0158963Y0371592D01*
X0159101Y0371787D01*
X0159233Y0371984D01*
X0159361Y0372184D01*
X0159484Y0372388D01*
X0159602Y0372594D01*
X0159716Y0372804D01*
X0159824Y0373016D01*
X0159926Y0373230D01*
X0160024Y0373447D01*
X0160116Y0373666D01*
X0160203Y0373888D01*
X0160285Y0374111D01*
X0160361Y0374336D01*
X0160432Y0374563D01*
X0160497Y0374792D01*
X0160557Y0375022D01*
X0160611Y0375254D01*
X0160660Y0375487D01*
X0160703Y0375721D01*
X0160740Y0375956D01*
X0160771Y0376192D01*
X0160797Y0376428D01*
X0160817Y0376665D01*
X0160832Y0376902D01*
X0160840Y0377140D01*
X0160843Y0377378D01*
X0160843Y0397063D01*
X0160840Y0397301D01*
X0160832Y0397539D01*
X0160817Y0397776D01*
X0160797Y0398013D01*
X0160771Y0398249D01*
X0160740Y0398485D01*
X0160703Y0398720D01*
X0160660Y0398954D01*
X0160611Y0399187D01*
X0160557Y0399419D01*
X0160497Y0399649D01*
X0160432Y0399878D01*
X0160361Y0400105D01*
X0160285Y0400330D01*
X0160203Y0400553D01*
X0160116Y0400775D01*
X0160024Y0400994D01*
X0159926Y0401211D01*
X0159824Y0401425D01*
X0159716Y0401637D01*
X0159602Y0401847D01*
X0159484Y0402053D01*
X0159361Y0402257D01*
X0159233Y0402457D01*
X0159101Y0402654D01*
X0158963Y0402849D01*
X0158821Y0403039D01*
X0158674Y0403227D01*
X0158523Y0403410D01*
X0158368Y0403590D01*
X0158208Y0403766D01*
X0158044Y0403938D01*
X0157875Y0404107D01*
X0157703Y0404271D01*
X0157527Y0404431D01*
X0157347Y0404586D01*
X0157164Y0404737D01*
X0156976Y0404884D01*
X0156786Y0405026D01*
X0156591Y0405164D01*
X0156394Y0405296D01*
X0156194Y0405424D01*
X0155990Y0405547D01*
X0155784Y0405665D01*
X0155574Y0405779D01*
X0155362Y0405887D01*
X0155148Y0405989D01*
X0154931Y0406087D01*
X0154712Y0406179D01*
X0154490Y0406266D01*
X0154267Y0406348D01*
X0154042Y0406424D01*
X0153815Y0406495D01*
X0153586Y0406560D01*
X0153356Y0406620D01*
X0153124Y0406674D01*
X0152891Y0406723D01*
X0152657Y0406766D01*
X0152422Y0406803D01*
X0152186Y0406834D01*
X0151950Y0406860D01*
X0151713Y0406880D01*
X0151476Y0406895D01*
X0151238Y0406903D01*
X0151000Y0406906D01*
X0107693Y0406906D01*
X0107455Y0406903D01*
X0107217Y0406895D01*
X0106980Y0406880D01*
X0106743Y0406860D01*
X0106507Y0406834D01*
X0106271Y0406803D01*
X0106036Y0406766D01*
X0105802Y0406723D01*
X0105569Y0406674D01*
X0105337Y0406620D01*
X0105107Y0406560D01*
X0104878Y0406495D01*
X0104651Y0406424D01*
X0104426Y0406348D01*
X0104203Y0406266D01*
X0103981Y0406179D01*
X0103762Y0406087D01*
X0103545Y0405989D01*
X0103331Y0405887D01*
X0103119Y0405779D01*
X0102909Y0405665D01*
X0102703Y0405547D01*
X0102499Y0405424D01*
X0102299Y0405296D01*
X0102102Y0405164D01*
X0101907Y0405026D01*
X0101717Y0404884D01*
X0101529Y0404737D01*
X0101346Y0404586D01*
X0101166Y0404431D01*
X0100990Y0404271D01*
X0100818Y0404107D01*
X0100649Y0403938D01*
X0100485Y0403766D01*
X0100325Y0403590D01*
X0100170Y0403410D01*
X0100019Y0403227D01*
X0099872Y0403039D01*
X0099730Y0402849D01*
X0099592Y0402654D01*
X0099460Y0402457D01*
X0099332Y0402257D01*
X0099209Y0402053D01*
X0099091Y0401847D01*
X0098977Y0401637D01*
X0098869Y0401425D01*
X0098767Y0401211D01*
X0098669Y0400994D01*
X0098577Y0400775D01*
X0098490Y0400553D01*
X0098408Y0400330D01*
X0098332Y0400105D01*
X0098261Y0399878D01*
X0098196Y0399649D01*
X0098136Y0399419D01*
X0098082Y0399187D01*
X0098033Y0398954D01*
X0097990Y0398720D01*
X0097953Y0398485D01*
X0097922Y0398249D01*
X0097896Y0398013D01*
X0097876Y0397776D01*
X0097861Y0397539D01*
X0097853Y0397301D01*
X0097850Y0397063D01*
X0097850Y0377378D01*
X0097853Y0377140D01*
X0097861Y0376902D01*
X0097876Y0376665D01*
X0097896Y0376428D01*
X0097922Y0376192D01*
X0097953Y0375956D01*
X0097990Y0375721D01*
X0098033Y0375487D01*
X0098082Y0375254D01*
X0098136Y0375022D01*
X0098196Y0374792D01*
X0098261Y0374563D01*
X0098332Y0374336D01*
X0098408Y0374111D01*
X0098490Y0373888D01*
X0098577Y0373666D01*
X0098669Y0373447D01*
X0098767Y0373230D01*
X0098869Y0373016D01*
X0098977Y0372804D01*
X0099091Y0372594D01*
X0099209Y0372388D01*
X0099332Y0372184D01*
X0099460Y0371984D01*
X0099592Y0371787D01*
X0099730Y0371592D01*
X0099872Y0371402D01*
X0100019Y0371214D01*
X0100170Y0371031D01*
X0100325Y0370851D01*
X0100485Y0370675D01*
X0100649Y0370503D01*
X0100818Y0370334D01*
X0100990Y0370170D01*
X0101166Y0370010D01*
X0101346Y0369855D01*
X0101529Y0369704D01*
X0101717Y0369557D01*
X0101907Y0369415D01*
X0102102Y0369277D01*
X0102299Y0369145D01*
X0102499Y0369017D01*
X0102703Y0368894D01*
X0102909Y0368776D01*
X0103119Y0368662D01*
X0103331Y0368554D01*
X0103545Y0368452D01*
X0103762Y0368354D01*
X0103981Y0368262D01*
X0104203Y0368175D01*
X0104426Y0368093D01*
X0104651Y0368017D01*
X0104878Y0367946D01*
X0105107Y0367881D01*
X0105337Y0367821D01*
X0105569Y0367767D01*
X0105802Y0367718D01*
X0106036Y0367675D01*
X0106271Y0367638D01*
X0106507Y0367607D01*
X0106743Y0367581D01*
X0106980Y0367561D01*
X0107217Y0367546D01*
X0107455Y0367538D01*
X0107693Y0367535D01*
D11*
X0098078Y0063342D02*
X0098078Y0057864D01*
X0098076Y0057800D01*
X0098071Y0057737D01*
X0098061Y0057674D01*
X0098048Y0057611D01*
X0098032Y0057550D01*
X0098012Y0057489D01*
X0097988Y0057430D01*
X0097961Y0057372D01*
X0097931Y0057316D01*
X0097898Y0057262D01*
X0097861Y0057210D01*
X0097822Y0057160D01*
X0097779Y0057112D01*
X0097734Y0057067D01*
X0097686Y0057024D01*
X0097636Y0056985D01*
X0097584Y0056948D01*
X0097530Y0056915D01*
X0097474Y0056885D01*
X0097416Y0056858D01*
X0097357Y0056834D01*
X0097296Y0056814D01*
X0097235Y0056798D01*
X0097172Y0056785D01*
X0097109Y0056775D01*
X0097046Y0056770D01*
X0096982Y0056768D01*
X0096617Y0056768D01*
X0096617Y0061151D02*
X0098808Y0061151D01*
X0101384Y0061151D02*
X0101384Y0056768D01*
X0103210Y0056768D01*
X0103274Y0056770D01*
X0103337Y0056775D01*
X0103400Y0056785D01*
X0103463Y0056798D01*
X0103524Y0056814D01*
X0103585Y0056834D01*
X0103644Y0056858D01*
X0103702Y0056885D01*
X0103758Y0056915D01*
X0103812Y0056948D01*
X0103864Y0056985D01*
X0103914Y0057024D01*
X0103962Y0057067D01*
X0104007Y0057112D01*
X0104050Y0057160D01*
X0104089Y0057210D01*
X0104126Y0057262D01*
X0104159Y0057316D01*
X0104189Y0057372D01*
X0104216Y0057430D01*
X0104240Y0057489D01*
X0104260Y0057550D01*
X0104276Y0057611D01*
X0104289Y0057674D01*
X0104299Y0057737D01*
X0104304Y0057800D01*
X0104306Y0057864D01*
X0104306Y0061151D01*
X0107897Y0060055D02*
X0107897Y0056768D01*
X0110089Y0056768D02*
X0110089Y0061151D01*
X0108993Y0061151D02*
X0112280Y0061151D01*
X0112280Y0056768D01*
X0116047Y0056768D02*
X0116047Y0060055D01*
X0116049Y0060119D01*
X0116054Y0060182D01*
X0116064Y0060245D01*
X0116077Y0060308D01*
X0116093Y0060369D01*
X0116113Y0060430D01*
X0116137Y0060489D01*
X0116164Y0060547D01*
X0116194Y0060603D01*
X0116227Y0060657D01*
X0116264Y0060709D01*
X0116303Y0060759D01*
X0116346Y0060807D01*
X0116391Y0060852D01*
X0116439Y0060895D01*
X0116489Y0060934D01*
X0116541Y0060971D01*
X0116595Y0061004D01*
X0116651Y0061034D01*
X0116709Y0061061D01*
X0116768Y0061085D01*
X0116829Y0061105D01*
X0116890Y0061121D01*
X0116953Y0061134D01*
X0117016Y0061144D01*
X0117079Y0061149D01*
X0117143Y0061151D01*
X0120430Y0061151D01*
X0120430Y0056768D01*
X0118238Y0056768D02*
X0118238Y0061151D01*
X0123795Y0059690D02*
X0123795Y0058229D01*
X0123797Y0058154D01*
X0123803Y0058079D01*
X0123812Y0058004D01*
X0123826Y0057930D01*
X0123843Y0057857D01*
X0123864Y0057785D01*
X0123889Y0057714D01*
X0123917Y0057644D01*
X0123949Y0057576D01*
X0123985Y0057509D01*
X0124023Y0057445D01*
X0124065Y0057382D01*
X0124110Y0057322D01*
X0124159Y0057265D01*
X0124210Y0057209D01*
X0124264Y0057157D01*
X0124320Y0057107D01*
X0124379Y0057060D01*
X0124440Y0057017D01*
X0124504Y0056976D01*
X0124569Y0056939D01*
X0124637Y0056906D01*
X0124706Y0056876D01*
X0124776Y0056849D01*
X0124848Y0056826D01*
X0124920Y0056807D01*
X0124994Y0056792D01*
X0125068Y0056780D01*
X0125143Y0056772D01*
X0125218Y0056768D01*
X0125294Y0056768D01*
X0125369Y0056772D01*
X0125444Y0056780D01*
X0125518Y0056792D01*
X0125592Y0056807D01*
X0125664Y0056826D01*
X0125736Y0056849D01*
X0125806Y0056876D01*
X0125875Y0056906D01*
X0125943Y0056939D01*
X0126008Y0056976D01*
X0126072Y0057017D01*
X0126133Y0057060D01*
X0126192Y0057107D01*
X0126248Y0057157D01*
X0126302Y0057209D01*
X0126353Y0057265D01*
X0126402Y0057322D01*
X0126447Y0057382D01*
X0126489Y0057445D01*
X0126527Y0057509D01*
X0126563Y0057576D01*
X0126595Y0057644D01*
X0126623Y0057714D01*
X0126648Y0057785D01*
X0126669Y0057857D01*
X0126686Y0057930D01*
X0126700Y0058004D01*
X0126709Y0058079D01*
X0126715Y0058154D01*
X0126717Y0058229D01*
X0126717Y0059690D01*
X0126715Y0059765D01*
X0126709Y0059840D01*
X0126700Y0059915D01*
X0126686Y0059989D01*
X0126669Y0060062D01*
X0126648Y0060134D01*
X0126623Y0060205D01*
X0126595Y0060275D01*
X0126563Y0060343D01*
X0126527Y0060410D01*
X0126489Y0060474D01*
X0126447Y0060537D01*
X0126402Y0060597D01*
X0126353Y0060654D01*
X0126302Y0060710D01*
X0126248Y0060762D01*
X0126192Y0060812D01*
X0126133Y0060859D01*
X0126072Y0060902D01*
X0126008Y0060943D01*
X0125943Y0060980D01*
X0125875Y0061013D01*
X0125806Y0061043D01*
X0125736Y0061070D01*
X0125664Y0061093D01*
X0125592Y0061112D01*
X0125518Y0061127D01*
X0125444Y0061139D01*
X0125369Y0061147D01*
X0125294Y0061151D01*
X0125218Y0061151D01*
X0125143Y0061147D01*
X0125068Y0061139D01*
X0124994Y0061127D01*
X0124920Y0061112D01*
X0124848Y0061093D01*
X0124776Y0061070D01*
X0124706Y0061043D01*
X0124637Y0061013D01*
X0124569Y0060980D01*
X0124504Y0060943D01*
X0124440Y0060902D01*
X0124379Y0060859D01*
X0124320Y0060812D01*
X0124264Y0060762D01*
X0124210Y0060710D01*
X0124159Y0060654D01*
X0124110Y0060597D01*
X0124065Y0060537D01*
X0124023Y0060474D01*
X0123985Y0060410D01*
X0123949Y0060343D01*
X0123917Y0060275D01*
X0123889Y0060205D01*
X0123864Y0060134D01*
X0123843Y0060062D01*
X0123826Y0059989D01*
X0123812Y0059915D01*
X0123803Y0059840D01*
X0123797Y0059765D01*
X0123795Y0059690D01*
X0129391Y0056768D02*
X0130852Y0056768D01*
X0130926Y0056770D01*
X0131000Y0056775D01*
X0131073Y0056785D01*
X0131146Y0056798D01*
X0131218Y0056815D01*
X0131289Y0056835D01*
X0131359Y0056859D01*
X0131428Y0056886D01*
X0131495Y0056917D01*
X0131561Y0056952D01*
X0131625Y0056989D01*
X0131687Y0057030D01*
X0131746Y0057074D01*
X0131804Y0057120D01*
X0131859Y0057170D01*
X0131911Y0057222D01*
X0131961Y0057277D01*
X0132007Y0057335D01*
X0132051Y0057394D01*
X0132092Y0057456D01*
X0132129Y0057520D01*
X0132164Y0057586D01*
X0132195Y0057653D01*
X0132222Y0057722D01*
X0132246Y0057792D01*
X0132266Y0057863D01*
X0132283Y0057935D01*
X0132296Y0058008D01*
X0132306Y0058081D01*
X0132311Y0058155D01*
X0132313Y0058229D01*
X0132313Y0061881D01*
X0132311Y0061955D01*
X0132306Y0062029D01*
X0132296Y0062102D01*
X0132283Y0062175D01*
X0132266Y0062247D01*
X0132246Y0062318D01*
X0132222Y0062388D01*
X0132195Y0062457D01*
X0132164Y0062524D01*
X0132129Y0062590D01*
X0132092Y0062654D01*
X0132051Y0062716D01*
X0132007Y0062775D01*
X0131961Y0062833D01*
X0131911Y0062888D01*
X0131859Y0062940D01*
X0131804Y0062990D01*
X0131746Y0063036D01*
X0131687Y0063080D01*
X0131625Y0063121D01*
X0131561Y0063158D01*
X0131495Y0063193D01*
X0131428Y0063224D01*
X0131359Y0063251D01*
X0131289Y0063275D01*
X0131218Y0063295D01*
X0131146Y0063312D01*
X0131073Y0063325D01*
X0131000Y0063335D01*
X0130926Y0063340D01*
X0130852Y0063342D01*
X0129391Y0063342D01*
X0113170Y0049340D02*
X0111709Y0044957D01*
X0110248Y0049340D01*
X0107423Y0050070D02*
X0105597Y0051531D01*
X0105597Y0044957D01*
X0107423Y0044957D02*
X0103771Y0044957D01*
X0101026Y0044957D02*
X0100660Y0044957D01*
X0100660Y0045322D01*
X0101026Y0045322D01*
X0101026Y0044957D01*
X0097915Y0044957D02*
X0094263Y0044957D01*
X0096089Y0044957D02*
X0096089Y0051531D01*
X0097915Y0050070D01*
X0092660Y0056768D02*
X0091017Y0056768D01*
X0091017Y0060055D01*
X0091017Y0059325D02*
X0092660Y0059325D01*
X0091017Y0060055D02*
X0091019Y0060119D01*
X0091024Y0060182D01*
X0091034Y0060245D01*
X0091047Y0060308D01*
X0091063Y0060369D01*
X0091083Y0060430D01*
X0091107Y0060489D01*
X0091134Y0060547D01*
X0091164Y0060603D01*
X0091197Y0060657D01*
X0091234Y0060709D01*
X0091273Y0060759D01*
X0091316Y0060807D01*
X0091361Y0060852D01*
X0091409Y0060895D01*
X0091459Y0060934D01*
X0091511Y0060971D01*
X0091565Y0061004D01*
X0091621Y0061034D01*
X0091679Y0061061D01*
X0091738Y0061085D01*
X0091799Y0061105D01*
X0091860Y0061121D01*
X0091923Y0061134D01*
X0091986Y0061144D01*
X0092049Y0061149D01*
X0092113Y0061151D01*
X0093573Y0061151D01*
X0092660Y0059324D02*
X0092730Y0059322D01*
X0092801Y0059316D01*
X0092870Y0059307D01*
X0092939Y0059293D01*
X0093008Y0059276D01*
X0093075Y0059255D01*
X0093141Y0059230D01*
X0093205Y0059202D01*
X0093268Y0059170D01*
X0093329Y0059135D01*
X0093388Y0059096D01*
X0093445Y0059055D01*
X0093499Y0059010D01*
X0093551Y0058962D01*
X0093600Y0058912D01*
X0093647Y0058858D01*
X0093690Y0058803D01*
X0093730Y0058745D01*
X0093767Y0058685D01*
X0093800Y0058623D01*
X0093830Y0058559D01*
X0093857Y0058494D01*
X0093880Y0058428D01*
X0093899Y0058360D01*
X0093914Y0058291D01*
X0093926Y0058222D01*
X0093934Y0058152D01*
X0093938Y0058081D01*
X0093938Y0058011D01*
X0093934Y0057940D01*
X0093926Y0057870D01*
X0093914Y0057801D01*
X0093899Y0057732D01*
X0093880Y0057664D01*
X0093857Y0057598D01*
X0093830Y0057533D01*
X0093800Y0057469D01*
X0093767Y0057407D01*
X0093730Y0057347D01*
X0093690Y0057289D01*
X0093647Y0057234D01*
X0093600Y0057180D01*
X0093551Y0057130D01*
X0093499Y0057082D01*
X0093445Y0057037D01*
X0093388Y0056996D01*
X0093329Y0056957D01*
X0093268Y0056922D01*
X0093205Y0056890D01*
X0093141Y0056862D01*
X0093075Y0056837D01*
X0093008Y0056816D01*
X0092939Y0056799D01*
X0092870Y0056785D01*
X0092801Y0056776D01*
X0092730Y0056770D01*
X0092660Y0056768D01*
X0088395Y0061151D02*
X0086203Y0061151D01*
X0087664Y0063342D02*
X0087664Y0057864D01*
X0087665Y0057864D02*
X0087663Y0057800D01*
X0087658Y0057737D01*
X0087648Y0057674D01*
X0087635Y0057611D01*
X0087619Y0057550D01*
X0087599Y0057489D01*
X0087575Y0057430D01*
X0087548Y0057372D01*
X0087518Y0057316D01*
X0087485Y0057262D01*
X0087448Y0057210D01*
X0087409Y0057160D01*
X0087366Y0057112D01*
X0087321Y0057067D01*
X0087273Y0057024D01*
X0087223Y0056985D01*
X0087171Y0056948D01*
X0087117Y0056915D01*
X0087061Y0056885D01*
X0087003Y0056858D01*
X0086944Y0056834D01*
X0086883Y0056814D01*
X0086822Y0056798D01*
X0086759Y0056785D01*
X0086696Y0056775D01*
X0086633Y0056770D01*
X0086569Y0056768D01*
X0086203Y0056768D01*
X0083479Y0058229D02*
X0083479Y0059690D01*
X0083477Y0059765D01*
X0083471Y0059840D01*
X0083462Y0059915D01*
X0083448Y0059989D01*
X0083431Y0060062D01*
X0083410Y0060134D01*
X0083385Y0060205D01*
X0083357Y0060275D01*
X0083325Y0060343D01*
X0083289Y0060410D01*
X0083251Y0060474D01*
X0083209Y0060537D01*
X0083164Y0060597D01*
X0083115Y0060654D01*
X0083064Y0060710D01*
X0083010Y0060762D01*
X0082954Y0060812D01*
X0082895Y0060859D01*
X0082834Y0060902D01*
X0082770Y0060943D01*
X0082705Y0060980D01*
X0082637Y0061013D01*
X0082568Y0061043D01*
X0082498Y0061070D01*
X0082426Y0061093D01*
X0082354Y0061112D01*
X0082280Y0061127D01*
X0082206Y0061139D01*
X0082131Y0061147D01*
X0082056Y0061151D01*
X0081980Y0061151D01*
X0081905Y0061147D01*
X0081830Y0061139D01*
X0081756Y0061127D01*
X0081682Y0061112D01*
X0081610Y0061093D01*
X0081538Y0061070D01*
X0081468Y0061043D01*
X0081399Y0061013D01*
X0081331Y0060980D01*
X0081266Y0060943D01*
X0081202Y0060902D01*
X0081141Y0060859D01*
X0081082Y0060812D01*
X0081026Y0060762D01*
X0080972Y0060710D01*
X0080921Y0060654D01*
X0080872Y0060597D01*
X0080827Y0060537D01*
X0080785Y0060474D01*
X0080747Y0060410D01*
X0080711Y0060343D01*
X0080679Y0060275D01*
X0080651Y0060205D01*
X0080626Y0060134D01*
X0080605Y0060062D01*
X0080588Y0059989D01*
X0080574Y0059915D01*
X0080565Y0059840D01*
X0080559Y0059765D01*
X0080557Y0059690D01*
X0080557Y0058229D01*
X0080559Y0058154D01*
X0080565Y0058079D01*
X0080574Y0058004D01*
X0080588Y0057930D01*
X0080605Y0057857D01*
X0080626Y0057785D01*
X0080651Y0057714D01*
X0080679Y0057644D01*
X0080711Y0057576D01*
X0080747Y0057509D01*
X0080785Y0057445D01*
X0080827Y0057382D01*
X0080872Y0057322D01*
X0080921Y0057265D01*
X0080972Y0057209D01*
X0081026Y0057157D01*
X0081082Y0057107D01*
X0081141Y0057060D01*
X0081202Y0057017D01*
X0081266Y0056976D01*
X0081331Y0056939D01*
X0081399Y0056906D01*
X0081468Y0056876D01*
X0081538Y0056849D01*
X0081610Y0056826D01*
X0081682Y0056807D01*
X0081756Y0056792D01*
X0081830Y0056780D01*
X0081905Y0056772D01*
X0081980Y0056768D01*
X0082056Y0056768D01*
X0082131Y0056772D01*
X0082206Y0056780D01*
X0082280Y0056792D01*
X0082354Y0056807D01*
X0082426Y0056826D01*
X0082498Y0056849D01*
X0082568Y0056876D01*
X0082637Y0056906D01*
X0082705Y0056939D01*
X0082770Y0056976D01*
X0082834Y0057017D01*
X0082895Y0057060D01*
X0082954Y0057107D01*
X0083010Y0057157D01*
X0083064Y0057209D01*
X0083115Y0057265D01*
X0083164Y0057322D01*
X0083209Y0057382D01*
X0083251Y0057445D01*
X0083289Y0057509D01*
X0083325Y0057576D01*
X0083357Y0057644D01*
X0083385Y0057714D01*
X0083410Y0057785D01*
X0083431Y0057857D01*
X0083448Y0057930D01*
X0083462Y0058004D01*
X0083471Y0058079D01*
X0083477Y0058154D01*
X0083479Y0058229D01*
X0077311Y0056768D02*
X0077311Y0061151D01*
X0075120Y0061151D01*
X0075120Y0060420D01*
X0107897Y0060055D02*
X0107899Y0060119D01*
X0107904Y0060182D01*
X0107914Y0060245D01*
X0107927Y0060308D01*
X0107943Y0060369D01*
X0107963Y0060430D01*
X0107987Y0060489D01*
X0108014Y0060547D01*
X0108044Y0060603D01*
X0108077Y0060657D01*
X0108114Y0060709D01*
X0108153Y0060759D01*
X0108196Y0060807D01*
X0108241Y0060852D01*
X0108289Y0060895D01*
X0108339Y0060934D01*
X0108391Y0060971D01*
X0108445Y0061004D01*
X0108501Y0061034D01*
X0108559Y0061061D01*
X0108618Y0061085D01*
X0108679Y0061105D01*
X0108740Y0061121D01*
X0108803Y0061134D01*
X0108866Y0061144D01*
X0108929Y0061149D01*
X0108993Y0061151D01*
D12*
X0133223Y0096227D03*
X0133223Y0096392D03*
X0133223Y0096722D03*
X0133223Y0096887D03*
X0133223Y0097052D03*
X0133223Y0097217D03*
X0133223Y0097547D03*
X0133223Y0097712D03*
X0133223Y0097877D03*
X0133223Y0098042D03*
X0133223Y0098372D03*
X0133223Y0098537D03*
X0133223Y0098702D03*
X0133223Y0098867D03*
X0133223Y0099197D03*
X0133223Y0099362D03*
X0133223Y0099527D03*
X0133223Y0099692D03*
X0133223Y0100022D03*
X0133223Y0100187D03*
X0133223Y0100352D03*
X0133223Y0100517D03*
X0133223Y0100847D03*
X0133223Y0101012D03*
X0133223Y0101177D03*
X0133223Y0101342D03*
X0133223Y0101672D03*
X0133223Y0101837D03*
X0133223Y0102002D03*
X0133223Y0102167D03*
X0133223Y0102497D03*
X0133223Y0102662D03*
X0133223Y0102827D03*
X0133223Y0102992D03*
X0133223Y0107117D03*
X0133223Y0107447D03*
X0133223Y0107612D03*
X0133223Y0107777D03*
X0133223Y0107942D03*
X0133223Y0108272D03*
X0133223Y0108437D03*
X0133223Y0108602D03*
X0133223Y0108767D03*
X0133223Y0109097D03*
X0133223Y0109262D03*
X0133223Y0113222D03*
X0133223Y0113387D03*
X0133223Y0113552D03*
X0133223Y0113717D03*
X0133223Y0114047D03*
X0133223Y0114212D03*
X0133223Y0114377D03*
X0133223Y0114542D03*
X0133223Y0114872D03*
X0126623Y0114872D03*
X0094448Y0108272D03*
X0094448Y0107942D03*
X0094448Y0107777D03*
X0094448Y0107612D03*
X0094448Y0107447D03*
X0094448Y0107117D03*
X0094448Y0106952D03*
X0094448Y0106787D03*
X0094448Y0106622D03*
X0094448Y0106292D03*
X0094448Y0106127D03*
X0094448Y0105962D03*
X0094448Y0105797D03*
X0094448Y0105467D03*
X0094448Y0105302D03*
X0094448Y0105137D03*
X0094448Y0104972D03*
X0161768Y0105467D03*
X0161768Y0105797D03*
X0161768Y0105962D03*
X0161768Y0106127D03*
X0161768Y0106292D03*
X0161768Y0106622D03*
X0161768Y0106787D03*
X0161768Y0106952D03*
X0161768Y0107117D03*
X0161768Y0107447D03*
X0161768Y0107612D03*
X0161768Y0107777D03*
X0161768Y0107942D03*
X0161768Y0108272D03*
X0161768Y0108437D03*
X0161768Y0108602D03*
X0161768Y0108767D03*
X0161768Y0109097D03*
X0161768Y0109262D03*
X0161768Y0109427D03*
X0161768Y0109592D03*
X0161768Y0109922D03*
X0161768Y0110087D03*
X0161768Y0110252D03*
X0161768Y0110417D03*
X0161768Y0110747D03*
X0161768Y0110912D03*
X0161768Y0111077D03*
X0161768Y0111242D03*
X0161768Y0111572D03*
X0161768Y0111737D03*
X0161768Y0115037D03*
X0161768Y0115202D03*
X0161768Y0115367D03*
X0161768Y0115697D03*
X0161768Y0115862D03*
X0161768Y0116027D03*
X0161768Y0116192D03*
X0161768Y0116522D03*
X0161768Y0116687D03*
X0161768Y0116852D03*
X0161768Y0117017D03*
X0161768Y0117347D03*
X0161768Y0117512D03*
X0161768Y0117677D03*
X0161768Y0117842D03*
X0161768Y0118172D03*
X0161768Y0118337D03*
X0161768Y0118502D03*
X0161768Y0118667D03*
X0180083Y0115367D03*
X0180248Y0115037D03*
X0180248Y0114872D03*
X0180248Y0114542D03*
X0180248Y0114377D03*
X0180248Y0114212D03*
D13*
X0180248Y0114707D03*
X0171503Y0116357D03*
X0161768Y0116357D03*
X0161768Y0117182D03*
X0161768Y0118007D03*
X0161768Y0115532D03*
X0161768Y0111407D03*
X0161768Y0110582D03*
X0161768Y0109757D03*
X0161768Y0108932D03*
X0161768Y0108107D03*
X0161768Y0107282D03*
X0161768Y0106457D03*
X0161768Y0105632D03*
X0133223Y0107282D03*
X0133223Y0108107D03*
X0133223Y0108932D03*
X0133223Y0113882D03*
X0133223Y0114707D03*
X0133223Y0103157D03*
X0133223Y0102332D03*
X0133223Y0101507D03*
X0133223Y0100682D03*
X0133223Y0099857D03*
X0133223Y0099032D03*
X0133223Y0098207D03*
X0133223Y0097382D03*
X0133223Y0096557D03*
X0126623Y0101507D03*
X0094448Y0104807D03*
X0094448Y0105632D03*
X0094448Y0106457D03*
X0094448Y0107282D03*
X0094448Y0108107D03*
D14*
X0113588Y0114872D03*
X0112763Y0117347D03*
X0112763Y0117512D03*
X0114413Y0112067D03*
X0115238Y0109592D03*
X0115238Y0109427D03*
X0116063Y0106952D03*
X0116063Y0106787D03*
X0116888Y0104477D03*
X0116888Y0104312D03*
X0116888Y0104147D03*
X0117713Y0101837D03*
X0117713Y0101672D03*
X0118538Y0099197D03*
D15*
X0118456Y0099362D03*
X0118126Y0100352D03*
X0117961Y0100847D03*
X0117796Y0101342D03*
X0117631Y0102002D03*
X0117466Y0102497D03*
X0117301Y0102992D03*
X0117136Y0103487D03*
X0116641Y0105137D03*
X0116311Y0106127D03*
X0116146Y0106622D03*
X0115981Y0107117D03*
X0115651Y0108272D03*
X0115486Y0108767D03*
X0115321Y0109262D03*
X0114991Y0110252D03*
X0114826Y0110912D03*
X0114496Y0111902D03*
X0114331Y0112397D03*
X0114166Y0112892D03*
X0113836Y0114047D03*
X0113671Y0114542D03*
X0113506Y0115037D03*
X0113176Y0116027D03*
X0113011Y0116687D03*
X0112681Y0117677D03*
X0112516Y0118172D03*
X0112351Y0118667D03*
X0112186Y0119162D03*
D16*
X0112103Y0119327D03*
X0112268Y0118997D03*
X0112433Y0118502D03*
X0112433Y0118337D03*
X0112598Y0117842D03*
X0112928Y0117017D03*
X0112928Y0116852D03*
X0113093Y0116522D03*
X0113093Y0116192D03*
X0113258Y0115862D03*
X0113258Y0115697D03*
X0113423Y0115367D03*
X0113423Y0115202D03*
X0113753Y0114377D03*
X0113753Y0114212D03*
X0113918Y0113717D03*
X0113918Y0113552D03*
X0114083Y0113387D03*
X0114083Y0113222D03*
X0114248Y0112727D03*
X0114248Y0112562D03*
X0114578Y0111737D03*
X0114578Y0111572D03*
X0114743Y0111242D03*
X0114743Y0111077D03*
X0114908Y0110747D03*
X0114908Y0110417D03*
X0115073Y0110087D03*
X0115073Y0109922D03*
X0115403Y0109097D03*
X0115568Y0108602D03*
X0115568Y0108437D03*
X0115733Y0107942D03*
X0115733Y0107777D03*
X0115898Y0107612D03*
X0115898Y0107447D03*
X0116228Y0106292D03*
X0116393Y0105962D03*
X0116393Y0105797D03*
X0116558Y0105467D03*
X0116558Y0105302D03*
X0116723Y0104972D03*
X0116723Y0104642D03*
X0117053Y0103817D03*
X0117053Y0103652D03*
X0117218Y0103322D03*
X0117383Y0102827D03*
X0117383Y0102662D03*
X0117548Y0102167D03*
X0117878Y0101177D03*
X0117878Y0101012D03*
X0118043Y0100517D03*
X0118208Y0100187D03*
X0118208Y0100022D03*
X0118373Y0099692D03*
X0118373Y0099527D03*
X0146093Y0101177D03*
X0146093Y0115202D03*
X0170678Y0116027D03*
X0082073Y0115202D03*
X0082073Y0101177D03*
D17*
X0113341Y0115532D03*
X0112846Y0117182D03*
X0114661Y0111407D03*
X0115156Y0109757D03*
X0116476Y0105632D03*
X0116971Y0103982D03*
X0118291Y0099857D03*
D18*
X0118043Y0100682D03*
X0117548Y0102332D03*
X0117218Y0103157D03*
X0116723Y0104807D03*
X0116228Y0106457D03*
X0115898Y0107282D03*
X0115733Y0108107D03*
X0115403Y0108932D03*
X0114908Y0110582D03*
X0114083Y0113057D03*
X0113918Y0113882D03*
X0113093Y0116357D03*
X0112598Y0118007D03*
X0112268Y0118832D03*
D19*
X0126623Y0115037D03*
X0126623Y0101342D03*
X0099728Y0101177D03*
X0171008Y0116192D03*
X0175463Y0101177D03*
D20*
X0181238Y0105302D03*
X0170348Y0115862D03*
X0126623Y0115202D03*
X0126623Y0101177D03*
X0093953Y0115697D03*
D21*
X0099398Y0119492D03*
X0105668Y0105467D03*
X0099563Y0101342D03*
X0095108Y0104477D03*
X0085703Y0104312D03*
X0078443Y0104312D03*
X0078443Y0112067D03*
X0126623Y0114542D03*
X0132563Y0111737D03*
X0132563Y0104642D03*
X0126623Y0101837D03*
X0142463Y0104312D03*
X0142463Y0112067D03*
X0149723Y0104312D03*
X0175463Y0101342D03*
X0175298Y0119492D03*
D22*
X0179918Y0115697D03*
X0180083Y0113552D03*
X0151208Y0109427D03*
X0151043Y0110087D03*
X0151043Y0110252D03*
X0151208Y0106952D03*
X0151043Y0106292D03*
X0151043Y0106127D03*
X0146093Y0101342D03*
X0141308Y0105797D03*
X0141143Y0106127D03*
X0141143Y0106292D03*
X0141143Y0110087D03*
X0141143Y0110252D03*
X0141308Y0110747D03*
X0146093Y0115037D03*
X0133058Y0110417D03*
X0133058Y0110252D03*
X0133058Y0106127D03*
X0133058Y0105962D03*
X0123158Y0106952D03*
X0123158Y0109427D03*
X0086858Y0110747D03*
X0086693Y0110912D03*
X0086693Y0111077D03*
X0086858Y0105797D03*
X0086693Y0105467D03*
X0086693Y0105302D03*
D23*
X0087023Y0106127D03*
X0087023Y0106292D03*
X0087188Y0106952D03*
X0087188Y0109427D03*
X0087023Y0110087D03*
X0087023Y0110252D03*
X0082073Y0115037D03*
X0077453Y0111077D03*
X0077453Y0110912D03*
X0077288Y0110747D03*
X0077123Y0110252D03*
X0077123Y0110087D03*
X0077123Y0106292D03*
X0077123Y0106127D03*
X0077288Y0105797D03*
X0077453Y0105302D03*
X0082073Y0101342D03*
X0123323Y0105962D03*
X0123323Y0106127D03*
X0123488Y0105797D03*
X0123653Y0105302D03*
X0123323Y0110252D03*
X0123323Y0110417D03*
X0123488Y0110747D03*
X0123653Y0111077D03*
X0141473Y0111077D03*
X0141473Y0110912D03*
X0141473Y0105302D03*
X0150713Y0105302D03*
X0150713Y0105467D03*
X0150878Y0105797D03*
X0150878Y0110747D03*
X0150713Y0110912D03*
X0150713Y0111077D03*
X0161603Y0104972D03*
X0170513Y0106952D03*
X0170513Y0107117D03*
X0170678Y0105302D03*
D24*
X0175628Y0101507D03*
X0126623Y0113882D03*
X0099563Y0101507D03*
D25*
X0106658Y0107282D03*
X0106988Y0108107D03*
X0123818Y0111407D03*
X0126623Y0114707D03*
X0123983Y0104807D03*
X0141803Y0104807D03*
X0150383Y0104807D03*
X0157973Y0101507D03*
X0086363Y0104807D03*
X0077783Y0104807D03*
D26*
X0082073Y0101507D03*
X0146093Y0101507D03*
X0179093Y0116357D03*
D27*
X0117713Y0101507D03*
X0114413Y0112232D03*
X0113588Y0114707D03*
D28*
X0099316Y0119162D03*
X0099481Y0101672D03*
X0175711Y0101672D03*
X0174886Y0119162D03*
D29*
X0179341Y0112892D03*
X0158386Y0101672D03*
X0149641Y0112067D03*
X0124561Y0112067D03*
X0124561Y0104312D03*
X0105421Y0105302D03*
X0105586Y0115367D03*
X0085621Y0112067D03*
D30*
X0081991Y0101672D03*
X0104431Y0104642D03*
X0104431Y0116192D03*
X0146011Y0101672D03*
D31*
X0141803Y0111572D03*
X0150383Y0111572D03*
X0132893Y0111077D03*
X0132893Y0110912D03*
X0132893Y0105467D03*
X0132893Y0105302D03*
X0126623Y0101672D03*
X0123818Y0104972D03*
X0123983Y0111572D03*
X0107153Y0111737D03*
X0106988Y0112562D03*
X0106988Y0112727D03*
X0106823Y0113222D03*
X0106823Y0113387D03*
X0106658Y0113552D03*
X0106658Y0113717D03*
X0106493Y0114047D03*
X0107153Y0109097D03*
X0106988Y0108272D03*
X0106823Y0107612D03*
X0106823Y0107447D03*
X0106658Y0107117D03*
X0106493Y0106787D03*
X0086363Y0111572D03*
X0077783Y0111572D03*
X0170678Y0107612D03*
X0170843Y0104972D03*
D32*
X0173236Y0109097D03*
X0177361Y0112067D03*
X0175876Y0101837D03*
D33*
X0158633Y0101837D03*
X0105008Y0115862D03*
D34*
X0104018Y0104477D03*
X0126623Y0102662D03*
X0126623Y0113717D03*
X0146093Y0114542D03*
X0146093Y0101837D03*
X0159293Y0102827D03*
X0082073Y0101837D03*
X0082073Y0114542D03*
D35*
X0099398Y0101837D03*
D36*
X0082073Y0102662D03*
X0082073Y0113717D03*
X0146093Y0113717D03*
X0146093Y0102662D03*
X0173813Y0109427D03*
X0176783Y0111737D03*
X0175958Y0102002D03*
D37*
X0178928Y0112727D03*
X0158798Y0102002D03*
X0126623Y0102167D03*
X0126623Y0114212D03*
D38*
X0126623Y0113387D03*
X0126623Y0102992D03*
X0146093Y0102002D03*
X0146093Y0114377D03*
X0159623Y0104477D03*
X0159623Y0104312D03*
X0159623Y0104147D03*
X0082073Y0102002D03*
X0082073Y0114377D03*
D39*
X0082073Y0114872D03*
X0126623Y0114377D03*
X0132398Y0111902D03*
X0132398Y0104477D03*
X0126623Y0102002D03*
X0146093Y0114872D03*
D40*
X0099316Y0102002D03*
D41*
X0082073Y0113222D03*
X0175463Y0110747D03*
X0175628Y0110912D03*
X0176123Y0102167D03*
D42*
X0158963Y0102167D03*
X0126623Y0114047D03*
D43*
X0146093Y0114212D03*
X0146093Y0102167D03*
X0082073Y0102167D03*
X0082073Y0114212D03*
D44*
X0099233Y0118667D03*
X0099233Y0102167D03*
X0146093Y0113222D03*
X0174968Y0118337D03*
X0175793Y0111077D03*
D45*
X0176206Y0102332D03*
D46*
X0159046Y0102332D03*
D47*
X0146093Y0102332D03*
X0082073Y0102332D03*
D48*
X0126623Y0102332D03*
D49*
X0099233Y0102332D03*
D50*
X0082073Y0103652D03*
X0082073Y0103817D03*
X0082073Y0112562D03*
X0082073Y0112727D03*
X0146093Y0112727D03*
X0146093Y0112562D03*
X0146093Y0103817D03*
X0146093Y0103652D03*
X0175463Y0117347D03*
X0176123Y0102497D03*
D51*
X0159211Y0102497D03*
X0159211Y0102662D03*
D52*
X0146093Y0102497D03*
X0173648Y0109262D03*
X0082073Y0102497D03*
D53*
X0099398Y0119327D03*
X0126623Y0102497D03*
X0175133Y0119327D03*
X0178598Y0112562D03*
D54*
X0175876Y0102992D03*
X0099151Y0102497D03*
X0099316Y0118172D03*
D55*
X0175546Y0117017D03*
X0175546Y0116852D03*
X0176041Y0102662D03*
D56*
X0099151Y0102662D03*
D57*
X0099233Y0118337D03*
X0082073Y0112397D03*
X0146093Y0112397D03*
X0175628Y0116522D03*
X0175628Y0116687D03*
X0175958Y0102827D03*
D58*
X0174143Y0109592D03*
X0176453Y0111572D03*
X0146093Y0113552D03*
X0146093Y0102827D03*
X0082073Y0102827D03*
X0082073Y0113552D03*
D59*
X0126623Y0113552D03*
X0126623Y0102827D03*
X0178103Y0112397D03*
D60*
X0099811Y0117512D03*
X0099151Y0102827D03*
D61*
X0159376Y0102992D03*
D62*
X0146093Y0102992D03*
X0146093Y0113387D03*
X0082073Y0113387D03*
X0082073Y0102992D03*
D63*
X0099316Y0102992D03*
D64*
X0146093Y0112232D03*
X0175793Y0103157D03*
D65*
X0159376Y0103157D03*
D66*
X0146093Y0103157D03*
D67*
X0126623Y0103157D03*
D68*
X0099398Y0103157D03*
D69*
X0082073Y0103157D03*
D70*
X0128851Y0103322D03*
X0175711Y0103322D03*
X0175711Y0103487D03*
D71*
X0159458Y0103487D03*
X0159458Y0103322D03*
D72*
X0146093Y0103322D03*
X0082073Y0103322D03*
D73*
X0099481Y0103322D03*
X0100141Y0116852D03*
D74*
X0082073Y0112892D03*
X0082073Y0103487D03*
X0146093Y0103487D03*
X0146093Y0112892D03*
X0175298Y0117677D03*
D75*
X0175628Y0103652D03*
X0128768Y0103487D03*
X0128768Y0112892D03*
X0099563Y0117842D03*
D76*
X0100223Y0116687D03*
X0099563Y0103487D03*
D77*
X0159541Y0103652D03*
X0159541Y0103817D03*
X0172576Y0108767D03*
D78*
X0175546Y0103817D03*
X0128686Y0103817D03*
X0128686Y0103652D03*
X0128686Y0112562D03*
X0128686Y0112727D03*
D79*
X0100306Y0116522D03*
X0099646Y0103652D03*
D80*
X0099728Y0103817D03*
D81*
X0175546Y0103982D03*
D82*
X0159541Y0103982D03*
D83*
X0146093Y0103982D03*
X0082073Y0103982D03*
D84*
X0128603Y0103982D03*
X0128603Y0112232D03*
D85*
X0099811Y0103982D03*
D86*
X0099728Y0117677D03*
X0128603Y0112397D03*
X0128603Y0104147D03*
X0175463Y0104147D03*
X0175463Y0104312D03*
D87*
X0146093Y0104147D03*
D88*
X0099893Y0104147D03*
D89*
X0082073Y0104147D03*
D90*
X0104761Y0116027D03*
X0132151Y0112067D03*
X0132151Y0104312D03*
D91*
X0099976Y0104312D03*
D92*
X0106246Y0106292D03*
X0106411Y0106622D03*
X0106411Y0114212D03*
X0106246Y0114542D03*
X0124066Y0111737D03*
X0124066Y0104642D03*
X0132811Y0105137D03*
X0132811Y0111242D03*
X0150136Y0111737D03*
X0150136Y0104642D03*
X0161191Y0104642D03*
X0170761Y0107777D03*
X0179671Y0104477D03*
X0179836Y0113222D03*
X0086116Y0111737D03*
X0086116Y0104642D03*
X0078031Y0104642D03*
X0078031Y0111737D03*
D93*
X0105256Y0115697D03*
X0105091Y0104972D03*
X0171586Y0104477D03*
D94*
X0179423Y0116192D03*
X0150053Y0111902D03*
X0150053Y0104477D03*
X0142133Y0104477D03*
X0142133Y0111902D03*
X0132728Y0104972D03*
X0124313Y0104477D03*
X0124313Y0111902D03*
X0106328Y0114377D03*
X0105998Y0114872D03*
X0106163Y0106127D03*
X0105998Y0105962D03*
X0086033Y0104477D03*
X0086033Y0111902D03*
X0078113Y0111902D03*
X0078113Y0104477D03*
D95*
X0180166Y0104642D03*
D96*
X0171256Y0104642D03*
X0132646Y0111572D03*
D97*
X0142051Y0111737D03*
X0142051Y0104642D03*
X0106576Y0106952D03*
D98*
X0106906Y0107777D03*
X0106906Y0107942D03*
X0107071Y0108437D03*
X0107071Y0108602D03*
X0107071Y0108767D03*
X0107236Y0109262D03*
X0107236Y0109427D03*
X0107236Y0109592D03*
X0107236Y0109922D03*
X0107236Y0110087D03*
X0107236Y0110252D03*
X0107236Y0110417D03*
X0107236Y0110747D03*
X0107236Y0110912D03*
X0107236Y0111077D03*
X0107236Y0111242D03*
X0107236Y0111572D03*
X0107071Y0111902D03*
X0107071Y0112067D03*
X0107071Y0112397D03*
X0106906Y0112892D03*
X0094696Y0104642D03*
X0086611Y0105137D03*
X0086446Y0104972D03*
X0086611Y0111242D03*
X0077536Y0111242D03*
X0077371Y0105467D03*
X0077536Y0105137D03*
X0077701Y0104972D03*
X0123571Y0105467D03*
X0123736Y0105137D03*
X0123571Y0110912D03*
X0123736Y0111242D03*
X0132976Y0110747D03*
X0132976Y0105797D03*
X0141391Y0105467D03*
X0141556Y0105137D03*
X0141721Y0104972D03*
X0141556Y0111242D03*
X0150631Y0111242D03*
X0150631Y0105137D03*
X0150466Y0104972D03*
X0170596Y0107447D03*
X0170761Y0105137D03*
X0180001Y0113387D03*
X0179836Y0115862D03*
X0179671Y0116027D03*
D99*
X0180496Y0104807D03*
D100*
X0171091Y0104807D03*
D101*
X0170513Y0107282D03*
X0161438Y0104807D03*
X0150878Y0105632D03*
X0150878Y0110582D03*
X0123488Y0110582D03*
X0123488Y0105632D03*
X0077288Y0105632D03*
X0077288Y0110582D03*
D102*
X0132646Y0104807D03*
D103*
X0104761Y0104807D03*
D104*
X0180743Y0104972D03*
D105*
X0180991Y0105137D03*
X0094201Y0115862D03*
D106*
X0086941Y0110417D03*
X0087106Y0109922D03*
X0087106Y0109592D03*
X0087271Y0109262D03*
X0087271Y0109097D03*
X0087271Y0108767D03*
X0087271Y0108602D03*
X0087271Y0108437D03*
X0087271Y0108272D03*
X0087271Y0107942D03*
X0087271Y0107777D03*
X0087271Y0107612D03*
X0087271Y0107447D03*
X0087271Y0107117D03*
X0087106Y0106787D03*
X0087106Y0106622D03*
X0086941Y0105962D03*
X0077206Y0105962D03*
X0077041Y0106622D03*
X0077041Y0106787D03*
X0077041Y0106952D03*
X0076876Y0107117D03*
X0076876Y0107447D03*
X0076876Y0107612D03*
X0076876Y0107777D03*
X0076876Y0107942D03*
X0076876Y0108272D03*
X0076876Y0108437D03*
X0076876Y0108602D03*
X0076876Y0108767D03*
X0076876Y0109097D03*
X0076876Y0109262D03*
X0077041Y0109427D03*
X0077041Y0109592D03*
X0077041Y0109922D03*
X0077206Y0110417D03*
X0123076Y0109262D03*
X0123076Y0109097D03*
X0123076Y0108767D03*
X0123076Y0108602D03*
X0123076Y0108437D03*
X0123076Y0108272D03*
X0123076Y0107942D03*
X0123076Y0107777D03*
X0123076Y0107612D03*
X0123076Y0107447D03*
X0123076Y0107117D03*
X0123241Y0106787D03*
X0123241Y0106622D03*
X0123241Y0106292D03*
X0123241Y0109592D03*
X0123241Y0109922D03*
X0123241Y0110087D03*
X0133141Y0110087D03*
X0133141Y0109922D03*
X0133141Y0109592D03*
X0133141Y0109427D03*
X0133141Y0106952D03*
X0133141Y0106787D03*
X0133141Y0106622D03*
X0133141Y0106292D03*
X0140896Y0107117D03*
X0141061Y0106952D03*
X0141061Y0106787D03*
X0141061Y0106622D03*
X0141226Y0105962D03*
X0140896Y0107447D03*
X0140896Y0107612D03*
X0140896Y0107777D03*
X0140896Y0107942D03*
X0140896Y0108272D03*
X0140896Y0108437D03*
X0140896Y0108602D03*
X0140896Y0108767D03*
X0140896Y0109097D03*
X0140896Y0109262D03*
X0141061Y0109427D03*
X0141061Y0109592D03*
X0141061Y0109922D03*
X0141226Y0110417D03*
X0150961Y0110417D03*
X0151126Y0109922D03*
X0151126Y0109592D03*
X0151291Y0109262D03*
X0151291Y0109097D03*
X0151291Y0108767D03*
X0151291Y0108602D03*
X0151291Y0108437D03*
X0151291Y0108272D03*
X0151291Y0107942D03*
X0151291Y0107777D03*
X0151291Y0107612D03*
X0151291Y0107447D03*
X0151291Y0107117D03*
X0151126Y0106787D03*
X0151126Y0106622D03*
X0150961Y0105962D03*
X0161686Y0105302D03*
X0161686Y0105137D03*
X0170431Y0105962D03*
X0170431Y0106127D03*
X0170431Y0106292D03*
X0170431Y0106622D03*
X0170431Y0106787D03*
X0170596Y0105797D03*
X0170596Y0105467D03*
X0180166Y0113717D03*
X0180166Y0114047D03*
X0180166Y0115202D03*
D107*
X0105338Y0105137D03*
D108*
X0181403Y0105467D03*
D109*
X0181651Y0105632D03*
D110*
X0180166Y0113882D03*
X0180001Y0115532D03*
X0170431Y0106457D03*
X0170596Y0105632D03*
X0151291Y0107282D03*
X0151291Y0108107D03*
X0151291Y0108932D03*
X0151126Y0109757D03*
X0151126Y0106457D03*
X0141061Y0106457D03*
X0140896Y0107282D03*
X0140896Y0108107D03*
X0140896Y0108932D03*
X0141061Y0109757D03*
X0133141Y0109757D03*
X0133141Y0106457D03*
X0123241Y0106457D03*
X0123076Y0107282D03*
X0123076Y0108107D03*
X0123076Y0108932D03*
X0123241Y0109757D03*
X0087271Y0108932D03*
X0087271Y0108107D03*
X0087271Y0107282D03*
X0087106Y0106457D03*
X0087106Y0109757D03*
X0077041Y0109757D03*
X0076876Y0108932D03*
X0076876Y0108107D03*
X0076876Y0107282D03*
X0077041Y0106457D03*
D111*
X0086858Y0105632D03*
X0086858Y0110582D03*
X0141308Y0110582D03*
X0141308Y0105632D03*
D112*
X0141721Y0111407D03*
X0150466Y0111407D03*
X0132976Y0110582D03*
X0132976Y0105632D03*
X0107236Y0109757D03*
X0107236Y0110582D03*
X0107236Y0111407D03*
X0107071Y0112232D03*
X0106906Y0113057D03*
X0107071Y0108932D03*
X0095356Y0116357D03*
X0086446Y0111407D03*
X0077701Y0111407D03*
D113*
X0105751Y0105632D03*
D114*
X0093376Y0115202D03*
X0181816Y0105797D03*
D115*
X0170926Y0107942D03*
X0105916Y0105797D03*
X0105916Y0115037D03*
X0105751Y0115202D03*
D116*
X0181981Y0105962D03*
D117*
X0182146Y0106127D03*
X0169441Y0115202D03*
X0093046Y0114872D03*
D118*
X0106163Y0114707D03*
X0106328Y0106457D03*
X0132728Y0111407D03*
X0179588Y0113057D03*
D119*
X0171256Y0108107D03*
X0105421Y0115532D03*
D120*
X0171503Y0108272D03*
D121*
X0171751Y0108437D03*
D122*
X0095851Y0108437D03*
X0095851Y0108602D03*
X0095851Y0108767D03*
X0095851Y0109097D03*
X0095851Y0109262D03*
X0095851Y0109427D03*
X0095851Y0109592D03*
X0095851Y0109922D03*
X0095851Y0110087D03*
X0095851Y0110252D03*
X0095851Y0110417D03*
X0095851Y0110747D03*
X0095851Y0110912D03*
X0095851Y0111077D03*
X0095851Y0111242D03*
D123*
X0172163Y0108602D03*
D124*
X0172906Y0108932D03*
D125*
X0095851Y0108932D03*
X0095851Y0109757D03*
X0095851Y0110582D03*
X0095851Y0111407D03*
D126*
X0174308Y0109757D03*
D127*
X0174556Y0109922D03*
X0174721Y0110087D03*
X0176041Y0111242D03*
X0174886Y0118502D03*
D128*
X0175051Y0118172D03*
X0175051Y0110417D03*
X0174886Y0110252D03*
D129*
X0175216Y0110582D03*
D130*
X0176288Y0111407D03*
X0160613Y0112232D03*
X0160613Y0113057D03*
X0160613Y0113882D03*
X0160613Y0114707D03*
D131*
X0174721Y0118997D03*
X0177031Y0111902D03*
D132*
X0160613Y0111902D03*
X0160613Y0112067D03*
X0160613Y0112397D03*
X0160613Y0112562D03*
X0160613Y0112727D03*
X0160613Y0112892D03*
X0160613Y0113222D03*
X0160613Y0113387D03*
X0160613Y0113552D03*
X0160613Y0113717D03*
X0160613Y0114047D03*
X0160613Y0114212D03*
X0160613Y0114377D03*
X0160613Y0114542D03*
X0160613Y0114872D03*
D133*
X0177691Y0112232D03*
D134*
X0082073Y0112232D03*
D135*
X0082073Y0113057D03*
X0146093Y0113057D03*
X0175133Y0118007D03*
D136*
X0128851Y0113057D03*
X0099481Y0118007D03*
D137*
X0126623Y0113222D03*
D138*
X0146093Y0113882D03*
X0082073Y0113882D03*
D139*
X0106576Y0113882D03*
D140*
X0082073Y0114047D03*
X0146093Y0114047D03*
D141*
X0146011Y0114707D03*
X0081991Y0114707D03*
D142*
X0093211Y0115037D03*
D143*
X0169688Y0115367D03*
D144*
X0093541Y0115367D03*
D145*
X0169853Y0115532D03*
D146*
X0093706Y0115532D03*
D147*
X0170101Y0115697D03*
D148*
X0094448Y0116027D03*
D149*
X0094861Y0116192D03*
D150*
X0104018Y0116357D03*
D151*
X0100058Y0117017D03*
D152*
X0175463Y0117182D03*
D153*
X0099976Y0117182D03*
D154*
X0099893Y0117347D03*
D155*
X0175381Y0117512D03*
D156*
X0175216Y0117842D03*
D157*
X0099151Y0118502D03*
D158*
X0174721Y0118667D03*
D159*
X0174638Y0118832D03*
X0099233Y0118832D03*
D160*
X0099233Y0118997D03*
D161*
X0099398Y0119657D03*
X0175463Y0119657D03*
D162*
X0169858Y0245573D03*
X0185718Y0253373D03*
X0169988Y0268193D03*
X0143078Y0275733D03*
X0115615Y0276127D03*
X0088705Y0268587D03*
X0072975Y0253767D03*
X0058675Y0273007D03*
X0056465Y0274957D03*
X0056465Y0275087D03*
X0056465Y0275217D03*
X0088835Y0245967D03*
X0200018Y0272613D03*
X0202228Y0274563D03*
X0202228Y0274693D03*
X0202228Y0274823D03*
D163*
X0202163Y0274433D03*
X0202163Y0274303D03*
X0202163Y0274173D03*
X0202163Y0274043D03*
X0202163Y0273913D03*
X0170053Y0268063D03*
X0169923Y0245703D03*
X0145353Y0273133D03*
X0143013Y0275343D03*
X0143013Y0275473D03*
X0143013Y0275603D03*
X0115680Y0275737D03*
X0115680Y0275867D03*
X0115680Y0275997D03*
X0113340Y0273527D03*
X0088640Y0268457D03*
X0088770Y0246097D03*
X0056530Y0274307D03*
X0056530Y0274437D03*
X0056530Y0274567D03*
X0056530Y0274697D03*
X0056530Y0274827D03*
D164*
X0058675Y0273137D03*
X0088575Y0268327D03*
X0088705Y0246227D03*
X0169988Y0245833D03*
X0170118Y0267933D03*
X0200018Y0272743D03*
D165*
X0199953Y0272873D03*
X0170053Y0245963D03*
X0145353Y0273263D03*
X0113340Y0273657D03*
X0088640Y0246357D03*
X0058740Y0273267D03*
D166*
X0056725Y0273137D03*
X0056725Y0273007D03*
X0088445Y0268067D03*
X0088575Y0246487D03*
X0113275Y0273787D03*
X0115615Y0274307D03*
X0115615Y0274437D03*
X0115615Y0274567D03*
X0115615Y0274697D03*
X0143078Y0274303D03*
X0143078Y0274173D03*
X0143078Y0274043D03*
X0143078Y0273913D03*
X0145418Y0273393D03*
X0170248Y0267673D03*
X0170118Y0246093D03*
X0201968Y0272613D03*
X0201968Y0272743D03*
D167*
X0201903Y0272483D03*
X0199953Y0273003D03*
X0186043Y0253633D03*
X0170183Y0246223D03*
X0170313Y0267543D03*
X0143143Y0273393D03*
X0143143Y0273523D03*
X0143143Y0273653D03*
X0143143Y0273783D03*
X0115550Y0273787D03*
X0115550Y0273917D03*
X0115550Y0274047D03*
X0115550Y0274177D03*
X0088380Y0267937D03*
X0088510Y0246617D03*
X0072650Y0254027D03*
X0058740Y0273397D03*
X0056790Y0272877D03*
D168*
X0056855Y0272747D03*
X0056855Y0272617D03*
X0058805Y0273527D03*
X0085845Y0290947D03*
X0088315Y0267807D03*
X0088445Y0246747D03*
X0113275Y0273917D03*
X0115485Y0273657D03*
X0115485Y0273527D03*
X0143208Y0273263D03*
X0143208Y0273133D03*
X0145418Y0273523D03*
X0170378Y0267413D03*
X0170248Y0246353D03*
X0172848Y0290553D03*
X0199888Y0273133D03*
X0201838Y0272353D03*
X0201838Y0272223D03*
D169*
X0170443Y0267283D03*
X0170313Y0246483D03*
X0088380Y0246877D03*
X0088250Y0267677D03*
D170*
X0088315Y0247007D03*
X0113275Y0274047D03*
X0145418Y0273653D03*
X0170378Y0246613D03*
D171*
X0170443Y0246743D03*
X0170573Y0266893D03*
X0145483Y0273783D03*
X0143403Y0272613D03*
X0143403Y0272483D03*
X0115290Y0272877D03*
X0115290Y0273007D03*
X0113210Y0274177D03*
X0088120Y0267287D03*
X0088250Y0247137D03*
X0057050Y0272097D03*
X0201643Y0271703D03*
D172*
X0201578Y0271573D03*
X0201578Y0271443D03*
X0199888Y0273393D03*
X0186368Y0253893D03*
X0170638Y0266763D03*
X0170508Y0246873D03*
X0143468Y0272353D03*
X0115225Y0272747D03*
X0088055Y0267157D03*
X0088185Y0247267D03*
X0072325Y0254287D03*
X0058805Y0273787D03*
X0057115Y0271967D03*
X0057115Y0271837D03*
D173*
X0057180Y0271707D03*
X0058870Y0273917D03*
X0087990Y0267027D03*
X0088120Y0247527D03*
X0088120Y0247397D03*
X0113080Y0274307D03*
X0115160Y0272617D03*
X0143533Y0272223D03*
X0145613Y0273913D03*
X0170573Y0247133D03*
X0170573Y0247003D03*
X0170703Y0266633D03*
X0199823Y0273523D03*
X0201513Y0271313D03*
D174*
X0170768Y0266503D03*
X0170638Y0247263D03*
X0088055Y0247657D03*
X0087925Y0266897D03*
D175*
X0087990Y0247787D03*
X0170703Y0247393D03*
D176*
X0170768Y0247523D03*
X0170898Y0266243D03*
X0145678Y0274173D03*
X0143728Y0271833D03*
X0143728Y0271703D03*
X0114965Y0272097D03*
X0114965Y0272227D03*
X0113015Y0274567D03*
X0087795Y0266637D03*
X0087925Y0247917D03*
X0058935Y0274177D03*
X0057375Y0271317D03*
X0199758Y0273783D03*
X0201318Y0270923D03*
D177*
X0201253Y0270793D03*
X0170963Y0266113D03*
X0170833Y0247653D03*
X0145743Y0274303D03*
X0143793Y0271573D03*
X0114900Y0271967D03*
X0112950Y0274697D03*
X0087730Y0266507D03*
X0087860Y0248047D03*
X0057440Y0271187D03*
D178*
X0057505Y0271057D03*
X0058935Y0274307D03*
X0071935Y0254547D03*
X0087795Y0248177D03*
X0087665Y0266377D03*
X0112885Y0274827D03*
X0114835Y0271837D03*
X0143858Y0271443D03*
X0145808Y0274433D03*
X0171028Y0265983D03*
X0170898Y0247783D03*
X0186758Y0254153D03*
X0201188Y0270663D03*
X0199758Y0273913D03*
D179*
X0171093Y0265853D03*
X0170963Y0247913D03*
X0087730Y0248307D03*
X0087600Y0266247D03*
D180*
X0087665Y0248437D03*
X0059065Y0274437D03*
X0171028Y0248043D03*
X0199628Y0274043D03*
D181*
X0200993Y0270273D03*
X0171223Y0265593D03*
X0171093Y0248173D03*
X0144053Y0271053D03*
X0145873Y0274563D03*
X0114640Y0271447D03*
X0112820Y0274957D03*
X0087470Y0265987D03*
X0087600Y0248567D03*
X0057700Y0270667D03*
D182*
X0057765Y0270537D03*
X0059065Y0274567D03*
X0071675Y0254807D03*
X0087535Y0248697D03*
X0087405Y0265857D03*
X0112755Y0275087D03*
X0114575Y0271317D03*
X0144118Y0270923D03*
X0145938Y0274693D03*
X0171288Y0265463D03*
X0171158Y0248303D03*
X0187018Y0254413D03*
X0200928Y0270143D03*
X0199628Y0274173D03*
D183*
X0199563Y0274303D03*
X0200863Y0270013D03*
X0171353Y0265333D03*
X0171223Y0248433D03*
X0144183Y0270793D03*
X0146003Y0274823D03*
X0114510Y0271187D03*
X0112690Y0275217D03*
X0087340Y0265727D03*
X0087470Y0248827D03*
X0059130Y0274697D03*
X0057830Y0270407D03*
D184*
X0087275Y0265597D03*
X0087405Y0248957D03*
X0171288Y0248563D03*
X0171418Y0265203D03*
D185*
X0171353Y0248693D03*
X0087340Y0249087D03*
D186*
X0087275Y0249217D03*
X0087145Y0265337D03*
X0114315Y0270797D03*
X0144378Y0270403D03*
X0171548Y0264943D03*
X0171418Y0248823D03*
X0200668Y0269623D03*
X0058025Y0270017D03*
D187*
X0058090Y0269887D03*
X0059260Y0274957D03*
X0071350Y0255067D03*
X0087210Y0249477D03*
X0087210Y0249347D03*
X0087080Y0265207D03*
X0112560Y0275477D03*
X0114250Y0270667D03*
X0144443Y0270273D03*
X0146133Y0275083D03*
X0171613Y0264813D03*
X0171483Y0249083D03*
X0171483Y0248953D03*
X0187343Y0254673D03*
X0200603Y0269493D03*
X0199433Y0274563D03*
D188*
X0199368Y0274693D03*
X0200538Y0269363D03*
X0171678Y0264683D03*
X0171548Y0249213D03*
X0144508Y0270143D03*
X0114185Y0270537D03*
X0087015Y0265077D03*
X0087145Y0249607D03*
X0059325Y0275087D03*
X0058155Y0269757D03*
D189*
X0059390Y0275217D03*
X0086950Y0264947D03*
X0087080Y0249737D03*
X0112430Y0275607D03*
X0146263Y0275213D03*
X0171743Y0264553D03*
X0171613Y0249343D03*
X0199303Y0274823D03*
D190*
X0171678Y0249473D03*
X0146328Y0275343D03*
X0112365Y0275737D03*
X0087015Y0249867D03*
D191*
X0086950Y0249997D03*
X0086820Y0264687D03*
X0113990Y0270147D03*
X0112300Y0275867D03*
X0144703Y0269753D03*
X0146393Y0275473D03*
X0171873Y0264293D03*
X0171743Y0249603D03*
X0199173Y0274953D03*
X0059520Y0275347D03*
D192*
X0059585Y0275477D03*
X0058415Y0269367D03*
X0071025Y0255327D03*
X0086885Y0250127D03*
X0086755Y0264557D03*
X0113925Y0270017D03*
X0144768Y0269623D03*
X0171938Y0264163D03*
X0171808Y0249733D03*
X0187668Y0254933D03*
X0199108Y0275083D03*
X0200278Y0268973D03*
D193*
X0200213Y0268843D03*
X0172003Y0264033D03*
X0171873Y0249863D03*
X0144833Y0269493D03*
X0146523Y0275603D03*
X0113860Y0269887D03*
X0112170Y0275997D03*
X0086690Y0264427D03*
X0086820Y0250257D03*
X0058480Y0269237D03*
D194*
X0059585Y0275607D03*
X0086625Y0264297D03*
X0086755Y0250387D03*
X0171938Y0249993D03*
X0172068Y0263903D03*
X0199108Y0275213D03*
D195*
X0172003Y0250123D03*
X0146653Y0275733D03*
X0112040Y0276127D03*
X0086690Y0250517D03*
D196*
X0086625Y0250647D03*
X0086495Y0264037D03*
X0113665Y0269627D03*
X0145028Y0269233D03*
X0172198Y0263643D03*
X0172068Y0250253D03*
X0198978Y0275343D03*
X0200018Y0268583D03*
X0059715Y0275737D03*
X0058675Y0268977D03*
D197*
X0058740Y0268847D03*
X0059780Y0275867D03*
X0070700Y0255587D03*
X0086560Y0250777D03*
X0086430Y0263907D03*
X0113600Y0269497D03*
X0112040Y0276257D03*
X0145093Y0269103D03*
X0146653Y0275863D03*
X0172263Y0263513D03*
X0172133Y0250383D03*
X0187993Y0255193D03*
X0198913Y0275473D03*
X0199953Y0268453D03*
D198*
X0199888Y0268323D03*
X0172328Y0263383D03*
X0172198Y0250513D03*
X0145158Y0268973D03*
X0113535Y0269367D03*
X0086365Y0263777D03*
X0086495Y0250907D03*
X0058805Y0268717D03*
D199*
X0059910Y0275997D03*
X0086300Y0263647D03*
X0086430Y0251037D03*
X0111910Y0276387D03*
X0146783Y0275993D03*
X0172393Y0263253D03*
X0172263Y0250643D03*
X0198783Y0275603D03*
D200*
X0198718Y0275733D03*
X0172328Y0250903D03*
X0172328Y0250773D03*
X0086365Y0251167D03*
X0086365Y0251297D03*
X0059975Y0276127D03*
D201*
X0070440Y0255847D03*
X0086300Y0251427D03*
X0086170Y0263387D03*
X0111780Y0276517D03*
X0113340Y0269107D03*
X0145353Y0268713D03*
X0146913Y0276123D03*
X0172523Y0262993D03*
X0172393Y0251033D03*
X0188253Y0255453D03*
D202*
X0199628Y0268063D03*
X0198588Y0275863D03*
X0172588Y0262863D03*
X0172458Y0251163D03*
X0146978Y0276253D03*
X0145418Y0268583D03*
X0113275Y0268977D03*
X0111715Y0276647D03*
X0086105Y0263257D03*
X0086235Y0251557D03*
X0059065Y0268457D03*
X0060105Y0276257D03*
D203*
X0059130Y0268327D03*
X0070310Y0255977D03*
X0086170Y0251687D03*
X0086040Y0263127D03*
X0172653Y0262733D03*
X0172523Y0251293D03*
X0188383Y0255583D03*
X0199563Y0267933D03*
D204*
X0199368Y0267803D03*
X0198458Y0275993D03*
X0172718Y0262603D03*
X0172588Y0251423D03*
X0147108Y0276383D03*
X0111585Y0276777D03*
X0085975Y0262997D03*
X0086105Y0251817D03*
X0059325Y0268197D03*
X0060235Y0276387D03*
D205*
X0060300Y0276517D03*
X0086040Y0251947D03*
X0172653Y0251553D03*
X0198393Y0276123D03*
D206*
X0199238Y0267673D03*
X0172848Y0262343D03*
X0172718Y0251683D03*
X0147238Y0276513D03*
X0111455Y0276907D03*
X0085845Y0262737D03*
X0085975Y0252077D03*
X0059455Y0268067D03*
D207*
X0059520Y0267937D03*
X0060430Y0276647D03*
X0070050Y0256237D03*
X0085910Y0252207D03*
X0085780Y0262607D03*
X0112950Y0268587D03*
X0145743Y0268193D03*
X0172913Y0262213D03*
X0172783Y0251813D03*
X0188643Y0255843D03*
X0199173Y0267543D03*
X0198263Y0276253D03*
D208*
X0172978Y0262083D03*
X0172848Y0251943D03*
X0147368Y0276643D03*
X0145808Y0268063D03*
X0112885Y0268457D03*
X0111325Y0277037D03*
X0085715Y0262477D03*
X0085845Y0252337D03*
D209*
X0085780Y0252467D03*
X0111260Y0277167D03*
X0147433Y0276773D03*
X0172913Y0252073D03*
X0199043Y0267413D03*
X0198133Y0276383D03*
X0060560Y0276777D03*
X0059650Y0267807D03*
D210*
X0086040Y0262347D03*
X0086040Y0252597D03*
X0172653Y0252203D03*
X0172653Y0261953D03*
D211*
X0172198Y0252333D03*
X0086495Y0252727D03*
D212*
X0086885Y0252857D03*
X0068425Y0257927D03*
X0062315Y0278467D03*
X0111325Y0266637D03*
X0147368Y0266243D03*
X0171808Y0252463D03*
X0190268Y0257533D03*
X0196378Y0278073D03*
D213*
X0171418Y0252593D03*
X0149578Y0278593D03*
X0109115Y0278987D03*
X0087275Y0252987D03*
D214*
X0087600Y0253117D03*
X0067450Y0259097D03*
X0108530Y0279377D03*
X0109700Y0265337D03*
X0148993Y0264943D03*
X0150163Y0278983D03*
X0171093Y0252723D03*
X0191243Y0258703D03*
D215*
X0194688Y0279243D03*
X0170638Y0252853D03*
X0149708Y0264423D03*
X0150618Y0279243D03*
X0108075Y0279637D03*
X0108985Y0264817D03*
X0088055Y0253247D03*
X0064005Y0279637D03*
D216*
X0088315Y0253377D03*
X0170378Y0252983D03*
D217*
X0170118Y0253113D03*
X0151008Y0263643D03*
X0151658Y0279763D03*
X0193778Y0279763D03*
X0194298Y0263903D03*
X0192478Y0260783D03*
X0107685Y0264037D03*
X0107035Y0280157D03*
X0088575Y0253507D03*
X0066215Y0261177D03*
X0064395Y0264297D03*
X0064915Y0280157D03*
D218*
X0065760Y0262477D03*
X0065760Y0262347D03*
X0088900Y0253637D03*
X0106450Y0280417D03*
X0152243Y0280023D03*
X0169793Y0253243D03*
X0192933Y0261953D03*
X0192933Y0262083D03*
D219*
X0193258Y0263253D03*
X0193258Y0263383D03*
X0169598Y0253373D03*
X0089095Y0253767D03*
X0065435Y0263647D03*
X0065435Y0263777D03*
D220*
X0089355Y0253897D03*
X0169338Y0253503D03*
D221*
X0185848Y0253503D03*
X0202098Y0273263D03*
X0202098Y0273393D03*
X0202098Y0273523D03*
X0202098Y0273653D03*
X0202098Y0273783D03*
X0142948Y0275083D03*
X0142948Y0275213D03*
X0115745Y0275477D03*
X0115745Y0275607D03*
X0072845Y0253897D03*
X0056595Y0273657D03*
X0056595Y0273787D03*
X0056595Y0273917D03*
X0056595Y0274047D03*
X0056595Y0274177D03*
D222*
X0089550Y0254027D03*
X0169143Y0253633D03*
D223*
X0168948Y0253763D03*
X0089745Y0254157D03*
D224*
X0088185Y0267417D03*
X0088185Y0267547D03*
X0072455Y0254157D03*
X0058805Y0273657D03*
X0056985Y0272357D03*
X0056985Y0272227D03*
X0115355Y0273137D03*
X0143338Y0272743D03*
X0170508Y0267153D03*
X0170508Y0267023D03*
X0186238Y0253763D03*
X0199888Y0273263D03*
X0201708Y0271963D03*
X0201708Y0271833D03*
D225*
X0168818Y0253893D03*
X0089875Y0254287D03*
D226*
X0090070Y0254417D03*
X0168623Y0254023D03*
D227*
X0170833Y0266373D03*
X0186563Y0254023D03*
X0199823Y0273653D03*
X0201383Y0271053D03*
X0145613Y0274043D03*
X0143663Y0271963D03*
X0115030Y0272357D03*
X0113080Y0274437D03*
X0087860Y0266767D03*
X0072130Y0254417D03*
X0058870Y0274047D03*
X0057310Y0271447D03*
D228*
X0090200Y0254547D03*
X0103850Y0262607D03*
X0154843Y0262213D03*
X0168493Y0254153D03*
D229*
X0168298Y0254283D03*
X0090395Y0254677D03*
D230*
X0087535Y0266117D03*
X0071805Y0254677D03*
X0057635Y0270797D03*
X0114705Y0271577D03*
X0143988Y0271183D03*
X0171158Y0265723D03*
X0186888Y0254283D03*
X0201058Y0270403D03*
D231*
X0168168Y0254413D03*
X0155428Y0262083D03*
X0103265Y0262477D03*
X0090525Y0254807D03*
D232*
X0090655Y0254937D03*
X0168038Y0254543D03*
D233*
X0171483Y0265073D03*
X0187213Y0254543D03*
X0200733Y0269753D03*
X0146133Y0274953D03*
X0144313Y0270533D03*
X0114380Y0270927D03*
X0112560Y0275347D03*
X0087210Y0265467D03*
X0071480Y0254937D03*
X0057960Y0270147D03*
D234*
X0090785Y0255067D03*
X0102485Y0281587D03*
X0156208Y0281193D03*
X0167908Y0254673D03*
D235*
X0167713Y0254803D03*
X0188643Y0281323D03*
X0090980Y0255197D03*
X0070050Y0281717D03*
D236*
X0058285Y0269497D03*
X0071155Y0255197D03*
X0086885Y0264817D03*
X0114055Y0270277D03*
X0144638Y0269883D03*
X0171808Y0264423D03*
X0187538Y0254803D03*
X0200408Y0269103D03*
D237*
X0167648Y0254933D03*
X0091045Y0255327D03*
D238*
X0091175Y0255457D03*
X0167518Y0255063D03*
D239*
X0187798Y0255063D03*
X0200148Y0268713D03*
X0144898Y0269363D03*
X0113795Y0269757D03*
X0070895Y0255457D03*
X0058545Y0269107D03*
D240*
X0091305Y0255587D03*
X0167388Y0255193D03*
D241*
X0167323Y0255323D03*
X0091370Y0255717D03*
D242*
X0070570Y0255717D03*
X0188123Y0255323D03*
D243*
X0167193Y0255453D03*
X0091500Y0255847D03*
D244*
X0091565Y0255977D03*
X0167128Y0255583D03*
D245*
X0166998Y0255713D03*
X0091695Y0256107D03*
D246*
X0085910Y0262867D03*
X0070180Y0256107D03*
X0113080Y0268717D03*
X0145613Y0268323D03*
X0172783Y0262473D03*
X0188513Y0255713D03*
D247*
X0166933Y0255843D03*
X0091760Y0256237D03*
D248*
X0091825Y0256367D03*
X0166868Y0255973D03*
D249*
X0188838Y0255973D03*
X0145938Y0267933D03*
X0112755Y0268327D03*
X0069855Y0256367D03*
D250*
X0085780Y0289387D03*
X0091890Y0256497D03*
X0166803Y0256103D03*
X0172913Y0288993D03*
D251*
X0188968Y0256103D03*
X0197938Y0276643D03*
X0069725Y0256497D03*
X0060755Y0277037D03*
D252*
X0091955Y0256627D03*
X0166738Y0256233D03*
D253*
X0189098Y0256233D03*
X0069595Y0256627D03*
D254*
X0092085Y0256757D03*
X0166608Y0256363D03*
D255*
X0189228Y0256363D03*
X0198458Y0266893D03*
X0146328Y0267413D03*
X0112365Y0267807D03*
X0069465Y0256757D03*
X0060235Y0267287D03*
D256*
X0092150Y0256887D03*
X0166543Y0256493D03*
D257*
X0146458Y0267283D03*
X0112235Y0267677D03*
X0069335Y0256887D03*
X0060365Y0267157D03*
X0189358Y0256493D03*
X0198328Y0266763D03*
D258*
X0166413Y0256623D03*
X0092280Y0257017D03*
D259*
X0112105Y0267547D03*
X0146588Y0267153D03*
X0189488Y0256623D03*
X0198198Y0266633D03*
X0197288Y0277293D03*
X0069205Y0257017D03*
X0060495Y0267027D03*
X0061405Y0277687D03*
D260*
X0085780Y0289127D03*
X0092280Y0257147D03*
X0166413Y0256753D03*
X0172913Y0288733D03*
D261*
X0189618Y0256753D03*
X0198068Y0266503D03*
X0197158Y0277423D03*
X0148278Y0277553D03*
X0110415Y0277947D03*
X0069075Y0257147D03*
X0060625Y0266897D03*
X0061535Y0277817D03*
D262*
X0092345Y0257277D03*
X0166348Y0256883D03*
D263*
X0146783Y0266893D03*
X0111910Y0267287D03*
X0069010Y0257277D03*
X0060820Y0266767D03*
X0189683Y0256883D03*
X0197873Y0266373D03*
D264*
X0166283Y0257013D03*
X0092410Y0257407D03*
D265*
X0111780Y0267157D03*
X0146913Y0266763D03*
X0189813Y0257013D03*
X0068880Y0257407D03*
D266*
X0092475Y0257537D03*
X0166218Y0257143D03*
D267*
X0189943Y0257143D03*
X0197613Y0266113D03*
X0068750Y0257537D03*
X0061080Y0266507D03*
D268*
X0092605Y0257667D03*
X0166088Y0257273D03*
D269*
X0190073Y0257273D03*
X0068620Y0257667D03*
D270*
X0092800Y0257797D03*
X0092930Y0257927D03*
X0165763Y0257533D03*
X0165893Y0257403D03*
D271*
X0148863Y0278073D03*
X0109830Y0278467D03*
X0068490Y0257797D03*
X0061470Y0266247D03*
X0062120Y0278337D03*
X0190203Y0257403D03*
X0197223Y0265853D03*
X0196573Y0277943D03*
D272*
X0165568Y0257663D03*
X0093125Y0258057D03*
D273*
X0111195Y0266507D03*
X0147498Y0266113D03*
X0190398Y0257663D03*
X0196248Y0278203D03*
X0068295Y0258057D03*
X0062445Y0278597D03*
D274*
X0093320Y0258187D03*
X0165373Y0257793D03*
D275*
X0149188Y0278333D03*
X0109505Y0278727D03*
X0068165Y0258187D03*
X0190528Y0257793D03*
D276*
X0172913Y0288473D03*
X0165243Y0257923D03*
X0093450Y0258317D03*
X0085780Y0288867D03*
D277*
X0068100Y0258317D03*
X0061990Y0265857D03*
X0062640Y0278727D03*
X0109310Y0278857D03*
X0110870Y0266247D03*
X0147823Y0265853D03*
X0149383Y0278463D03*
X0190593Y0257923D03*
X0196703Y0265463D03*
X0196053Y0278333D03*
D278*
X0165048Y0258053D03*
X0093645Y0258447D03*
D279*
X0067970Y0258447D03*
X0062120Y0265727D03*
X0062770Y0278857D03*
X0190723Y0258053D03*
X0196573Y0265333D03*
X0195923Y0278463D03*
D280*
X0164918Y0258183D03*
X0093775Y0258577D03*
D281*
X0110350Y0265857D03*
X0148343Y0265463D03*
X0190853Y0258183D03*
X0067840Y0258577D03*
D282*
X0093970Y0258707D03*
X0094100Y0258837D03*
X0164593Y0258443D03*
X0164723Y0258313D03*
D283*
X0190918Y0258313D03*
X0196378Y0265203D03*
X0195728Y0278593D03*
X0067775Y0258707D03*
X0062315Y0265597D03*
X0062965Y0278987D03*
D284*
X0063095Y0279117D03*
X0067645Y0258837D03*
X0191048Y0258443D03*
X0195598Y0278723D03*
D285*
X0164398Y0258573D03*
X0164268Y0258703D03*
X0094425Y0259097D03*
X0094295Y0258967D03*
D286*
X0085780Y0290687D03*
X0067580Y0258967D03*
X0172913Y0290293D03*
X0191113Y0258573D03*
D287*
X0164073Y0258833D03*
X0163943Y0258963D03*
X0163813Y0259093D03*
X0094880Y0259487D03*
X0094750Y0259357D03*
X0094620Y0259227D03*
D288*
X0067385Y0259227D03*
X0191308Y0258833D03*
D289*
X0191373Y0258963D03*
X0149123Y0264813D03*
X0109570Y0265207D03*
X0067320Y0259357D03*
D290*
X0067190Y0259487D03*
X0109310Y0265077D03*
X0149383Y0264683D03*
X0191503Y0259093D03*
D291*
X0163618Y0259223D03*
X0163488Y0259353D03*
X0163358Y0259483D03*
X0163228Y0259613D03*
X0095465Y0260007D03*
X0095335Y0259877D03*
X0095205Y0259747D03*
X0095075Y0259617D03*
D292*
X0109115Y0264947D03*
X0067125Y0259617D03*
X0063745Y0279507D03*
X0149578Y0264553D03*
X0191568Y0259223D03*
X0194948Y0279113D03*
D293*
X0195403Y0264553D03*
X0191633Y0259353D03*
X0067060Y0259747D03*
X0063290Y0264947D03*
D294*
X0066930Y0259877D03*
X0191763Y0259483D03*
D295*
X0191828Y0259613D03*
X0195208Y0264423D03*
X0149968Y0264293D03*
X0150878Y0279373D03*
X0107815Y0279767D03*
X0108725Y0264687D03*
X0066865Y0260007D03*
X0063485Y0264817D03*
D296*
X0095660Y0260137D03*
X0095920Y0260397D03*
X0162773Y0260003D03*
X0163033Y0259743D03*
D297*
X0191893Y0259743D03*
X0194493Y0279373D03*
X0066800Y0260137D03*
X0064200Y0279767D03*
D298*
X0095790Y0260267D03*
X0096050Y0260527D03*
X0162643Y0260133D03*
X0162903Y0259873D03*
D299*
X0150098Y0264163D03*
X0108595Y0264557D03*
X0066735Y0260267D03*
X0063745Y0264687D03*
X0191958Y0259873D03*
X0194948Y0264293D03*
D300*
X0192023Y0260003D03*
X0151073Y0279503D03*
X0107620Y0279897D03*
X0066670Y0260397D03*
D301*
X0066540Y0260527D03*
X0063940Y0264557D03*
X0192153Y0260133D03*
X0194753Y0264163D03*
D302*
X0172848Y0288343D03*
X0162058Y0260653D03*
X0162188Y0260523D03*
X0162318Y0260393D03*
X0162448Y0260263D03*
X0096635Y0261047D03*
X0096505Y0260917D03*
X0096375Y0260787D03*
X0096245Y0260657D03*
X0085845Y0288737D03*
D303*
X0064655Y0280027D03*
X0066475Y0260657D03*
X0108075Y0264297D03*
X0150618Y0263903D03*
X0192218Y0260263D03*
X0194038Y0279633D03*
D304*
X0194493Y0264033D03*
X0192283Y0260393D03*
X0172913Y0290163D03*
X0151333Y0279633D03*
X0107360Y0280027D03*
X0085780Y0290557D03*
X0064200Y0264427D03*
X0066410Y0260787D03*
D305*
X0066345Y0260917D03*
X0107945Y0264167D03*
X0150748Y0263773D03*
X0192348Y0260523D03*
D306*
X0192413Y0260653D03*
X0066280Y0261047D03*
D307*
X0096700Y0261177D03*
X0096830Y0261307D03*
X0096960Y0261437D03*
X0097090Y0261567D03*
X0097220Y0261697D03*
X0097350Y0261827D03*
X0097480Y0261957D03*
X0097610Y0262087D03*
X0097740Y0262217D03*
X0160953Y0261823D03*
X0161083Y0261693D03*
X0161213Y0261563D03*
X0161343Y0261433D03*
X0161473Y0261303D03*
X0161603Y0261173D03*
X0161733Y0261043D03*
X0161863Y0260913D03*
X0161993Y0260783D03*
D308*
X0192543Y0260913D03*
X0066150Y0261307D03*
D309*
X0066085Y0261437D03*
X0066085Y0261567D03*
X0192608Y0261173D03*
X0192608Y0261043D03*
D310*
X0192673Y0261303D03*
X0066020Y0261697D03*
D311*
X0065955Y0261827D03*
X0192738Y0261433D03*
D312*
X0192803Y0261563D03*
X0192803Y0261693D03*
X0193193Y0280023D03*
X0065500Y0280417D03*
X0065890Y0262087D03*
X0065890Y0261957D03*
D313*
X0065825Y0262217D03*
X0064915Y0264037D03*
X0107165Y0263777D03*
X0151528Y0263383D03*
X0192868Y0261823D03*
X0193778Y0263643D03*
D314*
X0156663Y0261953D03*
X0102030Y0262347D03*
D315*
X0065695Y0262607D03*
X0065695Y0262737D03*
X0192998Y0262343D03*
X0192998Y0262213D03*
D316*
X0154258Y0262343D03*
X0104435Y0262737D03*
D317*
X0104890Y0262867D03*
X0153803Y0262473D03*
D318*
X0193063Y0262473D03*
X0193063Y0262603D03*
X0193583Y0263513D03*
X0065630Y0262997D03*
X0065630Y0262867D03*
X0065110Y0263907D03*
D319*
X0067320Y0281067D03*
X0105280Y0262997D03*
X0153413Y0262603D03*
X0191373Y0280673D03*
D320*
X0153023Y0262733D03*
X0105670Y0263127D03*
D321*
X0065565Y0263127D03*
X0065565Y0263257D03*
X0193128Y0262863D03*
X0193128Y0262733D03*
D322*
X0192153Y0280413D03*
X0152763Y0262863D03*
X0105930Y0263257D03*
X0066540Y0280807D03*
D323*
X0106255Y0263387D03*
X0152438Y0262993D03*
D324*
X0152113Y0263123D03*
X0152503Y0280153D03*
X0193193Y0263123D03*
X0193193Y0262993D03*
X0106580Y0263517D03*
X0106190Y0280547D03*
X0065500Y0263517D03*
X0065500Y0263387D03*
D325*
X0058935Y0268587D03*
X0086235Y0263517D03*
X0113405Y0269237D03*
X0145288Y0268843D03*
X0172458Y0263123D03*
X0199758Y0268193D03*
D326*
X0151788Y0263253D03*
X0106905Y0263647D03*
D327*
X0107360Y0263907D03*
X0064590Y0264167D03*
X0065240Y0280287D03*
X0151333Y0263513D03*
X0194103Y0263773D03*
X0193453Y0279893D03*
D328*
X0172133Y0263773D03*
X0086560Y0264167D03*
D329*
X0108335Y0264427D03*
X0150358Y0264033D03*
X0194298Y0279503D03*
X0064395Y0279897D03*
D330*
X0063095Y0265077D03*
X0108335Y0279507D03*
X0150358Y0279113D03*
X0195598Y0264683D03*
D331*
X0195793Y0264813D03*
X0195143Y0278983D03*
X0063550Y0279377D03*
X0062900Y0265207D03*
D332*
X0062705Y0265337D03*
X0063355Y0279247D03*
X0109895Y0265467D03*
X0148798Y0265073D03*
X0195988Y0264943D03*
X0195338Y0278853D03*
D333*
X0196183Y0265073D03*
X0149773Y0278723D03*
X0148473Y0265333D03*
X0110220Y0265727D03*
X0108920Y0279117D03*
X0062510Y0265467D03*
D334*
X0110025Y0265597D03*
X0148668Y0265203D03*
D335*
X0148148Y0265593D03*
X0110545Y0265987D03*
D336*
X0061730Y0265987D03*
X0196963Y0265593D03*
D337*
X0148018Y0265723D03*
X0110675Y0266117D03*
D338*
X0109700Y0278597D03*
X0148993Y0278203D03*
X0197093Y0265723D03*
X0061600Y0266117D03*
D339*
X0111000Y0266377D03*
X0147693Y0265983D03*
D340*
X0196703Y0277813D03*
X0197483Y0265983D03*
X0061990Y0278207D03*
X0061210Y0266377D03*
D341*
X0060950Y0266637D03*
X0197743Y0266243D03*
D342*
X0147238Y0266373D03*
X0111455Y0266767D03*
D343*
X0111585Y0266897D03*
X0110025Y0278337D03*
X0148668Y0277943D03*
X0147108Y0266503D03*
D344*
X0146978Y0266633D03*
X0148538Y0277813D03*
X0111715Y0267027D03*
X0110155Y0278207D03*
X0061795Y0278077D03*
X0196898Y0277683D03*
D345*
X0172913Y0290423D03*
X0146653Y0267023D03*
X0112040Y0267417D03*
X0085780Y0290817D03*
D346*
X0060885Y0277167D03*
X0060105Y0267417D03*
X0197808Y0276773D03*
X0198588Y0267023D03*
D347*
X0198783Y0267153D03*
X0147693Y0277033D03*
X0146133Y0267673D03*
X0112560Y0268067D03*
X0111000Y0277427D03*
X0059910Y0267547D03*
D348*
X0059780Y0267677D03*
X0111130Y0277297D03*
X0112690Y0268197D03*
X0146003Y0267803D03*
X0147563Y0276903D03*
X0198913Y0267283D03*
D349*
X0197613Y0276903D03*
X0147823Y0277163D03*
X0146263Y0267543D03*
X0112430Y0267937D03*
X0110870Y0277557D03*
X0061080Y0277297D03*
D350*
X0056660Y0273527D03*
X0056660Y0273397D03*
X0056660Y0273267D03*
X0088510Y0268197D03*
X0115680Y0274827D03*
X0115680Y0274957D03*
X0115680Y0275087D03*
X0115680Y0275217D03*
X0115680Y0275347D03*
X0143013Y0274953D03*
X0143013Y0274823D03*
X0143013Y0274693D03*
X0143013Y0274563D03*
X0143013Y0274433D03*
X0170183Y0267803D03*
X0202033Y0272873D03*
X0202033Y0273003D03*
X0202033Y0273133D03*
D351*
X0145548Y0268453D03*
X0113145Y0268847D03*
D352*
X0114120Y0270407D03*
X0144573Y0270013D03*
X0200473Y0269233D03*
X0058220Y0269627D03*
D353*
X0057895Y0270277D03*
X0059195Y0274827D03*
X0114445Y0271057D03*
X0144248Y0270663D03*
X0199498Y0274433D03*
X0200798Y0269883D03*
D354*
X0201123Y0270533D03*
X0143923Y0271313D03*
X0114770Y0271707D03*
X0057570Y0270927D03*
D355*
X0057245Y0271577D03*
X0115095Y0272487D03*
X0143598Y0272093D03*
X0201448Y0271183D03*
D356*
X0201773Y0272093D03*
X0143273Y0272873D03*
X0143273Y0273003D03*
X0115420Y0273267D03*
X0115420Y0273397D03*
X0056920Y0272487D03*
D357*
X0060625Y0276907D03*
X0198068Y0276513D03*
D358*
X0197483Y0277033D03*
X0147953Y0277293D03*
X0110740Y0277687D03*
X0061210Y0277427D03*
D359*
X0061340Y0277557D03*
X0110610Y0277817D03*
X0148083Y0277423D03*
X0197353Y0277163D03*
D360*
X0197028Y0277553D03*
X0148408Y0277683D03*
X0110285Y0278077D03*
X0061665Y0277947D03*
D361*
X0108790Y0279247D03*
X0149903Y0278853D03*
D362*
X0151918Y0279893D03*
X0106775Y0280287D03*
D363*
X0065890Y0280547D03*
X0192803Y0280153D03*
D364*
X0152893Y0280283D03*
X0105800Y0280677D03*
D365*
X0085780Y0290427D03*
X0066150Y0280677D03*
X0172913Y0290033D03*
X0192543Y0280283D03*
D366*
X0191828Y0280543D03*
X0153218Y0280413D03*
X0105475Y0280807D03*
X0066865Y0280937D03*
D367*
X0105085Y0280937D03*
X0153608Y0280543D03*
D368*
X0153998Y0280673D03*
X0104695Y0281067D03*
D369*
X0104240Y0281197D03*
X0154453Y0280803D03*
D370*
X0190983Y0280803D03*
X0067710Y0281197D03*
D371*
X0068685Y0281457D03*
X0103785Y0281327D03*
X0154908Y0280933D03*
X0190008Y0281063D03*
D372*
X0190528Y0280933D03*
X0068165Y0281327D03*
D373*
X0103200Y0281457D03*
X0155493Y0281063D03*
D374*
X0189423Y0281193D03*
X0069270Y0281587D03*
D375*
X0101705Y0281717D03*
X0156988Y0281323D03*
D376*
X0158288Y0281453D03*
X0100405Y0281847D03*
D377*
X0071285Y0281847D03*
X0187408Y0281453D03*
D378*
X0172523Y0281583D03*
X0086170Y0281977D03*
D379*
X0086170Y0282107D03*
X0172523Y0281713D03*
D380*
X0172523Y0281843D03*
X0086170Y0282237D03*
D381*
X0086235Y0282367D03*
X0172458Y0281973D03*
D382*
X0172458Y0282103D03*
X0086235Y0282497D03*
D383*
X0086235Y0282627D03*
X0172458Y0282233D03*
D384*
X0172393Y0282363D03*
X0086300Y0282757D03*
D385*
X0086300Y0282887D03*
X0172393Y0282493D03*
D386*
X0172458Y0282623D03*
X0086235Y0283017D03*
D387*
X0086235Y0283147D03*
X0172458Y0282753D03*
D388*
X0172458Y0282883D03*
X0086235Y0283277D03*
D389*
X0086235Y0283407D03*
X0172458Y0283013D03*
D390*
X0172458Y0283143D03*
X0086235Y0283537D03*
D391*
X0086235Y0283667D03*
X0172458Y0283273D03*
D392*
X0172458Y0283403D03*
X0086235Y0283797D03*
D393*
X0086235Y0283927D03*
X0172458Y0283533D03*
D394*
X0172458Y0283663D03*
X0086235Y0284057D03*
D395*
X0086170Y0284187D03*
X0172523Y0283793D03*
D396*
X0172523Y0283923D03*
X0086170Y0284317D03*
D397*
X0086170Y0284447D03*
X0172523Y0284053D03*
D398*
X0172523Y0284183D03*
X0086170Y0284577D03*
D399*
X0086105Y0284707D03*
X0172588Y0284313D03*
D400*
X0172523Y0284443D03*
X0086170Y0284837D03*
D401*
X0086105Y0284967D03*
X0172588Y0284573D03*
D402*
X0172588Y0284703D03*
X0086105Y0285097D03*
D403*
X0086105Y0285227D03*
X0172588Y0284833D03*
D404*
X0172653Y0284963D03*
X0086040Y0285357D03*
D405*
X0086105Y0285487D03*
X0172588Y0285093D03*
D406*
X0172653Y0285223D03*
X0086040Y0285617D03*
D407*
X0086040Y0285747D03*
X0172653Y0285353D03*
D408*
X0172653Y0285483D03*
X0086040Y0285877D03*
D409*
X0085975Y0286007D03*
X0172718Y0285613D03*
D410*
X0172718Y0285743D03*
X0085975Y0286137D03*
D411*
X0085910Y0286267D03*
X0172783Y0285873D03*
D412*
X0172783Y0286003D03*
X0085910Y0286397D03*
D413*
X0085910Y0286527D03*
X0172783Y0286133D03*
D414*
X0172718Y0286263D03*
X0085975Y0286657D03*
D415*
X0085910Y0286787D03*
X0172783Y0286393D03*
D416*
X0172783Y0286523D03*
X0085910Y0286917D03*
D417*
X0085910Y0287047D03*
X0172783Y0286653D03*
D418*
X0172783Y0286783D03*
X0085910Y0287177D03*
D419*
X0085910Y0287307D03*
X0172783Y0286913D03*
D420*
X0172848Y0287043D03*
X0085845Y0287437D03*
D421*
X0085845Y0287567D03*
X0172848Y0287173D03*
D422*
X0172848Y0287303D03*
X0085845Y0287697D03*
D423*
X0085845Y0287827D03*
X0172848Y0287433D03*
D424*
X0172848Y0287563D03*
X0085845Y0287957D03*
D425*
X0085780Y0288087D03*
X0172913Y0287693D03*
D426*
X0172848Y0287823D03*
X0085845Y0288217D03*
D427*
X0085845Y0288347D03*
X0172848Y0287953D03*
D428*
X0172848Y0288083D03*
X0085845Y0288477D03*
D429*
X0085845Y0288607D03*
X0172848Y0288213D03*
D430*
X0172913Y0288603D03*
X0085780Y0288997D03*
D431*
X0085780Y0289257D03*
X0172913Y0288863D03*
D432*
X0172913Y0289123D03*
X0085780Y0289517D03*
D433*
X0085845Y0289647D03*
X0172848Y0289253D03*
D434*
X0172913Y0289383D03*
X0085780Y0289777D03*
D435*
X0085780Y0289907D03*
X0172913Y0289513D03*
D436*
X0172913Y0289643D03*
X0085780Y0290037D03*
D437*
X0085845Y0290167D03*
X0172848Y0289773D03*
D438*
X0172913Y0289903D03*
X0085780Y0290297D03*
M02*
