%
M48
M72
T01C0.00787
T02C0.01575
T03C0.01969
T04C0.02362
T05C0.08661
%
T01
X63598Y79740
X63992Y82102
X63992Y85252
X63992Y88008
X63992Y90764
X63992Y93520
X100606Y159661
X107693Y152575
X107299Y172260
X102969Y172260
X98638Y172260
X96669Y181709
X101394Y181709
X105331Y181709
X109661Y181709
X112417Y180921
X112024Y176591
X112024Y172654
X129346Y186433
X135646Y163205
X137614Y160055
X140764Y160055
X143913Y160055
X145882Y163598
X181709Y194307
X190370Y179740
X187220Y176591
X187614Y171866
X189976Y169504
X195488Y169110
X198244Y171866
X198638Y177378
X196276Y179740
X201394Y212417
X201394Y220685
X204543Y226984
X191945Y234465
X191945Y236827
X191945Y239189
X188008Y239189
X188008Y236827
X188008Y234465
X184465Y234465
X184465Y236827
X184465Y239189
X189189Y230921
X186433Y220685
X174622Y236039
X169504Y232496
X173047Y220685
X153362Y250606
X155724Y264386
X155724Y267929
X156906Y271079
X159661Y269898
X162417Y269504
X163598Y271866
X165567Y269504
X190370Y273047
X192732Y274228
X194701Y272260
X196276Y274228
X195094Y276591
X190764Y276984
X193913Y263205
X195882Y263205
X197850Y263205
X199031Y358480
X204150Y361236
X204150Y363598
X204543Y366748
X206512Y368717
X209661Y367929
X188008Y385252
X188008Y388402
X184465Y385252
X181709Y385252
X178559Y385646
X176591Y387220
X168323Y388402
X166354Y386827
X164780Y388402
X164780Y384858
X161236Y386433
X157693Y384858
X155724Y386827
X154150Y384858
X151787Y385646
X150213Y387614
X149031Y385252
X150606Y382890
X149031Y380528
X150606Y378953
X152969Y380921
X154543Y378559
X158087Y378953
X157693Y388402
X153362Y388402
X168323Y384858
X185252Y378953
X158480Y358874
X123047Y375803
X123047Y377772
X121079Y358874
X83677Y388008
X89189Y276984
X74622Y263992
X78165Y244701
X107693Y274622
X123441Y93126
X123441Y90370
X123441Y87614
X123441Y84858
X123441Y81709
X123441Y79346
X141157Y76197
X147850Y88008
X150213Y67142
X152969Y67142
X155724Y67142
X158480Y67142
X161630Y67142
X163992Y67142
X193126Y65173
X196276Y65173
X199425Y65173
X201394Y66354
X201000Y69504
T02
X188909Y249031
T03
X197850Y228165
X189976Y373441
X157693Y373441
T04
X171866Y249425
X171222Y212417
T05
X52575Y44701
X206118Y44701
X206118Y402969
X52575Y402969
M30
