G75*
%MOIN*%
%OFA0B0*%
%FSLAX25Y25*%
%IPPOS*%
%LPD*%
%AMOC8*
5,1,8,0,0,1.08239X$1,22.5*
%
%ADD10C,0.01981*%
%ADD11C,0.00787*%
%ADD12C,0.02953*%
%ADD13C,0.01575*%
%ADD14C,0.03543*%
%ADD15C,0.02375*%
D10*
X0063598Y0079740D03*
X0063598Y0082496D03*
X0063598Y0085252D03*
X0063598Y0088008D03*
X0063598Y0090764D03*
X0063598Y0093520D03*
X0100606Y0159661D03*
X0107693Y0152575D03*
X0107299Y0172260D03*
X0102969Y0172260D03*
X0098638Y0172260D03*
X0096669Y0181709D03*
X0101394Y0181709D03*
X0105331Y0181709D03*
X0109661Y0181709D03*
X0112417Y0180921D03*
X0112024Y0176591D03*
X0112024Y0172654D03*
X0129346Y0186433D03*
X0135646Y0163205D03*
X0137614Y0160055D03*
X0140764Y0160055D03*
X0143913Y0160055D03*
X0145882Y0163598D03*
X0181709Y0194307D03*
X0190370Y0179740D03*
X0187220Y0176591D03*
X0187614Y0171866D03*
X0189976Y0169504D03*
X0195488Y0169110D03*
X0198244Y0171866D03*
X0198638Y0177378D03*
X0196276Y0179740D03*
X0201787Y0210843D03*
X0201787Y0218323D03*
X0202969Y0226591D03*
X0191945Y0234465D03*
X0191945Y0236827D03*
X0191945Y0239189D03*
X0188008Y0239189D03*
X0188008Y0236827D03*
X0188008Y0234465D03*
X0184465Y0234465D03*
X0184465Y0236827D03*
X0184465Y0239189D03*
X0191846Y0248933D03*
X0184465Y0264386D03*
X0181709Y0264386D03*
X0178953Y0264386D03*
X0191157Y0272260D03*
X0192339Y0297063D03*
X0189976Y0299031D03*
X0188008Y0297457D03*
X0187614Y0300606D03*
X0190370Y0302181D03*
X0192732Y0300606D03*
X0165567Y0269898D03*
X0163992Y0271866D03*
X0162417Y0269898D03*
X0160843Y0271866D03*
X0159268Y0269898D03*
X0156906Y0271472D03*
X0155331Y0268323D03*
X0153362Y0250606D03*
X0169504Y0232496D03*
X0174622Y0236039D03*
X0186433Y0218323D03*
X0186827Y0210843D03*
X0130134Y0324622D03*
X0098638Y0312417D03*
X0089189Y0302969D03*
X0091157Y0297457D03*
X0101000Y0290764D03*
X0080921Y0279346D03*
X0072260Y0265173D03*
X0067929Y0270291D03*
X0123047Y0375409D03*
X0123047Y0378165D03*
X0159268Y0376591D03*
X0164780Y0384858D03*
X0162417Y0386433D03*
X0164780Y0388402D03*
X0167236Y0392280D03*
X0169898Y0389976D03*
X0172654Y0391157D03*
X0171866Y0387614D03*
X0169504Y0386039D03*
X0171866Y0382890D03*
X0173835Y0384858D03*
X0176591Y0383283D03*
X0178559Y0385646D03*
X0178953Y0380528D03*
X0176984Y0378559D03*
X0174228Y0380134D03*
X0182496Y0381709D03*
X0182496Y0378559D03*
X0186039Y0379346D03*
X0188402Y0381315D03*
X0188008Y0385252D03*
X0185252Y0384071D03*
X0181709Y0385252D03*
X0188008Y0388402D03*
X0199425Y0368323D03*
X0197457Y0366354D03*
X0197063Y0363205D03*
X0197063Y0360843D03*
X0190764Y0357299D03*
X0202575Y0367535D03*
X0171472Y0370685D03*
X0083677Y0388008D03*
X0123441Y0093126D03*
X0123441Y0090370D03*
X0123441Y0087614D03*
X0123441Y0084858D03*
X0123441Y0082102D03*
X0123441Y0079346D03*
X0141157Y0076197D03*
X0147850Y0088008D03*
X0150213Y0067142D03*
X0152969Y0067142D03*
X0155724Y0067142D03*
X0158480Y0067142D03*
X0161630Y0067142D03*
X0164386Y0067142D03*
X0193126Y0065173D03*
X0196276Y0065173D03*
X0199425Y0065173D03*
X0201394Y0067142D03*
X0201787Y0069898D03*
D11*
X0046669Y0046904D02*
X0046669Y0400765D01*
X0047235Y0399400D01*
X0049007Y0397628D01*
X0051322Y0396669D01*
X0053828Y0396669D01*
X0056143Y0397628D01*
X0057915Y0399400D01*
X0058874Y0401716D01*
X0058874Y0404221D01*
X0057915Y0406537D01*
X0056143Y0408309D01*
X0054778Y0408874D01*
X0203915Y0408874D01*
X0202550Y0408309D01*
X0200778Y0406537D01*
X0199819Y0404221D01*
X0199819Y0401716D01*
X0200778Y0399400D01*
X0202550Y0397628D01*
X0204865Y0396669D01*
X0207371Y0396669D01*
X0209686Y0397628D01*
X0211458Y0399400D01*
X0212024Y0400765D01*
X0212024Y0046904D01*
X0211458Y0048269D01*
X0209686Y0050041D01*
X0207371Y0051000D01*
X0204865Y0051000D01*
X0202550Y0050041D01*
X0200778Y0048269D01*
X0199819Y0045954D01*
X0199819Y0043448D01*
X0200778Y0041133D01*
X0202550Y0039361D01*
X0203915Y0038795D01*
X0054778Y0038795D01*
X0056143Y0039361D01*
X0057915Y0041133D01*
X0058874Y0043448D01*
X0058874Y0045954D01*
X0057915Y0048269D01*
X0056143Y0050041D01*
X0053828Y0051000D01*
X0051322Y0051000D01*
X0049007Y0050041D01*
X0047235Y0048269D01*
X0046669Y0046904D01*
X0046669Y0047044D02*
X0046727Y0047044D01*
X0046669Y0047830D02*
X0047053Y0047830D01*
X0046669Y0048615D02*
X0047581Y0048615D01*
X0048367Y0049401D02*
X0046669Y0049401D01*
X0046669Y0050187D02*
X0049360Y0050187D01*
X0051257Y0050973D02*
X0046669Y0050973D01*
X0046669Y0051759D02*
X0212024Y0051759D01*
X0212024Y0050973D02*
X0207436Y0050973D01*
X0209333Y0050187D02*
X0212024Y0050187D01*
X0212024Y0049401D02*
X0210326Y0049401D01*
X0211112Y0048615D02*
X0212024Y0048615D01*
X0212024Y0047830D02*
X0211640Y0047830D01*
X0211966Y0047044D02*
X0212024Y0047044D01*
X0212024Y0052545D02*
X0046669Y0052545D01*
X0046669Y0053331D02*
X0212024Y0053331D01*
X0212024Y0054117D02*
X0046669Y0054117D01*
X0046669Y0054903D02*
X0212024Y0054903D01*
X0212024Y0055689D02*
X0046669Y0055689D01*
X0046669Y0056475D02*
X0212024Y0056475D01*
X0212024Y0057261D02*
X0046669Y0057261D01*
X0046669Y0058046D02*
X0212024Y0058046D01*
X0212024Y0058832D02*
X0046669Y0058832D01*
X0046669Y0059618D02*
X0212024Y0059618D01*
X0212024Y0060404D02*
X0046669Y0060404D01*
X0046669Y0061190D02*
X0212024Y0061190D01*
X0212024Y0061976D02*
X0046669Y0061976D01*
X0046669Y0062762D02*
X0212024Y0062762D01*
X0212024Y0063548D02*
X0046669Y0063548D01*
X0046669Y0064334D02*
X0212024Y0064334D01*
X0212024Y0065120D02*
X0046669Y0065120D01*
X0046669Y0065906D02*
X0212024Y0065906D01*
X0212024Y0066691D02*
X0046669Y0066691D01*
X0046669Y0067477D02*
X0212024Y0067477D01*
X0212024Y0068263D02*
X0046669Y0068263D01*
X0046669Y0069049D02*
X0212024Y0069049D01*
X0212024Y0069835D02*
X0046669Y0069835D01*
X0046669Y0070621D02*
X0212024Y0070621D01*
X0212024Y0071407D02*
X0046669Y0071407D01*
X0046669Y0072193D02*
X0212024Y0072193D01*
X0212024Y0072979D02*
X0046669Y0072979D01*
X0046669Y0073765D02*
X0212024Y0073765D01*
X0212024Y0074551D02*
X0142317Y0074551D01*
X0141979Y0074213D02*
X0143142Y0075375D01*
X0143142Y0077019D01*
X0141979Y0078181D01*
X0140336Y0078181D01*
X0139173Y0077019D01*
X0139173Y0075375D01*
X0140336Y0074213D01*
X0141979Y0074213D01*
X0143103Y0075337D02*
X0212024Y0075337D01*
X0212024Y0076122D02*
X0143142Y0076122D01*
X0143142Y0076908D02*
X0212024Y0076908D01*
X0212024Y0077694D02*
X0142466Y0077694D01*
X0139849Y0077694D02*
X0046669Y0077694D01*
X0046669Y0076908D02*
X0139173Y0076908D01*
X0139173Y0076122D02*
X0046669Y0076122D01*
X0046669Y0075337D02*
X0139212Y0075337D01*
X0139998Y0074551D02*
X0046669Y0074551D01*
X0046669Y0078480D02*
X0212024Y0078480D01*
X0212024Y0079266D02*
X0046669Y0079266D01*
X0046669Y0080052D02*
X0212024Y0080052D01*
X0212024Y0080838D02*
X0046669Y0080838D01*
X0046669Y0081624D02*
X0212024Y0081624D01*
X0212024Y0082410D02*
X0046669Y0082410D01*
X0046669Y0083196D02*
X0212024Y0083196D01*
X0212024Y0083982D02*
X0046669Y0083982D01*
X0046669Y0084767D02*
X0212024Y0084767D01*
X0212024Y0085553D02*
X0046669Y0085553D01*
X0046669Y0086339D02*
X0146713Y0086339D01*
X0147028Y0086024D02*
X0148672Y0086024D01*
X0149835Y0087186D01*
X0149835Y0088830D01*
X0148672Y0089992D01*
X0147028Y0089992D01*
X0145866Y0088830D01*
X0145866Y0087186D01*
X0147028Y0086024D01*
X0145927Y0087125D02*
X0046669Y0087125D01*
X0046669Y0087911D02*
X0145866Y0087911D01*
X0145866Y0088697D02*
X0046669Y0088697D01*
X0046669Y0089483D02*
X0146519Y0089483D01*
X0149181Y0089483D02*
X0212024Y0089483D01*
X0212024Y0090269D02*
X0046669Y0090269D01*
X0046669Y0091055D02*
X0212024Y0091055D01*
X0212024Y0091841D02*
X0046669Y0091841D01*
X0046669Y0092627D02*
X0212024Y0092627D01*
X0212024Y0093412D02*
X0046669Y0093412D01*
X0046669Y0094198D02*
X0212024Y0094198D01*
X0212024Y0094984D02*
X0046669Y0094984D01*
X0046669Y0095770D02*
X0212024Y0095770D01*
X0212024Y0096556D02*
X0046669Y0096556D01*
X0046669Y0097342D02*
X0212024Y0097342D01*
X0212024Y0098128D02*
X0046669Y0098128D01*
X0046669Y0098914D02*
X0212024Y0098914D01*
X0212024Y0099700D02*
X0046669Y0099700D01*
X0046669Y0100486D02*
X0212024Y0100486D01*
X0212024Y0101272D02*
X0046669Y0101272D01*
X0046669Y0102058D02*
X0212024Y0102058D01*
X0212024Y0102843D02*
X0046669Y0102843D01*
X0046669Y0103629D02*
X0212024Y0103629D01*
X0212024Y0104415D02*
X0046669Y0104415D01*
X0046669Y0105201D02*
X0212024Y0105201D01*
X0212024Y0105987D02*
X0046669Y0105987D01*
X0046669Y0106773D02*
X0212024Y0106773D01*
X0212024Y0107559D02*
X0046669Y0107559D01*
X0046669Y0108345D02*
X0212024Y0108345D01*
X0212024Y0109131D02*
X0046669Y0109131D01*
X0046669Y0109917D02*
X0212024Y0109917D01*
X0212024Y0110703D02*
X0046669Y0110703D01*
X0046669Y0111488D02*
X0212024Y0111488D01*
X0212024Y0112274D02*
X0046669Y0112274D01*
X0046669Y0113060D02*
X0212024Y0113060D01*
X0212024Y0113846D02*
X0046669Y0113846D01*
X0046669Y0114632D02*
X0212024Y0114632D01*
X0212024Y0115418D02*
X0046669Y0115418D01*
X0046669Y0116204D02*
X0212024Y0116204D01*
X0212024Y0116990D02*
X0046669Y0116990D01*
X0046669Y0117776D02*
X0212024Y0117776D01*
X0212024Y0118562D02*
X0046669Y0118562D01*
X0046669Y0119348D02*
X0212024Y0119348D01*
X0212024Y0120134D02*
X0046669Y0120134D01*
X0046669Y0120919D02*
X0212024Y0120919D01*
X0212024Y0121705D02*
X0046669Y0121705D01*
X0046669Y0122491D02*
X0212024Y0122491D01*
X0212024Y0123277D02*
X0046669Y0123277D01*
X0046669Y0124063D02*
X0212024Y0124063D01*
X0212024Y0124849D02*
X0046669Y0124849D01*
X0046669Y0125635D02*
X0212024Y0125635D01*
X0212024Y0126421D02*
X0046669Y0126421D01*
X0046669Y0127207D02*
X0212024Y0127207D01*
X0212024Y0127993D02*
X0046669Y0127993D01*
X0046669Y0128779D02*
X0212024Y0128779D01*
X0212024Y0129564D02*
X0046669Y0129564D01*
X0046669Y0130350D02*
X0212024Y0130350D01*
X0212024Y0131136D02*
X0046669Y0131136D01*
X0046669Y0131922D02*
X0212024Y0131922D01*
X0212024Y0132708D02*
X0046669Y0132708D01*
X0046669Y0133494D02*
X0212024Y0133494D01*
X0212024Y0134280D02*
X0046669Y0134280D01*
X0046669Y0135066D02*
X0212024Y0135066D01*
X0212024Y0135852D02*
X0046669Y0135852D01*
X0046669Y0136638D02*
X0212024Y0136638D01*
X0212024Y0137424D02*
X0046669Y0137424D01*
X0046669Y0138210D02*
X0212024Y0138210D01*
X0212024Y0138995D02*
X0046669Y0138995D01*
X0046669Y0139781D02*
X0212024Y0139781D01*
X0212024Y0140567D02*
X0046669Y0140567D01*
X0046669Y0141353D02*
X0212024Y0141353D01*
X0212024Y0142139D02*
X0046669Y0142139D01*
X0046669Y0142925D02*
X0212024Y0142925D01*
X0212024Y0143711D02*
X0046669Y0143711D01*
X0046669Y0144497D02*
X0212024Y0144497D01*
X0212024Y0145283D02*
X0046669Y0145283D01*
X0046669Y0146069D02*
X0212024Y0146069D01*
X0212024Y0146855D02*
X0046669Y0146855D01*
X0046669Y0147640D02*
X0212024Y0147640D01*
X0212024Y0148426D02*
X0046669Y0148426D01*
X0046669Y0149212D02*
X0212024Y0149212D01*
X0212024Y0149998D02*
X0046669Y0149998D01*
X0046669Y0150784D02*
X0106677Y0150784D01*
X0106871Y0150591D02*
X0108515Y0150591D01*
X0109677Y0151753D01*
X0109677Y0153397D01*
X0108515Y0154559D01*
X0106871Y0154559D01*
X0105709Y0153397D01*
X0105709Y0151753D01*
X0106871Y0150591D01*
X0105891Y0151570D02*
X0046669Y0151570D01*
X0046669Y0152356D02*
X0105709Y0152356D01*
X0105709Y0153142D02*
X0046669Y0153142D01*
X0046669Y0153928D02*
X0106240Y0153928D01*
X0109146Y0153928D02*
X0212024Y0153928D01*
X0212024Y0154714D02*
X0046669Y0154714D01*
X0046669Y0155500D02*
X0212024Y0155500D01*
X0212024Y0156286D02*
X0046669Y0156286D01*
X0046669Y0157071D02*
X0212024Y0157071D01*
X0212024Y0157857D02*
X0101608Y0157857D01*
X0101428Y0157677D02*
X0102591Y0158840D01*
X0102591Y0160483D01*
X0101428Y0161646D01*
X0099784Y0161646D01*
X0098622Y0160483D01*
X0098622Y0158840D01*
X0099784Y0157677D01*
X0101428Y0157677D01*
X0102394Y0158643D02*
X0212024Y0158643D01*
X0212024Y0159429D02*
X0102591Y0159429D01*
X0102591Y0160215D02*
X0212024Y0160215D01*
X0212024Y0161001D02*
X0102073Y0161001D01*
X0099140Y0161001D02*
X0046669Y0161001D01*
X0046669Y0160215D02*
X0098622Y0160215D01*
X0098622Y0159429D02*
X0046669Y0159429D01*
X0046669Y0158643D02*
X0098818Y0158643D01*
X0099604Y0157857D02*
X0046669Y0157857D01*
X0046669Y0161787D02*
X0212024Y0161787D01*
X0212024Y0162573D02*
X0046669Y0162573D01*
X0046669Y0163359D02*
X0212024Y0163359D01*
X0212024Y0164145D02*
X0046669Y0164145D01*
X0046669Y0164931D02*
X0212024Y0164931D01*
X0212024Y0165716D02*
X0046669Y0165716D01*
X0046669Y0166502D02*
X0212024Y0166502D01*
X0212024Y0167288D02*
X0046669Y0167288D01*
X0046669Y0168074D02*
X0212024Y0168074D01*
X0212024Y0168860D02*
X0046669Y0168860D01*
X0046669Y0169646D02*
X0212024Y0169646D01*
X0212024Y0170432D02*
X0046669Y0170432D01*
X0046669Y0171218D02*
X0212024Y0171218D01*
X0212024Y0172004D02*
X0046669Y0172004D01*
X0046669Y0172790D02*
X0212024Y0172790D01*
X0212024Y0173576D02*
X0046669Y0173576D01*
X0046669Y0174362D02*
X0212024Y0174362D01*
X0212024Y0175147D02*
X0046669Y0175147D01*
X0046669Y0175933D02*
X0212024Y0175933D01*
X0212024Y0176719D02*
X0046669Y0176719D01*
X0046669Y0177505D02*
X0212024Y0177505D01*
X0212024Y0178291D02*
X0046669Y0178291D01*
X0046669Y0179077D02*
X0212024Y0179077D01*
X0212024Y0179863D02*
X0046669Y0179863D01*
X0046669Y0180649D02*
X0212024Y0180649D01*
X0212024Y0181435D02*
X0046669Y0181435D01*
X0046669Y0182221D02*
X0212024Y0182221D01*
X0212024Y0183007D02*
X0046669Y0183007D01*
X0046669Y0183792D02*
X0212024Y0183792D01*
X0212024Y0184578D02*
X0130298Y0184578D01*
X0130168Y0184449D02*
X0131331Y0185611D01*
X0131331Y0187255D01*
X0130168Y0188417D01*
X0128525Y0188417D01*
X0127362Y0187255D01*
X0127362Y0185611D01*
X0128525Y0184449D01*
X0130168Y0184449D01*
X0131084Y0185364D02*
X0212024Y0185364D01*
X0212024Y0186150D02*
X0131331Y0186150D01*
X0131331Y0186936D02*
X0212024Y0186936D01*
X0212024Y0187722D02*
X0130864Y0187722D01*
X0128395Y0184578D02*
X0046669Y0184578D01*
X0046669Y0185364D02*
X0127609Y0185364D01*
X0127362Y0186150D02*
X0046669Y0186150D01*
X0046669Y0186936D02*
X0127362Y0186936D01*
X0127829Y0187722D02*
X0046669Y0187722D01*
X0046669Y0188508D02*
X0212024Y0188508D01*
X0212024Y0189294D02*
X0046669Y0189294D01*
X0046669Y0190080D02*
X0212024Y0190080D01*
X0212024Y0190866D02*
X0046669Y0190866D01*
X0046669Y0191652D02*
X0212024Y0191652D01*
X0212024Y0192438D02*
X0046669Y0192438D01*
X0046669Y0193223D02*
X0212024Y0193223D01*
X0212024Y0194009D02*
X0046669Y0194009D01*
X0046669Y0194795D02*
X0212024Y0194795D01*
X0212024Y0195581D02*
X0046669Y0195581D01*
X0046669Y0196367D02*
X0212024Y0196367D01*
X0212024Y0197153D02*
X0046669Y0197153D01*
X0046669Y0197939D02*
X0212024Y0197939D01*
X0212024Y0198725D02*
X0046669Y0198725D01*
X0046669Y0199511D02*
X0212024Y0199511D01*
X0212024Y0200297D02*
X0046669Y0200297D01*
X0046669Y0201083D02*
X0212024Y0201083D01*
X0212024Y0201868D02*
X0046669Y0201868D01*
X0046669Y0202654D02*
X0212024Y0202654D01*
X0212024Y0203440D02*
X0046669Y0203440D01*
X0046669Y0204226D02*
X0212024Y0204226D01*
X0212024Y0205012D02*
X0046669Y0205012D01*
X0046669Y0205798D02*
X0212024Y0205798D01*
X0212024Y0206584D02*
X0046669Y0206584D01*
X0046669Y0207370D02*
X0212024Y0207370D01*
X0212024Y0208156D02*
X0046669Y0208156D01*
X0046669Y0208942D02*
X0185921Y0208942D01*
X0186005Y0208858D02*
X0187649Y0208858D01*
X0188811Y0210021D01*
X0188811Y0211664D01*
X0187649Y0212827D01*
X0186005Y0212827D01*
X0184843Y0211664D01*
X0184843Y0210021D01*
X0186005Y0208858D01*
X0185136Y0209728D02*
X0046669Y0209728D01*
X0046669Y0210514D02*
X0184843Y0210514D01*
X0184843Y0211299D02*
X0046669Y0211299D01*
X0046669Y0212085D02*
X0185263Y0212085D01*
X0188390Y0212085D02*
X0212024Y0212085D01*
X0212024Y0211299D02*
X0188811Y0211299D01*
X0188811Y0210514D02*
X0212024Y0210514D01*
X0212024Y0209728D02*
X0188518Y0209728D01*
X0187732Y0208942D02*
X0212024Y0208942D01*
X0212024Y0212871D02*
X0046669Y0212871D01*
X0046669Y0213657D02*
X0212024Y0213657D01*
X0212024Y0214443D02*
X0046669Y0214443D01*
X0046669Y0215229D02*
X0212024Y0215229D01*
X0212024Y0216015D02*
X0046669Y0216015D01*
X0046669Y0216801D02*
X0185149Y0216801D01*
X0185611Y0216339D02*
X0187255Y0216339D01*
X0188417Y0217501D01*
X0188417Y0219145D01*
X0187255Y0220307D01*
X0185611Y0220307D01*
X0184449Y0219145D01*
X0184449Y0217501D01*
X0185611Y0216339D01*
X0184449Y0217587D02*
X0046669Y0217587D01*
X0046669Y0218373D02*
X0184449Y0218373D01*
X0184463Y0219159D02*
X0046669Y0219159D01*
X0046669Y0219944D02*
X0185249Y0219944D01*
X0187618Y0219944D02*
X0212024Y0219944D01*
X0212024Y0219159D02*
X0188403Y0219159D01*
X0188417Y0218373D02*
X0212024Y0218373D01*
X0212024Y0217587D02*
X0188417Y0217587D01*
X0187717Y0216801D02*
X0212024Y0216801D01*
X0212024Y0220730D02*
X0046669Y0220730D01*
X0046669Y0221516D02*
X0212024Y0221516D01*
X0212024Y0222302D02*
X0046669Y0222302D01*
X0046669Y0223088D02*
X0212024Y0223088D01*
X0212024Y0223874D02*
X0046669Y0223874D01*
X0046669Y0224660D02*
X0212024Y0224660D01*
X0212024Y0225446D02*
X0046669Y0225446D01*
X0046669Y0226232D02*
X0212024Y0226232D01*
X0212024Y0227018D02*
X0046669Y0227018D01*
X0046669Y0227804D02*
X0212024Y0227804D01*
X0212024Y0228590D02*
X0046669Y0228590D01*
X0046669Y0229375D02*
X0212024Y0229375D01*
X0212024Y0230161D02*
X0046669Y0230161D01*
X0046669Y0230947D02*
X0168247Y0230947D01*
X0168682Y0230512D02*
X0170326Y0230512D01*
X0171488Y0231674D01*
X0171488Y0233318D01*
X0170326Y0234480D01*
X0168682Y0234480D01*
X0167520Y0233318D01*
X0167520Y0231674D01*
X0168682Y0230512D01*
X0167520Y0231733D02*
X0046669Y0231733D01*
X0046669Y0232519D02*
X0167520Y0232519D01*
X0167520Y0233305D02*
X0046669Y0233305D01*
X0046669Y0234091D02*
X0168293Y0234091D01*
X0170715Y0234091D02*
X0212024Y0234091D01*
X0212024Y0234877D02*
X0046669Y0234877D01*
X0046669Y0235663D02*
X0212024Y0235663D01*
X0212024Y0236449D02*
X0046669Y0236449D01*
X0046669Y0237235D02*
X0212024Y0237235D01*
X0212024Y0238020D02*
X0046669Y0238020D01*
X0046669Y0238806D02*
X0212024Y0238806D01*
X0212024Y0239592D02*
X0046669Y0239592D01*
X0046669Y0240378D02*
X0212024Y0240378D01*
X0212024Y0241164D02*
X0166156Y0241164D01*
X0166117Y0241148D02*
X0167133Y0241569D01*
X0167911Y0242347D01*
X0168332Y0243363D01*
X0168332Y0244463D01*
X0167911Y0245480D01*
X0167133Y0246258D01*
X0166117Y0246679D01*
X0165017Y0246679D01*
X0164000Y0246258D01*
X0163223Y0245480D01*
X0162802Y0244463D01*
X0162802Y0243363D01*
X0163223Y0242347D01*
X0164000Y0241569D01*
X0165017Y0241148D01*
X0166117Y0241148D01*
X0164978Y0241164D02*
X0046669Y0241164D01*
X0046669Y0241950D02*
X0163619Y0241950D01*
X0163061Y0242736D02*
X0046669Y0242736D01*
X0046669Y0243522D02*
X0162802Y0243522D01*
X0162802Y0244308D02*
X0046669Y0244308D01*
X0046669Y0245094D02*
X0163063Y0245094D01*
X0163622Y0245880D02*
X0046669Y0245880D01*
X0046669Y0246666D02*
X0164985Y0246666D01*
X0166149Y0246666D02*
X0212024Y0246666D01*
X0212024Y0247451D02*
X0193171Y0247451D01*
X0192668Y0246949D02*
X0193831Y0248111D01*
X0193831Y0249755D01*
X0192668Y0250917D01*
X0191025Y0250917D01*
X0190312Y0250204D01*
X0189610Y0250877D01*
X0187823Y0250840D01*
X0187451Y0251213D01*
X0185644Y0251213D01*
X0184366Y0249935D01*
X0184366Y0248128D01*
X0185644Y0246850D01*
X0187451Y0246850D01*
X0187878Y0247278D01*
X0189684Y0247316D01*
X0190161Y0247813D01*
X0191025Y0246949D01*
X0192668Y0246949D01*
X0193831Y0248237D02*
X0212024Y0248237D01*
X0212024Y0249023D02*
X0193831Y0249023D01*
X0193777Y0249809D02*
X0212024Y0249809D01*
X0212024Y0250595D02*
X0192991Y0250595D01*
X0190702Y0250595D02*
X0189904Y0250595D01*
X0189814Y0247451D02*
X0190522Y0247451D01*
X0185043Y0247451D02*
X0046669Y0247451D01*
X0046669Y0248237D02*
X0184366Y0248237D01*
X0184366Y0249023D02*
X0154585Y0249023D01*
X0154184Y0248622D02*
X0155346Y0249784D01*
X0155346Y0251428D01*
X0154184Y0252591D01*
X0152540Y0252591D01*
X0151378Y0251428D01*
X0151378Y0249784D01*
X0152540Y0248622D01*
X0154184Y0248622D01*
X0155346Y0249809D02*
X0184366Y0249809D01*
X0185026Y0250595D02*
X0155346Y0250595D01*
X0155346Y0251381D02*
X0212024Y0251381D01*
X0212024Y0252167D02*
X0154608Y0252167D01*
X0152117Y0252167D02*
X0046669Y0252167D01*
X0046669Y0252953D02*
X0212024Y0252953D01*
X0212024Y0253739D02*
X0046669Y0253739D01*
X0046669Y0254525D02*
X0212024Y0254525D01*
X0212024Y0255311D02*
X0046669Y0255311D01*
X0046669Y0256096D02*
X0212024Y0256096D01*
X0212024Y0256882D02*
X0046669Y0256882D01*
X0046669Y0257668D02*
X0212024Y0257668D01*
X0212024Y0258454D02*
X0046669Y0258454D01*
X0046669Y0259240D02*
X0212024Y0259240D01*
X0212024Y0260026D02*
X0046669Y0260026D01*
X0046669Y0260812D02*
X0212024Y0260812D01*
X0212024Y0261598D02*
X0046669Y0261598D01*
X0046669Y0262384D02*
X0212024Y0262384D01*
X0212024Y0263170D02*
X0046669Y0263170D01*
X0046669Y0263956D02*
X0070671Y0263956D01*
X0070276Y0264351D02*
X0071438Y0263189D01*
X0073082Y0263189D01*
X0074244Y0264351D01*
X0074244Y0265995D01*
X0073082Y0267157D01*
X0071438Y0267157D01*
X0070276Y0265995D01*
X0070276Y0264351D01*
X0070276Y0264742D02*
X0046669Y0264742D01*
X0046669Y0265527D02*
X0070276Y0265527D01*
X0070594Y0266313D02*
X0046669Y0266313D01*
X0046669Y0267099D02*
X0071380Y0267099D01*
X0073140Y0267099D02*
X0212024Y0267099D01*
X0212024Y0266313D02*
X0073926Y0266313D01*
X0074244Y0265527D02*
X0212024Y0265527D01*
X0212024Y0264742D02*
X0074244Y0264742D01*
X0073848Y0263956D02*
X0212024Y0263956D01*
X0212024Y0267885D02*
X0046669Y0267885D01*
X0046669Y0268671D02*
X0066743Y0268671D01*
X0067107Y0268307D02*
X0068751Y0268307D01*
X0069913Y0269469D01*
X0069913Y0271113D01*
X0068751Y0272276D01*
X0067107Y0272276D01*
X0065945Y0271113D01*
X0065945Y0269469D01*
X0067107Y0268307D01*
X0065957Y0269457D02*
X0046669Y0269457D01*
X0046669Y0270243D02*
X0065945Y0270243D01*
X0065945Y0271029D02*
X0046669Y0271029D01*
X0046669Y0271815D02*
X0066646Y0271815D01*
X0069212Y0271815D02*
X0189173Y0271815D01*
X0189173Y0271438D02*
X0190336Y0270276D01*
X0191979Y0270276D01*
X0193142Y0271438D01*
X0193142Y0273082D01*
X0191979Y0274244D01*
X0190336Y0274244D01*
X0189173Y0273082D01*
X0189173Y0271438D01*
X0189582Y0271029D02*
X0069913Y0271029D01*
X0069913Y0270243D02*
X0212024Y0270243D01*
X0212024Y0271029D02*
X0192733Y0271029D01*
X0193142Y0271815D02*
X0212024Y0271815D01*
X0212024Y0272601D02*
X0193142Y0272601D01*
X0192837Y0273387D02*
X0212024Y0273387D01*
X0212024Y0274172D02*
X0192051Y0274172D01*
X0190264Y0274172D02*
X0046669Y0274172D01*
X0046669Y0273387D02*
X0189478Y0273387D01*
X0189173Y0272601D02*
X0046669Y0272601D01*
X0046669Y0274958D02*
X0212024Y0274958D01*
X0212024Y0275744D02*
X0046669Y0275744D01*
X0046669Y0276530D02*
X0212024Y0276530D01*
X0212024Y0277316D02*
X0046669Y0277316D01*
X0046669Y0278102D02*
X0079360Y0278102D01*
X0078937Y0278525D02*
X0080099Y0277362D01*
X0081743Y0277362D01*
X0082905Y0278525D01*
X0082905Y0280168D01*
X0081743Y0281331D01*
X0080099Y0281331D01*
X0078937Y0280168D01*
X0078937Y0278525D01*
X0078937Y0278888D02*
X0046669Y0278888D01*
X0046669Y0279674D02*
X0078937Y0279674D01*
X0079228Y0280460D02*
X0046669Y0280460D01*
X0046669Y0281246D02*
X0080014Y0281246D01*
X0081828Y0281246D02*
X0212024Y0281246D01*
X0212024Y0282032D02*
X0046669Y0282032D01*
X0046669Y0282818D02*
X0212024Y0282818D01*
X0212024Y0283603D02*
X0046669Y0283603D01*
X0046669Y0284389D02*
X0212024Y0284389D01*
X0212024Y0285175D02*
X0046669Y0285175D01*
X0046669Y0285961D02*
X0212024Y0285961D01*
X0212024Y0286747D02*
X0046669Y0286747D01*
X0046669Y0287533D02*
X0212024Y0287533D01*
X0212024Y0288319D02*
X0046669Y0288319D01*
X0046669Y0289105D02*
X0099853Y0289105D01*
X0100178Y0288780D02*
X0101822Y0288780D01*
X0102984Y0289942D01*
X0102984Y0291586D01*
X0101822Y0292748D01*
X0100178Y0292748D01*
X0099016Y0291586D01*
X0099016Y0289942D01*
X0100178Y0288780D01*
X0099067Y0289891D02*
X0046669Y0289891D01*
X0046669Y0290677D02*
X0099016Y0290677D01*
X0099016Y0291463D02*
X0046669Y0291463D01*
X0046669Y0292248D02*
X0099679Y0292248D01*
X0102321Y0292248D02*
X0212024Y0292248D01*
X0212024Y0291463D02*
X0102984Y0291463D01*
X0102984Y0290677D02*
X0212024Y0290677D01*
X0212024Y0289891D02*
X0102933Y0289891D01*
X0102147Y0289105D02*
X0212024Y0289105D01*
X0212024Y0293034D02*
X0046669Y0293034D01*
X0046669Y0293820D02*
X0212024Y0293820D01*
X0212024Y0294606D02*
X0046669Y0294606D01*
X0046669Y0295392D02*
X0212024Y0295392D01*
X0212024Y0296178D02*
X0092685Y0296178D01*
X0093142Y0296635D02*
X0091979Y0295472D01*
X0090336Y0295472D01*
X0089173Y0296635D01*
X0089173Y0298279D01*
X0090336Y0299441D01*
X0091979Y0299441D01*
X0093142Y0298279D01*
X0093142Y0296635D01*
X0093142Y0296964D02*
X0212024Y0296964D01*
X0212024Y0297750D02*
X0093142Y0297750D01*
X0092885Y0298536D02*
X0212024Y0298536D01*
X0212024Y0299322D02*
X0092099Y0299322D01*
X0090216Y0299322D02*
X0046669Y0299322D01*
X0046669Y0300108D02*
X0212024Y0300108D01*
X0212024Y0300894D02*
X0046669Y0300894D01*
X0046669Y0301679D02*
X0087672Y0301679D01*
X0087205Y0302147D02*
X0088367Y0300984D01*
X0090011Y0300984D01*
X0091173Y0302147D01*
X0091173Y0303790D01*
X0090011Y0304953D01*
X0088367Y0304953D01*
X0087205Y0303790D01*
X0087205Y0302147D01*
X0087205Y0302465D02*
X0046669Y0302465D01*
X0046669Y0303251D02*
X0087205Y0303251D01*
X0087451Y0304037D02*
X0046669Y0304037D01*
X0046669Y0304823D02*
X0088237Y0304823D01*
X0090141Y0304823D02*
X0212024Y0304823D01*
X0212024Y0304037D02*
X0090926Y0304037D01*
X0091173Y0303251D02*
X0212024Y0303251D01*
X0212024Y0302465D02*
X0091173Y0302465D01*
X0090706Y0301679D02*
X0212024Y0301679D01*
X0212024Y0305609D02*
X0046669Y0305609D01*
X0046669Y0306395D02*
X0212024Y0306395D01*
X0212024Y0307181D02*
X0046669Y0307181D01*
X0046669Y0307967D02*
X0212024Y0307967D01*
X0212024Y0308753D02*
X0046669Y0308753D01*
X0046669Y0309539D02*
X0212024Y0309539D01*
X0212024Y0310324D02*
X0046669Y0310324D01*
X0046669Y0311110D02*
X0097139Y0311110D01*
X0096654Y0311595D02*
X0097816Y0310433D01*
X0099460Y0310433D01*
X0100622Y0311595D01*
X0100622Y0313239D01*
X0099460Y0314402D01*
X0097816Y0314402D01*
X0096654Y0313239D01*
X0096654Y0311595D01*
X0096654Y0311896D02*
X0046669Y0311896D01*
X0046669Y0312682D02*
X0096654Y0312682D01*
X0096882Y0313468D02*
X0046669Y0313468D01*
X0046669Y0314254D02*
X0097668Y0314254D01*
X0099607Y0314254D02*
X0212024Y0314254D01*
X0212024Y0313468D02*
X0100393Y0313468D01*
X0100622Y0312682D02*
X0212024Y0312682D01*
X0212024Y0311896D02*
X0100622Y0311896D01*
X0100137Y0311110D02*
X0212024Y0311110D01*
X0212024Y0315040D02*
X0046669Y0315040D01*
X0046669Y0315826D02*
X0212024Y0315826D01*
X0212024Y0316612D02*
X0046669Y0316612D01*
X0046669Y0317398D02*
X0212024Y0317398D01*
X0212024Y0318184D02*
X0046669Y0318184D01*
X0046669Y0318970D02*
X0212024Y0318970D01*
X0212024Y0319755D02*
X0046669Y0319755D01*
X0046669Y0320541D02*
X0212024Y0320541D01*
X0212024Y0321327D02*
X0046669Y0321327D01*
X0046669Y0322113D02*
X0212024Y0322113D01*
X0212024Y0322899D02*
X0046669Y0322899D01*
X0046669Y0323685D02*
X0212024Y0323685D01*
X0212024Y0324471D02*
X0046669Y0324471D01*
X0046669Y0325257D02*
X0212024Y0325257D01*
X0212024Y0326043D02*
X0046669Y0326043D01*
X0046669Y0326829D02*
X0212024Y0326829D01*
X0212024Y0327615D02*
X0046669Y0327615D01*
X0046669Y0328400D02*
X0212024Y0328400D01*
X0212024Y0329186D02*
X0046669Y0329186D01*
X0046669Y0329972D02*
X0212024Y0329972D01*
X0212024Y0330758D02*
X0046669Y0330758D01*
X0046669Y0331544D02*
X0212024Y0331544D01*
X0212024Y0332330D02*
X0046669Y0332330D01*
X0046669Y0333116D02*
X0212024Y0333116D01*
X0212024Y0333902D02*
X0046669Y0333902D01*
X0046669Y0334688D02*
X0212024Y0334688D01*
X0212024Y0335474D02*
X0046669Y0335474D01*
X0046669Y0336260D02*
X0212024Y0336260D01*
X0212024Y0337045D02*
X0046669Y0337045D01*
X0046669Y0337831D02*
X0212024Y0337831D01*
X0212024Y0338617D02*
X0046669Y0338617D01*
X0046669Y0339403D02*
X0212024Y0339403D01*
X0212024Y0340189D02*
X0046669Y0340189D01*
X0046669Y0340975D02*
X0212024Y0340975D01*
X0212024Y0341761D02*
X0046669Y0341761D01*
X0046669Y0342547D02*
X0212024Y0342547D01*
X0212024Y0343333D02*
X0046669Y0343333D01*
X0046669Y0344119D02*
X0212024Y0344119D01*
X0212024Y0344905D02*
X0046669Y0344905D01*
X0046669Y0345691D02*
X0212024Y0345691D01*
X0212024Y0346476D02*
X0046669Y0346476D01*
X0046669Y0347262D02*
X0212024Y0347262D01*
X0212024Y0348048D02*
X0046669Y0348048D01*
X0046669Y0348834D02*
X0212024Y0348834D01*
X0212024Y0349620D02*
X0046669Y0349620D01*
X0046669Y0350406D02*
X0212024Y0350406D01*
X0212024Y0351192D02*
X0046669Y0351192D01*
X0046669Y0351978D02*
X0212024Y0351978D01*
X0212024Y0352764D02*
X0046669Y0352764D01*
X0046669Y0353550D02*
X0212024Y0353550D01*
X0212024Y0354336D02*
X0046669Y0354336D01*
X0046669Y0355121D02*
X0212024Y0355121D01*
X0212024Y0355907D02*
X0192178Y0355907D01*
X0192748Y0356477D02*
X0191586Y0355315D01*
X0189942Y0355315D01*
X0188780Y0356477D01*
X0188780Y0358121D01*
X0189942Y0359283D01*
X0191586Y0359283D01*
X0192748Y0358121D01*
X0192748Y0356477D01*
X0192748Y0356693D02*
X0212024Y0356693D01*
X0212024Y0357479D02*
X0192748Y0357479D01*
X0192604Y0358265D02*
X0212024Y0358265D01*
X0212024Y0359051D02*
X0191818Y0359051D01*
X0189709Y0359051D02*
X0046669Y0359051D01*
X0046669Y0358265D02*
X0188924Y0358265D01*
X0188780Y0357479D02*
X0046669Y0357479D01*
X0046669Y0356693D02*
X0188780Y0356693D01*
X0189349Y0355907D02*
X0046669Y0355907D01*
X0046669Y0359837D02*
X0212024Y0359837D01*
X0212024Y0360623D02*
X0046669Y0360623D01*
X0046669Y0361409D02*
X0212024Y0361409D01*
X0212024Y0362195D02*
X0046669Y0362195D01*
X0046669Y0362981D02*
X0212024Y0362981D01*
X0212024Y0363767D02*
X0046669Y0363767D01*
X0046669Y0364552D02*
X0212024Y0364552D01*
X0212024Y0365338D02*
X0046669Y0365338D01*
X0046669Y0366124D02*
X0212024Y0366124D01*
X0212024Y0366910D02*
X0046669Y0366910D01*
X0046669Y0367696D02*
X0212024Y0367696D01*
X0212024Y0368482D02*
X0046669Y0368482D01*
X0046669Y0369268D02*
X0170083Y0369268D01*
X0170651Y0368701D02*
X0169488Y0369863D01*
X0169488Y0371507D01*
X0170651Y0372669D01*
X0172294Y0372669D01*
X0173457Y0371507D01*
X0173457Y0369863D01*
X0172294Y0368701D01*
X0170651Y0368701D01*
X0169488Y0370054D02*
X0046669Y0370054D01*
X0046669Y0370840D02*
X0169488Y0370840D01*
X0169607Y0371626D02*
X0157402Y0371626D01*
X0157124Y0371347D02*
X0157818Y0372042D01*
X0158194Y0372950D01*
X0158194Y0373932D01*
X0157818Y0374840D01*
X0157124Y0375535D01*
X0156216Y0375911D01*
X0155233Y0375911D01*
X0154325Y0375535D01*
X0153630Y0374840D01*
X0153254Y0373932D01*
X0153254Y0372950D01*
X0153630Y0372042D01*
X0154325Y0371347D01*
X0155233Y0370971D01*
X0156216Y0370971D01*
X0157124Y0371347D01*
X0157972Y0372412D02*
X0170393Y0372412D01*
X0172552Y0372412D02*
X0173162Y0372412D01*
X0173315Y0372042D02*
X0172939Y0372950D01*
X0172939Y0373932D01*
X0173315Y0374840D01*
X0174010Y0375535D01*
X0174918Y0375911D01*
X0175901Y0375911D01*
X0176809Y0375535D01*
X0177503Y0374840D01*
X0177880Y0373932D01*
X0177880Y0372950D01*
X0177503Y0372042D01*
X0176809Y0371347D01*
X0175901Y0370971D01*
X0174918Y0370971D01*
X0174010Y0371347D01*
X0173315Y0372042D01*
X0173338Y0371626D02*
X0173732Y0371626D01*
X0173457Y0370840D02*
X0212024Y0370840D01*
X0212024Y0371626D02*
X0177087Y0371626D01*
X0177657Y0372412D02*
X0212024Y0372412D01*
X0212024Y0373197D02*
X0177880Y0373197D01*
X0177858Y0373983D02*
X0212024Y0373983D01*
X0212024Y0374769D02*
X0177533Y0374769D01*
X0176760Y0375555D02*
X0212024Y0375555D01*
X0212024Y0376341D02*
X0161252Y0376341D01*
X0161252Y0375769D02*
X0161252Y0377412D01*
X0160090Y0378575D01*
X0158446Y0378575D01*
X0157283Y0377412D01*
X0157283Y0375769D01*
X0158446Y0374606D01*
X0160090Y0374606D01*
X0161252Y0375769D01*
X0161039Y0375555D02*
X0174059Y0375555D01*
X0173286Y0374769D02*
X0160253Y0374769D01*
X0158283Y0374769D02*
X0157848Y0374769D01*
X0158173Y0373983D02*
X0172961Y0373983D01*
X0172939Y0373197D02*
X0158194Y0373197D01*
X0157497Y0375555D02*
X0157075Y0375555D01*
X0157283Y0376341D02*
X0046669Y0376341D01*
X0046669Y0375555D02*
X0154374Y0375555D01*
X0153601Y0374769D02*
X0046669Y0374769D01*
X0046669Y0373983D02*
X0153276Y0373983D01*
X0153254Y0373197D02*
X0046669Y0373197D01*
X0046669Y0372412D02*
X0153477Y0372412D01*
X0154046Y0371626D02*
X0046669Y0371626D01*
X0046669Y0377127D02*
X0157283Y0377127D01*
X0157784Y0377913D02*
X0046669Y0377913D01*
X0046669Y0378699D02*
X0212024Y0378699D01*
X0212024Y0379485D02*
X0046669Y0379485D01*
X0046669Y0380271D02*
X0212024Y0380271D01*
X0212024Y0381057D02*
X0046669Y0381057D01*
X0046669Y0381843D02*
X0128553Y0381843D01*
X0128624Y0381823D02*
X0128683Y0381858D01*
X0129068Y0381824D01*
X0129121Y0381780D01*
X0129346Y0381800D01*
X0129572Y0381780D01*
X0129625Y0381824D01*
X0130009Y0381858D01*
X0130069Y0381823D01*
X0130288Y0381882D01*
X0130514Y0381902D01*
X0130558Y0381954D01*
X0130931Y0382054D01*
X0130995Y0382031D01*
X0131200Y0382127D01*
X0131419Y0382185D01*
X0131454Y0382245D01*
X0131804Y0382408D01*
X0131871Y0382396D01*
X0132057Y0382526D01*
X0132262Y0382622D01*
X0132286Y0382686D01*
X0132602Y0382908D01*
X0132671Y0382908D01*
X0132831Y0383068D01*
X0133016Y0383198D01*
X0133028Y0383266D01*
X0133301Y0383539D01*
X0133369Y0383550D01*
X0133499Y0383736D01*
X0133659Y0383896D01*
X0133659Y0383965D01*
X0133881Y0384281D01*
X0133945Y0384305D01*
X0134041Y0384510D01*
X0134171Y0384696D01*
X0134159Y0384763D01*
X0134322Y0385113D01*
X0134382Y0385148D01*
X0134440Y0385366D01*
X0134536Y0385572D01*
X0134513Y0385636D01*
X0134613Y0386009D01*
X0134665Y0386053D01*
X0134685Y0386279D01*
X0134744Y0386498D01*
X0134709Y0386558D01*
X0212024Y0386558D01*
X0212024Y0385772D02*
X0134549Y0385772D01*
X0134709Y0386558D02*
X0134743Y0386942D01*
X0134787Y0386995D01*
X0134767Y0387220D01*
X0134787Y0387446D01*
X0134743Y0387499D01*
X0134709Y0387883D01*
X0134744Y0387943D01*
X0134685Y0388162D01*
X0134665Y0388388D01*
X0134613Y0388432D01*
X0134513Y0388805D01*
X0134536Y0388869D01*
X0134440Y0389074D01*
X0134382Y0389293D01*
X0134322Y0389328D01*
X0134159Y0389678D01*
X0134171Y0389745D01*
X0134041Y0389931D01*
X0133945Y0390136D01*
X0133881Y0390160D01*
X0133659Y0390476D01*
X0133659Y0390545D01*
X0133499Y0390705D01*
X0133369Y0390891D01*
X0133301Y0390902D01*
X0133028Y0391175D01*
X0133016Y0391243D01*
X0132831Y0391373D01*
X0132671Y0391533D01*
X0132602Y0391533D01*
X0132286Y0391755D01*
X0132262Y0391819D01*
X0132057Y0391915D01*
X0131871Y0392045D01*
X0131804Y0392033D01*
X0131454Y0392196D01*
X0131419Y0392256D01*
X0131200Y0392314D01*
X0130995Y0392410D01*
X0130931Y0392387D01*
X0130558Y0392487D01*
X0130514Y0392539D01*
X0130288Y0392559D01*
X0130069Y0392618D01*
X0130009Y0392583D01*
X0129625Y0392617D01*
X0129572Y0392661D01*
X0129346Y0392641D01*
X0129121Y0392661D01*
X0129068Y0392617D01*
X0128683Y0392583D01*
X0128624Y0392618D01*
X0128405Y0392559D01*
X0128179Y0392539D01*
X0128135Y0392487D01*
X0127762Y0392387D01*
X0127698Y0392410D01*
X0127492Y0392314D01*
X0127274Y0392256D01*
X0127239Y0392196D01*
X0126889Y0392033D01*
X0126822Y0392045D01*
X0126636Y0391915D01*
X0126431Y0391819D01*
X0126407Y0391755D01*
X0126091Y0391533D01*
X0126022Y0391533D01*
X0125862Y0391373D01*
X0125676Y0391243D01*
X0125664Y0391175D01*
X0125391Y0390902D01*
X0125324Y0390891D01*
X0125194Y0390705D01*
X0125034Y0390545D01*
X0125034Y0390476D01*
X0124812Y0390160D01*
X0124748Y0390136D01*
X0124652Y0389931D01*
X0124522Y0389745D01*
X0124534Y0389678D01*
X0124371Y0389328D01*
X0124311Y0389293D01*
X0124253Y0389074D01*
X0124157Y0388869D01*
X0124180Y0388805D01*
X0124080Y0388432D01*
X0124028Y0388388D01*
X0124008Y0388162D01*
X0123949Y0387943D01*
X0123984Y0387883D01*
X0123950Y0387499D01*
X0123906Y0387446D01*
X0123926Y0387220D01*
X0123906Y0386995D01*
X0123950Y0386942D01*
X0123984Y0386558D01*
X0046669Y0386558D01*
X0046669Y0385772D02*
X0124144Y0385772D01*
X0124180Y0385636D02*
X0124157Y0385572D01*
X0124253Y0385366D01*
X0124311Y0385148D01*
X0124371Y0385113D01*
X0124534Y0384763D01*
X0124522Y0384696D01*
X0124652Y0384510D01*
X0124748Y0384305D01*
X0124812Y0384281D01*
X0125034Y0383965D01*
X0125034Y0383896D01*
X0125194Y0383736D01*
X0125324Y0383550D01*
X0125391Y0383539D01*
X0125664Y0383266D01*
X0125676Y0383198D01*
X0125862Y0383068D01*
X0126022Y0382908D01*
X0126091Y0382908D01*
X0126407Y0382686D01*
X0126431Y0382622D01*
X0126636Y0382526D01*
X0126822Y0382396D01*
X0126889Y0382408D01*
X0127239Y0382245D01*
X0127274Y0382185D01*
X0127492Y0382127D01*
X0127698Y0382031D01*
X0127762Y0382054D01*
X0128135Y0381954D01*
X0128179Y0381902D01*
X0128405Y0381882D01*
X0128624Y0381823D01*
X0128657Y0381843D02*
X0128857Y0381843D01*
X0129836Y0381843D02*
X0130036Y0381843D01*
X0130140Y0381843D02*
X0212024Y0381843D01*
X0212024Y0382628D02*
X0132265Y0382628D01*
X0133177Y0383414D02*
X0212024Y0383414D01*
X0212024Y0384200D02*
X0133824Y0384200D01*
X0134263Y0384986D02*
X0212024Y0384986D01*
X0212024Y0387344D02*
X0134778Y0387344D01*
X0134693Y0388130D02*
X0212024Y0388130D01*
X0212024Y0388916D02*
X0134514Y0388916D01*
X0134163Y0389702D02*
X0212024Y0389702D01*
X0212024Y0390488D02*
X0168250Y0390488D01*
X0168058Y0390295D02*
X0169220Y0391458D01*
X0169220Y0393101D01*
X0168058Y0394264D01*
X0166414Y0394264D01*
X0165252Y0393101D01*
X0165252Y0391458D01*
X0166414Y0390295D01*
X0168058Y0390295D01*
X0169036Y0391273D02*
X0212024Y0391273D01*
X0212024Y0392059D02*
X0169220Y0392059D01*
X0169220Y0392845D02*
X0212024Y0392845D01*
X0212024Y0393631D02*
X0168691Y0393631D01*
X0165782Y0393631D02*
X0046669Y0393631D01*
X0046669Y0392845D02*
X0165252Y0392845D01*
X0165252Y0392059D02*
X0131747Y0392059D01*
X0132973Y0391273D02*
X0165436Y0391273D01*
X0166222Y0390488D02*
X0133659Y0390488D01*
X0126946Y0392059D02*
X0046669Y0392059D01*
X0046669Y0391273D02*
X0125720Y0391273D01*
X0125034Y0390488D02*
X0046669Y0390488D01*
X0046669Y0389702D02*
X0124530Y0389702D01*
X0124179Y0388916D02*
X0046669Y0388916D01*
X0046669Y0388130D02*
X0124000Y0388130D01*
X0123915Y0387344D02*
X0046669Y0387344D01*
X0046669Y0384986D02*
X0124430Y0384986D01*
X0124180Y0385636D02*
X0124080Y0386009D01*
X0124028Y0386053D01*
X0124008Y0386279D01*
X0123949Y0386498D01*
X0123984Y0386558D01*
X0124869Y0384200D02*
X0046669Y0384200D01*
X0046669Y0383414D02*
X0125516Y0383414D01*
X0126428Y0382628D02*
X0046669Y0382628D01*
X0046669Y0394417D02*
X0212024Y0394417D01*
X0212024Y0395203D02*
X0046669Y0395203D01*
X0046669Y0395989D02*
X0212024Y0395989D01*
X0212024Y0396775D02*
X0207626Y0396775D01*
X0209523Y0397561D02*
X0212024Y0397561D01*
X0212024Y0398347D02*
X0210405Y0398347D01*
X0211191Y0399133D02*
X0212024Y0399133D01*
X0212024Y0399919D02*
X0211673Y0399919D01*
X0211998Y0400704D02*
X0212024Y0400704D01*
X0204610Y0396775D02*
X0054083Y0396775D01*
X0055980Y0397561D02*
X0202713Y0397561D01*
X0201831Y0398347D02*
X0056861Y0398347D01*
X0057647Y0399133D02*
X0201046Y0399133D01*
X0200563Y0399919D02*
X0058130Y0399919D01*
X0058455Y0400704D02*
X0200238Y0400704D01*
X0199912Y0401490D02*
X0058781Y0401490D01*
X0058874Y0402276D02*
X0199819Y0402276D01*
X0199819Y0403062D02*
X0058874Y0403062D01*
X0058874Y0403848D02*
X0199819Y0403848D01*
X0199990Y0404634D02*
X0058703Y0404634D01*
X0058378Y0405420D02*
X0200315Y0405420D01*
X0200641Y0406206D02*
X0058052Y0406206D01*
X0057460Y0406992D02*
X0201233Y0406992D01*
X0202019Y0407778D02*
X0056674Y0407778D01*
X0055528Y0408564D02*
X0203165Y0408564D01*
X0212024Y0377913D02*
X0160751Y0377913D01*
X0161252Y0377127D02*
X0212024Y0377127D01*
X0212024Y0370054D02*
X0173457Y0370054D01*
X0172861Y0369268D02*
X0212024Y0369268D01*
X0212024Y0280460D02*
X0082614Y0280460D01*
X0082905Y0279674D02*
X0212024Y0279674D01*
X0212024Y0278888D02*
X0082905Y0278888D01*
X0082483Y0278102D02*
X0212024Y0278102D01*
X0212024Y0269457D02*
X0069901Y0269457D01*
X0069115Y0268671D02*
X0212024Y0268671D01*
X0212024Y0245880D02*
X0167511Y0245880D01*
X0168071Y0245094D02*
X0212024Y0245094D01*
X0212024Y0244308D02*
X0168332Y0244308D01*
X0168332Y0243522D02*
X0212024Y0243522D01*
X0212024Y0242736D02*
X0168072Y0242736D01*
X0167514Y0241950D02*
X0212024Y0241950D01*
X0212024Y0233305D02*
X0171488Y0233305D01*
X0171488Y0232519D02*
X0212024Y0232519D01*
X0212024Y0231733D02*
X0171488Y0231733D01*
X0170761Y0230947D02*
X0212024Y0230947D01*
X0212024Y0153142D02*
X0109677Y0153142D01*
X0109677Y0152356D02*
X0212024Y0152356D01*
X0212024Y0151570D02*
X0109494Y0151570D01*
X0108708Y0150784D02*
X0212024Y0150784D01*
X0212024Y0088697D02*
X0149835Y0088697D01*
X0149835Y0087911D02*
X0212024Y0087911D01*
X0212024Y0087125D02*
X0149774Y0087125D01*
X0148988Y0086339D02*
X0212024Y0086339D01*
X0204800Y0050973D02*
X0053892Y0050973D01*
X0055790Y0050187D02*
X0202903Y0050187D01*
X0201910Y0049401D02*
X0056783Y0049401D01*
X0057569Y0048615D02*
X0201124Y0048615D01*
X0200596Y0047830D02*
X0058097Y0047830D01*
X0058423Y0047044D02*
X0200270Y0047044D01*
X0199945Y0046258D02*
X0058748Y0046258D01*
X0058874Y0045472D02*
X0199819Y0045472D01*
X0199819Y0044686D02*
X0058874Y0044686D01*
X0058874Y0043900D02*
X0199819Y0043900D01*
X0199957Y0043114D02*
X0058736Y0043114D01*
X0058410Y0042328D02*
X0200283Y0042328D01*
X0200608Y0041542D02*
X0058085Y0041542D01*
X0057539Y0040756D02*
X0201154Y0040756D01*
X0201940Y0039970D02*
X0056753Y0039970D01*
X0055718Y0039185D02*
X0202975Y0039185D01*
X0152139Y0249023D02*
X0046669Y0249023D01*
X0046669Y0249809D02*
X0151378Y0249809D01*
X0151378Y0250595D02*
X0046669Y0250595D01*
X0046669Y0251381D02*
X0151378Y0251381D01*
X0089630Y0296178D02*
X0046669Y0296178D01*
X0046669Y0296964D02*
X0089173Y0296964D01*
X0089173Y0297750D02*
X0046669Y0297750D01*
X0046669Y0298536D02*
X0089430Y0298536D01*
X0051067Y0396775D02*
X0046669Y0396775D01*
X0046669Y0397561D02*
X0049170Y0397561D01*
X0048288Y0398347D02*
X0046669Y0398347D01*
X0046669Y0399133D02*
X0047502Y0399133D01*
X0047020Y0399919D02*
X0046669Y0399919D01*
X0046669Y0400704D02*
X0046694Y0400704D01*
D12*
X0155724Y0373441D03*
X0175409Y0373441D03*
D13*
X0186547Y0249031D02*
X0188909Y0249081D01*
D14*
X0165567Y0243913D03*
D15*
X0186547Y0249031D03*
M02*
