G75*
%MOIN*%
%OFA0B0*%
%FSLAX25Y25*%
%IPPOS*%
%LPD*%
%AMOC8*
5,1,8,0,0,1.08239X$1,22.5*
%
%ADD10C,0.09461*%
%ADD11R,0.05800X0.14186*%
%ADD12R,0.10249X0.07296*%
%ADD13R,0.01902X0.03950*%
%ADD14R,0.04300X0.05000*%
%ADD15R,0.05000X0.04300*%
%ADD16C,0.10800*%
%ADD17R,0.06312X0.03950*%
%ADD18C,0.09449*%
%ADD19R,0.12001X0.07300*%
%ADD20R,0.02454X0.04300*%
%ADD21R,0.11800X0.07300*%
%ADD22R,0.06800X0.04600*%
%ADD23R,0.04934X0.06312*%
%ADD24R,0.14186X0.05800*%
%ADD25R,0.16548X0.07099*%
%ADD26R,0.08200X0.05600*%
%ADD27C,0.09300*%
D10*
X0052575Y0044701D03*
X0206118Y0044701D03*
X0206118Y0402969D03*
X0052575Y0402969D03*
D11*
X0081118Y0359622D03*
X0071118Y0348835D03*
X0091118Y0348835D03*
X0101118Y0359622D03*
X0111118Y0348835D03*
X0121118Y0359622D03*
X0131118Y0348835D03*
X0141118Y0359622D03*
X0151118Y0348835D03*
X0161118Y0359622D03*
X0171118Y0348835D03*
X0181118Y0359622D03*
X0191118Y0348835D03*
X0201118Y0359622D03*
X0201118Y0299622D03*
X0191118Y0288835D03*
X0181118Y0299622D03*
X0171118Y0288835D03*
X0161118Y0299622D03*
X0151118Y0288835D03*
X0141118Y0299622D03*
X0131118Y0288835D03*
X0121118Y0299622D03*
X0111118Y0288835D03*
X0101118Y0299622D03*
X0091118Y0288835D03*
X0081118Y0299622D03*
X0071118Y0288835D03*
X0077969Y0147732D03*
X0087969Y0136945D03*
X0097969Y0147732D03*
X0107969Y0136945D03*
X0117969Y0147732D03*
X0127969Y0136945D03*
X0137969Y0147732D03*
X0137969Y0097732D03*
X0127969Y0086945D03*
X0117969Y0097732D03*
X0107969Y0086945D03*
X0097969Y0097732D03*
X0087969Y0086945D03*
X0077969Y0097732D03*
X0067969Y0086945D03*
X0087969Y0070961D03*
X0097969Y0060173D03*
X0107969Y0070961D03*
X0117969Y0060173D03*
X0067969Y0136945D03*
D12*
X0161551Y0386472D03*
D13*
X0161551Y0380665D03*
X0159583Y0380665D03*
X0157614Y0380665D03*
X0163520Y0380665D03*
X0165488Y0380665D03*
X0165488Y0392280D03*
X0163520Y0392280D03*
X0161551Y0392280D03*
X0159583Y0392280D03*
X0157614Y0392280D03*
D14*
X0132786Y0376630D03*
X0125986Y0376630D03*
X0145631Y0323047D03*
X0145631Y0314780D03*
X0152431Y0314780D03*
X0152431Y0323047D03*
X0180277Y0271079D03*
X0187077Y0271079D03*
X0190513Y0218323D03*
X0190513Y0210843D03*
X0197313Y0210843D03*
X0197313Y0218323D03*
D15*
X0199819Y0253899D03*
X0199819Y0260699D03*
X0191157Y0260699D03*
X0191157Y0253899D03*
X0174622Y0240227D03*
X0174622Y0233427D03*
X0169110Y0327128D03*
X0169110Y0333928D03*
X0176197Y0388545D03*
X0176197Y0395345D03*
X0184071Y0395345D03*
X0184071Y0388545D03*
X0130134Y0335109D03*
X0130134Y0328309D03*
X0141157Y0068573D03*
X0141157Y0061773D03*
D16*
X0068717Y0064780D03*
X0177772Y0189189D03*
X0177772Y0202575D03*
X0201000Y0270291D03*
X0077378Y0388008D03*
X0064386Y0374622D03*
D17*
X0119110Y0384366D03*
X0119110Y0390075D03*
X0139583Y0390075D03*
X0139583Y0384366D03*
D18*
X0129346Y0387220D03*
D19*
X0188008Y0236827D03*
D20*
X0189287Y0245311D03*
X0186728Y0245311D03*
X0184169Y0245311D03*
X0181610Y0245311D03*
X0191846Y0245311D03*
X0194406Y0245311D03*
X0194406Y0228343D03*
X0191846Y0228343D03*
X0189287Y0228343D03*
X0186728Y0228343D03*
X0184169Y0228343D03*
X0181610Y0228343D03*
D21*
X0162811Y0221461D03*
X0162811Y0210461D03*
X0162811Y0253768D03*
X0162811Y0264768D03*
D22*
X0181709Y0261793D03*
X0181709Y0253593D03*
D23*
X0203067Y0245094D03*
X0208972Y0245094D03*
X0208972Y0230921D03*
X0203067Y0230921D03*
D24*
X0076512Y0324228D03*
X0065724Y0314228D03*
X0065724Y0334228D03*
D25*
X0102772Y0176984D03*
X0126787Y0176984D03*
X0156709Y0072260D03*
X0180724Y0072260D03*
D26*
X0195488Y0068909D03*
X0195488Y0081909D03*
X0140764Y0163791D03*
X0140764Y0176791D03*
D27*
X0168126Y0174622D03*
X0193126Y0174622D03*
X0193126Y0099622D03*
X0155626Y0099622D03*
M02*
