G75*
%MOIN*%
%OFA0B0*%
%FSLAX25Y25*%
%IPPOS*%
%LPD*%
%AMOC8*
5,1,8,0,0,1.08239X$1,22.5*
%
%ADD10C,0.03937*%
%ADD11C,0.01587*%
%ADD12C,0.02953*%
%ADD13C,0.03543*%
%ADD14C,0.02375*%
%ADD15C,0.00787*%
D10*
X0129346Y0143126D03*
X0088008Y0341551D03*
X0170685Y0341551D03*
D11*
X0158480Y0358874D03*
X0154543Y0378559D03*
X0152969Y0380921D03*
X0150606Y0378953D03*
X0149031Y0380528D03*
X0150606Y0382890D03*
X0149031Y0385252D03*
X0150213Y0387614D03*
X0151787Y0385646D03*
X0154150Y0384858D03*
X0155724Y0386827D03*
X0157693Y0388402D03*
X0157693Y0384858D03*
X0161236Y0386433D03*
X0164780Y0384858D03*
X0166354Y0386827D03*
X0164780Y0388402D03*
X0168323Y0388402D03*
X0168323Y0384858D03*
X0176591Y0387220D03*
X0178559Y0385646D03*
X0181709Y0385252D03*
X0184465Y0385252D03*
X0188008Y0385252D03*
X0188008Y0388402D03*
X0185252Y0378953D03*
X0199031Y0358480D03*
X0204150Y0361236D03*
X0204150Y0363598D03*
X0204543Y0366748D03*
X0206512Y0368717D03*
X0209661Y0367929D03*
X0158087Y0378953D03*
X0153362Y0388402D03*
X0123047Y0377772D03*
X0123047Y0375803D03*
X0121079Y0358874D03*
X0083677Y0388008D03*
X0089189Y0276984D03*
X0074622Y0263992D03*
X0078165Y0244701D03*
X0107693Y0274622D03*
X0153362Y0250606D03*
X0155724Y0264386D03*
X0155724Y0267929D03*
X0156906Y0271079D03*
X0159661Y0269898D03*
X0162417Y0269504D03*
X0163598Y0271866D03*
X0165567Y0269504D03*
X0184465Y0239189D03*
X0184465Y0236827D03*
X0184465Y0234465D03*
X0188008Y0234465D03*
X0188008Y0236827D03*
X0188008Y0239189D03*
X0191945Y0239189D03*
X0191945Y0236827D03*
X0191945Y0234465D03*
X0189189Y0230921D03*
X0186433Y0220685D03*
X0174622Y0236039D03*
X0169504Y0232496D03*
X0173047Y0220685D03*
X0181709Y0194307D03*
X0190370Y0179740D03*
X0187220Y0176591D03*
X0187614Y0171866D03*
X0189976Y0169504D03*
X0195488Y0169110D03*
X0198244Y0171866D03*
X0198638Y0177378D03*
X0196276Y0179740D03*
X0201394Y0212417D03*
X0201394Y0220685D03*
X0204543Y0226984D03*
X0197850Y0263205D03*
X0195882Y0263205D03*
X0193913Y0263205D03*
X0194701Y0272260D03*
X0196276Y0274228D03*
X0195094Y0276591D03*
X0192732Y0274228D03*
X0190370Y0273047D03*
X0190764Y0276984D03*
X0129346Y0186433D03*
X0112417Y0180921D03*
X0109661Y0181709D03*
X0105331Y0181709D03*
X0101394Y0181709D03*
X0096669Y0181709D03*
X0098638Y0172260D03*
X0102969Y0172260D03*
X0107299Y0172260D03*
X0112024Y0172654D03*
X0112024Y0176591D03*
X0100606Y0159661D03*
X0107693Y0152575D03*
X0135646Y0163205D03*
X0137614Y0160055D03*
X0140764Y0160055D03*
X0143913Y0160055D03*
X0145882Y0163598D03*
X0123441Y0093126D03*
X0123441Y0090370D03*
X0123441Y0087614D03*
X0123441Y0084858D03*
X0123441Y0081709D03*
X0123441Y0079346D03*
X0141157Y0076197D03*
X0147850Y0088008D03*
X0150213Y0067142D03*
X0152969Y0067142D03*
X0155724Y0067142D03*
X0158480Y0067142D03*
X0161630Y0067142D03*
X0163992Y0067142D03*
X0193126Y0065173D03*
X0196276Y0065173D03*
X0199425Y0065173D03*
X0201394Y0066354D03*
X0201000Y0069504D03*
X0063992Y0082102D03*
X0063598Y0079740D03*
X0063992Y0085252D03*
X0063992Y0088008D03*
X0063992Y0090764D03*
X0063992Y0093520D03*
D12*
X0197850Y0228165D03*
X0189976Y0373441D03*
X0157693Y0373441D03*
D13*
X0171866Y0249425D03*
X0171222Y0212417D03*
D14*
X0188909Y0249031D03*
D15*
X0050200Y0076781D02*
X0051042Y0075657D01*
X0052035Y0074664D01*
X0053159Y0073822D01*
X0054392Y0073149D01*
X0055707Y0072659D01*
X0057080Y0072360D01*
X0058480Y0072260D01*
X0200213Y0072260D01*
X0201613Y0072360D01*
X0202986Y0072659D01*
X0204301Y0073149D01*
X0205534Y0073822D01*
X0206658Y0074664D01*
X0207651Y0075657D01*
X0208493Y0076781D01*
X0209166Y0078014D01*
X0209656Y0079329D01*
X0209955Y0080702D01*
X0210055Y0082102D01*
X0210055Y0137220D01*
X0209955Y0138621D01*
X0209656Y0139993D01*
X0209166Y0141309D01*
X0208493Y0142542D01*
X0207651Y0143666D01*
X0206658Y0144659D01*
X0205534Y0145501D01*
X0204301Y0146174D01*
X0202986Y0146664D01*
X0201613Y0146963D01*
X0200213Y0147063D01*
X0058480Y0147063D01*
X0057080Y0146963D01*
X0055707Y0146664D01*
X0054392Y0146174D01*
X0053159Y0145501D01*
X0052035Y0144659D01*
X0051042Y0143666D01*
X0050200Y0142542D01*
X0049527Y0141309D01*
X0049036Y0139993D01*
X0048738Y0138621D01*
X0048638Y0137220D01*
X0048638Y0082102D01*
X0048738Y0080702D01*
X0049036Y0079329D01*
X0049527Y0078014D01*
X0050200Y0076781D01*
X0050131Y0076908D02*
X0139370Y0076908D01*
X0139370Y0076937D02*
X0139370Y0075456D01*
X0140417Y0074409D01*
X0141898Y0074409D01*
X0142945Y0075456D01*
X0142945Y0076937D01*
X0141898Y0077984D01*
X0140417Y0077984D01*
X0139370Y0076937D01*
X0139370Y0076122D02*
X0050693Y0076122D01*
X0051362Y0075337D02*
X0139490Y0075337D01*
X0140276Y0074551D02*
X0052186Y0074551D01*
X0053265Y0073765D02*
X0205428Y0073765D01*
X0206507Y0074551D02*
X0142039Y0074551D01*
X0142825Y0075337D02*
X0207331Y0075337D01*
X0208000Y0076122D02*
X0142945Y0076122D01*
X0142945Y0076908D02*
X0208562Y0076908D01*
X0208991Y0077694D02*
X0142188Y0077694D01*
X0140127Y0077694D02*
X0124316Y0077694D01*
X0124181Y0077559D02*
X0125228Y0078606D01*
X0125228Y0080087D01*
X0124788Y0080528D01*
X0125228Y0080968D01*
X0125228Y0082449D01*
X0124394Y0083283D01*
X0125228Y0084118D01*
X0125228Y0085599D01*
X0124591Y0086236D01*
X0125228Y0086874D01*
X0125228Y0088355D01*
X0124591Y0088992D01*
X0125228Y0089630D01*
X0125228Y0091110D01*
X0124591Y0091748D01*
X0125228Y0092386D01*
X0125228Y0093866D01*
X0124181Y0094913D01*
X0122701Y0094913D01*
X0121654Y0093866D01*
X0121654Y0092386D01*
X0122291Y0091748D01*
X0121654Y0091110D01*
X0121654Y0089630D01*
X0122291Y0088992D01*
X0121654Y0088355D01*
X0121654Y0086874D01*
X0122291Y0086236D01*
X0121654Y0085599D01*
X0121654Y0084118D01*
X0122488Y0083283D01*
X0121654Y0082449D01*
X0121654Y0080968D01*
X0122094Y0080528D01*
X0121654Y0080087D01*
X0121654Y0078606D01*
X0122701Y0077559D01*
X0124181Y0077559D01*
X0125102Y0078480D02*
X0209340Y0078480D01*
X0209633Y0079266D02*
X0125228Y0079266D01*
X0125228Y0080052D02*
X0209814Y0080052D01*
X0209965Y0080838D02*
X0125098Y0080838D01*
X0125228Y0081624D02*
X0210021Y0081624D01*
X0210055Y0082410D02*
X0125228Y0082410D01*
X0124482Y0083196D02*
X0210055Y0083196D01*
X0210055Y0083982D02*
X0125092Y0083982D01*
X0125228Y0084767D02*
X0210055Y0084767D01*
X0210055Y0085553D02*
X0125228Y0085553D01*
X0124694Y0086339D02*
X0146991Y0086339D01*
X0147110Y0086220D02*
X0148591Y0086220D01*
X0149638Y0087267D01*
X0149638Y0088748D01*
X0148591Y0089795D01*
X0147110Y0089795D01*
X0146063Y0088748D01*
X0146063Y0087267D01*
X0147110Y0086220D01*
X0146205Y0087125D02*
X0125228Y0087125D01*
X0125228Y0087911D02*
X0146063Y0087911D01*
X0146063Y0088697D02*
X0124886Y0088697D01*
X0125082Y0089483D02*
X0146798Y0089483D01*
X0148903Y0089483D02*
X0210055Y0089483D01*
X0210055Y0090269D02*
X0125228Y0090269D01*
X0125228Y0091055D02*
X0210055Y0091055D01*
X0210055Y0091841D02*
X0124683Y0091841D01*
X0125228Y0092627D02*
X0210055Y0092627D01*
X0210055Y0093412D02*
X0125228Y0093412D01*
X0124896Y0094198D02*
X0210055Y0094198D01*
X0210055Y0094984D02*
X0065055Y0094984D01*
X0064732Y0095307D02*
X0065780Y0094260D01*
X0065780Y0092779D01*
X0065142Y0092142D01*
X0065780Y0091504D01*
X0065780Y0090023D01*
X0065142Y0089386D01*
X0065780Y0088748D01*
X0065780Y0087267D01*
X0065142Y0086630D01*
X0065780Y0085992D01*
X0065780Y0084512D01*
X0064945Y0083677D01*
X0065780Y0082843D01*
X0065780Y0081362D01*
X0065142Y0080724D01*
X0065386Y0080481D01*
X0065386Y0079000D01*
X0064339Y0077953D01*
X0062858Y0077953D01*
X0061811Y0079000D01*
X0061811Y0080481D01*
X0062449Y0081118D01*
X0062205Y0081362D01*
X0062205Y0082843D01*
X0063039Y0083677D01*
X0062205Y0084512D01*
X0062205Y0085992D01*
X0062842Y0086630D01*
X0062205Y0087267D01*
X0062205Y0088748D01*
X0062842Y0089386D01*
X0062205Y0090023D01*
X0062205Y0091504D01*
X0062842Y0092142D01*
X0062205Y0092779D01*
X0062205Y0094260D01*
X0063252Y0095307D01*
X0064732Y0095307D01*
X0065780Y0094198D02*
X0121986Y0094198D01*
X0121654Y0093412D02*
X0065780Y0093412D01*
X0065627Y0092627D02*
X0121654Y0092627D01*
X0122198Y0091841D02*
X0065443Y0091841D01*
X0065780Y0091055D02*
X0121654Y0091055D01*
X0121654Y0090269D02*
X0065780Y0090269D01*
X0065239Y0089483D02*
X0121800Y0089483D01*
X0121996Y0088697D02*
X0065780Y0088697D01*
X0065780Y0087911D02*
X0121654Y0087911D01*
X0121654Y0087125D02*
X0065637Y0087125D01*
X0065433Y0086339D02*
X0122188Y0086339D01*
X0121654Y0085553D02*
X0065780Y0085553D01*
X0065780Y0084767D02*
X0121654Y0084767D01*
X0121790Y0083982D02*
X0065249Y0083982D01*
X0065427Y0083196D02*
X0122400Y0083196D01*
X0121654Y0082410D02*
X0065780Y0082410D01*
X0065780Y0081624D02*
X0121654Y0081624D01*
X0121784Y0080838D02*
X0065255Y0080838D01*
X0065386Y0080052D02*
X0121654Y0080052D01*
X0121654Y0079266D02*
X0065386Y0079266D01*
X0064866Y0078480D02*
X0121779Y0078480D01*
X0122565Y0077694D02*
X0049702Y0077694D01*
X0049353Y0078480D02*
X0062331Y0078480D01*
X0061811Y0079266D02*
X0049060Y0079266D01*
X0048879Y0080052D02*
X0061811Y0080052D01*
X0062168Y0080838D02*
X0048728Y0080838D01*
X0048672Y0081624D02*
X0062205Y0081624D01*
X0062205Y0082410D02*
X0048638Y0082410D01*
X0048638Y0083196D02*
X0062558Y0083196D01*
X0062735Y0083982D02*
X0048638Y0083982D01*
X0048638Y0084767D02*
X0062205Y0084767D01*
X0062205Y0085553D02*
X0048638Y0085553D01*
X0048638Y0086339D02*
X0062552Y0086339D01*
X0062347Y0087125D02*
X0048638Y0087125D01*
X0048638Y0087911D02*
X0062205Y0087911D01*
X0062205Y0088697D02*
X0048638Y0088697D01*
X0048638Y0089483D02*
X0062745Y0089483D01*
X0062205Y0090269D02*
X0048638Y0090269D01*
X0048638Y0091055D02*
X0062205Y0091055D01*
X0062541Y0091841D02*
X0048638Y0091841D01*
X0048638Y0092627D02*
X0062357Y0092627D01*
X0062205Y0093412D02*
X0048638Y0093412D01*
X0048638Y0094198D02*
X0062205Y0094198D01*
X0062929Y0094984D02*
X0048638Y0094984D01*
X0048638Y0095770D02*
X0210055Y0095770D01*
X0210055Y0096556D02*
X0048638Y0096556D01*
X0048638Y0097342D02*
X0210055Y0097342D01*
X0210055Y0098128D02*
X0048638Y0098128D01*
X0048638Y0098914D02*
X0210055Y0098914D01*
X0210055Y0099700D02*
X0048638Y0099700D01*
X0048638Y0100486D02*
X0210055Y0100486D01*
X0210055Y0101272D02*
X0048638Y0101272D01*
X0048638Y0102058D02*
X0210055Y0102058D01*
X0210055Y0102843D02*
X0048638Y0102843D01*
X0048638Y0103629D02*
X0210055Y0103629D01*
X0210055Y0104415D02*
X0048638Y0104415D01*
X0048638Y0105201D02*
X0210055Y0105201D01*
X0210055Y0105987D02*
X0048638Y0105987D01*
X0048638Y0106773D02*
X0210055Y0106773D01*
X0210055Y0107559D02*
X0048638Y0107559D01*
X0048638Y0108345D02*
X0210055Y0108345D01*
X0210055Y0109131D02*
X0048638Y0109131D01*
X0048638Y0109917D02*
X0210055Y0109917D01*
X0210055Y0110703D02*
X0048638Y0110703D01*
X0048638Y0111488D02*
X0210055Y0111488D01*
X0210055Y0112274D02*
X0048638Y0112274D01*
X0048638Y0113060D02*
X0210055Y0113060D01*
X0210055Y0113846D02*
X0048638Y0113846D01*
X0048638Y0114632D02*
X0210055Y0114632D01*
X0210055Y0115418D02*
X0048638Y0115418D01*
X0048638Y0116204D02*
X0210055Y0116204D01*
X0210055Y0116990D02*
X0048638Y0116990D01*
X0048638Y0117776D02*
X0210055Y0117776D01*
X0210055Y0118562D02*
X0048638Y0118562D01*
X0048638Y0119348D02*
X0210055Y0119348D01*
X0210055Y0120134D02*
X0048638Y0120134D01*
X0048638Y0120919D02*
X0210055Y0120919D01*
X0210055Y0121705D02*
X0048638Y0121705D01*
X0048638Y0122491D02*
X0210055Y0122491D01*
X0210055Y0123277D02*
X0048638Y0123277D01*
X0048638Y0124063D02*
X0210055Y0124063D01*
X0210055Y0124849D02*
X0048638Y0124849D01*
X0048638Y0125635D02*
X0210055Y0125635D01*
X0210055Y0126421D02*
X0048638Y0126421D01*
X0048638Y0127207D02*
X0210055Y0127207D01*
X0210055Y0127993D02*
X0048638Y0127993D01*
X0048638Y0128779D02*
X0210055Y0128779D01*
X0210055Y0129564D02*
X0048638Y0129564D01*
X0048638Y0130350D02*
X0210055Y0130350D01*
X0210055Y0131136D02*
X0048638Y0131136D01*
X0048638Y0131922D02*
X0210055Y0131922D01*
X0210055Y0132708D02*
X0048638Y0132708D01*
X0048638Y0133494D02*
X0210055Y0133494D01*
X0210055Y0134280D02*
X0048638Y0134280D01*
X0048638Y0135066D02*
X0210055Y0135066D01*
X0210055Y0135852D02*
X0048638Y0135852D01*
X0048638Y0136638D02*
X0210055Y0136638D01*
X0210041Y0137424D02*
X0048652Y0137424D01*
X0048709Y0138210D02*
X0209984Y0138210D01*
X0209874Y0138995D02*
X0048819Y0138995D01*
X0048990Y0139781D02*
X0209703Y0139781D01*
X0209442Y0140567D02*
X0049251Y0140567D01*
X0049551Y0141353D02*
X0209142Y0141353D01*
X0208713Y0142139D02*
X0049980Y0142139D01*
X0050487Y0142925D02*
X0208206Y0142925D01*
X0207606Y0143711D02*
X0051087Y0143711D01*
X0051873Y0144497D02*
X0206820Y0144497D01*
X0205825Y0145283D02*
X0052868Y0145283D01*
X0054199Y0146069D02*
X0204493Y0146069D01*
X0202111Y0146855D02*
X0056582Y0146855D01*
X0057080Y0158974D02*
X0055707Y0159273D01*
X0054392Y0159763D01*
X0053159Y0160436D01*
X0052035Y0161278D01*
X0051042Y0162271D01*
X0050200Y0163395D01*
X0049527Y0164628D01*
X0049036Y0165944D01*
X0048738Y0167316D01*
X0048638Y0168717D01*
X0048638Y0334071D01*
X0048738Y0335472D01*
X0049036Y0336844D01*
X0049527Y0338160D01*
X0050200Y0339392D01*
X0051042Y0340516D01*
X0052035Y0341509D01*
X0053159Y0342351D01*
X0054392Y0343024D01*
X0055707Y0343515D01*
X0057080Y0343813D01*
X0058480Y0343913D01*
X0113598Y0343913D01*
X0114999Y0343813D01*
X0116371Y0343515D01*
X0117687Y0343024D01*
X0118920Y0342351D01*
X0120044Y0341509D01*
X0121037Y0340516D01*
X0121878Y0339392D01*
X0122552Y0338160D01*
X0123042Y0336844D01*
X0123341Y0335472D01*
X0123441Y0334071D01*
X0123441Y0168717D01*
X0123341Y0167316D01*
X0123042Y0165944D01*
X0122552Y0164628D01*
X0121878Y0163395D01*
X0121037Y0162271D01*
X0120044Y0161278D01*
X0118920Y0160436D01*
X0117687Y0159763D01*
X0116371Y0159273D01*
X0114999Y0158974D01*
X0113598Y0158874D01*
X0102347Y0158874D01*
X0102394Y0158921D01*
X0102394Y0160402D01*
X0101347Y0161449D01*
X0099866Y0161449D01*
X0098819Y0160402D01*
X0098819Y0158921D01*
X0098866Y0158874D01*
X0058480Y0158874D01*
X0057080Y0158974D01*
X0055288Y0159429D02*
X0098819Y0159429D01*
X0098819Y0160215D02*
X0053564Y0160215D01*
X0052405Y0161001D02*
X0099418Y0161001D01*
X0101794Y0161001D02*
X0119674Y0161001D01*
X0120553Y0161787D02*
X0051526Y0161787D01*
X0050816Y0162573D02*
X0121263Y0162573D01*
X0121851Y0163359D02*
X0050228Y0163359D01*
X0049791Y0164145D02*
X0122288Y0164145D01*
X0122664Y0164931D02*
X0049414Y0164931D01*
X0049121Y0165716D02*
X0122958Y0165716D01*
X0123164Y0166502D02*
X0048915Y0166502D01*
X0048744Y0167288D02*
X0123335Y0167288D01*
X0123395Y0168074D02*
X0048684Y0168074D01*
X0048638Y0168860D02*
X0123441Y0168860D01*
X0123441Y0169646D02*
X0048638Y0169646D01*
X0048638Y0170432D02*
X0123441Y0170432D01*
X0123441Y0171218D02*
X0113116Y0171218D01*
X0112764Y0170866D02*
X0113811Y0171913D01*
X0113811Y0173394D01*
X0112764Y0174441D01*
X0111283Y0174441D01*
X0110236Y0173394D01*
X0110236Y0171913D01*
X0111283Y0170866D01*
X0112764Y0170866D01*
X0113811Y0172004D02*
X0123441Y0172004D01*
X0123441Y0172790D02*
X0113811Y0172790D01*
X0113629Y0173576D02*
X0123441Y0173576D01*
X0123441Y0174362D02*
X0112843Y0174362D01*
X0112764Y0174803D02*
X0113811Y0175850D01*
X0113811Y0177331D01*
X0112764Y0178378D01*
X0111283Y0178378D01*
X0110236Y0177331D01*
X0110236Y0175850D01*
X0111283Y0174803D01*
X0112764Y0174803D01*
X0113108Y0175147D02*
X0123441Y0175147D01*
X0123441Y0175933D02*
X0113811Y0175933D01*
X0113811Y0176719D02*
X0123441Y0176719D01*
X0123441Y0177505D02*
X0113637Y0177505D01*
X0112851Y0178291D02*
X0123441Y0178291D01*
X0123441Y0179077D02*
X0048638Y0179077D01*
X0048638Y0179863D02*
X0110948Y0179863D01*
X0110646Y0180165D02*
X0111677Y0179134D01*
X0113158Y0179134D01*
X0114205Y0180181D01*
X0114205Y0181662D01*
X0113158Y0182709D01*
X0111677Y0182709D01*
X0111433Y0182465D01*
X0110402Y0183496D01*
X0108921Y0183496D01*
X0107874Y0182449D01*
X0107874Y0180968D01*
X0108921Y0179921D01*
X0110402Y0179921D01*
X0110646Y0180165D01*
X0111196Y0178291D02*
X0048638Y0178291D01*
X0048638Y0177505D02*
X0110410Y0177505D01*
X0110236Y0176719D02*
X0048638Y0176719D01*
X0048638Y0175933D02*
X0110236Y0175933D01*
X0110939Y0175147D02*
X0048638Y0175147D01*
X0048638Y0174362D02*
X0111204Y0174362D01*
X0110418Y0173576D02*
X0108511Y0173576D01*
X0108040Y0174047D02*
X0106559Y0174047D01*
X0105512Y0173000D01*
X0105512Y0171519D01*
X0106559Y0170472D01*
X0108040Y0170472D01*
X0109087Y0171519D01*
X0109087Y0173000D01*
X0108040Y0174047D01*
X0109087Y0172790D02*
X0110236Y0172790D01*
X0110236Y0172004D02*
X0109087Y0172004D01*
X0108785Y0171218D02*
X0110932Y0171218D01*
X0105813Y0171218D02*
X0104454Y0171218D01*
X0104756Y0171519D02*
X0103709Y0170472D01*
X0102228Y0170472D01*
X0101181Y0171519D01*
X0101181Y0173000D01*
X0102228Y0174047D01*
X0103709Y0174047D01*
X0104756Y0173000D01*
X0104756Y0171519D01*
X0104756Y0172004D02*
X0105512Y0172004D01*
X0105512Y0172790D02*
X0104756Y0172790D01*
X0104180Y0173576D02*
X0106087Y0173576D01*
X0101757Y0173576D02*
X0099850Y0173576D01*
X0099378Y0174047D02*
X0097897Y0174047D01*
X0096850Y0173000D01*
X0096850Y0171519D01*
X0097897Y0170472D01*
X0099378Y0170472D01*
X0100425Y0171519D01*
X0100425Y0173000D01*
X0099378Y0174047D01*
X0100425Y0172790D02*
X0101181Y0172790D01*
X0101181Y0172004D02*
X0100425Y0172004D01*
X0100124Y0171218D02*
X0101483Y0171218D01*
X0097152Y0171218D02*
X0048638Y0171218D01*
X0048638Y0172004D02*
X0096850Y0172004D01*
X0096850Y0172790D02*
X0048638Y0172790D01*
X0048638Y0173576D02*
X0097426Y0173576D01*
X0097410Y0179921D02*
X0095929Y0179921D01*
X0094882Y0180968D01*
X0094882Y0182449D01*
X0095929Y0183496D01*
X0097410Y0183496D01*
X0098457Y0182449D01*
X0098457Y0180968D01*
X0097410Y0179921D01*
X0098137Y0180649D02*
X0099926Y0180649D01*
X0099606Y0180968D02*
X0100653Y0179921D01*
X0102134Y0179921D01*
X0103181Y0180968D01*
X0103181Y0182449D01*
X0102134Y0183496D01*
X0100653Y0183496D01*
X0099606Y0182449D01*
X0099606Y0180968D01*
X0099606Y0181435D02*
X0098457Y0181435D01*
X0098457Y0182221D02*
X0099606Y0182221D01*
X0100164Y0183007D02*
X0097899Y0183007D01*
X0095439Y0183007D02*
X0048638Y0183007D01*
X0048638Y0183792D02*
X0123441Y0183792D01*
X0123441Y0183007D02*
X0110891Y0183007D01*
X0108432Y0183007D02*
X0106561Y0183007D01*
X0106071Y0183496D02*
X0104590Y0183496D01*
X0103543Y0182449D01*
X0103543Y0180968D01*
X0104590Y0179921D01*
X0106071Y0179921D01*
X0107118Y0180968D01*
X0107118Y0182449D01*
X0106071Y0183496D01*
X0107118Y0182221D02*
X0107874Y0182221D01*
X0107874Y0181435D02*
X0107118Y0181435D01*
X0106799Y0180649D02*
X0108193Y0180649D01*
X0104101Y0183007D02*
X0102624Y0183007D01*
X0103181Y0182221D02*
X0103543Y0182221D01*
X0103543Y0181435D02*
X0103181Y0181435D01*
X0102862Y0180649D02*
X0103863Y0180649D01*
X0095201Y0180649D02*
X0048638Y0180649D01*
X0048638Y0181435D02*
X0094882Y0181435D01*
X0094882Y0182221D02*
X0048638Y0182221D01*
X0048638Y0184578D02*
X0123441Y0184578D01*
X0123441Y0185364D02*
X0048638Y0185364D01*
X0048638Y0186150D02*
X0123441Y0186150D01*
X0123441Y0186936D02*
X0048638Y0186936D01*
X0048638Y0187722D02*
X0123441Y0187722D01*
X0123441Y0188508D02*
X0048638Y0188508D01*
X0048638Y0189294D02*
X0123441Y0189294D01*
X0123441Y0190080D02*
X0048638Y0190080D01*
X0048638Y0190866D02*
X0123441Y0190866D01*
X0123441Y0191652D02*
X0048638Y0191652D01*
X0048638Y0192438D02*
X0123441Y0192438D01*
X0123441Y0193223D02*
X0048638Y0193223D01*
X0048638Y0194009D02*
X0123441Y0194009D01*
X0123441Y0194795D02*
X0048638Y0194795D01*
X0048638Y0195581D02*
X0123441Y0195581D01*
X0123441Y0196367D02*
X0048638Y0196367D01*
X0048638Y0197153D02*
X0123441Y0197153D01*
X0123441Y0197939D02*
X0048638Y0197939D01*
X0048638Y0198725D02*
X0123441Y0198725D01*
X0123441Y0199511D02*
X0048638Y0199511D01*
X0048638Y0200297D02*
X0123441Y0200297D01*
X0123441Y0201083D02*
X0048638Y0201083D01*
X0048638Y0201868D02*
X0123441Y0201868D01*
X0123441Y0202654D02*
X0048638Y0202654D01*
X0048638Y0203440D02*
X0123441Y0203440D01*
X0123441Y0204226D02*
X0048638Y0204226D01*
X0048638Y0205012D02*
X0123441Y0205012D01*
X0123441Y0205798D02*
X0048638Y0205798D01*
X0048638Y0206584D02*
X0123441Y0206584D01*
X0123441Y0207370D02*
X0048638Y0207370D01*
X0048638Y0208156D02*
X0123441Y0208156D01*
X0123441Y0208942D02*
X0048638Y0208942D01*
X0048638Y0209728D02*
X0123441Y0209728D01*
X0123441Y0210514D02*
X0048638Y0210514D01*
X0048638Y0211299D02*
X0123441Y0211299D01*
X0123441Y0212085D02*
X0048638Y0212085D01*
X0048638Y0212871D02*
X0123441Y0212871D01*
X0123441Y0213657D02*
X0048638Y0213657D01*
X0048638Y0214443D02*
X0123441Y0214443D01*
X0123441Y0215229D02*
X0048638Y0215229D01*
X0048638Y0216015D02*
X0123441Y0216015D01*
X0123441Y0216801D02*
X0048638Y0216801D01*
X0048638Y0217587D02*
X0123441Y0217587D01*
X0123441Y0218373D02*
X0048638Y0218373D01*
X0048638Y0219159D02*
X0123441Y0219159D01*
X0123441Y0219944D02*
X0048638Y0219944D01*
X0048638Y0220730D02*
X0123441Y0220730D01*
X0123441Y0221516D02*
X0048638Y0221516D01*
X0048638Y0222302D02*
X0123441Y0222302D01*
X0123441Y0223088D02*
X0048638Y0223088D01*
X0048638Y0223874D02*
X0123441Y0223874D01*
X0123441Y0224660D02*
X0048638Y0224660D01*
X0048638Y0225446D02*
X0123441Y0225446D01*
X0123441Y0226232D02*
X0048638Y0226232D01*
X0048638Y0227018D02*
X0123441Y0227018D01*
X0123441Y0227804D02*
X0048638Y0227804D01*
X0048638Y0228590D02*
X0123441Y0228590D01*
X0123441Y0229375D02*
X0048638Y0229375D01*
X0048638Y0230161D02*
X0123441Y0230161D01*
X0123441Y0230947D02*
X0048638Y0230947D01*
X0048638Y0231733D02*
X0123441Y0231733D01*
X0123441Y0232519D02*
X0048638Y0232519D01*
X0048638Y0233305D02*
X0123441Y0233305D01*
X0123441Y0234091D02*
X0048638Y0234091D01*
X0048638Y0234877D02*
X0123441Y0234877D01*
X0123441Y0235663D02*
X0048638Y0235663D01*
X0048638Y0236449D02*
X0123441Y0236449D01*
X0123441Y0237235D02*
X0048638Y0237235D01*
X0048638Y0238020D02*
X0123441Y0238020D01*
X0123441Y0238806D02*
X0048638Y0238806D01*
X0048638Y0239592D02*
X0123441Y0239592D01*
X0123441Y0240378D02*
X0048638Y0240378D01*
X0048638Y0241164D02*
X0123441Y0241164D01*
X0123441Y0241950D02*
X0048638Y0241950D01*
X0048638Y0242736D02*
X0123441Y0242736D01*
X0123441Y0243522D02*
X0079514Y0243522D01*
X0079953Y0243960D02*
X0078906Y0242913D01*
X0077425Y0242913D01*
X0076378Y0243960D01*
X0076378Y0245441D01*
X0077425Y0246488D01*
X0078906Y0246488D01*
X0079953Y0245441D01*
X0079953Y0243960D01*
X0079953Y0244308D02*
X0123441Y0244308D01*
X0123441Y0245094D02*
X0079953Y0245094D01*
X0079514Y0245880D02*
X0123441Y0245880D01*
X0123441Y0246666D02*
X0048638Y0246666D01*
X0048638Y0247451D02*
X0123441Y0247451D01*
X0123441Y0248237D02*
X0048638Y0248237D01*
X0048638Y0249023D02*
X0123441Y0249023D01*
X0123441Y0249809D02*
X0048638Y0249809D01*
X0048638Y0250595D02*
X0123441Y0250595D01*
X0123441Y0251381D02*
X0048638Y0251381D01*
X0048638Y0252167D02*
X0123441Y0252167D01*
X0123441Y0252953D02*
X0048638Y0252953D01*
X0048638Y0253739D02*
X0123441Y0253739D01*
X0123441Y0254525D02*
X0048638Y0254525D01*
X0048638Y0255311D02*
X0123441Y0255311D01*
X0123441Y0256096D02*
X0048638Y0256096D01*
X0048638Y0256882D02*
X0123441Y0256882D01*
X0123441Y0257668D02*
X0048638Y0257668D01*
X0048638Y0258454D02*
X0123441Y0258454D01*
X0123441Y0259240D02*
X0048638Y0259240D01*
X0048638Y0260026D02*
X0123441Y0260026D01*
X0123441Y0260812D02*
X0048638Y0260812D01*
X0048638Y0261598D02*
X0123441Y0261598D01*
X0123441Y0262384D02*
X0075541Y0262384D01*
X0075362Y0262205D02*
X0076409Y0263252D01*
X0076409Y0264732D01*
X0075362Y0265780D01*
X0073882Y0265780D01*
X0072835Y0264732D01*
X0072835Y0263252D01*
X0073882Y0262205D01*
X0075362Y0262205D01*
X0076327Y0263170D02*
X0123441Y0263170D01*
X0123441Y0263956D02*
X0076409Y0263956D01*
X0076400Y0264742D02*
X0123441Y0264742D01*
X0123441Y0265527D02*
X0075615Y0265527D01*
X0073630Y0265527D02*
X0048638Y0265527D01*
X0048638Y0264742D02*
X0072844Y0264742D01*
X0072835Y0263956D02*
X0048638Y0263956D01*
X0048638Y0263170D02*
X0072917Y0263170D01*
X0073703Y0262384D02*
X0048638Y0262384D01*
X0048638Y0266313D02*
X0123441Y0266313D01*
X0123441Y0267099D02*
X0048638Y0267099D01*
X0048638Y0267885D02*
X0123441Y0267885D01*
X0123441Y0268671D02*
X0048638Y0268671D01*
X0048638Y0269457D02*
X0123441Y0269457D01*
X0123441Y0270243D02*
X0048638Y0270243D01*
X0048638Y0271029D02*
X0123441Y0271029D01*
X0123441Y0271815D02*
X0048638Y0271815D01*
X0048638Y0272601D02*
X0123441Y0272601D01*
X0123441Y0273387D02*
X0108985Y0273387D01*
X0109480Y0273882D02*
X0108433Y0272835D01*
X0106953Y0272835D01*
X0105906Y0273882D01*
X0105906Y0275362D01*
X0106953Y0276409D01*
X0108433Y0276409D01*
X0109480Y0275362D01*
X0109480Y0273882D01*
X0109480Y0274172D02*
X0123441Y0274172D01*
X0123441Y0274958D02*
X0109480Y0274958D01*
X0109098Y0275744D02*
X0123441Y0275744D01*
X0123441Y0276530D02*
X0090976Y0276530D01*
X0090976Y0276244D02*
X0090976Y0277725D01*
X0089929Y0278772D01*
X0088449Y0278772D01*
X0087402Y0277725D01*
X0087402Y0276244D01*
X0088449Y0275197D01*
X0089929Y0275197D01*
X0090976Y0276244D01*
X0090477Y0275744D02*
X0106287Y0275744D01*
X0105906Y0274958D02*
X0048638Y0274958D01*
X0048638Y0274172D02*
X0105906Y0274172D01*
X0106401Y0273387D02*
X0048638Y0273387D01*
X0048638Y0275744D02*
X0087901Y0275744D01*
X0087402Y0276530D02*
X0048638Y0276530D01*
X0048638Y0277316D02*
X0087402Y0277316D01*
X0087779Y0278102D02*
X0048638Y0278102D01*
X0048638Y0278888D02*
X0123441Y0278888D01*
X0123441Y0279674D02*
X0048638Y0279674D01*
X0048638Y0280460D02*
X0123441Y0280460D01*
X0123441Y0281246D02*
X0048638Y0281246D01*
X0048638Y0282032D02*
X0123441Y0282032D01*
X0123441Y0282818D02*
X0048638Y0282818D01*
X0048638Y0283603D02*
X0123441Y0283603D01*
X0123441Y0284389D02*
X0048638Y0284389D01*
X0048638Y0285175D02*
X0123441Y0285175D01*
X0123441Y0285961D02*
X0048638Y0285961D01*
X0048638Y0286747D02*
X0123441Y0286747D01*
X0123441Y0287533D02*
X0048638Y0287533D01*
X0048638Y0288319D02*
X0123441Y0288319D01*
X0123441Y0289105D02*
X0048638Y0289105D01*
X0048638Y0289891D02*
X0123441Y0289891D01*
X0123441Y0290677D02*
X0048638Y0290677D01*
X0048638Y0291463D02*
X0123441Y0291463D01*
X0123441Y0292248D02*
X0048638Y0292248D01*
X0048638Y0293034D02*
X0123441Y0293034D01*
X0123441Y0293820D02*
X0048638Y0293820D01*
X0048638Y0294606D02*
X0123441Y0294606D01*
X0123441Y0295392D02*
X0048638Y0295392D01*
X0048638Y0296178D02*
X0123441Y0296178D01*
X0123441Y0296964D02*
X0048638Y0296964D01*
X0048638Y0297750D02*
X0123441Y0297750D01*
X0123441Y0298536D02*
X0048638Y0298536D01*
X0048638Y0299322D02*
X0123441Y0299322D01*
X0123441Y0300108D02*
X0048638Y0300108D01*
X0048638Y0300894D02*
X0123441Y0300894D01*
X0123441Y0301679D02*
X0048638Y0301679D01*
X0048638Y0302465D02*
X0123441Y0302465D01*
X0123441Y0303251D02*
X0048638Y0303251D01*
X0048638Y0304037D02*
X0123441Y0304037D01*
X0123441Y0304823D02*
X0048638Y0304823D01*
X0048638Y0305609D02*
X0123441Y0305609D01*
X0123441Y0306395D02*
X0048638Y0306395D01*
X0048638Y0307181D02*
X0123441Y0307181D01*
X0123441Y0307967D02*
X0048638Y0307967D01*
X0048638Y0308753D02*
X0123441Y0308753D01*
X0123441Y0309539D02*
X0048638Y0309539D01*
X0048638Y0310324D02*
X0123441Y0310324D01*
X0123441Y0311110D02*
X0048638Y0311110D01*
X0048638Y0311896D02*
X0123441Y0311896D01*
X0123441Y0312682D02*
X0048638Y0312682D01*
X0048638Y0313468D02*
X0123441Y0313468D01*
X0123441Y0314254D02*
X0048638Y0314254D01*
X0048638Y0315040D02*
X0123441Y0315040D01*
X0123441Y0315826D02*
X0048638Y0315826D01*
X0048638Y0316612D02*
X0123441Y0316612D01*
X0123441Y0317398D02*
X0048638Y0317398D01*
X0048638Y0318184D02*
X0123441Y0318184D01*
X0123441Y0318970D02*
X0048638Y0318970D01*
X0048638Y0319755D02*
X0123441Y0319755D01*
X0123441Y0320541D02*
X0048638Y0320541D01*
X0048638Y0321327D02*
X0123441Y0321327D01*
X0123441Y0322113D02*
X0048638Y0322113D01*
X0048638Y0322899D02*
X0123441Y0322899D01*
X0123441Y0323685D02*
X0048638Y0323685D01*
X0048638Y0324471D02*
X0123441Y0324471D01*
X0123441Y0325257D02*
X0048638Y0325257D01*
X0048638Y0326043D02*
X0123441Y0326043D01*
X0123441Y0326829D02*
X0048638Y0326829D01*
X0048638Y0327615D02*
X0123441Y0327615D01*
X0123441Y0328400D02*
X0048638Y0328400D01*
X0048638Y0329186D02*
X0123441Y0329186D01*
X0123441Y0329972D02*
X0048638Y0329972D01*
X0048638Y0330758D02*
X0123441Y0330758D01*
X0123441Y0331544D02*
X0048638Y0331544D01*
X0048638Y0332330D02*
X0123441Y0332330D01*
X0123441Y0333116D02*
X0048638Y0333116D01*
X0048638Y0333902D02*
X0123441Y0333902D01*
X0123397Y0334688D02*
X0048682Y0334688D01*
X0048738Y0335474D02*
X0123340Y0335474D01*
X0123169Y0336260D02*
X0048909Y0336260D01*
X0049112Y0337045D02*
X0122967Y0337045D01*
X0122674Y0337831D02*
X0049405Y0337831D01*
X0049777Y0338617D02*
X0122302Y0338617D01*
X0121870Y0339403D02*
X0050209Y0339403D01*
X0050797Y0340189D02*
X0121282Y0340189D01*
X0120578Y0340975D02*
X0051501Y0340975D01*
X0052371Y0341761D02*
X0119708Y0341761D01*
X0118561Y0342547D02*
X0053518Y0342547D01*
X0055220Y0343333D02*
X0116859Y0343333D01*
X0103756Y0341551D02*
X0121079Y0358874D01*
X0135726Y0337045D02*
X0209581Y0337045D01*
X0209656Y0336844D02*
X0209166Y0338160D01*
X0208493Y0339392D01*
X0207651Y0340516D01*
X0206658Y0341509D01*
X0205534Y0342351D01*
X0204301Y0343024D01*
X0202986Y0343515D01*
X0201613Y0343813D01*
X0200213Y0343913D01*
X0145094Y0343913D01*
X0143694Y0343813D01*
X0142322Y0343515D01*
X0141006Y0343024D01*
X0139773Y0342351D01*
X0138649Y0341509D01*
X0137656Y0340516D01*
X0136814Y0339392D01*
X0136141Y0338160D01*
X0135651Y0336844D01*
X0135352Y0335472D01*
X0135252Y0334071D01*
X0135252Y0168717D01*
X0135352Y0167316D01*
X0135651Y0165944D01*
X0136006Y0164992D01*
X0136386Y0164992D01*
X0137433Y0163945D01*
X0137433Y0162569D01*
X0137656Y0162271D01*
X0138085Y0161843D01*
X0138355Y0161843D01*
X0139189Y0161008D01*
X0140023Y0161843D01*
X0141504Y0161843D01*
X0142339Y0161008D01*
X0143173Y0161843D01*
X0144654Y0161843D01*
X0145701Y0160795D01*
X0145701Y0159315D01*
X0145260Y0158874D01*
X0200213Y0158874D01*
X0201613Y0158974D01*
X0202986Y0159273D01*
X0204301Y0159763D01*
X0205534Y0160436D01*
X0206658Y0161278D01*
X0207651Y0162271D01*
X0208493Y0163395D01*
X0209166Y0164628D01*
X0209656Y0165944D01*
X0209955Y0167316D01*
X0210055Y0168717D01*
X0210055Y0334071D01*
X0209955Y0335472D01*
X0209656Y0336844D01*
X0209784Y0336260D02*
X0135524Y0336260D01*
X0135353Y0335474D02*
X0209954Y0335474D01*
X0210011Y0334688D02*
X0135296Y0334688D01*
X0135252Y0333902D02*
X0210055Y0333902D01*
X0210055Y0333116D02*
X0135252Y0333116D01*
X0135252Y0332330D02*
X0210055Y0332330D01*
X0210055Y0331544D02*
X0135252Y0331544D01*
X0135252Y0330758D02*
X0210055Y0330758D01*
X0210055Y0329972D02*
X0135252Y0329972D01*
X0135252Y0329186D02*
X0210055Y0329186D01*
X0210055Y0328400D02*
X0135252Y0328400D01*
X0135252Y0327615D02*
X0210055Y0327615D01*
X0210055Y0326829D02*
X0135252Y0326829D01*
X0135252Y0326043D02*
X0210055Y0326043D01*
X0210055Y0325257D02*
X0135252Y0325257D01*
X0135252Y0324471D02*
X0210055Y0324471D01*
X0210055Y0323685D02*
X0135252Y0323685D01*
X0135252Y0322899D02*
X0210055Y0322899D01*
X0210055Y0322113D02*
X0135252Y0322113D01*
X0135252Y0321327D02*
X0210055Y0321327D01*
X0210055Y0320541D02*
X0135252Y0320541D01*
X0135252Y0319755D02*
X0210055Y0319755D01*
X0210055Y0318970D02*
X0135252Y0318970D01*
X0135252Y0318184D02*
X0210055Y0318184D01*
X0210055Y0317398D02*
X0135252Y0317398D01*
X0135252Y0316612D02*
X0210055Y0316612D01*
X0210055Y0315826D02*
X0135252Y0315826D01*
X0135252Y0315040D02*
X0210055Y0315040D01*
X0210055Y0314254D02*
X0135252Y0314254D01*
X0135252Y0313468D02*
X0210055Y0313468D01*
X0210055Y0312682D02*
X0135252Y0312682D01*
X0135252Y0311896D02*
X0210055Y0311896D01*
X0210055Y0311110D02*
X0135252Y0311110D01*
X0135252Y0310324D02*
X0210055Y0310324D01*
X0210055Y0309539D02*
X0135252Y0309539D01*
X0135252Y0308753D02*
X0210055Y0308753D01*
X0210055Y0307967D02*
X0135252Y0307967D01*
X0135252Y0307181D02*
X0210055Y0307181D01*
X0210055Y0306395D02*
X0135252Y0306395D01*
X0135252Y0305609D02*
X0210055Y0305609D01*
X0210055Y0304823D02*
X0135252Y0304823D01*
X0135252Y0304037D02*
X0210055Y0304037D01*
X0210055Y0303251D02*
X0135252Y0303251D01*
X0135252Y0302465D02*
X0210055Y0302465D01*
X0210055Y0301679D02*
X0135252Y0301679D01*
X0135252Y0300894D02*
X0210055Y0300894D01*
X0210055Y0300108D02*
X0135252Y0300108D01*
X0135252Y0299322D02*
X0210055Y0299322D01*
X0210055Y0298536D02*
X0135252Y0298536D01*
X0135252Y0297750D02*
X0210055Y0297750D01*
X0210055Y0296964D02*
X0135252Y0296964D01*
X0135252Y0296178D02*
X0210055Y0296178D01*
X0210055Y0295392D02*
X0135252Y0295392D01*
X0135252Y0294606D02*
X0210055Y0294606D01*
X0210055Y0293820D02*
X0135252Y0293820D01*
X0135252Y0293034D02*
X0210055Y0293034D01*
X0210055Y0292248D02*
X0135252Y0292248D01*
X0135252Y0291463D02*
X0210055Y0291463D01*
X0210055Y0290677D02*
X0135252Y0290677D01*
X0135252Y0289891D02*
X0210055Y0289891D01*
X0210055Y0289105D02*
X0135252Y0289105D01*
X0135252Y0288319D02*
X0210055Y0288319D01*
X0210055Y0287533D02*
X0135252Y0287533D01*
X0135252Y0286747D02*
X0210055Y0286747D01*
X0210055Y0285961D02*
X0135252Y0285961D01*
X0135252Y0285175D02*
X0210055Y0285175D01*
X0210055Y0284389D02*
X0135252Y0284389D01*
X0135252Y0283603D02*
X0210055Y0283603D01*
X0210055Y0282818D02*
X0135252Y0282818D01*
X0135252Y0282032D02*
X0210055Y0282032D01*
X0210055Y0281246D02*
X0135252Y0281246D01*
X0135252Y0280460D02*
X0210055Y0280460D01*
X0210055Y0279674D02*
X0135252Y0279674D01*
X0135252Y0278888D02*
X0210055Y0278888D01*
X0210055Y0278102D02*
X0196111Y0278102D01*
X0195835Y0278378D02*
X0194354Y0278378D01*
X0193307Y0277331D01*
X0193307Y0276016D01*
X0192323Y0276016D01*
X0192551Y0276244D01*
X0192551Y0277725D01*
X0191504Y0278772D01*
X0190023Y0278772D01*
X0188976Y0277725D01*
X0188976Y0276244D01*
X0190023Y0275197D01*
X0191173Y0275197D01*
X0190945Y0274969D01*
X0190945Y0274835D01*
X0189630Y0274835D01*
X0188583Y0273788D01*
X0188583Y0272307D01*
X0189630Y0271260D01*
X0191110Y0271260D01*
X0192157Y0272307D01*
X0192157Y0272441D01*
X0192913Y0272441D01*
X0192913Y0271519D01*
X0193960Y0270472D01*
X0195441Y0270472D01*
X0196488Y0271519D01*
X0196488Y0272441D01*
X0197016Y0272441D01*
X0198063Y0273488D01*
X0198063Y0274969D01*
X0197016Y0276016D01*
X0196882Y0276016D01*
X0196882Y0277331D01*
X0195835Y0278378D01*
X0196882Y0277316D02*
X0210055Y0277316D01*
X0210055Y0276530D02*
X0196882Y0276530D01*
X0197287Y0275744D02*
X0210055Y0275744D01*
X0210055Y0274958D02*
X0198063Y0274958D01*
X0198063Y0274172D02*
X0210055Y0274172D01*
X0210055Y0273387D02*
X0197962Y0273387D01*
X0197176Y0272601D02*
X0210055Y0272601D01*
X0210055Y0271815D02*
X0196488Y0271815D01*
X0195998Y0271029D02*
X0210055Y0271029D01*
X0210055Y0270243D02*
X0167354Y0270243D01*
X0167354Y0270244D02*
X0166307Y0271291D01*
X0165386Y0271291D01*
X0165386Y0272607D01*
X0164339Y0273654D01*
X0162858Y0273654D01*
X0161811Y0272607D01*
X0161811Y0271291D01*
X0161677Y0271291D01*
X0161236Y0270851D01*
X0160402Y0271685D01*
X0158921Y0271685D01*
X0158693Y0271457D01*
X0158693Y0271819D01*
X0157646Y0272866D01*
X0156165Y0272866D01*
X0155118Y0271819D01*
X0155118Y0270338D01*
X0155740Y0269717D01*
X0154984Y0269717D01*
X0153937Y0268670D01*
X0153937Y0267189D01*
X0154968Y0266157D01*
X0153937Y0265126D01*
X0153937Y0263645D01*
X0154984Y0262598D01*
X0156465Y0262598D01*
X0157512Y0263645D01*
X0157512Y0265126D01*
X0156481Y0266157D01*
X0157512Y0267189D01*
X0157512Y0268670D01*
X0156890Y0269291D01*
X0157646Y0269291D01*
X0157874Y0269519D01*
X0157874Y0269157D01*
X0158921Y0268110D01*
X0160402Y0268110D01*
X0160843Y0268551D01*
X0161677Y0267717D01*
X0163158Y0267717D01*
X0163992Y0268551D01*
X0164827Y0267717D01*
X0166307Y0267717D01*
X0167354Y0268764D01*
X0167354Y0270244D01*
X0167354Y0269457D02*
X0210055Y0269457D01*
X0210055Y0268671D02*
X0167262Y0268671D01*
X0166476Y0267885D02*
X0210055Y0267885D01*
X0210055Y0267099D02*
X0157422Y0267099D01*
X0157512Y0267885D02*
X0161508Y0267885D01*
X0163326Y0267885D02*
X0164658Y0267885D01*
X0166570Y0271029D02*
X0193404Y0271029D01*
X0192913Y0271815D02*
X0191665Y0271815D01*
X0189075Y0271815D02*
X0165386Y0271815D01*
X0165386Y0272601D02*
X0188583Y0272601D01*
X0188583Y0273387D02*
X0164606Y0273387D01*
X0162591Y0273387D02*
X0135252Y0273387D01*
X0135252Y0274172D02*
X0188968Y0274172D01*
X0189476Y0275744D02*
X0135252Y0275744D01*
X0135252Y0274958D02*
X0190945Y0274958D01*
X0192551Y0276530D02*
X0193307Y0276530D01*
X0193307Y0277316D02*
X0192551Y0277316D01*
X0192174Y0278102D02*
X0194078Y0278102D01*
X0189354Y0278102D02*
X0135252Y0278102D01*
X0135252Y0277316D02*
X0188976Y0277316D01*
X0188976Y0276530D02*
X0135252Y0276530D01*
X0135252Y0272601D02*
X0155900Y0272601D01*
X0155118Y0271815D02*
X0135252Y0271815D01*
X0135252Y0271029D02*
X0155118Y0271029D01*
X0155214Y0270243D02*
X0135252Y0270243D01*
X0135252Y0269457D02*
X0154724Y0269457D01*
X0153939Y0268671D02*
X0135252Y0268671D01*
X0135252Y0267885D02*
X0153937Y0267885D01*
X0154027Y0267099D02*
X0135252Y0267099D01*
X0135252Y0266313D02*
X0154812Y0266313D01*
X0154338Y0265527D02*
X0135252Y0265527D01*
X0135252Y0264742D02*
X0153937Y0264742D01*
X0153937Y0263956D02*
X0135252Y0263956D01*
X0135252Y0263170D02*
X0154413Y0263170D01*
X0157036Y0263170D02*
X0192126Y0263170D01*
X0192126Y0262464D02*
X0193173Y0261417D01*
X0194654Y0261417D01*
X0194898Y0261661D01*
X0195142Y0261417D01*
X0196622Y0261417D01*
X0196866Y0261661D01*
X0197110Y0261417D01*
X0198591Y0261417D01*
X0199638Y0262464D01*
X0199638Y0263945D01*
X0198591Y0264992D01*
X0197110Y0264992D01*
X0196866Y0264748D01*
X0196622Y0264992D01*
X0195142Y0264992D01*
X0194898Y0264748D01*
X0194654Y0264992D01*
X0193173Y0264992D01*
X0192126Y0263945D01*
X0192126Y0262464D01*
X0192207Y0262384D02*
X0135252Y0262384D01*
X0135252Y0261598D02*
X0192992Y0261598D01*
X0194834Y0261598D02*
X0194961Y0261598D01*
X0196803Y0261598D02*
X0196929Y0261598D01*
X0198771Y0261598D02*
X0210055Y0261598D01*
X0210055Y0262384D02*
X0199557Y0262384D01*
X0199638Y0263170D02*
X0210055Y0263170D01*
X0210055Y0263956D02*
X0199627Y0263956D01*
X0198841Y0264742D02*
X0210055Y0264742D01*
X0210055Y0265527D02*
X0157111Y0265527D01*
X0157512Y0264742D02*
X0192922Y0264742D01*
X0192136Y0263956D02*
X0157512Y0263956D01*
X0156636Y0266313D02*
X0210055Y0266313D01*
X0210055Y0260812D02*
X0135252Y0260812D01*
X0135252Y0260026D02*
X0210055Y0260026D01*
X0210055Y0259240D02*
X0135252Y0259240D01*
X0135252Y0258454D02*
X0210055Y0258454D01*
X0210055Y0257668D02*
X0135252Y0257668D01*
X0135252Y0256882D02*
X0210055Y0256882D01*
X0210055Y0256096D02*
X0135252Y0256096D01*
X0135252Y0255311D02*
X0210055Y0255311D01*
X0210055Y0254525D02*
X0135252Y0254525D01*
X0135252Y0253739D02*
X0210055Y0253739D01*
X0210055Y0252953D02*
X0135252Y0252953D01*
X0135252Y0252167D02*
X0152395Y0252167D01*
X0152622Y0252394D02*
X0151575Y0251347D01*
X0151575Y0249866D01*
X0152622Y0248819D01*
X0154103Y0248819D01*
X0155150Y0249866D01*
X0155150Y0251347D01*
X0154103Y0252394D01*
X0152622Y0252394D01*
X0151609Y0251381D02*
X0135252Y0251381D01*
X0135252Y0250595D02*
X0151575Y0250595D01*
X0151632Y0249809D02*
X0135252Y0249809D01*
X0135252Y0249023D02*
X0152417Y0249023D01*
X0154307Y0249023D02*
X0169101Y0249023D01*
X0169101Y0248875D02*
X0169522Y0247859D01*
X0170300Y0247081D01*
X0171316Y0246660D01*
X0172416Y0246660D01*
X0173433Y0247081D01*
X0174210Y0247859D01*
X0174631Y0248875D01*
X0174631Y0249975D01*
X0174210Y0250992D01*
X0173433Y0251770D01*
X0172416Y0252191D01*
X0171316Y0252191D01*
X0170300Y0251770D01*
X0169522Y0250992D01*
X0169101Y0249975D01*
X0169101Y0248875D01*
X0169365Y0248237D02*
X0135252Y0248237D01*
X0135252Y0247451D02*
X0169929Y0247451D01*
X0171302Y0246666D02*
X0135252Y0246666D01*
X0135252Y0245880D02*
X0210055Y0245880D01*
X0210055Y0246666D02*
X0172430Y0246666D01*
X0173803Y0247451D02*
X0187405Y0247451D01*
X0188006Y0246850D02*
X0189813Y0246850D01*
X0191091Y0248128D01*
X0191091Y0249935D01*
X0189813Y0251213D01*
X0188006Y0251213D01*
X0186728Y0249935D01*
X0186728Y0248128D01*
X0188006Y0246850D01*
X0186728Y0248237D02*
X0174367Y0248237D01*
X0174631Y0249023D02*
X0186728Y0249023D01*
X0186728Y0249809D02*
X0174631Y0249809D01*
X0174375Y0250595D02*
X0187388Y0250595D01*
X0190430Y0250595D02*
X0210055Y0250595D01*
X0210055Y0249809D02*
X0191091Y0249809D01*
X0191091Y0249023D02*
X0210055Y0249023D01*
X0210055Y0248237D02*
X0191091Y0248237D01*
X0190414Y0247451D02*
X0210055Y0247451D01*
X0210055Y0245094D02*
X0135252Y0245094D01*
X0135252Y0244308D02*
X0210055Y0244308D01*
X0210055Y0243522D02*
X0135252Y0243522D01*
X0135252Y0242736D02*
X0210055Y0242736D01*
X0210055Y0241950D02*
X0135252Y0241950D01*
X0135252Y0241164D02*
X0210055Y0241164D01*
X0210055Y0240378D02*
X0193283Y0240378D01*
X0193732Y0239929D02*
X0192685Y0240976D01*
X0191205Y0240976D01*
X0190157Y0239929D01*
X0190157Y0238449D01*
X0190598Y0238008D01*
X0190157Y0237567D01*
X0190157Y0236086D01*
X0190598Y0235646D01*
X0190157Y0235205D01*
X0190157Y0233724D01*
X0191205Y0232677D01*
X0192685Y0232677D01*
X0193732Y0233724D01*
X0193732Y0235205D01*
X0193292Y0235646D01*
X0193732Y0236086D01*
X0193732Y0237567D01*
X0193292Y0238008D01*
X0193732Y0238449D01*
X0193732Y0239929D01*
X0193732Y0239592D02*
X0210055Y0239592D01*
X0210055Y0238806D02*
X0193732Y0238806D01*
X0193304Y0238020D02*
X0210055Y0238020D01*
X0210055Y0237235D02*
X0193732Y0237235D01*
X0193732Y0236449D02*
X0210055Y0236449D01*
X0210055Y0235663D02*
X0193309Y0235663D01*
X0193732Y0234877D02*
X0210055Y0234877D01*
X0210055Y0234091D02*
X0193732Y0234091D01*
X0193313Y0233305D02*
X0210055Y0233305D01*
X0210055Y0232519D02*
X0190119Y0232519D01*
X0189929Y0232709D02*
X0188780Y0232709D01*
X0189795Y0233724D01*
X0189795Y0235205D01*
X0189355Y0235646D01*
X0189795Y0236086D01*
X0189795Y0237567D01*
X0189355Y0238008D01*
X0189795Y0238449D01*
X0189795Y0239929D01*
X0188748Y0240976D01*
X0187267Y0240976D01*
X0186236Y0239945D01*
X0185205Y0240976D01*
X0183724Y0240976D01*
X0182677Y0239929D01*
X0182677Y0238449D01*
X0183118Y0238008D01*
X0182677Y0237567D01*
X0182677Y0236086D01*
X0183118Y0235646D01*
X0182677Y0235205D01*
X0182677Y0233724D01*
X0183724Y0232677D01*
X0185205Y0232677D01*
X0186236Y0233708D01*
X0187267Y0232677D01*
X0188417Y0232677D01*
X0187402Y0231662D01*
X0187402Y0230181D01*
X0188449Y0229134D01*
X0189929Y0229134D01*
X0190976Y0230181D01*
X0190976Y0231662D01*
X0189929Y0232709D01*
X0189376Y0233305D02*
X0190577Y0233305D01*
X0190157Y0234091D02*
X0189795Y0234091D01*
X0189795Y0234877D02*
X0190157Y0234877D01*
X0190581Y0235663D02*
X0189372Y0235663D01*
X0189795Y0236449D02*
X0190157Y0236449D01*
X0190157Y0237235D02*
X0189795Y0237235D01*
X0189367Y0238020D02*
X0190586Y0238020D01*
X0190157Y0238806D02*
X0189795Y0238806D01*
X0189795Y0239592D02*
X0190157Y0239592D01*
X0190606Y0240378D02*
X0189346Y0240378D01*
X0186669Y0240378D02*
X0185803Y0240378D01*
X0183126Y0240378D02*
X0135252Y0240378D01*
X0135252Y0239592D02*
X0182677Y0239592D01*
X0182677Y0238806D02*
X0135252Y0238806D01*
X0135252Y0238020D02*
X0183105Y0238020D01*
X0182677Y0237235D02*
X0175955Y0237235D01*
X0176409Y0236780D02*
X0175362Y0237827D01*
X0173882Y0237827D01*
X0172835Y0236780D01*
X0172835Y0235299D01*
X0173882Y0234252D01*
X0175362Y0234252D01*
X0176409Y0235299D01*
X0176409Y0236780D01*
X0176409Y0236449D02*
X0182677Y0236449D01*
X0183101Y0235663D02*
X0176409Y0235663D01*
X0175987Y0234877D02*
X0182677Y0234877D01*
X0182677Y0234091D02*
X0170437Y0234091D01*
X0170244Y0234283D02*
X0168764Y0234283D01*
X0167717Y0233236D01*
X0167717Y0231756D01*
X0168764Y0230709D01*
X0170244Y0230709D01*
X0171291Y0231756D01*
X0171291Y0233236D01*
X0170244Y0234283D01*
X0171223Y0233305D02*
X0183096Y0233305D01*
X0185833Y0233305D02*
X0186640Y0233305D01*
X0187473Y0231733D02*
X0171269Y0231733D01*
X0171291Y0232519D02*
X0188259Y0232519D01*
X0187402Y0230947D02*
X0170483Y0230947D01*
X0168525Y0230947D02*
X0135252Y0230947D01*
X0135252Y0230161D02*
X0187421Y0230161D01*
X0188207Y0229375D02*
X0135252Y0229375D01*
X0135252Y0228590D02*
X0195380Y0228590D01*
X0195380Y0228657D02*
X0195380Y0227674D01*
X0195756Y0226766D01*
X0196451Y0226071D01*
X0197359Y0225695D01*
X0198342Y0225695D01*
X0199250Y0226071D01*
X0199944Y0226766D01*
X0200320Y0227674D01*
X0200320Y0228657D01*
X0199944Y0229565D01*
X0199250Y0230259D01*
X0198342Y0230635D01*
X0197359Y0230635D01*
X0196451Y0230259D01*
X0195756Y0229565D01*
X0195380Y0228657D01*
X0195678Y0229375D02*
X0190171Y0229375D01*
X0190957Y0230161D02*
X0196353Y0230161D01*
X0195380Y0227804D02*
X0135252Y0227804D01*
X0135252Y0227018D02*
X0195652Y0227018D01*
X0196291Y0226232D02*
X0135252Y0226232D01*
X0135252Y0225446D02*
X0203554Y0225446D01*
X0203803Y0225197D02*
X0205284Y0225197D01*
X0206331Y0226244D01*
X0206331Y0227725D01*
X0205284Y0228772D01*
X0203803Y0228772D01*
X0202756Y0227725D01*
X0202756Y0226244D01*
X0203803Y0225197D01*
X0202768Y0226232D02*
X0199410Y0226232D01*
X0200049Y0227018D02*
X0202756Y0227018D01*
X0202835Y0227804D02*
X0200320Y0227804D01*
X0200320Y0228590D02*
X0203621Y0228590D01*
X0205466Y0228590D02*
X0210055Y0228590D01*
X0210055Y0229375D02*
X0200023Y0229375D01*
X0199348Y0230161D02*
X0210055Y0230161D01*
X0210055Y0230947D02*
X0190976Y0230947D01*
X0190905Y0231733D02*
X0210055Y0231733D01*
X0210055Y0227804D02*
X0206252Y0227804D01*
X0206331Y0227018D02*
X0210055Y0227018D01*
X0210055Y0226232D02*
X0206319Y0226232D01*
X0205533Y0225446D02*
X0210055Y0225446D01*
X0210055Y0224660D02*
X0135252Y0224660D01*
X0135252Y0223874D02*
X0210055Y0223874D01*
X0210055Y0223088D02*
X0135252Y0223088D01*
X0135252Y0222302D02*
X0172137Y0222302D01*
X0172307Y0222472D02*
X0171260Y0221425D01*
X0171260Y0219945D01*
X0172307Y0218898D01*
X0173788Y0218898D01*
X0174835Y0219945D01*
X0174835Y0221425D01*
X0173788Y0222472D01*
X0172307Y0222472D01*
X0171351Y0221516D02*
X0135252Y0221516D01*
X0135252Y0220730D02*
X0171260Y0220730D01*
X0171260Y0219944D02*
X0135252Y0219944D01*
X0135252Y0219159D02*
X0172046Y0219159D01*
X0174049Y0219159D02*
X0185432Y0219159D01*
X0185693Y0218898D02*
X0187173Y0218898D01*
X0188220Y0219945D01*
X0188220Y0221425D01*
X0187173Y0222472D01*
X0185693Y0222472D01*
X0184646Y0221425D01*
X0184646Y0219945D01*
X0185693Y0218898D01*
X0184646Y0219944D02*
X0174834Y0219944D01*
X0174835Y0220730D02*
X0184646Y0220730D01*
X0184737Y0221516D02*
X0174744Y0221516D01*
X0173958Y0222302D02*
X0185522Y0222302D01*
X0187344Y0222302D02*
X0200483Y0222302D01*
X0200653Y0222472D02*
X0199606Y0221425D01*
X0199606Y0219945D01*
X0200653Y0218898D01*
X0202134Y0218898D01*
X0203181Y0219945D01*
X0203181Y0221425D01*
X0202134Y0222472D01*
X0200653Y0222472D01*
X0199697Y0221516D02*
X0188130Y0221516D01*
X0188220Y0220730D02*
X0199606Y0220730D01*
X0199606Y0219944D02*
X0188220Y0219944D01*
X0187434Y0219159D02*
X0200392Y0219159D01*
X0202395Y0219159D02*
X0210055Y0219159D01*
X0210055Y0219944D02*
X0203181Y0219944D01*
X0203181Y0220730D02*
X0210055Y0220730D01*
X0210055Y0221516D02*
X0203090Y0221516D01*
X0202304Y0222302D02*
X0210055Y0222302D01*
X0210055Y0218373D02*
X0135252Y0218373D01*
X0135252Y0217587D02*
X0210055Y0217587D01*
X0210055Y0216801D02*
X0135252Y0216801D01*
X0135252Y0216015D02*
X0210055Y0216015D01*
X0210055Y0215229D02*
X0135252Y0215229D01*
X0135252Y0214443D02*
X0169337Y0214443D01*
X0169656Y0214762D02*
X0168878Y0213984D01*
X0168457Y0212967D01*
X0168457Y0211867D01*
X0168878Y0210851D01*
X0169656Y0210073D01*
X0170672Y0209652D01*
X0171772Y0209652D01*
X0172788Y0210073D01*
X0173566Y0210851D01*
X0173987Y0211867D01*
X0173987Y0212967D01*
X0173566Y0213984D01*
X0172788Y0214762D01*
X0171772Y0215183D01*
X0170672Y0215183D01*
X0169656Y0214762D01*
X0168742Y0213657D02*
X0135252Y0213657D01*
X0135252Y0212871D02*
X0168457Y0212871D01*
X0168457Y0212085D02*
X0135252Y0212085D01*
X0135252Y0211299D02*
X0168692Y0211299D01*
X0169215Y0210514D02*
X0135252Y0210514D01*
X0135252Y0209728D02*
X0170489Y0209728D01*
X0171955Y0209728D02*
X0210055Y0209728D01*
X0210055Y0210514D02*
X0173229Y0210514D01*
X0173752Y0211299D02*
X0199984Y0211299D01*
X0199606Y0211677D02*
X0200653Y0210630D01*
X0202134Y0210630D01*
X0203181Y0211677D01*
X0203181Y0213158D01*
X0202134Y0214205D01*
X0200653Y0214205D01*
X0199606Y0213158D01*
X0199606Y0211677D01*
X0199606Y0212085D02*
X0173987Y0212085D01*
X0173987Y0212871D02*
X0199606Y0212871D01*
X0200106Y0213657D02*
X0173702Y0213657D01*
X0173107Y0214443D02*
X0210055Y0214443D01*
X0210055Y0213657D02*
X0202682Y0213657D01*
X0203181Y0212871D02*
X0210055Y0212871D01*
X0210055Y0212085D02*
X0203181Y0212085D01*
X0202804Y0211299D02*
X0210055Y0211299D01*
X0210055Y0208942D02*
X0135252Y0208942D01*
X0135252Y0208156D02*
X0210055Y0208156D01*
X0210055Y0207370D02*
X0135252Y0207370D01*
X0135252Y0206584D02*
X0210055Y0206584D01*
X0210055Y0205798D02*
X0135252Y0205798D01*
X0135252Y0205012D02*
X0210055Y0205012D01*
X0210055Y0204226D02*
X0135252Y0204226D01*
X0135252Y0203440D02*
X0210055Y0203440D01*
X0210055Y0202654D02*
X0135252Y0202654D01*
X0135252Y0201868D02*
X0210055Y0201868D01*
X0210055Y0201083D02*
X0135252Y0201083D01*
X0135252Y0200297D02*
X0210055Y0200297D01*
X0210055Y0199511D02*
X0135252Y0199511D01*
X0135252Y0198725D02*
X0210055Y0198725D01*
X0210055Y0197939D02*
X0135252Y0197939D01*
X0135252Y0197153D02*
X0210055Y0197153D01*
X0210055Y0196367D02*
X0135252Y0196367D01*
X0135252Y0195581D02*
X0180455Y0195581D01*
X0180968Y0196094D02*
X0179921Y0195047D01*
X0179921Y0193567D01*
X0180968Y0192520D01*
X0182449Y0192520D01*
X0183496Y0193567D01*
X0183496Y0195047D01*
X0182449Y0196094D01*
X0180968Y0196094D01*
X0179921Y0194795D02*
X0135252Y0194795D01*
X0135252Y0194009D02*
X0179921Y0194009D01*
X0180265Y0193223D02*
X0135252Y0193223D01*
X0135252Y0192438D02*
X0210055Y0192438D01*
X0210055Y0193223D02*
X0183153Y0193223D01*
X0183496Y0194009D02*
X0210055Y0194009D01*
X0210055Y0194795D02*
X0183496Y0194795D01*
X0182962Y0195581D02*
X0210055Y0195581D01*
X0210055Y0191652D02*
X0135252Y0191652D01*
X0135252Y0190866D02*
X0210055Y0190866D01*
X0210055Y0190080D02*
X0135252Y0190080D01*
X0135252Y0189294D02*
X0210055Y0189294D01*
X0210055Y0188508D02*
X0135252Y0188508D01*
X0135252Y0187722D02*
X0210055Y0187722D01*
X0210055Y0186936D02*
X0135252Y0186936D01*
X0135252Y0186150D02*
X0210055Y0186150D01*
X0210055Y0185364D02*
X0135252Y0185364D01*
X0135252Y0184578D02*
X0210055Y0184578D01*
X0210055Y0183792D02*
X0135252Y0183792D01*
X0135252Y0183007D02*
X0210055Y0183007D01*
X0210055Y0182221D02*
X0135252Y0182221D01*
X0135252Y0181435D02*
X0189537Y0181435D01*
X0189630Y0181528D02*
X0188583Y0180481D01*
X0188583Y0179000D01*
X0189630Y0177953D01*
X0191110Y0177953D01*
X0192157Y0179000D01*
X0192157Y0180481D01*
X0191110Y0181528D01*
X0189630Y0181528D01*
X0188751Y0180649D02*
X0135252Y0180649D01*
X0135252Y0179863D02*
X0188583Y0179863D01*
X0188583Y0179077D02*
X0135252Y0179077D01*
X0135252Y0178291D02*
X0186393Y0178291D01*
X0186480Y0178378D02*
X0185433Y0177331D01*
X0185433Y0175850D01*
X0186480Y0174803D01*
X0187961Y0174803D01*
X0189008Y0175850D01*
X0189008Y0177331D01*
X0187961Y0178378D01*
X0186480Y0178378D01*
X0185607Y0177505D02*
X0135252Y0177505D01*
X0135252Y0176719D02*
X0185433Y0176719D01*
X0185433Y0175933D02*
X0135252Y0175933D01*
X0135252Y0175147D02*
X0186136Y0175147D01*
X0186874Y0173654D02*
X0185827Y0172607D01*
X0185827Y0171126D01*
X0186874Y0170079D01*
X0188189Y0170079D01*
X0188189Y0168764D01*
X0189236Y0167717D01*
X0190717Y0167717D01*
X0191764Y0168764D01*
X0191764Y0170244D01*
X0190717Y0171291D01*
X0189402Y0171291D01*
X0189402Y0172607D01*
X0188355Y0173654D01*
X0186874Y0173654D01*
X0186796Y0173576D02*
X0135252Y0173576D01*
X0135252Y0174362D02*
X0210055Y0174362D01*
X0210055Y0175147D02*
X0188305Y0175147D01*
X0189008Y0175933D02*
X0197555Y0175933D01*
X0197897Y0175591D02*
X0199378Y0175591D01*
X0200425Y0176638D01*
X0200425Y0178118D01*
X0199378Y0179165D01*
X0198063Y0179165D01*
X0198063Y0180481D01*
X0197016Y0181528D01*
X0195535Y0181528D01*
X0194488Y0180481D01*
X0194488Y0179000D01*
X0195535Y0177953D01*
X0196850Y0177953D01*
X0196850Y0176638D01*
X0197897Y0175591D01*
X0196850Y0176719D02*
X0189008Y0176719D01*
X0188834Y0177505D02*
X0196850Y0177505D01*
X0195197Y0178291D02*
X0191449Y0178291D01*
X0192157Y0179077D02*
X0194488Y0179077D01*
X0194488Y0179863D02*
X0192157Y0179863D01*
X0191989Y0180649D02*
X0194656Y0180649D01*
X0195442Y0181435D02*
X0191203Y0181435D01*
X0189291Y0178291D02*
X0188048Y0178291D01*
X0188432Y0173576D02*
X0197426Y0173576D01*
X0197504Y0173654D02*
X0196457Y0172607D01*
X0196457Y0171126D01*
X0197504Y0170079D01*
X0198984Y0170079D01*
X0200031Y0171126D01*
X0200031Y0172607D01*
X0198984Y0173654D01*
X0197504Y0173654D01*
X0196640Y0172790D02*
X0189218Y0172790D01*
X0189402Y0172004D02*
X0196457Y0172004D01*
X0196457Y0171218D02*
X0190790Y0171218D01*
X0191576Y0170432D02*
X0194282Y0170432D01*
X0194748Y0170898D02*
X0193701Y0169851D01*
X0193701Y0168370D01*
X0194748Y0167323D01*
X0196229Y0167323D01*
X0197276Y0168370D01*
X0197276Y0169851D01*
X0196229Y0170898D01*
X0194748Y0170898D01*
X0193701Y0169646D02*
X0191764Y0169646D01*
X0191764Y0168860D02*
X0193701Y0168860D01*
X0193996Y0168074D02*
X0191074Y0168074D01*
X0188878Y0168074D02*
X0135298Y0168074D01*
X0135252Y0168860D02*
X0188189Y0168860D01*
X0188189Y0169646D02*
X0135252Y0169646D01*
X0135252Y0170432D02*
X0186521Y0170432D01*
X0185827Y0171218D02*
X0135252Y0171218D01*
X0135252Y0172004D02*
X0185827Y0172004D01*
X0186010Y0172790D02*
X0135252Y0172790D01*
X0135358Y0167288D02*
X0209949Y0167288D01*
X0210009Y0168074D02*
X0196980Y0168074D01*
X0197276Y0168860D02*
X0210055Y0168860D01*
X0210055Y0169646D02*
X0197276Y0169646D01*
X0197150Y0170432D02*
X0196694Y0170432D01*
X0199338Y0170432D02*
X0210055Y0170432D01*
X0210055Y0171218D02*
X0200031Y0171218D01*
X0200031Y0172004D02*
X0210055Y0172004D01*
X0210055Y0172790D02*
X0199848Y0172790D01*
X0199062Y0173576D02*
X0210055Y0173576D01*
X0210055Y0175933D02*
X0199721Y0175933D01*
X0200425Y0176719D02*
X0210055Y0176719D01*
X0210055Y0177505D02*
X0200425Y0177505D01*
X0200252Y0178291D02*
X0210055Y0178291D01*
X0210055Y0179077D02*
X0199466Y0179077D01*
X0198063Y0179863D02*
X0210055Y0179863D01*
X0210055Y0180649D02*
X0197895Y0180649D01*
X0197109Y0181435D02*
X0210055Y0181435D01*
X0209778Y0166502D02*
X0135529Y0166502D01*
X0135735Y0165716D02*
X0209572Y0165716D01*
X0209279Y0164931D02*
X0147077Y0164931D01*
X0146622Y0165386D02*
X0145142Y0165386D01*
X0144094Y0164339D01*
X0144094Y0162858D01*
X0145142Y0161811D01*
X0146622Y0161811D01*
X0147669Y0162858D01*
X0147669Y0164339D01*
X0146622Y0165386D01*
X0147669Y0164145D02*
X0208902Y0164145D01*
X0208465Y0163359D02*
X0147669Y0163359D01*
X0147384Y0162573D02*
X0207877Y0162573D01*
X0207167Y0161787D02*
X0144709Y0161787D01*
X0144380Y0162573D02*
X0137433Y0162573D01*
X0137433Y0163359D02*
X0144094Y0163359D01*
X0144094Y0164145D02*
X0137233Y0164145D01*
X0136448Y0164931D02*
X0144686Y0164931D01*
X0143117Y0161787D02*
X0141560Y0161787D01*
X0139968Y0161787D02*
X0138410Y0161787D01*
X0145495Y0161001D02*
X0206288Y0161001D01*
X0205128Y0160215D02*
X0145701Y0160215D01*
X0145701Y0159429D02*
X0203405Y0159429D01*
X0210055Y0088697D02*
X0149638Y0088697D01*
X0149638Y0087911D02*
X0210055Y0087911D01*
X0210055Y0087125D02*
X0149495Y0087125D01*
X0148710Y0086339D02*
X0210055Y0086339D01*
X0203844Y0072979D02*
X0054849Y0072979D01*
X0102394Y0159429D02*
X0116791Y0159429D01*
X0118514Y0160215D02*
X0102394Y0160215D01*
X0113887Y0179863D02*
X0123441Y0179863D01*
X0123441Y0180649D02*
X0114205Y0180649D01*
X0114205Y0181435D02*
X0123441Y0181435D01*
X0123441Y0182221D02*
X0113646Y0182221D01*
X0129346Y0186433D02*
X0129346Y0143126D01*
X0135252Y0231733D02*
X0167739Y0231733D01*
X0167717Y0232519D02*
X0135252Y0232519D01*
X0135252Y0233305D02*
X0167785Y0233305D01*
X0168571Y0234091D02*
X0135252Y0234091D01*
X0135252Y0234877D02*
X0173257Y0234877D01*
X0172835Y0235663D02*
X0135252Y0235663D01*
X0135252Y0236449D02*
X0172835Y0236449D01*
X0173289Y0237235D02*
X0135252Y0237235D01*
X0154329Y0252167D02*
X0171259Y0252167D01*
X0172473Y0252167D02*
X0210055Y0252167D01*
X0210055Y0251381D02*
X0173821Y0251381D01*
X0169911Y0251381D02*
X0155115Y0251381D01*
X0155150Y0250595D02*
X0169358Y0250595D01*
X0169101Y0249809D02*
X0155093Y0249809D01*
X0157510Y0268671D02*
X0158360Y0268671D01*
X0157874Y0269457D02*
X0157812Y0269457D01*
X0158693Y0271815D02*
X0161811Y0271815D01*
X0161811Y0272601D02*
X0157911Y0272601D01*
X0161058Y0271029D02*
X0161414Y0271029D01*
X0123441Y0277316D02*
X0090976Y0277316D01*
X0090599Y0278102D02*
X0123441Y0278102D01*
X0136019Y0337831D02*
X0209288Y0337831D01*
X0208916Y0338617D02*
X0136391Y0338617D01*
X0136823Y0339403D02*
X0208484Y0339403D01*
X0207896Y0340189D02*
X0137411Y0340189D01*
X0138115Y0340975D02*
X0207192Y0340975D01*
X0206322Y0341761D02*
X0138985Y0341761D01*
X0140132Y0342547D02*
X0205175Y0342547D01*
X0203473Y0343333D02*
X0141834Y0343333D01*
X0170685Y0341551D02*
X0175180Y0342300D01*
X0182852Y0342300D01*
X0199031Y0358480D01*
X0103756Y0341551D02*
X0088008Y0341551D01*
X0076816Y0245880D02*
X0048638Y0245880D01*
X0048638Y0245094D02*
X0076378Y0245094D01*
X0076378Y0244308D02*
X0048638Y0244308D01*
X0048638Y0243522D02*
X0076816Y0243522D01*
M02*
