G75*
%MOIN*%
%OFA0B0*%
%FSLAX25Y25*%
%IPPOS*%
%LPD*%
%AMOC8*
5,1,8,0,0,1.08239X$1,22.5*
%
%ADD10R,0.05000X0.13386*%
%ADD11R,0.09449X0.06496*%
%ADD12R,0.01102X0.03150*%
%ADD13R,0.03500X0.04200*%
%ADD14R,0.04200X0.03500*%
%ADD15C,0.10000*%
%ADD16R,0.05512X0.03150*%
%ADD17R,0.11201X0.06500*%
%ADD18R,0.01654X0.03500*%
%ADD19R,0.11000X0.06500*%
%ADD20R,0.06000X0.03800*%
%ADD21R,0.04134X0.05512*%
%ADD22R,0.13386X0.05000*%
%ADD23R,0.15748X0.06299*%
%ADD24R,0.07400X0.04800*%
%ADD25C,0.08500*%
%ADD26C,0.01969*%
%ADD27C,0.01981*%
%ADD28C,0.00787*%
%ADD29C,0.03937*%
%ADD30C,0.02953*%
%ADD31C,0.07874*%
%ADD32C,0.03543*%
%ADD33C,0.01575*%
%ADD34C,0.02375*%
%ADD35C,0.00600*%
D10*
X0067969Y0086945D03*
X0077969Y0097732D03*
X0087969Y0086945D03*
X0097969Y0097732D03*
X0107969Y0086945D03*
X0117969Y0097732D03*
X0127969Y0086945D03*
X0137969Y0097732D03*
X0127969Y0136945D03*
X0137969Y0147732D03*
X0117969Y0147732D03*
X0107969Y0136945D03*
X0097969Y0147732D03*
X0087969Y0136945D03*
X0077969Y0147732D03*
X0067969Y0136945D03*
X0087969Y0070961D03*
X0097969Y0060173D03*
X0107969Y0070961D03*
X0117969Y0060173D03*
X0111118Y0288835D03*
X0101118Y0299622D03*
X0091118Y0288835D03*
X0081118Y0299622D03*
X0071118Y0288835D03*
X0071118Y0348835D03*
X0081118Y0359622D03*
X0091118Y0348835D03*
X0101118Y0359622D03*
X0111118Y0348835D03*
X0121118Y0359622D03*
X0131118Y0348835D03*
X0141118Y0359622D03*
X0151118Y0348835D03*
X0161118Y0359622D03*
X0171118Y0348835D03*
X0181118Y0359622D03*
X0191118Y0348835D03*
X0201118Y0359622D03*
X0201118Y0299622D03*
X0191118Y0288835D03*
X0181118Y0299622D03*
X0171118Y0288835D03*
X0161118Y0299622D03*
X0151118Y0288835D03*
X0141118Y0299622D03*
X0131118Y0288835D03*
X0121118Y0299622D03*
D11*
X0161551Y0386472D03*
D12*
X0161551Y0380665D03*
X0159583Y0380665D03*
X0157614Y0380665D03*
X0163520Y0380665D03*
X0165488Y0380665D03*
X0165488Y0392280D03*
X0163520Y0392280D03*
X0161551Y0392280D03*
X0159583Y0392280D03*
X0157614Y0392280D03*
D13*
X0132786Y0376630D03*
X0125986Y0376630D03*
X0145631Y0323047D03*
X0145631Y0314780D03*
X0152431Y0314780D03*
X0152431Y0323047D03*
X0180277Y0271079D03*
X0187077Y0271079D03*
X0190513Y0218323D03*
X0190513Y0210843D03*
X0197313Y0210843D03*
X0197313Y0218323D03*
D14*
X0199819Y0253899D03*
X0199819Y0260699D03*
X0191157Y0260699D03*
X0191157Y0253899D03*
X0174622Y0240227D03*
X0174622Y0233427D03*
X0169110Y0327128D03*
X0169110Y0333928D03*
X0176197Y0388545D03*
X0176197Y0395345D03*
X0184071Y0395345D03*
X0184071Y0388545D03*
X0130134Y0335109D03*
X0130134Y0328309D03*
X0141157Y0068573D03*
X0141157Y0061773D03*
D15*
X0068717Y0064780D03*
X0177772Y0189189D03*
X0177772Y0202575D03*
X0201000Y0270291D03*
X0077378Y0388008D03*
X0064386Y0374622D03*
D16*
X0119110Y0384366D03*
X0119110Y0390075D03*
X0139583Y0390075D03*
X0139583Y0384366D03*
D17*
X0188008Y0236827D03*
D18*
X0189287Y0245311D03*
X0186728Y0245311D03*
X0184169Y0245311D03*
X0181610Y0245311D03*
X0191846Y0245311D03*
X0194406Y0245311D03*
X0194406Y0228343D03*
X0191846Y0228343D03*
X0189287Y0228343D03*
X0186728Y0228343D03*
X0184169Y0228343D03*
X0181610Y0228343D03*
D19*
X0162811Y0221461D03*
X0162811Y0210461D03*
X0162811Y0253768D03*
X0162811Y0264768D03*
D20*
X0181709Y0261793D03*
X0181709Y0253593D03*
D21*
X0203067Y0245094D03*
X0208972Y0245094D03*
X0208972Y0230921D03*
X0203067Y0230921D03*
D22*
X0076512Y0324228D03*
X0065724Y0314228D03*
X0065724Y0334228D03*
D23*
X0102772Y0176984D03*
X0126787Y0176984D03*
X0156709Y0072260D03*
X0180724Y0072260D03*
D24*
X0195488Y0068909D03*
X0195488Y0081909D03*
X0140764Y0163791D03*
X0140764Y0176791D03*
D25*
X0168126Y0174622D03*
X0193126Y0174622D03*
X0193126Y0099622D03*
X0155626Y0099622D03*
D26*
X0162811Y0210461D02*
X0164768Y0212417D01*
X0186547Y0249031D02*
X0186728Y0249031D01*
X0186728Y0245311D01*
X0180277Y0271079D02*
X0180035Y0273289D01*
X0180035Y0298539D01*
X0181118Y0299622D01*
X0169110Y0311630D01*
X0169110Y0314780D01*
X0152431Y0314780D01*
X0152431Y0323047D01*
X0169110Y0327128D02*
X0169110Y0314780D01*
X0175409Y0373441D02*
X0194307Y0373441D01*
X0184071Y0388545D02*
X0176197Y0388545D01*
X0176197Y0395345D02*
X0176722Y0395882D01*
X0164386Y0395882D01*
X0163992Y0395488D01*
X0176984Y0395882D02*
X0183534Y0395882D01*
X0184071Y0395345D01*
X0187220Y0395345D02*
X0188402Y0395345D01*
X0155724Y0373441D02*
X0151000Y0378165D01*
X0139583Y0378165D01*
X0138047Y0376630D01*
X0132786Y0376630D01*
X0139583Y0378165D02*
X0139583Y0384366D01*
X0064386Y0374622D02*
X0064386Y0332890D01*
X0059268Y0327772D01*
X0059268Y0321324D01*
X0056660Y0318717D01*
X0056660Y0309268D01*
X0059268Y0306660D01*
X0059268Y0116433D01*
X0077969Y0097732D01*
X0064386Y0332890D02*
X0065724Y0334228D01*
D27*
X0089189Y0302969D03*
X0091157Y0297457D03*
X0101000Y0290764D03*
X0098638Y0312417D03*
X0080921Y0279346D03*
X0072260Y0265173D03*
X0067929Y0270291D03*
X0096669Y0181709D03*
X0101394Y0181709D03*
X0105331Y0181709D03*
X0109661Y0181709D03*
X0112417Y0180921D03*
X0112024Y0176591D03*
X0112024Y0172654D03*
X0107299Y0172260D03*
X0102969Y0172260D03*
X0098638Y0172260D03*
X0100606Y0159661D03*
X0107693Y0152575D03*
X0129346Y0186433D03*
X0135646Y0163205D03*
X0137614Y0160055D03*
X0140764Y0160055D03*
X0143913Y0160055D03*
X0145882Y0163598D03*
X0181709Y0194307D03*
X0190370Y0179740D03*
X0187220Y0176591D03*
X0187614Y0171866D03*
X0189976Y0169504D03*
X0195488Y0169110D03*
X0198244Y0171866D03*
X0198638Y0177378D03*
X0196276Y0179740D03*
X0201787Y0210843D03*
X0201787Y0218323D03*
X0202969Y0226591D03*
X0191945Y0234465D03*
X0191945Y0236827D03*
X0191945Y0239189D03*
X0188008Y0239189D03*
X0188008Y0236827D03*
X0188008Y0234465D03*
X0184465Y0234465D03*
X0184465Y0236827D03*
X0184465Y0239189D03*
X0191846Y0248933D03*
X0184465Y0264386D03*
X0181709Y0264386D03*
X0178953Y0264386D03*
X0191157Y0272260D03*
X0192339Y0297063D03*
X0189976Y0299031D03*
X0188008Y0297457D03*
X0187614Y0300606D03*
X0190370Y0302181D03*
X0192732Y0300606D03*
X0165567Y0269898D03*
X0163992Y0271866D03*
X0162417Y0269898D03*
X0160843Y0271866D03*
X0159268Y0269898D03*
X0156906Y0271472D03*
X0155331Y0268323D03*
X0153362Y0250606D03*
X0169504Y0232496D03*
X0174622Y0236039D03*
X0186433Y0218323D03*
X0186827Y0210843D03*
X0130134Y0324622D03*
X0123047Y0375409D03*
X0123047Y0378165D03*
X0159268Y0376591D03*
X0164780Y0384858D03*
X0162417Y0386433D03*
X0164780Y0388402D03*
X0167236Y0392280D03*
X0169898Y0389976D03*
X0172654Y0391157D03*
X0171866Y0387614D03*
X0169504Y0386039D03*
X0171866Y0382890D03*
X0173835Y0384858D03*
X0176591Y0383283D03*
X0178559Y0385646D03*
X0178953Y0380528D03*
X0176984Y0378559D03*
X0174228Y0380134D03*
X0182496Y0381709D03*
X0182496Y0378559D03*
X0186039Y0379346D03*
X0188402Y0381315D03*
X0188008Y0385252D03*
X0185252Y0384071D03*
X0181709Y0385252D03*
X0188008Y0388402D03*
X0199425Y0368323D03*
X0197457Y0366354D03*
X0197063Y0363205D03*
X0197063Y0360843D03*
X0190764Y0357299D03*
X0202575Y0367535D03*
X0171472Y0370685D03*
X0083677Y0388008D03*
X0063598Y0093520D03*
X0063598Y0090764D03*
X0063598Y0088008D03*
X0063598Y0085252D03*
X0063598Y0082496D03*
X0063598Y0079740D03*
X0123441Y0079346D03*
X0123441Y0082102D03*
X0123441Y0084858D03*
X0123441Y0087614D03*
X0123441Y0090370D03*
X0123441Y0093126D03*
X0141157Y0076197D03*
X0147850Y0088008D03*
X0150213Y0067142D03*
X0152969Y0067142D03*
X0155724Y0067142D03*
X0158480Y0067142D03*
X0161630Y0067142D03*
X0164386Y0067142D03*
X0193126Y0065173D03*
X0196276Y0065173D03*
X0199425Y0065173D03*
X0201394Y0067142D03*
X0201787Y0069898D03*
D28*
X0062417Y0078953D02*
X0062417Y0094701D01*
X0071472Y0094701D01*
X0071472Y0078953D01*
X0062417Y0078953D01*
X0062417Y0079266D02*
X0071472Y0079266D01*
X0071472Y0080052D02*
X0062417Y0080052D01*
X0062417Y0080838D02*
X0071472Y0080838D01*
X0071472Y0081624D02*
X0062417Y0081624D01*
X0062417Y0082410D02*
X0071472Y0082410D01*
X0071472Y0083196D02*
X0062417Y0083196D01*
X0062417Y0083982D02*
X0071472Y0083982D01*
X0071472Y0084767D02*
X0062417Y0084767D01*
X0062417Y0085553D02*
X0071472Y0085553D01*
X0071472Y0086339D02*
X0062417Y0086339D01*
X0062417Y0087125D02*
X0071472Y0087125D01*
X0071472Y0087911D02*
X0062417Y0087911D01*
X0062417Y0088697D02*
X0071472Y0088697D01*
X0071472Y0089483D02*
X0062417Y0089483D01*
X0062417Y0090269D02*
X0071472Y0090269D01*
X0071472Y0091055D02*
X0062417Y0091055D01*
X0062417Y0091841D02*
X0071472Y0091841D01*
X0071472Y0092627D02*
X0062417Y0092627D01*
X0062417Y0093412D02*
X0071472Y0093412D01*
X0071472Y0094198D02*
X0062417Y0094198D01*
X0067969Y0086945D02*
X0067969Y0065528D01*
X0068717Y0064780D01*
X0070685Y0118323D02*
X0134465Y0118323D01*
X0178501Y0166800D01*
X0180528Y0168827D01*
X0180528Y0179346D01*
X0209413Y0208232D01*
X0209413Y0230481D01*
X0208972Y0230921D01*
X0208972Y0245094D01*
X0203067Y0245094D02*
X0203067Y0230921D01*
X0203067Y0226689D01*
X0202969Y0226591D01*
X0201787Y0218323D02*
X0197313Y0218323D01*
X0195685Y0224031D02*
X0193323Y0224031D01*
X0191846Y0225508D01*
X0191846Y0228343D01*
X0189287Y0228343D02*
X0189287Y0225311D01*
X0193913Y0220685D01*
X0193913Y0212417D01*
X0192339Y0210843D01*
X0190513Y0210843D01*
X0186827Y0210843D01*
X0184465Y0212024D02*
X0179740Y0207299D01*
X0168717Y0207299D01*
X0168717Y0182496D01*
X0173441Y0182102D01*
X0173441Y0170291D01*
X0121472Y0170685D01*
X0121472Y0182496D01*
X0156906Y0182496D01*
X0156906Y0213992D01*
X0174622Y0213992D01*
X0180921Y0220291D01*
X0180921Y0229740D01*
X0184465Y0229740D01*
X0184465Y0219160D01*
X0184449Y0219145D01*
X0184449Y0217501D01*
X0184465Y0217485D01*
X0184465Y0212024D01*
X0184465Y0212085D02*
X0156906Y0212085D01*
X0156906Y0211299D02*
X0183740Y0211299D01*
X0182954Y0210514D02*
X0156906Y0210514D01*
X0156906Y0209728D02*
X0182169Y0209728D01*
X0181383Y0208942D02*
X0156906Y0208942D01*
X0156906Y0208156D02*
X0180597Y0208156D01*
X0179811Y0207370D02*
X0156906Y0207370D01*
X0156906Y0206584D02*
X0168717Y0206584D01*
X0168717Y0205798D02*
X0156906Y0205798D01*
X0156906Y0205012D02*
X0168717Y0205012D01*
X0168717Y0204226D02*
X0156906Y0204226D01*
X0156906Y0203440D02*
X0168717Y0203440D01*
X0168717Y0202654D02*
X0156906Y0202654D01*
X0156906Y0201868D02*
X0168717Y0201868D01*
X0168717Y0201083D02*
X0156906Y0201083D01*
X0156906Y0200297D02*
X0168717Y0200297D01*
X0168717Y0199511D02*
X0156906Y0199511D01*
X0156906Y0198725D02*
X0168717Y0198725D01*
X0168717Y0197939D02*
X0156906Y0197939D01*
X0156906Y0197153D02*
X0168717Y0197153D01*
X0168717Y0196367D02*
X0156906Y0196367D01*
X0156906Y0195581D02*
X0168717Y0195581D01*
X0168717Y0194795D02*
X0156906Y0194795D01*
X0156906Y0194009D02*
X0168717Y0194009D01*
X0168717Y0193223D02*
X0156906Y0193223D01*
X0156906Y0192438D02*
X0168717Y0192438D01*
X0168717Y0191652D02*
X0156906Y0191652D01*
X0156906Y0190866D02*
X0168717Y0190866D01*
X0168717Y0190080D02*
X0156906Y0190080D01*
X0156906Y0189294D02*
X0168717Y0189294D01*
X0168717Y0188508D02*
X0156906Y0188508D01*
X0156906Y0187722D02*
X0168717Y0187722D01*
X0168717Y0186936D02*
X0156906Y0186936D01*
X0156906Y0186150D02*
X0168717Y0186150D01*
X0168717Y0185364D02*
X0156906Y0185364D01*
X0156906Y0184578D02*
X0168717Y0184578D01*
X0168717Y0183792D02*
X0156906Y0183792D01*
X0156906Y0183007D02*
X0168717Y0183007D01*
X0172021Y0182221D02*
X0121472Y0182221D01*
X0121472Y0181435D02*
X0173441Y0181435D01*
X0173441Y0180649D02*
X0121472Y0180649D01*
X0121472Y0179863D02*
X0173441Y0179863D01*
X0173441Y0179077D02*
X0121472Y0179077D01*
X0121472Y0178291D02*
X0173441Y0178291D01*
X0173441Y0177505D02*
X0121472Y0177505D01*
X0121472Y0176719D02*
X0173441Y0176719D01*
X0173441Y0175933D02*
X0121472Y0175933D01*
X0121472Y0175147D02*
X0173441Y0175147D01*
X0173441Y0174362D02*
X0121472Y0174362D01*
X0121472Y0173576D02*
X0173441Y0173576D01*
X0173441Y0172790D02*
X0121472Y0172790D01*
X0121472Y0172004D02*
X0173441Y0172004D01*
X0173441Y0171218D02*
X0121472Y0171218D01*
X0119504Y0167535D02*
X0098638Y0167535D01*
X0093126Y0173047D01*
X0093126Y0191551D01*
X0094898Y0193323D01*
X0094898Y0270094D01*
X0106118Y0281315D01*
X0106118Y0338402D01*
X0101000Y0343520D01*
X0101000Y0359504D01*
X0101118Y0359622D01*
X0091945Y0351787D02*
X0091945Y0341157D01*
X0098638Y0334465D01*
X0098638Y0312417D01*
X0096276Y0306512D02*
X0096276Y0277378D01*
X0089583Y0270685D01*
X0089583Y0172260D01*
X0098244Y0163598D01*
X0115567Y0163598D01*
X0127772Y0151394D01*
X0127772Y0140370D01*
X0127969Y0140173D01*
X0127969Y0136945D01*
X0127772Y0134858D02*
X0127772Y0140370D01*
X0117969Y0147732D02*
X0109425Y0156276D01*
X0096512Y0156276D01*
X0082102Y0170685D01*
X0082102Y0273047D01*
X0071118Y0284031D01*
X0071118Y0288835D01*
X0065961Y0279740D02*
X0077378Y0268323D01*
X0077378Y0168323D01*
X0097969Y0147732D01*
X0097850Y0159661D02*
X0086039Y0171472D01*
X0086039Y0299819D01*
X0089189Y0302969D01*
X0091157Y0297457D02*
X0091157Y0288874D01*
X0091118Y0288835D01*
X0101000Y0290764D02*
X0101000Y0299504D01*
X0101118Y0299622D01*
X0096276Y0306512D02*
X0091354Y0311433D01*
X0091354Y0332496D01*
X0081118Y0342732D01*
X0081118Y0359622D01*
X0091232Y0351075D02*
X0091232Y0348849D01*
X0091118Y0348835D01*
X0091232Y0351075D02*
X0091945Y0351787D01*
X0084858Y0332102D02*
X0071118Y0345843D01*
X0071118Y0348835D01*
X0084858Y0332102D02*
X0084858Y0317535D01*
X0065961Y0298638D01*
X0065961Y0279740D01*
X0067929Y0270291D02*
X0067929Y0136945D01*
X0067969Y0136945D01*
X0062811Y0126197D02*
X0062811Y0314780D01*
X0067535Y0314780D01*
X0067535Y0314228D01*
X0065724Y0314228D01*
X0081118Y0299622D02*
X0081118Y0279543D01*
X0080921Y0279346D01*
X0072260Y0265173D02*
X0072260Y0162909D01*
X0077969Y0157201D01*
X0077969Y0147732D01*
X0062811Y0126197D02*
X0070685Y0118323D01*
X0097850Y0159661D02*
X0100606Y0159661D01*
X0107693Y0152575D02*
X0107693Y0137220D01*
X0107969Y0136945D01*
X0137969Y0149071D02*
X0119504Y0167535D01*
X0113205Y0171472D02*
X0097402Y0171472D01*
X0095094Y0174172D01*
X0095094Y0182496D01*
X0113598Y0182496D01*
X0113205Y0171472D01*
X0113224Y0172004D02*
X0096947Y0172004D01*
X0096276Y0172790D02*
X0113252Y0172790D01*
X0113280Y0173576D02*
X0095604Y0173576D01*
X0095094Y0174362D02*
X0113308Y0174362D01*
X0113336Y0175147D02*
X0095094Y0175147D01*
X0095094Y0175933D02*
X0113364Y0175933D01*
X0113392Y0176719D02*
X0095094Y0176719D01*
X0095094Y0177505D02*
X0113420Y0177505D01*
X0113448Y0178291D02*
X0095094Y0178291D01*
X0095094Y0179077D02*
X0113476Y0179077D01*
X0113504Y0179863D02*
X0095094Y0179863D01*
X0095094Y0180649D02*
X0113532Y0180649D01*
X0113561Y0181435D02*
X0095094Y0181435D01*
X0095094Y0182221D02*
X0113589Y0182221D01*
X0129346Y0186433D02*
X0111118Y0204661D01*
X0111118Y0288835D01*
X0115764Y0293323D02*
X0115764Y0310646D01*
X0119504Y0314386D01*
X0130921Y0314386D01*
X0142535Y0326000D01*
X0156276Y0339740D01*
X0156276Y0366591D01*
X0161551Y0371866D01*
X0161551Y0380665D01*
X0159661Y0380528D02*
X0156906Y0380528D01*
X0156906Y0389583D01*
X0168323Y0389583D01*
X0168323Y0390560D01*
X0169220Y0391458D01*
X0169220Y0392339D01*
X0186039Y0392339D01*
X0190764Y0387614D01*
X0190764Y0376984D01*
X0171866Y0376984D01*
X0171866Y0378165D01*
X0166354Y0383677D01*
X0159661Y0383677D01*
X0159661Y0380528D01*
X0159583Y0380665D02*
X0157614Y0380665D01*
X0157614Y0384780D01*
X0157693Y0384858D01*
X0156906Y0384986D02*
X0190764Y0384986D01*
X0190764Y0384200D02*
X0156906Y0384200D01*
X0156906Y0383414D02*
X0159661Y0383414D01*
X0159661Y0382628D02*
X0156906Y0382628D01*
X0156906Y0381843D02*
X0159661Y0381843D01*
X0159661Y0381057D02*
X0156906Y0381057D01*
X0156906Y0385772D02*
X0190764Y0385772D01*
X0190764Y0386558D02*
X0156906Y0386558D01*
X0156906Y0387344D02*
X0190764Y0387344D01*
X0190248Y0388130D02*
X0156906Y0388130D01*
X0156906Y0388916D02*
X0189462Y0388916D01*
X0188676Y0389702D02*
X0168323Y0389702D01*
X0168323Y0390488D02*
X0187890Y0390488D01*
X0187104Y0391273D02*
X0169036Y0391273D01*
X0169220Y0392059D02*
X0186319Y0392059D01*
X0185252Y0395345D02*
X0184071Y0395345D01*
X0176984Y0395882D02*
X0176197Y0395345D01*
X0176984Y0388795D02*
X0173835Y0384858D01*
X0176197Y0388545D02*
X0176984Y0388795D01*
X0168975Y0381057D02*
X0190764Y0381057D01*
X0190764Y0381843D02*
X0168189Y0381843D01*
X0167403Y0382628D02*
X0190764Y0382628D01*
X0190764Y0383414D02*
X0166617Y0383414D01*
X0165488Y0380665D02*
X0165488Y0370764D01*
X0171118Y0365134D01*
X0171118Y0348835D01*
X0171118Y0335935D01*
X0169110Y0333928D01*
X0166354Y0342732D02*
X0149031Y0325409D01*
X0149031Y0318180D01*
X0145631Y0314780D01*
X0130474Y0299622D01*
X0121118Y0299622D01*
X0115764Y0293323D02*
X0119898Y0289189D01*
X0130764Y0289189D01*
X0131118Y0288835D01*
X0141118Y0299622D02*
X0141118Y0262850D01*
X0153362Y0250606D01*
X0154543Y0261630D02*
X0154543Y0272654D01*
X0165173Y0272654D01*
X0168717Y0269110D01*
X0168717Y0261630D01*
X0154543Y0261630D01*
X0154543Y0262384D02*
X0168717Y0262384D01*
X0168717Y0263170D02*
X0154543Y0263170D01*
X0154543Y0263956D02*
X0168717Y0263956D01*
X0168717Y0264742D02*
X0154543Y0264742D01*
X0154543Y0265527D02*
X0168717Y0265527D01*
X0168717Y0266313D02*
X0154543Y0266313D01*
X0154543Y0267099D02*
X0168717Y0267099D01*
X0168717Y0267885D02*
X0154543Y0267885D01*
X0154543Y0268671D02*
X0168717Y0268671D01*
X0168370Y0269457D02*
X0154543Y0269457D01*
X0154543Y0270243D02*
X0167584Y0270243D01*
X0166798Y0271029D02*
X0154543Y0271029D01*
X0154543Y0271815D02*
X0166012Y0271815D01*
X0165226Y0272601D02*
X0154543Y0272601D01*
X0158618Y0275665D02*
X0151000Y0283283D01*
X0151000Y0288047D01*
X0151787Y0288835D01*
X0151118Y0288835D01*
X0158618Y0275665D02*
X0165035Y0275665D01*
X0170291Y0270409D01*
X0170291Y0256906D01*
X0173244Y0253953D01*
X0173244Y0246472D01*
X0169504Y0242732D01*
X0169504Y0232496D01*
X0174622Y0233427D02*
X0174622Y0236039D01*
X0178559Y0236683D02*
X0175016Y0240227D01*
X0174622Y0240227D01*
X0174622Y0244307D01*
X0176787Y0246472D01*
X0176787Y0253953D01*
X0172457Y0258283D01*
X0172457Y0273047D01*
X0161118Y0284386D01*
X0161118Y0299622D01*
X0171118Y0288835D02*
X0171118Y0282102D01*
X0174694Y0278527D01*
X0174694Y0269898D01*
X0177450Y0267142D01*
X0185646Y0267142D01*
X0187077Y0268573D01*
X0187077Y0271079D01*
X0187471Y0272260D01*
X0191157Y0272260D01*
X0194307Y0280528D02*
X0186039Y0280528D01*
X0186039Y0304150D01*
X0194307Y0304150D01*
X0194307Y0280528D01*
X0194307Y0281246D02*
X0186039Y0281246D01*
X0186039Y0282032D02*
X0194307Y0282032D01*
X0194307Y0282818D02*
X0186039Y0282818D01*
X0186039Y0283603D02*
X0194307Y0283603D01*
X0194307Y0284389D02*
X0186039Y0284389D01*
X0186039Y0285175D02*
X0194307Y0285175D01*
X0194307Y0285961D02*
X0186039Y0285961D01*
X0186039Y0286747D02*
X0194307Y0286747D01*
X0194307Y0287533D02*
X0186039Y0287533D01*
X0186039Y0288319D02*
X0194307Y0288319D01*
X0194307Y0289105D02*
X0186039Y0289105D01*
X0186039Y0289891D02*
X0194307Y0289891D01*
X0194307Y0290677D02*
X0186039Y0290677D01*
X0186039Y0291463D02*
X0194307Y0291463D01*
X0194307Y0292248D02*
X0186039Y0292248D01*
X0186039Y0293034D02*
X0194307Y0293034D01*
X0194307Y0293820D02*
X0186039Y0293820D01*
X0186039Y0294606D02*
X0194307Y0294606D01*
X0194307Y0295392D02*
X0186039Y0295392D01*
X0186039Y0296178D02*
X0194307Y0296178D01*
X0194307Y0296964D02*
X0186039Y0296964D01*
X0186039Y0297750D02*
X0194307Y0297750D01*
X0194307Y0298536D02*
X0186039Y0298536D01*
X0186039Y0299322D02*
X0194307Y0299322D01*
X0194307Y0300108D02*
X0186039Y0300108D01*
X0186039Y0300894D02*
X0194307Y0300894D01*
X0194307Y0301679D02*
X0186039Y0301679D01*
X0186039Y0302465D02*
X0194307Y0302465D01*
X0194307Y0303251D02*
X0186039Y0303251D01*
X0186039Y0304037D02*
X0194307Y0304037D01*
X0198244Y0304037D02*
X0204937Y0304037D01*
X0204937Y0303251D02*
X0198244Y0303251D01*
X0198244Y0302465D02*
X0204937Y0302465D01*
X0204937Y0301679D02*
X0198244Y0301679D01*
X0198244Y0300894D02*
X0204937Y0300894D01*
X0204937Y0300108D02*
X0198244Y0300108D01*
X0198244Y0299322D02*
X0204937Y0299322D01*
X0204937Y0298536D02*
X0198244Y0298536D01*
X0198244Y0297750D02*
X0204937Y0297750D01*
X0204937Y0296964D02*
X0198244Y0296964D01*
X0198244Y0296178D02*
X0204937Y0296178D01*
X0204937Y0295392D02*
X0198244Y0295392D01*
X0198244Y0294606D02*
X0204937Y0294606D01*
X0204937Y0293820D02*
X0198244Y0293820D01*
X0198244Y0293034D02*
X0204937Y0293034D01*
X0204937Y0292248D02*
X0198244Y0292248D01*
X0198244Y0291463D02*
X0204937Y0291463D01*
X0204937Y0290677D02*
X0198244Y0290677D01*
X0198244Y0289891D02*
X0204937Y0289891D01*
X0204937Y0289105D02*
X0198244Y0289105D01*
X0198244Y0288319D02*
X0204937Y0288319D01*
X0204937Y0287533D02*
X0198244Y0287533D01*
X0198244Y0286747D02*
X0204937Y0286747D01*
X0204937Y0285961D02*
X0198244Y0285961D01*
X0198244Y0285175D02*
X0204937Y0285175D01*
X0204937Y0284389D02*
X0198244Y0284389D01*
X0198244Y0283603D02*
X0204937Y0283603D01*
X0204937Y0282818D02*
X0198244Y0282818D01*
X0198244Y0282032D02*
X0204937Y0282032D01*
X0204937Y0281246D02*
X0198244Y0281246D01*
X0198244Y0280460D02*
X0204937Y0280460D01*
X0204937Y0279674D02*
X0198244Y0279674D01*
X0198244Y0278888D02*
X0204937Y0278888D01*
X0204937Y0278102D02*
X0198244Y0278102D01*
X0198244Y0277316D02*
X0204937Y0277316D01*
X0204937Y0276530D02*
X0198244Y0276530D01*
X0198244Y0275744D02*
X0204937Y0275744D01*
X0204937Y0274958D02*
X0198244Y0274958D01*
X0198244Y0274172D02*
X0204937Y0274172D01*
X0204937Y0273387D02*
X0198244Y0273387D01*
X0198244Y0272601D02*
X0204937Y0272601D01*
X0204937Y0271815D02*
X0198244Y0271815D01*
X0198244Y0271029D02*
X0204937Y0271029D01*
X0204937Y0270243D02*
X0198244Y0270243D01*
X0198244Y0269457D02*
X0204937Y0269457D01*
X0204937Y0268671D02*
X0198244Y0268671D01*
X0198244Y0267885D02*
X0204937Y0267885D01*
X0204937Y0267099D02*
X0198244Y0267099D01*
X0198244Y0266748D02*
X0198244Y0306512D01*
X0204937Y0306512D01*
X0204937Y0263992D01*
X0196669Y0263992D01*
X0196669Y0260843D01*
X0193913Y0258087D01*
X0189976Y0258087D01*
X0184465Y0252575D01*
X0184465Y0250033D01*
X0184366Y0249935D01*
X0184366Y0248128D01*
X0184465Y0248030D01*
X0184465Y0243913D01*
X0180921Y0243913D01*
X0180921Y0249031D01*
X0178559Y0249031D01*
X0178559Y0258899D01*
X0185120Y0258899D01*
X0185702Y0259481D01*
X0185702Y0261630D01*
X0186827Y0261630D01*
X0188008Y0262811D01*
X0188008Y0264780D01*
X0189976Y0266748D01*
X0198244Y0266748D01*
X0196669Y0263956D02*
X0188008Y0263956D01*
X0188008Y0264742D02*
X0204937Y0264742D01*
X0204937Y0265527D02*
X0188756Y0265527D01*
X0189542Y0266313D02*
X0204937Y0266313D01*
X0199819Y0260699D02*
X0193019Y0253899D01*
X0191157Y0253899D01*
X0191157Y0251787D01*
X0189583Y0250213D01*
X0189583Y0245606D01*
X0189287Y0245311D01*
X0191846Y0245311D02*
X0191846Y0248933D01*
X0194406Y0247457D02*
X0194406Y0245311D01*
X0194406Y0247457D02*
X0199819Y0252870D01*
X0199819Y0253899D01*
X0195067Y0259240D02*
X0185461Y0259240D01*
X0185702Y0260026D02*
X0195853Y0260026D01*
X0196639Y0260812D02*
X0185702Y0260812D01*
X0185702Y0261598D02*
X0196669Y0261598D01*
X0196669Y0262384D02*
X0187581Y0262384D01*
X0188008Y0263170D02*
X0196669Y0263170D01*
X0194281Y0258454D02*
X0178559Y0258454D01*
X0178559Y0257668D02*
X0189558Y0257668D01*
X0188772Y0256882D02*
X0178559Y0256882D01*
X0178559Y0256096D02*
X0187986Y0256096D01*
X0187200Y0255311D02*
X0178559Y0255311D01*
X0178559Y0254525D02*
X0186414Y0254525D01*
X0185628Y0253739D02*
X0178559Y0253739D01*
X0178559Y0252953D02*
X0184843Y0252953D01*
X0184465Y0252167D02*
X0178559Y0252167D01*
X0178559Y0251381D02*
X0184465Y0251381D01*
X0184465Y0250595D02*
X0178559Y0250595D01*
X0178559Y0249809D02*
X0184366Y0249809D01*
X0184366Y0249023D02*
X0180921Y0249023D01*
X0180921Y0248237D02*
X0184366Y0248237D01*
X0184465Y0247451D02*
X0180921Y0247451D01*
X0180921Y0246666D02*
X0184465Y0246666D01*
X0184465Y0245880D02*
X0180921Y0245880D01*
X0180921Y0245094D02*
X0184465Y0245094D01*
X0184169Y0245311D02*
X0184169Y0243421D01*
X0185646Y0241945D01*
X0195094Y0241945D01*
X0197063Y0239976D01*
X0197063Y0225409D01*
X0195685Y0224031D01*
X0194406Y0228343D02*
X0194406Y0230035D01*
X0193126Y0231315D01*
X0180528Y0231315D01*
X0178559Y0233283D01*
X0178559Y0236683D01*
X0180921Y0229375D02*
X0184465Y0229375D01*
X0184465Y0228590D02*
X0180921Y0228590D01*
X0180921Y0227804D02*
X0184465Y0227804D01*
X0184465Y0227018D02*
X0180921Y0227018D01*
X0180921Y0226232D02*
X0184465Y0226232D01*
X0184465Y0225446D02*
X0180921Y0225446D01*
X0180921Y0224660D02*
X0184465Y0224660D01*
X0184465Y0223874D02*
X0180921Y0223874D01*
X0180921Y0223088D02*
X0184465Y0223088D01*
X0184465Y0222302D02*
X0180921Y0222302D01*
X0180921Y0221516D02*
X0184465Y0221516D01*
X0184465Y0220730D02*
X0180921Y0220730D01*
X0180574Y0219944D02*
X0184465Y0219944D01*
X0184463Y0219159D02*
X0179788Y0219159D01*
X0179003Y0218373D02*
X0184449Y0218373D01*
X0184449Y0217587D02*
X0178217Y0217587D01*
X0177431Y0216801D02*
X0184465Y0216801D01*
X0184465Y0216015D02*
X0176645Y0216015D01*
X0175859Y0215229D02*
X0184465Y0215229D01*
X0184465Y0214443D02*
X0175073Y0214443D01*
X0175803Y0210843D02*
X0163193Y0210843D01*
X0162811Y0210461D01*
X0156906Y0212871D02*
X0184465Y0212871D01*
X0184465Y0213657D02*
X0156906Y0213657D01*
X0175803Y0210843D02*
X0177772Y0208874D01*
X0177772Y0202575D01*
X0181709Y0194307D02*
X0177772Y0190370D01*
X0177772Y0189189D01*
X0186559Y0178291D02*
X0199819Y0178291D01*
X0199819Y0178559D02*
X0199819Y0171472D01*
X0196669Y0168323D01*
X0189189Y0168323D01*
X0186039Y0171472D01*
X0186039Y0177772D01*
X0189189Y0180921D01*
X0197457Y0180921D01*
X0199819Y0178559D01*
X0199301Y0179077D02*
X0187345Y0179077D01*
X0188131Y0179863D02*
X0198515Y0179863D01*
X0197729Y0180649D02*
X0188917Y0180649D01*
X0186039Y0177505D02*
X0199819Y0177505D01*
X0199819Y0176719D02*
X0186039Y0176719D01*
X0186039Y0175933D02*
X0199819Y0175933D01*
X0199819Y0175147D02*
X0186039Y0175147D01*
X0186039Y0174362D02*
X0199819Y0174362D01*
X0199819Y0173576D02*
X0186039Y0173576D01*
X0186039Y0172790D02*
X0199819Y0172790D01*
X0199819Y0172004D02*
X0186039Y0172004D01*
X0186294Y0171218D02*
X0199564Y0171218D01*
X0198778Y0170432D02*
X0187080Y0170432D01*
X0187866Y0169646D02*
X0197993Y0169646D01*
X0197207Y0168860D02*
X0188652Y0168860D01*
X0173441Y0170432D02*
X0154878Y0170432D01*
X0147457Y0166748D02*
X0147457Y0159268D01*
X0135252Y0159268D01*
X0135252Y0166748D01*
X0147457Y0166748D01*
X0147457Y0166502D02*
X0135252Y0166502D01*
X0135252Y0165716D02*
X0147457Y0165716D01*
X0147457Y0164931D02*
X0135252Y0164931D01*
X0135252Y0164145D02*
X0147457Y0164145D01*
X0147457Y0163359D02*
X0135252Y0163359D01*
X0135252Y0162573D02*
X0147457Y0162573D01*
X0147457Y0161787D02*
X0135252Y0161787D01*
X0135252Y0161001D02*
X0147457Y0161001D01*
X0147457Y0160215D02*
X0135252Y0160215D01*
X0135252Y0159429D02*
X0147457Y0159429D01*
X0137969Y0149071D02*
X0137969Y0147732D01*
X0155626Y0099622D02*
X0155626Y0095783D01*
X0147850Y0088008D01*
X0149031Y0075016D02*
X0164780Y0075016D01*
X0164780Y0065961D01*
X0149031Y0065961D01*
X0149031Y0075016D01*
X0149031Y0074551D02*
X0164780Y0074551D01*
X0164780Y0073765D02*
X0149031Y0073765D01*
X0149031Y0072979D02*
X0164780Y0072979D01*
X0164780Y0072193D02*
X0149031Y0072193D01*
X0149031Y0071407D02*
X0164780Y0071407D01*
X0164780Y0070621D02*
X0149031Y0070621D01*
X0149031Y0069835D02*
X0164780Y0069835D01*
X0164780Y0069049D02*
X0149031Y0069049D01*
X0149031Y0068263D02*
X0164780Y0068263D01*
X0164780Y0067477D02*
X0149031Y0067477D01*
X0149031Y0066691D02*
X0164780Y0066691D01*
X0152969Y0067142D02*
X0147600Y0061773D01*
X0141157Y0061773D01*
X0141157Y0068573D02*
X0141157Y0076197D01*
X0131315Y0078559D02*
X0122260Y0078559D01*
X0122260Y0094307D01*
X0131315Y0094307D01*
X0131315Y0078559D01*
X0131315Y0079266D02*
X0122260Y0079266D01*
X0122260Y0080052D02*
X0131315Y0080052D01*
X0131315Y0080838D02*
X0122260Y0080838D01*
X0122260Y0081624D02*
X0131315Y0081624D01*
X0131315Y0082410D02*
X0122260Y0082410D01*
X0122260Y0083196D02*
X0131315Y0083196D01*
X0131315Y0083982D02*
X0122260Y0083982D01*
X0122260Y0084767D02*
X0131315Y0084767D01*
X0131315Y0085553D02*
X0122260Y0085553D01*
X0122260Y0086339D02*
X0131315Y0086339D01*
X0131315Y0087125D02*
X0122260Y0087125D01*
X0122260Y0087911D02*
X0131315Y0087911D01*
X0131315Y0088697D02*
X0122260Y0088697D01*
X0122260Y0089483D02*
X0131315Y0089483D01*
X0131315Y0090269D02*
X0122260Y0090269D01*
X0122260Y0091055D02*
X0131315Y0091055D01*
X0131315Y0091841D02*
X0122260Y0091841D01*
X0122260Y0092627D02*
X0131315Y0092627D01*
X0131315Y0093412D02*
X0122260Y0093412D01*
X0122260Y0094198D02*
X0131315Y0094198D01*
X0190764Y0071472D02*
X0190764Y0063992D01*
X0202969Y0063992D01*
X0202969Y0071472D01*
X0190764Y0071472D01*
X0190764Y0071407D02*
X0202969Y0071407D01*
X0202969Y0070621D02*
X0190764Y0070621D01*
X0190764Y0069835D02*
X0202969Y0069835D01*
X0202969Y0069049D02*
X0190764Y0069049D01*
X0190764Y0068263D02*
X0202969Y0068263D01*
X0202969Y0067477D02*
X0190764Y0067477D01*
X0190764Y0066691D02*
X0202969Y0066691D01*
X0202969Y0065906D02*
X0190764Y0065906D01*
X0190764Y0065120D02*
X0202969Y0065120D01*
X0202969Y0064334D02*
X0190764Y0064334D01*
X0195488Y0081909D02*
X0193126Y0086240D01*
X0193126Y0086416D01*
X0190513Y0210843D02*
X0190513Y0212668D01*
X0190513Y0218323D02*
X0186433Y0218323D01*
X0186728Y0218618D01*
X0186728Y0228343D01*
X0184465Y0244308D02*
X0180921Y0244308D01*
X0181709Y0253593D02*
X0184051Y0253593D01*
X0181872Y0261793D02*
X0184465Y0264386D01*
X0181709Y0264386D02*
X0181709Y0261793D01*
X0181872Y0261793D01*
X0181709Y0261793D02*
X0181546Y0261793D01*
X0178953Y0264386D01*
X0162811Y0264768D02*
X0162811Y0268323D01*
X0162417Y0269898D01*
X0145631Y0323047D02*
X0142679Y0326000D01*
X0142535Y0326000D01*
X0145238Y0323441D02*
X0145631Y0323047D01*
X0134715Y0335109D02*
X0141118Y0341512D01*
X0141118Y0357693D01*
X0153717Y0370291D01*
X0154150Y0370291D01*
X0143480Y0359622D01*
X0141118Y0359622D01*
X0141118Y0357693D01*
X0154150Y0370291D02*
X0156512Y0370291D01*
X0159268Y0373047D01*
X0159268Y0376591D01*
X0163520Y0380665D02*
X0163520Y0368795D01*
X0166354Y0365961D01*
X0166354Y0342732D01*
X0181118Y0359622D02*
X0181118Y0361039D01*
X0171472Y0370685D01*
X0171866Y0377127D02*
X0190764Y0377127D01*
X0190764Y0377913D02*
X0171866Y0377913D01*
X0171333Y0378699D02*
X0190764Y0378699D01*
X0190764Y0379485D02*
X0170547Y0379485D01*
X0169761Y0380271D02*
X0190764Y0380271D01*
X0195488Y0369504D02*
X0195488Y0360055D01*
X0204543Y0360055D01*
X0204543Y0369504D01*
X0195488Y0369504D01*
X0195488Y0369268D02*
X0204543Y0369268D01*
X0204543Y0368482D02*
X0195488Y0368482D01*
X0195488Y0367696D02*
X0204543Y0367696D01*
X0204543Y0366910D02*
X0195488Y0366910D01*
X0195488Y0366124D02*
X0204543Y0366124D01*
X0204543Y0365338D02*
X0195488Y0365338D01*
X0195488Y0364552D02*
X0204543Y0364552D01*
X0204543Y0363767D02*
X0195488Y0363767D01*
X0195488Y0362981D02*
X0204543Y0362981D01*
X0204543Y0362195D02*
X0195488Y0362195D01*
X0195488Y0361409D02*
X0204543Y0361409D01*
X0204543Y0360623D02*
X0195488Y0360623D01*
X0201118Y0359622D02*
X0202575Y0359228D01*
X0202575Y0367535D01*
X0190764Y0357299D02*
X0190764Y0349189D01*
X0191118Y0348835D01*
X0198244Y0306395D02*
X0204937Y0306395D01*
X0204937Y0305609D02*
X0198244Y0305609D01*
X0198244Y0304823D02*
X0204937Y0304823D01*
X0167236Y0392280D02*
X0165488Y0392280D01*
X0163598Y0392358D02*
X0163598Y0395094D01*
X0163992Y0395488D01*
X0161551Y0395961D02*
X0161551Y0392280D01*
X0159583Y0392280D02*
X0159583Y0394386D01*
X0158480Y0395488D01*
X0124228Y0395488D01*
X0119110Y0390370D01*
X0119110Y0390075D01*
X0119110Y0384366D02*
X0116059Y0384366D01*
X0113598Y0386827D01*
X0113598Y0392732D01*
X0118323Y0397457D01*
X0160055Y0397457D01*
X0161551Y0395961D01*
X0163598Y0392358D02*
X0163520Y0392280D01*
X0157614Y0392280D02*
X0143211Y0392280D01*
X0141115Y0390184D01*
X0139583Y0390075D01*
X0125986Y0377772D02*
X0125986Y0376630D01*
X0125986Y0375803D01*
X0123047Y0375409D01*
X0123047Y0378165D02*
X0125986Y0377772D01*
X0130134Y0335109D02*
X0134715Y0335109D01*
X0130134Y0328309D02*
X0130134Y0324622D01*
X0083677Y0388008D02*
X0077378Y0388008D01*
X0197313Y0210843D02*
X0201787Y0210843D01*
D29*
X0165567Y0243913D02*
X0162811Y0247850D01*
X0162811Y0251394D01*
X0162811Y0253768D01*
X0162811Y0223835D02*
X0162811Y0221461D01*
X0201118Y0299622D02*
X0201118Y0341276D01*
X0209661Y0349819D01*
X0209661Y0373835D01*
X0209268Y0373441D01*
X0175409Y0373441D01*
X0184071Y0395345D02*
X0187220Y0395345D01*
X0188402Y0395345D02*
X0196419Y0395345D01*
X0209661Y0382102D01*
X0209661Y0373835D01*
X0193126Y0099622D02*
X0191945Y0098441D01*
X0192669Y0082127D02*
X0180921Y0082102D01*
X0137969Y0082102D01*
X0137969Y0088008D02*
X0137969Y0097732D01*
X0117969Y0097732D02*
X0117969Y0060173D01*
X0107969Y0070961D02*
X0107969Y0086945D01*
X0097969Y0097732D02*
X0097969Y0060173D01*
X0087969Y0070961D02*
X0087969Y0086945D01*
X0180921Y0074228D02*
X0180921Y0072260D01*
X0181709Y0072260D01*
X0180921Y0072260D02*
X0180724Y0072260D01*
X0192669Y0082127D02*
X0195488Y0081909D01*
D30*
X0175409Y0373441D03*
X0155724Y0373441D03*
D31*
X0162811Y0251394D02*
X0162811Y0223835D01*
X0193126Y0099622D02*
X0193126Y0086416D01*
X0188418Y0081742D01*
X0137969Y0082102D01*
X0137969Y0088008D01*
X0180921Y0082102D02*
X0180921Y0074228D01*
D32*
X0165567Y0243913D03*
D33*
X0164780Y0249425D02*
X0164780Y0251394D01*
X0162811Y0251394D01*
D34*
X0186547Y0249031D03*
D35*
X0065173Y0046669D02*
X0064780Y0046276D01*
M02*
