G75*
%MOIN*%
%OFA0B0*%
%FSLAX25Y25*%
%IPPOS*%
%LPD*%
%AMOC8*
5,1,8,0,0,1.08239X$1,22.5*
%
%ADD10R,0.05000X0.13386*%
%ADD11R,0.09449X0.06496*%
%ADD12R,0.01102X0.03150*%
%ADD13R,0.03500X0.04200*%
%ADD14R,0.03000X0.02700*%
%ADD15R,0.04200X0.03500*%
%ADD16C,0.10000*%
%ADD17R,0.05512X0.03150*%
%ADD18R,0.11201X0.06500*%
%ADD19R,0.01654X0.03500*%
%ADD20R,0.11000X0.06500*%
%ADD21R,0.06000X0.03800*%
%ADD22R,0.04134X0.05512*%
%ADD23R,0.13386X0.05000*%
%ADD24R,0.15748X0.06299*%
%ADD25R,0.07400X0.04800*%
%ADD26C,0.08500*%
%ADD27C,0.01969*%
%ADD28C,0.01575*%
%ADD29C,0.01587*%
%ADD30C,0.00787*%
%ADD31C,0.03937*%
%ADD32C,0.02953*%
%ADD33C,0.03543*%
%ADD34C,0.05906*%
%ADD35C,0.07874*%
%ADD36C,0.02375*%
D10*
X0067969Y0086945D03*
X0077969Y0097732D03*
X0087969Y0086945D03*
X0097969Y0097732D03*
X0107969Y0086945D03*
X0117969Y0097732D03*
X0127969Y0086945D03*
X0137969Y0097732D03*
X0127969Y0136945D03*
X0137969Y0147732D03*
X0117969Y0147732D03*
X0107969Y0136945D03*
X0097969Y0147732D03*
X0087969Y0136945D03*
X0077969Y0147732D03*
X0067969Y0136945D03*
X0087969Y0070961D03*
X0097969Y0060173D03*
X0107969Y0070961D03*
X0117969Y0060173D03*
X0118992Y0288835D03*
X0108992Y0299622D03*
X0098992Y0288835D03*
X0088992Y0299622D03*
X0078992Y0288835D03*
X0078992Y0348835D03*
X0088992Y0359622D03*
X0098992Y0348835D03*
X0108992Y0359622D03*
X0118992Y0348835D03*
X0128992Y0359622D03*
X0138992Y0348835D03*
X0148992Y0359622D03*
X0158992Y0348835D03*
X0168992Y0359622D03*
X0178992Y0348835D03*
X0188992Y0359622D03*
X0198992Y0348835D03*
X0208992Y0359622D03*
X0208992Y0299622D03*
X0198992Y0288835D03*
X0188992Y0299622D03*
X0178992Y0288835D03*
X0168992Y0299622D03*
X0158992Y0288835D03*
X0148992Y0299622D03*
X0138992Y0288835D03*
X0128992Y0299622D03*
D11*
X0161551Y0386472D03*
D12*
X0161551Y0380665D03*
X0159583Y0380665D03*
X0157614Y0380665D03*
X0163520Y0380665D03*
X0165488Y0380665D03*
X0165488Y0392280D03*
X0163520Y0392280D03*
X0161551Y0392280D03*
X0159583Y0392280D03*
X0157614Y0392280D03*
D13*
X0178309Y0375016D03*
X0185109Y0375016D03*
X0152431Y0323047D03*
X0152431Y0314780D03*
X0145631Y0314780D03*
X0145631Y0323047D03*
X0132786Y0376630D03*
X0125986Y0376630D03*
X0180277Y0252969D03*
X0187077Y0252969D03*
X0190120Y0220685D03*
X0196920Y0220685D03*
X0196920Y0212417D03*
X0190120Y0212417D03*
X0182746Y0212417D03*
X0175946Y0212417D03*
X0175946Y0220685D03*
X0182746Y0220685D03*
D14*
X0176984Y0391420D03*
X0176984Y0395620D03*
D15*
X0184071Y0395345D03*
X0184071Y0388545D03*
X0169110Y0333928D03*
X0169110Y0327128D03*
X0178165Y0266998D03*
X0178165Y0260198D03*
X0186433Y0260198D03*
X0186433Y0266998D03*
X0174622Y0240227D03*
X0174622Y0233427D03*
X0141157Y0068573D03*
X0141157Y0061773D03*
D16*
X0068717Y0064780D03*
X0177772Y0189189D03*
X0177772Y0202575D03*
X0204150Y0272654D03*
X0077378Y0388008D03*
X0064386Y0356512D03*
D17*
X0119110Y0383087D03*
X0119110Y0391354D03*
X0139583Y0391354D03*
X0139583Y0383087D03*
D18*
X0188008Y0236827D03*
D19*
X0189287Y0245311D03*
X0186728Y0245311D03*
X0184169Y0245311D03*
X0181610Y0245311D03*
X0191846Y0245311D03*
X0194406Y0245311D03*
X0194406Y0228343D03*
X0191846Y0228343D03*
X0189287Y0228343D03*
X0186728Y0228343D03*
X0184169Y0228343D03*
X0181610Y0228343D03*
D20*
X0162811Y0221461D03*
X0162811Y0210461D03*
X0162811Y0253768D03*
X0162811Y0264768D03*
D21*
X0195882Y0261399D03*
X0195882Y0253199D03*
D22*
X0203067Y0245094D03*
X0208972Y0245094D03*
X0208972Y0230921D03*
X0203067Y0230921D03*
D23*
X0084386Y0324228D03*
X0073598Y0314228D03*
X0073598Y0334228D03*
D24*
X0102772Y0176984D03*
X0126787Y0176984D03*
X0156709Y0072260D03*
X0180724Y0072260D03*
D25*
X0195488Y0068909D03*
X0195488Y0081909D03*
X0140764Y0163791D03*
X0140764Y0176791D03*
D26*
X0168126Y0174622D03*
X0193126Y0174622D03*
X0193126Y0099622D03*
X0155626Y0099622D03*
D27*
X0162811Y0210461D02*
X0164768Y0212417D01*
X0171222Y0212417D02*
X0175946Y0212417D01*
X0191846Y0228343D02*
X0194406Y0228343D01*
X0194583Y0228165D01*
X0197850Y0228165D01*
X0194307Y0336827D02*
X0194307Y0368717D01*
X0194307Y0373441D02*
X0189976Y0373441D01*
X0184071Y0388545D02*
X0179859Y0388545D01*
X0176984Y0391420D01*
X0176984Y0395620D02*
X0176722Y0395882D01*
X0164386Y0395882D01*
X0163992Y0395488D01*
X0176984Y0395882D02*
X0183534Y0395882D01*
X0184071Y0395345D01*
X0187220Y0395345D02*
X0188402Y0395345D01*
X0157693Y0373441D02*
X0144307Y0373441D01*
X0139583Y0378165D01*
X0138047Y0376630D01*
X0132786Y0376630D01*
X0139583Y0378165D02*
X0139583Y0383087D01*
X0073598Y0334228D02*
X0073441Y0334071D01*
X0065567Y0334071D01*
X0064386Y0332890D01*
X0064386Y0356512D01*
X0064386Y0332890D02*
X0059268Y0327772D01*
X0059268Y0116433D01*
X0077969Y0097732D01*
D28*
X0164780Y0249425D02*
X0164780Y0251394D01*
X0162811Y0251394D01*
X0178165Y0266999D02*
X0178208Y0267001D01*
X0178250Y0267006D01*
X0178292Y0267016D01*
X0178333Y0267029D01*
X0178373Y0267045D01*
X0178411Y0267065D01*
X0178447Y0267088D01*
X0178481Y0267114D01*
X0178513Y0267143D01*
X0178542Y0267175D01*
X0178568Y0267209D01*
X0178591Y0267245D01*
X0178611Y0267283D01*
X0178627Y0267323D01*
X0178640Y0267364D01*
X0178650Y0267406D01*
X0178655Y0267448D01*
X0178657Y0267491D01*
X0178657Y0275311D01*
X0188992Y0285646D01*
X0188992Y0299622D01*
X0173835Y0314780D01*
X0169110Y0314780D01*
X0169110Y0327128D01*
X0169110Y0314780D02*
X0152431Y0314780D01*
X0152431Y0323047D01*
X0187364Y0267929D02*
X0208992Y0267929D01*
X0189287Y0249081D02*
X0189287Y0245311D01*
X0189287Y0249047D01*
X0188909Y0249031D01*
X0188909Y0249081D02*
X0189287Y0249081D01*
X0186433Y0266998D02*
X0186435Y0267056D01*
X0186440Y0267115D01*
X0186449Y0267172D01*
X0186462Y0267230D01*
X0186479Y0267286D01*
X0186498Y0267341D01*
X0186522Y0267394D01*
X0186548Y0267447D01*
X0186578Y0267497D01*
X0186611Y0267545D01*
X0186647Y0267591D01*
X0186685Y0267635D01*
X0186727Y0267677D01*
X0186771Y0267715D01*
X0186817Y0267751D01*
X0186865Y0267784D01*
X0186915Y0267814D01*
X0186968Y0267840D01*
X0187021Y0267864D01*
X0187076Y0267883D01*
X0187132Y0267900D01*
X0187190Y0267913D01*
X0187247Y0267922D01*
X0187306Y0267927D01*
X0187364Y0267929D01*
D29*
X0190370Y0273047D03*
X0192732Y0274228D03*
X0194701Y0272260D03*
X0196276Y0274228D03*
X0195094Y0276591D03*
X0190764Y0276984D03*
X0193913Y0263205D03*
X0195882Y0263205D03*
X0197850Y0263205D03*
X0191945Y0239189D03*
X0191945Y0236827D03*
X0191945Y0234465D03*
X0188008Y0234465D03*
X0188008Y0236827D03*
X0188008Y0239189D03*
X0184465Y0239189D03*
X0184465Y0236827D03*
X0184465Y0234465D03*
X0189189Y0230921D03*
X0186433Y0220685D03*
X0174622Y0236039D03*
X0169504Y0232496D03*
X0173047Y0220685D03*
X0181709Y0194307D03*
X0190370Y0179740D03*
X0187220Y0176591D03*
X0187614Y0171866D03*
X0189976Y0169504D03*
X0195488Y0169110D03*
X0198244Y0171866D03*
X0198638Y0177378D03*
X0196276Y0179740D03*
X0201394Y0212417D03*
X0201394Y0220685D03*
X0204543Y0226984D03*
X0165567Y0269504D03*
X0163598Y0271866D03*
X0162417Y0269504D03*
X0159661Y0269898D03*
X0156906Y0271079D03*
X0155724Y0267929D03*
X0155724Y0264386D03*
X0153362Y0250606D03*
X0109661Y0181709D03*
X0112417Y0180921D03*
X0112024Y0176591D03*
X0112024Y0172654D03*
X0107299Y0172260D03*
X0102969Y0172260D03*
X0098638Y0172260D03*
X0096669Y0181709D03*
X0101394Y0181709D03*
X0105331Y0181709D03*
X0100606Y0159661D03*
X0107693Y0152575D03*
X0135646Y0163205D03*
X0137614Y0160055D03*
X0140764Y0160055D03*
X0143913Y0160055D03*
X0145882Y0163598D03*
X0123441Y0093126D03*
X0123441Y0090370D03*
X0123441Y0087614D03*
X0123441Y0084858D03*
X0123441Y0081709D03*
X0123441Y0079346D03*
X0141157Y0076197D03*
X0147850Y0088008D03*
X0150213Y0067142D03*
X0152969Y0067142D03*
X0155724Y0067142D03*
X0158480Y0067142D03*
X0161630Y0067142D03*
X0163992Y0067142D03*
X0193126Y0065173D03*
X0196276Y0065173D03*
X0199425Y0065173D03*
X0201394Y0066354D03*
X0201000Y0069504D03*
X0078165Y0244701D03*
X0074622Y0263992D03*
X0089189Y0276984D03*
X0107693Y0274622D03*
X0121079Y0358874D03*
X0123047Y0375803D03*
X0123047Y0377772D03*
X0149031Y0380528D03*
X0150606Y0378953D03*
X0152969Y0380921D03*
X0154543Y0378559D03*
X0150606Y0382890D03*
X0149031Y0385252D03*
X0150213Y0387614D03*
X0151787Y0385646D03*
X0154150Y0384858D03*
X0155724Y0386827D03*
X0157693Y0388402D03*
X0157693Y0384858D03*
X0161236Y0386433D03*
X0164780Y0384858D03*
X0166354Y0386827D03*
X0164780Y0388402D03*
X0168323Y0388402D03*
X0168323Y0384858D03*
X0176591Y0387220D03*
X0178559Y0385646D03*
X0181709Y0385252D03*
X0184465Y0385252D03*
X0188008Y0385252D03*
X0188008Y0388402D03*
X0185252Y0378953D03*
X0199031Y0358480D03*
X0204150Y0361236D03*
X0204150Y0363598D03*
X0204543Y0366748D03*
X0206512Y0368717D03*
X0209661Y0367929D03*
X0158480Y0358874D03*
X0158087Y0378953D03*
X0153362Y0388402D03*
X0083677Y0388008D03*
X0063992Y0093520D03*
X0063992Y0090764D03*
X0063992Y0088008D03*
X0063992Y0085252D03*
X0063992Y0082102D03*
X0063598Y0079740D03*
D30*
X0062417Y0078953D02*
X0062417Y0094701D01*
X0071472Y0094701D01*
X0071472Y0078953D01*
X0062417Y0078953D01*
X0062417Y0079266D02*
X0071472Y0079266D01*
X0071472Y0080052D02*
X0062417Y0080052D01*
X0062417Y0080838D02*
X0071472Y0080838D01*
X0071472Y0081624D02*
X0062417Y0081624D01*
X0062417Y0082410D02*
X0071472Y0082410D01*
X0071472Y0083196D02*
X0062417Y0083196D01*
X0062417Y0083982D02*
X0071472Y0083982D01*
X0071472Y0084767D02*
X0062417Y0084767D01*
X0062417Y0085553D02*
X0071472Y0085553D01*
X0071472Y0086339D02*
X0062417Y0086339D01*
X0062417Y0087125D02*
X0071472Y0087125D01*
X0071472Y0087911D02*
X0062417Y0087911D01*
X0062417Y0088697D02*
X0071472Y0088697D01*
X0071472Y0089483D02*
X0062417Y0089483D01*
X0062417Y0090269D02*
X0071472Y0090269D01*
X0071472Y0091055D02*
X0062417Y0091055D01*
X0062417Y0091841D02*
X0071472Y0091841D01*
X0071472Y0092627D02*
X0062417Y0092627D01*
X0062417Y0093412D02*
X0071472Y0093412D01*
X0071472Y0094198D02*
X0062417Y0094198D01*
X0067969Y0086945D02*
X0067969Y0065528D01*
X0068717Y0064780D01*
X0070685Y0118323D02*
X0134465Y0118323D01*
X0178501Y0166800D01*
X0180528Y0168827D01*
X0180528Y0179346D01*
X0188008Y0186827D01*
X0188008Y0194209D01*
X0209413Y0215614D01*
X0209413Y0226957D01*
X0208972Y0230921D01*
X0208972Y0245094D01*
X0203067Y0245094D02*
X0203067Y0230921D01*
X0204543Y0230823D01*
X0204543Y0226984D01*
X0201394Y0220685D02*
X0196920Y0220685D01*
X0193520Y0223047D02*
X0193520Y0215817D01*
X0190120Y0212417D01*
X0196920Y0212417D02*
X0201394Y0212417D01*
X0193520Y0223047D02*
X0192339Y0224228D01*
X0191157Y0224228D01*
X0189287Y0226098D01*
X0189287Y0228343D01*
X0189287Y0230823D01*
X0189189Y0230921D01*
X0186728Y0228343D02*
X0186827Y0228244D01*
X0186827Y0225803D01*
X0190120Y0222510D01*
X0190120Y0220685D01*
X0186433Y0220685D01*
X0182746Y0220685D02*
X0182746Y0223593D01*
X0184169Y0225016D01*
X0184169Y0228343D01*
X0181610Y0228343D02*
X0178559Y0231394D01*
X0178559Y0236683D01*
X0175016Y0240227D01*
X0174622Y0240227D01*
X0174622Y0244307D01*
X0177378Y0247063D01*
X0177378Y0253362D01*
X0172457Y0258283D01*
X0172457Y0271866D01*
X0168992Y0275331D01*
X0168992Y0299622D01*
X0158992Y0288835D02*
X0158992Y0281709D01*
X0170291Y0270409D01*
X0170291Y0256906D01*
X0175016Y0252181D01*
X0175016Y0248244D01*
X0169504Y0242732D01*
X0169504Y0232496D01*
X0174622Y0233427D02*
X0174622Y0236039D01*
X0181610Y0245311D02*
X0181610Y0247555D01*
X0180277Y0248888D01*
X0180277Y0252969D01*
X0183677Y0254937D02*
X0183677Y0248343D01*
X0184169Y0247850D01*
X0184169Y0245311D01*
X0186728Y0245311D02*
X0186728Y0251832D01*
X0187077Y0252969D01*
X0187077Y0259554D01*
X0186433Y0260198D01*
X0183677Y0254937D02*
X0178416Y0260198D01*
X0178165Y0260198D01*
X0174694Y0263670D01*
X0174694Y0277843D01*
X0178992Y0282142D01*
X0178992Y0288835D01*
X0189189Y0278559D02*
X0197457Y0278559D01*
X0197457Y0271079D01*
X0189189Y0271079D01*
X0189189Y0278559D01*
X0189189Y0278102D02*
X0197457Y0278102D01*
X0197457Y0277316D02*
X0189189Y0277316D01*
X0189189Y0276530D02*
X0197457Y0276530D01*
X0197457Y0275744D02*
X0189189Y0275744D01*
X0189189Y0274958D02*
X0197457Y0274958D01*
X0197457Y0274172D02*
X0189189Y0274172D01*
X0189189Y0273387D02*
X0197457Y0273387D01*
X0197457Y0272601D02*
X0189189Y0272601D01*
X0189189Y0271815D02*
X0197457Y0271815D01*
X0204150Y0272654D02*
X0208992Y0272654D01*
X0197850Y0263205D02*
X0196045Y0261399D01*
X0195882Y0261399D01*
X0195882Y0263205D01*
X0195882Y0261399D02*
X0195719Y0261399D01*
X0193913Y0263205D01*
X0194701Y0255331D02*
X0200213Y0255331D01*
X0200213Y0251394D01*
X0196276Y0247457D01*
X0196276Y0243520D01*
X0191551Y0243520D01*
X0191551Y0252181D01*
X0194701Y0255331D01*
X0194681Y0255311D02*
X0200213Y0255311D01*
X0200213Y0254525D02*
X0193895Y0254525D01*
X0193109Y0253739D02*
X0200213Y0253739D01*
X0200213Y0252953D02*
X0192323Y0252953D01*
X0191551Y0252167D02*
X0200213Y0252167D01*
X0200200Y0251381D02*
X0191551Y0251381D01*
X0191551Y0250595D02*
X0199414Y0250595D01*
X0198628Y0249809D02*
X0191551Y0249809D01*
X0191551Y0249023D02*
X0197842Y0249023D01*
X0197056Y0248237D02*
X0191551Y0248237D01*
X0191551Y0247451D02*
X0196276Y0247451D01*
X0196276Y0246666D02*
X0191551Y0246666D01*
X0191551Y0245880D02*
X0196276Y0245880D01*
X0196276Y0245094D02*
X0191551Y0245094D01*
X0191551Y0244308D02*
X0196276Y0244308D01*
X0196276Y0243522D02*
X0191551Y0243522D01*
X0182746Y0220685D02*
X0182746Y0212417D01*
X0175946Y0220685D02*
X0173047Y0220685D01*
X0168717Y0213992D02*
X0168717Y0182496D01*
X0173441Y0182102D01*
X0173441Y0170291D01*
X0121472Y0170685D01*
X0121472Y0182496D01*
X0156906Y0182496D01*
X0156906Y0213992D01*
X0168717Y0213992D01*
X0168717Y0213657D02*
X0156906Y0213657D01*
X0156906Y0212871D02*
X0168717Y0212871D01*
X0168717Y0212085D02*
X0156906Y0212085D01*
X0156906Y0211299D02*
X0168717Y0211299D01*
X0168717Y0210514D02*
X0156906Y0210514D01*
X0156906Y0209728D02*
X0168717Y0209728D01*
X0168717Y0208942D02*
X0156906Y0208942D01*
X0156906Y0208156D02*
X0168717Y0208156D01*
X0168717Y0207370D02*
X0156906Y0207370D01*
X0156906Y0206584D02*
X0168717Y0206584D01*
X0168717Y0205798D02*
X0156906Y0205798D01*
X0156906Y0205012D02*
X0168717Y0205012D01*
X0168717Y0204226D02*
X0156906Y0204226D01*
X0156906Y0203440D02*
X0168717Y0203440D01*
X0168717Y0202654D02*
X0156906Y0202654D01*
X0156906Y0201868D02*
X0168717Y0201868D01*
X0168717Y0201083D02*
X0156906Y0201083D01*
X0156906Y0200297D02*
X0168717Y0200297D01*
X0168717Y0199511D02*
X0156906Y0199511D01*
X0156906Y0198725D02*
X0168717Y0198725D01*
X0168717Y0197939D02*
X0156906Y0197939D01*
X0156906Y0197153D02*
X0168717Y0197153D01*
X0168717Y0196367D02*
X0156906Y0196367D01*
X0156906Y0195581D02*
X0168717Y0195581D01*
X0168717Y0194795D02*
X0156906Y0194795D01*
X0156906Y0194009D02*
X0168717Y0194009D01*
X0168717Y0193223D02*
X0156906Y0193223D01*
X0156906Y0192438D02*
X0168717Y0192438D01*
X0168717Y0191652D02*
X0156906Y0191652D01*
X0156906Y0190866D02*
X0168717Y0190866D01*
X0168717Y0190080D02*
X0156906Y0190080D01*
X0156906Y0189294D02*
X0168717Y0189294D01*
X0168717Y0188508D02*
X0156906Y0188508D01*
X0156906Y0187722D02*
X0168717Y0187722D01*
X0168717Y0186936D02*
X0156906Y0186936D01*
X0156906Y0186150D02*
X0168717Y0186150D01*
X0168717Y0185364D02*
X0156906Y0185364D01*
X0156906Y0184578D02*
X0168717Y0184578D01*
X0168717Y0183792D02*
X0156906Y0183792D01*
X0156906Y0183007D02*
X0168717Y0183007D01*
X0172021Y0182221D02*
X0121472Y0182221D01*
X0121472Y0181435D02*
X0173441Y0181435D01*
X0173441Y0180649D02*
X0121472Y0180649D01*
X0121472Y0179863D02*
X0173441Y0179863D01*
X0173441Y0179077D02*
X0121472Y0179077D01*
X0121472Y0178291D02*
X0173441Y0178291D01*
X0173441Y0177505D02*
X0121472Y0177505D01*
X0121472Y0176719D02*
X0173441Y0176719D01*
X0173441Y0175933D02*
X0121472Y0175933D01*
X0121472Y0175147D02*
X0173441Y0175147D01*
X0173441Y0174362D02*
X0121472Y0174362D01*
X0121472Y0173576D02*
X0173441Y0173576D01*
X0173441Y0172790D02*
X0121472Y0172790D01*
X0121472Y0172004D02*
X0173441Y0172004D01*
X0173441Y0171218D02*
X0121472Y0171218D01*
X0119504Y0167535D02*
X0098638Y0167535D01*
X0093126Y0173047D01*
X0093126Y0191551D01*
X0094898Y0193323D01*
X0094898Y0231315D01*
X0118992Y0255409D01*
X0118992Y0288835D01*
X0124228Y0292339D02*
X0124228Y0307693D01*
X0142535Y0326000D01*
X0142679Y0326000D01*
X0145631Y0323047D01*
X0145238Y0323441D01*
X0142535Y0326000D02*
X0153756Y0337220D01*
X0153756Y0359661D01*
X0161551Y0367457D01*
X0161551Y0380665D01*
X0159661Y0381057D02*
X0148244Y0381057D01*
X0148244Y0381843D02*
X0159661Y0381843D01*
X0159661Y0382628D02*
X0148244Y0382628D01*
X0148244Y0383414D02*
X0159661Y0383414D01*
X0159661Y0383677D02*
X0159661Y0377378D01*
X0148244Y0377378D01*
X0148244Y0389583D01*
X0170685Y0389583D01*
X0170685Y0383677D01*
X0159661Y0383677D01*
X0159661Y0380271D02*
X0148244Y0380271D01*
X0148244Y0379485D02*
X0159661Y0379485D01*
X0159661Y0378699D02*
X0148244Y0378699D01*
X0148244Y0377913D02*
X0159661Y0377913D01*
X0163520Y0378165D02*
X0163992Y0377693D01*
X0163992Y0340370D01*
X0149031Y0325409D01*
X0149031Y0318180D01*
X0145631Y0314780D01*
X0130474Y0299622D01*
X0128992Y0299622D01*
X0124228Y0292339D02*
X0127732Y0288835D01*
X0138992Y0288835D01*
X0149031Y0284071D02*
X0149031Y0299583D01*
X0148992Y0299622D01*
X0149031Y0284071D02*
X0152575Y0280528D01*
X0152575Y0251394D01*
X0153362Y0250606D01*
X0154543Y0261630D02*
X0154543Y0272654D01*
X0165173Y0272654D01*
X0168717Y0269110D01*
X0168717Y0261630D01*
X0154543Y0261630D01*
X0154543Y0262384D02*
X0168717Y0262384D01*
X0168717Y0263170D02*
X0154543Y0263170D01*
X0154543Y0263956D02*
X0168717Y0263956D01*
X0168717Y0264742D02*
X0154543Y0264742D01*
X0154543Y0265527D02*
X0168717Y0265527D01*
X0168717Y0266313D02*
X0154543Y0266313D01*
X0154543Y0267099D02*
X0168717Y0267099D01*
X0168717Y0267885D02*
X0154543Y0267885D01*
X0154543Y0268671D02*
X0168717Y0268671D01*
X0168370Y0269457D02*
X0154543Y0269457D01*
X0154543Y0270243D02*
X0167584Y0270243D01*
X0166798Y0271029D02*
X0154543Y0271029D01*
X0154543Y0271815D02*
X0166012Y0271815D01*
X0165226Y0272601D02*
X0154543Y0272601D01*
X0162417Y0269504D02*
X0162811Y0268323D01*
X0162811Y0264768D01*
X0163992Y0202575D02*
X0163598Y0202181D01*
X0164386Y0202181D01*
X0164780Y0202575D01*
X0163992Y0202575D01*
X0164780Y0202575D02*
X0177772Y0202575D01*
X0181709Y0194307D02*
X0177772Y0190370D01*
X0177772Y0189189D01*
X0186559Y0178291D02*
X0199819Y0178291D01*
X0199819Y0178559D02*
X0199819Y0171472D01*
X0196669Y0168323D01*
X0189189Y0168323D01*
X0186039Y0171472D01*
X0186039Y0177772D01*
X0189189Y0180921D01*
X0197457Y0180921D01*
X0199819Y0178559D01*
X0199301Y0179077D02*
X0187345Y0179077D01*
X0188131Y0179863D02*
X0198515Y0179863D01*
X0197729Y0180649D02*
X0188917Y0180649D01*
X0186039Y0177505D02*
X0199819Y0177505D01*
X0199819Y0176719D02*
X0186039Y0176719D01*
X0186039Y0175933D02*
X0199819Y0175933D01*
X0199819Y0175147D02*
X0186039Y0175147D01*
X0186039Y0174362D02*
X0199819Y0174362D01*
X0199819Y0173576D02*
X0186039Y0173576D01*
X0186039Y0172790D02*
X0199819Y0172790D01*
X0199819Y0172004D02*
X0186039Y0172004D01*
X0186294Y0171218D02*
X0199564Y0171218D01*
X0198778Y0170432D02*
X0187080Y0170432D01*
X0187866Y0169646D02*
X0197993Y0169646D01*
X0197207Y0168860D02*
X0188652Y0168860D01*
X0173441Y0170432D02*
X0154878Y0170432D01*
X0147457Y0166748D02*
X0147457Y0159268D01*
X0135252Y0159268D01*
X0135252Y0166748D01*
X0147457Y0166748D01*
X0147457Y0166502D02*
X0135252Y0166502D01*
X0135252Y0165716D02*
X0147457Y0165716D01*
X0147457Y0164931D02*
X0135252Y0164931D01*
X0135252Y0164145D02*
X0147457Y0164145D01*
X0147457Y0163359D02*
X0135252Y0163359D01*
X0135252Y0162573D02*
X0147457Y0162573D01*
X0147457Y0161787D02*
X0135252Y0161787D01*
X0135252Y0161001D02*
X0147457Y0161001D01*
X0147457Y0160215D02*
X0135252Y0160215D01*
X0135252Y0159429D02*
X0147457Y0159429D01*
X0137969Y0149071D02*
X0119504Y0167535D01*
X0115567Y0163598D02*
X0098244Y0163598D01*
X0090961Y0170882D01*
X0090961Y0233677D01*
X0103756Y0246472D01*
X0103756Y0302575D01*
X0098244Y0308087D01*
X0098244Y0333677D01*
X0088992Y0342929D01*
X0088992Y0359622D01*
X0078992Y0348835D02*
X0078992Y0346236D01*
X0092732Y0332496D01*
X0092732Y0316748D01*
X0071866Y0295882D01*
X0071866Y0275409D01*
X0084465Y0262811D01*
X0084465Y0245488D01*
X0077378Y0238402D01*
X0077378Y0168323D01*
X0097969Y0147732D01*
X0096512Y0156276D02*
X0109425Y0156276D01*
X0117969Y0147732D01*
X0127772Y0151394D02*
X0115567Y0163598D01*
X0113205Y0171472D02*
X0097402Y0171472D01*
X0094797Y0174172D01*
X0095094Y0182496D01*
X0113598Y0182496D01*
X0113205Y0171472D01*
X0113224Y0172004D02*
X0096889Y0172004D01*
X0096131Y0172790D02*
X0113252Y0172790D01*
X0113280Y0173576D02*
X0095372Y0173576D01*
X0094804Y0174362D02*
X0113308Y0174362D01*
X0113336Y0175147D02*
X0094832Y0175147D01*
X0094860Y0175933D02*
X0113364Y0175933D01*
X0113392Y0176719D02*
X0094888Y0176719D01*
X0094916Y0177505D02*
X0113420Y0177505D01*
X0113448Y0178291D02*
X0094944Y0178291D01*
X0094972Y0179077D02*
X0113476Y0179077D01*
X0113504Y0179863D02*
X0095000Y0179863D01*
X0095029Y0180649D02*
X0113532Y0180649D01*
X0113561Y0181435D02*
X0095057Y0181435D01*
X0095085Y0182221D02*
X0113589Y0182221D01*
X0100606Y0159661D02*
X0097850Y0159661D01*
X0086827Y0170685D01*
X0086827Y0234858D01*
X0098598Y0246630D01*
X0098598Y0288441D01*
X0098992Y0288835D01*
X0108992Y0299622D02*
X0108992Y0275921D01*
X0107693Y0274622D01*
X0089189Y0276984D02*
X0089189Y0299425D01*
X0088992Y0299622D01*
X0089189Y0290370D02*
X0089189Y0276984D01*
X0078756Y0276394D02*
X0089583Y0265567D01*
X0089583Y0243913D01*
X0082102Y0236433D01*
X0082102Y0170685D01*
X0096512Y0156276D01*
X0107693Y0152575D02*
X0107693Y0137220D01*
X0107969Y0136945D01*
X0127772Y0134858D02*
X0127772Y0140370D01*
X0127969Y0140173D01*
X0127969Y0136945D01*
X0127772Y0140370D02*
X0127772Y0151394D01*
X0137969Y0149071D02*
X0137969Y0147732D01*
X0155626Y0099622D02*
X0155626Y0095783D01*
X0147850Y0088008D01*
X0149031Y0075016D02*
X0164780Y0075016D01*
X0164780Y0065961D01*
X0149031Y0065961D01*
X0149031Y0075016D01*
X0149031Y0074551D02*
X0164780Y0074551D01*
X0164780Y0073765D02*
X0149031Y0073765D01*
X0149031Y0072979D02*
X0164780Y0072979D01*
X0164780Y0072193D02*
X0149031Y0072193D01*
X0149031Y0071407D02*
X0164780Y0071407D01*
X0164780Y0070621D02*
X0149031Y0070621D01*
X0149031Y0069835D02*
X0164780Y0069835D01*
X0164780Y0069049D02*
X0149031Y0069049D01*
X0149031Y0068263D02*
X0164780Y0068263D01*
X0164780Y0067477D02*
X0149031Y0067477D01*
X0149031Y0066691D02*
X0164780Y0066691D01*
X0152969Y0067142D02*
X0147600Y0061773D01*
X0141157Y0061773D01*
X0141157Y0068573D02*
X0141157Y0076197D01*
X0131315Y0078559D02*
X0122260Y0078559D01*
X0122260Y0094307D01*
X0131315Y0094307D01*
X0131315Y0078559D01*
X0131315Y0079266D02*
X0122260Y0079266D01*
X0122260Y0080052D02*
X0131315Y0080052D01*
X0131315Y0080838D02*
X0122260Y0080838D01*
X0122260Y0081624D02*
X0131315Y0081624D01*
X0131315Y0082410D02*
X0122260Y0082410D01*
X0122260Y0083196D02*
X0131315Y0083196D01*
X0131315Y0083982D02*
X0122260Y0083982D01*
X0122260Y0084767D02*
X0131315Y0084767D01*
X0131315Y0085553D02*
X0122260Y0085553D01*
X0122260Y0086339D02*
X0131315Y0086339D01*
X0131315Y0087125D02*
X0122260Y0087125D01*
X0122260Y0087911D02*
X0131315Y0087911D01*
X0131315Y0088697D02*
X0122260Y0088697D01*
X0122260Y0089483D02*
X0131315Y0089483D01*
X0131315Y0090269D02*
X0122260Y0090269D01*
X0122260Y0091055D02*
X0131315Y0091055D01*
X0131315Y0091841D02*
X0122260Y0091841D01*
X0122260Y0092627D02*
X0131315Y0092627D01*
X0131315Y0093412D02*
X0122260Y0093412D01*
X0122260Y0094198D02*
X0131315Y0094198D01*
X0077969Y0147732D02*
X0077969Y0157201D01*
X0072358Y0162811D01*
X0072358Y0238697D01*
X0072260Y0238795D01*
X0078165Y0244701D01*
X0067969Y0257339D02*
X0074622Y0263992D01*
X0067969Y0257339D02*
X0067969Y0136945D01*
X0062811Y0126197D02*
X0070685Y0118323D01*
X0062811Y0126197D02*
X0062811Y0295488D01*
X0073598Y0306276D01*
X0073598Y0314228D01*
X0078992Y0288835D02*
X0078756Y0288598D01*
X0078756Y0276394D01*
X0123047Y0375803D02*
X0125986Y0375803D01*
X0125986Y0376630D01*
X0125986Y0377772D01*
X0123047Y0377772D01*
X0119110Y0383087D02*
X0117339Y0383087D01*
X0113598Y0386827D01*
X0113598Y0392732D01*
X0118323Y0397457D01*
X0160055Y0397457D01*
X0161551Y0395961D01*
X0161551Y0392280D01*
X0159583Y0392280D02*
X0159583Y0394386D01*
X0158480Y0395488D01*
X0123244Y0395488D01*
X0119110Y0391354D01*
X0139583Y0391354D02*
X0157614Y0391354D01*
X0157614Y0392280D01*
X0163520Y0392280D02*
X0163598Y0392358D01*
X0163598Y0395094D01*
X0163992Y0395488D01*
X0165488Y0392280D02*
X0171138Y0392280D01*
X0172457Y0390961D01*
X0172457Y0387614D01*
X0178309Y0381762D01*
X0178309Y0375016D01*
X0178559Y0374765D01*
X0178559Y0349268D01*
X0178992Y0348835D01*
X0169110Y0359504D02*
X0169110Y0333928D01*
X0158992Y0348835D02*
X0158992Y0358362D01*
X0158480Y0358874D01*
X0168992Y0359622D02*
X0168992Y0377161D01*
X0165488Y0380665D01*
X0163520Y0380665D02*
X0163520Y0378165D01*
X0170685Y0384200D02*
X0148244Y0384200D01*
X0148244Y0384986D02*
X0170685Y0384986D01*
X0170685Y0385772D02*
X0148244Y0385772D01*
X0148244Y0386558D02*
X0170685Y0386558D01*
X0170685Y0387344D02*
X0148244Y0387344D01*
X0148244Y0388130D02*
X0170685Y0388130D01*
X0170685Y0388916D02*
X0148244Y0388916D01*
X0168992Y0359622D02*
X0169110Y0359504D01*
X0178559Y0383677D02*
X0175016Y0387220D01*
X0175016Y0392339D01*
X0186039Y0392339D01*
X0190764Y0387614D01*
X0190764Y0383677D01*
X0178559Y0383677D01*
X0178036Y0384200D02*
X0190764Y0384200D01*
X0190764Y0384986D02*
X0177250Y0384986D01*
X0176464Y0385772D02*
X0190764Y0385772D01*
X0190764Y0386558D02*
X0175678Y0386558D01*
X0175016Y0387344D02*
X0190764Y0387344D01*
X0190248Y0388130D02*
X0175016Y0388130D01*
X0175016Y0388916D02*
X0189462Y0388916D01*
X0188676Y0389702D02*
X0175016Y0389702D01*
X0175016Y0390488D02*
X0187890Y0390488D01*
X0187104Y0391273D02*
X0175016Y0391273D01*
X0175016Y0392059D02*
X0186319Y0392059D01*
X0185252Y0395345D02*
X0184071Y0395345D01*
X0176984Y0395620D02*
X0176984Y0395882D01*
X0185109Y0378953D02*
X0185109Y0375016D01*
X0185109Y0378953D02*
X0185252Y0378953D01*
X0199031Y0358480D02*
X0198992Y0358441D01*
X0198992Y0348835D01*
X0202575Y0360449D02*
X0202575Y0370685D01*
X0211630Y0370685D01*
X0211630Y0360449D01*
X0202575Y0360449D01*
X0202575Y0360623D02*
X0211630Y0360623D01*
X0211630Y0361409D02*
X0202575Y0361409D01*
X0202575Y0362195D02*
X0211630Y0362195D01*
X0211630Y0362981D02*
X0202575Y0362981D01*
X0202575Y0363767D02*
X0211630Y0363767D01*
X0211630Y0364552D02*
X0202575Y0364552D01*
X0202575Y0365338D02*
X0211630Y0365338D01*
X0211630Y0366124D02*
X0202575Y0366124D01*
X0202575Y0366910D02*
X0211630Y0366910D01*
X0211630Y0367696D02*
X0202575Y0367696D01*
X0202575Y0368482D02*
X0211630Y0368482D01*
X0211630Y0369268D02*
X0202575Y0369268D01*
X0202575Y0370054D02*
X0211630Y0370054D01*
X0209661Y0367929D02*
X0209661Y0359622D01*
X0208992Y0359622D01*
X0083677Y0388008D02*
X0077378Y0388008D01*
X0193126Y0086416D02*
X0193126Y0086240D01*
X0195488Y0081909D01*
X0190764Y0071472D02*
X0202969Y0071472D01*
X0202969Y0063992D01*
X0190764Y0063992D01*
X0190764Y0071472D01*
X0190764Y0071407D02*
X0202969Y0071407D01*
X0202969Y0070621D02*
X0190764Y0070621D01*
X0190764Y0069835D02*
X0202969Y0069835D01*
X0202969Y0069049D02*
X0190764Y0069049D01*
X0190764Y0068263D02*
X0202969Y0068263D01*
X0202969Y0067477D02*
X0190764Y0067477D01*
X0190764Y0066691D02*
X0202969Y0066691D01*
X0202969Y0065906D02*
X0190764Y0065906D01*
X0190764Y0065120D02*
X0202969Y0065120D01*
X0202969Y0064334D02*
X0190764Y0064334D01*
D31*
X0181709Y0072260D02*
X0180921Y0072260D01*
X0180921Y0074228D01*
X0180921Y0072260D02*
X0180724Y0072260D01*
X0180921Y0082102D02*
X0192669Y0082127D01*
X0195488Y0081909D01*
X0191945Y0098441D02*
X0193126Y0099622D01*
X0180921Y0082102D02*
X0137969Y0082102D01*
X0137969Y0088008D02*
X0137969Y0097732D01*
X0117969Y0097732D02*
X0117969Y0060173D01*
X0107969Y0070961D02*
X0107969Y0086945D01*
X0097969Y0097732D02*
X0097969Y0060173D01*
X0087969Y0070961D02*
X0087969Y0086945D01*
X0164768Y0212417D02*
X0171222Y0212417D01*
X0162811Y0221461D02*
X0162811Y0223835D01*
X0164780Y0249425D02*
X0171866Y0249425D01*
X0162811Y0251394D02*
X0162811Y0253768D01*
X0192732Y0274228D02*
X0198992Y0280488D01*
X0198992Y0288835D01*
X0208992Y0299622D02*
X0194307Y0314307D01*
X0194307Y0336827D01*
X0194307Y0368717D02*
X0194307Y0373441D01*
X0194307Y0389439D01*
X0188402Y0395345D01*
X0187220Y0395345D02*
X0184071Y0395345D01*
D32*
X0189976Y0373441D03*
X0157693Y0373441D03*
X0197850Y0228165D03*
D33*
X0171222Y0212417D03*
X0171866Y0249425D03*
D34*
X0195882Y0253199D02*
X0199262Y0253199D01*
X0208992Y0262929D01*
X0208992Y0267929D01*
X0208992Y0272654D01*
X0208992Y0299622D01*
D35*
X0162811Y0251394D02*
X0162811Y0223835D01*
X0193126Y0099622D02*
X0193126Y0086416D01*
X0188418Y0081742D01*
X0137969Y0082102D01*
X0137969Y0088008D01*
X0180921Y0082102D02*
X0180921Y0074228D01*
D36*
X0188909Y0249031D03*
M02*
