G75*
%MOIN*%
%OFA0B0*%
%FSLAX25Y25*%
%IPPOS*%
%LPD*%
%AMOC8*
5,1,8,0,0,1.08239X$1,22.5*
%
%ADD10C,0.00787*%
%ADD11C,0.01300*%
%ADD12R,0.00100X0.00100*%
%ADD13R,0.00200X0.00100*%
%ADD14R,0.00300X0.00100*%
%ADD15R,0.00400X0.00100*%
%ADD16R,0.00500X0.00100*%
%ADD17R,0.00600X0.00100*%
%ADD18R,0.00700X0.00100*%
%ADD19R,0.00800X0.00100*%
%ADD20R,0.00900X0.00100*%
%ADD21R,0.01000X0.00100*%
%ADD22R,0.01100X0.00100*%
%ADD23R,0.01200X0.00100*%
%ADD24R,0.01300X0.00100*%
%ADD25R,0.01400X0.00100*%
%ADD26R,0.01500X0.00100*%
%ADD27R,0.01600X0.00100*%
%ADD28R,0.01700X0.00100*%
%ADD29R,0.01800X0.00100*%
%ADD30R,0.01900X0.00100*%
%ADD31R,0.02000X0.00100*%
%ADD32R,0.02100X0.00100*%
%ADD33R,0.02200X0.00100*%
%ADD34R,0.02300X0.00100*%
%ADD35R,0.02400X0.00100*%
%ADD36R,0.02500X0.00100*%
%ADD37R,0.02600X0.00100*%
%ADD38R,0.02700X0.00100*%
%ADD39R,0.02800X0.00100*%
%ADD40R,0.02900X0.00100*%
%ADD41R,0.03000X0.00100*%
%ADD42R,0.03100X0.00100*%
%ADD43R,0.03200X0.00100*%
%ADD44R,0.03300X0.00100*%
%ADD45R,0.03400X0.00100*%
%ADD46R,0.03500X0.00100*%
%ADD47R,0.03600X0.00100*%
%ADD48R,0.03700X0.00100*%
%ADD49R,0.03800X0.00100*%
%ADD50R,0.03900X0.00100*%
%ADD51R,0.04000X0.00100*%
%ADD52R,0.04100X0.00100*%
%ADD53R,0.04200X0.00100*%
%ADD54R,0.04300X0.00100*%
%ADD55R,0.04400X0.00100*%
%ADD56R,0.04500X0.00100*%
%ADD57R,0.04600X0.00100*%
%ADD58R,0.04700X0.00100*%
%ADD59R,0.04800X0.00100*%
%ADD60R,0.05400X0.00100*%
%ADD61R,0.06300X0.00100*%
%ADD62R,0.07100X0.00100*%
%ADD63R,0.07900X0.00100*%
%ADD64R,0.08600X0.00100*%
%ADD65R,0.09300X0.00100*%
%ADD66R,0.09900X0.00100*%
%ADD67R,0.10500X0.00100*%
%ADD68R,0.11200X0.00100*%
%ADD69R,0.11700X0.00100*%
%ADD70R,0.12300X0.00100*%
%ADD71R,0.12800X0.00100*%
%ADD72R,0.13300X0.00100*%
%ADD73R,0.13700X0.00100*%
%ADD74R,0.14200X0.00100*%
%ADD75R,0.14600X0.00100*%
%ADD76R,0.15100X0.00100*%
%ADD77R,0.15500X0.00100*%
%ADD78R,0.15900X0.00100*%
%ADD79R,0.16300X0.00100*%
%ADD80R,0.16600X0.00100*%
%ADD81R,0.16900X0.00100*%
%ADD82R,0.17300X0.00100*%
%ADD83R,0.17700X0.00100*%
%ADD84R,0.18000X0.00100*%
%ADD85R,0.18400X0.00100*%
%ADD86R,0.18700X0.00100*%
%ADD87R,0.19100X0.00100*%
%ADD88R,0.19400X0.00100*%
%ADD89R,0.19700X0.00100*%
%ADD90R,0.04900X0.00100*%
%ADD91R,0.20000X0.00100*%
%ADD92R,0.05100X0.00100*%
%ADD93R,0.20300X0.00100*%
%ADD94R,0.05300X0.00100*%
%ADD95R,0.20700X0.00100*%
%ADD96R,0.05500X0.00100*%
%ADD97R,0.21000X0.00100*%
%ADD98R,0.05700X0.00100*%
%ADD99R,0.21200X0.00100*%
%ADD100R,0.05900X0.00100*%
%ADD101R,0.21400X0.00100*%
%ADD102R,0.06100X0.00100*%
%ADD103R,0.21700X0.00100*%
%ADD104R,0.06200X0.00100*%
%ADD105R,0.22000X0.00100*%
%ADD106R,0.06400X0.00100*%
%ADD107R,0.22300X0.00100*%
%ADD108R,0.06600X0.00100*%
%ADD109R,0.22500X0.00100*%
%ADD110R,0.06800X0.00100*%
%ADD111R,0.22600X0.00100*%
%ADD112R,0.07000X0.00100*%
%ADD113R,0.22700X0.00100*%
%ADD114R,0.07300X0.00100*%
%ADD115R,0.22800X0.00100*%
%ADD116R,0.07500X0.00100*%
%ADD117R,0.07600X0.00100*%
%ADD118R,0.22900X0.00100*%
%ADD119R,0.07800X0.00100*%
%ADD120R,0.08000X0.00100*%
%ADD121R,0.23000X0.00100*%
%ADD122R,0.08100X0.00100*%
%ADD123R,0.08300X0.00100*%
%ADD124R,0.23100X0.00100*%
%ADD125R,0.08400X0.00100*%
%ADD126R,0.23200X0.00100*%
%ADD127R,0.08700X0.00100*%
%ADD128R,0.08800X0.00100*%
%ADD129R,0.09000X0.00100*%
%ADD130R,0.23300X0.00100*%
%ADD131R,0.09100X0.00100*%
%ADD132R,0.09200X0.00100*%
%ADD133R,0.09400X0.00100*%
%ADD134R,0.09500X0.00100*%
%ADD135R,0.23400X0.00100*%
%ADD136R,0.09600X0.00100*%
%ADD137R,0.09700X0.00100*%
%ADD138R,0.09800X0.00100*%
%ADD139R,0.10000X0.00100*%
%ADD140R,0.23500X0.00100*%
%ADD141R,0.10100X0.00100*%
%ADD142R,0.10200X0.00100*%
%ADD143R,0.10300X0.00100*%
%ADD144R,0.10400X0.00100*%
%ADD145R,0.23600X0.00100*%
%ADD146R,0.10600X0.00100*%
%ADD147R,0.10700X0.00100*%
%ADD148R,0.10800X0.00100*%
%ADD149R,0.10900X0.00100*%
%ADD150R,0.11000X0.00100*%
%ADD151R,0.11100X0.00100*%
%ADD152R,0.17200X0.00100*%
%ADD153R,0.11300X0.00100*%
%ADD154R,0.13900X0.00100*%
%ADD155R,0.13400X0.00100*%
%ADD156R,0.11400X0.00100*%
%ADD157R,0.13000X0.00100*%
%ADD158R,0.12600X0.00100*%
%ADD159R,0.11500X0.00100*%
%ADD160R,0.12200X0.00100*%
%ADD161R,0.11900X0.00100*%
%ADD162R,0.11600X0.00100*%
%ADD163R,0.08900X0.00100*%
%ADD164R,0.08500X0.00100*%
%ADD165R,0.08200X0.00100*%
%ADD166R,0.07400X0.00100*%
%ADD167R,0.07700X0.00100*%
%ADD168R,0.07200X0.00100*%
%ADD169R,0.06900X0.00100*%
%ADD170R,0.06700X0.00100*%
%ADD171R,0.06500X0.00100*%
%ADD172R,0.06000X0.00100*%
%ADD173R,0.05200X0.00100*%
%ADD174R,0.05000X0.00100*%
%ADD175R,0.05600X0.00100*%
%ADD176R,0.05800X0.00100*%
%ADD177R,0.12000X0.00100*%
%ADD178R,0.11800X0.00100*%
%ADD179R,0.12500X0.00100*%
%ADD180R,0.12900X0.00100*%
%ADD181R,0.13500X0.00100*%
%ADD182R,0.14000X0.00100*%
%ADD183R,0.13600X0.00100*%
%ADD184R,0.14700X0.00100*%
%ADD185R,0.14100X0.00100*%
%ADD186R,0.15400X0.00100*%
%ADD187R,0.15600X0.00100*%
%ADD188R,0.17500X0.00100*%
%ADD189R,0.19300X0.00100*%
%ADD190R,0.18300X0.00100*%
%ADD191R,0.41200X0.00100*%
%ADD192R,0.41000X0.00100*%
%ADD193R,0.40800X0.00100*%
%ADD194R,0.40700X0.00100*%
%ADD195R,0.40500X0.00100*%
%ADD196R,0.40300X0.00100*%
%ADD197R,0.40200X0.00100*%
%ADD198R,0.40000X0.00100*%
%ADD199R,0.39700X0.00100*%
%ADD200R,0.39500X0.00100*%
%ADD201R,0.39300X0.00100*%
%ADD202R,0.39100X0.00100*%
%ADD203R,0.38900X0.00100*%
%ADD204R,0.38700X0.00100*%
%ADD205R,0.38300X0.00100*%
%ADD206R,0.38100X0.00100*%
%ADD207R,0.37900X0.00100*%
%ADD208R,0.37600X0.00100*%
%ADD209R,0.37400X0.00100*%
%ADD210R,0.37000X0.00100*%
%ADD211R,0.36800X0.00100*%
%ADD212R,0.36500X0.00100*%
%ADD213R,0.36200X0.00100*%
%ADD214R,0.35900X0.00100*%
%ADD215R,0.35700X0.00100*%
%ADD216R,0.35300X0.00100*%
%ADD217R,0.35000X0.00100*%
%ADD218R,0.34700X0.00100*%
%ADD219R,0.34400X0.00100*%
%ADD220R,0.34000X0.00100*%
%ADD221R,0.33600X0.00100*%
%ADD222R,0.33300X0.00100*%
%ADD223R,0.32900X0.00100*%
%ADD224R,0.32600X0.00100*%
%ADD225R,0.32200X0.00100*%
%ADD226R,0.31800X0.00100*%
%ADD227R,0.31500X0.00100*%
%ADD228R,0.31000X0.00100*%
%ADD229R,0.30600X0.00100*%
%ADD230R,0.30200X0.00100*%
%ADD231R,0.29800X0.00100*%
%ADD232R,0.29400X0.00100*%
%ADD233R,0.28900X0.00100*%
%ADD234R,0.28500X0.00100*%
%ADD235R,0.27900X0.00100*%
%ADD236R,0.27500X0.00100*%
%ADD237R,0.26900X0.00100*%
%ADD238R,0.26400X0.00100*%
%ADD239R,0.25900X0.00100*%
%ADD240R,0.25300X0.00100*%
%ADD241R,0.24700X0.00100*%
%ADD242R,0.24100X0.00100*%
%ADD243R,0.22200X0.00100*%
%ADD244R,0.20800X0.00100*%
%ADD245R,0.19200X0.00100*%
%ADD246R,0.17400X0.00100*%
%ADD247R,0.16400X0.00100*%
%ADD248R,0.14300X0.00100*%
%ADD249R,0.13200X0.00100*%
%ADD250R,0.04290X0.00165*%
%ADD251R,0.04290X0.00165*%
%ADD252R,0.02640X0.00165*%
%ADD253R,0.02805X0.00165*%
%ADD254R,0.02640X0.00165*%
%ADD255R,0.02805X0.00165*%
%ADD256R,0.02640X0.00165*%
%ADD257R,0.03300X0.00165*%
%ADD258R,0.01980X0.00165*%
%ADD259R,0.05610X0.00165*%
%ADD260R,0.04620X0.00165*%
%ADD261R,0.04620X0.00165*%
%ADD262R,0.07260X0.00165*%
%ADD263R,0.04950X0.00165*%
%ADD264R,0.05940X0.00165*%
%ADD265R,0.02640X0.00165*%
%ADD266R,0.08415X0.00165*%
%ADD267R,0.05775X0.00165*%
%ADD268R,0.06765X0.00165*%
%ADD269R,0.04950X0.00165*%
%ADD270R,0.09405X0.00165*%
%ADD271R,0.06270X0.00165*%
%ADD272R,0.07590X0.00165*%
%ADD273R,0.09570X0.00165*%
%ADD274R,0.10230X0.00165*%
%ADD275R,0.06600X0.00165*%
%ADD276R,0.08250X0.00165*%
%ADD277R,0.05940X0.00165*%
%ADD278R,0.10395X0.00165*%
%ADD279R,0.11220X0.00165*%
%ADD280R,0.06930X0.00165*%
%ADD281R,0.08910X0.00165*%
%ADD282R,0.11220X0.00165*%
%ADD283R,0.12045X0.00165*%
%ADD284R,0.07095X0.00165*%
%ADD285R,0.09240X0.00165*%
%ADD286R,0.06930X0.00165*%
%ADD287R,0.11880X0.00165*%
%ADD288R,0.12210X0.00165*%
%ADD289R,0.07425X0.00165*%
%ADD290R,0.09900X0.00165*%
%ADD291R,0.07260X0.00165*%
%ADD292R,0.12705X0.00165*%
%ADD293R,0.12375X0.00165*%
%ADD294R,0.13365X0.00165*%
%ADD295R,0.12540X0.00165*%
%ADD296R,0.10560X0.00165*%
%ADD297R,0.07920X0.00165*%
%ADD298R,0.13695X0.00165*%
%ADD299R,0.07755X0.00165*%
%ADD300R,0.10890X0.00165*%
%ADD301R,0.14025X0.00165*%
%ADD302R,0.12870X0.00165*%
%ADD303R,0.07755X0.00165*%
%ADD304R,0.11220X0.00165*%
%ADD305R,0.08580X0.00165*%
%ADD306R,0.14190X0.00165*%
%ADD307R,0.11220X0.00165*%
%ADD308R,0.13035X0.00165*%
%ADD309R,0.07920X0.00165*%
%ADD310R,0.11550X0.00165*%
%ADD311R,0.14355X0.00165*%
%ADD312R,0.11880X0.00165*%
%ADD313R,0.13200X0.00165*%
%ADD314R,0.14520X0.00165*%
%ADD315R,0.08085X0.00165*%
%ADD316R,0.13365X0.00165*%
%ADD317R,0.14685X0.00165*%
%ADD318R,0.14850X0.00165*%
%ADD319R,0.13365X0.00165*%
%ADD320R,0.08085X0.00165*%
%ADD321R,0.12540X0.00165*%
%ADD322R,0.13530X0.00165*%
%ADD323R,0.15015X0.00165*%
%ADD324R,0.13530X0.00165*%
%ADD325R,0.12870X0.00165*%
%ADD326R,0.15180X0.00165*%
%ADD327R,0.12870X0.00165*%
%ADD328R,0.06435X0.00165*%
%ADD329R,0.15345X0.00165*%
%ADD330R,0.05115X0.00165*%
%ADD331R,0.06105X0.00165*%
%ADD332R,0.05280X0.00165*%
%ADD333R,0.04125X0.00165*%
%ADD334R,0.05445X0.00165*%
%ADD335R,0.05115X0.00165*%
%ADD336R,0.04785X0.00165*%
%ADD337R,0.03465X0.00165*%
%ADD338R,0.05115X0.00165*%
%ADD339R,0.04620X0.00165*%
%ADD340R,0.05445X0.00165*%
%ADD341R,0.06435X0.00165*%
%ADD342R,0.02970X0.00165*%
%ADD343R,0.02475X0.00165*%
%ADD344R,0.04455X0.00165*%
%ADD345R,0.05940X0.00165*%
%ADD346R,0.01650X0.00165*%
%ADD347R,0.01155X0.00165*%
%ADD348R,0.04455X0.00165*%
%ADD349R,0.04620X0.00165*%
%ADD350R,0.04785X0.00165*%
%ADD351R,0.05445X0.00165*%
%ADD352R,0.00825X0.00165*%
%ADD353R,0.05445X0.00165*%
%ADD354R,0.00495X0.00165*%
%ADD355R,0.00165X0.00165*%
%ADD356R,0.05280X0.00165*%
%ADD357R,0.05775X0.00165*%
%ADD358R,0.06270X0.00165*%
%ADD359R,0.06765X0.00165*%
%ADD360R,0.07095X0.00165*%
%ADD361R,0.07590X0.00165*%
%ADD362R,0.08745X0.00165*%
%ADD363R,0.07095X0.00165*%
%ADD364R,0.10890X0.00165*%
%ADD365R,0.11055X0.00165*%
%ADD366R,0.11385X0.00165*%
%ADD367R,0.11385X0.00165*%
%ADD368R,0.10890X0.00165*%
%ADD369R,0.09735X0.00165*%
%ADD370R,0.10890X0.00165*%
%ADD371R,0.08745X0.00165*%
%ADD372R,0.12870X0.00165*%
%ADD373R,0.11550X0.00165*%
%ADD374R,0.13035X0.00165*%
%ADD375R,0.08580X0.00165*%
%ADD376R,0.09900X0.00165*%
%ADD377R,0.05115X0.00165*%
%ADD378R,0.09240X0.00165*%
%ADD379R,0.06765X0.00165*%
%ADD380R,0.00495X0.00165*%
%ADD381R,0.00660X0.00165*%
%ADD382R,0.01155X0.00165*%
%ADD383R,0.00990X0.00165*%
%ADD384R,0.01485X0.00165*%
%ADD385R,0.01485X0.00165*%
%ADD386R,0.02970X0.00165*%
%ADD387R,0.03795X0.00165*%
%ADD388R,0.07590X0.00165*%
%ADD389R,0.14190X0.00165*%
%ADD390R,0.12210X0.00165*%
%ADD391R,0.14025X0.00165*%
%ADD392R,0.13860X0.00165*%
%ADD393R,0.12045X0.00165*%
%ADD394R,0.11715X0.00165*%
%ADD395R,0.12045X0.00165*%
%ADD396R,0.10725X0.00165*%
%ADD397R,0.10560X0.00165*%
%ADD398R,0.09570X0.00165*%
%ADD399R,0.03300X0.00165*%
D10*
X0048638Y0082102D02*
X0048638Y0137220D01*
X0048637Y0137220D02*
X0048640Y0137458D01*
X0048648Y0137696D01*
X0048663Y0137933D01*
X0048683Y0138170D01*
X0048709Y0138406D01*
X0048740Y0138642D01*
X0048777Y0138877D01*
X0048820Y0139111D01*
X0048869Y0139344D01*
X0048923Y0139576D01*
X0048983Y0139806D01*
X0049048Y0140035D01*
X0049119Y0140262D01*
X0049195Y0140487D01*
X0049277Y0140710D01*
X0049364Y0140932D01*
X0049456Y0141151D01*
X0049554Y0141368D01*
X0049656Y0141582D01*
X0049764Y0141794D01*
X0049878Y0142004D01*
X0049996Y0142210D01*
X0050119Y0142414D01*
X0050247Y0142614D01*
X0050379Y0142811D01*
X0050517Y0143006D01*
X0050659Y0143196D01*
X0050806Y0143384D01*
X0050957Y0143567D01*
X0051112Y0143747D01*
X0051272Y0143923D01*
X0051436Y0144095D01*
X0051605Y0144264D01*
X0051777Y0144428D01*
X0051953Y0144588D01*
X0052133Y0144743D01*
X0052316Y0144894D01*
X0052504Y0145041D01*
X0052694Y0145183D01*
X0052889Y0145321D01*
X0053086Y0145453D01*
X0053286Y0145581D01*
X0053490Y0145704D01*
X0053696Y0145822D01*
X0053906Y0145936D01*
X0054118Y0146044D01*
X0054332Y0146146D01*
X0054549Y0146244D01*
X0054768Y0146336D01*
X0054990Y0146423D01*
X0055213Y0146505D01*
X0055438Y0146581D01*
X0055665Y0146652D01*
X0055894Y0146717D01*
X0056124Y0146777D01*
X0056356Y0146831D01*
X0056589Y0146880D01*
X0056823Y0146923D01*
X0057058Y0146960D01*
X0057294Y0146991D01*
X0057530Y0147017D01*
X0057767Y0147037D01*
X0058004Y0147052D01*
X0058242Y0147060D01*
X0058480Y0147063D01*
X0200213Y0147063D01*
X0200213Y0158874D02*
X0145094Y0158874D01*
X0144856Y0158877D01*
X0144618Y0158885D01*
X0144381Y0158900D01*
X0144144Y0158920D01*
X0143908Y0158946D01*
X0143672Y0158977D01*
X0143437Y0159014D01*
X0143203Y0159057D01*
X0142970Y0159106D01*
X0142738Y0159160D01*
X0142508Y0159220D01*
X0142279Y0159285D01*
X0142052Y0159356D01*
X0141827Y0159432D01*
X0141604Y0159514D01*
X0141382Y0159601D01*
X0141163Y0159693D01*
X0140946Y0159791D01*
X0140732Y0159893D01*
X0140520Y0160001D01*
X0140310Y0160115D01*
X0140104Y0160233D01*
X0139900Y0160356D01*
X0139700Y0160484D01*
X0139503Y0160616D01*
X0139308Y0160754D01*
X0139118Y0160896D01*
X0138930Y0161043D01*
X0138747Y0161194D01*
X0138567Y0161349D01*
X0138391Y0161509D01*
X0138219Y0161673D01*
X0138050Y0161842D01*
X0137886Y0162014D01*
X0137726Y0162190D01*
X0137571Y0162370D01*
X0137420Y0162553D01*
X0137273Y0162741D01*
X0137131Y0162931D01*
X0136993Y0163126D01*
X0136861Y0163323D01*
X0136733Y0163523D01*
X0136610Y0163727D01*
X0136492Y0163933D01*
X0136378Y0164143D01*
X0136270Y0164355D01*
X0136168Y0164569D01*
X0136070Y0164786D01*
X0135978Y0165005D01*
X0135891Y0165227D01*
X0135809Y0165450D01*
X0135733Y0165675D01*
X0135662Y0165902D01*
X0135597Y0166131D01*
X0135537Y0166361D01*
X0135483Y0166593D01*
X0135434Y0166826D01*
X0135391Y0167060D01*
X0135354Y0167295D01*
X0135323Y0167531D01*
X0135297Y0167767D01*
X0135277Y0168004D01*
X0135262Y0168241D01*
X0135254Y0168479D01*
X0135251Y0168717D01*
X0135252Y0168717D02*
X0135252Y0334071D01*
X0135251Y0334071D02*
X0135254Y0334309D01*
X0135262Y0334547D01*
X0135277Y0334784D01*
X0135297Y0335021D01*
X0135323Y0335257D01*
X0135354Y0335493D01*
X0135391Y0335728D01*
X0135434Y0335962D01*
X0135483Y0336195D01*
X0135537Y0336427D01*
X0135597Y0336657D01*
X0135662Y0336886D01*
X0135733Y0337113D01*
X0135809Y0337338D01*
X0135891Y0337561D01*
X0135978Y0337783D01*
X0136070Y0338002D01*
X0136168Y0338219D01*
X0136270Y0338433D01*
X0136378Y0338645D01*
X0136492Y0338855D01*
X0136610Y0339061D01*
X0136733Y0339265D01*
X0136861Y0339465D01*
X0136993Y0339662D01*
X0137131Y0339857D01*
X0137273Y0340047D01*
X0137420Y0340235D01*
X0137571Y0340418D01*
X0137726Y0340598D01*
X0137886Y0340774D01*
X0138050Y0340946D01*
X0138219Y0341115D01*
X0138391Y0341279D01*
X0138567Y0341439D01*
X0138747Y0341594D01*
X0138930Y0341745D01*
X0139118Y0341892D01*
X0139308Y0342034D01*
X0139503Y0342172D01*
X0139700Y0342304D01*
X0139900Y0342432D01*
X0140104Y0342555D01*
X0140310Y0342673D01*
X0140520Y0342787D01*
X0140732Y0342895D01*
X0140946Y0342997D01*
X0141163Y0343095D01*
X0141382Y0343187D01*
X0141604Y0343274D01*
X0141827Y0343356D01*
X0142052Y0343432D01*
X0142279Y0343503D01*
X0142508Y0343568D01*
X0142738Y0343628D01*
X0142970Y0343682D01*
X0143203Y0343731D01*
X0143437Y0343774D01*
X0143672Y0343811D01*
X0143908Y0343842D01*
X0144144Y0343868D01*
X0144381Y0343888D01*
X0144618Y0343903D01*
X0144856Y0343911D01*
X0145094Y0343914D01*
X0145094Y0343913D02*
X0200213Y0343913D01*
X0200213Y0343914D02*
X0200451Y0343911D01*
X0200689Y0343903D01*
X0200926Y0343888D01*
X0201163Y0343868D01*
X0201399Y0343842D01*
X0201635Y0343811D01*
X0201870Y0343774D01*
X0202104Y0343731D01*
X0202337Y0343682D01*
X0202569Y0343628D01*
X0202799Y0343568D01*
X0203028Y0343503D01*
X0203255Y0343432D01*
X0203480Y0343356D01*
X0203703Y0343274D01*
X0203925Y0343187D01*
X0204144Y0343095D01*
X0204361Y0342997D01*
X0204575Y0342895D01*
X0204787Y0342787D01*
X0204997Y0342673D01*
X0205203Y0342555D01*
X0205407Y0342432D01*
X0205607Y0342304D01*
X0205804Y0342172D01*
X0205999Y0342034D01*
X0206189Y0341892D01*
X0206377Y0341745D01*
X0206560Y0341594D01*
X0206740Y0341439D01*
X0206916Y0341279D01*
X0207088Y0341115D01*
X0207257Y0340946D01*
X0207421Y0340774D01*
X0207581Y0340598D01*
X0207736Y0340418D01*
X0207887Y0340235D01*
X0208034Y0340047D01*
X0208176Y0339857D01*
X0208314Y0339662D01*
X0208446Y0339465D01*
X0208574Y0339265D01*
X0208697Y0339061D01*
X0208815Y0338855D01*
X0208929Y0338645D01*
X0209037Y0338433D01*
X0209139Y0338219D01*
X0209237Y0338002D01*
X0209329Y0337783D01*
X0209416Y0337561D01*
X0209498Y0337338D01*
X0209574Y0337113D01*
X0209645Y0336886D01*
X0209710Y0336657D01*
X0209770Y0336427D01*
X0209824Y0336195D01*
X0209873Y0335962D01*
X0209916Y0335728D01*
X0209953Y0335493D01*
X0209984Y0335257D01*
X0210010Y0335021D01*
X0210030Y0334784D01*
X0210045Y0334547D01*
X0210053Y0334309D01*
X0210056Y0334071D01*
X0210055Y0334071D02*
X0210055Y0168717D01*
X0210056Y0168717D02*
X0210053Y0168479D01*
X0210045Y0168241D01*
X0210030Y0168004D01*
X0210010Y0167767D01*
X0209984Y0167531D01*
X0209953Y0167295D01*
X0209916Y0167060D01*
X0209873Y0166826D01*
X0209824Y0166593D01*
X0209770Y0166361D01*
X0209710Y0166131D01*
X0209645Y0165902D01*
X0209574Y0165675D01*
X0209498Y0165450D01*
X0209416Y0165227D01*
X0209329Y0165005D01*
X0209237Y0164786D01*
X0209139Y0164569D01*
X0209037Y0164355D01*
X0208929Y0164143D01*
X0208815Y0163933D01*
X0208697Y0163727D01*
X0208574Y0163523D01*
X0208446Y0163323D01*
X0208314Y0163126D01*
X0208176Y0162931D01*
X0208034Y0162741D01*
X0207887Y0162553D01*
X0207736Y0162370D01*
X0207581Y0162190D01*
X0207421Y0162014D01*
X0207257Y0161842D01*
X0207088Y0161673D01*
X0206916Y0161509D01*
X0206740Y0161349D01*
X0206560Y0161194D01*
X0206377Y0161043D01*
X0206189Y0160896D01*
X0205999Y0160754D01*
X0205804Y0160616D01*
X0205607Y0160484D01*
X0205407Y0160356D01*
X0205203Y0160233D01*
X0204997Y0160115D01*
X0204787Y0160001D01*
X0204575Y0159893D01*
X0204361Y0159791D01*
X0204144Y0159693D01*
X0203925Y0159601D01*
X0203703Y0159514D01*
X0203480Y0159432D01*
X0203255Y0159356D01*
X0203028Y0159285D01*
X0202799Y0159220D01*
X0202569Y0159160D01*
X0202337Y0159106D01*
X0202104Y0159057D01*
X0201870Y0159014D01*
X0201635Y0158977D01*
X0201399Y0158946D01*
X0201163Y0158920D01*
X0200926Y0158900D01*
X0200689Y0158885D01*
X0200451Y0158877D01*
X0200213Y0158874D01*
X0200213Y0147063D02*
X0200451Y0147060D01*
X0200689Y0147052D01*
X0200926Y0147037D01*
X0201163Y0147017D01*
X0201399Y0146991D01*
X0201635Y0146960D01*
X0201870Y0146923D01*
X0202104Y0146880D01*
X0202337Y0146831D01*
X0202569Y0146777D01*
X0202799Y0146717D01*
X0203028Y0146652D01*
X0203255Y0146581D01*
X0203480Y0146505D01*
X0203703Y0146423D01*
X0203925Y0146336D01*
X0204144Y0146244D01*
X0204361Y0146146D01*
X0204575Y0146044D01*
X0204787Y0145936D01*
X0204997Y0145822D01*
X0205203Y0145704D01*
X0205407Y0145581D01*
X0205607Y0145453D01*
X0205804Y0145321D01*
X0205999Y0145183D01*
X0206189Y0145041D01*
X0206377Y0144894D01*
X0206560Y0144743D01*
X0206740Y0144588D01*
X0206916Y0144428D01*
X0207088Y0144264D01*
X0207257Y0144095D01*
X0207421Y0143923D01*
X0207581Y0143747D01*
X0207736Y0143567D01*
X0207887Y0143384D01*
X0208034Y0143196D01*
X0208176Y0143006D01*
X0208314Y0142811D01*
X0208446Y0142614D01*
X0208574Y0142414D01*
X0208697Y0142210D01*
X0208815Y0142004D01*
X0208929Y0141794D01*
X0209037Y0141582D01*
X0209139Y0141368D01*
X0209237Y0141151D01*
X0209329Y0140932D01*
X0209416Y0140710D01*
X0209498Y0140487D01*
X0209574Y0140262D01*
X0209645Y0140035D01*
X0209710Y0139806D01*
X0209770Y0139576D01*
X0209824Y0139344D01*
X0209873Y0139111D01*
X0209916Y0138877D01*
X0209953Y0138642D01*
X0209984Y0138406D01*
X0210010Y0138170D01*
X0210030Y0137933D01*
X0210045Y0137696D01*
X0210053Y0137458D01*
X0210056Y0137220D01*
X0210055Y0137220D02*
X0210055Y0082102D01*
X0210056Y0082102D02*
X0210053Y0081864D01*
X0210045Y0081626D01*
X0210030Y0081389D01*
X0210010Y0081152D01*
X0209984Y0080916D01*
X0209953Y0080680D01*
X0209916Y0080445D01*
X0209873Y0080211D01*
X0209824Y0079978D01*
X0209770Y0079746D01*
X0209710Y0079516D01*
X0209645Y0079287D01*
X0209574Y0079060D01*
X0209498Y0078835D01*
X0209416Y0078612D01*
X0209329Y0078390D01*
X0209237Y0078171D01*
X0209139Y0077954D01*
X0209037Y0077740D01*
X0208929Y0077528D01*
X0208815Y0077318D01*
X0208697Y0077112D01*
X0208574Y0076908D01*
X0208446Y0076708D01*
X0208314Y0076511D01*
X0208176Y0076316D01*
X0208034Y0076126D01*
X0207887Y0075938D01*
X0207736Y0075755D01*
X0207581Y0075575D01*
X0207421Y0075399D01*
X0207257Y0075227D01*
X0207088Y0075058D01*
X0206916Y0074894D01*
X0206740Y0074734D01*
X0206560Y0074579D01*
X0206377Y0074428D01*
X0206189Y0074281D01*
X0205999Y0074139D01*
X0205804Y0074001D01*
X0205607Y0073869D01*
X0205407Y0073741D01*
X0205203Y0073618D01*
X0204997Y0073500D01*
X0204787Y0073386D01*
X0204575Y0073278D01*
X0204361Y0073176D01*
X0204144Y0073078D01*
X0203925Y0072986D01*
X0203703Y0072899D01*
X0203480Y0072817D01*
X0203255Y0072741D01*
X0203028Y0072670D01*
X0202799Y0072605D01*
X0202569Y0072545D01*
X0202337Y0072491D01*
X0202104Y0072442D01*
X0201870Y0072399D01*
X0201635Y0072362D01*
X0201399Y0072331D01*
X0201163Y0072305D01*
X0200926Y0072285D01*
X0200689Y0072270D01*
X0200451Y0072262D01*
X0200213Y0072259D01*
X0200213Y0072260D02*
X0058480Y0072260D01*
X0058480Y0072259D02*
X0058242Y0072262D01*
X0058004Y0072270D01*
X0057767Y0072285D01*
X0057530Y0072305D01*
X0057294Y0072331D01*
X0057058Y0072362D01*
X0056823Y0072399D01*
X0056589Y0072442D01*
X0056356Y0072491D01*
X0056124Y0072545D01*
X0055894Y0072605D01*
X0055665Y0072670D01*
X0055438Y0072741D01*
X0055213Y0072817D01*
X0054990Y0072899D01*
X0054768Y0072986D01*
X0054549Y0073078D01*
X0054332Y0073176D01*
X0054118Y0073278D01*
X0053906Y0073386D01*
X0053696Y0073500D01*
X0053490Y0073618D01*
X0053286Y0073741D01*
X0053086Y0073869D01*
X0052889Y0074001D01*
X0052694Y0074139D01*
X0052504Y0074281D01*
X0052316Y0074428D01*
X0052133Y0074579D01*
X0051953Y0074734D01*
X0051777Y0074894D01*
X0051605Y0075058D01*
X0051436Y0075227D01*
X0051272Y0075399D01*
X0051112Y0075575D01*
X0050957Y0075755D01*
X0050806Y0075938D01*
X0050659Y0076126D01*
X0050517Y0076316D01*
X0050379Y0076511D01*
X0050247Y0076708D01*
X0050119Y0076908D01*
X0049996Y0077112D01*
X0049878Y0077318D01*
X0049764Y0077528D01*
X0049656Y0077740D01*
X0049554Y0077954D01*
X0049456Y0078171D01*
X0049364Y0078390D01*
X0049277Y0078612D01*
X0049195Y0078835D01*
X0049119Y0079060D01*
X0049048Y0079287D01*
X0048983Y0079516D01*
X0048923Y0079746D01*
X0048869Y0079978D01*
X0048820Y0080211D01*
X0048777Y0080445D01*
X0048740Y0080680D01*
X0048709Y0080916D01*
X0048683Y0081152D01*
X0048663Y0081389D01*
X0048648Y0081626D01*
X0048640Y0081864D01*
X0048637Y0082102D01*
X0058480Y0158874D02*
X0113598Y0158874D01*
X0113836Y0158877D01*
X0114074Y0158885D01*
X0114311Y0158900D01*
X0114548Y0158920D01*
X0114784Y0158946D01*
X0115020Y0158977D01*
X0115255Y0159014D01*
X0115489Y0159057D01*
X0115722Y0159106D01*
X0115954Y0159160D01*
X0116184Y0159220D01*
X0116413Y0159285D01*
X0116640Y0159356D01*
X0116865Y0159432D01*
X0117088Y0159514D01*
X0117310Y0159601D01*
X0117529Y0159693D01*
X0117746Y0159791D01*
X0117960Y0159893D01*
X0118172Y0160001D01*
X0118382Y0160115D01*
X0118588Y0160233D01*
X0118792Y0160356D01*
X0118992Y0160484D01*
X0119189Y0160616D01*
X0119384Y0160754D01*
X0119574Y0160896D01*
X0119762Y0161043D01*
X0119945Y0161194D01*
X0120125Y0161349D01*
X0120301Y0161509D01*
X0120473Y0161673D01*
X0120642Y0161842D01*
X0120806Y0162014D01*
X0120966Y0162190D01*
X0121121Y0162370D01*
X0121272Y0162553D01*
X0121419Y0162741D01*
X0121561Y0162931D01*
X0121699Y0163126D01*
X0121831Y0163323D01*
X0121959Y0163523D01*
X0122082Y0163727D01*
X0122200Y0163933D01*
X0122314Y0164143D01*
X0122422Y0164355D01*
X0122524Y0164569D01*
X0122622Y0164786D01*
X0122714Y0165005D01*
X0122801Y0165227D01*
X0122883Y0165450D01*
X0122959Y0165675D01*
X0123030Y0165902D01*
X0123095Y0166131D01*
X0123155Y0166361D01*
X0123209Y0166593D01*
X0123258Y0166826D01*
X0123301Y0167060D01*
X0123338Y0167295D01*
X0123369Y0167531D01*
X0123395Y0167767D01*
X0123415Y0168004D01*
X0123430Y0168241D01*
X0123438Y0168479D01*
X0123441Y0168717D01*
X0123441Y0334071D01*
X0123438Y0334309D01*
X0123430Y0334547D01*
X0123415Y0334784D01*
X0123395Y0335021D01*
X0123369Y0335257D01*
X0123338Y0335493D01*
X0123301Y0335728D01*
X0123258Y0335962D01*
X0123209Y0336195D01*
X0123155Y0336427D01*
X0123095Y0336657D01*
X0123030Y0336886D01*
X0122959Y0337113D01*
X0122883Y0337338D01*
X0122801Y0337561D01*
X0122714Y0337783D01*
X0122622Y0338002D01*
X0122524Y0338219D01*
X0122422Y0338433D01*
X0122314Y0338645D01*
X0122200Y0338855D01*
X0122082Y0339061D01*
X0121959Y0339265D01*
X0121831Y0339465D01*
X0121699Y0339662D01*
X0121561Y0339857D01*
X0121419Y0340047D01*
X0121272Y0340235D01*
X0121121Y0340418D01*
X0120966Y0340598D01*
X0120806Y0340774D01*
X0120642Y0340946D01*
X0120473Y0341115D01*
X0120301Y0341279D01*
X0120125Y0341439D01*
X0119945Y0341594D01*
X0119762Y0341745D01*
X0119574Y0341892D01*
X0119384Y0342034D01*
X0119189Y0342172D01*
X0118992Y0342304D01*
X0118792Y0342432D01*
X0118588Y0342555D01*
X0118382Y0342673D01*
X0118172Y0342787D01*
X0117960Y0342895D01*
X0117746Y0342997D01*
X0117529Y0343095D01*
X0117310Y0343187D01*
X0117088Y0343274D01*
X0116865Y0343356D01*
X0116640Y0343432D01*
X0116413Y0343503D01*
X0116184Y0343568D01*
X0115954Y0343628D01*
X0115722Y0343682D01*
X0115489Y0343731D01*
X0115255Y0343774D01*
X0115020Y0343811D01*
X0114784Y0343842D01*
X0114548Y0343868D01*
X0114311Y0343888D01*
X0114074Y0343903D01*
X0113836Y0343911D01*
X0113598Y0343914D01*
X0113598Y0343913D02*
X0058480Y0343913D01*
X0058480Y0343914D02*
X0058242Y0343911D01*
X0058004Y0343903D01*
X0057767Y0343888D01*
X0057530Y0343868D01*
X0057294Y0343842D01*
X0057058Y0343811D01*
X0056823Y0343774D01*
X0056589Y0343731D01*
X0056356Y0343682D01*
X0056124Y0343628D01*
X0055894Y0343568D01*
X0055665Y0343503D01*
X0055438Y0343432D01*
X0055213Y0343356D01*
X0054990Y0343274D01*
X0054768Y0343187D01*
X0054549Y0343095D01*
X0054332Y0342997D01*
X0054118Y0342895D01*
X0053906Y0342787D01*
X0053696Y0342673D01*
X0053490Y0342555D01*
X0053286Y0342432D01*
X0053086Y0342304D01*
X0052889Y0342172D01*
X0052694Y0342034D01*
X0052504Y0341892D01*
X0052316Y0341745D01*
X0052133Y0341594D01*
X0051953Y0341439D01*
X0051777Y0341279D01*
X0051605Y0341115D01*
X0051436Y0340946D01*
X0051272Y0340774D01*
X0051112Y0340598D01*
X0050957Y0340418D01*
X0050806Y0340235D01*
X0050659Y0340047D01*
X0050517Y0339857D01*
X0050379Y0339662D01*
X0050247Y0339465D01*
X0050119Y0339265D01*
X0049996Y0339061D01*
X0049878Y0338855D01*
X0049764Y0338645D01*
X0049656Y0338433D01*
X0049554Y0338219D01*
X0049456Y0338002D01*
X0049364Y0337783D01*
X0049277Y0337561D01*
X0049195Y0337338D01*
X0049119Y0337113D01*
X0049048Y0336886D01*
X0048983Y0336657D01*
X0048923Y0336427D01*
X0048869Y0336195D01*
X0048820Y0335962D01*
X0048777Y0335728D01*
X0048740Y0335493D01*
X0048709Y0335257D01*
X0048683Y0335021D01*
X0048663Y0334784D01*
X0048648Y0334547D01*
X0048640Y0334309D01*
X0048637Y0334071D01*
X0048638Y0334071D02*
X0048638Y0168717D01*
X0048637Y0168717D02*
X0048640Y0168479D01*
X0048648Y0168241D01*
X0048663Y0168004D01*
X0048683Y0167767D01*
X0048709Y0167531D01*
X0048740Y0167295D01*
X0048777Y0167060D01*
X0048820Y0166826D01*
X0048869Y0166593D01*
X0048923Y0166361D01*
X0048983Y0166131D01*
X0049048Y0165902D01*
X0049119Y0165675D01*
X0049195Y0165450D01*
X0049277Y0165227D01*
X0049364Y0165005D01*
X0049456Y0164786D01*
X0049554Y0164569D01*
X0049656Y0164355D01*
X0049764Y0164143D01*
X0049878Y0163933D01*
X0049996Y0163727D01*
X0050119Y0163523D01*
X0050247Y0163323D01*
X0050379Y0163126D01*
X0050517Y0162931D01*
X0050659Y0162741D01*
X0050806Y0162553D01*
X0050957Y0162370D01*
X0051112Y0162190D01*
X0051272Y0162014D01*
X0051436Y0161842D01*
X0051605Y0161673D01*
X0051777Y0161509D01*
X0051953Y0161349D01*
X0052133Y0161194D01*
X0052316Y0161043D01*
X0052504Y0160896D01*
X0052694Y0160754D01*
X0052889Y0160616D01*
X0053086Y0160484D01*
X0053286Y0160356D01*
X0053490Y0160233D01*
X0053696Y0160115D01*
X0053906Y0160001D01*
X0054118Y0159893D01*
X0054332Y0159791D01*
X0054549Y0159693D01*
X0054768Y0159601D01*
X0054990Y0159514D01*
X0055213Y0159432D01*
X0055438Y0159356D01*
X0055665Y0159285D01*
X0055894Y0159220D01*
X0056124Y0159160D01*
X0056356Y0159106D01*
X0056589Y0159057D01*
X0056823Y0159014D01*
X0057058Y0158977D01*
X0057294Y0158946D01*
X0057530Y0158920D01*
X0057767Y0158900D01*
X0058004Y0158885D01*
X0058242Y0158877D01*
X0058480Y0158874D01*
D11*
X0090792Y0062275D02*
X0093714Y0058623D01*
X0092253Y0057162D02*
X0092180Y0057164D01*
X0092108Y0057170D01*
X0092035Y0057180D01*
X0091964Y0057193D01*
X0091893Y0057211D01*
X0091823Y0057232D01*
X0091755Y0057257D01*
X0091688Y0057286D01*
X0091623Y0057318D01*
X0091559Y0057354D01*
X0091498Y0057393D01*
X0091438Y0057435D01*
X0091381Y0057481D01*
X0091327Y0057529D01*
X0091275Y0057581D01*
X0091227Y0057635D01*
X0091181Y0057691D01*
X0091138Y0057750D01*
X0091098Y0057811D01*
X0091062Y0057875D01*
X0091030Y0057940D01*
X0091001Y0058007D01*
X0090975Y0058075D01*
X0092253Y0057162D02*
X0092326Y0057164D01*
X0092398Y0057170D01*
X0092471Y0057180D01*
X0092542Y0057193D01*
X0092613Y0057211D01*
X0092683Y0057232D01*
X0092751Y0057257D01*
X0092818Y0057286D01*
X0092883Y0057318D01*
X0092947Y0057354D01*
X0093008Y0057393D01*
X0093068Y0057435D01*
X0093125Y0057481D01*
X0093179Y0057529D01*
X0093231Y0057581D01*
X0093279Y0057635D01*
X0093325Y0057691D01*
X0093368Y0057750D01*
X0093408Y0057811D01*
X0093444Y0057875D01*
X0093476Y0057940D01*
X0093505Y0058007D01*
X0093531Y0058075D01*
X0090427Y0060449D02*
X0090429Y0060594D01*
X0090435Y0060738D01*
X0090444Y0060882D01*
X0090458Y0061026D01*
X0090475Y0061170D01*
X0090496Y0061313D01*
X0090521Y0061455D01*
X0090550Y0061597D01*
X0090582Y0061737D01*
X0090619Y0061877D01*
X0090659Y0062016D01*
X0090702Y0062154D01*
X0090750Y0062291D01*
X0090801Y0062426D01*
X0090855Y0062560D01*
X0090913Y0062692D01*
X0090975Y0062823D01*
X0092253Y0063736D02*
X0092326Y0063734D01*
X0092398Y0063728D01*
X0092471Y0063718D01*
X0092542Y0063705D01*
X0092613Y0063687D01*
X0092683Y0063666D01*
X0092751Y0063641D01*
X0092818Y0063612D01*
X0092883Y0063580D01*
X0092947Y0063544D01*
X0093008Y0063505D01*
X0093068Y0063463D01*
X0093125Y0063417D01*
X0093179Y0063369D01*
X0093231Y0063317D01*
X0093279Y0063263D01*
X0093325Y0063207D01*
X0093368Y0063148D01*
X0093408Y0063087D01*
X0093444Y0063023D01*
X0093476Y0062958D01*
X0093506Y0062891D01*
X0093531Y0062823D01*
X0092253Y0063735D02*
X0092180Y0063733D01*
X0092108Y0063727D01*
X0092035Y0063717D01*
X0091964Y0063704D01*
X0091893Y0063686D01*
X0091823Y0063665D01*
X0091755Y0063640D01*
X0091688Y0063611D01*
X0091623Y0063579D01*
X0091559Y0063543D01*
X0091498Y0063504D01*
X0091438Y0063462D01*
X0091381Y0063416D01*
X0091327Y0063368D01*
X0091275Y0063316D01*
X0091227Y0063262D01*
X0091181Y0063206D01*
X0091138Y0063147D01*
X0091098Y0063086D01*
X0091062Y0063022D01*
X0091030Y0062957D01*
X0091001Y0062890D01*
X0090975Y0062822D01*
X0093530Y0062823D02*
X0093592Y0062692D01*
X0093650Y0062560D01*
X0093704Y0062426D01*
X0093755Y0062291D01*
X0093803Y0062154D01*
X0093846Y0062016D01*
X0093886Y0061877D01*
X0093923Y0061737D01*
X0093955Y0061597D01*
X0093984Y0061455D01*
X0094009Y0061313D01*
X0094030Y0061170D01*
X0094047Y0061026D01*
X0094061Y0060882D01*
X0094070Y0060738D01*
X0094076Y0060594D01*
X0094078Y0060449D01*
X0090426Y0060449D02*
X0090428Y0060304D01*
X0090434Y0060160D01*
X0090443Y0060016D01*
X0090457Y0059872D01*
X0090474Y0059728D01*
X0090495Y0059585D01*
X0090520Y0059443D01*
X0090549Y0059301D01*
X0090581Y0059160D01*
X0090618Y0059020D01*
X0090658Y0058882D01*
X0090701Y0058744D01*
X0090749Y0058607D01*
X0090800Y0058472D01*
X0090854Y0058338D01*
X0090912Y0058206D01*
X0090974Y0058075D01*
X0093531Y0058075D02*
X0093593Y0058206D01*
X0093651Y0058338D01*
X0093705Y0058472D01*
X0093756Y0058607D01*
X0093804Y0058744D01*
X0093847Y0058882D01*
X0093887Y0059020D01*
X0093924Y0059160D01*
X0093956Y0059301D01*
X0093985Y0059443D01*
X0094010Y0059585D01*
X0094031Y0059728D01*
X0094048Y0059872D01*
X0094062Y0060016D01*
X0094071Y0060160D01*
X0094077Y0060304D01*
X0094079Y0060449D01*
X0096824Y0057527D02*
X0096824Y0057162D01*
X0097189Y0057162D01*
X0097189Y0057527D01*
X0096824Y0057527D01*
X0099934Y0057162D02*
X0103587Y0057162D01*
X0101761Y0057162D02*
X0101761Y0063736D01*
X0103587Y0062275D01*
X0106412Y0061544D02*
X0107873Y0057162D01*
X0109334Y0061544D01*
X0115010Y0061544D02*
X0115010Y0060814D01*
X0115010Y0061544D02*
X0117202Y0061544D01*
X0117202Y0057162D01*
X0120447Y0058623D02*
X0120447Y0060084D01*
X0120449Y0060159D01*
X0120455Y0060234D01*
X0120464Y0060309D01*
X0120478Y0060383D01*
X0120495Y0060456D01*
X0120516Y0060528D01*
X0120541Y0060599D01*
X0120569Y0060669D01*
X0120601Y0060737D01*
X0120637Y0060804D01*
X0120675Y0060868D01*
X0120717Y0060931D01*
X0120762Y0060991D01*
X0120811Y0061048D01*
X0120862Y0061104D01*
X0120916Y0061156D01*
X0120972Y0061206D01*
X0121031Y0061253D01*
X0121092Y0061296D01*
X0121156Y0061337D01*
X0121221Y0061374D01*
X0121289Y0061407D01*
X0121358Y0061437D01*
X0121428Y0061464D01*
X0121500Y0061487D01*
X0121572Y0061506D01*
X0121646Y0061521D01*
X0121720Y0061533D01*
X0121795Y0061541D01*
X0121870Y0061545D01*
X0121946Y0061545D01*
X0122021Y0061541D01*
X0122096Y0061533D01*
X0122170Y0061521D01*
X0122244Y0061506D01*
X0122316Y0061487D01*
X0122388Y0061464D01*
X0122458Y0061437D01*
X0122527Y0061407D01*
X0122595Y0061374D01*
X0122660Y0061337D01*
X0122724Y0061296D01*
X0122785Y0061253D01*
X0122844Y0061206D01*
X0122900Y0061156D01*
X0122954Y0061104D01*
X0123005Y0061048D01*
X0123054Y0060991D01*
X0123099Y0060931D01*
X0123141Y0060868D01*
X0123179Y0060804D01*
X0123215Y0060737D01*
X0123247Y0060669D01*
X0123275Y0060599D01*
X0123300Y0060528D01*
X0123321Y0060456D01*
X0123338Y0060383D01*
X0123352Y0060309D01*
X0123361Y0060234D01*
X0123367Y0060159D01*
X0123369Y0060084D01*
X0123369Y0058623D01*
X0123367Y0058548D01*
X0123361Y0058473D01*
X0123352Y0058398D01*
X0123338Y0058324D01*
X0123321Y0058251D01*
X0123300Y0058179D01*
X0123275Y0058108D01*
X0123247Y0058038D01*
X0123215Y0057970D01*
X0123179Y0057903D01*
X0123141Y0057839D01*
X0123099Y0057776D01*
X0123054Y0057716D01*
X0123005Y0057659D01*
X0122954Y0057603D01*
X0122900Y0057551D01*
X0122844Y0057501D01*
X0122785Y0057454D01*
X0122724Y0057411D01*
X0122660Y0057370D01*
X0122595Y0057333D01*
X0122527Y0057300D01*
X0122458Y0057270D01*
X0122388Y0057243D01*
X0122316Y0057220D01*
X0122244Y0057201D01*
X0122170Y0057186D01*
X0122096Y0057174D01*
X0122021Y0057166D01*
X0121946Y0057162D01*
X0121870Y0057162D01*
X0121795Y0057166D01*
X0121720Y0057174D01*
X0121646Y0057186D01*
X0121572Y0057201D01*
X0121500Y0057220D01*
X0121428Y0057243D01*
X0121358Y0057270D01*
X0121289Y0057300D01*
X0121221Y0057333D01*
X0121156Y0057370D01*
X0121092Y0057411D01*
X0121031Y0057454D01*
X0120972Y0057501D01*
X0120916Y0057551D01*
X0120862Y0057603D01*
X0120811Y0057659D01*
X0120762Y0057716D01*
X0120717Y0057776D01*
X0120675Y0057839D01*
X0120637Y0057903D01*
X0120601Y0057970D01*
X0120569Y0058038D01*
X0120541Y0058108D01*
X0120516Y0058179D01*
X0120495Y0058251D01*
X0120478Y0058324D01*
X0120464Y0058398D01*
X0120455Y0058473D01*
X0120449Y0058548D01*
X0120447Y0058623D01*
X0121581Y0051925D02*
X0121581Y0045351D01*
X0123407Y0045351D02*
X0119755Y0045351D01*
X0117009Y0045351D02*
X0116644Y0045351D01*
X0116644Y0045716D01*
X0117009Y0045716D01*
X0117009Y0045351D01*
X0113899Y0045351D02*
X0110247Y0045351D01*
X0113899Y0045351D02*
X0110795Y0049003D01*
X0111890Y0051924D02*
X0111978Y0051922D01*
X0112067Y0051917D01*
X0112155Y0051907D01*
X0112242Y0051894D01*
X0112329Y0051878D01*
X0112415Y0051858D01*
X0112501Y0051834D01*
X0112585Y0051806D01*
X0112668Y0051776D01*
X0112749Y0051741D01*
X0112829Y0051704D01*
X0112908Y0051662D01*
X0112984Y0051618D01*
X0113059Y0051571D01*
X0113132Y0051520D01*
X0113202Y0051467D01*
X0113270Y0051410D01*
X0113336Y0051351D01*
X0113399Y0051289D01*
X0113460Y0051225D01*
X0113517Y0051158D01*
X0113572Y0051088D01*
X0113624Y0051016D01*
X0113673Y0050943D01*
X0113719Y0050867D01*
X0113762Y0050789D01*
X0113801Y0050710D01*
X0113837Y0050629D01*
X0113869Y0050547D01*
X0113898Y0050463D01*
X0110795Y0049003D02*
X0110739Y0049059D01*
X0110685Y0049117D01*
X0110634Y0049178D01*
X0110586Y0049241D01*
X0110540Y0049307D01*
X0110498Y0049374D01*
X0110459Y0049443D01*
X0110423Y0049513D01*
X0110390Y0049586D01*
X0110360Y0049659D01*
X0110334Y0049734D01*
X0110311Y0049810D01*
X0110291Y0049887D01*
X0110276Y0049965D01*
X0110263Y0050044D01*
X0110254Y0050122D01*
X0110249Y0050202D01*
X0110247Y0050281D01*
X0110246Y0050281D02*
X0110248Y0050359D01*
X0110253Y0050437D01*
X0110263Y0050515D01*
X0110276Y0050592D01*
X0110292Y0050669D01*
X0110313Y0050744D01*
X0110336Y0050819D01*
X0110364Y0050892D01*
X0110395Y0050964D01*
X0110429Y0051034D01*
X0110466Y0051103D01*
X0110507Y0051170D01*
X0110551Y0051235D01*
X0110598Y0051297D01*
X0110648Y0051358D01*
X0110700Y0051415D01*
X0110756Y0051471D01*
X0110813Y0051523D01*
X0110874Y0051573D01*
X0110936Y0051620D01*
X0111001Y0051664D01*
X0111068Y0051705D01*
X0111137Y0051742D01*
X0111207Y0051776D01*
X0111279Y0051807D01*
X0111352Y0051835D01*
X0111427Y0051858D01*
X0111502Y0051879D01*
X0111579Y0051895D01*
X0111656Y0051908D01*
X0111734Y0051918D01*
X0111812Y0051923D01*
X0111890Y0051925D01*
X0121581Y0051925D02*
X0123407Y0050464D01*
X0126232Y0049733D02*
X0127693Y0045351D01*
X0129154Y0049733D01*
X0135180Y0045351D02*
X0138102Y0045351D01*
X0138102Y0051925D01*
X0136872Y0057162D02*
X0136507Y0057162D01*
X0136872Y0057161D02*
X0136936Y0057163D01*
X0136999Y0057168D01*
X0137062Y0057178D01*
X0137125Y0057191D01*
X0137186Y0057207D01*
X0137247Y0057227D01*
X0137306Y0057251D01*
X0137364Y0057278D01*
X0137420Y0057308D01*
X0137474Y0057341D01*
X0137526Y0057378D01*
X0137576Y0057417D01*
X0137624Y0057460D01*
X0137669Y0057505D01*
X0137712Y0057553D01*
X0137751Y0057603D01*
X0137788Y0057655D01*
X0137821Y0057709D01*
X0137851Y0057765D01*
X0137878Y0057823D01*
X0137902Y0057882D01*
X0137922Y0057943D01*
X0137938Y0058004D01*
X0137951Y0058067D01*
X0137961Y0058130D01*
X0137966Y0058193D01*
X0137968Y0058257D01*
X0137968Y0063736D01*
X0138698Y0061544D02*
X0136507Y0061544D01*
X0133464Y0061544D02*
X0132003Y0061544D01*
X0132003Y0061545D02*
X0131939Y0061543D01*
X0131876Y0061538D01*
X0131813Y0061528D01*
X0131750Y0061515D01*
X0131689Y0061499D01*
X0131628Y0061479D01*
X0131569Y0061455D01*
X0131511Y0061428D01*
X0131455Y0061398D01*
X0131401Y0061365D01*
X0131349Y0061328D01*
X0131299Y0061289D01*
X0131251Y0061246D01*
X0131206Y0061201D01*
X0131163Y0061153D01*
X0131124Y0061103D01*
X0131087Y0061051D01*
X0131054Y0060997D01*
X0131024Y0060941D01*
X0130997Y0060883D01*
X0130973Y0060824D01*
X0130953Y0060763D01*
X0130937Y0060702D01*
X0130924Y0060639D01*
X0130914Y0060576D01*
X0130909Y0060513D01*
X0130907Y0060449D01*
X0130907Y0057162D01*
X0132551Y0057162D01*
X0132621Y0057164D01*
X0132692Y0057170D01*
X0132761Y0057179D01*
X0132830Y0057193D01*
X0132899Y0057210D01*
X0132966Y0057231D01*
X0133032Y0057256D01*
X0133096Y0057284D01*
X0133159Y0057316D01*
X0133220Y0057351D01*
X0133279Y0057390D01*
X0133336Y0057431D01*
X0133390Y0057476D01*
X0133442Y0057524D01*
X0133491Y0057574D01*
X0133538Y0057628D01*
X0133581Y0057683D01*
X0133621Y0057741D01*
X0133658Y0057801D01*
X0133691Y0057863D01*
X0133721Y0057927D01*
X0133748Y0057992D01*
X0133771Y0058058D01*
X0133790Y0058126D01*
X0133805Y0058195D01*
X0133817Y0058264D01*
X0133825Y0058334D01*
X0133829Y0058405D01*
X0133829Y0058475D01*
X0133825Y0058546D01*
X0133817Y0058616D01*
X0133805Y0058685D01*
X0133790Y0058754D01*
X0133771Y0058822D01*
X0133748Y0058888D01*
X0133721Y0058953D01*
X0133691Y0059017D01*
X0133658Y0059079D01*
X0133621Y0059139D01*
X0133581Y0059197D01*
X0133538Y0059252D01*
X0133491Y0059306D01*
X0133442Y0059356D01*
X0133390Y0059404D01*
X0133336Y0059449D01*
X0133279Y0059490D01*
X0133220Y0059529D01*
X0133159Y0059564D01*
X0133096Y0059596D01*
X0133032Y0059624D01*
X0132966Y0059649D01*
X0132899Y0059670D01*
X0132830Y0059687D01*
X0132761Y0059701D01*
X0132692Y0059710D01*
X0132621Y0059716D01*
X0132551Y0059718D01*
X0130907Y0059718D01*
X0128285Y0061544D02*
X0126094Y0061544D01*
X0127555Y0063736D02*
X0127555Y0058257D01*
X0127553Y0058193D01*
X0127548Y0058130D01*
X0127538Y0058067D01*
X0127525Y0058004D01*
X0127509Y0057943D01*
X0127489Y0057882D01*
X0127465Y0057823D01*
X0127438Y0057765D01*
X0127408Y0057709D01*
X0127375Y0057655D01*
X0127338Y0057603D01*
X0127299Y0057553D01*
X0127256Y0057505D01*
X0127211Y0057460D01*
X0127163Y0057417D01*
X0127113Y0057378D01*
X0127061Y0057341D01*
X0127007Y0057308D01*
X0126951Y0057278D01*
X0126893Y0057251D01*
X0126834Y0057227D01*
X0126773Y0057207D01*
X0126712Y0057191D01*
X0126649Y0057178D01*
X0126586Y0057168D01*
X0126523Y0057163D01*
X0126459Y0057161D01*
X0126459Y0057162D02*
X0126094Y0057162D01*
X0141274Y0057162D02*
X0141274Y0061544D01*
X0144196Y0058257D02*
X0144194Y0058193D01*
X0144189Y0058130D01*
X0144179Y0058067D01*
X0144166Y0058004D01*
X0144150Y0057943D01*
X0144130Y0057882D01*
X0144106Y0057823D01*
X0144079Y0057765D01*
X0144049Y0057709D01*
X0144016Y0057655D01*
X0143979Y0057603D01*
X0143940Y0057553D01*
X0143897Y0057505D01*
X0143852Y0057460D01*
X0143804Y0057417D01*
X0143754Y0057378D01*
X0143702Y0057341D01*
X0143648Y0057308D01*
X0143592Y0057278D01*
X0143534Y0057251D01*
X0143475Y0057227D01*
X0143414Y0057207D01*
X0143353Y0057191D01*
X0143290Y0057178D01*
X0143227Y0057168D01*
X0143164Y0057163D01*
X0143100Y0057161D01*
X0143100Y0057162D02*
X0141274Y0057162D01*
X0141713Y0051925D02*
X0141713Y0045351D01*
X0141713Y0049003D02*
X0145365Y0049003D01*
X0145365Y0051925D02*
X0145365Y0045351D01*
X0148731Y0047177D02*
X0148731Y0050099D01*
X0148733Y0050183D01*
X0148739Y0050267D01*
X0148749Y0050351D01*
X0148762Y0050435D01*
X0148780Y0050517D01*
X0148801Y0050599D01*
X0148826Y0050679D01*
X0148854Y0050759D01*
X0148887Y0050837D01*
X0148922Y0050913D01*
X0148962Y0050988D01*
X0149005Y0051060D01*
X0149051Y0051131D01*
X0149100Y0051199D01*
X0149152Y0051266D01*
X0149208Y0051329D01*
X0149266Y0051390D01*
X0149327Y0051448D01*
X0149390Y0051504D01*
X0149457Y0051556D01*
X0149525Y0051605D01*
X0149596Y0051651D01*
X0149668Y0051694D01*
X0149743Y0051734D01*
X0149819Y0051769D01*
X0149897Y0051802D01*
X0149977Y0051830D01*
X0150057Y0051855D01*
X0150139Y0051876D01*
X0150221Y0051894D01*
X0150305Y0051907D01*
X0150389Y0051917D01*
X0150473Y0051923D01*
X0150557Y0051925D01*
X0150641Y0051923D01*
X0150725Y0051917D01*
X0150809Y0051907D01*
X0150893Y0051894D01*
X0150975Y0051876D01*
X0151057Y0051855D01*
X0151137Y0051830D01*
X0151217Y0051802D01*
X0151295Y0051769D01*
X0151371Y0051734D01*
X0151446Y0051694D01*
X0151518Y0051651D01*
X0151589Y0051605D01*
X0151657Y0051556D01*
X0151724Y0051504D01*
X0151787Y0051448D01*
X0151848Y0051390D01*
X0151906Y0051329D01*
X0151962Y0051266D01*
X0152014Y0051199D01*
X0152063Y0051131D01*
X0152109Y0051060D01*
X0152152Y0050988D01*
X0152192Y0050913D01*
X0152227Y0050837D01*
X0152260Y0050759D01*
X0152288Y0050679D01*
X0152313Y0050599D01*
X0152334Y0050517D01*
X0152352Y0050435D01*
X0152365Y0050351D01*
X0152375Y0050267D01*
X0152381Y0050183D01*
X0152383Y0050099D01*
X0152383Y0047177D01*
X0152381Y0047093D01*
X0152375Y0047009D01*
X0152365Y0046925D01*
X0152352Y0046841D01*
X0152334Y0046759D01*
X0152313Y0046677D01*
X0152288Y0046597D01*
X0152260Y0046517D01*
X0152227Y0046439D01*
X0152192Y0046363D01*
X0152152Y0046288D01*
X0152109Y0046216D01*
X0152063Y0046145D01*
X0152014Y0046077D01*
X0151962Y0046010D01*
X0151906Y0045947D01*
X0151848Y0045886D01*
X0151787Y0045828D01*
X0151724Y0045772D01*
X0151657Y0045720D01*
X0151589Y0045671D01*
X0151518Y0045625D01*
X0151446Y0045582D01*
X0151371Y0045542D01*
X0151295Y0045507D01*
X0151217Y0045474D01*
X0151137Y0045446D01*
X0151057Y0045421D01*
X0150975Y0045400D01*
X0150893Y0045382D01*
X0150809Y0045369D01*
X0150725Y0045359D01*
X0150641Y0045353D01*
X0150557Y0045351D01*
X0150473Y0045353D01*
X0150389Y0045359D01*
X0150305Y0045369D01*
X0150221Y0045382D01*
X0150139Y0045400D01*
X0150057Y0045421D01*
X0149977Y0045446D01*
X0149897Y0045474D01*
X0149819Y0045507D01*
X0149743Y0045542D01*
X0149668Y0045582D01*
X0149596Y0045625D01*
X0149525Y0045671D01*
X0149457Y0045720D01*
X0149390Y0045772D01*
X0149327Y0045828D01*
X0149266Y0045886D01*
X0149208Y0045947D01*
X0149152Y0046010D01*
X0149100Y0046077D01*
X0149051Y0046145D01*
X0149005Y0046216D01*
X0148962Y0046288D01*
X0148922Y0046363D01*
X0148887Y0046439D01*
X0148854Y0046517D01*
X0148826Y0046597D01*
X0148801Y0046677D01*
X0148780Y0046759D01*
X0148762Y0046841D01*
X0148749Y0046925D01*
X0148739Y0047009D01*
X0148733Y0047093D01*
X0148731Y0047177D01*
X0147788Y0057162D02*
X0147788Y0060449D01*
X0147787Y0060449D02*
X0147789Y0060513D01*
X0147794Y0060576D01*
X0147804Y0060639D01*
X0147817Y0060702D01*
X0147833Y0060763D01*
X0147853Y0060824D01*
X0147877Y0060883D01*
X0147904Y0060941D01*
X0147934Y0060997D01*
X0147967Y0061051D01*
X0148004Y0061103D01*
X0148043Y0061153D01*
X0148086Y0061201D01*
X0148131Y0061246D01*
X0148179Y0061289D01*
X0148229Y0061328D01*
X0148281Y0061365D01*
X0148335Y0061398D01*
X0148391Y0061428D01*
X0148449Y0061455D01*
X0148508Y0061479D01*
X0148569Y0061499D01*
X0148630Y0061515D01*
X0148693Y0061528D01*
X0148756Y0061538D01*
X0148819Y0061543D01*
X0148883Y0061545D01*
X0148883Y0061544D02*
X0152170Y0061544D01*
X0152170Y0057162D01*
X0149979Y0057162D02*
X0149979Y0061544D01*
X0144196Y0061544D02*
X0144196Y0058257D01*
X0155937Y0057162D02*
X0155937Y0060449D01*
X0155939Y0060513D01*
X0155944Y0060576D01*
X0155954Y0060639D01*
X0155967Y0060702D01*
X0155983Y0060763D01*
X0156003Y0060824D01*
X0156027Y0060883D01*
X0156054Y0060941D01*
X0156084Y0060997D01*
X0156117Y0061051D01*
X0156154Y0061103D01*
X0156193Y0061153D01*
X0156236Y0061201D01*
X0156281Y0061246D01*
X0156329Y0061289D01*
X0156379Y0061328D01*
X0156431Y0061365D01*
X0156485Y0061398D01*
X0156541Y0061428D01*
X0156599Y0061455D01*
X0156658Y0061479D01*
X0156719Y0061499D01*
X0156780Y0061515D01*
X0156843Y0061528D01*
X0156906Y0061538D01*
X0156969Y0061543D01*
X0157033Y0061545D01*
X0157033Y0061544D02*
X0160320Y0061544D01*
X0160320Y0057162D01*
X0158129Y0057162D02*
X0158129Y0061544D01*
X0163685Y0060084D02*
X0163685Y0058623D01*
X0163687Y0058548D01*
X0163693Y0058473D01*
X0163702Y0058398D01*
X0163716Y0058324D01*
X0163733Y0058251D01*
X0163754Y0058179D01*
X0163779Y0058108D01*
X0163807Y0058038D01*
X0163839Y0057970D01*
X0163875Y0057903D01*
X0163913Y0057839D01*
X0163955Y0057776D01*
X0164000Y0057716D01*
X0164049Y0057659D01*
X0164100Y0057603D01*
X0164154Y0057551D01*
X0164210Y0057501D01*
X0164269Y0057454D01*
X0164330Y0057411D01*
X0164394Y0057370D01*
X0164459Y0057333D01*
X0164527Y0057300D01*
X0164596Y0057270D01*
X0164666Y0057243D01*
X0164738Y0057220D01*
X0164810Y0057201D01*
X0164884Y0057186D01*
X0164958Y0057174D01*
X0165033Y0057166D01*
X0165108Y0057162D01*
X0165184Y0057162D01*
X0165259Y0057166D01*
X0165334Y0057174D01*
X0165408Y0057186D01*
X0165482Y0057201D01*
X0165554Y0057220D01*
X0165626Y0057243D01*
X0165696Y0057270D01*
X0165765Y0057300D01*
X0165833Y0057333D01*
X0165898Y0057370D01*
X0165962Y0057411D01*
X0166023Y0057454D01*
X0166082Y0057501D01*
X0166138Y0057551D01*
X0166192Y0057603D01*
X0166243Y0057659D01*
X0166292Y0057716D01*
X0166337Y0057776D01*
X0166379Y0057839D01*
X0166417Y0057903D01*
X0166453Y0057970D01*
X0166485Y0058038D01*
X0166513Y0058108D01*
X0166538Y0058179D01*
X0166559Y0058251D01*
X0166576Y0058324D01*
X0166590Y0058398D01*
X0166599Y0058473D01*
X0166605Y0058548D01*
X0166607Y0058623D01*
X0166607Y0060084D01*
X0166605Y0060159D01*
X0166599Y0060234D01*
X0166590Y0060309D01*
X0166576Y0060383D01*
X0166559Y0060456D01*
X0166538Y0060528D01*
X0166513Y0060599D01*
X0166485Y0060669D01*
X0166453Y0060737D01*
X0166417Y0060804D01*
X0166379Y0060868D01*
X0166337Y0060931D01*
X0166292Y0060991D01*
X0166243Y0061048D01*
X0166192Y0061104D01*
X0166138Y0061156D01*
X0166082Y0061206D01*
X0166023Y0061253D01*
X0165962Y0061296D01*
X0165898Y0061337D01*
X0165833Y0061374D01*
X0165765Y0061407D01*
X0165696Y0061437D01*
X0165626Y0061464D01*
X0165554Y0061487D01*
X0165482Y0061506D01*
X0165408Y0061521D01*
X0165334Y0061533D01*
X0165259Y0061541D01*
X0165184Y0061545D01*
X0165108Y0061545D01*
X0165033Y0061541D01*
X0164958Y0061533D01*
X0164884Y0061521D01*
X0164810Y0061506D01*
X0164738Y0061487D01*
X0164666Y0061464D01*
X0164596Y0061437D01*
X0164527Y0061407D01*
X0164459Y0061374D01*
X0164394Y0061337D01*
X0164330Y0061296D01*
X0164269Y0061253D01*
X0164210Y0061206D01*
X0164154Y0061156D01*
X0164100Y0061104D01*
X0164049Y0061048D01*
X0164000Y0060991D01*
X0163955Y0060931D01*
X0163913Y0060868D01*
X0163875Y0060804D01*
X0163839Y0060737D01*
X0163807Y0060669D01*
X0163779Y0060599D01*
X0163754Y0060528D01*
X0163733Y0060456D01*
X0163716Y0060383D01*
X0163702Y0060309D01*
X0163693Y0060234D01*
X0163687Y0060159D01*
X0163685Y0060084D01*
X0169282Y0057162D02*
X0170742Y0057162D01*
X0170816Y0057164D01*
X0170890Y0057169D01*
X0170963Y0057179D01*
X0171036Y0057192D01*
X0171108Y0057209D01*
X0171179Y0057229D01*
X0171249Y0057253D01*
X0171318Y0057280D01*
X0171385Y0057311D01*
X0171451Y0057346D01*
X0171515Y0057383D01*
X0171577Y0057424D01*
X0171636Y0057468D01*
X0171694Y0057514D01*
X0171749Y0057564D01*
X0171801Y0057616D01*
X0171851Y0057671D01*
X0171897Y0057729D01*
X0171941Y0057788D01*
X0171982Y0057850D01*
X0172019Y0057914D01*
X0172054Y0057980D01*
X0172085Y0058047D01*
X0172112Y0058116D01*
X0172136Y0058186D01*
X0172156Y0058257D01*
X0172173Y0058329D01*
X0172186Y0058402D01*
X0172196Y0058475D01*
X0172201Y0058549D01*
X0172203Y0058623D01*
X0172203Y0062275D01*
X0172201Y0062349D01*
X0172196Y0062423D01*
X0172186Y0062496D01*
X0172173Y0062569D01*
X0172156Y0062641D01*
X0172136Y0062712D01*
X0172112Y0062782D01*
X0172085Y0062851D01*
X0172054Y0062918D01*
X0172019Y0062984D01*
X0171982Y0063048D01*
X0171941Y0063110D01*
X0171897Y0063169D01*
X0171851Y0063227D01*
X0171801Y0063282D01*
X0171749Y0063334D01*
X0171694Y0063384D01*
X0171636Y0063430D01*
X0171577Y0063474D01*
X0171515Y0063515D01*
X0171451Y0063552D01*
X0171385Y0063587D01*
X0171318Y0063618D01*
X0171249Y0063645D01*
X0171179Y0063669D01*
X0171108Y0063689D01*
X0171036Y0063706D01*
X0170963Y0063719D01*
X0170890Y0063729D01*
X0170816Y0063734D01*
X0170742Y0063736D01*
X0169282Y0063736D01*
D12*
X0169792Y0231917D03*
X0169892Y0249317D03*
X0181992Y0237917D03*
X0192992Y0252717D03*
X0194692Y0254217D03*
X0194692Y0254317D03*
X0194692Y0254417D03*
X0149192Y0255117D03*
X0110024Y0255017D03*
X0089324Y0249217D03*
X0089424Y0231817D03*
X0077224Y0237817D03*
X0066224Y0252617D03*
X0064524Y0254117D03*
X0064524Y0254217D03*
X0064524Y0254317D03*
D13*
X0064574Y0254017D03*
X0064574Y0253917D03*
X0064574Y0253817D03*
X0064574Y0253717D03*
X0064574Y0253617D03*
X0089274Y0249117D03*
X0089374Y0231917D03*
X0108274Y0253017D03*
X0110074Y0254717D03*
X0110074Y0254817D03*
X0110074Y0254917D03*
X0149142Y0254917D03*
X0149142Y0254817D03*
X0149142Y0255017D03*
X0150942Y0253117D03*
X0169942Y0249217D03*
X0169842Y0232017D03*
X0194642Y0253717D03*
X0194642Y0253817D03*
X0194642Y0253917D03*
X0194642Y0254017D03*
X0194642Y0254117D03*
D14*
X0194592Y0253617D03*
X0194592Y0253517D03*
X0194592Y0253417D03*
X0194592Y0253317D03*
X0194592Y0253217D03*
X0192992Y0252817D03*
X0182092Y0238017D03*
X0169892Y0232117D03*
X0169992Y0249117D03*
X0149092Y0254617D03*
X0149092Y0254717D03*
X0110124Y0254617D03*
X0110124Y0254517D03*
X0089224Y0249017D03*
X0089324Y0232017D03*
X0077124Y0237917D03*
X0066224Y0252717D03*
X0064624Y0253117D03*
X0064624Y0253217D03*
X0064624Y0253317D03*
X0064624Y0253417D03*
X0064624Y0253517D03*
D15*
X0064674Y0253017D03*
X0064674Y0252917D03*
X0064674Y0252817D03*
X0066274Y0252817D03*
X0089174Y0248917D03*
X0089274Y0232117D03*
X0108274Y0253117D03*
X0110074Y0254017D03*
X0110074Y0254117D03*
X0110074Y0254217D03*
X0110074Y0254317D03*
X0110074Y0254417D03*
X0149142Y0254417D03*
X0149142Y0254317D03*
X0149142Y0254217D03*
X0149142Y0254117D03*
X0149142Y0254517D03*
X0150942Y0253217D03*
X0170042Y0249017D03*
X0169942Y0232217D03*
X0192942Y0252917D03*
X0194542Y0252917D03*
X0194542Y0253017D03*
X0194542Y0253117D03*
D16*
X0194492Y0252817D03*
X0194492Y0252717D03*
X0170092Y0248917D03*
X0169992Y0232317D03*
X0150992Y0253317D03*
X0149192Y0253717D03*
X0149192Y0253817D03*
X0149192Y0253917D03*
X0149192Y0254017D03*
X0110024Y0253917D03*
X0110024Y0253817D03*
X0110024Y0253717D03*
X0110024Y0253617D03*
X0108224Y0253217D03*
X0089124Y0248817D03*
X0089224Y0232217D03*
X0064724Y0252617D03*
X0064724Y0252717D03*
D17*
X0064774Y0252517D03*
X0066274Y0252917D03*
X0076974Y0238017D03*
X0089174Y0232317D03*
X0089074Y0248717D03*
X0109974Y0253217D03*
X0109974Y0253317D03*
X0109974Y0253417D03*
X0109974Y0253517D03*
X0149242Y0253517D03*
X0149242Y0253417D03*
X0149242Y0253317D03*
X0149242Y0253617D03*
X0170142Y0248817D03*
X0170042Y0232417D03*
X0182242Y0238117D03*
X0192942Y0253017D03*
X0194442Y0252617D03*
D18*
X0194392Y0252517D03*
X0194392Y0252417D03*
X0192892Y0253117D03*
X0172092Y0266517D03*
X0170192Y0248717D03*
X0170092Y0232517D03*
X0150992Y0253417D03*
X0149292Y0253217D03*
X0149292Y0253117D03*
X0109924Y0253117D03*
X0109924Y0253017D03*
X0108224Y0253317D03*
X0089024Y0248617D03*
X0089124Y0232417D03*
X0087124Y0266417D03*
X0066324Y0253017D03*
X0064824Y0252417D03*
X0064824Y0252317D03*
D19*
X0064874Y0252217D03*
X0088974Y0248517D03*
X0089074Y0232517D03*
X0109874Y0252817D03*
X0109874Y0252917D03*
X0149342Y0252917D03*
X0149342Y0253017D03*
X0170242Y0248617D03*
X0170142Y0232617D03*
X0194342Y0252317D03*
D20*
X0194292Y0252217D03*
X0194292Y0252117D03*
X0192892Y0253217D03*
X0182392Y0238217D03*
X0170192Y0232717D03*
X0170292Y0248417D03*
X0170292Y0248517D03*
X0150992Y0253517D03*
X0149392Y0252817D03*
X0109824Y0252717D03*
X0108224Y0253417D03*
X0088924Y0248417D03*
X0088924Y0248317D03*
X0089024Y0232617D03*
X0076824Y0238117D03*
X0064924Y0252017D03*
X0064924Y0252117D03*
X0066324Y0253117D03*
D21*
X0064974Y0251917D03*
X0088874Y0248217D03*
X0088974Y0232717D03*
X0108174Y0253517D03*
X0109774Y0252617D03*
X0109774Y0252517D03*
X0149442Y0252617D03*
X0149442Y0252717D03*
X0151042Y0253617D03*
X0170342Y0248317D03*
X0170242Y0232817D03*
X0194242Y0252017D03*
D22*
X0194192Y0251917D03*
X0194192Y0251817D03*
X0192892Y0253317D03*
X0182492Y0238317D03*
X0170292Y0232917D03*
X0170392Y0248217D03*
X0149492Y0252517D03*
X0109724Y0252417D03*
X0088824Y0248117D03*
X0088924Y0232817D03*
X0076724Y0238217D03*
X0065024Y0251717D03*
X0065024Y0251817D03*
X0066324Y0253217D03*
D23*
X0066374Y0253317D03*
X0065074Y0251617D03*
X0088774Y0248017D03*
X0088874Y0233017D03*
X0088874Y0232917D03*
X0108074Y0253617D03*
X0109674Y0252317D03*
X0149542Y0252417D03*
X0151142Y0253717D03*
X0170442Y0248117D03*
X0170342Y0233117D03*
X0170342Y0233017D03*
X0194142Y0251717D03*
X0192842Y0253417D03*
D24*
X0194092Y0251617D03*
X0170492Y0248017D03*
X0170392Y0233217D03*
X0149592Y0252317D03*
X0109624Y0252217D03*
X0088724Y0247917D03*
X0088824Y0233117D03*
X0065124Y0251517D03*
D25*
X0065174Y0251417D03*
X0066374Y0253417D03*
X0076574Y0238317D03*
X0088774Y0233217D03*
X0088674Y0247817D03*
X0108074Y0253717D03*
X0109574Y0252117D03*
X0149642Y0252217D03*
X0151142Y0253817D03*
X0170542Y0247917D03*
X0170442Y0233317D03*
X0182642Y0238417D03*
X0194042Y0251517D03*
X0192842Y0253517D03*
D26*
X0192792Y0253617D03*
X0193992Y0251417D03*
X0170592Y0247817D03*
X0170492Y0233417D03*
X0149692Y0252017D03*
X0149692Y0252117D03*
X0151192Y0253917D03*
X0109524Y0252017D03*
X0109524Y0251917D03*
X0108024Y0253817D03*
X0088624Y0247717D03*
X0088724Y0233317D03*
X0065224Y0251317D03*
X0066424Y0253517D03*
D27*
X0065274Y0251217D03*
X0088574Y0247617D03*
X0088674Y0233417D03*
X0107974Y0253917D03*
X0109474Y0251817D03*
X0149742Y0251917D03*
X0151242Y0254017D03*
X0170542Y0233517D03*
X0170642Y0247717D03*
X0193942Y0251317D03*
D28*
X0193892Y0251217D03*
X0192792Y0253717D03*
X0182792Y0238517D03*
X0170692Y0247617D03*
X0170592Y0233617D03*
X0149792Y0251817D03*
X0151292Y0254117D03*
X0109424Y0251717D03*
X0107924Y0254017D03*
X0088524Y0247517D03*
X0088624Y0233517D03*
X0076424Y0238417D03*
X0065324Y0251117D03*
X0066424Y0253617D03*
D29*
X0065374Y0251017D03*
X0088474Y0247417D03*
X0088574Y0233617D03*
X0109374Y0251617D03*
X0149842Y0251717D03*
X0170742Y0247517D03*
X0170642Y0233717D03*
X0193842Y0251117D03*
D30*
X0193792Y0251017D03*
X0192692Y0253817D03*
X0182892Y0238617D03*
X0170692Y0233817D03*
X0170792Y0247417D03*
X0149892Y0251617D03*
X0109324Y0251517D03*
X0088424Y0247317D03*
X0088524Y0233717D03*
X0076324Y0238517D03*
X0065424Y0250917D03*
X0066524Y0253717D03*
D31*
X0065474Y0250817D03*
X0088374Y0247217D03*
X0088474Y0233817D03*
X0109274Y0251417D03*
X0107874Y0254117D03*
X0149942Y0251517D03*
X0151342Y0254217D03*
X0170842Y0247317D03*
X0170742Y0233917D03*
X0193742Y0250917D03*
D32*
X0193692Y0250817D03*
X0192692Y0253917D03*
X0182992Y0238717D03*
X0170792Y0234017D03*
X0170892Y0247217D03*
X0151392Y0254317D03*
X0149992Y0251417D03*
X0109224Y0251317D03*
X0107824Y0254217D03*
X0088324Y0247117D03*
X0088424Y0233917D03*
X0076224Y0238617D03*
X0065524Y0250717D03*
X0066524Y0253817D03*
D33*
X0066574Y0253917D03*
X0065574Y0250617D03*
X0088274Y0247017D03*
X0088374Y0234017D03*
X0109174Y0251217D03*
X0107774Y0254317D03*
X0150042Y0251317D03*
X0151442Y0254417D03*
X0170942Y0247117D03*
X0170842Y0234117D03*
X0193642Y0250717D03*
X0192642Y0254017D03*
D34*
X0192592Y0254117D03*
X0193592Y0250617D03*
X0170992Y0247017D03*
X0170892Y0234217D03*
X0150092Y0251217D03*
X0109124Y0251117D03*
X0088224Y0246917D03*
X0088324Y0234117D03*
X0065624Y0250517D03*
X0066624Y0254017D03*
D35*
X0065674Y0250417D03*
X0076074Y0238717D03*
X0088274Y0234217D03*
X0088174Y0246817D03*
X0107674Y0254417D03*
X0109074Y0251017D03*
X0150142Y0251117D03*
X0151542Y0254517D03*
X0171042Y0246917D03*
X0170942Y0234317D03*
X0183142Y0238817D03*
X0193542Y0250517D03*
D36*
X0193492Y0250417D03*
X0171092Y0246817D03*
X0170992Y0234417D03*
X0150192Y0251017D03*
X0109024Y0250917D03*
X0088124Y0246717D03*
X0088224Y0234317D03*
X0065724Y0250317D03*
D37*
X0065774Y0250217D03*
X0066674Y0254117D03*
X0075974Y0238817D03*
X0088174Y0234517D03*
X0088174Y0234417D03*
X0088074Y0246617D03*
X0107674Y0254517D03*
X0108974Y0250817D03*
X0150242Y0250917D03*
X0151542Y0254617D03*
X0171142Y0246717D03*
X0171042Y0234617D03*
X0171042Y0234517D03*
X0183242Y0238917D03*
X0193442Y0250317D03*
X0192542Y0254217D03*
D38*
X0192492Y0254317D03*
X0193392Y0250217D03*
X0171192Y0246617D03*
X0171092Y0234717D03*
X0150292Y0250817D03*
X0108924Y0250717D03*
X0088024Y0246517D03*
X0088124Y0234617D03*
X0066724Y0254217D03*
X0065824Y0250117D03*
D39*
X0065874Y0250017D03*
X0066774Y0254317D03*
X0087974Y0246417D03*
X0088074Y0234717D03*
X0108874Y0250617D03*
X0107574Y0254617D03*
X0150342Y0250717D03*
X0151642Y0254717D03*
X0171242Y0246517D03*
X0171142Y0234817D03*
X0193342Y0250117D03*
X0192442Y0254417D03*
D40*
X0193292Y0250017D03*
X0183392Y0239017D03*
X0171192Y0234917D03*
X0171292Y0246417D03*
X0150392Y0250617D03*
X0151692Y0254817D03*
X0108824Y0250517D03*
X0107524Y0254717D03*
X0088024Y0234817D03*
X0087924Y0246317D03*
X0075824Y0238917D03*
X0065924Y0249917D03*
D41*
X0066874Y0254417D03*
X0087874Y0246217D03*
X0087974Y0234917D03*
X0108774Y0250417D03*
X0107474Y0254817D03*
X0150442Y0250517D03*
X0151742Y0254917D03*
X0171342Y0246317D03*
X0171242Y0235017D03*
X0192342Y0254517D03*
D42*
X0192292Y0254617D03*
X0193192Y0249917D03*
X0183492Y0239117D03*
X0171292Y0235117D03*
X0171392Y0246217D03*
X0150492Y0250417D03*
X0108724Y0250317D03*
X0087824Y0246117D03*
X0087924Y0235017D03*
X0075724Y0239017D03*
X0066924Y0254517D03*
X0066024Y0249817D03*
D43*
X0066074Y0249717D03*
X0087774Y0246017D03*
X0087874Y0235117D03*
X0108674Y0250217D03*
X0107374Y0254917D03*
X0150542Y0250317D03*
X0151842Y0255017D03*
X0171442Y0246117D03*
X0171342Y0235217D03*
X0193142Y0249817D03*
D44*
X0193092Y0249717D03*
X0192292Y0254717D03*
X0183592Y0239217D03*
X0171392Y0235317D03*
X0171492Y0246017D03*
X0150592Y0250217D03*
X0108624Y0250117D03*
X0087724Y0245917D03*
X0087824Y0235217D03*
X0075624Y0239117D03*
X0066924Y0254617D03*
X0066124Y0249617D03*
D45*
X0087674Y0245817D03*
X0087774Y0235317D03*
X0107274Y0255017D03*
X0151942Y0255117D03*
X0171542Y0245917D03*
X0171442Y0235417D03*
D46*
X0171492Y0235517D03*
X0171592Y0245817D03*
X0150692Y0250117D03*
X0192192Y0254817D03*
X0192992Y0249617D03*
X0108524Y0250017D03*
X0087624Y0245717D03*
X0087724Y0235417D03*
X0067024Y0254717D03*
X0066224Y0249517D03*
D47*
X0066274Y0249417D03*
X0067074Y0254817D03*
X0075474Y0239217D03*
X0087674Y0235517D03*
X0087574Y0245617D03*
X0108474Y0249917D03*
X0107274Y0255117D03*
X0150742Y0250017D03*
X0151942Y0255217D03*
X0171642Y0245717D03*
X0171542Y0235617D03*
X0183742Y0239317D03*
X0192942Y0249517D03*
X0192142Y0254917D03*
D48*
X0192892Y0249417D03*
X0171692Y0245617D03*
X0171592Y0235717D03*
X0150792Y0249917D03*
X0108424Y0249817D03*
X0087524Y0245517D03*
X0087624Y0235617D03*
X0066324Y0249317D03*
D49*
X0067174Y0254917D03*
X0075374Y0239317D03*
X0087574Y0235717D03*
X0087474Y0245417D03*
X0107174Y0255217D03*
X0152042Y0255317D03*
X0171742Y0245517D03*
X0171642Y0235817D03*
X0183842Y0239417D03*
X0192042Y0255017D03*
D50*
X0191992Y0255117D03*
X0192792Y0249317D03*
X0171792Y0245417D03*
X0171692Y0236017D03*
X0171692Y0235917D03*
X0150892Y0249817D03*
X0108324Y0249717D03*
X0087424Y0245317D03*
X0087524Y0235917D03*
X0087524Y0235817D03*
X0067224Y0255017D03*
X0066424Y0249217D03*
D51*
X0075274Y0239417D03*
X0087474Y0236017D03*
X0087374Y0245217D03*
X0108274Y0249617D03*
X0107074Y0255317D03*
X0150942Y0249717D03*
X0152142Y0255417D03*
X0171842Y0245317D03*
X0171742Y0236117D03*
X0183942Y0239517D03*
D52*
X0192692Y0249217D03*
X0191892Y0255217D03*
X0171892Y0245217D03*
X0171792Y0236217D03*
X0152192Y0255517D03*
X0150992Y0249617D03*
X0108224Y0249517D03*
X0107024Y0255417D03*
X0087324Y0245117D03*
X0087424Y0236117D03*
X0067324Y0255117D03*
X0066524Y0249117D03*
D53*
X0066574Y0249017D03*
X0075174Y0239517D03*
X0087374Y0236217D03*
X0087274Y0245017D03*
X0171942Y0245117D03*
X0171842Y0236317D03*
X0184042Y0239617D03*
X0192642Y0249117D03*
D54*
X0192492Y0249017D03*
X0191792Y0255317D03*
X0171992Y0245017D03*
X0171892Y0236417D03*
X0152292Y0255617D03*
X0151092Y0249517D03*
X0108124Y0249417D03*
X0106924Y0255517D03*
X0087224Y0244917D03*
X0087324Y0236317D03*
X0066724Y0248917D03*
X0067424Y0255217D03*
D55*
X0067474Y0255317D03*
X0075074Y0239617D03*
X0087274Y0236417D03*
X0087174Y0244817D03*
X0108074Y0249317D03*
X0151142Y0249417D03*
X0172042Y0244917D03*
X0171942Y0236517D03*
X0184142Y0239717D03*
X0191742Y0255417D03*
D56*
X0192392Y0248917D03*
X0172092Y0244817D03*
X0171992Y0236617D03*
X0152392Y0255717D03*
X0106824Y0255617D03*
X0087124Y0244717D03*
X0087224Y0236517D03*
X0066824Y0248817D03*
D57*
X0066874Y0248717D03*
X0067574Y0255417D03*
X0074974Y0239717D03*
X0087174Y0236617D03*
X0087074Y0244617D03*
X0107974Y0249217D03*
X0151242Y0249317D03*
X0172142Y0244717D03*
X0172042Y0236717D03*
X0184242Y0239817D03*
X0192342Y0248817D03*
X0191642Y0255517D03*
D58*
X0172192Y0244617D03*
X0172092Y0236817D03*
X0152492Y0255817D03*
X0151292Y0249217D03*
X0107924Y0249117D03*
X0106724Y0255717D03*
X0087024Y0244517D03*
X0087124Y0236717D03*
D59*
X0087074Y0236817D03*
X0066974Y0248617D03*
X0067674Y0255517D03*
X0106674Y0255817D03*
X0152542Y0255917D03*
X0172142Y0236917D03*
X0191542Y0255617D03*
X0192242Y0248717D03*
D60*
X0191142Y0256017D03*
X0171942Y0244517D03*
X0171942Y0237017D03*
X0152842Y0256217D03*
X0151642Y0248817D03*
X0107574Y0248717D03*
X0106374Y0256117D03*
X0087274Y0244417D03*
X0087274Y0236917D03*
X0068074Y0255917D03*
D61*
X0068524Y0256417D03*
X0087624Y0237017D03*
X0105924Y0256517D03*
X0153292Y0256617D03*
X0171592Y0237117D03*
X0190692Y0256517D03*
D62*
X0190192Y0256917D03*
X0185492Y0241117D03*
X0171292Y0237217D03*
X0152492Y0247817D03*
X0106724Y0247717D03*
X0087924Y0237117D03*
X0073724Y0241017D03*
X0069024Y0256817D03*
D63*
X0088224Y0237217D03*
X0106124Y0247217D03*
X0105024Y0257217D03*
X0153092Y0247317D03*
X0154192Y0257317D03*
X0170992Y0237317D03*
D64*
X0170742Y0237417D03*
X0186242Y0242017D03*
X0154642Y0257617D03*
X0153742Y0246817D03*
X0105474Y0246717D03*
X0104574Y0257517D03*
X0088474Y0237317D03*
X0072974Y0241917D03*
D65*
X0070324Y0257717D03*
X0088824Y0237417D03*
X0104924Y0246317D03*
X0104224Y0257717D03*
X0154292Y0246417D03*
X0154992Y0257817D03*
X0170392Y0237517D03*
X0188892Y0257817D03*
D66*
X0188592Y0258017D03*
X0170192Y0237617D03*
X0154792Y0246117D03*
X0104424Y0246017D03*
X0089024Y0237517D03*
X0070624Y0257917D03*
D67*
X0071024Y0258117D03*
X0070624Y0245917D03*
X0072024Y0243517D03*
X0089224Y0237617D03*
X0103924Y0245717D03*
X0103424Y0258117D03*
X0155792Y0258217D03*
X0155292Y0245817D03*
X0169992Y0237717D03*
X0187192Y0243617D03*
X0188592Y0246017D03*
X0188192Y0258217D03*
D68*
X0187542Y0244617D03*
X0187542Y0244517D03*
X0169742Y0237817D03*
X0156242Y0258417D03*
X0102974Y0258317D03*
X0089474Y0237717D03*
X0071674Y0244417D03*
X0071674Y0244517D03*
D69*
X0071424Y0245417D03*
X0071424Y0245517D03*
X0089624Y0237817D03*
X0169592Y0237917D03*
X0187792Y0245517D03*
X0187792Y0245617D03*
D70*
X0169392Y0238017D03*
X0089824Y0237917D03*
D71*
X0089974Y0238017D03*
X0169242Y0238117D03*
D72*
X0169092Y0238217D03*
X0090124Y0238117D03*
D73*
X0090224Y0238217D03*
X0168992Y0238317D03*
D74*
X0168842Y0238417D03*
X0090374Y0238317D03*
D75*
X0090474Y0238417D03*
X0100974Y0244617D03*
X0158242Y0244717D03*
X0168742Y0238517D03*
D76*
X0168592Y0238617D03*
X0090624Y0238517D03*
D77*
X0090724Y0238617D03*
X0100524Y0244517D03*
X0158692Y0244617D03*
X0168492Y0238717D03*
D78*
X0168392Y0238817D03*
X0090824Y0238717D03*
D79*
X0090924Y0238817D03*
X0099924Y0259217D03*
X0159292Y0259317D03*
X0168292Y0238917D03*
D80*
X0168142Y0239017D03*
X0184242Y0259417D03*
X0091074Y0238917D03*
X0074974Y0259317D03*
D81*
X0091124Y0239017D03*
X0168092Y0239117D03*
D82*
X0167992Y0239217D03*
X0091224Y0239117D03*
D83*
X0091324Y0239217D03*
X0167892Y0239317D03*
D84*
X0167842Y0239417D03*
X0091374Y0239317D03*
D85*
X0091474Y0239417D03*
X0167742Y0239517D03*
D86*
X0167692Y0239617D03*
X0091524Y0239517D03*
D87*
X0091624Y0239617D03*
X0167592Y0239717D03*
D88*
X0167542Y0239817D03*
X0091674Y0239717D03*
D89*
X0091724Y0239817D03*
X0167492Y0239917D03*
D90*
X0151392Y0249117D03*
X0184392Y0239917D03*
X0191492Y0255717D03*
X0107824Y0249017D03*
X0074824Y0239817D03*
X0067724Y0255617D03*
D91*
X0087074Y0265217D03*
X0091774Y0239917D03*
X0167442Y0240017D03*
X0172142Y0265317D03*
D92*
X0184492Y0240017D03*
X0191392Y0255817D03*
X0074724Y0239917D03*
X0067824Y0255717D03*
D93*
X0091824Y0240017D03*
X0167392Y0240117D03*
D94*
X0184592Y0240117D03*
X0191892Y0248417D03*
X0191292Y0255917D03*
X0074624Y0240017D03*
X0067324Y0248317D03*
X0067924Y0255817D03*
D95*
X0091924Y0240117D03*
X0167292Y0240217D03*
D96*
X0151692Y0248717D03*
X0184692Y0240217D03*
X0191792Y0248317D03*
X0107524Y0248617D03*
X0074524Y0240117D03*
X0067424Y0248217D03*
D97*
X0091974Y0240217D03*
X0167242Y0240317D03*
D98*
X0151792Y0248617D03*
X0184792Y0240317D03*
X0191692Y0248217D03*
X0107424Y0248517D03*
X0074424Y0240217D03*
X0067524Y0248117D03*
D99*
X0092074Y0240317D03*
X0167142Y0240417D03*
D100*
X0151892Y0248517D03*
X0184892Y0240417D03*
X0191592Y0248117D03*
X0190892Y0256317D03*
X0107324Y0248417D03*
X0074324Y0240317D03*
X0067624Y0248017D03*
X0068324Y0256217D03*
D101*
X0087074Y0265017D03*
X0092074Y0240417D03*
X0167142Y0240517D03*
X0172142Y0265117D03*
D102*
X0184992Y0240517D03*
X0191492Y0248017D03*
X0190792Y0256417D03*
X0153192Y0256517D03*
X0106024Y0256417D03*
X0074224Y0240417D03*
X0067724Y0247917D03*
X0068424Y0256317D03*
D103*
X0092124Y0240517D03*
X0167092Y0240617D03*
D104*
X0152042Y0248317D03*
X0185042Y0240617D03*
X0191342Y0247917D03*
X0107174Y0248217D03*
X0074174Y0240517D03*
X0067874Y0247817D03*
D105*
X0092174Y0240617D03*
X0167042Y0240717D03*
D106*
X0152142Y0248217D03*
X0185142Y0240717D03*
X0191242Y0247817D03*
X0107074Y0248117D03*
X0074074Y0240617D03*
X0067974Y0247717D03*
D107*
X0092224Y0240717D03*
X0166992Y0240817D03*
D108*
X0185242Y0240817D03*
X0191142Y0247717D03*
X0073974Y0240717D03*
X0068074Y0247617D03*
D109*
X0092324Y0240817D03*
X0166892Y0240917D03*
D110*
X0185342Y0240917D03*
X0191042Y0247617D03*
X0190442Y0256717D03*
X0073874Y0240817D03*
X0068174Y0247517D03*
X0068774Y0256617D03*
D111*
X0092474Y0240917D03*
X0092574Y0241017D03*
X0166642Y0241117D03*
X0166742Y0241017D03*
D112*
X0153642Y0256917D03*
X0185442Y0241017D03*
X0190842Y0247517D03*
X0190342Y0256817D03*
X0105574Y0256817D03*
X0073774Y0240917D03*
X0068374Y0247417D03*
X0068874Y0256717D03*
D113*
X0092724Y0241117D03*
X0166492Y0241217D03*
D114*
X0152592Y0247717D03*
X0185592Y0241217D03*
X0190092Y0257017D03*
X0106624Y0247617D03*
X0073624Y0241117D03*
X0069124Y0256917D03*
D115*
X0087074Y0264817D03*
X0092974Y0241317D03*
X0092874Y0241217D03*
X0166242Y0241417D03*
X0166342Y0241317D03*
X0172142Y0264917D03*
D116*
X0185692Y0241317D03*
X0153892Y0257117D03*
X0105324Y0257017D03*
X0073524Y0241217D03*
D117*
X0073474Y0241317D03*
X0068774Y0247117D03*
X0069274Y0257017D03*
X0105174Y0257117D03*
X0106374Y0247417D03*
X0152842Y0247517D03*
X0154042Y0257217D03*
X0185742Y0241417D03*
X0190442Y0247217D03*
X0189942Y0257117D03*
D118*
X0166092Y0241517D03*
X0165992Y0241617D03*
X0093224Y0241517D03*
X0093124Y0241417D03*
D119*
X0073374Y0241417D03*
X0068874Y0247017D03*
X0069374Y0257117D03*
X0185842Y0241517D03*
X0190342Y0247117D03*
X0189842Y0257217D03*
D120*
X0185942Y0241617D03*
X0153242Y0247217D03*
X0105974Y0247117D03*
X0073274Y0241517D03*
D121*
X0093374Y0241617D03*
X0093474Y0241717D03*
X0165742Y0241817D03*
X0165842Y0241717D03*
D122*
X0185992Y0241717D03*
X0190192Y0247017D03*
X0189692Y0257317D03*
X0073224Y0241617D03*
X0069024Y0246917D03*
X0069524Y0257217D03*
D123*
X0069624Y0257317D03*
X0073124Y0241717D03*
X0105724Y0246917D03*
X0153492Y0247017D03*
X0186092Y0241817D03*
X0189592Y0257417D03*
D124*
X0165592Y0241917D03*
X0165492Y0242017D03*
X0093724Y0241917D03*
X0093624Y0241817D03*
D125*
X0104774Y0257417D03*
X0087074Y0266217D03*
X0073074Y0241817D03*
X0154442Y0257517D03*
X0172142Y0266317D03*
X0186142Y0241917D03*
D126*
X0165342Y0242117D03*
X0165242Y0242217D03*
X0165142Y0242317D03*
X0094074Y0242217D03*
X0093974Y0242117D03*
X0093874Y0242017D03*
D127*
X0072924Y0242017D03*
X0186292Y0242117D03*
D128*
X0186342Y0242217D03*
X0189742Y0246717D03*
X0189242Y0257617D03*
X0153842Y0246717D03*
X0105374Y0246617D03*
X0072874Y0242117D03*
X0069474Y0246617D03*
X0069974Y0257517D03*
D129*
X0072774Y0242217D03*
X0105174Y0246517D03*
X0154042Y0246617D03*
X0186442Y0242317D03*
D130*
X0164992Y0242417D03*
X0164892Y0242517D03*
X0164792Y0242617D03*
X0164692Y0242717D03*
X0094524Y0242617D03*
X0094424Y0242517D03*
X0094324Y0242417D03*
X0094224Y0242317D03*
D131*
X0105024Y0246417D03*
X0072724Y0242317D03*
X0070124Y0257617D03*
X0154192Y0246517D03*
X0186492Y0242417D03*
X0189092Y0257717D03*
D132*
X0189442Y0246517D03*
X0186542Y0242517D03*
X0072674Y0242417D03*
X0069774Y0246417D03*
D133*
X0072574Y0242517D03*
X0186642Y0242617D03*
D134*
X0186692Y0242717D03*
X0189292Y0246417D03*
X0155192Y0257917D03*
X0154492Y0246317D03*
X0104724Y0246217D03*
X0104024Y0257817D03*
X0072524Y0242617D03*
X0069924Y0246317D03*
D135*
X0094674Y0242717D03*
X0094774Y0242817D03*
X0094874Y0242917D03*
X0094974Y0243017D03*
X0164242Y0243117D03*
X0164342Y0243017D03*
X0164442Y0242917D03*
X0164542Y0242817D03*
D136*
X0186742Y0242817D03*
X0188742Y0257917D03*
X0072474Y0242717D03*
X0070474Y0257817D03*
D137*
X0070124Y0246217D03*
X0072424Y0242817D03*
X0104624Y0246117D03*
X0154592Y0246217D03*
X0186792Y0242917D03*
X0189092Y0246317D03*
D138*
X0186842Y0243017D03*
X0155342Y0258017D03*
X0103874Y0257917D03*
X0072374Y0242917D03*
D139*
X0072274Y0243017D03*
X0070274Y0246117D03*
X0186942Y0243117D03*
X0188942Y0246217D03*
D140*
X0172092Y0264817D03*
X0163792Y0243517D03*
X0163892Y0243417D03*
X0163992Y0243317D03*
X0164092Y0243217D03*
X0095424Y0243417D03*
X0095324Y0243317D03*
X0095224Y0243217D03*
X0095124Y0243117D03*
X0087124Y0264717D03*
D141*
X0072224Y0243117D03*
X0070824Y0258017D03*
X0104224Y0245917D03*
X0154992Y0246017D03*
X0186992Y0243217D03*
X0188392Y0258117D03*
D142*
X0188742Y0246117D03*
X0187042Y0243317D03*
X0172142Y0266217D03*
X0155542Y0258117D03*
X0103674Y0258017D03*
X0087074Y0266117D03*
X0072174Y0243217D03*
X0070474Y0246017D03*
D143*
X0072124Y0243317D03*
X0104124Y0245817D03*
X0155092Y0245917D03*
X0187092Y0243417D03*
D144*
X0187142Y0243517D03*
X0072074Y0243417D03*
D145*
X0095474Y0243517D03*
X0095574Y0243617D03*
X0095674Y0243717D03*
X0095774Y0243817D03*
X0095874Y0243917D03*
X0095974Y0244017D03*
X0096074Y0244117D03*
X0096174Y0244217D03*
X0096274Y0244317D03*
X0162942Y0244417D03*
X0163042Y0244317D03*
X0163142Y0244217D03*
X0163242Y0244117D03*
X0163342Y0244017D03*
X0163442Y0243917D03*
X0163542Y0243817D03*
X0163642Y0243717D03*
X0163742Y0243617D03*
D146*
X0187242Y0243717D03*
X0071974Y0243617D03*
D147*
X0071924Y0243717D03*
X0071924Y0243817D03*
X0187292Y0243817D03*
X0187292Y0243917D03*
D148*
X0187342Y0244017D03*
X0188442Y0245917D03*
X0187942Y0258317D03*
X0155542Y0245717D03*
X0103674Y0245617D03*
X0071874Y0243917D03*
X0070774Y0245817D03*
X0071274Y0258217D03*
D149*
X0071824Y0244017D03*
X0103224Y0258217D03*
X0155992Y0258317D03*
X0187392Y0244117D03*
D150*
X0187442Y0244217D03*
X0187442Y0244317D03*
X0187742Y0258417D03*
X0071474Y0258317D03*
X0071774Y0244217D03*
X0071774Y0244117D03*
D151*
X0071724Y0244317D03*
X0071024Y0245717D03*
X0103524Y0245517D03*
X0155692Y0245617D03*
X0187492Y0244417D03*
X0188192Y0245817D03*
D152*
X0159642Y0244517D03*
X0099574Y0244417D03*
D153*
X0103324Y0245417D03*
X0071624Y0244717D03*
X0071624Y0244617D03*
X0155892Y0245517D03*
X0187592Y0244817D03*
X0187592Y0244717D03*
D154*
X0157792Y0244817D03*
X0101424Y0244717D03*
D155*
X0101774Y0244817D03*
X0157442Y0244917D03*
D156*
X0187642Y0244917D03*
X0187642Y0245017D03*
X0188042Y0245717D03*
X0187442Y0258517D03*
X0071774Y0258417D03*
X0071174Y0245617D03*
X0071574Y0244917D03*
X0071574Y0244817D03*
D157*
X0072874Y0258817D03*
X0102074Y0244917D03*
X0157142Y0245017D03*
X0186342Y0258917D03*
D158*
X0156842Y0245117D03*
X0102374Y0245017D03*
D159*
X0071524Y0245017D03*
X0071524Y0245117D03*
X0187692Y0245117D03*
X0187692Y0245217D03*
D160*
X0186942Y0258717D03*
X0156642Y0245217D03*
X0102574Y0245117D03*
X0072274Y0258617D03*
D161*
X0102824Y0245217D03*
X0156392Y0245317D03*
D162*
X0156142Y0245417D03*
X0156442Y0258517D03*
X0187742Y0245417D03*
X0187742Y0245317D03*
X0103074Y0245317D03*
X0102774Y0258417D03*
X0071474Y0245317D03*
X0071474Y0245217D03*
D163*
X0069624Y0246517D03*
X0104424Y0257617D03*
X0154792Y0257717D03*
X0189592Y0246617D03*
D164*
X0189892Y0246817D03*
X0189392Y0257517D03*
X0153592Y0246917D03*
X0105624Y0246817D03*
X0069324Y0246717D03*
X0069824Y0257417D03*
D165*
X0069174Y0246817D03*
X0105874Y0247017D03*
X0104874Y0257317D03*
X0154342Y0257417D03*
X0153342Y0247117D03*
X0190042Y0246917D03*
D166*
X0190642Y0247317D03*
X0152742Y0247617D03*
X0106474Y0247517D03*
X0068574Y0247217D03*
D167*
X0106224Y0247317D03*
X0152992Y0247417D03*
D168*
X0153742Y0257017D03*
X0190742Y0247417D03*
X0105474Y0256917D03*
X0068474Y0247317D03*
D169*
X0106824Y0247817D03*
X0152392Y0247917D03*
D170*
X0152292Y0248017D03*
X0153492Y0256817D03*
X0106924Y0247917D03*
X0105724Y0256717D03*
D171*
X0105824Y0256617D03*
X0107024Y0248017D03*
X0068624Y0256517D03*
X0152192Y0248117D03*
X0153392Y0256717D03*
X0190592Y0256617D03*
D172*
X0172142Y0266417D03*
X0151942Y0248417D03*
X0107274Y0248317D03*
X0087074Y0266317D03*
D173*
X0106474Y0256017D03*
X0107674Y0248817D03*
X0067174Y0248417D03*
X0151542Y0248917D03*
X0152742Y0256117D03*
X0192042Y0248517D03*
D174*
X0192142Y0248617D03*
X0152642Y0256017D03*
X0151442Y0249017D03*
X0107774Y0248917D03*
X0106574Y0255917D03*
X0067074Y0248517D03*
D175*
X0068174Y0256017D03*
X0106274Y0256217D03*
X0152942Y0256317D03*
X0191042Y0256117D03*
D176*
X0190942Y0256217D03*
X0153042Y0256417D03*
X0106174Y0256317D03*
X0068274Y0256117D03*
D177*
X0102474Y0258517D03*
X0156742Y0258617D03*
D178*
X0172142Y0266117D03*
X0187242Y0258617D03*
X0087074Y0266017D03*
X0071974Y0258517D03*
D179*
X0072524Y0258717D03*
X0102224Y0258617D03*
X0156992Y0258717D03*
X0186692Y0258817D03*
D180*
X0157292Y0258817D03*
X0101924Y0258717D03*
D181*
X0101624Y0258817D03*
X0157592Y0258917D03*
D182*
X0157942Y0259017D03*
X0101274Y0258917D03*
D183*
X0073174Y0258917D03*
X0186042Y0259017D03*
D184*
X0185292Y0259217D03*
X0158292Y0259117D03*
X0100924Y0259017D03*
X0073924Y0259117D03*
D185*
X0073524Y0259017D03*
X0185692Y0259117D03*
D186*
X0172142Y0265817D03*
X0158742Y0259217D03*
X0100474Y0259117D03*
X0087074Y0265717D03*
D187*
X0074374Y0259217D03*
X0184842Y0259317D03*
D188*
X0159892Y0259417D03*
X0099324Y0259317D03*
D189*
X0098324Y0259417D03*
X0160892Y0259517D03*
D190*
X0172092Y0265517D03*
X0183292Y0259517D03*
X0087124Y0265417D03*
X0075924Y0259417D03*
D191*
X0087374Y0259517D03*
X0171842Y0259617D03*
D192*
X0171842Y0259717D03*
X0087374Y0259617D03*
D193*
X0087374Y0259717D03*
X0171842Y0259817D03*
D194*
X0171792Y0259917D03*
X0087424Y0259817D03*
D195*
X0087424Y0259917D03*
X0171792Y0260017D03*
D196*
X0171792Y0260117D03*
X0087424Y0260017D03*
D197*
X0087474Y0260117D03*
X0171742Y0260217D03*
D198*
X0171742Y0260317D03*
X0087474Y0260217D03*
D199*
X0087424Y0260317D03*
X0171792Y0260417D03*
D200*
X0171792Y0260517D03*
X0087424Y0260417D03*
D201*
X0087424Y0260517D03*
X0171792Y0260617D03*
D202*
X0171792Y0260717D03*
X0087424Y0260617D03*
D203*
X0087424Y0260717D03*
X0171792Y0260817D03*
D204*
X0171792Y0260917D03*
X0087424Y0260817D03*
D205*
X0087424Y0260917D03*
X0171792Y0261017D03*
D206*
X0171792Y0261117D03*
X0087424Y0261017D03*
D207*
X0087424Y0261117D03*
X0171792Y0261217D03*
D208*
X0171842Y0261317D03*
X0087374Y0261217D03*
D209*
X0087374Y0261317D03*
X0171842Y0261417D03*
D210*
X0171842Y0261517D03*
X0087374Y0261417D03*
D211*
X0087374Y0261517D03*
X0171842Y0261617D03*
D212*
X0171892Y0261717D03*
X0087324Y0261617D03*
D213*
X0087374Y0261717D03*
X0171842Y0261817D03*
D214*
X0171892Y0261917D03*
X0087324Y0261817D03*
D215*
X0087324Y0261917D03*
X0171892Y0262017D03*
D216*
X0171892Y0262117D03*
X0087324Y0262017D03*
D217*
X0087274Y0262117D03*
X0171942Y0262217D03*
D218*
X0171892Y0262317D03*
X0087324Y0262217D03*
D219*
X0087274Y0262317D03*
X0171942Y0262417D03*
D220*
X0171942Y0262517D03*
X0087274Y0262417D03*
D221*
X0087274Y0262517D03*
X0171942Y0262617D03*
D222*
X0171992Y0262717D03*
X0087224Y0262617D03*
D223*
X0087224Y0262717D03*
X0171992Y0262817D03*
D224*
X0172042Y0262917D03*
X0087174Y0262817D03*
D225*
X0087174Y0262917D03*
X0172042Y0263017D03*
D226*
X0172042Y0263117D03*
X0087174Y0263017D03*
D227*
X0087224Y0263117D03*
X0171992Y0263217D03*
D228*
X0172042Y0263317D03*
X0087174Y0263217D03*
D229*
X0087174Y0263317D03*
X0172042Y0263417D03*
D230*
X0172042Y0263517D03*
X0087174Y0263417D03*
D231*
X0087174Y0263517D03*
X0172042Y0263617D03*
D232*
X0172042Y0263717D03*
X0087174Y0263617D03*
D233*
X0087124Y0263717D03*
X0172092Y0263817D03*
D234*
X0172092Y0263917D03*
X0087124Y0263817D03*
D235*
X0087124Y0263917D03*
X0172092Y0264017D03*
D236*
X0172092Y0264117D03*
X0087124Y0264017D03*
D237*
X0087124Y0264117D03*
X0172092Y0264217D03*
D238*
X0172142Y0264317D03*
X0087074Y0264217D03*
D239*
X0087124Y0264317D03*
X0172092Y0264417D03*
D240*
X0172092Y0264517D03*
X0087124Y0264417D03*
D241*
X0087124Y0264517D03*
X0172092Y0264617D03*
D242*
X0172092Y0264717D03*
X0087124Y0264617D03*
D243*
X0087074Y0264917D03*
X0172142Y0265017D03*
D244*
X0172142Y0265217D03*
X0087074Y0265117D03*
D245*
X0087074Y0265317D03*
X0172142Y0265417D03*
D246*
X0172142Y0265617D03*
X0087074Y0265517D03*
D247*
X0087074Y0265617D03*
X0172142Y0265717D03*
D248*
X0172092Y0265917D03*
X0087124Y0265817D03*
D249*
X0087074Y0265917D03*
X0172142Y0266017D03*
D250*
X0161768Y0118667D03*
X0161768Y0118502D03*
X0161768Y0118337D03*
X0161768Y0118172D03*
X0161768Y0117842D03*
X0161768Y0117677D03*
X0161768Y0117512D03*
X0161768Y0117347D03*
X0161768Y0117017D03*
X0161768Y0116852D03*
X0161768Y0116687D03*
X0161768Y0116522D03*
X0161768Y0116192D03*
X0161768Y0116027D03*
X0161768Y0115862D03*
X0161768Y0115697D03*
X0161768Y0115367D03*
X0161768Y0115202D03*
X0161768Y0115037D03*
X0161768Y0111737D03*
X0161768Y0111572D03*
X0161768Y0111242D03*
X0161768Y0111077D03*
X0161768Y0110912D03*
X0161768Y0110747D03*
X0161768Y0110417D03*
X0161768Y0110252D03*
X0161768Y0110087D03*
X0161768Y0109922D03*
X0161768Y0109592D03*
X0161768Y0109427D03*
X0161768Y0109262D03*
X0161768Y0109097D03*
X0161768Y0108767D03*
X0161768Y0108602D03*
X0161768Y0108437D03*
X0161768Y0108272D03*
X0161768Y0107942D03*
X0161768Y0107777D03*
X0161768Y0107612D03*
X0161768Y0107447D03*
X0161768Y0107117D03*
X0161768Y0106952D03*
X0161768Y0106787D03*
X0161768Y0106622D03*
X0161768Y0106292D03*
X0161768Y0106127D03*
X0161768Y0105962D03*
X0161768Y0105797D03*
X0161768Y0105467D03*
X0180248Y0114212D03*
X0180248Y0114377D03*
X0180248Y0114542D03*
X0180248Y0114872D03*
X0180248Y0115037D03*
X0180083Y0115367D03*
X0133223Y0114872D03*
X0133223Y0114542D03*
X0133223Y0114377D03*
X0133223Y0114212D03*
X0133223Y0114047D03*
X0133223Y0113717D03*
X0133223Y0113552D03*
X0133223Y0113387D03*
X0133223Y0113222D03*
X0133223Y0109262D03*
X0133223Y0109097D03*
X0133223Y0108767D03*
X0133223Y0108602D03*
X0133223Y0108437D03*
X0133223Y0108272D03*
X0133223Y0107942D03*
X0133223Y0107777D03*
X0133223Y0107612D03*
X0133223Y0107447D03*
X0133223Y0107117D03*
X0133223Y0102992D03*
X0133223Y0102827D03*
X0133223Y0102662D03*
X0133223Y0102497D03*
X0133223Y0102167D03*
X0133223Y0102002D03*
X0133223Y0101837D03*
X0133223Y0101672D03*
X0133223Y0101342D03*
X0133223Y0101177D03*
X0133223Y0101012D03*
X0133223Y0100847D03*
X0133223Y0100517D03*
X0133223Y0100352D03*
X0133223Y0100187D03*
X0133223Y0100022D03*
X0133223Y0099692D03*
X0133223Y0099527D03*
X0133223Y0099362D03*
X0133223Y0099197D03*
X0133223Y0098867D03*
X0133223Y0098702D03*
X0133223Y0098537D03*
X0133223Y0098372D03*
X0133223Y0098042D03*
X0133223Y0097877D03*
X0133223Y0097712D03*
X0133223Y0097547D03*
X0133223Y0097217D03*
X0133223Y0097052D03*
X0133223Y0096887D03*
X0133223Y0096722D03*
X0133223Y0096392D03*
X0133223Y0096227D03*
X0126623Y0114872D03*
X0094448Y0108272D03*
X0094448Y0107942D03*
X0094448Y0107777D03*
X0094448Y0107612D03*
X0094448Y0107447D03*
X0094448Y0107117D03*
X0094448Y0106952D03*
X0094448Y0106787D03*
X0094448Y0106622D03*
X0094448Y0106292D03*
X0094448Y0106127D03*
X0094448Y0105962D03*
X0094448Y0105797D03*
X0094448Y0105467D03*
X0094448Y0105302D03*
X0094448Y0105137D03*
X0094448Y0104972D03*
D251*
X0094448Y0104807D03*
X0094448Y0105632D03*
X0094448Y0106457D03*
X0094448Y0107282D03*
X0094448Y0108107D03*
X0126623Y0101507D03*
X0133223Y0101507D03*
X0133223Y0102332D03*
X0133223Y0103157D03*
X0133223Y0100682D03*
X0133223Y0099857D03*
X0133223Y0099032D03*
X0133223Y0098207D03*
X0133223Y0097382D03*
X0133223Y0096557D03*
X0133223Y0107282D03*
X0133223Y0108107D03*
X0133223Y0108932D03*
X0133223Y0113882D03*
X0133223Y0114707D03*
X0161768Y0115532D03*
X0161768Y0116357D03*
X0161768Y0117182D03*
X0161768Y0118007D03*
X0161768Y0111407D03*
X0161768Y0110582D03*
X0161768Y0109757D03*
X0161768Y0108932D03*
X0161768Y0108107D03*
X0161768Y0107282D03*
X0161768Y0106457D03*
X0161768Y0105632D03*
X0171503Y0116357D03*
X0180248Y0114707D03*
D252*
X0118538Y0099197D03*
X0117713Y0101672D03*
X0117713Y0101837D03*
X0116888Y0104147D03*
X0116888Y0104312D03*
X0116888Y0104477D03*
X0116063Y0106787D03*
X0116063Y0106952D03*
X0115238Y0109427D03*
X0115238Y0109592D03*
X0114413Y0112067D03*
X0113588Y0114872D03*
X0112763Y0117347D03*
X0112763Y0117512D03*
D253*
X0112681Y0117677D03*
X0112516Y0118172D03*
X0112351Y0118667D03*
X0112186Y0119162D03*
X0113011Y0116687D03*
X0113176Y0116027D03*
X0113506Y0115037D03*
X0113671Y0114542D03*
X0113836Y0114047D03*
X0114166Y0112892D03*
X0114331Y0112397D03*
X0114496Y0111902D03*
X0114826Y0110912D03*
X0114991Y0110252D03*
X0115321Y0109262D03*
X0115486Y0108767D03*
X0115651Y0108272D03*
X0115981Y0107117D03*
X0116146Y0106622D03*
X0116311Y0106127D03*
X0116641Y0105137D03*
X0117136Y0103487D03*
X0117301Y0102992D03*
X0117466Y0102497D03*
X0117631Y0102002D03*
X0117796Y0101342D03*
X0117961Y0100847D03*
X0118126Y0100352D03*
X0118456Y0099362D03*
D254*
X0118373Y0099527D03*
X0118373Y0099692D03*
X0118208Y0100022D03*
X0118208Y0100187D03*
X0118043Y0100517D03*
X0117878Y0101012D03*
X0117878Y0101177D03*
X0117548Y0102167D03*
X0117383Y0102662D03*
X0117383Y0102827D03*
X0117218Y0103322D03*
X0117053Y0103652D03*
X0117053Y0103817D03*
X0116723Y0104642D03*
X0116723Y0104972D03*
X0116558Y0105302D03*
X0116558Y0105467D03*
X0116393Y0105797D03*
X0116393Y0105962D03*
X0116228Y0106292D03*
X0115898Y0107447D03*
X0115898Y0107612D03*
X0115733Y0107777D03*
X0115733Y0107942D03*
X0115568Y0108437D03*
X0115568Y0108602D03*
X0115403Y0109097D03*
X0115073Y0109922D03*
X0115073Y0110087D03*
X0114908Y0110417D03*
X0114908Y0110747D03*
X0114743Y0111077D03*
X0114743Y0111242D03*
X0114578Y0111572D03*
X0114578Y0111737D03*
X0114248Y0112562D03*
X0114248Y0112727D03*
X0114083Y0113222D03*
X0114083Y0113387D03*
X0113918Y0113552D03*
X0113918Y0113717D03*
X0113753Y0114212D03*
X0113753Y0114377D03*
X0113423Y0115202D03*
X0113423Y0115367D03*
X0113258Y0115697D03*
X0113258Y0115862D03*
X0113093Y0116192D03*
X0113093Y0116522D03*
X0112928Y0116852D03*
X0112928Y0117017D03*
X0112598Y0117842D03*
X0112433Y0118337D03*
X0112433Y0118502D03*
X0112268Y0118997D03*
X0112103Y0119327D03*
X0082073Y0115202D03*
X0082073Y0101177D03*
X0146093Y0101177D03*
X0146093Y0115202D03*
X0170678Y0116027D03*
D255*
X0118291Y0099857D03*
X0116971Y0103982D03*
X0116476Y0105632D03*
X0115156Y0109757D03*
X0114661Y0111407D03*
X0113341Y0115532D03*
X0112846Y0117182D03*
D256*
X0112598Y0118007D03*
X0112268Y0118832D03*
X0113093Y0116357D03*
X0113918Y0113882D03*
X0114083Y0113057D03*
X0114908Y0110582D03*
X0115403Y0108932D03*
X0115733Y0108107D03*
X0115898Y0107282D03*
X0116228Y0106457D03*
X0116723Y0104807D03*
X0117218Y0103157D03*
X0117548Y0102332D03*
X0118043Y0100682D03*
D257*
X0126623Y0101342D03*
X0126623Y0115037D03*
X0099728Y0101177D03*
X0171008Y0116192D03*
X0175463Y0101177D03*
D258*
X0181238Y0105302D03*
X0170348Y0115862D03*
X0126623Y0115202D03*
X0126623Y0101177D03*
X0093953Y0115697D03*
D259*
X0099398Y0119492D03*
X0105668Y0105467D03*
X0099563Y0101342D03*
X0095108Y0104477D03*
X0085703Y0104312D03*
X0078443Y0104312D03*
X0078443Y0112067D03*
X0126623Y0114542D03*
X0132563Y0111737D03*
X0132563Y0104642D03*
X0126623Y0101837D03*
X0142463Y0104312D03*
X0142463Y0112067D03*
X0149723Y0104312D03*
X0175463Y0101342D03*
X0175298Y0119492D03*
D260*
X0179918Y0115697D03*
X0180083Y0113552D03*
X0151208Y0109427D03*
X0151043Y0110087D03*
X0151043Y0110252D03*
X0151208Y0106952D03*
X0151043Y0106292D03*
X0151043Y0106127D03*
X0146093Y0101342D03*
X0141308Y0105797D03*
X0141143Y0106127D03*
X0141143Y0106292D03*
X0141143Y0110087D03*
X0141143Y0110252D03*
X0141308Y0110747D03*
X0146093Y0115037D03*
X0133058Y0110417D03*
X0133058Y0110252D03*
X0133058Y0106127D03*
X0133058Y0105962D03*
X0123158Y0106952D03*
X0123158Y0109427D03*
X0086858Y0110747D03*
X0086693Y0110912D03*
X0086693Y0111077D03*
X0086858Y0105797D03*
X0086693Y0105467D03*
X0086693Y0105302D03*
D261*
X0087023Y0106127D03*
X0087023Y0106292D03*
X0087188Y0106952D03*
X0087188Y0109427D03*
X0087023Y0110087D03*
X0087023Y0110252D03*
X0082073Y0115037D03*
X0077453Y0111077D03*
X0077453Y0110912D03*
X0077288Y0110747D03*
X0077123Y0110252D03*
X0077123Y0110087D03*
X0077123Y0106292D03*
X0077123Y0106127D03*
X0077288Y0105797D03*
X0077453Y0105302D03*
X0082073Y0101342D03*
X0123323Y0105962D03*
X0123323Y0106127D03*
X0123488Y0105797D03*
X0123653Y0105302D03*
X0123323Y0110252D03*
X0123323Y0110417D03*
X0123488Y0110747D03*
X0123653Y0111077D03*
X0141473Y0111077D03*
X0141473Y0110912D03*
X0141473Y0105302D03*
X0150713Y0105302D03*
X0150713Y0105467D03*
X0150878Y0105797D03*
X0150878Y0110747D03*
X0150713Y0110912D03*
X0150713Y0111077D03*
X0161603Y0104972D03*
X0170513Y0106952D03*
X0170513Y0107117D03*
X0170678Y0105302D03*
D262*
X0175628Y0101507D03*
X0126623Y0113882D03*
X0099563Y0101507D03*
D263*
X0106658Y0107282D03*
X0106988Y0108107D03*
X0123818Y0111407D03*
X0126623Y0114707D03*
X0123983Y0104807D03*
X0141803Y0104807D03*
X0150383Y0104807D03*
X0157973Y0101507D03*
X0086363Y0104807D03*
X0077783Y0104807D03*
D264*
X0082073Y0101507D03*
X0146093Y0101507D03*
X0179093Y0116357D03*
D265*
X0117713Y0101507D03*
X0114413Y0112232D03*
X0113588Y0114707D03*
D266*
X0099316Y0119162D03*
X0099481Y0101672D03*
X0175711Y0101672D03*
X0174886Y0119162D03*
D267*
X0179341Y0112892D03*
X0158386Y0101672D03*
X0149641Y0112067D03*
X0124561Y0112067D03*
X0124561Y0104312D03*
X0105421Y0105302D03*
X0105586Y0115367D03*
X0085621Y0112067D03*
D268*
X0081991Y0101672D03*
X0104431Y0104642D03*
X0104431Y0116192D03*
X0146011Y0101672D03*
D269*
X0141803Y0111572D03*
X0150383Y0111572D03*
X0132893Y0111077D03*
X0132893Y0110912D03*
X0132893Y0105467D03*
X0132893Y0105302D03*
X0126623Y0101672D03*
X0123818Y0104972D03*
X0123983Y0111572D03*
X0107153Y0111737D03*
X0106988Y0112562D03*
X0106988Y0112727D03*
X0106823Y0113222D03*
X0106823Y0113387D03*
X0106658Y0113552D03*
X0106658Y0113717D03*
X0106493Y0114047D03*
X0107153Y0109097D03*
X0106988Y0108272D03*
X0106823Y0107612D03*
X0106823Y0107447D03*
X0106658Y0107117D03*
X0106493Y0106787D03*
X0086363Y0111572D03*
X0077783Y0111572D03*
X0170678Y0107612D03*
X0170843Y0104972D03*
D270*
X0173236Y0109097D03*
X0177361Y0112067D03*
X0175876Y0101837D03*
D271*
X0158633Y0101837D03*
X0105008Y0115862D03*
D272*
X0104018Y0104477D03*
X0126623Y0102662D03*
X0126623Y0113717D03*
X0146093Y0114542D03*
X0146093Y0101837D03*
X0159293Y0102827D03*
X0082073Y0101837D03*
X0082073Y0114542D03*
D273*
X0099398Y0101837D03*
D274*
X0082073Y0102662D03*
X0082073Y0113717D03*
X0146093Y0113717D03*
X0146093Y0102662D03*
X0173813Y0109427D03*
X0176783Y0111737D03*
X0175958Y0102002D03*
D275*
X0178928Y0112727D03*
X0158798Y0102002D03*
X0126623Y0102167D03*
X0126623Y0114212D03*
D276*
X0126623Y0113387D03*
X0126623Y0102992D03*
X0146093Y0102002D03*
X0146093Y0114377D03*
X0159623Y0104477D03*
X0159623Y0104312D03*
X0159623Y0104147D03*
X0082073Y0102002D03*
X0082073Y0114377D03*
D277*
X0082073Y0114872D03*
X0126623Y0114377D03*
X0132398Y0111902D03*
X0132398Y0104477D03*
X0126623Y0102002D03*
X0146093Y0114872D03*
D278*
X0099316Y0102002D03*
D279*
X0082073Y0113222D03*
X0175463Y0110747D03*
X0175628Y0110912D03*
X0176123Y0102167D03*
D280*
X0158963Y0102167D03*
X0126623Y0114047D03*
D281*
X0146093Y0114212D03*
X0146093Y0102167D03*
X0082073Y0102167D03*
X0082073Y0114212D03*
D282*
X0099233Y0118667D03*
X0099233Y0102167D03*
X0146093Y0113222D03*
X0174968Y0118337D03*
X0175793Y0111077D03*
D283*
X0176206Y0102332D03*
D284*
X0159046Y0102332D03*
D285*
X0146093Y0102332D03*
X0082073Y0102332D03*
D286*
X0126623Y0102332D03*
D287*
X0099233Y0102332D03*
D288*
X0082073Y0103652D03*
X0082073Y0103817D03*
X0082073Y0112562D03*
X0082073Y0112727D03*
X0146093Y0112727D03*
X0146093Y0112562D03*
X0146093Y0103817D03*
X0146093Y0103652D03*
X0175463Y0117347D03*
X0176123Y0102497D03*
D289*
X0159211Y0102497D03*
X0159211Y0102662D03*
D290*
X0146093Y0102497D03*
X0173648Y0109262D03*
X0082073Y0102497D03*
D291*
X0099398Y0119327D03*
X0126623Y0102497D03*
X0175133Y0119327D03*
X0178598Y0112562D03*
D292*
X0175876Y0102992D03*
X0099151Y0102497D03*
X0099316Y0118172D03*
D293*
X0175546Y0117017D03*
X0175546Y0116852D03*
X0176041Y0102662D03*
D294*
X0099151Y0102662D03*
D295*
X0099233Y0118337D03*
X0082073Y0112397D03*
X0146093Y0112397D03*
X0175628Y0116522D03*
X0175628Y0116687D03*
X0175958Y0102827D03*
D296*
X0174143Y0109592D03*
X0176453Y0111572D03*
X0146093Y0113552D03*
X0146093Y0102827D03*
X0082073Y0102827D03*
X0082073Y0113552D03*
D297*
X0126623Y0113552D03*
X0126623Y0102827D03*
X0178103Y0112397D03*
D298*
X0099811Y0117512D03*
X0099151Y0102827D03*
D299*
X0159376Y0102992D03*
D300*
X0146093Y0102992D03*
X0146093Y0113387D03*
X0082073Y0113387D03*
X0082073Y0102992D03*
D301*
X0099316Y0102992D03*
D302*
X0146093Y0112232D03*
X0175793Y0103157D03*
D303*
X0159376Y0103157D03*
D304*
X0146093Y0103157D03*
D305*
X0126623Y0103157D03*
D306*
X0099398Y0103157D03*
D307*
X0082073Y0103157D03*
D308*
X0128851Y0103322D03*
X0175711Y0103322D03*
X0175711Y0103487D03*
D309*
X0159458Y0103487D03*
X0159458Y0103322D03*
D310*
X0146093Y0103322D03*
X0082073Y0103322D03*
D311*
X0099481Y0103322D03*
X0100141Y0116852D03*
D312*
X0082073Y0112892D03*
X0082073Y0103487D03*
X0146093Y0103487D03*
X0146093Y0112892D03*
X0175298Y0117677D03*
D313*
X0175628Y0103652D03*
X0128768Y0103487D03*
X0128768Y0112892D03*
X0099563Y0117842D03*
D314*
X0100223Y0116687D03*
X0099563Y0103487D03*
D315*
X0159541Y0103652D03*
X0159541Y0103817D03*
X0172576Y0108767D03*
D316*
X0175546Y0103817D03*
X0128686Y0103817D03*
X0128686Y0103652D03*
X0128686Y0112562D03*
X0128686Y0112727D03*
D317*
X0100306Y0116522D03*
X0099646Y0103652D03*
D318*
X0099728Y0103817D03*
D319*
X0175546Y0103982D03*
D320*
X0159541Y0103982D03*
D321*
X0146093Y0103982D03*
X0082073Y0103982D03*
D322*
X0128603Y0103982D03*
X0128603Y0112232D03*
D323*
X0099811Y0103982D03*
D324*
X0099728Y0117677D03*
X0128603Y0112397D03*
X0128603Y0104147D03*
X0175463Y0104147D03*
X0175463Y0104312D03*
D325*
X0146093Y0104147D03*
D326*
X0099893Y0104147D03*
D327*
X0082073Y0104147D03*
D328*
X0104761Y0116027D03*
X0132151Y0112067D03*
X0132151Y0104312D03*
D329*
X0099976Y0104312D03*
D330*
X0106246Y0106292D03*
X0106411Y0106622D03*
X0106411Y0114212D03*
X0106246Y0114542D03*
X0124066Y0111737D03*
X0124066Y0104642D03*
X0132811Y0105137D03*
X0132811Y0111242D03*
X0150136Y0111737D03*
X0150136Y0104642D03*
X0161191Y0104642D03*
X0170761Y0107777D03*
X0179671Y0104477D03*
X0179836Y0113222D03*
X0086116Y0111737D03*
X0086116Y0104642D03*
X0078031Y0104642D03*
X0078031Y0111737D03*
D331*
X0105256Y0115697D03*
X0105091Y0104972D03*
X0171586Y0104477D03*
D332*
X0179423Y0116192D03*
X0150053Y0111902D03*
X0150053Y0104477D03*
X0142133Y0104477D03*
X0142133Y0111902D03*
X0132728Y0104972D03*
X0124313Y0104477D03*
X0124313Y0111902D03*
X0106328Y0114377D03*
X0105998Y0114872D03*
X0106163Y0106127D03*
X0105998Y0105962D03*
X0086033Y0104477D03*
X0086033Y0111902D03*
X0078113Y0111902D03*
X0078113Y0104477D03*
D333*
X0180166Y0104642D03*
D334*
X0171256Y0104642D03*
X0132646Y0111572D03*
D335*
X0142051Y0111737D03*
X0142051Y0104642D03*
X0106576Y0106952D03*
D336*
X0106906Y0107777D03*
X0106906Y0107942D03*
X0107071Y0108437D03*
X0107071Y0108602D03*
X0107071Y0108767D03*
X0107236Y0109262D03*
X0107236Y0109427D03*
X0107236Y0109592D03*
X0107236Y0109922D03*
X0107236Y0110087D03*
X0107236Y0110252D03*
X0107236Y0110417D03*
X0107236Y0110747D03*
X0107236Y0110912D03*
X0107236Y0111077D03*
X0107236Y0111242D03*
X0107236Y0111572D03*
X0107071Y0111902D03*
X0107071Y0112067D03*
X0107071Y0112397D03*
X0106906Y0112892D03*
X0094696Y0104642D03*
X0086611Y0105137D03*
X0086446Y0104972D03*
X0086611Y0111242D03*
X0077536Y0111242D03*
X0077371Y0105467D03*
X0077536Y0105137D03*
X0077701Y0104972D03*
X0123571Y0105467D03*
X0123736Y0105137D03*
X0123571Y0110912D03*
X0123736Y0111242D03*
X0132976Y0110747D03*
X0132976Y0105797D03*
X0141391Y0105467D03*
X0141556Y0105137D03*
X0141721Y0104972D03*
X0141556Y0111242D03*
X0150631Y0111242D03*
X0150631Y0105137D03*
X0150466Y0104972D03*
X0170596Y0107447D03*
X0170761Y0105137D03*
X0180001Y0113387D03*
X0179836Y0115862D03*
X0179671Y0116027D03*
D337*
X0180496Y0104807D03*
D338*
X0171091Y0104807D03*
D339*
X0170513Y0107282D03*
X0161438Y0104807D03*
X0150878Y0105632D03*
X0150878Y0110582D03*
X0123488Y0110582D03*
X0123488Y0105632D03*
X0077288Y0105632D03*
X0077288Y0110582D03*
D340*
X0132646Y0104807D03*
D341*
X0104761Y0104807D03*
D342*
X0180743Y0104972D03*
D343*
X0180991Y0105137D03*
X0094201Y0115862D03*
D344*
X0086941Y0110417D03*
X0087106Y0109922D03*
X0087106Y0109592D03*
X0087271Y0109262D03*
X0087271Y0109097D03*
X0087271Y0108767D03*
X0087271Y0108602D03*
X0087271Y0108437D03*
X0087271Y0108272D03*
X0087271Y0107942D03*
X0087271Y0107777D03*
X0087271Y0107612D03*
X0087271Y0107447D03*
X0087271Y0107117D03*
X0087106Y0106787D03*
X0087106Y0106622D03*
X0086941Y0105962D03*
X0077206Y0105962D03*
X0077041Y0106622D03*
X0077041Y0106787D03*
X0077041Y0106952D03*
X0076876Y0107117D03*
X0076876Y0107447D03*
X0076876Y0107612D03*
X0076876Y0107777D03*
X0076876Y0107942D03*
X0076876Y0108272D03*
X0076876Y0108437D03*
X0076876Y0108602D03*
X0076876Y0108767D03*
X0076876Y0109097D03*
X0076876Y0109262D03*
X0077041Y0109427D03*
X0077041Y0109592D03*
X0077041Y0109922D03*
X0077206Y0110417D03*
X0123076Y0109262D03*
X0123076Y0109097D03*
X0123076Y0108767D03*
X0123076Y0108602D03*
X0123076Y0108437D03*
X0123076Y0108272D03*
X0123076Y0107942D03*
X0123076Y0107777D03*
X0123076Y0107612D03*
X0123076Y0107447D03*
X0123076Y0107117D03*
X0123241Y0106787D03*
X0123241Y0106622D03*
X0123241Y0106292D03*
X0123241Y0109592D03*
X0123241Y0109922D03*
X0123241Y0110087D03*
X0133141Y0110087D03*
X0133141Y0109922D03*
X0133141Y0109592D03*
X0133141Y0109427D03*
X0133141Y0106952D03*
X0133141Y0106787D03*
X0133141Y0106622D03*
X0133141Y0106292D03*
X0140896Y0107117D03*
X0141061Y0106952D03*
X0141061Y0106787D03*
X0141061Y0106622D03*
X0141226Y0105962D03*
X0140896Y0107447D03*
X0140896Y0107612D03*
X0140896Y0107777D03*
X0140896Y0107942D03*
X0140896Y0108272D03*
X0140896Y0108437D03*
X0140896Y0108602D03*
X0140896Y0108767D03*
X0140896Y0109097D03*
X0140896Y0109262D03*
X0141061Y0109427D03*
X0141061Y0109592D03*
X0141061Y0109922D03*
X0141226Y0110417D03*
X0150961Y0110417D03*
X0151126Y0109922D03*
X0151126Y0109592D03*
X0151291Y0109262D03*
X0151291Y0109097D03*
X0151291Y0108767D03*
X0151291Y0108602D03*
X0151291Y0108437D03*
X0151291Y0108272D03*
X0151291Y0107942D03*
X0151291Y0107777D03*
X0151291Y0107612D03*
X0151291Y0107447D03*
X0151291Y0107117D03*
X0151126Y0106787D03*
X0151126Y0106622D03*
X0150961Y0105962D03*
X0161686Y0105302D03*
X0161686Y0105137D03*
X0170431Y0105962D03*
X0170431Y0106127D03*
X0170431Y0106292D03*
X0170431Y0106622D03*
X0170431Y0106787D03*
X0170596Y0105797D03*
X0170596Y0105467D03*
X0180166Y0113717D03*
X0180166Y0114047D03*
X0180166Y0115202D03*
D345*
X0105338Y0105137D03*
D346*
X0181403Y0105467D03*
D347*
X0181651Y0105632D03*
D348*
X0180166Y0113882D03*
X0180001Y0115532D03*
X0170431Y0106457D03*
X0170596Y0105632D03*
X0151291Y0107282D03*
X0151291Y0108107D03*
X0151291Y0108932D03*
X0151126Y0109757D03*
X0151126Y0106457D03*
X0141061Y0106457D03*
X0140896Y0107282D03*
X0140896Y0108107D03*
X0140896Y0108932D03*
X0141061Y0109757D03*
X0133141Y0109757D03*
X0133141Y0106457D03*
X0123241Y0106457D03*
X0123076Y0107282D03*
X0123076Y0108107D03*
X0123076Y0108932D03*
X0123241Y0109757D03*
X0087271Y0108932D03*
X0087271Y0108107D03*
X0087271Y0107282D03*
X0087106Y0106457D03*
X0087106Y0109757D03*
X0077041Y0109757D03*
X0076876Y0108932D03*
X0076876Y0108107D03*
X0076876Y0107282D03*
X0077041Y0106457D03*
D349*
X0086858Y0105632D03*
X0086858Y0110582D03*
X0141308Y0110582D03*
X0141308Y0105632D03*
D350*
X0141721Y0111407D03*
X0150466Y0111407D03*
X0132976Y0110582D03*
X0132976Y0105632D03*
X0107236Y0109757D03*
X0107236Y0110582D03*
X0107236Y0111407D03*
X0107071Y0112232D03*
X0106906Y0113057D03*
X0107071Y0108932D03*
X0095356Y0116357D03*
X0086446Y0111407D03*
X0077701Y0111407D03*
D351*
X0105751Y0105632D03*
D352*
X0093376Y0115202D03*
X0181816Y0105797D03*
D353*
X0170926Y0107942D03*
X0105916Y0105797D03*
X0105916Y0115037D03*
X0105751Y0115202D03*
D354*
X0181981Y0105962D03*
D355*
X0182146Y0106127D03*
X0169441Y0115202D03*
X0093046Y0114872D03*
D356*
X0106163Y0114707D03*
X0106328Y0106457D03*
X0132728Y0111407D03*
X0179588Y0113057D03*
D357*
X0171256Y0108107D03*
X0105421Y0115532D03*
D358*
X0171503Y0108272D03*
D359*
X0171751Y0108437D03*
D360*
X0095851Y0108437D03*
X0095851Y0108602D03*
X0095851Y0108767D03*
X0095851Y0109097D03*
X0095851Y0109262D03*
X0095851Y0109427D03*
X0095851Y0109592D03*
X0095851Y0109922D03*
X0095851Y0110087D03*
X0095851Y0110252D03*
X0095851Y0110417D03*
X0095851Y0110747D03*
X0095851Y0110912D03*
X0095851Y0111077D03*
X0095851Y0111242D03*
D361*
X0172163Y0108602D03*
D362*
X0172906Y0108932D03*
D363*
X0095851Y0108932D03*
X0095851Y0109757D03*
X0095851Y0110582D03*
X0095851Y0111407D03*
D364*
X0174308Y0109757D03*
D365*
X0174556Y0109922D03*
X0174721Y0110087D03*
X0176041Y0111242D03*
X0174886Y0118502D03*
D366*
X0175051Y0118172D03*
X0175051Y0110417D03*
X0174886Y0110252D03*
D367*
X0175216Y0110582D03*
D368*
X0176288Y0111407D03*
X0160613Y0112232D03*
X0160613Y0113057D03*
X0160613Y0113882D03*
X0160613Y0114707D03*
D369*
X0174721Y0118997D03*
X0177031Y0111902D03*
D370*
X0160613Y0111902D03*
X0160613Y0112067D03*
X0160613Y0112397D03*
X0160613Y0112562D03*
X0160613Y0112727D03*
X0160613Y0112892D03*
X0160613Y0113222D03*
X0160613Y0113387D03*
X0160613Y0113552D03*
X0160613Y0113717D03*
X0160613Y0114047D03*
X0160613Y0114212D03*
X0160613Y0114377D03*
X0160613Y0114542D03*
X0160613Y0114872D03*
D371*
X0177691Y0112232D03*
D372*
X0082073Y0112232D03*
D373*
X0082073Y0113057D03*
X0146093Y0113057D03*
X0175133Y0118007D03*
D374*
X0128851Y0113057D03*
X0099481Y0118007D03*
D375*
X0126623Y0113222D03*
D376*
X0146093Y0113882D03*
X0082073Y0113882D03*
D377*
X0106576Y0113882D03*
D378*
X0082073Y0114047D03*
X0146093Y0114047D03*
D379*
X0146011Y0114707D03*
X0081991Y0114707D03*
D380*
X0093211Y0115037D03*
D381*
X0169688Y0115367D03*
D382*
X0093541Y0115367D03*
D383*
X0169853Y0115532D03*
D384*
X0093706Y0115532D03*
D385*
X0170101Y0115697D03*
D386*
X0094448Y0116027D03*
D387*
X0094861Y0116192D03*
D388*
X0104018Y0116357D03*
D389*
X0100058Y0117017D03*
D390*
X0175463Y0117182D03*
D391*
X0099976Y0117182D03*
D392*
X0099893Y0117347D03*
D393*
X0175381Y0117512D03*
D394*
X0175216Y0117842D03*
D395*
X0099151Y0118502D03*
D396*
X0174721Y0118667D03*
D397*
X0174638Y0118832D03*
X0099233Y0118832D03*
D398*
X0099233Y0118997D03*
D399*
X0099398Y0119657D03*
X0175463Y0119657D03*
M02*
