G75*
%MOIN*%
%OFA0B0*%
%FSLAX25Y25*%
%IPPOS*%
%LPD*%
%AMOC8*
5,1,8,0,0,1.08239X$1,22.5*
%
%ADD10C,0.00787*%
%ADD11C,0.02700*%
%ADD12R,0.00100X0.00100*%
%ADD13R,0.00200X0.00100*%
%ADD14R,0.00300X0.00100*%
%ADD15R,0.00400X0.00100*%
%ADD16R,0.00500X0.00100*%
%ADD17R,0.00600X0.00100*%
%ADD18R,0.00700X0.00100*%
%ADD19R,0.00800X0.00100*%
%ADD20R,0.00900X0.00100*%
%ADD21R,0.01000X0.00100*%
%ADD22R,0.01100X0.00100*%
%ADD23R,0.01200X0.00100*%
%ADD24R,0.01300X0.00100*%
%ADD25R,0.01400X0.00100*%
%ADD26R,0.01500X0.00100*%
%ADD27R,0.01600X0.00100*%
%ADD28R,0.01700X0.00100*%
%ADD29R,0.01800X0.00100*%
%ADD30R,0.01900X0.00100*%
%ADD31R,0.02000X0.00100*%
%ADD32R,0.02100X0.00100*%
%ADD33R,0.02200X0.00100*%
%ADD34R,0.02300X0.00100*%
%ADD35R,0.02400X0.00100*%
%ADD36R,0.02500X0.00100*%
%ADD37R,0.02600X0.00100*%
%ADD38R,0.02700X0.00100*%
%ADD39R,0.02800X0.00100*%
%ADD40R,0.02900X0.00100*%
%ADD41R,0.03000X0.00100*%
%ADD42R,0.03100X0.00100*%
%ADD43R,0.03200X0.00100*%
%ADD44R,0.03300X0.00100*%
%ADD45R,0.03400X0.00100*%
%ADD46R,0.03500X0.00100*%
%ADD47R,0.03600X0.00100*%
%ADD48R,0.03700X0.00100*%
%ADD49R,0.03800X0.00100*%
%ADD50R,0.03900X0.00100*%
%ADD51R,0.04000X0.00100*%
%ADD52R,0.04100X0.00100*%
%ADD53R,0.04200X0.00100*%
%ADD54R,0.04300X0.00100*%
%ADD55R,0.04400X0.00100*%
%ADD56R,0.04500X0.00100*%
%ADD57R,0.04600X0.00100*%
%ADD58R,0.04700X0.00100*%
%ADD59R,0.04800X0.00100*%
%ADD60R,0.05400X0.00100*%
%ADD61R,0.06300X0.00100*%
%ADD62R,0.07100X0.00100*%
%ADD63R,0.07900X0.00100*%
%ADD64R,0.08600X0.00100*%
%ADD65R,0.09300X0.00100*%
%ADD66R,0.09900X0.00100*%
%ADD67R,0.10500X0.00100*%
%ADD68R,0.11200X0.00100*%
%ADD69R,0.11700X0.00100*%
%ADD70R,0.12300X0.00100*%
%ADD71R,0.12800X0.00100*%
%ADD72R,0.13300X0.00100*%
%ADD73R,0.13700X0.00100*%
%ADD74R,0.14200X0.00100*%
%ADD75R,0.14600X0.00100*%
%ADD76R,0.15100X0.00100*%
%ADD77R,0.15500X0.00100*%
%ADD78R,0.15900X0.00100*%
%ADD79R,0.16300X0.00100*%
%ADD80R,0.16600X0.00100*%
%ADD81R,0.16900X0.00100*%
%ADD82R,0.17300X0.00100*%
%ADD83R,0.17700X0.00100*%
%ADD84R,0.18000X0.00100*%
%ADD85R,0.18400X0.00100*%
%ADD86R,0.18700X0.00100*%
%ADD87R,0.19100X0.00100*%
%ADD88R,0.19400X0.00100*%
%ADD89R,0.19700X0.00100*%
%ADD90R,0.04900X0.00100*%
%ADD91R,0.20000X0.00100*%
%ADD92R,0.05100X0.00100*%
%ADD93R,0.20300X0.00100*%
%ADD94R,0.05300X0.00100*%
%ADD95R,0.20700X0.00100*%
%ADD96R,0.05500X0.00100*%
%ADD97R,0.21000X0.00100*%
%ADD98R,0.05700X0.00100*%
%ADD99R,0.21200X0.00100*%
%ADD100R,0.05900X0.00100*%
%ADD101R,0.21400X0.00100*%
%ADD102R,0.06100X0.00100*%
%ADD103R,0.21700X0.00100*%
%ADD104R,0.06200X0.00100*%
%ADD105R,0.22000X0.00100*%
%ADD106R,0.06400X0.00100*%
%ADD107R,0.22300X0.00100*%
%ADD108R,0.06600X0.00100*%
%ADD109R,0.22500X0.00100*%
%ADD110R,0.06800X0.00100*%
%ADD111R,0.22600X0.00100*%
%ADD112R,0.07000X0.00100*%
%ADD113R,0.22700X0.00100*%
%ADD114R,0.07300X0.00100*%
%ADD115R,0.22800X0.00100*%
%ADD116R,0.07500X0.00100*%
%ADD117R,0.07600X0.00100*%
%ADD118R,0.22900X0.00100*%
%ADD119R,0.07800X0.00100*%
%ADD120R,0.08000X0.00100*%
%ADD121R,0.23000X0.00100*%
%ADD122R,0.08100X0.00100*%
%ADD123R,0.08300X0.00100*%
%ADD124R,0.23100X0.00100*%
%ADD125R,0.08400X0.00100*%
%ADD126R,0.23200X0.00100*%
%ADD127R,0.08700X0.00100*%
%ADD128R,0.08800X0.00100*%
%ADD129R,0.09000X0.00100*%
%ADD130R,0.23300X0.00100*%
%ADD131R,0.09100X0.00100*%
%ADD132R,0.09200X0.00100*%
%ADD133R,0.09400X0.00100*%
%ADD134R,0.09500X0.00100*%
%ADD135R,0.23400X0.00100*%
%ADD136R,0.09600X0.00100*%
%ADD137R,0.09700X0.00100*%
%ADD138R,0.09800X0.00100*%
%ADD139R,0.10000X0.00100*%
%ADD140R,0.23500X0.00100*%
%ADD141R,0.10100X0.00100*%
%ADD142R,0.10200X0.00100*%
%ADD143R,0.10300X0.00100*%
%ADD144R,0.10400X0.00100*%
%ADD145R,0.23600X0.00100*%
%ADD146R,0.10600X0.00100*%
%ADD147R,0.10700X0.00100*%
%ADD148R,0.10800X0.00100*%
%ADD149R,0.10900X0.00100*%
%ADD150R,0.11000X0.00100*%
%ADD151R,0.11100X0.00100*%
%ADD152R,0.17200X0.00100*%
%ADD153R,0.11300X0.00100*%
%ADD154R,0.13900X0.00100*%
%ADD155R,0.13400X0.00100*%
%ADD156R,0.11400X0.00100*%
%ADD157R,0.13000X0.00100*%
%ADD158R,0.12600X0.00100*%
%ADD159R,0.11500X0.00100*%
%ADD160R,0.12200X0.00100*%
%ADD161R,0.11900X0.00100*%
%ADD162R,0.11600X0.00100*%
%ADD163R,0.08900X0.00100*%
%ADD164R,0.08500X0.00100*%
%ADD165R,0.08200X0.00100*%
%ADD166R,0.07400X0.00100*%
%ADD167R,0.07700X0.00100*%
%ADD168R,0.07200X0.00100*%
%ADD169R,0.06900X0.00100*%
%ADD170R,0.06700X0.00100*%
%ADD171R,0.06500X0.00100*%
%ADD172R,0.06000X0.00100*%
%ADD173R,0.05200X0.00100*%
%ADD174R,0.05000X0.00100*%
%ADD175R,0.05600X0.00100*%
%ADD176R,0.05800X0.00100*%
%ADD177R,0.12000X0.00100*%
%ADD178R,0.11800X0.00100*%
%ADD179R,0.12500X0.00100*%
%ADD180R,0.12900X0.00100*%
%ADD181R,0.13500X0.00100*%
%ADD182R,0.14000X0.00100*%
%ADD183R,0.13600X0.00100*%
%ADD184R,0.14700X0.00100*%
%ADD185R,0.14100X0.00100*%
%ADD186R,0.15400X0.00100*%
%ADD187R,0.15600X0.00100*%
%ADD188R,0.17500X0.00100*%
%ADD189R,0.19300X0.00100*%
%ADD190R,0.18300X0.00100*%
%ADD191R,0.41200X0.00100*%
%ADD192R,0.41000X0.00100*%
%ADD193R,0.40800X0.00100*%
%ADD194R,0.40700X0.00100*%
%ADD195R,0.40500X0.00100*%
%ADD196R,0.40300X0.00100*%
%ADD197R,0.40200X0.00100*%
%ADD198R,0.40000X0.00100*%
%ADD199R,0.39700X0.00100*%
%ADD200R,0.39500X0.00100*%
%ADD201R,0.39300X0.00100*%
%ADD202R,0.39100X0.00100*%
%ADD203R,0.38900X0.00100*%
%ADD204R,0.38700X0.00100*%
%ADD205R,0.38300X0.00100*%
%ADD206R,0.38100X0.00100*%
%ADD207R,0.37900X0.00100*%
%ADD208R,0.37600X0.00100*%
%ADD209R,0.37400X0.00100*%
%ADD210R,0.37000X0.00100*%
%ADD211R,0.36800X0.00100*%
%ADD212R,0.36500X0.00100*%
%ADD213R,0.36200X0.00100*%
%ADD214R,0.35900X0.00100*%
%ADD215R,0.35700X0.00100*%
%ADD216R,0.35300X0.00100*%
%ADD217R,0.35000X0.00100*%
%ADD218R,0.34700X0.00100*%
%ADD219R,0.34400X0.00100*%
%ADD220R,0.34000X0.00100*%
%ADD221R,0.33600X0.00100*%
%ADD222R,0.33300X0.00100*%
%ADD223R,0.32900X0.00100*%
%ADD224R,0.32600X0.00100*%
%ADD225R,0.32200X0.00100*%
%ADD226R,0.31800X0.00100*%
%ADD227R,0.31500X0.00100*%
%ADD228R,0.31000X0.00100*%
%ADD229R,0.30600X0.00100*%
%ADD230R,0.30200X0.00100*%
%ADD231R,0.29800X0.00100*%
%ADD232R,0.29400X0.00100*%
%ADD233R,0.28900X0.00100*%
%ADD234R,0.28500X0.00100*%
%ADD235R,0.27900X0.00100*%
%ADD236R,0.27500X0.00100*%
%ADD237R,0.26900X0.00100*%
%ADD238R,0.26400X0.00100*%
%ADD239R,0.25900X0.00100*%
%ADD240R,0.25300X0.00100*%
%ADD241R,0.24700X0.00100*%
%ADD242R,0.24100X0.00100*%
%ADD243R,0.22200X0.00100*%
%ADD244R,0.20800X0.00100*%
%ADD245R,0.19200X0.00100*%
%ADD246R,0.17400X0.00100*%
%ADD247R,0.16400X0.00100*%
%ADD248R,0.14300X0.00100*%
%ADD249R,0.13200X0.00100*%
D10*
X0058480Y0135252D02*
X0113598Y0135252D01*
X0113598Y0135251D02*
X0113836Y0135254D01*
X0114074Y0135262D01*
X0114311Y0135277D01*
X0114548Y0135297D01*
X0114784Y0135323D01*
X0115020Y0135354D01*
X0115255Y0135391D01*
X0115489Y0135434D01*
X0115722Y0135483D01*
X0115954Y0135537D01*
X0116184Y0135597D01*
X0116413Y0135662D01*
X0116640Y0135733D01*
X0116865Y0135809D01*
X0117088Y0135891D01*
X0117310Y0135978D01*
X0117529Y0136070D01*
X0117746Y0136168D01*
X0117960Y0136270D01*
X0118172Y0136378D01*
X0118382Y0136492D01*
X0118588Y0136610D01*
X0118792Y0136733D01*
X0118992Y0136861D01*
X0119189Y0136993D01*
X0119384Y0137131D01*
X0119574Y0137273D01*
X0119762Y0137420D01*
X0119945Y0137571D01*
X0120125Y0137726D01*
X0120301Y0137886D01*
X0120473Y0138050D01*
X0120642Y0138219D01*
X0120806Y0138391D01*
X0120966Y0138567D01*
X0121121Y0138747D01*
X0121272Y0138930D01*
X0121419Y0139118D01*
X0121561Y0139308D01*
X0121699Y0139503D01*
X0121831Y0139700D01*
X0121959Y0139900D01*
X0122082Y0140104D01*
X0122200Y0140310D01*
X0122314Y0140520D01*
X0122422Y0140732D01*
X0122524Y0140946D01*
X0122622Y0141163D01*
X0122714Y0141382D01*
X0122801Y0141604D01*
X0122883Y0141827D01*
X0122959Y0142052D01*
X0123030Y0142279D01*
X0123095Y0142508D01*
X0123155Y0142738D01*
X0123209Y0142970D01*
X0123258Y0143203D01*
X0123301Y0143437D01*
X0123338Y0143672D01*
X0123369Y0143908D01*
X0123395Y0144144D01*
X0123415Y0144381D01*
X0123430Y0144618D01*
X0123438Y0144856D01*
X0123441Y0145094D01*
X0123441Y0310449D01*
X0123438Y0310687D01*
X0123430Y0310925D01*
X0123415Y0311162D01*
X0123395Y0311399D01*
X0123369Y0311635D01*
X0123338Y0311871D01*
X0123301Y0312106D01*
X0123258Y0312340D01*
X0123209Y0312573D01*
X0123155Y0312805D01*
X0123095Y0313035D01*
X0123030Y0313264D01*
X0122959Y0313491D01*
X0122883Y0313716D01*
X0122801Y0313939D01*
X0122714Y0314161D01*
X0122622Y0314380D01*
X0122524Y0314597D01*
X0122422Y0314811D01*
X0122314Y0315023D01*
X0122200Y0315233D01*
X0122082Y0315439D01*
X0121959Y0315643D01*
X0121831Y0315843D01*
X0121699Y0316040D01*
X0121561Y0316235D01*
X0121419Y0316425D01*
X0121272Y0316613D01*
X0121121Y0316796D01*
X0120966Y0316976D01*
X0120806Y0317152D01*
X0120642Y0317324D01*
X0120473Y0317493D01*
X0120301Y0317657D01*
X0120125Y0317817D01*
X0119945Y0317972D01*
X0119762Y0318123D01*
X0119574Y0318270D01*
X0119384Y0318412D01*
X0119189Y0318550D01*
X0118992Y0318682D01*
X0118792Y0318810D01*
X0118588Y0318933D01*
X0118382Y0319051D01*
X0118172Y0319165D01*
X0117960Y0319273D01*
X0117746Y0319375D01*
X0117529Y0319473D01*
X0117310Y0319565D01*
X0117088Y0319652D01*
X0116865Y0319734D01*
X0116640Y0319810D01*
X0116413Y0319881D01*
X0116184Y0319946D01*
X0115954Y0320006D01*
X0115722Y0320060D01*
X0115489Y0320109D01*
X0115255Y0320152D01*
X0115020Y0320189D01*
X0114784Y0320220D01*
X0114548Y0320246D01*
X0114311Y0320266D01*
X0114074Y0320281D01*
X0113836Y0320289D01*
X0113598Y0320292D01*
X0113598Y0320291D02*
X0058480Y0320291D01*
X0058480Y0320292D02*
X0058242Y0320289D01*
X0058004Y0320281D01*
X0057767Y0320266D01*
X0057530Y0320246D01*
X0057294Y0320220D01*
X0057058Y0320189D01*
X0056823Y0320152D01*
X0056589Y0320109D01*
X0056356Y0320060D01*
X0056124Y0320006D01*
X0055894Y0319946D01*
X0055665Y0319881D01*
X0055438Y0319810D01*
X0055213Y0319734D01*
X0054990Y0319652D01*
X0054768Y0319565D01*
X0054549Y0319473D01*
X0054332Y0319375D01*
X0054118Y0319273D01*
X0053906Y0319165D01*
X0053696Y0319051D01*
X0053490Y0318933D01*
X0053286Y0318810D01*
X0053086Y0318682D01*
X0052889Y0318550D01*
X0052694Y0318412D01*
X0052504Y0318270D01*
X0052316Y0318123D01*
X0052133Y0317972D01*
X0051953Y0317817D01*
X0051777Y0317657D01*
X0051605Y0317493D01*
X0051436Y0317324D01*
X0051272Y0317152D01*
X0051112Y0316976D01*
X0050957Y0316796D01*
X0050806Y0316613D01*
X0050659Y0316425D01*
X0050517Y0316235D01*
X0050379Y0316040D01*
X0050247Y0315843D01*
X0050119Y0315643D01*
X0049996Y0315439D01*
X0049878Y0315233D01*
X0049764Y0315023D01*
X0049656Y0314811D01*
X0049554Y0314597D01*
X0049456Y0314380D01*
X0049364Y0314161D01*
X0049277Y0313939D01*
X0049195Y0313716D01*
X0049119Y0313491D01*
X0049048Y0313264D01*
X0048983Y0313035D01*
X0048923Y0312805D01*
X0048869Y0312573D01*
X0048820Y0312340D01*
X0048777Y0312106D01*
X0048740Y0311871D01*
X0048709Y0311635D01*
X0048683Y0311399D01*
X0048663Y0311162D01*
X0048648Y0310925D01*
X0048640Y0310687D01*
X0048637Y0310449D01*
X0048638Y0310449D02*
X0048638Y0145094D01*
X0048637Y0145094D02*
X0048640Y0144856D01*
X0048648Y0144618D01*
X0048663Y0144381D01*
X0048683Y0144144D01*
X0048709Y0143908D01*
X0048740Y0143672D01*
X0048777Y0143437D01*
X0048820Y0143203D01*
X0048869Y0142970D01*
X0048923Y0142738D01*
X0048983Y0142508D01*
X0049048Y0142279D01*
X0049119Y0142052D01*
X0049195Y0141827D01*
X0049277Y0141604D01*
X0049364Y0141382D01*
X0049456Y0141163D01*
X0049554Y0140946D01*
X0049656Y0140732D01*
X0049764Y0140520D01*
X0049878Y0140310D01*
X0049996Y0140104D01*
X0050119Y0139900D01*
X0050247Y0139700D01*
X0050379Y0139503D01*
X0050517Y0139308D01*
X0050659Y0139118D01*
X0050806Y0138930D01*
X0050957Y0138747D01*
X0051112Y0138567D01*
X0051272Y0138391D01*
X0051436Y0138219D01*
X0051605Y0138050D01*
X0051777Y0137886D01*
X0051953Y0137726D01*
X0052133Y0137571D01*
X0052316Y0137420D01*
X0052504Y0137273D01*
X0052694Y0137131D01*
X0052889Y0136993D01*
X0053086Y0136861D01*
X0053286Y0136733D01*
X0053490Y0136610D01*
X0053696Y0136492D01*
X0053906Y0136378D01*
X0054118Y0136270D01*
X0054332Y0136168D01*
X0054549Y0136070D01*
X0054768Y0135978D01*
X0054990Y0135891D01*
X0055213Y0135809D01*
X0055438Y0135733D01*
X0055665Y0135662D01*
X0055894Y0135597D01*
X0056124Y0135537D01*
X0056356Y0135483D01*
X0056589Y0135434D01*
X0056823Y0135391D01*
X0057058Y0135354D01*
X0057294Y0135323D01*
X0057530Y0135297D01*
X0057767Y0135277D01*
X0058004Y0135262D01*
X0058242Y0135254D01*
X0058480Y0135251D01*
X0135252Y0145094D02*
X0135252Y0310449D01*
X0135251Y0310449D02*
X0135254Y0310687D01*
X0135262Y0310925D01*
X0135277Y0311162D01*
X0135297Y0311399D01*
X0135323Y0311635D01*
X0135354Y0311871D01*
X0135391Y0312106D01*
X0135434Y0312340D01*
X0135483Y0312573D01*
X0135537Y0312805D01*
X0135597Y0313035D01*
X0135662Y0313264D01*
X0135733Y0313491D01*
X0135809Y0313716D01*
X0135891Y0313939D01*
X0135978Y0314161D01*
X0136070Y0314380D01*
X0136168Y0314597D01*
X0136270Y0314811D01*
X0136378Y0315023D01*
X0136492Y0315233D01*
X0136610Y0315439D01*
X0136733Y0315643D01*
X0136861Y0315843D01*
X0136993Y0316040D01*
X0137131Y0316235D01*
X0137273Y0316425D01*
X0137420Y0316613D01*
X0137571Y0316796D01*
X0137726Y0316976D01*
X0137886Y0317152D01*
X0138050Y0317324D01*
X0138219Y0317493D01*
X0138391Y0317657D01*
X0138567Y0317817D01*
X0138747Y0317972D01*
X0138930Y0318123D01*
X0139118Y0318270D01*
X0139308Y0318412D01*
X0139503Y0318550D01*
X0139700Y0318682D01*
X0139900Y0318810D01*
X0140104Y0318933D01*
X0140310Y0319051D01*
X0140520Y0319165D01*
X0140732Y0319273D01*
X0140946Y0319375D01*
X0141163Y0319473D01*
X0141382Y0319565D01*
X0141604Y0319652D01*
X0141827Y0319734D01*
X0142052Y0319810D01*
X0142279Y0319881D01*
X0142508Y0319946D01*
X0142738Y0320006D01*
X0142970Y0320060D01*
X0143203Y0320109D01*
X0143437Y0320152D01*
X0143672Y0320189D01*
X0143908Y0320220D01*
X0144144Y0320246D01*
X0144381Y0320266D01*
X0144618Y0320281D01*
X0144856Y0320289D01*
X0145094Y0320292D01*
X0145094Y0320291D02*
X0200213Y0320291D01*
X0200213Y0320292D02*
X0200451Y0320289D01*
X0200689Y0320281D01*
X0200926Y0320266D01*
X0201163Y0320246D01*
X0201399Y0320220D01*
X0201635Y0320189D01*
X0201870Y0320152D01*
X0202104Y0320109D01*
X0202337Y0320060D01*
X0202569Y0320006D01*
X0202799Y0319946D01*
X0203028Y0319881D01*
X0203255Y0319810D01*
X0203480Y0319734D01*
X0203703Y0319652D01*
X0203925Y0319565D01*
X0204144Y0319473D01*
X0204361Y0319375D01*
X0204575Y0319273D01*
X0204787Y0319165D01*
X0204997Y0319051D01*
X0205203Y0318933D01*
X0205407Y0318810D01*
X0205607Y0318682D01*
X0205804Y0318550D01*
X0205999Y0318412D01*
X0206189Y0318270D01*
X0206377Y0318123D01*
X0206560Y0317972D01*
X0206740Y0317817D01*
X0206916Y0317657D01*
X0207088Y0317493D01*
X0207257Y0317324D01*
X0207421Y0317152D01*
X0207581Y0316976D01*
X0207736Y0316796D01*
X0207887Y0316613D01*
X0208034Y0316425D01*
X0208176Y0316235D01*
X0208314Y0316040D01*
X0208446Y0315843D01*
X0208574Y0315643D01*
X0208697Y0315439D01*
X0208815Y0315233D01*
X0208929Y0315023D01*
X0209037Y0314811D01*
X0209139Y0314597D01*
X0209237Y0314380D01*
X0209329Y0314161D01*
X0209416Y0313939D01*
X0209498Y0313716D01*
X0209574Y0313491D01*
X0209645Y0313264D01*
X0209710Y0313035D01*
X0209770Y0312805D01*
X0209824Y0312573D01*
X0209873Y0312340D01*
X0209916Y0312106D01*
X0209953Y0311871D01*
X0209984Y0311635D01*
X0210010Y0311399D01*
X0210030Y0311162D01*
X0210045Y0310925D01*
X0210053Y0310687D01*
X0210056Y0310449D01*
X0210055Y0310449D02*
X0210055Y0145094D01*
X0210056Y0145094D02*
X0210053Y0144856D01*
X0210045Y0144618D01*
X0210030Y0144381D01*
X0210010Y0144144D01*
X0209984Y0143908D01*
X0209953Y0143672D01*
X0209916Y0143437D01*
X0209873Y0143203D01*
X0209824Y0142970D01*
X0209770Y0142738D01*
X0209710Y0142508D01*
X0209645Y0142279D01*
X0209574Y0142052D01*
X0209498Y0141827D01*
X0209416Y0141604D01*
X0209329Y0141382D01*
X0209237Y0141163D01*
X0209139Y0140946D01*
X0209037Y0140732D01*
X0208929Y0140520D01*
X0208815Y0140310D01*
X0208697Y0140104D01*
X0208574Y0139900D01*
X0208446Y0139700D01*
X0208314Y0139503D01*
X0208176Y0139308D01*
X0208034Y0139118D01*
X0207887Y0138930D01*
X0207736Y0138747D01*
X0207581Y0138567D01*
X0207421Y0138391D01*
X0207257Y0138219D01*
X0207088Y0138050D01*
X0206916Y0137886D01*
X0206740Y0137726D01*
X0206560Y0137571D01*
X0206377Y0137420D01*
X0206189Y0137273D01*
X0205999Y0137131D01*
X0205804Y0136993D01*
X0205607Y0136861D01*
X0205407Y0136733D01*
X0205203Y0136610D01*
X0204997Y0136492D01*
X0204787Y0136378D01*
X0204575Y0136270D01*
X0204361Y0136168D01*
X0204144Y0136070D01*
X0203925Y0135978D01*
X0203703Y0135891D01*
X0203480Y0135809D01*
X0203255Y0135733D01*
X0203028Y0135662D01*
X0202799Y0135597D01*
X0202569Y0135537D01*
X0202337Y0135483D01*
X0202104Y0135434D01*
X0201870Y0135391D01*
X0201635Y0135354D01*
X0201399Y0135323D01*
X0201163Y0135297D01*
X0200926Y0135277D01*
X0200689Y0135262D01*
X0200451Y0135254D01*
X0200213Y0135251D01*
X0200213Y0135252D02*
X0145094Y0135252D01*
X0145094Y0135251D02*
X0144856Y0135254D01*
X0144618Y0135262D01*
X0144381Y0135277D01*
X0144144Y0135297D01*
X0143908Y0135323D01*
X0143672Y0135354D01*
X0143437Y0135391D01*
X0143203Y0135434D01*
X0142970Y0135483D01*
X0142738Y0135537D01*
X0142508Y0135597D01*
X0142279Y0135662D01*
X0142052Y0135733D01*
X0141827Y0135809D01*
X0141604Y0135891D01*
X0141382Y0135978D01*
X0141163Y0136070D01*
X0140946Y0136168D01*
X0140732Y0136270D01*
X0140520Y0136378D01*
X0140310Y0136492D01*
X0140104Y0136610D01*
X0139900Y0136733D01*
X0139700Y0136861D01*
X0139503Y0136993D01*
X0139308Y0137131D01*
X0139118Y0137273D01*
X0138930Y0137420D01*
X0138747Y0137571D01*
X0138567Y0137726D01*
X0138391Y0137886D01*
X0138219Y0138050D01*
X0138050Y0138219D01*
X0137886Y0138391D01*
X0137726Y0138567D01*
X0137571Y0138747D01*
X0137420Y0138930D01*
X0137273Y0139118D01*
X0137131Y0139308D01*
X0136993Y0139503D01*
X0136861Y0139700D01*
X0136733Y0139900D01*
X0136610Y0140104D01*
X0136492Y0140310D01*
X0136378Y0140520D01*
X0136270Y0140732D01*
X0136168Y0140946D01*
X0136070Y0141163D01*
X0135978Y0141382D01*
X0135891Y0141604D01*
X0135809Y0141827D01*
X0135733Y0142052D01*
X0135662Y0142279D01*
X0135597Y0142508D01*
X0135537Y0142738D01*
X0135483Y0142970D01*
X0135434Y0143203D01*
X0135391Y0143437D01*
X0135354Y0143672D01*
X0135323Y0143908D01*
X0135297Y0144144D01*
X0135277Y0144381D01*
X0135262Y0144618D01*
X0135254Y0144856D01*
X0135251Y0145094D01*
D11*
X0067020Y0086039D02*
X0067017Y0085782D01*
X0067008Y0085526D01*
X0066992Y0085270D01*
X0066971Y0085014D01*
X0066943Y0084758D01*
X0066910Y0084504D01*
X0066870Y0084250D01*
X0066824Y0083998D01*
X0066773Y0083746D01*
X0066715Y0083496D01*
X0066651Y0083248D01*
X0066582Y0083000D01*
X0066506Y0082755D01*
X0066425Y0082512D01*
X0066338Y0082270D01*
X0066245Y0082031D01*
X0066147Y0081794D01*
X0066042Y0081559D01*
X0065933Y0081327D01*
X0066295Y0082415D02*
X0060496Y0089664D01*
X0060858Y0090751D02*
X0060892Y0090846D01*
X0060930Y0090939D01*
X0060972Y0091031D01*
X0061017Y0091121D01*
X0061065Y0091210D01*
X0061117Y0091296D01*
X0061172Y0091381D01*
X0061229Y0091463D01*
X0061290Y0091544D01*
X0061354Y0091621D01*
X0061421Y0091697D01*
X0061491Y0091770D01*
X0061563Y0091840D01*
X0061638Y0091908D01*
X0061716Y0091972D01*
X0061795Y0092034D01*
X0061877Y0092092D01*
X0061962Y0092148D01*
X0062048Y0092200D01*
X0062136Y0092249D01*
X0062226Y0092295D01*
X0062317Y0092337D01*
X0062410Y0092376D01*
X0062505Y0092411D01*
X0062601Y0092443D01*
X0062697Y0092471D01*
X0062795Y0092495D01*
X0062894Y0092516D01*
X0062993Y0092533D01*
X0063093Y0092546D01*
X0063194Y0092555D01*
X0063294Y0092561D01*
X0063395Y0092563D01*
X0063496Y0092561D01*
X0063596Y0092555D01*
X0063697Y0092546D01*
X0063797Y0092533D01*
X0063896Y0092516D01*
X0063995Y0092495D01*
X0064093Y0092471D01*
X0064189Y0092443D01*
X0064285Y0092411D01*
X0064380Y0092376D01*
X0064473Y0092337D01*
X0064564Y0092295D01*
X0064654Y0092249D01*
X0064742Y0092200D01*
X0064828Y0092148D01*
X0064913Y0092092D01*
X0064995Y0092034D01*
X0065074Y0091972D01*
X0065152Y0091908D01*
X0065227Y0091840D01*
X0065299Y0091770D01*
X0065369Y0091697D01*
X0065436Y0091621D01*
X0065500Y0091544D01*
X0065561Y0091463D01*
X0065618Y0091381D01*
X0065673Y0091296D01*
X0065725Y0091210D01*
X0065773Y0091121D01*
X0065818Y0091031D01*
X0065860Y0090939D01*
X0065898Y0090846D01*
X0065932Y0090751D01*
X0060858Y0090751D02*
X0060749Y0090519D01*
X0060644Y0090284D01*
X0060546Y0090047D01*
X0060453Y0089808D01*
X0060366Y0089566D01*
X0060285Y0089323D01*
X0060209Y0089077D01*
X0060140Y0088830D01*
X0060076Y0088582D01*
X0060018Y0088331D01*
X0059967Y0088080D01*
X0059921Y0087827D01*
X0059881Y0087574D01*
X0059848Y0087319D01*
X0059820Y0087064D01*
X0059799Y0086808D01*
X0059783Y0086552D01*
X0059774Y0086296D01*
X0059771Y0086039D01*
X0067020Y0086039D02*
X0067017Y0086296D01*
X0067008Y0086552D01*
X0066992Y0086808D01*
X0066971Y0087064D01*
X0066943Y0087320D01*
X0066910Y0087574D01*
X0066870Y0087828D01*
X0066824Y0088080D01*
X0066773Y0088332D01*
X0066715Y0088582D01*
X0066651Y0088830D01*
X0066582Y0089078D01*
X0066506Y0089323D01*
X0066425Y0089566D01*
X0066338Y0089808D01*
X0066245Y0090047D01*
X0066147Y0090284D01*
X0066042Y0090519D01*
X0065933Y0090751D01*
X0059770Y0086039D02*
X0059773Y0085782D01*
X0059782Y0085526D01*
X0059798Y0085270D01*
X0059819Y0085014D01*
X0059847Y0084758D01*
X0059880Y0084504D01*
X0059920Y0084250D01*
X0059966Y0083998D01*
X0060017Y0083746D01*
X0060075Y0083496D01*
X0060139Y0083248D01*
X0060208Y0083000D01*
X0060284Y0082755D01*
X0060365Y0082512D01*
X0060452Y0082270D01*
X0060545Y0082031D01*
X0060643Y0081794D01*
X0060748Y0081559D01*
X0060857Y0081327D01*
X0060858Y0081327D02*
X0060892Y0081232D01*
X0060930Y0081139D01*
X0060972Y0081047D01*
X0061017Y0080957D01*
X0061065Y0080868D01*
X0061117Y0080782D01*
X0061172Y0080697D01*
X0061229Y0080615D01*
X0061290Y0080534D01*
X0061354Y0080457D01*
X0061421Y0080381D01*
X0061491Y0080308D01*
X0061563Y0080238D01*
X0061638Y0080170D01*
X0061716Y0080106D01*
X0061795Y0080044D01*
X0061877Y0079986D01*
X0061962Y0079930D01*
X0062048Y0079878D01*
X0062136Y0079829D01*
X0062226Y0079783D01*
X0062317Y0079741D01*
X0062410Y0079702D01*
X0062505Y0079667D01*
X0062601Y0079635D01*
X0062697Y0079607D01*
X0062795Y0079583D01*
X0062894Y0079562D01*
X0062993Y0079545D01*
X0063093Y0079532D01*
X0063194Y0079523D01*
X0063294Y0079517D01*
X0063395Y0079515D01*
X0063496Y0079517D01*
X0063596Y0079523D01*
X0063697Y0079532D01*
X0063797Y0079545D01*
X0063896Y0079562D01*
X0063995Y0079583D01*
X0064093Y0079607D01*
X0064189Y0079635D01*
X0064285Y0079667D01*
X0064380Y0079702D01*
X0064473Y0079741D01*
X0064564Y0079783D01*
X0064654Y0079829D01*
X0064742Y0079878D01*
X0064828Y0079930D01*
X0064913Y0079986D01*
X0064995Y0080044D01*
X0065074Y0080106D01*
X0065152Y0080170D01*
X0065227Y0080238D01*
X0065299Y0080308D01*
X0065369Y0080381D01*
X0065436Y0080457D01*
X0065500Y0080534D01*
X0065561Y0080615D01*
X0065618Y0080697D01*
X0065673Y0080782D01*
X0065725Y0080868D01*
X0065773Y0080957D01*
X0065818Y0081047D01*
X0065860Y0081139D01*
X0065898Y0081232D01*
X0065932Y0081327D01*
X0071301Y0080240D02*
X0071301Y0079515D01*
X0072026Y0079515D01*
X0072026Y0080240D01*
X0071301Y0080240D01*
X0076306Y0079515D02*
X0083555Y0079515D01*
X0079931Y0079515D02*
X0079931Y0092563D01*
X0083555Y0089664D01*
X0087661Y0088214D02*
X0090561Y0079515D01*
X0093460Y0088214D01*
X0102840Y0088214D02*
X0102840Y0086764D01*
X0102840Y0088214D02*
X0107190Y0088214D01*
X0107190Y0079515D01*
X0112071Y0082415D02*
X0112071Y0085314D01*
X0112070Y0085314D02*
X0112072Y0085420D01*
X0112078Y0085526D01*
X0112087Y0085631D01*
X0112101Y0085736D01*
X0112118Y0085841D01*
X0112139Y0085945D01*
X0112164Y0086048D01*
X0112193Y0086149D01*
X0112225Y0086250D01*
X0112261Y0086350D01*
X0112301Y0086448D01*
X0112344Y0086545D01*
X0112391Y0086640D01*
X0112441Y0086733D01*
X0112495Y0086825D01*
X0112551Y0086914D01*
X0112611Y0087001D01*
X0112675Y0087086D01*
X0112741Y0087169D01*
X0112810Y0087249D01*
X0112882Y0087327D01*
X0112957Y0087402D01*
X0113035Y0087474D01*
X0113115Y0087543D01*
X0113198Y0087609D01*
X0113283Y0087673D01*
X0113370Y0087733D01*
X0113459Y0087789D01*
X0113551Y0087843D01*
X0113644Y0087893D01*
X0113739Y0087940D01*
X0113836Y0087983D01*
X0113934Y0088023D01*
X0114034Y0088059D01*
X0114135Y0088091D01*
X0114236Y0088120D01*
X0114339Y0088145D01*
X0114443Y0088166D01*
X0114548Y0088183D01*
X0114653Y0088197D01*
X0114758Y0088206D01*
X0114864Y0088212D01*
X0114970Y0088214D01*
X0115076Y0088212D01*
X0115182Y0088206D01*
X0115287Y0088197D01*
X0115392Y0088183D01*
X0115497Y0088166D01*
X0115601Y0088145D01*
X0115704Y0088120D01*
X0115805Y0088091D01*
X0115906Y0088059D01*
X0116006Y0088023D01*
X0116104Y0087983D01*
X0116201Y0087940D01*
X0116296Y0087893D01*
X0116389Y0087843D01*
X0116481Y0087789D01*
X0116570Y0087733D01*
X0116657Y0087673D01*
X0116742Y0087609D01*
X0116825Y0087543D01*
X0116905Y0087474D01*
X0116983Y0087402D01*
X0117058Y0087327D01*
X0117130Y0087249D01*
X0117199Y0087169D01*
X0117265Y0087086D01*
X0117329Y0087001D01*
X0117389Y0086914D01*
X0117445Y0086825D01*
X0117499Y0086733D01*
X0117549Y0086640D01*
X0117596Y0086545D01*
X0117639Y0086448D01*
X0117679Y0086350D01*
X0117715Y0086250D01*
X0117747Y0086149D01*
X0117776Y0086048D01*
X0117801Y0085945D01*
X0117822Y0085841D01*
X0117839Y0085736D01*
X0117853Y0085631D01*
X0117862Y0085526D01*
X0117868Y0085420D01*
X0117870Y0085314D01*
X0117870Y0082415D01*
X0117868Y0082309D01*
X0117862Y0082203D01*
X0117853Y0082098D01*
X0117839Y0081993D01*
X0117822Y0081888D01*
X0117801Y0081784D01*
X0117776Y0081681D01*
X0117747Y0081580D01*
X0117715Y0081479D01*
X0117679Y0081379D01*
X0117639Y0081281D01*
X0117596Y0081184D01*
X0117549Y0081089D01*
X0117499Y0080996D01*
X0117445Y0080904D01*
X0117389Y0080815D01*
X0117329Y0080728D01*
X0117265Y0080643D01*
X0117199Y0080560D01*
X0117130Y0080480D01*
X0117058Y0080402D01*
X0116983Y0080327D01*
X0116905Y0080255D01*
X0116825Y0080186D01*
X0116742Y0080120D01*
X0116657Y0080056D01*
X0116570Y0079996D01*
X0116481Y0079940D01*
X0116389Y0079886D01*
X0116296Y0079836D01*
X0116201Y0079789D01*
X0116104Y0079746D01*
X0116006Y0079706D01*
X0115906Y0079670D01*
X0115805Y0079638D01*
X0115704Y0079609D01*
X0115601Y0079584D01*
X0115497Y0079563D01*
X0115392Y0079546D01*
X0115287Y0079532D01*
X0115182Y0079523D01*
X0115076Y0079517D01*
X0114970Y0079515D01*
X0114864Y0079517D01*
X0114758Y0079523D01*
X0114653Y0079532D01*
X0114548Y0079546D01*
X0114443Y0079563D01*
X0114339Y0079584D01*
X0114236Y0079609D01*
X0114135Y0079638D01*
X0114034Y0079670D01*
X0113934Y0079706D01*
X0113836Y0079746D01*
X0113739Y0079789D01*
X0113644Y0079836D01*
X0113551Y0079886D01*
X0113459Y0079940D01*
X0113370Y0079996D01*
X0113283Y0080056D01*
X0113198Y0080120D01*
X0113115Y0080186D01*
X0113035Y0080255D01*
X0112957Y0080327D01*
X0112882Y0080402D01*
X0112810Y0080480D01*
X0112741Y0080560D01*
X0112675Y0080643D01*
X0112611Y0080728D01*
X0112551Y0080815D01*
X0112495Y0080904D01*
X0112441Y0080996D01*
X0112391Y0081089D01*
X0112344Y0081184D01*
X0112301Y0081281D01*
X0112261Y0081379D01*
X0112225Y0081479D01*
X0112193Y0081580D01*
X0112164Y0081681D01*
X0112139Y0081784D01*
X0112118Y0081888D01*
X0112101Y0081993D01*
X0112087Y0082098D01*
X0112078Y0082203D01*
X0112072Y0082309D01*
X0112070Y0082415D01*
X0121913Y0079515D02*
X0122638Y0079515D01*
X0122730Y0079517D01*
X0122822Y0079523D01*
X0122914Y0079533D01*
X0123006Y0079546D01*
X0123096Y0079564D01*
X0123186Y0079585D01*
X0123275Y0079610D01*
X0123363Y0079639D01*
X0123449Y0079672D01*
X0123534Y0079708D01*
X0123617Y0079748D01*
X0123699Y0079791D01*
X0123778Y0079838D01*
X0123856Y0079888D01*
X0123931Y0079941D01*
X0124004Y0079998D01*
X0124075Y0080057D01*
X0124143Y0080120D01*
X0124208Y0080185D01*
X0124271Y0080253D01*
X0124330Y0080324D01*
X0124387Y0080397D01*
X0124440Y0080472D01*
X0124490Y0080550D01*
X0124537Y0080629D01*
X0124580Y0080711D01*
X0124620Y0080794D01*
X0124656Y0080879D01*
X0124689Y0080965D01*
X0124718Y0081053D01*
X0124743Y0081142D01*
X0124764Y0081232D01*
X0124782Y0081322D01*
X0124795Y0081414D01*
X0124805Y0081506D01*
X0124811Y0081598D01*
X0124813Y0081690D01*
X0124813Y0092563D01*
X0126262Y0088214D02*
X0121913Y0088214D01*
X0130217Y0086039D02*
X0130217Y0079515D01*
X0133479Y0079515D01*
X0133579Y0079517D01*
X0133678Y0079523D01*
X0133777Y0079533D01*
X0133876Y0079546D01*
X0133974Y0079564D01*
X0134071Y0079585D01*
X0134168Y0079610D01*
X0134263Y0079639D01*
X0134357Y0079672D01*
X0134450Y0079708D01*
X0134541Y0079748D01*
X0134631Y0079792D01*
X0134719Y0079838D01*
X0134805Y0079889D01*
X0134888Y0079943D01*
X0134970Y0080000D01*
X0135050Y0080060D01*
X0135127Y0080123D01*
X0135201Y0080189D01*
X0135273Y0080258D01*
X0135342Y0080330D01*
X0135408Y0080404D01*
X0135471Y0080481D01*
X0135531Y0080561D01*
X0135588Y0080643D01*
X0135642Y0080726D01*
X0135693Y0080812D01*
X0135739Y0080900D01*
X0135783Y0080990D01*
X0135823Y0081081D01*
X0135859Y0081174D01*
X0135892Y0081268D01*
X0135921Y0081363D01*
X0135946Y0081460D01*
X0135967Y0081557D01*
X0135985Y0081655D01*
X0135998Y0081754D01*
X0136008Y0081853D01*
X0136014Y0081952D01*
X0136016Y0082052D01*
X0136014Y0082152D01*
X0136008Y0082251D01*
X0135998Y0082350D01*
X0135985Y0082449D01*
X0135967Y0082547D01*
X0135946Y0082644D01*
X0135921Y0082741D01*
X0135892Y0082836D01*
X0135859Y0082930D01*
X0135823Y0083023D01*
X0135783Y0083114D01*
X0135739Y0083204D01*
X0135693Y0083292D01*
X0135642Y0083378D01*
X0135588Y0083461D01*
X0135531Y0083543D01*
X0135471Y0083623D01*
X0135408Y0083700D01*
X0135342Y0083774D01*
X0135273Y0083846D01*
X0135201Y0083915D01*
X0135127Y0083981D01*
X0135050Y0084044D01*
X0134970Y0084104D01*
X0134888Y0084161D01*
X0134805Y0084215D01*
X0134719Y0084266D01*
X0134631Y0084312D01*
X0134541Y0084356D01*
X0134450Y0084396D01*
X0134357Y0084432D01*
X0134263Y0084465D01*
X0134168Y0084494D01*
X0134071Y0084519D01*
X0133974Y0084540D01*
X0133876Y0084558D01*
X0133777Y0084571D01*
X0133678Y0084581D01*
X0133579Y0084587D01*
X0133479Y0084589D01*
X0133479Y0084590D02*
X0130217Y0084590D01*
X0130216Y0086039D02*
X0130218Y0086131D01*
X0130224Y0086223D01*
X0130234Y0086315D01*
X0130247Y0086407D01*
X0130265Y0086497D01*
X0130286Y0086587D01*
X0130311Y0086676D01*
X0130340Y0086764D01*
X0130373Y0086850D01*
X0130409Y0086935D01*
X0130449Y0087018D01*
X0130492Y0087100D01*
X0130539Y0087179D01*
X0130589Y0087257D01*
X0130642Y0087332D01*
X0130699Y0087405D01*
X0130758Y0087476D01*
X0130821Y0087544D01*
X0130886Y0087609D01*
X0130954Y0087672D01*
X0131025Y0087731D01*
X0131098Y0087788D01*
X0131173Y0087841D01*
X0131251Y0087891D01*
X0131330Y0087938D01*
X0131412Y0087981D01*
X0131495Y0088021D01*
X0131580Y0088057D01*
X0131666Y0088090D01*
X0131754Y0088119D01*
X0131843Y0088144D01*
X0131933Y0088165D01*
X0132023Y0088183D01*
X0132115Y0088196D01*
X0132207Y0088206D01*
X0132299Y0088212D01*
X0132391Y0088214D01*
X0135291Y0088214D01*
X0140023Y0088214D02*
X0144373Y0088214D01*
X0148291Y0088214D02*
X0148291Y0079515D01*
X0151915Y0079515D01*
X0152007Y0079517D01*
X0152099Y0079523D01*
X0152191Y0079533D01*
X0152283Y0079546D01*
X0152373Y0079564D01*
X0152463Y0079585D01*
X0152552Y0079610D01*
X0152640Y0079639D01*
X0152726Y0079672D01*
X0152811Y0079708D01*
X0152894Y0079748D01*
X0152976Y0079791D01*
X0153055Y0079838D01*
X0153133Y0079888D01*
X0153208Y0079941D01*
X0153281Y0079998D01*
X0153352Y0080057D01*
X0153420Y0080120D01*
X0153485Y0080185D01*
X0153548Y0080253D01*
X0153607Y0080324D01*
X0153664Y0080397D01*
X0153717Y0080472D01*
X0153767Y0080550D01*
X0153814Y0080629D01*
X0153857Y0080711D01*
X0153897Y0080794D01*
X0153933Y0080879D01*
X0153966Y0080965D01*
X0153995Y0081053D01*
X0154020Y0081142D01*
X0154041Y0081232D01*
X0154059Y0081322D01*
X0154072Y0081414D01*
X0154082Y0081506D01*
X0154088Y0081598D01*
X0154090Y0081690D01*
X0154090Y0088214D01*
X0159440Y0086039D02*
X0159440Y0079515D01*
X0159439Y0086039D02*
X0159441Y0086131D01*
X0159447Y0086223D01*
X0159457Y0086315D01*
X0159470Y0086407D01*
X0159488Y0086497D01*
X0159509Y0086587D01*
X0159534Y0086676D01*
X0159563Y0086764D01*
X0159596Y0086850D01*
X0159632Y0086935D01*
X0159672Y0087018D01*
X0159715Y0087100D01*
X0159762Y0087179D01*
X0159812Y0087257D01*
X0159865Y0087332D01*
X0159922Y0087405D01*
X0159981Y0087476D01*
X0160044Y0087544D01*
X0160109Y0087609D01*
X0160177Y0087672D01*
X0160248Y0087731D01*
X0160321Y0087788D01*
X0160396Y0087841D01*
X0160474Y0087891D01*
X0160553Y0087938D01*
X0160635Y0087981D01*
X0160718Y0088021D01*
X0160803Y0088057D01*
X0160889Y0088090D01*
X0160977Y0088119D01*
X0161066Y0088144D01*
X0161156Y0088165D01*
X0161246Y0088183D01*
X0161338Y0088196D01*
X0161430Y0088206D01*
X0161522Y0088212D01*
X0161614Y0088214D01*
X0168138Y0088214D01*
X0168138Y0079515D01*
X0163789Y0079515D02*
X0163789Y0088214D01*
X0173613Y0086039D02*
X0173613Y0079515D01*
X0177962Y0079515D02*
X0177962Y0088214D01*
X0175788Y0088214D02*
X0182312Y0088214D01*
X0182312Y0079515D01*
X0187267Y0082415D02*
X0187267Y0085314D01*
X0187269Y0085420D01*
X0187275Y0085526D01*
X0187284Y0085631D01*
X0187298Y0085736D01*
X0187315Y0085841D01*
X0187336Y0085945D01*
X0187361Y0086048D01*
X0187390Y0086149D01*
X0187422Y0086250D01*
X0187458Y0086350D01*
X0187498Y0086448D01*
X0187541Y0086545D01*
X0187588Y0086640D01*
X0187638Y0086733D01*
X0187692Y0086825D01*
X0187748Y0086914D01*
X0187808Y0087001D01*
X0187872Y0087086D01*
X0187938Y0087169D01*
X0188007Y0087249D01*
X0188079Y0087327D01*
X0188154Y0087402D01*
X0188232Y0087474D01*
X0188312Y0087543D01*
X0188395Y0087609D01*
X0188480Y0087673D01*
X0188567Y0087733D01*
X0188656Y0087789D01*
X0188748Y0087843D01*
X0188841Y0087893D01*
X0188936Y0087940D01*
X0189033Y0087983D01*
X0189131Y0088023D01*
X0189231Y0088059D01*
X0189332Y0088091D01*
X0189433Y0088120D01*
X0189536Y0088145D01*
X0189640Y0088166D01*
X0189745Y0088183D01*
X0189850Y0088197D01*
X0189955Y0088206D01*
X0190061Y0088212D01*
X0190167Y0088214D01*
X0190273Y0088212D01*
X0190379Y0088206D01*
X0190484Y0088197D01*
X0190589Y0088183D01*
X0190694Y0088166D01*
X0190798Y0088145D01*
X0190901Y0088120D01*
X0191002Y0088091D01*
X0191103Y0088059D01*
X0191203Y0088023D01*
X0191301Y0087983D01*
X0191398Y0087940D01*
X0191493Y0087893D01*
X0191586Y0087843D01*
X0191678Y0087789D01*
X0191767Y0087733D01*
X0191854Y0087673D01*
X0191939Y0087609D01*
X0192022Y0087543D01*
X0192102Y0087474D01*
X0192180Y0087402D01*
X0192255Y0087327D01*
X0192327Y0087249D01*
X0192396Y0087169D01*
X0192462Y0087086D01*
X0192526Y0087001D01*
X0192586Y0086914D01*
X0192642Y0086825D01*
X0192696Y0086733D01*
X0192746Y0086640D01*
X0192793Y0086545D01*
X0192836Y0086448D01*
X0192876Y0086350D01*
X0192912Y0086250D01*
X0192944Y0086149D01*
X0192973Y0086048D01*
X0192998Y0085945D01*
X0193019Y0085841D01*
X0193036Y0085736D01*
X0193050Y0085631D01*
X0193059Y0085526D01*
X0193065Y0085420D01*
X0193067Y0085314D01*
X0193066Y0085314D02*
X0193066Y0082415D01*
X0193067Y0082415D02*
X0193065Y0082309D01*
X0193059Y0082203D01*
X0193050Y0082098D01*
X0193036Y0081993D01*
X0193019Y0081888D01*
X0192998Y0081784D01*
X0192973Y0081681D01*
X0192944Y0081580D01*
X0192912Y0081479D01*
X0192876Y0081379D01*
X0192836Y0081281D01*
X0192793Y0081184D01*
X0192746Y0081089D01*
X0192696Y0080996D01*
X0192642Y0080904D01*
X0192586Y0080815D01*
X0192526Y0080728D01*
X0192462Y0080643D01*
X0192396Y0080560D01*
X0192327Y0080480D01*
X0192255Y0080402D01*
X0192180Y0080327D01*
X0192102Y0080255D01*
X0192022Y0080186D01*
X0191939Y0080120D01*
X0191854Y0080056D01*
X0191767Y0079996D01*
X0191678Y0079940D01*
X0191586Y0079886D01*
X0191493Y0079836D01*
X0191398Y0079789D01*
X0191301Y0079746D01*
X0191203Y0079706D01*
X0191103Y0079670D01*
X0191002Y0079638D01*
X0190901Y0079609D01*
X0190798Y0079584D01*
X0190694Y0079563D01*
X0190589Y0079546D01*
X0190484Y0079532D01*
X0190379Y0079523D01*
X0190273Y0079517D01*
X0190167Y0079515D01*
X0190061Y0079517D01*
X0189955Y0079523D01*
X0189850Y0079532D01*
X0189745Y0079546D01*
X0189640Y0079563D01*
X0189536Y0079584D01*
X0189433Y0079609D01*
X0189332Y0079638D01*
X0189231Y0079670D01*
X0189131Y0079706D01*
X0189033Y0079746D01*
X0188936Y0079789D01*
X0188841Y0079836D01*
X0188748Y0079886D01*
X0188656Y0079940D01*
X0188567Y0079996D01*
X0188480Y0080056D01*
X0188395Y0080120D01*
X0188312Y0080186D01*
X0188232Y0080255D01*
X0188154Y0080327D01*
X0188079Y0080402D01*
X0188007Y0080480D01*
X0187938Y0080560D01*
X0187872Y0080643D01*
X0187808Y0080728D01*
X0187748Y0080815D01*
X0187692Y0080904D01*
X0187638Y0080996D01*
X0187588Y0081089D01*
X0187541Y0081184D01*
X0187498Y0081281D01*
X0187458Y0081379D01*
X0187422Y0081479D01*
X0187390Y0081580D01*
X0187361Y0081681D01*
X0187336Y0081784D01*
X0187315Y0081888D01*
X0187298Y0081993D01*
X0187284Y0082098D01*
X0187275Y0082203D01*
X0187269Y0082309D01*
X0187267Y0082415D01*
X0197060Y0079515D02*
X0199959Y0079515D01*
X0200065Y0079517D01*
X0200171Y0079523D01*
X0200276Y0079532D01*
X0200381Y0079546D01*
X0200486Y0079563D01*
X0200590Y0079584D01*
X0200693Y0079609D01*
X0200794Y0079638D01*
X0200895Y0079670D01*
X0200995Y0079706D01*
X0201093Y0079746D01*
X0201190Y0079789D01*
X0201285Y0079836D01*
X0201378Y0079886D01*
X0201470Y0079940D01*
X0201559Y0079996D01*
X0201646Y0080056D01*
X0201731Y0080120D01*
X0201814Y0080186D01*
X0201894Y0080255D01*
X0201972Y0080327D01*
X0202047Y0080402D01*
X0202119Y0080480D01*
X0202188Y0080560D01*
X0202254Y0080643D01*
X0202318Y0080728D01*
X0202378Y0080815D01*
X0202434Y0080904D01*
X0202488Y0080996D01*
X0202538Y0081089D01*
X0202585Y0081184D01*
X0202628Y0081281D01*
X0202668Y0081379D01*
X0202704Y0081479D01*
X0202736Y0081580D01*
X0202765Y0081681D01*
X0202790Y0081784D01*
X0202811Y0081888D01*
X0202828Y0081993D01*
X0202842Y0082098D01*
X0202851Y0082203D01*
X0202857Y0082309D01*
X0202859Y0082415D01*
X0202859Y0089664D01*
X0202857Y0089770D01*
X0202851Y0089876D01*
X0202842Y0089981D01*
X0202828Y0090086D01*
X0202811Y0090191D01*
X0202790Y0090295D01*
X0202765Y0090398D01*
X0202736Y0090499D01*
X0202704Y0090600D01*
X0202668Y0090700D01*
X0202628Y0090798D01*
X0202585Y0090895D01*
X0202538Y0090990D01*
X0202488Y0091083D01*
X0202434Y0091175D01*
X0202378Y0091264D01*
X0202318Y0091351D01*
X0202254Y0091436D01*
X0202188Y0091519D01*
X0202119Y0091599D01*
X0202047Y0091677D01*
X0201972Y0091752D01*
X0201894Y0091824D01*
X0201814Y0091893D01*
X0201731Y0091959D01*
X0201646Y0092023D01*
X0201559Y0092083D01*
X0201470Y0092139D01*
X0201378Y0092193D01*
X0201285Y0092243D01*
X0201190Y0092290D01*
X0201093Y0092333D01*
X0200995Y0092373D01*
X0200895Y0092409D01*
X0200794Y0092441D01*
X0200693Y0092470D01*
X0200590Y0092495D01*
X0200486Y0092516D01*
X0200381Y0092533D01*
X0200276Y0092547D01*
X0200171Y0092556D01*
X0200065Y0092562D01*
X0199959Y0092564D01*
X0199959Y0092563D02*
X0197060Y0092563D01*
X0175788Y0088214D02*
X0175696Y0088212D01*
X0175604Y0088206D01*
X0175512Y0088196D01*
X0175420Y0088183D01*
X0175330Y0088165D01*
X0175240Y0088144D01*
X0175151Y0088119D01*
X0175063Y0088090D01*
X0174977Y0088057D01*
X0174892Y0088021D01*
X0174809Y0087981D01*
X0174727Y0087938D01*
X0174648Y0087891D01*
X0174570Y0087841D01*
X0174495Y0087788D01*
X0174422Y0087731D01*
X0174351Y0087672D01*
X0174283Y0087609D01*
X0174218Y0087544D01*
X0174155Y0087476D01*
X0174096Y0087405D01*
X0174039Y0087332D01*
X0173986Y0087257D01*
X0173936Y0087179D01*
X0173889Y0087100D01*
X0173846Y0087018D01*
X0173806Y0086935D01*
X0173770Y0086850D01*
X0173737Y0086764D01*
X0173708Y0086676D01*
X0173683Y0086587D01*
X0173662Y0086497D01*
X0173644Y0086407D01*
X0173631Y0086315D01*
X0173621Y0086223D01*
X0173615Y0086131D01*
X0173613Y0086039D01*
X0168404Y0065317D02*
X0168404Y0059518D01*
X0168403Y0059518D02*
X0168401Y0059399D01*
X0168395Y0059281D01*
X0168386Y0059163D01*
X0168372Y0059045D01*
X0168355Y0058928D01*
X0168333Y0058811D01*
X0168308Y0058695D01*
X0168280Y0058580D01*
X0168247Y0058466D01*
X0168211Y0058353D01*
X0168171Y0058241D01*
X0168127Y0058131D01*
X0168080Y0058022D01*
X0168029Y0057915D01*
X0167975Y0057810D01*
X0167917Y0057706D01*
X0167857Y0057604D01*
X0167792Y0057505D01*
X0167725Y0057407D01*
X0167654Y0057312D01*
X0167580Y0057219D01*
X0167504Y0057129D01*
X0167424Y0057041D01*
X0167342Y0056955D01*
X0167256Y0056873D01*
X0167168Y0056793D01*
X0167078Y0056717D01*
X0166985Y0056643D01*
X0166890Y0056572D01*
X0166792Y0056505D01*
X0166693Y0056440D01*
X0166591Y0056380D01*
X0166487Y0056322D01*
X0166382Y0056268D01*
X0166275Y0056217D01*
X0166166Y0056170D01*
X0166056Y0056126D01*
X0165944Y0056086D01*
X0165831Y0056050D01*
X0165717Y0056017D01*
X0165602Y0055989D01*
X0165486Y0055964D01*
X0165369Y0055942D01*
X0165252Y0055925D01*
X0165134Y0055911D01*
X0165016Y0055902D01*
X0164898Y0055896D01*
X0164779Y0055894D01*
X0164660Y0055896D01*
X0164542Y0055902D01*
X0164424Y0055911D01*
X0164306Y0055925D01*
X0164189Y0055942D01*
X0164072Y0055964D01*
X0163956Y0055989D01*
X0163841Y0056017D01*
X0163727Y0056050D01*
X0163614Y0056086D01*
X0163502Y0056126D01*
X0163392Y0056170D01*
X0163283Y0056217D01*
X0163176Y0056268D01*
X0163071Y0056322D01*
X0162967Y0056380D01*
X0162865Y0056440D01*
X0162766Y0056505D01*
X0162668Y0056572D01*
X0162573Y0056643D01*
X0162480Y0056717D01*
X0162390Y0056793D01*
X0162302Y0056873D01*
X0162216Y0056955D01*
X0162134Y0057041D01*
X0162054Y0057129D01*
X0161978Y0057219D01*
X0161904Y0057312D01*
X0161833Y0057407D01*
X0161766Y0057505D01*
X0161701Y0057604D01*
X0161641Y0057706D01*
X0161583Y0057810D01*
X0161529Y0057915D01*
X0161478Y0058022D01*
X0161431Y0058131D01*
X0161387Y0058241D01*
X0161347Y0058353D01*
X0161311Y0058466D01*
X0161278Y0058580D01*
X0161250Y0058695D01*
X0161225Y0058811D01*
X0161203Y0058928D01*
X0161186Y0059045D01*
X0161172Y0059163D01*
X0161163Y0059281D01*
X0161157Y0059399D01*
X0161155Y0059518D01*
X0161155Y0065317D01*
X0161157Y0065436D01*
X0161163Y0065554D01*
X0161172Y0065672D01*
X0161186Y0065790D01*
X0161203Y0065907D01*
X0161225Y0066024D01*
X0161250Y0066140D01*
X0161278Y0066255D01*
X0161311Y0066369D01*
X0161347Y0066482D01*
X0161387Y0066594D01*
X0161431Y0066704D01*
X0161478Y0066813D01*
X0161529Y0066920D01*
X0161583Y0067025D01*
X0161641Y0067129D01*
X0161701Y0067231D01*
X0161766Y0067330D01*
X0161833Y0067428D01*
X0161904Y0067523D01*
X0161978Y0067616D01*
X0162054Y0067706D01*
X0162134Y0067794D01*
X0162216Y0067880D01*
X0162302Y0067962D01*
X0162390Y0068042D01*
X0162480Y0068118D01*
X0162573Y0068192D01*
X0162668Y0068263D01*
X0162766Y0068330D01*
X0162865Y0068395D01*
X0162967Y0068455D01*
X0163071Y0068513D01*
X0163176Y0068567D01*
X0163283Y0068618D01*
X0163392Y0068665D01*
X0163502Y0068709D01*
X0163614Y0068749D01*
X0163727Y0068785D01*
X0163841Y0068818D01*
X0163956Y0068846D01*
X0164072Y0068871D01*
X0164189Y0068893D01*
X0164306Y0068910D01*
X0164424Y0068924D01*
X0164542Y0068933D01*
X0164660Y0068939D01*
X0164779Y0068941D01*
X0164898Y0068939D01*
X0165016Y0068933D01*
X0165134Y0068924D01*
X0165252Y0068910D01*
X0165369Y0068893D01*
X0165486Y0068871D01*
X0165602Y0068846D01*
X0165717Y0068818D01*
X0165831Y0068785D01*
X0165944Y0068749D01*
X0166056Y0068709D01*
X0166166Y0068665D01*
X0166275Y0068618D01*
X0166382Y0068567D01*
X0166487Y0068513D01*
X0166591Y0068455D01*
X0166693Y0068395D01*
X0166792Y0068330D01*
X0166890Y0068263D01*
X0166985Y0068192D01*
X0167078Y0068118D01*
X0167168Y0068042D01*
X0167256Y0067962D01*
X0167342Y0067880D01*
X0167424Y0067794D01*
X0167504Y0067706D01*
X0167580Y0067616D01*
X0167654Y0067523D01*
X0167725Y0067428D01*
X0167792Y0067330D01*
X0167857Y0067231D01*
X0167917Y0067129D01*
X0167975Y0067025D01*
X0168029Y0066920D01*
X0168080Y0066813D01*
X0168127Y0066704D01*
X0168171Y0066594D01*
X0168211Y0066482D01*
X0168247Y0066369D01*
X0168280Y0066255D01*
X0168308Y0066140D01*
X0168333Y0066024D01*
X0168355Y0065907D01*
X0168372Y0065790D01*
X0168386Y0065672D01*
X0168395Y0065554D01*
X0168401Y0065436D01*
X0168403Y0065317D01*
X0156199Y0063142D02*
X0148950Y0063142D01*
X0148950Y0068941D02*
X0148950Y0055893D01*
X0143580Y0055893D02*
X0137781Y0055893D01*
X0143580Y0055893D02*
X0143580Y0068941D01*
X0140748Y0079515D02*
X0140023Y0079515D01*
X0140748Y0079515D02*
X0140840Y0079517D01*
X0140932Y0079523D01*
X0141024Y0079533D01*
X0141116Y0079546D01*
X0141206Y0079564D01*
X0141296Y0079585D01*
X0141385Y0079610D01*
X0141473Y0079639D01*
X0141559Y0079672D01*
X0141644Y0079708D01*
X0141727Y0079748D01*
X0141809Y0079791D01*
X0141888Y0079838D01*
X0141966Y0079888D01*
X0142041Y0079941D01*
X0142114Y0079998D01*
X0142185Y0080057D01*
X0142253Y0080120D01*
X0142318Y0080185D01*
X0142381Y0080253D01*
X0142440Y0080324D01*
X0142497Y0080397D01*
X0142550Y0080472D01*
X0142600Y0080550D01*
X0142647Y0080629D01*
X0142690Y0080711D01*
X0142730Y0080794D01*
X0142766Y0080879D01*
X0142799Y0080965D01*
X0142828Y0081053D01*
X0142853Y0081142D01*
X0142874Y0081232D01*
X0142892Y0081322D01*
X0142905Y0081414D01*
X0142915Y0081506D01*
X0142921Y0081598D01*
X0142923Y0081690D01*
X0142923Y0092563D01*
X0156199Y0068941D02*
X0156199Y0055893D01*
X0127915Y0064592D02*
X0125016Y0055893D01*
X0122116Y0064592D01*
X0118010Y0066042D02*
X0114386Y0068941D01*
X0114386Y0055893D01*
X0118010Y0055893D02*
X0110761Y0055893D01*
X0106481Y0055893D02*
X0105756Y0055893D01*
X0105756Y0056618D01*
X0106481Y0056618D01*
X0106481Y0055893D01*
X0101475Y0055893D02*
X0094226Y0055893D01*
X0101475Y0055893D02*
X0095313Y0063142D01*
X0097488Y0068942D02*
X0097617Y0068940D01*
X0097745Y0068934D01*
X0097873Y0068924D01*
X0098001Y0068910D01*
X0098128Y0068893D01*
X0098255Y0068871D01*
X0098381Y0068846D01*
X0098506Y0068816D01*
X0098630Y0068783D01*
X0098753Y0068746D01*
X0098875Y0068706D01*
X0098996Y0068661D01*
X0099115Y0068613D01*
X0099233Y0068561D01*
X0099349Y0068506D01*
X0099463Y0068447D01*
X0099576Y0068385D01*
X0099686Y0068319D01*
X0099795Y0068250D01*
X0099901Y0068178D01*
X0100005Y0068102D01*
X0100106Y0068023D01*
X0100205Y0067942D01*
X0100302Y0067857D01*
X0100396Y0067769D01*
X0100487Y0067678D01*
X0100575Y0067585D01*
X0100661Y0067489D01*
X0100743Y0067390D01*
X0100823Y0067289D01*
X0100899Y0067186D01*
X0100972Y0067080D01*
X0101042Y0066972D01*
X0101108Y0066862D01*
X0101171Y0066750D01*
X0101231Y0066636D01*
X0101287Y0066521D01*
X0101340Y0066403D01*
X0101388Y0066284D01*
X0101434Y0066164D01*
X0101475Y0066042D01*
X0095313Y0063142D02*
X0095229Y0063225D01*
X0095148Y0063310D01*
X0095069Y0063399D01*
X0094994Y0063490D01*
X0094922Y0063583D01*
X0094853Y0063679D01*
X0094787Y0063778D01*
X0094724Y0063878D01*
X0094665Y0063980D01*
X0094610Y0064085D01*
X0094558Y0064191D01*
X0094509Y0064299D01*
X0094465Y0064408D01*
X0094424Y0064519D01*
X0094386Y0064631D01*
X0094353Y0064745D01*
X0094323Y0064859D01*
X0094298Y0064974D01*
X0094276Y0065091D01*
X0094258Y0065208D01*
X0094244Y0065325D01*
X0094234Y0065443D01*
X0094228Y0065561D01*
X0094226Y0065679D01*
X0094228Y0065790D01*
X0094234Y0065902D01*
X0094243Y0066013D01*
X0094256Y0066123D01*
X0094273Y0066233D01*
X0094294Y0066343D01*
X0094319Y0066451D01*
X0094347Y0066559D01*
X0094379Y0066666D01*
X0094414Y0066771D01*
X0094453Y0066876D01*
X0094496Y0066979D01*
X0094542Y0067080D01*
X0094592Y0067180D01*
X0094645Y0067278D01*
X0094701Y0067374D01*
X0094760Y0067468D01*
X0094823Y0067560D01*
X0094889Y0067650D01*
X0094958Y0067738D01*
X0095029Y0067823D01*
X0095104Y0067905D01*
X0095181Y0067986D01*
X0095262Y0068063D01*
X0095344Y0068138D01*
X0095429Y0068209D01*
X0095517Y0068278D01*
X0095607Y0068344D01*
X0095699Y0068407D01*
X0095793Y0068466D01*
X0095889Y0068522D01*
X0095987Y0068575D01*
X0096087Y0068625D01*
X0096188Y0068671D01*
X0096291Y0068714D01*
X0096396Y0068753D01*
X0096501Y0068788D01*
X0096608Y0068820D01*
X0096716Y0068848D01*
X0096824Y0068873D01*
X0096934Y0068894D01*
X0097044Y0068911D01*
X0097154Y0068924D01*
X0097265Y0068933D01*
X0097377Y0068939D01*
X0097488Y0068941D01*
D12*
X0089424Y0208195D03*
X0089324Y0225595D03*
X0077224Y0214195D03*
X0066224Y0228995D03*
X0064524Y0230495D03*
X0064524Y0230595D03*
X0064524Y0230695D03*
X0110024Y0231395D03*
X0149192Y0231495D03*
X0169892Y0225695D03*
X0169792Y0208295D03*
X0181992Y0214295D03*
X0192992Y0229095D03*
X0194692Y0230595D03*
X0194692Y0230695D03*
X0194692Y0230795D03*
D13*
X0194642Y0230495D03*
X0194642Y0230395D03*
X0194642Y0230295D03*
X0194642Y0230195D03*
X0194642Y0230095D03*
X0169942Y0225595D03*
X0169842Y0208395D03*
X0150942Y0229495D03*
X0149142Y0231195D03*
X0149142Y0231295D03*
X0149142Y0231395D03*
X0110074Y0231295D03*
X0110074Y0231195D03*
X0110074Y0231095D03*
X0108274Y0229395D03*
X0089274Y0225495D03*
X0089374Y0208295D03*
X0064574Y0229995D03*
X0064574Y0230095D03*
X0064574Y0230195D03*
X0064574Y0230295D03*
X0064574Y0230395D03*
D14*
X0064624Y0229895D03*
X0064624Y0229795D03*
X0064624Y0229695D03*
X0064624Y0229595D03*
X0064624Y0229495D03*
X0066224Y0229095D03*
X0077124Y0214295D03*
X0089324Y0208395D03*
X0089224Y0225395D03*
X0110124Y0230895D03*
X0110124Y0230995D03*
X0149092Y0230995D03*
X0149092Y0231095D03*
X0169992Y0225495D03*
X0169892Y0208495D03*
X0182092Y0214395D03*
X0192992Y0229195D03*
X0194592Y0229595D03*
X0194592Y0229695D03*
X0194592Y0229795D03*
X0194592Y0229895D03*
X0194592Y0229995D03*
D15*
X0194542Y0229495D03*
X0194542Y0229395D03*
X0194542Y0229295D03*
X0192942Y0229295D03*
X0170042Y0225395D03*
X0169942Y0208595D03*
X0150942Y0229595D03*
X0149142Y0230495D03*
X0149142Y0230595D03*
X0149142Y0230695D03*
X0149142Y0230795D03*
X0149142Y0230895D03*
X0110074Y0230795D03*
X0110074Y0230695D03*
X0110074Y0230595D03*
X0110074Y0230495D03*
X0110074Y0230395D03*
X0108274Y0229495D03*
X0089174Y0225295D03*
X0089274Y0208495D03*
X0066274Y0229195D03*
X0064674Y0229195D03*
X0064674Y0229295D03*
X0064674Y0229395D03*
D16*
X0064724Y0229095D03*
X0064724Y0228995D03*
X0089124Y0225195D03*
X0089224Y0208595D03*
X0108224Y0229595D03*
X0110024Y0229995D03*
X0110024Y0230095D03*
X0110024Y0230195D03*
X0110024Y0230295D03*
X0149192Y0230295D03*
X0149192Y0230195D03*
X0149192Y0230095D03*
X0149192Y0230395D03*
X0150992Y0229695D03*
X0170092Y0225295D03*
X0169992Y0208695D03*
X0194492Y0229095D03*
X0194492Y0229195D03*
D17*
X0194442Y0228995D03*
X0192942Y0229395D03*
X0182242Y0214495D03*
X0170042Y0208795D03*
X0170142Y0225195D03*
X0149242Y0229695D03*
X0149242Y0229795D03*
X0149242Y0229895D03*
X0149242Y0229995D03*
X0109974Y0229895D03*
X0109974Y0229795D03*
X0109974Y0229695D03*
X0109974Y0229595D03*
X0089074Y0225095D03*
X0089174Y0208695D03*
X0076974Y0214395D03*
X0066274Y0229295D03*
X0064774Y0228895D03*
D18*
X0064824Y0228795D03*
X0064824Y0228695D03*
X0066324Y0229395D03*
X0087124Y0242795D03*
X0089024Y0224995D03*
X0089124Y0208795D03*
X0108224Y0229695D03*
X0109924Y0229495D03*
X0109924Y0229395D03*
X0149292Y0229495D03*
X0149292Y0229595D03*
X0150992Y0229795D03*
X0170192Y0225095D03*
X0170092Y0208895D03*
X0172092Y0242895D03*
X0192892Y0229495D03*
X0194392Y0228895D03*
X0194392Y0228795D03*
D19*
X0194342Y0228695D03*
X0170242Y0224995D03*
X0170142Y0208995D03*
X0149342Y0229295D03*
X0149342Y0229395D03*
X0109874Y0229295D03*
X0109874Y0229195D03*
X0088974Y0224895D03*
X0089074Y0208895D03*
X0064874Y0228595D03*
D20*
X0064924Y0228495D03*
X0064924Y0228395D03*
X0066324Y0229495D03*
X0076824Y0214495D03*
X0089024Y0208995D03*
X0088924Y0224695D03*
X0088924Y0224795D03*
X0108224Y0229795D03*
X0109824Y0229095D03*
X0149392Y0229195D03*
X0150992Y0229895D03*
X0170292Y0224895D03*
X0170292Y0224795D03*
X0170192Y0209095D03*
X0182392Y0214595D03*
X0194292Y0228495D03*
X0194292Y0228595D03*
X0192892Y0229595D03*
D21*
X0194242Y0228395D03*
X0170342Y0224695D03*
X0170242Y0209195D03*
X0151042Y0229995D03*
X0149442Y0229095D03*
X0149442Y0228995D03*
X0109774Y0228995D03*
X0109774Y0228895D03*
X0108174Y0229895D03*
X0088874Y0224595D03*
X0088974Y0209095D03*
X0064974Y0228295D03*
D22*
X0065024Y0228195D03*
X0065024Y0228095D03*
X0066324Y0229595D03*
X0076724Y0214595D03*
X0088924Y0209195D03*
X0088824Y0224495D03*
X0109724Y0228795D03*
X0149492Y0228895D03*
X0170392Y0224595D03*
X0170292Y0209295D03*
X0182492Y0214695D03*
X0194192Y0228195D03*
X0194192Y0228295D03*
X0192892Y0229695D03*
D23*
X0192842Y0229795D03*
X0194142Y0228095D03*
X0170442Y0224495D03*
X0170342Y0209495D03*
X0170342Y0209395D03*
X0151142Y0230095D03*
X0149542Y0228795D03*
X0109674Y0228695D03*
X0108074Y0229995D03*
X0088774Y0224395D03*
X0088874Y0209395D03*
X0088874Y0209295D03*
X0065074Y0227995D03*
X0066374Y0229695D03*
D24*
X0065124Y0227895D03*
X0088724Y0224295D03*
X0088824Y0209495D03*
X0109624Y0228595D03*
X0149592Y0228695D03*
X0170492Y0224395D03*
X0170392Y0209595D03*
X0194092Y0227995D03*
D25*
X0194042Y0227895D03*
X0192842Y0229895D03*
X0182642Y0214795D03*
X0170442Y0209695D03*
X0170542Y0224295D03*
X0151142Y0230195D03*
X0149642Y0228595D03*
X0109574Y0228495D03*
X0108074Y0230095D03*
X0088674Y0224195D03*
X0088774Y0209595D03*
X0076574Y0214695D03*
X0065174Y0227795D03*
X0066374Y0229795D03*
D26*
X0066424Y0229895D03*
X0065224Y0227695D03*
X0088624Y0224095D03*
X0088724Y0209695D03*
X0108024Y0230195D03*
X0109524Y0228395D03*
X0109524Y0228295D03*
X0149692Y0228395D03*
X0149692Y0228495D03*
X0151192Y0230295D03*
X0170592Y0224195D03*
X0170492Y0209795D03*
X0193992Y0227795D03*
X0192792Y0229995D03*
D27*
X0193942Y0227695D03*
X0170642Y0224095D03*
X0170542Y0209895D03*
X0149742Y0228295D03*
X0151242Y0230395D03*
X0109474Y0228195D03*
X0107974Y0230295D03*
X0088574Y0223995D03*
X0088674Y0209795D03*
X0065274Y0227595D03*
D28*
X0065324Y0227495D03*
X0066424Y0229995D03*
X0076424Y0214795D03*
X0088624Y0209895D03*
X0088524Y0223895D03*
X0107924Y0230395D03*
X0109424Y0228095D03*
X0149792Y0228195D03*
X0151292Y0230495D03*
X0170592Y0209995D03*
X0170692Y0223995D03*
X0182792Y0214895D03*
X0193892Y0227595D03*
X0192792Y0230095D03*
D29*
X0193842Y0227495D03*
X0170742Y0223895D03*
X0170642Y0210095D03*
X0149842Y0228095D03*
X0109374Y0227995D03*
X0088474Y0223795D03*
X0088574Y0209995D03*
X0065374Y0227395D03*
D30*
X0065424Y0227295D03*
X0066524Y0230095D03*
X0076324Y0214895D03*
X0088524Y0210095D03*
X0088424Y0223695D03*
X0109324Y0227895D03*
X0149892Y0227995D03*
X0170792Y0223795D03*
X0170692Y0210195D03*
X0182892Y0214995D03*
X0193792Y0227395D03*
X0192692Y0230195D03*
D31*
X0193742Y0227295D03*
X0170842Y0223695D03*
X0170742Y0210295D03*
X0149942Y0227895D03*
X0151342Y0230595D03*
X0109274Y0227795D03*
X0107874Y0230495D03*
X0088374Y0223595D03*
X0088474Y0210195D03*
X0065474Y0227195D03*
D32*
X0065524Y0227095D03*
X0066524Y0230195D03*
X0076224Y0214995D03*
X0088424Y0210295D03*
X0088324Y0223495D03*
X0107824Y0230595D03*
X0109224Y0227695D03*
X0149992Y0227795D03*
X0151392Y0230695D03*
X0170892Y0223595D03*
X0170792Y0210395D03*
X0182992Y0215095D03*
X0193692Y0227195D03*
X0192692Y0230295D03*
D33*
X0192642Y0230395D03*
X0193642Y0227095D03*
X0170942Y0223495D03*
X0170842Y0210495D03*
X0150042Y0227695D03*
X0151442Y0230795D03*
X0109174Y0227595D03*
X0107774Y0230695D03*
X0088274Y0223395D03*
X0088374Y0210395D03*
X0065574Y0226995D03*
X0066574Y0230295D03*
D34*
X0066624Y0230395D03*
X0065624Y0226895D03*
X0088224Y0223295D03*
X0088324Y0210495D03*
X0109124Y0227495D03*
X0150092Y0227595D03*
X0170992Y0223395D03*
X0170892Y0210595D03*
X0193592Y0226995D03*
X0192592Y0230495D03*
D35*
X0193542Y0226895D03*
X0183142Y0215195D03*
X0170942Y0210695D03*
X0171042Y0223295D03*
X0151542Y0230895D03*
X0150142Y0227495D03*
X0109074Y0227395D03*
X0107674Y0230795D03*
X0088174Y0223195D03*
X0088274Y0210595D03*
X0076074Y0215095D03*
X0065674Y0226795D03*
D36*
X0065724Y0226695D03*
X0088124Y0223095D03*
X0088224Y0210695D03*
X0109024Y0227295D03*
X0150192Y0227395D03*
X0171092Y0223195D03*
X0170992Y0210795D03*
X0193492Y0226795D03*
D37*
X0193442Y0226695D03*
X0192542Y0230595D03*
X0183242Y0215295D03*
X0171042Y0210995D03*
X0171042Y0210895D03*
X0171142Y0223095D03*
X0151542Y0230995D03*
X0150242Y0227295D03*
X0108974Y0227195D03*
X0107674Y0230895D03*
X0088074Y0222995D03*
X0088174Y0210895D03*
X0088174Y0210795D03*
X0075974Y0215195D03*
X0065774Y0226595D03*
X0066674Y0230495D03*
D38*
X0066724Y0230595D03*
X0065824Y0226495D03*
X0088024Y0222895D03*
X0088124Y0210995D03*
X0108924Y0227095D03*
X0150292Y0227195D03*
X0171192Y0222995D03*
X0171092Y0211095D03*
X0193392Y0226595D03*
X0192492Y0230695D03*
D39*
X0192442Y0230795D03*
X0193342Y0226495D03*
X0171242Y0222895D03*
X0171142Y0211195D03*
X0150342Y0227095D03*
X0151642Y0231095D03*
X0108874Y0226995D03*
X0107574Y0230995D03*
X0087974Y0222795D03*
X0088074Y0211095D03*
X0066774Y0230695D03*
X0065874Y0226395D03*
D40*
X0065924Y0226295D03*
X0075824Y0215295D03*
X0087924Y0222695D03*
X0088024Y0211195D03*
X0108824Y0226895D03*
X0107524Y0231095D03*
X0150392Y0226995D03*
X0151692Y0231195D03*
X0171292Y0222795D03*
X0171192Y0211295D03*
X0183392Y0215395D03*
X0193292Y0226395D03*
D41*
X0192342Y0230895D03*
X0171342Y0222695D03*
X0171242Y0211395D03*
X0150442Y0226895D03*
X0151742Y0231295D03*
X0108774Y0226795D03*
X0107474Y0231195D03*
X0087974Y0211295D03*
X0087874Y0222595D03*
X0066874Y0230795D03*
D42*
X0066924Y0230895D03*
X0066024Y0226195D03*
X0075724Y0215395D03*
X0087924Y0211395D03*
X0087824Y0222495D03*
X0108724Y0226695D03*
X0150492Y0226795D03*
X0171392Y0222595D03*
X0171292Y0211495D03*
X0183492Y0215495D03*
X0193192Y0226295D03*
X0192292Y0230995D03*
D43*
X0193142Y0226195D03*
X0171442Y0222495D03*
X0171342Y0211595D03*
X0150542Y0226695D03*
X0151842Y0231395D03*
X0108674Y0226595D03*
X0107374Y0231295D03*
X0087774Y0222395D03*
X0087874Y0211495D03*
X0066074Y0226095D03*
D44*
X0066124Y0225995D03*
X0066924Y0230995D03*
X0075624Y0215495D03*
X0087824Y0211595D03*
X0087724Y0222295D03*
X0108624Y0226495D03*
X0150592Y0226595D03*
X0171492Y0222395D03*
X0171392Y0211695D03*
X0183592Y0215595D03*
X0193092Y0226095D03*
X0192292Y0231095D03*
D45*
X0171542Y0222295D03*
X0171442Y0211795D03*
X0151942Y0231495D03*
X0107274Y0231395D03*
X0087674Y0222195D03*
X0087774Y0211695D03*
D46*
X0087724Y0211795D03*
X0087624Y0222095D03*
X0067024Y0231095D03*
X0066224Y0225895D03*
X0108524Y0226395D03*
X0150692Y0226495D03*
X0171592Y0222195D03*
X0171492Y0211895D03*
X0192992Y0225995D03*
X0192192Y0231195D03*
D47*
X0192142Y0231295D03*
X0192942Y0225895D03*
X0183742Y0215695D03*
X0171542Y0211995D03*
X0171642Y0222095D03*
X0150742Y0226395D03*
X0151942Y0231595D03*
X0108474Y0226295D03*
X0107274Y0231495D03*
X0087574Y0221995D03*
X0087674Y0211895D03*
X0075474Y0215595D03*
X0066274Y0225795D03*
X0067074Y0231195D03*
D48*
X0066324Y0225695D03*
X0087524Y0221895D03*
X0087624Y0211995D03*
X0108424Y0226195D03*
X0150792Y0226295D03*
X0171692Y0221995D03*
X0171592Y0212095D03*
X0192892Y0225795D03*
D49*
X0192042Y0231395D03*
X0183842Y0215795D03*
X0171642Y0212195D03*
X0171742Y0221895D03*
X0152042Y0231695D03*
X0107174Y0231595D03*
X0087474Y0221795D03*
X0087574Y0212095D03*
X0075374Y0215695D03*
X0067174Y0231295D03*
D50*
X0067224Y0231395D03*
X0066424Y0225595D03*
X0087424Y0221695D03*
X0087524Y0212295D03*
X0087524Y0212195D03*
X0108324Y0226095D03*
X0150892Y0226195D03*
X0171792Y0221795D03*
X0171692Y0212395D03*
X0171692Y0212295D03*
X0192792Y0225695D03*
X0191992Y0231495D03*
D51*
X0183942Y0215895D03*
X0171742Y0212495D03*
X0171842Y0221695D03*
X0152142Y0231795D03*
X0150942Y0226095D03*
X0108274Y0225995D03*
X0107074Y0231695D03*
X0087374Y0221595D03*
X0087474Y0212395D03*
X0075274Y0215795D03*
D52*
X0087424Y0212495D03*
X0087324Y0221495D03*
X0067324Y0231495D03*
X0066524Y0225495D03*
X0107024Y0231795D03*
X0108224Y0225895D03*
X0150992Y0225995D03*
X0152192Y0231895D03*
X0171892Y0221595D03*
X0171792Y0212595D03*
X0191892Y0231595D03*
X0192692Y0225595D03*
D53*
X0192642Y0225495D03*
X0184042Y0215995D03*
X0171842Y0212695D03*
X0171942Y0221495D03*
X0087274Y0221395D03*
X0087374Y0212595D03*
X0075174Y0215895D03*
X0066574Y0225395D03*
D54*
X0066724Y0225295D03*
X0067424Y0231595D03*
X0087224Y0221295D03*
X0087324Y0212695D03*
X0108124Y0225795D03*
X0106924Y0231895D03*
X0151092Y0225895D03*
X0152292Y0231995D03*
X0171992Y0221395D03*
X0171892Y0212795D03*
X0191792Y0231695D03*
X0192492Y0225395D03*
D55*
X0191742Y0231795D03*
X0184142Y0216095D03*
X0171942Y0212895D03*
X0172042Y0221295D03*
X0151142Y0225795D03*
X0108074Y0225695D03*
X0087174Y0221195D03*
X0087274Y0212795D03*
X0075074Y0215995D03*
X0067474Y0231695D03*
D56*
X0066824Y0225195D03*
X0087124Y0221095D03*
X0087224Y0212895D03*
X0106824Y0231995D03*
X0152392Y0232095D03*
X0172092Y0221195D03*
X0171992Y0212995D03*
X0192392Y0225295D03*
D57*
X0192342Y0225195D03*
X0191642Y0231895D03*
X0184242Y0216195D03*
X0172042Y0213095D03*
X0172142Y0221095D03*
X0151242Y0225695D03*
X0107974Y0225595D03*
X0087074Y0220995D03*
X0087174Y0212995D03*
X0074974Y0216095D03*
X0066874Y0225095D03*
X0067574Y0231795D03*
D58*
X0087024Y0220895D03*
X0087124Y0213095D03*
X0107924Y0225495D03*
X0106724Y0232095D03*
X0151292Y0225595D03*
X0152492Y0232195D03*
X0172192Y0220995D03*
X0172092Y0213195D03*
D59*
X0172142Y0213295D03*
X0191542Y0231995D03*
X0192242Y0225095D03*
X0152542Y0232295D03*
X0106674Y0232195D03*
X0087074Y0213195D03*
X0066974Y0224995D03*
X0067674Y0231895D03*
D60*
X0068074Y0232295D03*
X0087274Y0220795D03*
X0087274Y0213295D03*
X0106374Y0232495D03*
X0107574Y0225095D03*
X0151642Y0225195D03*
X0152842Y0232595D03*
X0171942Y0220895D03*
X0171942Y0213395D03*
X0191142Y0232395D03*
D61*
X0190692Y0232895D03*
X0171592Y0213495D03*
X0153292Y0232995D03*
X0105924Y0232895D03*
X0087624Y0213395D03*
X0068524Y0232795D03*
D62*
X0069024Y0233195D03*
X0073724Y0217395D03*
X0087924Y0213495D03*
X0106724Y0224095D03*
X0152492Y0224195D03*
X0171292Y0213595D03*
X0185492Y0217495D03*
X0190192Y0233295D03*
D63*
X0170992Y0213695D03*
X0153092Y0223695D03*
X0154192Y0233695D03*
X0106124Y0223595D03*
X0105024Y0233595D03*
X0088224Y0213595D03*
D64*
X0088474Y0213695D03*
X0072974Y0218295D03*
X0105474Y0223095D03*
X0104574Y0233895D03*
X0153742Y0223195D03*
X0154642Y0233995D03*
X0170742Y0213795D03*
X0186242Y0218395D03*
D65*
X0188892Y0234195D03*
X0170392Y0213895D03*
X0154992Y0234195D03*
X0154292Y0222795D03*
X0104924Y0222695D03*
X0104224Y0234095D03*
X0088824Y0213795D03*
X0070324Y0234095D03*
D66*
X0070624Y0234295D03*
X0089024Y0213895D03*
X0104424Y0222395D03*
X0154792Y0222495D03*
X0170192Y0213995D03*
X0188592Y0234395D03*
D67*
X0188192Y0234595D03*
X0188592Y0222395D03*
X0187192Y0219995D03*
X0169992Y0214095D03*
X0155292Y0222195D03*
X0155792Y0234595D03*
X0103424Y0234495D03*
X0103924Y0222095D03*
X0089224Y0213995D03*
X0072024Y0219895D03*
X0070624Y0222295D03*
X0071024Y0234495D03*
D68*
X0071674Y0220895D03*
X0071674Y0220795D03*
X0089474Y0214095D03*
X0102974Y0234695D03*
X0156242Y0234795D03*
X0169742Y0214195D03*
X0187542Y0220895D03*
X0187542Y0220995D03*
D69*
X0187792Y0221895D03*
X0187792Y0221995D03*
X0169592Y0214295D03*
X0089624Y0214195D03*
X0071424Y0221795D03*
X0071424Y0221895D03*
D70*
X0089824Y0214295D03*
X0169392Y0214395D03*
D71*
X0169242Y0214495D03*
X0089974Y0214395D03*
D72*
X0090124Y0214495D03*
X0169092Y0214595D03*
D73*
X0168992Y0214695D03*
X0090224Y0214595D03*
D74*
X0090374Y0214695D03*
X0168842Y0214795D03*
D75*
X0168742Y0214895D03*
X0158242Y0221095D03*
X0100974Y0220995D03*
X0090474Y0214795D03*
D76*
X0090624Y0214895D03*
X0168592Y0214995D03*
D77*
X0168492Y0215095D03*
X0158692Y0220995D03*
X0100524Y0220895D03*
X0090724Y0214995D03*
D78*
X0090824Y0215095D03*
X0168392Y0215195D03*
D79*
X0168292Y0215295D03*
X0159292Y0235695D03*
X0099924Y0235595D03*
X0090924Y0215195D03*
D80*
X0091074Y0215295D03*
X0074974Y0235695D03*
X0168142Y0215395D03*
X0184242Y0235795D03*
D81*
X0168092Y0215495D03*
X0091124Y0215395D03*
D82*
X0091224Y0215495D03*
X0167992Y0215595D03*
D83*
X0167892Y0215695D03*
X0091324Y0215595D03*
D84*
X0091374Y0215695D03*
X0167842Y0215795D03*
D85*
X0167742Y0215895D03*
X0091474Y0215795D03*
D86*
X0091524Y0215895D03*
X0167692Y0215995D03*
D87*
X0167592Y0216095D03*
X0091624Y0215995D03*
D88*
X0091674Y0216095D03*
X0167542Y0216195D03*
D89*
X0167492Y0216295D03*
X0091724Y0216195D03*
D90*
X0074824Y0216195D03*
X0067724Y0231995D03*
X0107824Y0225395D03*
X0151392Y0225495D03*
X0184392Y0216295D03*
X0191492Y0232095D03*
D91*
X0172142Y0241695D03*
X0167442Y0216395D03*
X0091774Y0216295D03*
X0087074Y0241595D03*
D92*
X0074724Y0216295D03*
X0067824Y0232095D03*
X0184492Y0216395D03*
X0191392Y0232195D03*
D93*
X0167392Y0216495D03*
X0091824Y0216395D03*
D94*
X0074624Y0216395D03*
X0067324Y0224695D03*
X0067924Y0232195D03*
X0184592Y0216495D03*
X0191892Y0224795D03*
X0191292Y0232295D03*
D95*
X0167292Y0216595D03*
X0091924Y0216495D03*
D96*
X0107524Y0224995D03*
X0074524Y0216495D03*
X0067424Y0224595D03*
X0151692Y0225095D03*
X0184692Y0216595D03*
X0191792Y0224695D03*
D97*
X0167242Y0216695D03*
X0091974Y0216595D03*
D98*
X0107424Y0224895D03*
X0074424Y0216595D03*
X0067524Y0224495D03*
X0151792Y0224995D03*
X0184792Y0216695D03*
X0191692Y0224595D03*
D99*
X0167142Y0216795D03*
X0092074Y0216695D03*
D100*
X0107324Y0224795D03*
X0074324Y0216695D03*
X0067624Y0224395D03*
X0068324Y0232595D03*
X0151892Y0224895D03*
X0184892Y0216795D03*
X0191592Y0224495D03*
X0190892Y0232695D03*
D101*
X0172142Y0241495D03*
X0167142Y0216895D03*
X0092074Y0216795D03*
X0087074Y0241395D03*
D102*
X0074224Y0216795D03*
X0067724Y0224295D03*
X0068424Y0232695D03*
X0106024Y0232795D03*
X0153192Y0232895D03*
X0184992Y0216895D03*
X0191492Y0224395D03*
X0190792Y0232795D03*
D103*
X0167092Y0216995D03*
X0092124Y0216895D03*
D104*
X0107174Y0224595D03*
X0074174Y0216895D03*
X0067874Y0224195D03*
X0152042Y0224695D03*
X0185042Y0216995D03*
X0191342Y0224295D03*
D105*
X0167042Y0217095D03*
X0092174Y0216995D03*
D106*
X0107074Y0224495D03*
X0074074Y0216995D03*
X0067974Y0224095D03*
X0152142Y0224595D03*
X0185142Y0217095D03*
X0191242Y0224195D03*
D107*
X0166992Y0217195D03*
X0092224Y0217095D03*
D108*
X0073974Y0217095D03*
X0068074Y0223995D03*
X0185242Y0217195D03*
X0191142Y0224095D03*
D109*
X0166892Y0217295D03*
X0092324Y0217195D03*
D110*
X0073874Y0217195D03*
X0068174Y0223895D03*
X0068774Y0232995D03*
X0185342Y0217295D03*
X0191042Y0223995D03*
X0190442Y0233095D03*
D111*
X0166742Y0217395D03*
X0166642Y0217495D03*
X0092574Y0217395D03*
X0092474Y0217295D03*
D112*
X0105574Y0233195D03*
X0073774Y0217295D03*
X0068374Y0223795D03*
X0068874Y0233095D03*
X0153642Y0233295D03*
X0185442Y0217395D03*
X0190842Y0223895D03*
X0190342Y0233195D03*
D113*
X0166492Y0217595D03*
X0092724Y0217495D03*
D114*
X0106624Y0223995D03*
X0073624Y0217495D03*
X0069124Y0233295D03*
X0152592Y0224095D03*
X0185592Y0217595D03*
X0190092Y0233395D03*
D115*
X0172142Y0241295D03*
X0166242Y0217795D03*
X0166342Y0217695D03*
X0092974Y0217695D03*
X0092874Y0217595D03*
X0087074Y0241195D03*
D116*
X0073524Y0217595D03*
X0105324Y0233395D03*
X0153892Y0233495D03*
X0185692Y0217695D03*
D117*
X0185742Y0217795D03*
X0190442Y0223595D03*
X0189942Y0233495D03*
X0154042Y0233595D03*
X0152842Y0223895D03*
X0106374Y0223795D03*
X0105174Y0233495D03*
X0073474Y0217695D03*
X0068774Y0223495D03*
X0069274Y0233395D03*
D118*
X0093124Y0217795D03*
X0093224Y0217895D03*
X0165992Y0217995D03*
X0166092Y0217895D03*
D119*
X0185842Y0217895D03*
X0190342Y0223495D03*
X0189842Y0233595D03*
X0073374Y0217795D03*
X0068874Y0223395D03*
X0069374Y0233495D03*
D120*
X0073274Y0217895D03*
X0105974Y0223495D03*
X0153242Y0223595D03*
X0185942Y0217995D03*
D121*
X0165842Y0218095D03*
X0165742Y0218195D03*
X0093474Y0218095D03*
X0093374Y0217995D03*
D122*
X0073224Y0217995D03*
X0069024Y0223295D03*
X0069524Y0233595D03*
X0185992Y0218095D03*
X0190192Y0223395D03*
X0189692Y0233695D03*
D123*
X0189592Y0233795D03*
X0186092Y0218195D03*
X0153492Y0223395D03*
X0105724Y0223295D03*
X0073124Y0218095D03*
X0069624Y0233695D03*
D124*
X0093624Y0218195D03*
X0093724Y0218295D03*
X0165492Y0218395D03*
X0165592Y0218295D03*
D125*
X0154442Y0233895D03*
X0172142Y0242695D03*
X0186142Y0218295D03*
X0104774Y0233795D03*
X0087074Y0242595D03*
X0073074Y0218195D03*
D126*
X0093874Y0218395D03*
X0093974Y0218495D03*
X0094074Y0218595D03*
X0165142Y0218695D03*
X0165242Y0218595D03*
X0165342Y0218495D03*
D127*
X0186292Y0218495D03*
X0072924Y0218395D03*
D128*
X0072874Y0218495D03*
X0069474Y0222995D03*
X0069974Y0233895D03*
X0105374Y0222995D03*
X0153842Y0223095D03*
X0186342Y0218595D03*
X0189742Y0223095D03*
X0189242Y0233995D03*
D129*
X0186442Y0218695D03*
X0154042Y0222995D03*
X0105174Y0222895D03*
X0072774Y0218595D03*
D130*
X0094224Y0218695D03*
X0094324Y0218795D03*
X0094424Y0218895D03*
X0094524Y0218995D03*
X0164692Y0219095D03*
X0164792Y0218995D03*
X0164892Y0218895D03*
X0164992Y0218795D03*
D131*
X0154192Y0222895D03*
X0186492Y0218795D03*
X0189092Y0234095D03*
X0105024Y0222795D03*
X0072724Y0218695D03*
X0070124Y0233995D03*
D132*
X0069774Y0222795D03*
X0072674Y0218795D03*
X0186542Y0218895D03*
X0189442Y0222895D03*
D133*
X0186642Y0218995D03*
X0072574Y0218895D03*
D134*
X0072524Y0218995D03*
X0069924Y0222695D03*
X0104724Y0222595D03*
X0104024Y0234195D03*
X0154492Y0222695D03*
X0155192Y0234295D03*
X0186692Y0219095D03*
X0189292Y0222795D03*
D135*
X0164542Y0219195D03*
X0164442Y0219295D03*
X0164342Y0219395D03*
X0164242Y0219495D03*
X0094974Y0219395D03*
X0094874Y0219295D03*
X0094774Y0219195D03*
X0094674Y0219095D03*
D136*
X0072474Y0219095D03*
X0070474Y0234195D03*
X0186742Y0219195D03*
X0188742Y0234295D03*
D137*
X0189092Y0222695D03*
X0186792Y0219295D03*
X0154592Y0222595D03*
X0104624Y0222495D03*
X0072424Y0219195D03*
X0070124Y0222595D03*
D138*
X0072374Y0219295D03*
X0103874Y0234295D03*
X0155342Y0234395D03*
X0186842Y0219395D03*
D139*
X0186942Y0219495D03*
X0188942Y0222595D03*
X0072274Y0219395D03*
X0070274Y0222495D03*
D140*
X0087124Y0241095D03*
X0095424Y0219795D03*
X0095324Y0219695D03*
X0095224Y0219595D03*
X0095124Y0219495D03*
X0163792Y0219895D03*
X0163892Y0219795D03*
X0163992Y0219695D03*
X0164092Y0219595D03*
X0172092Y0241195D03*
D141*
X0188392Y0234495D03*
X0186992Y0219595D03*
X0154992Y0222395D03*
X0104224Y0222295D03*
X0072224Y0219495D03*
X0070824Y0234395D03*
D142*
X0070474Y0222395D03*
X0072174Y0219595D03*
X0087074Y0242495D03*
X0103674Y0234395D03*
X0155542Y0234495D03*
X0172142Y0242595D03*
X0188742Y0222495D03*
X0187042Y0219695D03*
D143*
X0187092Y0219795D03*
X0155092Y0222295D03*
X0104124Y0222195D03*
X0072124Y0219695D03*
D144*
X0072074Y0219795D03*
X0187142Y0219895D03*
D145*
X0163742Y0219995D03*
X0163642Y0220095D03*
X0163542Y0220195D03*
X0163442Y0220295D03*
X0163342Y0220395D03*
X0163242Y0220495D03*
X0163142Y0220595D03*
X0163042Y0220695D03*
X0162942Y0220795D03*
X0096274Y0220695D03*
X0096174Y0220595D03*
X0096074Y0220495D03*
X0095974Y0220395D03*
X0095874Y0220295D03*
X0095774Y0220195D03*
X0095674Y0220095D03*
X0095574Y0219995D03*
X0095474Y0219895D03*
D146*
X0071974Y0219995D03*
X0187242Y0220095D03*
D147*
X0187292Y0220195D03*
X0187292Y0220295D03*
X0071924Y0220195D03*
X0071924Y0220095D03*
D148*
X0071874Y0220295D03*
X0070774Y0222195D03*
X0071274Y0234595D03*
X0103674Y0221995D03*
X0155542Y0222095D03*
X0187342Y0220395D03*
X0188442Y0222295D03*
X0187942Y0234695D03*
D149*
X0187392Y0220495D03*
X0155992Y0234695D03*
X0103224Y0234595D03*
X0071824Y0220395D03*
D150*
X0071774Y0220495D03*
X0071774Y0220595D03*
X0071474Y0234695D03*
X0187742Y0234795D03*
X0187442Y0220695D03*
X0187442Y0220595D03*
D151*
X0187492Y0220795D03*
X0188192Y0222195D03*
X0155692Y0221995D03*
X0103524Y0221895D03*
X0071724Y0220695D03*
X0071024Y0222095D03*
D152*
X0099574Y0220795D03*
X0159642Y0220895D03*
D153*
X0155892Y0221895D03*
X0187592Y0221195D03*
X0187592Y0221095D03*
X0103324Y0221795D03*
X0071624Y0221095D03*
X0071624Y0220995D03*
D154*
X0101424Y0221095D03*
X0157792Y0221195D03*
D155*
X0157442Y0221295D03*
X0101774Y0221195D03*
D156*
X0071574Y0221195D03*
X0071574Y0221295D03*
X0071174Y0221995D03*
X0071774Y0234795D03*
X0187442Y0234895D03*
X0188042Y0222095D03*
X0187642Y0221395D03*
X0187642Y0221295D03*
D157*
X0186342Y0235295D03*
X0157142Y0221395D03*
X0102074Y0221295D03*
X0072874Y0235195D03*
D158*
X0102374Y0221395D03*
X0156842Y0221495D03*
D159*
X0187692Y0221495D03*
X0187692Y0221595D03*
X0071524Y0221495D03*
X0071524Y0221395D03*
D160*
X0072274Y0234995D03*
X0102574Y0221495D03*
X0156642Y0221595D03*
X0186942Y0235095D03*
D161*
X0156392Y0221695D03*
X0102824Y0221595D03*
D162*
X0103074Y0221695D03*
X0102774Y0234795D03*
X0071474Y0221695D03*
X0071474Y0221595D03*
X0156142Y0221795D03*
X0156442Y0234895D03*
X0187742Y0221795D03*
X0187742Y0221695D03*
D163*
X0189592Y0222995D03*
X0154792Y0234095D03*
X0104424Y0233995D03*
X0069624Y0222895D03*
D164*
X0069324Y0223095D03*
X0069824Y0233795D03*
X0105624Y0223195D03*
X0153592Y0223295D03*
X0189892Y0223195D03*
X0189392Y0233895D03*
D165*
X0190042Y0223295D03*
X0153342Y0223495D03*
X0154342Y0233795D03*
X0104874Y0233695D03*
X0105874Y0223395D03*
X0069174Y0223195D03*
D166*
X0068574Y0223595D03*
X0106474Y0223895D03*
X0152742Y0223995D03*
X0190642Y0223695D03*
D167*
X0152992Y0223795D03*
X0106224Y0223695D03*
D168*
X0105474Y0233295D03*
X0068474Y0223695D03*
X0153742Y0233395D03*
X0190742Y0223795D03*
D169*
X0152392Y0224295D03*
X0106824Y0224195D03*
D170*
X0106924Y0224295D03*
X0105724Y0233095D03*
X0152292Y0224395D03*
X0153492Y0233195D03*
D171*
X0153392Y0233095D03*
X0152192Y0224495D03*
X0190592Y0232995D03*
X0107024Y0224395D03*
X0105824Y0232995D03*
X0068624Y0232895D03*
D172*
X0087074Y0242695D03*
X0107274Y0224695D03*
X0151942Y0224795D03*
X0172142Y0242795D03*
D173*
X0152742Y0232495D03*
X0151542Y0225295D03*
X0192042Y0224895D03*
X0107674Y0225195D03*
X0106474Y0232395D03*
X0067174Y0224795D03*
D174*
X0067074Y0224895D03*
X0106574Y0232295D03*
X0107774Y0225295D03*
X0151442Y0225395D03*
X0152642Y0232395D03*
X0192142Y0224995D03*
D175*
X0191042Y0232495D03*
X0152942Y0232695D03*
X0106274Y0232595D03*
X0068174Y0232395D03*
D176*
X0068274Y0232495D03*
X0106174Y0232695D03*
X0153042Y0232795D03*
X0190942Y0232595D03*
D177*
X0156742Y0234995D03*
X0102474Y0234895D03*
D178*
X0087074Y0242395D03*
X0071974Y0234895D03*
X0172142Y0242495D03*
X0187242Y0234995D03*
D179*
X0186692Y0235195D03*
X0156992Y0235095D03*
X0102224Y0234995D03*
X0072524Y0235095D03*
D180*
X0101924Y0235095D03*
X0157292Y0235195D03*
D181*
X0157592Y0235295D03*
X0101624Y0235195D03*
D182*
X0101274Y0235295D03*
X0157942Y0235395D03*
D183*
X0186042Y0235395D03*
X0073174Y0235295D03*
D184*
X0073924Y0235495D03*
X0100924Y0235395D03*
X0158292Y0235495D03*
X0185292Y0235595D03*
D185*
X0185692Y0235495D03*
X0073524Y0235395D03*
D186*
X0087074Y0242095D03*
X0100474Y0235495D03*
X0158742Y0235595D03*
X0172142Y0242195D03*
D187*
X0184842Y0235695D03*
X0074374Y0235595D03*
D188*
X0099324Y0235695D03*
X0159892Y0235795D03*
D189*
X0160892Y0235895D03*
X0098324Y0235795D03*
D190*
X0087124Y0241795D03*
X0075924Y0235795D03*
X0172092Y0241895D03*
X0183292Y0235895D03*
D191*
X0171842Y0235995D03*
X0087374Y0235895D03*
D192*
X0087374Y0235995D03*
X0171842Y0236095D03*
D193*
X0171842Y0236195D03*
X0087374Y0236095D03*
D194*
X0087424Y0236195D03*
X0171792Y0236295D03*
D195*
X0171792Y0236395D03*
X0087424Y0236295D03*
D196*
X0087424Y0236395D03*
X0171792Y0236495D03*
D197*
X0171742Y0236595D03*
X0087474Y0236495D03*
D198*
X0087474Y0236595D03*
X0171742Y0236695D03*
D199*
X0171792Y0236795D03*
X0087424Y0236695D03*
D200*
X0087424Y0236795D03*
X0171792Y0236895D03*
D201*
X0171792Y0236995D03*
X0087424Y0236895D03*
D202*
X0087424Y0236995D03*
X0171792Y0237095D03*
D203*
X0171792Y0237195D03*
X0087424Y0237095D03*
D204*
X0087424Y0237195D03*
X0171792Y0237295D03*
D205*
X0171792Y0237395D03*
X0087424Y0237295D03*
D206*
X0087424Y0237395D03*
X0171792Y0237495D03*
D207*
X0171792Y0237595D03*
X0087424Y0237495D03*
D208*
X0087374Y0237595D03*
X0171842Y0237695D03*
D209*
X0171842Y0237795D03*
X0087374Y0237695D03*
D210*
X0087374Y0237795D03*
X0171842Y0237895D03*
D211*
X0171842Y0237995D03*
X0087374Y0237895D03*
D212*
X0087324Y0237995D03*
X0171892Y0238095D03*
D213*
X0171842Y0238195D03*
X0087374Y0238095D03*
D214*
X0087324Y0238195D03*
X0171892Y0238295D03*
D215*
X0171892Y0238395D03*
X0087324Y0238295D03*
D216*
X0087324Y0238395D03*
X0171892Y0238495D03*
D217*
X0171942Y0238595D03*
X0087274Y0238495D03*
D218*
X0087324Y0238595D03*
X0171892Y0238695D03*
D219*
X0171942Y0238795D03*
X0087274Y0238695D03*
D220*
X0087274Y0238795D03*
X0171942Y0238895D03*
D221*
X0171942Y0238995D03*
X0087274Y0238895D03*
D222*
X0087224Y0238995D03*
X0171992Y0239095D03*
D223*
X0171992Y0239195D03*
X0087224Y0239095D03*
D224*
X0087174Y0239195D03*
X0172042Y0239295D03*
D225*
X0172042Y0239395D03*
X0087174Y0239295D03*
D226*
X0087174Y0239395D03*
X0172042Y0239495D03*
D227*
X0171992Y0239595D03*
X0087224Y0239495D03*
D228*
X0087174Y0239595D03*
X0172042Y0239695D03*
D229*
X0172042Y0239795D03*
X0087174Y0239695D03*
D230*
X0087174Y0239795D03*
X0172042Y0239895D03*
D231*
X0172042Y0239995D03*
X0087174Y0239895D03*
D232*
X0087174Y0239995D03*
X0172042Y0240095D03*
D233*
X0172092Y0240195D03*
X0087124Y0240095D03*
D234*
X0087124Y0240195D03*
X0172092Y0240295D03*
D235*
X0172092Y0240395D03*
X0087124Y0240295D03*
D236*
X0087124Y0240395D03*
X0172092Y0240495D03*
D237*
X0172092Y0240595D03*
X0087124Y0240495D03*
D238*
X0087074Y0240595D03*
X0172142Y0240695D03*
D239*
X0172092Y0240795D03*
X0087124Y0240695D03*
D240*
X0087124Y0240795D03*
X0172092Y0240895D03*
D241*
X0172092Y0240995D03*
X0087124Y0240895D03*
D242*
X0087124Y0240995D03*
X0172092Y0241095D03*
D243*
X0172142Y0241395D03*
X0087074Y0241295D03*
D244*
X0087074Y0241495D03*
X0172142Y0241595D03*
D245*
X0172142Y0241795D03*
X0087074Y0241695D03*
D246*
X0087074Y0241895D03*
X0172142Y0241995D03*
D247*
X0172142Y0242095D03*
X0087074Y0241995D03*
D248*
X0087124Y0242195D03*
X0172092Y0242295D03*
D249*
X0172142Y0242395D03*
X0087074Y0242295D03*
M02*
