0
SECTION
2
HEADER
9
$ACADVER
1
AC1027
9
$ACADMAINTVER
70
8
9
$DWGCODEPAGE
3
ANSI_1252
9
$LASTSAVEDBY
1
macc
9
$REQUIREDVERSIONS
160
0
9
$INSBASE
10
0.0
20
0.0
30
0.0
9
$EXTMIN
10
1.000000000000000E+20
20
1.000000000000000E+20
30
1.000000000000000E+20
9
$EXTMAX
10
-1.000000000000000E+20
20
-1.000000000000000E+20
30
-1.000000000000000E+20
9
$LIMMIN
10
0.0
20
0.0
9
$LIMMAX
10
12.0
20
9.0
9
$ORTHOMODE
70
0
9
$REGENMODE
70
1
9
$FILLMODE
70
1
9
$QTEXTMODE
70
0
9
$MIRRTEXT
70
0
9
$LTSCALE
40
1.0
9
$ATTMODE
70
1
9
$TEXTSIZE
40
0.2
9
$TRACEWID
40
0.05
9
$TEXTSTYLE
7
STANDARD
9
$CLAYER
8
0
9
$CELTYPE
6
ByLayer
9
$CECOLOR
62
256
9
$CELTSCALE
40
1.0
9
$DISPSILH
70
0
9
$DIMSCALE
40
1.0
9
$DIMASZ
40
0.18
9
$DIMEXO
40
0.0625
9
$DIMDLI
40
0.38
9
$DIMRND
40
0.0
9
$DIMDLE
40
0.0
9
$DIMEXE
40
0.18
9
$DIMTP
40
0.0
9
$DIMTM
40
0.0
9
$DIMTXT
40
0.18
9
$DIMCEN
40
0.09
9
$DIMTSZ
40
0.0
9
$DIMTOL
70
0
9
$DIMLIM
70
0
9
$DIMTIH
70
1
9
$DIMTOH
70
1
9
$DIMSE1
70
0
9
$DIMSE2
70
0
9
$DIMTAD
70
0
9
$DIMZIN
70
0
9
$DIMBLK
1

9
$DIMASO
70
1
9
$DIMSHO
70
1
9
$DIMPOST
1

9
$DIMAPOST
1

9
$DIMALT
70
0
9
$DIMALTD
70
2
9
$DIMALTF
40
25.4
9
$DIMLFAC
40
1.0
9
$DIMTOFL
70
0
9
$DIMTVP
40
0.0
9
$DIMTIX
70
0
9
$DIMSOXD
70
0
9
$DIMSAH
70
0
9
$DIMBLK1
1

9
$DIMBLK2
1

9
$DIMSTYLE
2
STANDARD
9
$DIMCLRD
70
0
9
$DIMCLRE
70
0
9
$DIMCLRT
70
0
9
$DIMTFAC
40
1.0
9
$DIMGAP
40
0.09
9
$DIMJUST
70
0
9
$DIMSD1
70
0
9
$DIMSD2
70
0
9
$DIMTOLJ
70
1
9
$DIMTZIN
70
0
9
$DIMALTZ
70
0
9
$DIMALTTZ
70
0
9
$DIMUPT
70
0
9
$DIMDEC
70
4
9
$DIMTDEC
70
4
9
$DIMALTU
70
2
9
$DIMALTTD
70
2
9
$DIMTXSTY
7
STANDARD
9
$DIMAUNIT
70
0
9
$DIMADEC
70
0
9
$DIMALTRND
40
0.0
9
$DIMAZIN
70
0
9
$DIMDSEP
70
46
9
$DIMATFIT
70
3
9
$DIMFRAC
70
0
9
$DIMLDRBLK
1

9
$DIMLUNIT
70
2
9
$DIMLWD
70
-2
9
$DIMLWE
70
-2
9
$DIMTMOVE
70
0
9
$DIMFXL
40
1.0
9
$DIMFXLON
70
0
9
$DIMJOGANG
40
0.7853981633974483
9
$DIMTFILL
70
0
9
$DIMTFILLCLR
70
0
9
$DIMARCSYM
70
0
9
$DIMLTYPE
6

9
$DIMLTEX1
6

9
$DIMLTEX2
6

9
$DIMTXTDIRECTION
70
0
9
$LUNITS
70
2
9
$LUPREC
70
4
9
$SKETCHINC
40
0.1
9
$FILLETRAD
40
0.0
9
$AUNITS
70
0
9
$AUPREC
70
0
9
$MENU
1
.
9
$ELEVATION
40
0.0
9
$PELEVATION
40
0.0
9
$THICKNESS
40
0.0
9
$LIMCHECK
70
0
9
$CHAMFERA
40
0.0
9
$CHAMFERB
40
0.0
9
$CHAMFERC
40
0.0
9
$CHAMFERD
40
0.0
9
$SKPOLY
70
0
9
$TDCREATE
40
2458312.067262384
9
$TDUCREATE
40
2458311.983929051
9
$TDUPDATE
40
2458312.961305069
9
$TDUUPDATE
40
2458312.877971736
9
$TDINDWG
40
0.0045230903
9
$TDUSRTIMER
40
0.0045219676
9
$USRTIMER
70
1
9
$ANGBASE
50
0.0
9
$ANGDIR
70
0
9
$PDMODE
70
0
9
$PDSIZE
40
0.0
9
$PLINEWID
40
0.0
9
$SPLFRAME
70
0
9
$SPLINETYPE
70
6
9
$SPLINESEGS
70
8
9
$HANDSEED
5
1058
9
$SURFTAB1
70
6
9
$SURFTAB2
70
6
9
$SURFTYPE
70
6
9
$SURFU
70
6
9
$SURFV
70
6
9
$UCSBASE
2

9
$UCSNAME
2

9
$UCSORG
10
0.0
20
0.0
30
0.0
9
$UCSXDIR
10
1.0
20
0.0
30
0.0
9
$UCSYDIR
10
0.0
20
1.0
30
0.0
9
$UCSORTHOREF
2

9
$UCSORTHOVIEW
70
0
9
$UCSORGTOP
10
0.0
20
0.0
30
0.0
9
$UCSORGBOTTOM
10
0.0
20
0.0
30
0.0
9
$UCSORGLEFT
10
0.0
20
0.0
30
0.0
9
$UCSORGRIGHT
10
0.0
20
0.0
30
0.0
9
$UCSORGFRONT
10
0.0
20
0.0
30
0.0
9
$UCSORGBACK
10
0.0
20
0.0
30
0.0
9
$PUCSBASE
2

9
$PUCSNAME
2

9
$PUCSORG
10
0.0
20
0.0
30
0.0
9
$PUCSXDIR
10
1.0
20
0.0
30
0.0
9
$PUCSYDIR
10
0.0
20
1.0
30
0.0
9
$PUCSORTHOREF
2

9
$PUCSORTHOVIEW
70
0
9
$PUCSORGTOP
10
0.0
20
0.0
30
0.0
9
$PUCSORGBOTTOM
10
0.0
20
0.0
30
0.0
9
$PUCSORGLEFT
10
0.0
20
0.0
30
0.0
9
$PUCSORGRIGHT
10
0.0
20
0.0
30
0.0
9
$PUCSORGFRONT
10
0.0
20
0.0
30
0.0
9
$PUCSORGBACK
10
0.0
20
0.0
30
0.0
9
$USERI1
70
0
9
$USERI2
70
0
9
$USERI3
70
0
9
$USERI4
70
0
9
$USERI5
70
0
9
$USERR1
40
0.0
9
$USERR2
40
0.0
9
$USERR3
40
0.0
9
$USERR4
40
0.0
9
$USERR5
40
0.0
9
$WORLDVIEW
70
1
9
$SHADEDGE
70
3
9
$SHADEDIF
70
70
9
$TILEMODE
70
1
9
$MAXACTVP
70
64
9
$PINSBASE
10
0.0
20
0.0
30
0.0
9
$PLIMCHECK
70
0
9
$PEXTMIN
10
0.0
20
0.0
30
0.0
9
$PEXTMAX
10
0.0
20
0.0
30
0.0
9
$PLIMMIN
10
0.0
20
0.0
9
$PLIMMAX
10
12.0
20
9.0
9
$UNITMODE
70
0
9
$VISRETAIN
70
1
9
$PLINEGEN
70
0
9
$PSLTSCALE
70
1
9
$TREEDEPTH
70
3020
9
$CMLSTYLE
2
Standard
9
$CMLJUST
70
0
9
$CMLSCALE
40
1.0
9
$PROXYGRAPHICS
70
1
9
$MEASUREMENT
70
0
9
$CELWEIGHT
370
-1
9
$ENDCAPS
280
0
9
$JOINSTYLE
280
0
9
$LWDISPLAY
290
0
9
$INSUNITS
70
0
9
$HYPERLINKBASE
1

9
$STYLESHEET
1

9
$XEDIT
290
1
9
$CEPSNTYPE
380
0
9
$PSTYLEMODE
290
1
9
$FINGERPRINTGUID
2
{4B4ED3CC-337F-6143-9B17-EFB0F3F01845}
9
$VERSIONGUID
2
{A4861B96-12DA-254C-ACF2-0C3CF0F63D02}
9
$EXTNAMES
290
1
9
$PSVPSCALE
40
0.0
9
$OLESTARTUP
290
0
9
$SORTENTS
280
127
9
$INDEXCTL
280
0
9
$HIDETEXT
280
0
9
$XCLIPFRAME
280
2
9
$HALOGAP
280
0
9
$OBSCOLOR
70
257
9
$OBSLTYPE
280
0
9
$INTERSECTIONDISPLAY
280
0
9
$INTERSECTIONCOLOR
70
257
9
$DIMASSOC
280
1
9
$PROJECTNAME
1

9
$CAMERADISPLAY
290
0
9
$LENSLENGTH
40
50.0
9
$CAMERAHEIGHT
40
0.0
9
$STEPSPERSEC
40
2.0
9
$STEPSIZE
40
6.0
9
$3DDWFPREC
40
2.0
9
$PSOLWIDTH
40
0.25
9
$PSOLHEIGHT
40
4.0
9
$LOFTANG1
40
1.570796326794896
9
$LOFTANG2
40
1.570796326794896
9
$LOFTMAG1
40
0.0
9
$LOFTMAG2
40
0.0
9
$LOFTPARAM
70
7
9
$LOFTNORMALS
280
1
9
$LATITUDE
40
37.795
9
$LONGITUDE
40
-122.394
9
$NORTHDIRECTION
40
0.0
9
$TIMEZONE
70
-8000
9
$LIGHTGLYPHDISPLAY
280
1
9
$TILEMODELIGHTSYNCH
280
1
9
$CMATERIAL
347
222
9
$SOLIDHIST
280
0
9
$SHOWHIST
280
1
9
$DWFFRAME
280
2
9
$DGNFRAME
280
0
9
$REALWORLDSCALE
290
1
9
$INTERFERECOLOR
62
1
9
$INTERFEREOBJVS
345
244
9
$INTERFEREVPVS
346
241
9
$CSHADOW
280
0
9
$SHADOWPLANELOCATION
40
0.0
0
ENDSEC
0
SECTION
2
CLASSES
0
CLASS
1
ACDBDICTIONARYWDFLT
2
AcDbDictionaryWithDefault
3
ObjectDBX Classes
90
0
91
1
280
0
281
0
0
CLASS
1
MATERIAL
2
AcDbMaterial
3
ObjectDBX Classes
90
1153
91
3
280
0
281
0
0
CLASS
1
VISUALSTYLE
2
AcDbVisualStyle
3
ObjectDBX Classes
90
4095
91
24
280
0
281
0
0
CLASS
1
SCALE
2
AcDbScale
3
ObjectDBX Classes
90
1153
91
17
280
0
281
0
0
CLASS
1
TABLESTYLE
2
AcDbTableStyle
3
ObjectDBX Classes
90
4095
91
1
280
0
281
0
0
CLASS
1
MLEADERSTYLE
2
AcDbMLeaderStyle
3
ACDB_MLEADERSTYLE_CLASS
90
4095
91
1
280
0
281
0
0
CLASS
1
ACDBSECTIONVIEWSTYLE
2
AcDbSectionViewStyle
3
ObjectDBX Classes
90
1025
91
1
280
0
281
0
0
CLASS
1
ACDBDETAILVIEWSTYLE
2
AcDbDetailViewStyle
3
ObjectDBX Classes
90
1025
91
1
280
0
281
0
0
CLASS
1
DICTIONARYVAR
2
AcDbDictionaryVar
3
ObjectDBX Classes
90
0
91
9
280
0
281
0
0
CLASS
1
CELLSTYLEMAP
2
AcDbCellStyleMap
3
ObjectDBX Classes
90
1152
91
2
280
0
281
0
0
ENDSEC
0
SECTION
2
TABLES
0
TABLE
2
VPORT
5
219
330
0
100
AcDbSymbolTable
70
1
0
VPORT
5
285
330
219
100
AcDbSymbolTableRecord
100
AcDbViewportTableRecord
2
*ACTIVE
70
0
10
0.0
20
0.0
11
1.0
21
1.0
12
60.85393284500712
22
1.602311788490737
13
0.0
23
0.0
14
0.5
24
0.5
15
0.5
25
0.5
16
0.0
26
0.0
36
1.0
17
0.0
27
0.0
37
0.0
40
135.7601553851812
41
1.367970660146699
42
50.0
43
0.0
44
0.0
50
0.0
51
0.0
71
0
72
1000
73
1
74
3
75
0
76
1
77
0
78
0
281
0
65
1
110
0.0
120
0.0
130
0.0
111
1.0
121
0.0
131
0.0
112
0.0
122
1.0
132
0.0
79
0
146
0.0
348
240
60
3
61
5
292
1
282
0
141
0.0
142
0.0
63
250
421
3355443
1001
ACAD_NAV_VCDISPLAY
1070
3
0
ENDTAB
0
TABLE
2
LTYPE
5
216
330
0
100
AcDbSymbolTable
70
2
0
LTYPE
5
26B
330
216
100
AcDbSymbolTableRecord
100
AcDbLinetypeTableRecord
2
ByBlock
70
0
3

72
65
73
0
40
0.0
0
LTYPE
5
26C
330
216
100
AcDbSymbolTableRecord
100
AcDbLinetypeTableRecord
2
ByLayer
70
0
3

72
65
73
0
40
0.0
0
LTYPE
5
26D
330
216
100
AcDbSymbolTableRecord
100
AcDbLinetypeTableRecord
2
CONTINUOUS
70
0
3
Solid line
72
65
73
0
40
0.0
0
LTYPE
5
103D
330
216
100
AcDbSymbolTableRecord
100
AcDbLinetypeTableRecord
2
DOTTED
70
0
3
Dotted . . . . . . . . . . . . . . . . . . . .
72
65
73
2
40
3.0
49
0.0
74
0
49
-3.0
74
0
0
ENDTAB
0
TABLE
2
LAYER
5
213
102
{ACAD_XDICTIONARY
360
297
102
}
330
0
100
AcDbSymbolTable
70
4
0
LAYER
5
265
102
{ACAD_XDICTIONARY
360
292
102
}
330
213
100
AcDbSymbolTableRecord
100
AcDbLayerTableRecord
2
0
70
0
62
7
6
CONTINUOUS
370
-3
390
220
347
232
348
0
0
LAYER
5
2FB
330
213
100
AcDbSymbolTableRecord
100
AcDbLayerTableRecord
2
gear
70
0
62
7
6
CONTINUOUS
370
-3
390
220
347
232
348
0
1001
AcAecLayerStandard
1000

1000

1001
AcCmTransparency
1071
0
0
LAYER
5
2FE
330
213
100
AcDbSymbolTableRecord
100
AcDbLayerTableRecord
2
gear_texts
70
0
62
7
6
CONTINUOUS
370
-3
390
220
347
232
348
0
1001
AcAecLayerStandard
1000

1000

1001
AcCmTransparency
1071
0
0
LAYER
5
2FF
330
213
100
AcDbSymbolTableRecord
100
AcDbLayerTableRecord
2
gear_guides
70
0
62
5
6
CONTINUOUS
370
-3
390
220
347
232
348
0
1001
AcAecLayerStandard
1000

1000

1001
AcCmTransparency
1071
0
0
ENDTAB
0
TABLE
2
STYLE
5
214
330
0
100
AcDbSymbolTable
70
3
0
STYLE
5
266
330
214
100
AcDbSymbolTableRecord
100
AcDbTextStyleTableRecord
2
STANDARD
70
0
40
0.0
41
1.0
50
0.0
71
0
42
0.2
3
txt
4

0
STYLE
5
26A
330
214
100
AcDbSymbolTableRecord
100
AcDbTextStyleTableRecord
2
ANNOTATIVE
70
0
40
0.0
41
1.0
50
0.0
71
0
42
0.2
3
txt
4

1001
ACADANNOTATIVE
1000
AnnotativeData
1002
{
1070
1
1070
1
1002
}
0
STYLE
5
301
330
214
100
AcDbSymbolTableRecord
100
AcDbTextStyleTableRecord
2

70
1
40
0.0
41
1.0
50
0.0
71
0
42
0.2
3
ltypeshp.shx
4

0
ENDTAB
0
TABLE
2
VIEW
5
217
330
0
100
AcDbSymbolTable
70
1
0
ENDTAB
0
TABLE
2
UCS
5
218
330
0
100
AcDbSymbolTable
70
0
0
ENDTAB
0
TABLE
2
APPID
5
21A
330
0
100
AcDbSymbolTable
70
10
0
APPID
5
267
330
21A
100
AcDbSymbolTableRecord
100
AcDbRegAppTableRecord
2
ACAD
70
0
0
APPID
5
26E
330
21A
100
AcDbSymbolTableRecord
100
AcDbRegAppTableRecord
2
ACADANNOTATIVE
70
0
0
APPID
5
286
330
21A
100
AcDbSymbolTableRecord
100
AcDbRegAppTableRecord
2
ACADANNOPO
70
0
0
APPID
5
287
330
21A
100
AcDbSymbolTableRecord
100
AcDbRegAppTableRecord
2
ACAD_DSTYLE_DIMJAG
70
0
0
APPID
5
288
330
21A
100
AcDbSymbolTableRecord
100
AcDbRegAppTableRecord
2
ACAD_DSTYLE_DIMTALN
70
0
0
APPID
5
289
330
21A
100
AcDbSymbolTableRecord
100
AcDbRegAppTableRecord
2
ACAD_MLEADERVER
70
0
0
APPID
5
28A
330
21A
100
AcDbSymbolTableRecord
100
AcDbRegAppTableRecord
2
ACAD_NAV_VCDISPLAY
70
0
0
APPID
5
2E7
330
21A
100
AcDbSymbolTableRecord
100
AcDbRegAppTableRecord
2
ACAD_EXEMPT_FROM_CAD_STANDARDS
70
0
0
APPID
5
2FC
330
21A
100
AcDbSymbolTableRecord
100
AcDbRegAppTableRecord
2
AcAecLayerStandard
70
0
0
APPID
5
2FD
330
21A
100
AcDbSymbolTableRecord
100
AcDbRegAppTableRecord
2
AcCmTransparency
70
0
0
ENDTAB
0
TABLE
2
DIMSTYLE
5
21B
330
0
100
AcDbSymbolTable
70
2
100
AcDbDimStyleTable
71
1
340
268
0
DIMSTYLE
105
268
330
21B
100
AcDbSymbolTableRecord
100
AcDbDimStyleTableRecord
2
STANDARD
70
0
279
2
340
266
0
DIMSTYLE
105
269
330
21B
100
AcDbSymbolTableRecord
100
AcDbDimStyleTableRecord
2
ANNOTATIVE
70
0
40
0.0
279
2
340
266
1001
ACADANNOTATIVE
1000
AnnotativeData
1002
{
1070
1
1070
1
1002
}
0
ENDTAB
0
TABLE
2
BLOCK_RECORD
5
212
330
0
100
AcDbSymbolTable
70
2
0
BLOCK_RECORD
5
281
330
212
100
AcDbSymbolTableRecord
100
AcDbBlockTableRecord
2
*Model_Space
340
284
70
0
280
1
281
0
0
BLOCK_RECORD
5
27D
330
212
100
AcDbSymbolTableRecord
100
AcDbBlockTableRecord
2
*Paper_Space
340
280
70
0
280
1
281
0
0
BLOCK_RECORD
5
28C
330
212
100
AcDbSymbolTableRecord
100
AcDbBlockTableRecord
2
$MODEL_SPACE
340
0
70
0
280
1
281
0
0
BLOCK_RECORD
5
28E
330
212
100
AcDbSymbolTableRecord
100
AcDbBlockTableRecord
2
$PAPER_SPACE
340
0
70
0
280
1
281
0
0
ENDTAB
0
ENDSEC
0
SECTION
2
BLOCKS
0
BLOCK
5
282
330
281
100
AcDbEntity
8
0
100
AcDbBlockBegin
2
*Model_Space
70
0
10
0.0
20
0.0
30
0.0
3
*Model_Space
1

0
ENDBLK
5
283
330
281
100
AcDbEntity
8
0
100
AcDbBlockEnd
0
BLOCK
5
27E
330
27D
100
AcDbEntity
67
1
8
0
100
AcDbBlockBegin
2
*Paper_Space
70
0
10
0.0
20
0.0
30
0.0
3
*Paper_Space
1

0
ENDBLK
5
27F
330
27D
100
AcDbEntity
67
1
8
0
100
AcDbBlockEnd
0
BLOCK
5
28D
330
28C
100
AcDbEntity
8
0
100
AcDbBlockBegin
2
$MODEL_SPACE
70
0
10
0.0
20
0.0
30
0.0
3
$MODEL_SPACE
1

0
ENDBLK
5
21
330
28C
100
AcDbEntity
8
0
100
AcDbBlockEnd
0
BLOCK
5
28F
330
28E
100
AcDbEntity
8
0
100
AcDbBlockBegin
2
$PAPER_SPACE
70
0
10
0.0
20
0.0
30
0.0
3
$PAPER_SPACE
1

0
ENDBLK
5
5B
330
28E
100
AcDbEntity
8
0
100
AcDbBlockEnd
0
ENDSEC
0
SECTION
2
ENTITIES
0
LWPOLYLINE
5
1000
100
AcDbEntity
100
AcDbPolyline
90
4176
70
1
43
0
10
23.4027778
20
0
10
23.4958933
20
0.0000416
10
23.500972
20
0.0001567
10
23.5082569
20
0.0003917
10
23.5177459
20
0.0007893
10
23.5294364
20
0.0013924
10
23.543325
20
0.0022437
10
23.5594079
20
0.0033857
10
23.5776806
20
0.0048613
10
23.5981377
20
0.0067128
10
23.6207736
20
0.0089828
10
23.6455819
20
0.0117138
10
23.6725555
20
0.0149479
10
23.7016869
20
0.0187274
10
23.7329677
20
0.0230946
10
23.7663892
20
0.0280912
10
23.8019417
20
0.0337594
10
23.8396154
20
0.0401407
10
23.8793994
20
0.0472769
10
23.9212824
20
0.0552094
10
23.9652526
20
0.0639796
10
24.0112974
20
0.0736287
10
24.0594038
20
0.0841976
10
24.109558
20
0.0957272
10
24.1617457
20
0.1082582
10
24.215952
20
0.121831
10
24.2721614
20
0.136486
10
24.3303579
20
0.1522631
10
24.3905246
20
0.1692022
10
24.4526445
20
0.1873431
10
24.5166995
20
0.206725
10
24.5826714
20
0.2273871
10
24.6505411
20
0.2493685
10
24.720289
20
0.2727077
10
24.791895
20
0.2974432
10
24.8653383
20
0.3236131
10
24.9405977
20
0.3512554
10
25.0176514
20
0.3804076
10
25.0964769
20
0.4111071
10
25.1770512
20
0.4433908
10
25.259351
20
0.4772956
10
25.3433521
20
0.5128578
10
25.4290299
20
0.5501135
10
25.5163593
20
0.5890985
10
25.6053147
20
0.6298483
10
25.6958697
20
0.6723979
10
25.7879978
20
0.7167822
10
25.8816716
20
0.7630355
10
25.9768634
20
0.8111918
10
26.0735449
20
0.861285
10
26.1716873
20
0.9133482
10
26.2712614
20
0.9674146
10
26.3215759
20
0.995209
10
26.3468635
20
1.0092984
10
26.3595396
20
1.0163913
10
26.3658857
20
1.0199498
10
26.3690608
20
1.0217321
10
26.3690975
20
1.0218373
10
26.3113054
20
2.0220443
10
26.3112568
20
2.0221446
10
26.3078976
20
2.0235493
10
26.3011838
20
2.0263533
10
26.2877751
20
2.031939
10
26.2610331
20
2.0430221
10
26.2078522
20
2.0648366
10
26.1027137
20
2.1070745
10
25.999228
20
2.1474877
10
25.8974203
20
2.1861121
10
25.7973156
20
2.2229842
10
25.6989379
20
2.2581408
10
25.6023109
20
2.2916187
10
25.5074578
20
2.3234554
10
25.414401
20
2.3536885
10
25.3231627
20
2.3823558
10
25.2337641
20
2.4094956
10
25.1462261
20
2.4351463
10
25.060569
20
2.4593465
10
24.9768125
20
2.4821352
10
24.8949758
20
2.5035516
10
24.8150773
20
2.5236351
10
24.737135
20
2.5424253
10
24.6611663
20
2.5599622
10
24.5871879
20
2.5762858
10
24.515216
20
2.5914364
10
24.4452663
20
2.6054545
10
24.3773537
20
2.6183808
10
24.3114926
20
2.6302561
10
24.2476967
20
2.6411215
10
24.1859794
20
2.6510182
10
24.1263531
20
2.6599875
10
24.0688299
20
2.668071
10
24.0134211
20
2.6753102
10
23.9601374
20
2.6817471
10
23.908989
20
2.6874234
10
23.8599855
20
2.6923813
10
23.8131358
20
2.6966629
10
23.7684481
20
2.7003104
10
23.7259301
20
2.7033662
10
23.685589
20
2.7058728
10
23.6474311
20
2.7078726
10
23.6114623
20
2.7094082
10
23.5776878
20
2.7105223
10
23.5461121
20
2.7112575
10
23.5167393
20
2.7116567
10
23.4895727
20
2.7117626
10
23.464615
20
2.711618
10
23.4418682
20
2.7112658
10
23.421334
20
2.7107489
10
23.403013
20
2.71011
10
23.3869056
20
2.7093922
10
23.3730113
20
2.7086381
10
23.3613292
20
2.7078907
10
23.3518575
20
2.7071928
10
23.344594
20
2.7065872
10
23.3395359
20
2.7061165
10
23.2470352
20
2.6954332
10
23.047237
20
4.0638497
10
23.1389307
20
4.0800601
10
23.1439122
20
4.0810553
10
23.1510456
20
4.0825517
10
23.1603214
20
4.084591
10
23.1717296
20
4.087215
10
23.1852594
20
4.0904651
10
23.2008997
20
4.0943826
10
23.2186385
20
4.0990087
10
23.2384633
20
4.1043844
10
23.2603611
20
4.1105507
10
23.2843183
20
4.117548
10
23.3103206
20
4.1254169
10
23.338353
20
4.1341977
10
23.3684003
20
4.1439303
10
23.4004463
20
4.1546546
10
23.4344745
20
4.1664103
10
23.4704677
20
4.1792366
10
23.5084081
20
4.1931728
10
23.5482774
20
4.2082578
10
23.5900566
20
4.2245301
10
23.6337264
20
4.2420281
10
23.6792667
20
4.2607901
10
23.7266568
20
4.2808537
10
23.7758757
20
4.3022566
10
23.8269016
20
4.3250361
10
23.8797122
20
4.349229
10
23.9342848
20
4.3748722
10
23.9905961
20
4.4020018
10
24.0486221
20
4.4306541
10
24.1083384
20
4.4608645
10
24.16972
20
4.4926687
10
24.2327416
20
4.5261015
10
24.2973771
20
4.5611978
10
24.3635999
20
4.5979917
10
24.4313831
20
4.6365174
10
24.5006991
20
4.6768084
10
24.5715199
20
4.7188979
10
24.643817
20
4.7628189
10
24.7175612
20
4.8086038
10
24.7927232
20
4.8562847
10
24.8692728
20
4.9058932
10
24.9471796
20
4.9574608
10
25.0264126
20
5.0110181
10
25.1069404
20
5.0665957
10
25.1887311
20
5.1242236
10
25.2717523
20
5.1839315
10
25.3559712
20
5.2457483
10
25.4413545
20
5.309703
10
25.5278686
20
5.3758237
10
25.6154794
20
5.4441382
10
25.7041521
20
5.514674
10
25.7488758
20
5.5507833
10
25.7713326
20
5.5690497
10
25.7825844
20
5.578236
10
25.7882162
20
5.5828425
10
25.7910336
20
5.5851491
10
25.7910515
20
5.5852591
10
25.5604533
20
6.5602351
10
25.560388
20
6.5603254
10
25.5568358
20
6.5611255
10
25.5497372
20
6.562721
10
25.5355622
20
6.5658935
10
25.507302
20
6.5721645
10
25.4511409
20
6.5844128
10
25.3402651
20
6.607752
10
25.2313339
20
6.6295811
10
25.1243659
20
6.64994
10
25.0193792
20
6.6688689
10
24.9163912
20
6.6864083
10
24.8154189
20
6.7025985
10
24.7164784
20
6.7174805
10
24.6195855
20
6.7310951
10
24.5247552
20
6.7434836
10
24.432002
20
6.7546871
10
24.3413397
20
6.7647473
10
24.2527816
20
6.7737056
10
24.1663404
20
6.7816039
10
24.082028
20
6.7884842
10
23.9998559
20
6.7943883
10
23.9198348
20
6.7993586
10
23.841975
20
6.8034372
10
23.7662859
20
6.8066666
10
23.6927766
20
6.8090893
10
23.6214554
20
6.8107478
10
23.5523299
20
6.8116848
10
23.4854072
20
6.811943
10
23.4206938
20
6.8115653
10
23.3581956
20
6.8105945
10
23.2979176
20
6.8090736
10
23.2398646
20
6.8070454
10
23.1840405
20
6.804553
10
23.1304486
20
6.8016395
10
23.0790916
20
6.7983478
10
23.0299716
20
6.794721
10
22.9830901
20
6.7908021
10
22.9384479
20
6.7866343
10
22.8960453
20
6.7822606
10
22.8558818
20
6.7777239
10
22.8179563
20
6.7730672
10
22.7822673
20
6.7683336
10
22.7488124
20
6.7635659
10
22.7175888
20
6.7588069
10
22.688593
20
6.7540995
10
22.6618207
20
6.7494863
10
22.6372672
20
6.7450101
10
22.6149272
20
6.7407133
10
22.5947947
20
6.7366385
10
22.576863
20
6.7328279
10
22.5611249
20
6.7293239
10
22.5475727
20
6.7261686
10
22.5361978
20
6.723404
10
22.5269912
20
6.721072
10
22.5199433
20
6.7192143
10
22.5150437
20
6.7178724
10
22.4258035
20
6.6912889
10
21.9914176
20
8.0042214
10
22.0789033
20
8.0361079
10
22.0836364
20
8.0379531
10
22.0904016
20
8.0406654
10
22.0991823
20
8.0442845
10
22.1099615
20
8.0488496
10
22.1227214
20
8.0543998
10
22.1374438
20
8.0609736
10
22.1541098
20
8.0686098
10
22.1726999
20
8.0773464
10
22.1931944
20
8.0872215
10
22.2155725
20
8.0982727
10
22.2398133
20
8.1105373
10
22.2658951
20
8.1240524
10
22.2937958
20
8.1388548
10
22.3234928
20
8.154981
10
22.3549626
20
8.1724669
10
22.3881817
20
8.1913486
10
22.4231257
20
8.2116613
10
22.4597698
20
8.2334403
10
22.4980887
20
8.2567203
10
22.5380565
20
8.2815357
10
22.579647
20
8.3079206
10
22.6228331
20
8.3359086
10
22.6675877
20
8.3655332
10
22.7138827
20
8.3968271
10
22.76169
20
8.429823
10
22.8109807
20
8.464553
10
22.8617254
20
8.5010488
10
22.9138945
20
8.5393419
10
22.9674575
20
8.579463
10
23.0223839
20
8.6214428
10
23.0786425
20
8.6653113
10
23.1362016
20
8.7110982
10
23.1950292
20
8.7588326
10
23.2550927
20
8.8085434
10
23.3163592
20
8.8602589
10
23.3787953
20
8.9140069
10
23.4423672
20
8.9698149
10
23.5070407
20
9.0277098
10
23.572781
20
9.087718
10
23.6395532
20
9.1498656
10
23.7073218
20
9.2141781
10
23.776051
20
9.2806804
10
23.8457044
20
9.3493972
10
23.9162455
20
9.4203524
10
23.9876373
20
9.4935696
10
24.0598424
20
9.5690718
10
24.1328229
20
9.6468815
10
24.206541
20
9.7270207
10
24.280958
20
9.8095109
10
24.3560352
20
9.8943729
10
24.3938091
20
9.9376998
10
24.4127528
20
9.9595883
10
24.4222385
20
9.9705889
10
24.4269848
20
9.9761033
10
24.4293588
20
9.9788641
10
24.4293574
20
9.9789755
10
24.0329597
20
10.8990966
10
24.0328797
20
10.8991741
10
24.0292426
20
10.8993452
10
24.0219747
20
10.8996839
10
24.0074642
20
10.9003467
10
23.9785444
20
10.9016151
10
23.9211096
20
10.903925
10
23.8078655
20
10.9076563
10
23.6967986
20
10.910238
10
23.5879204
20
10.9117129
10
23.4812417
20
10.9121235
10
23.3767727
20
10.9115126
10
23.2745229
20
10.9099232
10
23.1745013
20
10.9073983
10
23.0767162
20
10.9039808
10
22.9811754
20
10.8997139
10
22.8878858
20
10.8946409
10
22.796854
20
10.8888048
10
22.7080857
20
10.8822491
10
22.6215862
20
10.8750171
10
22.53736
20
10.8671521
10
22.455411
20
10.8586975
10
22.3757425
20
10.8496968
10
22.2983573
20
10.8401932
10
22.2232574
20
10.8302303
10
22.1504442
20
10.8198514
10
22.0799184
20
10.8090999
10
22.0116804
20
10.7980191
10
21.9457296
20
10.7866525
10
21.8820649
20
10.7750431
10
21.8206847
20
10.7632344
10
21.7615867
20
10.7512694
10
21.7047678
20
10.7391912
10
21.6502246
20
10.727043
10
21.5979528
20
10.7148675
10
21.5479476
20
10.7027078
10
21.5002037
20
10.6906065
10
21.4547149
20
10.6786063
10
21.4114747
20
10.6667498
10
21.3704757
20
10.6550793
10
21.3317102
20
10.6436372
10
21.2951695
20
10.6324656
10
21.2608447
20
10.6216066
10
21.228726
20
10.6111019
10
21.1988031
20
10.6009933
10
21.1710652
20
10.5913223
10
21.1455007
20
10.5821303
10
21.1220975
20
10.5734584
10
21.1008431
20
10.5653476
10
21.081724
20
10.5578387
10
21.0647264
20
10.5509723
10
21.0498359
20
10.5447886
10
21.0370375
20
10.5393279
10
21.0263155
20
10.5346301
10
21.0176537
20
10.5307348
10
21.0110354
20
10.5276814
10
21.0064433
20
10.5255092
10
20.923175
20
10.4838331
10
20.2674001
20
11.7013889
10
20.3480197
20
11.7479827
10
20.3523604
20
11.7506217
10
20.3585518
20
11.7544676
10
20.3665707
20
11.7595565
10
20.3763934
20
11.7659241
10
20.3879957
20
11.7736056
10
20.4013529
20
11.7826361
10
20.4164397
20
11.7930503
10
20.4332303
20
11.8048823
10
20.4516986
20
11.8181662
10
20.4718177
20
11.8329354
10
20.4935605
20
11.849223
10
20.5168992
20
11.8670619
10
20.5418057
20
11.8864843
10
20.5682512
20
11.9075223
10
20.5962065
20
11.9302073
10
20.6256422
20
11.9545705
10
20.656528
20
11.9806427
10
20.6888335
20
12.008454
10
20.7225278
20
12.0380343
10
20.7575792
20
12.069413
10
20.7939561
20
12.1026192
10
20.8316261
20
12.1376812
10
20.8705565
20
12.1746272
10
20.9107141
20
12.2134848
10
20.9520654
20
12.254281
10
20.9945764
20
12.2970426
10
21.0382128
20
12.3417958
10
21.0829398
20
12.3885661
10
21.1287221
20
12.4373788
10
21.1755244
20
12.4882587
10
21.2233106
20
12.54123
10
21.2720444
20
12.5963163
10
21.3216893
20
12.6535408
10
21.3722081
20
12.7129263
10
21.4235635
20
12.7744949
10
21.4757178
20
12.8382683
10
21.528633
20
12.9042676
10
21.5822706
20
12.9725133
10
21.6365918
20
13.0430256
10
21.6915578
20
13.1158239
10
21.7471291
20
13.1909272
10
21.8032661
20
13.268354
10
21.8599288
20
13.348122
10
21.917077
20
13.4302486
10
21.9746701
20
13.5147505
10
22.0326674
20
13.6016439
10
22.0910277
20
13.6909444
10
22.1497098
20
13.7826671
10
22.208672
20
13.8768265
10
22.2678725
20
13.9734363
10
22.2975489
20
14.0226643
10
22.3124039
20
14.0475098
10
22.3198352
20
14.0599905
10
22.3235519
20
14.0662453
10
22.3254104
20
14.0693764
10
22.3253897
20
14.0694859
10
21.7752368
20
14.9067945
10
21.7751445
20
14.906857
10
21.771533
20
14.9063939
10
21.7643167
20
14.9054653
10
21.7499116
20
14.9035983
10
21.7212108
20
14.8998256
10
21.6642475
20
14.892127
10
21.5520759
20
14.8761369
10
21.442248
20
14.8593929
10
21.3347678
20
14.8419388
10
21.2296385
20
14.8238186
10
21.1268627
20
14.8050762
10
21.0264423
20
14.7857555
10
20.9283787
20
14.7659003
10
20.8326727
20
14.7455545
10
20.7393242
20
14.724762
10
20.6483329
20
14.7035664
10
20.5596975
20
14.6820116
10
20.4734162
20
14.660141
10
20.3894866
20
14.6379984
10
20.3079057
20
14.6156271
10
20.2286698
20
14.5930707
10
20.1517747
20
14.5703724
10
20.0772154
20
14.5475754
10
20.0049864
20
14.5247229
10
19.9350817
20
14.5018578
10
19.8674944
20
14.479023
10
19.8022172
20
14.4562611
10
19.7392421
20
14.4336149
10
19.6785606
20
14.4111267
10
19.6201635
20
14.3888388
10
19.564041
20
14.3667933
10
19.5101826
20
14.3450322
10
19.4585776
20
14.3235971
10
19.4092141
20
14.3025298
10
19.3620802
20
14.2818715
10
19.3171629
20
14.2616634
10
19.2744491
20
14.2419464
10
19.2339246
20
14.2227615
10
19.1955751
20
14.2041489
10
19.1593853
20
14.1861491
10
19.1253398
20
14.168802
10
19.0934221
20
14.1521475
10
19.0636154
20
14.136225
10
19.0359025
20
14.1210739
10
19.0102653
20
14.1067332
10
18.9866854
20
14.0932416
10
18.9651436
20
14.0806376
10
18.9456205
20
14.0689592
10
18.9280958
20
14.0582444
10
18.9125488
20
14.0485306
10
18.8989583
20
14.0398552
10
18.8873025
20
14.0322551
10
18.8775592
20
14.0257667
10
18.8697054
20
14.0204265
10
18.8637179
20
14.0162703
10
18.8595727
20
14.0133336
10
18.7848065
20
13.9578313
10
17.9275679
20
15.0430156
10
17.9988718
20
15.102901
10
18.0026883
20
15.1062537
10
18.0081178
20
15.1111163
10
18.0151312
20
15.1175203
10
18.023699
20
15.1254968
10
18.0337911
20
15.1350764
10
18.0453772
20
15.1462891
10
18.0584264
20
15.1591649
10
18.0729073
20
15.1737328
10
18.0887883
20
15.1900219
10
18.1060372
20
15.2080603
10
18.1246213
20
15.2278761
10
18.1445078
20
15.2494967
10
18.1656632
20
15.2729491
10
18.1880537
20
15.2982596
10
18.2116451
20
15.3254544
10
18.2364029
20
15.3545589
10
18.2622922
20
15.3855982
10
18.2892775
20
15.4185968
10
18.3173233
20
15.4535787
10
18.3463934
20
15.4905673
10
18.3764514
20
15.5295858
10
18.4074607
20
15.5706565
10
18.439384
20
15.6138014
10
18.472184
20
15.6590419
10
18.5058229
20
15.706399
10
18.5402626
20
15.7558929
10
18.5754647
20
15.8075435
10
18.6113906
20
15.86137
10
18.6480012
20
15.9173912
10
18.6852572
20
15.9756252
10
18.7231191
20
16.0360897
10
18.7615469
20
16.0988017
10
18.8005006
20
16.1637776
10
18.8399397
20
16.2310334
10
18.8798237
20
16.3005844
10
18.9201115
20
16.3724454
10
18.9607621
20
16.4466307
10
19.0017341
20
16.5231537
10
19.0429858
20
16.6020275
10
19.0844754
20
16.6832646
10
19.1261609
20
16.7668767
10
19.168
20
16.8528753
10
19.2099503
20
16.9412708
10
19.2519692
20
17.0320734
10
19.2940137
20
17.1252925
10
19.336041
20
17.2209369
10
19.3780078
20
17.3190149
10
19.4198709
20
17.4195342
10
19.4615867
20
17.5225017
10
19.5031117
20
17.6279238
10
19.5237889
20
17.6815572
10
19.5341038
20
17.7086048
10
19.5392551
20
17.7221863
10
19.5418291
20
17.7289916
10
19.5431157
20
17.7323978
10
19.5430763
20
17.732502
10
18.8558843
20
18.4615569
10
18.8557826
20
18.4616025
10
18.8523063
20
18.4605193
10
18.8453609
20
18.4583517
10
18.8314989
20
18.4540117
10
18.8038892
20
18.4453124
10
18.7491282
20
18.4278392
10
18.6414373
20
18.3926137
10
18.5361856
20
18.3570526
10
18.4333692
20
18.3212
10
18.3329835
20
18.2850995
10
18.2350237
20
18.248795
10
18.1394839
20
18.21233
10
18.0463579
20
18.1757479
10
17.9556389
20
18.1390921
10
17.8673192
20
18.1024057
10
17.7813908
20
18.0657316
10
17.6978449
20
18.0291128
10
17.6166722
20
17.992592
10
17.5378627
20
17.9562115
10
17.4614059
20
17.9200137
10
17.3872907
20
17.8840408
10
17.3155053
20
17.8483347
10
17.2460374
20
17.8129369
10
17.1788741
20
17.7778892
10
17.1140018
20
17.7432326
10
17.0514065
20
17.7090083
10
16.9910736
20
17.675257
10
16.9329877
20
17.6420193
10
16.8771332
20
17.6093355
10
16.8234935
20
17.5772457
10
16.7720517
20
17.5457895
10
16.7227904
20
17.5150066
10
16.6756915
20
17.484936
10
16.6307363
20
17.4556169
10
16.5879057
20
17.4270877
10
16.54718
20
17.3993868
10
16.5085388
20
17.3725522
10
16.4719615
20
17.3466217
10
16.4374266
20
17.3216326
10
16.4049123
20
17.2976219
10
16.3743962
20
17.2746264
10
16.3458555
20
17.2526825
10
16.3192666
20
17.2318261
10
16.2946056
20
17.2120929
10
16.2718481
20
17.1935182
10
16.2509692
20
17.1761369
10
16.2319434
20
17.1599837
10
16.2147448
20
17.1450926
10
16.1993469
20
17.1314974
10
16.1857229
20
17.1192315
10
16.1738454
20
17.1083279
10
16.1636864
20
17.0988192
10
16.1552178
20
17.0907376
10
16.1484107
20
17.0841147
10
16.1432358
20
17.0789819
10
16.1396636
20
17.07537
10
16.0756711
20
17.0077279
10
15.0430156
20
17.9275679
10
15.1028372
20
17.9989253
10
15.1060136
20
18.0028897
10
15.1105162
20
18.0086213
10
15.116311
20
18.0161459
10
15.1233635
20
18.025489
10
15.1316389
20
18.0366755
10
15.1411019
20
18.0497299
10
15.151717
20
18.0646759
10
15.1634482
20
18.0815372
10
15.1762594
20
18.1003364
10
15.1901138
20
18.1210961
10
15.2049746
20
18.143838
10
15.2208046
20
18.1685833
10
15.2375661
20
18.1953529
10
15.2552214
20
18.224167
10
15.2737321
20
18.2550453
10
15.2930598
20
18.2880068
10
15.3131658
20
18.3230702
10
15.3340111
20
18.3602534
10
15.3555562
20
18.3995739
10
15.3777617
20
18.4410486
10
15.4005876
20
18.4846938
10
15.4239939
20
18.5305252
10
15.4479402
20
18.5785581
10
15.4723859
20
18.628807
10
15.4972903
20
18.6812859
10
15.5226123
20
18.7360083
10
15.5483106
20
18.792987
10
15.5743438
20
18.8522342
10
15.6006702
20
18.9137617
10
15.627248
20
18.9775805
10
15.6540351
20
19.043701
10
15.6809893
20
19.1121331
10
15.7080682
20
19.1828861
10
15.7352294
20
19.2559687
10
15.76243
20
19.3313889
10
15.7896272
20
19.4091541
10
15.8167781
20
19.4892712
10
15.8438395
20
19.5717463
10
15.8707682
20
19.6565852
10
15.8975208
20
19.7437927
10
15.9240539
20
19.8333732
10
15.950324
20
19.9253305
10
15.9762872
20
20.0196677
10
16.0019
20
20.1163873
10
16.0271185
20
20.2154911
10
16.0518988
20
20.3169805
10
16.076197
20
20.4208559
10
16.0999691
20
20.5271175
10
16.123171
20
20.6357646
10
16.1457588
20
20.7467959
10
16.1568085
20
20.803205
10
16.16227
20
20.8316328
10
16.1649845
20
20.8459025
10
16.1663377
20
20.8530513
10
16.1670133
20
20.8566292
10
16.1669564
20
20.856725
10
15.3636053
20
21.4553743
10
15.3634973
20
21.4554015
10
15.3602619
20
21.4537312
10
15.3537984
20
21.4503905
10
15.3409006
20
21.4437093
10
15.315221
20
21.4303478
10
15.2643261
20
21.4036309
10
15.1643882
20
21.3502402
10
15.0669106
20
21.2969426
10
14.9718819
20
21.2437807
10
14.8792901
20
21.190797
10
14.7891227
20
21.1380335
10
14.7013665
20
21.0855321
10
14.6160077
20
21.0333346
10
14.5330321
20
20.9814825
10
14.4524247
20
20.9300169
10
14.3741702
20
20.8789787
10
14.2982523
20
20.8284086
10
14.2246546
20
20.7783471
10
14.1533598
20
20.7288342
10
14.0843502
20
20.6799098
10
14.0176076
20
20.6316134
10
13.9531131
20
20.5839843
10
13.8908473
20
20.5370614
10
13.8307903
20
20.4908832
10
13.7729217
20
20.4454882
10
13.7172203
20
20.4009143
10
13.6636648
20
20.3571991
10
13.6122331
20
20.3143798
10
13.5629026
20
20.2724936
10
13.5156501
20
20.2315768
10
13.4704522
20
20.1916658
10
13.4272847
20
20.1527963
10
13.386123
20
20.115004
10
13.346942
20
20.0783239
10
13.3097161
20
20.0427907
10
13.2744193
20
20.0084387
10
13.241025
20
19.9753018
10
13.2095061
20
19.9434136
10
13.1798352
20
19.9128072
10
13.1519843
20
19.8835153
10
13.125925
20
19.8555701
10
13.1016283
20
19.8290035
10
13.079065
20
19.8038468
10
13.0582054
20
19.7801311
10
13.0390191
20
19.7578868
10
13.0214756
20
19.737144
10
13.0055438
20
19.7179324
10
12.9911923
20
19.700281
10
12.9783892
20
19.6842185
10
12.9671021
20
19.6697732
10
12.9572983
20
19.6569728
10
12.9489449
20
19.6458445
10
12.9420083
20
19.636415
10
12.9364546
20
19.6287107
10
12.9322497
20
19.6227573
10
12.929359
20
19.61858
10
12.8780846
20
19.5408533
10
11.7013889
20
20.2674001
10
11.7479106
20
20.3480613
10
11.7503503
20
20.3525171
10
11.7537893
20
20.3589435
10
11.7581894
20
20.36736
10
11.7635123
20
20.3777858
10
11.7697195
20
20.3902394
10
11.7767718
20
20.4047386
10
11.7846303
20
20.421301
10
11.7932554
20
20.4399431
10
11.8026074
20
20.4606814
10
11.8126465
20
20.4835315
10
11.8233325
20
20.5085084
10
11.834625
20
20.5356267
10
11.8464834
20
20.5649002
10
11.8588669
20
20.5963424
10
11.8717344
20
20.6299659
10
11.8850448
20
20.6657829
10
11.8987567
20
20.7038049
10
11.9128284
20
20.744043
10
11.9272183
20
20.7865074
10
11.9418844
20
20.8312079
10
11.9567847
20
20.8781537
10
11.9718768
20
20.9273533
10
11.9871185
20
20.9788147
10
12.0024672
20
21.0325451
10
12.0178804
20
21.0885514
10
12.0333152
20
21.1468395
10
12.0487289
20
21.2074151
10
12.0640784
20
21.2702828
10
12.0793207
20
21.3354471
10
12.0944127
20
21.4029115
10
12.1093111
20
21.472679
10
12.1239727
20
21.5447521
10
12.1383542
20
21.6191324
10
12.152412
20
21.6958212
10
12.1661028
20
21.7748189
10
12.1793831
20
21.8561254
10
12.1922093
20
21.93974
10
12.2045379
20
22.0256614
10
12.2163254
20
22.1138874
10
12.2275282
20
22.2044156
10
12.2381027
20
22.2972426
10
12.2480054
20
22.3923646
10
12.2571927
20
22.4897771
10
12.2656212
20
22.5894749
10
12.2732473
20
22.6914523
10
12.2800277
20
22.7957029
10
12.285919
20
22.9022196
10
12.2908778
20
23.0109948
10
12.2948609
20
23.1220202
10
12.2978251
20
23.235287
10
12.2989117
20
23.2927579
10
12.2993537
20
23.3217023
10
12.2995491
20
23.3362266
10
12.2996404
20
23.3435017
10
12.2996844
20
23.3471426
10
12.2996117
20
23.347227
10
11.404511
20
23.7972811
10
11.4043998
20
23.7972891
10
11.4015037
20
23.7950823
10
11.3957185
20
23.79067
10
11.3841768
20
23.7818506
10
11.3612076
20
23.7642329
10
11.3157252
20
23.729084
10
11.2265767
20
23.6591504
10
11.1398351
20
23.5897357
10
11.0554815
20
23.52088
10
10.973497
20
23.4526228
10
10.8938617
20
23.3850034
10
10.8165554
20
23.318061
10
10.7415575
20
23.2518341
10
10.6688465
20
23.1863612
10
10.5984006
20
23.1216801
10
10.5301976
20
23.0578285
10
10.4642145
20
22.9948437
10
10.400428
20
22.9327626
10
10.3388142
20
22.8716218
10
10.2793486
20
22.8114572
10
10.2220066
20
22.7523049
10
10.1667626
20
22.6942
10
10.1135908
20
22.6371776
10
10.062465
20
22.5812722
10
10.0133582
20
22.5265181
10
9.9662433
20
22.4729489
10
9.9210925
20
22.420598
10
9.8778777
20
22.3694982
10
9.83657
20
22.3196821
10
9.7971406
20
22.2711817
10
9.7595598
20
22.2240285
10
9.7237977
20
22.1782536
10
9.6898239
20
22.1338878
10
9.6576076
20
22.0909612
10
9.6271176
20
22.0495036
10
9.5983222
20
22.0095442
10
9.5711893
20
21.971112
10
9.5456866
20
21.934235
10
9.5217812
20
21.8989413
10
9.4994399
20
21.8652581
10
9.4786291
20
21.8332123
10
9.4593148
20
21.8028302
10
9.4414627
20
21.7741377
10
9.4250382
20
21.74716
10
9.4100061
20
21.721922
10
9.396331
20
21.698448
10
9.3839774
20
21.6767617
10
9.372909
20
21.6568863
10
9.3630896
20
21.6388446
10
9.3544824
20
21.6226588
10
9.3470504
20
21.6083504
10
9.3407562
20
21.5959406
10
9.3355624
20
21.5854499
10
9.331431
20
21.5768982
10
9.3283238
20
21.5703051
10
9.3262023
20
21.5656893
10
9.289204
20
21.4802397
10
8.0042214
20
21.9914176
10
8.0360297
20
22.0789318
10
8.0376586
20
22.0837436
10
8.0399293
20
22.0906695
10
8.0428011
20
22.0997222
10
8.0462328
20
22.110914
10
8.0501831
20
22.1242562
10
8.0546105
20
22.1397598
10
8.0594736
20
22.1574351
10
8.0647305
20
22.1772918
10
8.0703393
20
22.199339
10
8.076258
20
22.2235852
10
8.0824444
20
22.2500382
10
8.0888563
20
22.2787054
10
8.0954512
20
22.3095934
10
8.1021867
20
22.3427083
10
8.1090201
20
22.3780554
10
8.1159087
20
22.4156396
10
8.1228098
20
22.455465
10
8.1296806
20
22.4975353
10
8.136478
20
22.5418533
10
8.1431591
20
22.5884215
10
8.1496809
20
22.6372415
10
8.1560003
20
22.6883144
10
8.1620743
20
22.7416406
10
8.1678597
20
22.7972201
10
8.1733133
20
22.8550519
10
8.178392
20
22.9151348
10
8.1830526
20
22.9774666
10
8.1872521
20
23.0420447
10
8.1909472
20
23.1088657
10
8.1940948
20
23.1779259
10
8.1966519
20
23.2492206
10
8.1985754
20
23.3227447
10
8.1998223
20
23.3984923
10
8.2003497
20
23.4764571
10
8.2001147
20
23.556632
10
8.1990745
20
23.6390094
10
8.1971863
20
23.723581
10
8.1944076
20
23.8103379
10
8.1906957
20
23.8992704
10
8.1860082
20
23.9903686
10
8.1803028
20
24.0836217
10
8.1735373
20
24.1790181
10
8.1656696
20
24.276546
10
8.1566577
20
24.3761928
10
8.1464598
20
24.4779452
10
8.1350343
20
24.5817893
10
8.1223396
20
24.6877108
10
8.1083344
20
24.7956946
10
8.0929777
20
24.905725
10
8.0762283
20
25.0177857
10
8.0673186
20
25.0745722
10
8.0627278
20
25.1031535
10
8.0603981
20
25.1174911
10
8.0592247
20
25.1246716
10
8.0586358
20
25.1282648
10
8.0585495
20
25.1283353
10
7.0988963
20
25.4161194
10
7.0987855
20
25.416108
10
7.0963165
20
25.4134318
10
7.0913855
20
25.408082
10
7.0815505
20
25.3973924
10
7.0619896
20
25.3760537
10
7.0233017
20
25.333541
10
6.9476515
20
25.2491893
10
6.8742813
20
25.1657667
10
6.803166
20
25.0833092
10
6.7342797
20
25.0018525
10
6.6675962
20
24.9214319
10
6.6030889
20
24.8420824
10
6.5407305
20
24.7638384
10
6.4804934
20
24.686734
10
6.4223495
20
24.6108028
10
6.3662703
20
24.5360779
10
6.3122269
20
24.4625922
10
6.2601897
20
24.3903778
10
6.2101289
20
24.3194667
10
6.1620143
20
24.2498901
10
6.1158151
20
24.181679
10
6.0715002
20
24.1148639
10
6.029038
20
24.0494746
10
5.9883968
20
23.9855407
10
5.949544
20
23.9230911
10
5.9124471
20
23.8621543
10
5.8770729
20
23.8027584
10
5.8433879
20
23.7449308
10
5.8113583
20
23.6886985
10
5.7809499
20
23.634088
10
5.7521281
20
23.5811253
10
5.7248581
20
23.5298359
10
5.6991045
20
23.4802446
10
5.6748317
20
23.4323758
10
5.6520039
20
23.3862535
10
5.6305848
20
23.341901
10
5.6105379
20
23.299341
10
5.5918262
20
23.2585958
10
5.5744127
20
23.2196872
10
5.5582598
20
23.1826362
10
5.5433299
20
23.1474634
10
5.5295848
20
23.114189
10
5.5169864
20
23.0828324
10
5.505496
20
23.0534125
10
5.4950748
20
23.0259476
10
5.4856837
20
23.0004555
10
5.4772835
20
22.9769535
10
5.4698346
20
22.9554581
10
5.4632973
20
22.9359854
10
5.4576315
20
22.9185508
10
5.452797
20
22.9031693
10
5.4487534
20
22.8898551
10
5.4454602
20
22.8786218
10
5.4428765
20
22.8694827
10
5.4409614
20
22.8624501
10
5.4396737
20
22.857536
10
5.4180756
20
22.7669599
10
4.0638497
20
23.047237
10
4.0799781
20
23.1389451
10
4.0807466
20
23.1439666
10
4.0817803
20
23.1511816
10
4.0830364
20
23.1605956
10
4.0844725
20
23.1722132
10
4.0860459
20
23.1860386
10
4.0877139
20
23.2020755
10
4.0894338
20
23.2203268
10
4.0911628
20
23.2407946
10
4.0928579
20
23.2634809
10
4.0944764
20
23.2883865
10
4.0959753
20
23.3155119
10
4.0973118
20
23.344857
10
4.0984429
20
23.3764209
10
4.0993257
20
23.4102023
10
4.0999173
20
23.446199
10
4.1001749
20
23.4844084
10
4.1000555
20
23.5248272
10
4.0995164
20
23.5674514
10
4.0985148
20
23.6122765
10
4.097008
20
23.6592974
10
4.0949532
20
23.7085082
10
4.0923079
20
23.7599025
10
4.0890296
20
23.8134733
10
4.0850758
20
23.869213
10
4.0804042
20
23.9271133
10
4.0749724
20
23.9871653
10
4.0687385
20
24.0493594
10
4.0616602
20
24.1136856
10
4.0536958
20
24.1801332
10
4.0448035
20
24.2486907
10
4.0349415
20
24.3193464
10
4.0240685
20
24.3920874
10
4.0121431
20
24.4669008
10
3.999124
20
24.5437728
10
3.9849703
20
24.6226888
10
3.9696412
20
24.7036341
10
3.9530961
20
24.786593
10
3.9352943
20
24.8715493
10
3.9161959
20
24.9584862
10
3.8957606
20
25.0473864
10
3.8739486
20
25.138232
10
3.8507205
20
25.2310044
10
3.8260367
20
25.3256844
10
3.7998583
20
25.4222524
10
3.7721462
20
25.5206881
10
3.7428619
20
25.6209706
10
3.711967
20
25.7230785
10
3.6794234
20
25.8269898
10
3.6451934
20
25.9326819
10
3.6092393
20
26.0401316
10
3.5906041
20
26.0945083
10
3.58112
20
26.1218582
10
3.576336
20
26.1355734
10
3.5739335
20
26.1424411
10
3.5727296
20
26.1458774
10
3.5726324
20
26.1459319
10
2.5775853
20
26.2627019
10
2.5774782
20
26.2626714
10
2.5755114
20
26.2596071
10
2.5715842
20
26.2534823
10
2.563755
20
26.2412473
10
2.5481966
20
26.2168361
10
2.5174787
20
26.1682511
10
2.4576253
20
26.0720444
10
2.399856
20
25.9771486
10
2.3441397
20
25.8835947
10
2.2904447
20
25.7914135
10
2.2387392
20
25.7006353
10
2.1889908
20
25.6112897
10
2.1411667
20
25.523406
10
2.0952337
20
25.4370129
10
2.0511585
20
25.3521387
10
2.0089072
20
25.268811
10
1.9684454
20
25.1870571
10
1.9297387
20
25.1069037
10
1.892752
20
25.0283769
10
1.8574502
20
24.9515023
10
1.8237976
20
24.8763051
10
1.7917583
20
24.8028098
10
1.761296
20
24.7310405
10
1.7323741
20
24.6610206
10
1.7049559
20
24.592773
10
1.6790041
20
24.5263202
10
1.6544813
20
24.461684
10
1.6313497
20
24.3988856
10
1.6095714
20
24.3379457
10
1.589108
20
24.2788845
10
1.5699209
20
24.2217216
10
1.5519715
20
24.1664759
10
1.5352206
20
24.113166
10
1.5196289
20
24.0618096
10
1.505157
20
24.0124239
10
1.491765
20
23.9650258
10
1.4794131
20
23.9196313
10
1.4680611
20
23.8762559
10
1.4576685
20
23.8349145
10
1.4481949
20
23.7956215
10
1.4395994
20
23.7583906
10
1.4318412
20
23.7232349
10
1.4248792
20
23.6901669
10
1.418672
20
23.6591987
10
1.4131784
20
23.6303414
10
1.4083567
20
23.6036059
10
1.4041652
20
23.5790023
10
1.4005621
20
23.5565399
10
1.3975054
20
23.5362279
10
1.3949532
20
23.5180743
10
1.3928631
20
23.502087
10
1.391193
20
23.4882728
10
1.3899005
20
23.4766384
10
1.388943
20
23.4671894
10
1.3882782
20
23.4599311
10
1.3878633
20
23.4548681
10
1.3823217
20
23.3619176
10
0
20
23.4027778
10
-0.0000416
20
23.4958933
10
-0.0001567
20
23.500972
10
-0.0003917
20
23.5082569
10
-0.0007893
20
23.5177459
10
-0.0013924
20
23.5294364
10
-0.0022437
20
23.543325
10
-0.0033857
20
23.5594079
10
-0.0048613
20
23.5776806
10
-0.0067128
20
23.5981377
10
-0.0089828
20
23.6207736
10
-0.0117138
20
23.6455819
10
-0.0149479
20
23.6725555
10
-0.0187274
20
23.7016869
10
-0.0230946
20
23.7329677
10
-0.0280912
20
23.7663892
10
-0.0337594
20
23.8019417
10
-0.0401407
20
23.8396154
10
-0.0472769
20
23.8793994
10
-0.0552094
20
23.9212824
10
-0.0639796
20
23.9652526
10
-0.0736287
20
24.0112974
10
-0.0841976
20
24.0594038
10
-0.0957272
20
24.109558
10
-0.1082582
20
24.1617457
10
-0.121831
20
24.215952
10
-0.136486
20
24.2721614
10
-0.1522631
20
24.3303579
10
-0.1692022
20
24.3905246
10
-0.1873431
20
24.4526445
10
-0.206725
20
24.5166995
10
-0.2273871
20
24.5826714
10
-0.2493685
20
24.6505411
10
-0.2727077
20
24.720289
10
-0.2974432
20
24.791895
10
-0.3236131
20
24.8653383
10
-0.3512554
20
24.9405977
10
-0.3804076
20
25.0176514
10
-0.4111071
20
25.0964769
10
-0.4433908
20
25.1770512
10
-0.4772956
20
25.259351
10
-0.5128578
20
25.3433521
10
-0.5501135
20
25.4290299
10
-0.5890985
20
25.5163593
10
-0.6298483
20
25.6053147
10
-0.6723979
20
25.6958697
10
-0.7167822
20
25.7879978
10
-0.7630355
20
25.8816716
10
-0.8111918
20
25.9768634
10
-0.861285
20
26.0735449
10
-0.9133482
20
26.1716873
10
-0.9674146
20
26.2712614
10
-0.995209
20
26.3215759
10
-1.0092984
20
26.3468635
10
-1.0163913
20
26.3595396
10
-1.0199498
20
26.3658857
10
-1.0217321
20
26.3690608
10
-1.0218373
20
26.3690975
10
-2.0220443
20
26.3113054
10
-2.0221446
20
26.3112568
10
-2.0235493
20
26.3078976
10
-2.0263533
20
26.3011838
10
-2.031939
20
26.2877751
10
-2.0430221
20
26.2610331
10
-2.0648366
20
26.2078522
10
-2.1070745
20
26.1027137
10
-2.1474877
20
25.999228
10
-2.1861121
20
25.8974203
10
-2.2229842
20
25.7973156
10
-2.2581408
20
25.6989379
10
-2.2916187
20
25.6023109
10
-2.3234554
20
25.5074578
10
-2.3536885
20
25.414401
10
-2.3823558
20
25.3231627
10
-2.4094956
20
25.2337641
10
-2.4351463
20
25.1462261
10
-2.4593465
20
25.060569
10
-2.4821352
20
24.9768125
10
-2.5035516
20
24.8949758
10
-2.5236351
20
24.8150773
10
-2.5424253
20
24.737135
10
-2.5599622
20
24.6611663
10
-2.5762858
20
24.5871879
10
-2.5914364
20
24.515216
10
-2.6054545
20
24.4452663
10
-2.6183808
20
24.3773537
10
-2.6302561
20
24.3114926
10
-2.6411215
20
24.2476967
10
-2.6510182
20
24.1859794
10
-2.6599875
20
24.1263531
10
-2.668071
20
24.0688299
10
-2.6753102
20
24.0134211
10
-2.6817471
20
23.9601374
10
-2.6874234
20
23.908989
10
-2.6923813
20
23.8599855
10
-2.6966629
20
23.8131358
10
-2.7003104
20
23.7684481
10
-2.7033662
20
23.7259301
10
-2.7058728
20
23.685589
10
-2.7078726
20
23.6474311
10
-2.7094082
20
23.6114623
10
-2.7105223
20
23.5776878
10
-2.7112575
20
23.5461121
10
-2.7116567
20
23.5167393
10
-2.7117626
20
23.4895727
10
-2.711618
20
23.464615
10
-2.7112658
20
23.4418682
10
-2.7107489
20
23.421334
10
-2.71011
20
23.403013
10
-2.7093922
20
23.3869056
10
-2.7086381
20
23.3730113
10
-2.7078907
20
23.3613292
10
-2.7071928
20
23.3518575
10
-2.7065872
20
23.344594
10
-2.7061165
20
23.3395359
10
-2.6954332
20
23.2470352
10
-4.0638497
20
23.047237
10
-4.0800601
20
23.1389307
10
-4.0810553
20
23.1439122
10
-4.0825517
20
23.1510456
10
-4.084591
20
23.1603214
10
-4.087215
20
23.1717296
10
-4.0904651
20
23.1852594
10
-4.0943826
20
23.2008997
10
-4.0990087
20
23.2186385
10
-4.1043844
20
23.2384633
10
-4.1105507
20
23.2603611
10
-4.117548
20
23.2843183
10
-4.1254169
20
23.3103206
10
-4.1341977
20
23.338353
10
-4.1439303
20
23.3684003
10
-4.1546546
20
23.4004463
10
-4.1664103
20
23.4344745
10
-4.1792366
20
23.4704677
10
-4.1931728
20
23.5084081
10
-4.2082578
20
23.5482774
10
-4.2245301
20
23.5900566
10
-4.2420281
20
23.6337264
10
-4.2607901
20
23.6792667
10
-4.2808537
20
23.7266568
10
-4.3022566
20
23.7758757
10
-4.3250361
20
23.8269016
10
-4.349229
20
23.8797122
10
-4.3748722
20
23.9342848
10
-4.4020018
20
23.9905961
10
-4.4306541
20
24.0486221
10
-4.4608645
20
24.1083384
10
-4.4926687
20
24.16972
10
-4.5261015
20
24.2327416
10
-4.5611978
20
24.2973771
10
-4.5979917
20
24.3635999
10
-4.6365174
20
24.4313831
10
-4.6768084
20
24.5006991
10
-4.7188979
20
24.5715199
10
-4.7628189
20
24.643817
10
-4.8086038
20
24.7175612
10
-4.8562847
20
24.7927232
10
-4.9058932
20
24.8692728
10
-4.9574608
20
24.9471796
10
-5.0110181
20
25.0264126
10
-5.0665957
20
25.1069404
10
-5.1242236
20
25.1887311
10
-5.1839315
20
25.2717523
10
-5.2457483
20
25.3559712
10
-5.309703
20
25.4413545
10
-5.3758237
20
25.5278686
10
-5.4441382
20
25.6154794
10
-5.514674
20
25.7041521
10
-5.5507833
20
25.7488758
10
-5.5690497
20
25.7713326
10
-5.578236
20
25.7825844
10
-5.5828425
20
25.7882162
10
-5.5851491
20
25.7910336
10
-5.5852591
20
25.7910515
10
-6.5602351
20
25.5604533
10
-6.5603254
20
25.560388
10
-6.5611255
20
25.5568358
10
-6.562721
20
25.5497372
10
-6.5658935
20
25.5355622
10
-6.5721645
20
25.507302
10
-6.5844128
20
25.4511409
10
-6.607752
20
25.3402651
10
-6.6295811
20
25.2313339
10
-6.64994
20
25.1243659
10
-6.6688689
20
25.0193792
10
-6.6864083
20
24.9163912
10
-6.7025985
20
24.8154189
10
-6.7174805
20
24.7164784
10
-6.7310951
20
24.6195855
10
-6.7434836
20
24.5247552
10
-6.7546871
20
24.432002
10
-6.7647473
20
24.3413397
10
-6.7737056
20
24.2527816
10
-6.7816039
20
24.1663404
10
-6.7884842
20
24.082028
10
-6.7943883
20
23.9998559
10
-6.7993586
20
23.9198348
10
-6.8034372
20
23.841975
10
-6.8066666
20
23.7662859
10
-6.8090893
20
23.6927766
10
-6.8107478
20
23.6214554
10
-6.8116848
20
23.5523299
10
-6.811943
20
23.4854072
10
-6.8115653
20
23.4206938
10
-6.8105945
20
23.3581956
10
-6.8090736
20
23.2979176
10
-6.8070454
20
23.2398646
10
-6.804553
20
23.1840405
10
-6.8016395
20
23.1304486
10
-6.7983478
20
23.0790916
10
-6.794721
20
23.0299716
10
-6.7908021
20
22.9830901
10
-6.7866343
20
22.9384479
10
-6.7822606
20
22.8960453
10
-6.7777239
20
22.8558818
10
-6.7730672
20
22.8179563
10
-6.7683336
20
22.7822673
10
-6.7635659
20
22.7488124
10
-6.7588069
20
22.7175888
10
-6.7540995
20
22.688593
10
-6.7494863
20
22.6618207
10
-6.7450101
20
22.6372672
10
-6.7407133
20
22.6149272
10
-6.7366385
20
22.5947947
10
-6.7328279
20
22.576863
10
-6.7293239
20
22.5611249
10
-6.7261686
20
22.5475727
10
-6.723404
20
22.5361978
10
-6.721072
20
22.5269912
10
-6.7192143
20
22.5199433
10
-6.7178724
20
22.5150437
10
-6.6912889
20
22.4258035
10
-8.0042214
20
21.9914176
10
-8.0361079
20
22.0789033
10
-8.0379531
20
22.0836364
10
-8.0406654
20
22.0904016
10
-8.0442845
20
22.0991823
10
-8.0488496
20
22.1099615
10
-8.0543998
20
22.1227214
10
-8.0609736
20
22.1374438
10
-8.0686098
20
22.1541098
10
-8.0773464
20
22.1726999
10
-8.0872215
20
22.1931944
10
-8.0982727
20
22.2155725
10
-8.1105373
20
22.2398133
10
-8.1240524
20
22.2658951
10
-8.1388548
20
22.2937958
10
-8.154981
20
22.3234928
10
-8.1724669
20
22.3549626
10
-8.1913486
20
22.3881817
10
-8.2116613
20
22.4231257
10
-8.2334403
20
22.4597698
10
-8.2567203
20
22.4980887
10
-8.2815357
20
22.5380565
10
-8.3079206
20
22.579647
10
-8.3359086
20
22.6228331
10
-8.3655332
20
22.6675877
10
-8.3968271
20
22.7138827
10
-8.429823
20
22.76169
10
-8.464553
20
22.8109807
10
-8.5010488
20
22.8617254
10
-8.5393419
20
22.9138945
10
-8.579463
20
22.9674575
10
-8.6214428
20
23.0223839
10
-8.6653113
20
23.0786425
10
-8.7110982
20
23.1362016
10
-8.7588326
20
23.1950292
10
-8.8085434
20
23.2550927
10
-8.8602589
20
23.3163592
10
-8.9140069
20
23.3787953
10
-8.9698149
20
23.4423672
10
-9.0277098
20
23.5070407
10
-9.087718
20
23.572781
10
-9.1498656
20
23.6395532
10
-9.2141781
20
23.7073218
10
-9.2806804
20
23.776051
10
-9.3493972
20
23.8457044
10
-9.4203524
20
23.9162455
10
-9.4935696
20
23.9876373
10
-9.5690718
20
24.0598424
10
-9.6468815
20
24.1328229
10
-9.7270207
20
24.206541
10
-9.8095109
20
24.280958
10
-9.8943729
20
24.3560352
10
-9.9376998
20
24.3938091
10
-9.9595883
20
24.4127528
10
-9.9705889
20
24.4222385
10
-9.9761033
20
24.4269848
10
-9.9788641
20
24.4293588
10
-9.9789755
20
24.4293574
10
-10.8990966
20
24.0329597
10
-10.8991741
20
24.0328797
10
-10.8993452
20
24.0292426
10
-10.8996839
20
24.0219747
10
-10.9003467
20
24.0074642
10
-10.9016151
20
23.9785444
10
-10.903925
20
23.9211096
10
-10.9076563
20
23.8078655
10
-10.910238
20
23.6967986
10
-10.9117129
20
23.5879204
10
-10.9121235
20
23.4812417
10
-10.9115126
20
23.3767727
10
-10.9099232
20
23.2745229
10
-10.9073983
20
23.1745013
10
-10.9039808
20
23.0767162
10
-10.8997139
20
22.9811754
10
-10.8946409
20
22.8878858
10
-10.8888048
20
22.796854
10
-10.8822491
20
22.7080857
10
-10.8750171
20
22.6215862
10
-10.8671521
20
22.53736
10
-10.8586975
20
22.455411
10
-10.8496968
20
22.3757425
10
-10.8401932
20
22.2983573
10
-10.8302303
20
22.2232574
10
-10.8198514
20
22.1504442
10
-10.8090999
20
22.0799184
10
-10.7980191
20
22.0116804
10
-10.7866525
20
21.9457296
10
-10.7750431
20
21.8820649
10
-10.7632344
20
21.8206847
10
-10.7512694
20
21.7615867
10
-10.7391912
20
21.7047678
10
-10.727043
20
21.6502246
10
-10.7148675
20
21.5979528
10
-10.7027078
20
21.5479476
10
-10.6906065
20
21.5002037
10
-10.6786063
20
21.4547149
10
-10.6667498
20
21.4114747
10
-10.6550793
20
21.3704757
10
-10.6436372
20
21.3317102
10
-10.6324656
20
21.2951695
10
-10.6216066
20
21.2608447
10
-10.6111019
20
21.228726
10
-10.6009933
20
21.1988031
10
-10.5913223
20
21.1710652
10
-10.5821303
20
21.1455007
10
-10.5734584
20
21.1220975
10
-10.5653476
20
21.1008431
10
-10.5578387
20
21.081724
10
-10.5509723
20
21.0647264
10
-10.5447886
20
21.0498359
10
-10.5393279
20
21.0370375
10
-10.5346301
20
21.0263155
10
-10.5307348
20
21.0176537
10
-10.5276814
20
21.0110354
10
-10.5255092
20
21.0064433
10
-10.4838331
20
20.923175
10
-11.7013889
20
20.2674001
10
-11.7479827
20
20.3480197
10
-11.7506217
20
20.3523604
10
-11.7544676
20
20.3585518
10
-11.7595565
20
20.3665707
10
-11.7659241
20
20.3763934
10
-11.7736056
20
20.3879957
10
-11.7826361
20
20.4013529
10
-11.7930503
20
20.4164397
10
-11.8048823
20
20.4332303
10
-11.8181662
20
20.4516986
10
-11.8329354
20
20.4718177
10
-11.849223
20
20.4935605
10
-11.8670619
20
20.5168992
10
-11.8864843
20
20.5418057
10
-11.9075223
20
20.5682512
10
-11.9302073
20
20.5962065
10
-11.9545705
20
20.6256422
10
-11.9806427
20
20.656528
10
-12.008454
20
20.6888335
10
-12.0380343
20
20.7225278
10
-12.069413
20
20.7575792
10
-12.1026192
20
20.7939561
10
-12.1376812
20
20.8316261
10
-12.1746272
20
20.8705565
10
-12.2134848
20
20.9107141
10
-12.254281
20
20.9520654
10
-12.2970426
20
20.9945764
10
-12.3417958
20
21.0382128
10
-12.3885661
20
21.0829398
10
-12.4373788
20
21.1287221
10
-12.4882587
20
21.1755244
10
-12.54123
20
21.2233106
10
-12.5963163
20
21.2720444
10
-12.6535408
20
21.3216893
10
-12.7129263
20
21.3722081
10
-12.7744949
20
21.4235635
10
-12.8382683
20
21.4757178
10
-12.9042676
20
21.528633
10
-12.9725133
20
21.5822706
10
-13.0430256
20
21.6365918
10
-13.1158239
20
21.6915578
10
-13.1909272
20
21.7471291
10
-13.268354
20
21.8032661
10
-13.348122
20
21.8599288
10
-13.4302486
20
21.917077
10
-13.5147505
20
21.9746701
10
-13.6016439
20
22.0326674
10
-13.6909444
20
22.0910277
10
-13.7826671
20
22.1497098
10
-13.8768265
20
22.208672
10
-13.9734363
20
22.2678725
10
-14.0226643
20
22.2975489
10
-14.0475098
20
22.3124039
10
-14.0599905
20
22.3198352
10
-14.0662453
20
22.3235519
10
-14.0693764
20
22.3254104
10
-14.0694859
20
22.3253897
10
-14.9067945
20
21.7752368
10
-14.906857
20
21.7751445
10
-14.9063939
20
21.771533
10
-14.9054653
20
21.7643167
10
-14.9035983
20
21.7499116
10
-14.8998256
20
21.7212108
10
-14.892127
20
21.6642475
10
-14.8761369
20
21.5520759
10
-14.8593929
20
21.442248
10
-14.8419388
20
21.3347678
10
-14.8238186
20
21.2296385
10
-14.8050762
20
21.1268627
10
-14.7857555
20
21.0264423
10
-14.7659003
20
20.9283787
10
-14.7455545
20
20.8326727
10
-14.724762
20
20.7393242
10
-14.7035664
20
20.6483329
10
-14.6820116
20
20.5596975
10
-14.660141
20
20.4734162
10
-14.6379984
20
20.3894866
10
-14.6156271
20
20.3079057
10
-14.5930707
20
20.2286698
10
-14.5703724
20
20.1517747
10
-14.5475754
20
20.0772154
10
-14.5247229
20
20.0049864
10
-14.5018578
20
19.9350817
10
-14.479023
20
19.8674944
10
-14.4562611
20
19.8022172
10
-14.4336149
20
19.7392421
10
-14.4111267
20
19.6785606
10
-14.3888388
20
19.6201635
10
-14.3667933
20
19.564041
10
-14.3450322
20
19.5101826
10
-14.3235971
20
19.4585776
10
-14.3025298
20
19.4092141
10
-14.2818715
20
19.3620802
10
-14.2616634
20
19.3171629
10
-14.2419464
20
19.2744491
10
-14.2227615
20
19.2339246
10
-14.2041489
20
19.1955751
10
-14.1861491
20
19.1593853
10
-14.168802
20
19.1253398
10
-14.1521475
20
19.0934221
10
-14.136225
20
19.0636154
10
-14.1210739
20
19.0359025
10
-14.1067332
20
19.0102653
10
-14.0932416
20
18.9866854
10
-14.0806376
20
18.9651436
10
-14.0689592
20
18.9456205
10
-14.0582444
20
18.9280958
10
-14.0485306
20
18.9125488
10
-14.0398552
20
18.8989583
10
-14.0322551
20
18.8873025
10
-14.0257667
20
18.8775592
10
-14.0204265
20
18.8697054
10
-14.0162703
20
18.8637179
10
-14.0133336
20
18.8595727
10
-13.9578313
20
18.7848065
10
-15.0430156
20
17.9275679
10
-15.102901
20
17.9988718
10
-15.1062537
20
18.0026883
10
-15.1111163
20
18.0081178
10
-15.1175203
20
18.0151312
10
-15.1254968
20
18.023699
10
-15.1350764
20
18.0337911
10
-15.1462891
20
18.0453772
10
-15.1591649
20
18.0584264
10
-15.1737328
20
18.0729073
10
-15.1900219
20
18.0887883
10
-15.2080603
20
18.1060372
10
-15.2278761
20
18.1246213
10
-15.2494967
20
18.1445078
10
-15.2729491
20
18.1656632
10
-15.2982596
20
18.1880537
10
-15.3254544
20
18.2116451
10
-15.3545589
20
18.2364029
10
-15.3855982
20
18.2622922
10
-15.4185968
20
18.2892775
10
-15.4535787
20
18.3173233
10
-15.4905673
20
18.3463934
10
-15.5295858
20
18.3764514
10
-15.5706565
20
18.4074607
10
-15.6138014
20
18.439384
10
-15.6590419
20
18.472184
10
-15.706399
20
18.5058229
10
-15.7558929
20
18.5402626
10
-15.8075435
20
18.5754647
10
-15.86137
20
18.6113906
10
-15.9173912
20
18.6480012
10
-15.9756252
20
18.6852572
10
-16.0360897
20
18.7231191
10
-16.0988017
20
18.7615469
10
-16.1637776
20
18.8005006
10
-16.2310334
20
18.8399397
10
-16.3005844
20
18.8798237
10
-16.3724454
20
18.9201115
10
-16.4466307
20
18.9607621
10
-16.5231537
20
19.0017341
10
-16.6020275
20
19.0429858
10
-16.6832646
20
19.0844754
10
-16.7668767
20
19.1261609
10
-16.8528753
20
19.168
10
-16.9412708
20
19.2099503
10
-17.0320734
20
19.2519692
10
-17.1252925
20
19.2940137
10
-17.2209369
20
19.336041
10
-17.3190149
20
19.3780078
10
-17.4195342
20
19.4198709
10
-17.5225017
20
19.4615867
10
-17.6279238
20
19.5031117
10
-17.6815572
20
19.5237889
10
-17.7086048
20
19.5341038
10
-17.7221863
20
19.5392551
10
-17.7289916
20
19.5418291
10
-17.7323978
20
19.5431157
10
-17.732502
20
19.5430763
10
-18.4615569
20
18.8558843
10
-18.4616025
20
18.8557826
10
-18.4605193
20
18.8523063
10
-18.4583517
20
18.8453609
10
-18.4540117
20
18.8314989
10
-18.4453124
20
18.8038892
10
-18.4278392
20
18.7491282
10
-18.3926137
20
18.6414373
10
-18.3570526
20
18.5361856
10
-18.3212
20
18.4333692
10
-18.2850995
20
18.3329835
10
-18.248795
20
18.2350237
10
-18.21233
20
18.1394839
10
-18.1757479
20
18.0463579
10
-18.1390921
20
17.9556389
10
-18.1024057
20
17.8673192
10
-18.0657316
20
17.7813908
10
-18.0291128
20
17.6978449
10
-17.992592
20
17.6166722
10
-17.9562115
20
17.5378627
10
-17.9200137
20
17.4614059
10
-17.8840408
20
17.3872907
10
-17.8483347
20
17.3155053
10
-17.8129369
20
17.2460374
10
-17.7778892
20
17.1788741
10
-17.7432326
20
17.1140018
10
-17.7090083
20
17.0514065
10
-17.675257
20
16.9910736
10
-17.6420193
20
16.9329877
10
-17.6093355
20
16.8771332
10
-17.5772457
20
16.8234935
10
-17.5457895
20
16.7720517
10
-17.5150066
20
16.7227904
10
-17.484936
20
16.6756915
10
-17.4556169
20
16.6307363
10
-17.4270877
20
16.5879057
10
-17.3993868
20
16.54718
10
-17.3725522
20
16.5085388
10
-17.3466217
20
16.4719615
10
-17.3216326
20
16.4374266
10
-17.2976219
20
16.4049123
10
-17.2746264
20
16.3743962
10
-17.2526825
20
16.3458555
10
-17.2318261
20
16.3192666
10
-17.2120929
20
16.2946056
10
-17.1935182
20
16.2718481
10
-17.1761369
20
16.2509692
10
-17.1599837
20
16.2319434
10
-17.1450926
20
16.2147448
10
-17.1314974
20
16.1993469
10
-17.1192315
20
16.1857229
10
-17.1083279
20
16.1738454
10
-17.0988192
20
16.1636864
10
-17.0907376
20
16.1552178
10
-17.0841147
20
16.1484107
10
-17.0789819
20
16.1432358
10
-17.07537
20
16.1396636
10
-17.0077279
20
16.0756711
10
-17.9275679
20
15.0430156
10
-17.9989253
20
15.1028372
10
-18.0028897
20
15.1060136
10
-18.0086213
20
15.1105162
10
-18.0161459
20
15.116311
10
-18.025489
20
15.1233635
10
-18.0366755
20
15.1316389
10
-18.0497299
20
15.1411019
10
-18.0646759
20
15.151717
10
-18.0815372
20
15.1634482
10
-18.1003364
20
15.1762594
10
-18.1210961
20
15.1901138
10
-18.143838
20
15.2049746
10
-18.1685833
20
15.2208046
10
-18.1953529
20
15.2375661
10
-18.224167
20
15.2552214
10
-18.2550453
20
15.2737321
10
-18.2880068
20
15.2930598
10
-18.3230702
20
15.3131658
10
-18.3602534
20
15.3340111
10
-18.3995739
20
15.3555562
10
-18.4410486
20
15.3777617
10
-18.4846938
20
15.4005876
10
-18.5305252
20
15.4239939
10
-18.5785581
20
15.4479402
10
-18.628807
20
15.4723859
10
-18.6812859
20
15.4972903
10
-18.7360083
20
15.5226123
10
-18.792987
20
15.5483106
10
-18.8522342
20
15.5743438
10
-18.9137617
20
15.6006702
10
-18.9775805
20
15.627248
10
-19.043701
20
15.6540351
10
-19.1121331
20
15.6809893
10
-19.1828861
20
15.7080682
10
-19.2559687
20
15.7352294
10
-19.3313889
20
15.76243
10
-19.4091541
20
15.7896272
10
-19.4892712
20
15.8167781
10
-19.5717463
20
15.8438395
10
-19.6565852
20
15.8707682
10
-19.7437927
20
15.8975208
10
-19.8333732
20
15.9240539
10
-19.9253305
20
15.950324
10
-20.0196677
20
15.9762872
10
-20.1163873
20
16.0019
10
-20.2154911
20
16.0271185
10
-20.3169805
20
16.0518988
10
-20.4208559
20
16.076197
10
-20.5271175
20
16.0999691
10
-20.6357646
20
16.123171
10
-20.7467959
20
16.1457588
10
-20.803205
20
16.1568085
10
-20.8316328
20
16.16227
10
-20.8459025
20
16.1649845
10
-20.8530513
20
16.1663377
10
-20.8566292
20
16.1670133
10
-20.856725
20
16.1669564
10
-21.4553743
20
15.3636053
10
-21.4554015
20
15.3634973
10
-21.4537312
20
15.3602619
10
-21.4503905
20
15.3537984
10
-21.4437093
20
15.3409006
10
-21.4303478
20
15.315221
10
-21.4036309
20
15.2643261
10
-21.3502402
20
15.1643882
10
-21.2969426
20
15.0669106
10
-21.2437807
20
14.9718819
10
-21.190797
20
14.8792901
10
-21.1380335
20
14.7891227
10
-21.0855321
20
14.7013665
10
-21.0333346
20
14.6160077
10
-20.9814825
20
14.5330321
10
-20.9300169
20
14.4524247
10
-20.8789787
20
14.3741702
10
-20.8284086
20
14.2982523
10
-20.7783471
20
14.2246546
10
-20.7288342
20
14.1533598
10
-20.6799098
20
14.0843502
10
-20.6316134
20
14.0176076
10
-20.5839843
20
13.9531131
10
-20.5370614
20
13.8908473
10
-20.4908832
20
13.8307903
10
-20.4454882
20
13.7729217
10
-20.4009143
20
13.7172203
10
-20.3571991
20
13.6636648
10
-20.3143798
20
13.6122331
10
-20.2724936
20
13.5629026
10
-20.2315768
20
13.5156501
10
-20.1916658
20
13.4704522
10
-20.1527963
20
13.4272847
10
-20.115004
20
13.386123
10
-20.0783239
20
13.346942
10
-20.0427907
20
13.3097161
10
-20.0084387
20
13.2744193
10
-19.9753018
20
13.241025
10
-19.9434136
20
13.2095061
10
-19.9128072
20
13.1798352
10
-19.8835153
20
13.1519843
10
-19.8555701
20
13.125925
10
-19.8290035
20
13.1016283
10
-19.8038468
20
13.079065
10
-19.7801311
20
13.0582054
10
-19.7578868
20
13.0390191
10
-19.737144
20
13.0214756
10
-19.7179324
20
13.0055438
10
-19.700281
20
12.9911923
10
-19.6842185
20
12.9783892
10
-19.6697732
20
12.9671021
10
-19.6569728
20
12.9572983
10
-19.6458445
20
12.9489449
10
-19.636415
20
12.9420083
10
-19.6287107
20
12.9364546
10
-19.6227573
20
12.9322497
10
-19.61858
20
12.929359
10
-19.5408533
20
12.8780846
10
-20.2674001
20
11.7013889
10
-20.3480613
20
11.7479106
10
-20.3525171
20
11.7503503
10
-20.3589435
20
11.7537893
10
-20.36736
20
11.7581894
10
-20.3777858
20
11.7635123
10
-20.3902394
20
11.7697195
10
-20.4047386
20
11.7767718
10
-20.421301
20
11.7846303
10
-20.4399431
20
11.7932554
10
-20.4606814
20
11.8026074
10
-20.4835315
20
11.8126465
10
-20.5085084
20
11.8233325
10
-20.5356267
20
11.834625
10
-20.5649002
20
11.8464834
10
-20.5963424
20
11.8588669
10
-20.6299659
20
11.8717344
10
-20.6657829
20
11.8850448
10
-20.7038049
20
11.8987567
10
-20.744043
20
11.9128284
10
-20.7865074
20
11.9272183
10
-20.8312079
20
11.9418844
10
-20.8781537
20
11.9567847
10
-20.9273533
20
11.9718768
10
-20.9788147
20
11.9871185
10
-21.0325451
20
12.0024672
10
-21.0885514
20
12.0178804
10
-21.1468395
20
12.0333152
10
-21.2074151
20
12.0487289
10
-21.2702828
20
12.0640784
10
-21.3354471
20
12.0793207
10
-21.4029115
20
12.0944127
10
-21.472679
20
12.1093111
10
-21.5447521
20
12.1239727
10
-21.6191324
20
12.1383542
10
-21.6958212
20
12.152412
10
-21.7748189
20
12.1661028
10
-21.8561254
20
12.1793831
10
-21.93974
20
12.1922093
10
-22.0256614
20
12.2045379
10
-22.1138874
20
12.2163254
10
-22.2044156
20
12.2275282
10
-22.2972426
20
12.2381027
10
-22.3923646
20
12.2480054
10
-22.4897771
20
12.2571927
10
-22.5894749
20
12.2656212
10
-22.6914523
20
12.2732473
10
-22.7957029
20
12.2800277
10
-22.9022196
20
12.285919
10
-23.0109948
20
12.2908778
10
-23.1220202
20
12.2948609
10
-23.235287
20
12.2978251
10
-23.2927579
20
12.2989117
10
-23.3217023
20
12.2993537
10
-23.3362266
20
12.2995491
10
-23.3435017
20
12.2996404
10
-23.3471426
20
12.2996844
10
-23.347227
20
12.2996117
10
-23.7972811
20
11.404511
10
-23.7972891
20
11.4043998
10
-23.7950823
20
11.4015037
10
-23.79067
20
11.3957185
10
-23.7818506
20
11.3841768
10
-23.7642329
20
11.3612076
10
-23.729084
20
11.3157252
10
-23.6591504
20
11.2265767
10
-23.5897357
20
11.1398351
10
-23.52088
20
11.0554815
10
-23.4526228
20
10.973497
10
-23.3850034
20
10.8938617
10
-23.318061
20
10.8165554
10
-23.2518341
20
10.7415575
10
-23.1863612
20
10.6688465
10
-23.1216801
20
10.5984006
10
-23.0578285
20
10.5301976
10
-22.9948437
20
10.4642145
10
-22.9327626
20
10.400428
10
-22.8716218
20
10.3388142
10
-22.8114572
20
10.2793486
10
-22.7523049
20
10.2220066
10
-22.6942
20
10.1667626
10
-22.6371776
20
10.1135908
10
-22.5812722
20
10.062465
10
-22.5265181
20
10.0133582
10
-22.4729489
20
9.9662433
10
-22.420598
20
9.9210925
10
-22.3694982
20
9.8778777
10
-22.3196821
20
9.83657
10
-22.2711817
20
9.7971406
10
-22.2240285
20
9.7595598
10
-22.1782536
20
9.7237977
10
-22.1338878
20
9.6898239
10
-22.0909612
20
9.6576076
10
-22.0495036
20
9.6271176
10
-22.0095442
20
9.5983222
10
-21.971112
20
9.5711893
10
-21.934235
20
9.5456866
10
-21.8989413
20
9.5217812
10
-21.8652581
20
9.4994399
10
-21.8332123
20
9.4786291
10
-21.8028302
20
9.4593148
10
-21.7741377
20
9.4414627
10
-21.74716
20
9.4250382
10
-21.721922
20
9.4100061
10
-21.698448
20
9.396331
10
-21.6767617
20
9.3839774
10
-21.6568863
20
9.372909
10
-21.6388446
20
9.3630896
10
-21.6226588
20
9.3544824
10
-21.6083504
20
9.3470504
10
-21.5959406
20
9.3407562
10
-21.5854499
20
9.3355624
10
-21.5768982
20
9.331431
10
-21.5703051
20
9.3283238
10
-21.5656893
20
9.3262023
10
-21.4802397
20
9.289204
10
-21.9914176
20
8.0042214
10
-22.0789318
20
8.0360297
10
-22.0837436
20
8.0376586
10
-22.0906695
20
8.0399293
10
-22.0997222
20
8.0428011
10
-22.110914
20
8.0462328
10
-22.1242562
20
8.0501831
10
-22.1397598
20
8.0546105
10
-22.1574351
20
8.0594736
10
-22.1772918
20
8.0647305
10
-22.199339
20
8.0703393
10
-22.2235852
20
8.076258
10
-22.2500382
20
8.0824444
10
-22.2787054
20
8.0888563
10
-22.3095934
20
8.0954512
10
-22.3427083
20
8.1021867
10
-22.3780554
20
8.1090201
10
-22.4156396
20
8.1159087
10
-22.455465
20
8.1228098
10
-22.4975353
20
8.1296806
10
-22.5418533
20
8.136478
10
-22.5884215
20
8.1431591
10
-22.6372415
20
8.1496809
10
-22.6883144
20
8.1560003
10
-22.7416406
20
8.1620743
10
-22.7972201
20
8.1678597
10
-22.8550519
20
8.1733133
10
-22.9151348
20
8.178392
10
-22.9774666
20
8.1830526
10
-23.0420447
20
8.1872521
10
-23.1088657
20
8.1909472
10
-23.1779259
20
8.1940948
10
-23.2492206
20
8.1966519
10
-23.3227447
20
8.1985754
10
-23.3984923
20
8.1998223
10
-23.4764571
20
8.2003497
10
-23.556632
20
8.2001147
10
-23.6390094
20
8.1990745
10
-23.723581
20
8.1971863
10
-23.8103379
20
8.1944076
10
-23.8992704
20
8.1906957
10
-23.9903686
20
8.1860082
10
-24.0836217
20
8.1803028
10
-24.1790181
20
8.1735373
10
-24.276546
20
8.1656696
10
-24.3761928
20
8.1566577
10
-24.4779452
20
8.1464598
10
-24.5817893
20
8.1350343
10
-24.6877108
20
8.1223396
10
-24.7956946
20
8.1083344
10
-24.905725
20
8.0929777
10
-25.0177857
20
8.0762283
10
-25.0745722
20
8.0673186
10
-25.1031535
20
8.0627278
10
-25.1174911
20
8.0603981
10
-25.1246716
20
8.0592247
10
-25.1282648
20
8.0586358
10
-25.1283353
20
8.0585495
10
-25.4161194
20
7.0988963
10
-25.416108
20
7.0987855
10
-25.4134318
20
7.0963165
10
-25.408082
20
7.0913855
10
-25.3973924
20
7.0815505
10
-25.3760537
20
7.0619896
10
-25.333541
20
7.0233017
10
-25.2491893
20
6.9476515
10
-25.1657667
20
6.8742813
10
-25.0833092
20
6.803166
10
-25.0018525
20
6.7342797
10
-24.9214319
20
6.6675962
10
-24.8420824
20
6.6030889
10
-24.7638384
20
6.5407305
10
-24.686734
20
6.4804934
10
-24.6108028
20
6.4223495
10
-24.5360779
20
6.3662703
10
-24.4625922
20
6.3122269
10
-24.3903778
20
6.2601897
10
-24.3194667
20
6.2101289
10
-24.2498901
20
6.1620143
10
-24.181679
20
6.1158151
10
-24.1148639
20
6.0715002
10
-24.0494746
20
6.029038
10
-23.9855407
20
5.9883968
10
-23.9230911
20
5.949544
10
-23.8621543
20
5.9124471
10
-23.8027584
20
5.8770729
10
-23.7449308
20
5.8433879
10
-23.6886985
20
5.8113583
10
-23.634088
20
5.7809499
10
-23.5811253
20
5.7521281
10
-23.5298359
20
5.7248581
10
-23.4802446
20
5.6991045
10
-23.4323758
20
5.6748317
10
-23.3862535
20
5.6520039
10
-23.341901
20
5.6305848
10
-23.299341
20
5.6105379
10
-23.2585958
20
5.5918262
10
-23.2196872
20
5.5744127
10
-23.1826362
20
5.5582598
10
-23.1474634
20
5.5433299
10
-23.114189
20
5.5295848
10
-23.0828324
20
5.5169864
10
-23.0534125
20
5.505496
10
-23.0259476
20
5.4950748
10
-23.0004555
20
5.4856837
10
-22.9769535
20
5.4772835
10
-22.9554581
20
5.4698346
10
-22.9359854
20
5.4632973
10
-22.9185508
20
5.4576315
10
-22.9031693
20
5.452797
10
-22.8898551
20
5.4487534
10
-22.8786218
20
5.4454602
10
-22.8694827
20
5.4428765
10
-22.8624501
20
5.4409614
10
-22.857536
20
5.4396737
10
-22.7669599
20
5.4180756
10
-23.047237
20
4.0638497
10
-23.1389451
20
4.0799781
10
-23.1439666
20
4.0807466
10
-23.1511816
20
4.0817803
10
-23.1605956
20
4.0830364
10
-23.1722132
20
4.0844725
10
-23.1860386
20
4.0860459
10
-23.2020755
20
4.0877139
10
-23.2203268
20
4.0894338
10
-23.2407946
20
4.0911628
10
-23.2634809
20
4.0928579
10
-23.2883865
20
4.0944764
10
-23.3155119
20
4.0959753
10
-23.344857
20
4.0973118
10
-23.3764209
20
4.0984429
10
-23.4102023
20
4.0993257
10
-23.446199
20
4.0999173
10
-23.4844084
20
4.1001749
10
-23.5248272
20
4.1000555
10
-23.5674514
20
4.0995164
10
-23.6122765
20
4.0985148
10
-23.6592974
20
4.097008
10
-23.7085082
20
4.0949532
10
-23.7599025
20
4.0923079
10
-23.8134733
20
4.0890296
10
-23.869213
20
4.0850758
10
-23.9271133
20
4.0804042
10
-23.9871653
20
4.0749724
10
-24.0493594
20
4.0687385
10
-24.1136856
20
4.0616602
10
-24.1801332
20
4.0536958
10
-24.2486907
20
4.0448035
10
-24.3193464
20
4.0349415
10
-24.3920874
20
4.0240685
10
-24.4669008
20
4.0121431
10
-24.5437728
20
3.999124
10
-24.6226888
20
3.9849703
10
-24.7036341
20
3.9696412
10
-24.786593
20
3.9530961
10
-24.8715493
20
3.9352943
10
-24.9584862
20
3.9161959
10
-25.0473864
20
3.8957606
10
-25.138232
20
3.8739486
10
-25.2310044
20
3.8507205
10
-25.3256844
20
3.8260367
10
-25.4222524
20
3.7998583
10
-25.5206881
20
3.7721462
10
-25.6209706
20
3.7428619
10
-25.7230785
20
3.711967
10
-25.8269898
20
3.6794234
10
-25.9326819
20
3.6451934
10
-26.0401316
20
3.6092393
10
-26.0945083
20
3.5906041
10
-26.1218582
20
3.58112
10
-26.1355734
20
3.576336
10
-26.1424411
20
3.5739335
10
-26.1458774
20
3.5727296
10
-26.1459319
20
3.5726324
10
-26.2627019
20
2.5775853
10
-26.2626714
20
2.5774782
10
-26.2596071
20
2.5755114
10
-26.2534823
20
2.5715842
10
-26.2412473
20
2.563755
10
-26.2168361
20
2.5481966
10
-26.1682511
20
2.5174787
10
-26.0720444
20
2.4576253
10
-25.9771486
20
2.399856
10
-25.8835947
20
2.3441397
10
-25.7914135
20
2.2904447
10
-25.7006353
20
2.2387392
10
-25.6112897
20
2.1889908
10
-25.523406
20
2.1411667
10
-25.4370129
20
2.0952337
10
-25.3521387
20
2.0511585
10
-25.268811
20
2.0089072
10
-25.1870571
20
1.9684454
10
-25.1069037
20
1.9297387
10
-25.0283769
20
1.892752
10
-24.9515023
20
1.8574502
10
-24.8763051
20
1.8237976
10
-24.8028098
20
1.7917583
10
-24.7310405
20
1.761296
10
-24.6610206
20
1.7323741
10
-24.592773
20
1.7049559
10
-24.5263202
20
1.6790041
10
-24.461684
20
1.6544813
10
-24.3988856
20
1.6313497
10
-24.3379457
20
1.6095714
10
-24.2788845
20
1.589108
10
-24.2217216
20
1.5699209
10
-24.1664759
20
1.5519715
10
-24.113166
20
1.5352206
10
-24.0618096
20
1.5196289
10
-24.0124239
20
1.505157
10
-23.9650258
20
1.491765
10
-23.9196313
20
1.4794131
10
-23.8762559
20
1.4680611
10
-23.8349145
20
1.4576685
10
-23.7956215
20
1.4481949
10
-23.7583906
20
1.4395994
10
-23.7232349
20
1.4318412
10
-23.6901669
20
1.4248792
10
-23.6591987
20
1.418672
10
-23.6303414
20
1.4131784
10
-23.6036059
20
1.4083567
10
-23.5790023
20
1.4041652
10
-23.5565399
20
1.4005621
10
-23.5362279
20
1.3975054
10
-23.5180743
20
1.3949532
10
-23.502087
20
1.3928631
10
-23.4882728
20
1.391193
10
-23.4766384
20
1.3899005
10
-23.4671894
20
1.388943
10
-23.4599311
20
1.3882782
10
-23.4548681
20
1.3878633
10
-23.3619176
20
1.3823217
10
-23.4027778
20
0
10
-23.4958933
20
-0.0000416
10
-23.500972
20
-0.0001567
10
-23.5082569
20
-0.0003917
10
-23.5177459
20
-0.0007893
10
-23.5294364
20
-0.0013924
10
-23.543325
20
-0.0022437
10
-23.5594079
20
-0.0033857
10
-23.5776806
20
-0.0048613
10
-23.5981377
20
-0.0067128
10
-23.6207736
20
-0.0089828
10
-23.6455819
20
-0.0117138
10
-23.6725555
20
-0.0149479
10
-23.7016869
20
-0.0187274
10
-23.7329677
20
-0.0230946
10
-23.7663892
20
-0.0280912
10
-23.8019417
20
-0.0337594
10
-23.8396154
20
-0.0401407
10
-23.8793994
20
-0.0472769
10
-23.9212824
20
-0.0552094
10
-23.9652526
20
-0.0639796
10
-24.0112974
20
-0.0736287
10
-24.0594038
20
-0.0841976
10
-24.109558
20
-0.0957272
10
-24.1617457
20
-0.1082582
10
-24.215952
20
-0.121831
10
-24.2721614
20
-0.136486
10
-24.3303579
20
-0.1522631
10
-24.3905246
20
-0.1692022
10
-24.4526445
20
-0.1873431
10
-24.5166995
20
-0.206725
10
-24.5826714
20
-0.2273871
10
-24.6505411
20
-0.2493685
10
-24.720289
20
-0.2727077
10
-24.791895
20
-0.2974432
10
-24.8653383
20
-0.3236131
10
-24.9405977
20
-0.3512554
10
-25.0176514
20
-0.3804076
10
-25.0964769
20
-0.4111071
10
-25.1770512
20
-0.4433908
10
-25.259351
20
-0.4772956
10
-25.3433521
20
-0.5128578
10
-25.4290299
20
-0.5501135
10
-25.5163593
20
-0.5890985
10
-25.6053147
20
-0.6298483
10
-25.6958697
20
-0.6723979
10
-25.7879978
20
-0.7167822
10
-25.8816716
20
-0.7630355
10
-25.9768634
20
-0.8111918
10
-26.0735449
20
-0.861285
10
-26.1716873
20
-0.9133482
10
-26.2712614
20
-0.9674146
10
-26.3215759
20
-0.995209
10
-26.3468635
20
-1.0092984
10
-26.3595396
20
-1.0163913
10
-26.3658857
20
-1.0199498
10
-26.3690608
20
-1.0217321
10
-26.3690975
20
-1.0218373
10
-26.3113054
20
-2.0220443
10
-26.3112568
20
-2.0221446
10
-26.3078976
20
-2.0235493
10
-26.3011838
20
-2.0263533
10
-26.2877751
20
-2.031939
10
-26.2610331
20
-2.0430221
10
-26.2078522
20
-2.0648366
10
-26.1027137
20
-2.1070745
10
-25.999228
20
-2.1474877
10
-25.8974203
20
-2.1861121
10
-25.7973156
20
-2.2229842
10
-25.6989379
20
-2.2581408
10
-25.6023109
20
-2.2916187
10
-25.5074578
20
-2.3234554
10
-25.414401
20
-2.3536885
10
-25.3231627
20
-2.3823558
10
-25.2337641
20
-2.4094956
10
-25.1462261
20
-2.4351463
10
-25.060569
20
-2.4593465
10
-24.9768125
20
-2.4821352
10
-24.8949758
20
-2.5035516
10
-24.8150773
20
-2.5236351
10
-24.737135
20
-2.5424253
10
-24.6611663
20
-2.5599622
10
-24.5871879
20
-2.5762858
10
-24.515216
20
-2.5914364
10
-24.4452663
20
-2.6054545
10
-24.3773537
20
-2.6183808
10
-24.3114926
20
-2.6302561
10
-24.2476967
20
-2.6411215
10
-24.1859794
20
-2.6510182
10
-24.1263531
20
-2.6599875
10
-24.0688299
20
-2.668071
10
-24.0134211
20
-2.6753102
10
-23.9601374
20
-2.6817471
10
-23.908989
20
-2.6874234
10
-23.8599855
20
-2.6923813
10
-23.8131358
20
-2.6966629
10
-23.7684481
20
-2.7003104
10
-23.7259301
20
-2.7033662
10
-23.685589
20
-2.7058728
10
-23.6474311
20
-2.7078726
10
-23.6114623
20
-2.7094082
10
-23.5776878
20
-2.7105223
10
-23.5461121
20
-2.7112575
10
-23.5167393
20
-2.7116567
10
-23.4895727
20
-2.7117626
10
-23.464615
20
-2.711618
10
-23.4418682
20
-2.7112658
10
-23.421334
20
-2.7107489
10
-23.403013
20
-2.71011
10
-23.3869056
20
-2.7093922
10
-23.3730113
20
-2.7086381
10
-23.3613292
20
-2.7078907
10
-23.3518575
20
-2.7071928
10
-23.344594
20
-2.7065872
10
-23.3395359
20
-2.7061165
10
-23.2470352
20
-2.6954332
10
-23.047237
20
-4.0638497
10
-23.1389307
20
-4.0800601
10
-23.1439122
20
-4.0810553
10
-23.1510456
20
-4.0825517
10
-23.1603214
20
-4.084591
10
-23.1717296
20
-4.087215
10
-23.1852594
20
-4.0904651
10
-23.2008997
20
-4.0943826
10
-23.2186385
20
-4.0990087
10
-23.2384633
20
-4.1043844
10
-23.2603611
20
-4.1105507
10
-23.2843183
20
-4.117548
10
-23.3103206
20
-4.1254169
10
-23.338353
20
-4.1341977
10
-23.3684003
20
-4.1439303
10
-23.4004463
20
-4.1546546
10
-23.4344745
20
-4.1664103
10
-23.4704677
20
-4.1792366
10
-23.5084081
20
-4.1931728
10
-23.5482774
20
-4.2082578
10
-23.5900566
20
-4.2245301
10
-23.6337264
20
-4.2420281
10
-23.6792667
20
-4.2607901
10
-23.7266568
20
-4.2808537
10
-23.7758757
20
-4.3022566
10
-23.8269016
20
-4.3250361
10
-23.8797122
20
-4.349229
10
-23.9342848
20
-4.3748722
10
-23.9905961
20
-4.4020018
10
-24.0486221
20
-4.4306541
10
-24.1083384
20
-4.4608645
10
-24.16972
20
-4.4926687
10
-24.2327416
20
-4.5261015
10
-24.2973771
20
-4.5611978
10
-24.3635999
20
-4.5979917
10
-24.4313831
20
-4.6365174
10
-24.5006991
20
-4.6768084
10
-24.5715199
20
-4.7188979
10
-24.643817
20
-4.7628189
10
-24.7175612
20
-4.8086038
10
-24.7927232
20
-4.8562847
10
-24.8692728
20
-4.9058932
10
-24.9471796
20
-4.9574608
10
-25.0264126
20
-5.0110181
10
-25.1069404
20
-5.0665957
10
-25.1887311
20
-5.1242236
10
-25.2717523
20
-5.1839315
10
-25.3559712
20
-5.2457483
10
-25.4413545
20
-5.309703
10
-25.5278686
20
-5.3758237
10
-25.6154794
20
-5.4441382
10
-25.7041521
20
-5.514674
10
-25.7488758
20
-5.5507833
10
-25.7713326
20
-5.5690497
10
-25.7825844
20
-5.578236
10
-25.7882162
20
-5.5828425
10
-25.7910336
20
-5.5851491
10
-25.7910515
20
-5.5852591
10
-25.5604533
20
-6.5602351
10
-25.560388
20
-6.5603254
10
-25.5568358
20
-6.5611255
10
-25.5497372
20
-6.562721
10
-25.5355622
20
-6.5658935
10
-25.507302
20
-6.5721645
10
-25.4511409
20
-6.5844128
10
-25.3402651
20
-6.607752
10
-25.2313339
20
-6.6295811
10
-25.1243659
20
-6.64994
10
-25.0193792
20
-6.6688689
10
-24.9163912
20
-6.6864083
10
-24.8154189
20
-6.7025985
10
-24.7164784
20
-6.7174805
10
-24.6195855
20
-6.7310951
10
-24.5247552
20
-6.7434836
10
-24.432002
20
-6.7546871
10
-24.3413397
20
-6.7647473
10
-24.2527816
20
-6.7737056
10
-24.1663404
20
-6.7816039
10
-24.082028
20
-6.7884842
10
-23.9998559
20
-6.7943883
10
-23.9198348
20
-6.7993586
10
-23.841975
20
-6.8034372
10
-23.7662859
20
-6.8066666
10
-23.6927766
20
-6.8090893
10
-23.6214554
20
-6.8107478
10
-23.5523299
20
-6.8116848
10
-23.4854072
20
-6.811943
10
-23.4206938
20
-6.8115653
10
-23.3581956
20
-6.8105945
10
-23.2979176
20
-6.8090736
10
-23.2398646
20
-6.8070454
10
-23.1840405
20
-6.804553
10
-23.1304486
20
-6.8016395
10
-23.0790916
20
-6.7983478
10
-23.0299716
20
-6.794721
10
-22.9830901
20
-6.7908021
10
-22.9384479
20
-6.7866343
10
-22.8960453
20
-6.7822606
10
-22.8558818
20
-6.7777239
10
-22.8179563
20
-6.7730672
10
-22.7822673
20
-6.7683336
10
-22.7488124
20
-6.7635659
10
-22.7175888
20
-6.7588069
10
-22.688593
20
-6.7540995
10
-22.6618207
20
-6.7494863
10
-22.6372672
20
-6.7450101
10
-22.6149272
20
-6.7407133
10
-22.5947947
20
-6.7366385
10
-22.576863
20
-6.7328279
10
-22.5611249
20
-6.7293239
10
-22.5475727
20
-6.7261686
10
-22.5361978
20
-6.723404
10
-22.5269912
20
-6.721072
10
-22.5199433
20
-6.7192143
10
-22.5150437
20
-6.7178724
10
-22.4258035
20
-6.6912889
10
-21.9914176
20
-8.0042214
10
-22.0789033
20
-8.0361079
10
-22.0836364
20
-8.0379531
10
-22.0904016
20
-8.0406654
10
-22.0991823
20
-8.0442845
10
-22.1099615
20
-8.0488496
10
-22.1227214
20
-8.0543998
10
-22.1374438
20
-8.0609736
10
-22.1541098
20
-8.0686098
10
-22.1726999
20
-8.0773464
10
-22.1931944
20
-8.0872215
10
-22.2155725
20
-8.0982727
10
-22.2398133
20
-8.1105373
10
-22.2658951
20
-8.1240524
10
-22.2937958
20
-8.1388548
10
-22.3234928
20
-8.154981
10
-22.3549626
20
-8.1724669
10
-22.3881817
20
-8.1913486
10
-22.4231257
20
-8.2116613
10
-22.4597698
20
-8.2334403
10
-22.4980887
20
-8.2567203
10
-22.5380565
20
-8.2815357
10
-22.579647
20
-8.3079206
10
-22.6228331
20
-8.3359086
10
-22.6675877
20
-8.3655332
10
-22.7138827
20
-8.3968271
10
-22.76169
20
-8.429823
10
-22.8109807
20
-8.464553
10
-22.8617254
20
-8.5010488
10
-22.9138945
20
-8.5393419
10
-22.9674575
20
-8.579463
10
-23.0223839
20
-8.6214428
10
-23.0786425
20
-8.6653113
10
-23.1362016
20
-8.7110982
10
-23.1950292
20
-8.7588326
10
-23.2550927
20
-8.8085434
10
-23.3163592
20
-8.8602589
10
-23.3787953
20
-8.9140069
10
-23.4423672
20
-8.9698149
10
-23.5070407
20
-9.0277098
10
-23.572781
20
-9.087718
10
-23.6395532
20
-9.1498656
10
-23.7073218
20
-9.2141781
10
-23.776051
20
-9.2806804
10
-23.8457044
20
-9.3493972
10
-23.9162455
20
-9.4203524
10
-23.9876373
20
-9.4935696
10
-24.0598424
20
-9.5690718
10
-24.1328229
20
-9.6468815
10
-24.206541
20
-9.7270207
10
-24.280958
20
-9.8095109
10
-24.3560352
20
-9.8943729
10
-24.3938091
20
-9.9376998
10
-24.4127528
20
-9.9595883
10
-24.4222385
20
-9.9705889
10
-24.4269848
20
-9.9761033
10
-24.4293588
20
-9.9788641
10
-24.4293574
20
-9.9789755
10
-24.0329597
20
-10.8990966
10
-24.0328797
20
-10.8991741
10
-24.0292426
20
-10.8993452
10
-24.0219747
20
-10.8996839
10
-24.0074642
20
-10.9003467
10
-23.9785444
20
-10.9016151
10
-23.9211096
20
-10.903925
10
-23.8078655
20
-10.9076563
10
-23.6967986
20
-10.910238
10
-23.5879204
20
-10.9117129
10
-23.4812417
20
-10.9121235
10
-23.3767727
20
-10.9115126
10
-23.2745229
20
-10.9099232
10
-23.1745013
20
-10.9073983
10
-23.0767162
20
-10.9039808
10
-22.9811754
20
-10.8997139
10
-22.8878858
20
-10.8946409
10
-22.796854
20
-10.8888048
10
-22.7080857
20
-10.8822491
10
-22.6215862
20
-10.8750171
10
-22.53736
20
-10.8671521
10
-22.455411
20
-10.8586975
10
-22.3757425
20
-10.8496968
10
-22.2983573
20
-10.8401932
10
-22.2232574
20
-10.8302303
10
-22.1504442
20
-10.8198514
10
-22.0799184
20
-10.8090999
10
-22.0116804
20
-10.7980191
10
-21.9457296
20
-10.7866525
10
-21.8820649
20
-10.7750431
10
-21.8206847
20
-10.7632344
10
-21.7615867
20
-10.7512694
10
-21.7047678
20
-10.7391912
10
-21.6502246
20
-10.727043
10
-21.5979528
20
-10.7148675
10
-21.5479476
20
-10.7027078
10
-21.5002037
20
-10.6906065
10
-21.4547149
20
-10.6786063
10
-21.4114747
20
-10.6667498
10
-21.3704757
20
-10.6550793
10
-21.3317102
20
-10.6436372
10
-21.2951695
20
-10.6324656
10
-21.2608447
20
-10.6216066
10
-21.228726
20
-10.6111019
10
-21.1988031
20
-10.6009933
10
-21.1710652
20
-10.5913223
10
-21.1455007
20
-10.5821303
10
-21.1220975
20
-10.5734584
10
-21.1008431
20
-10.5653476
10
-21.081724
20
-10.5578387
10
-21.0647264
20
-10.5509723
10
-21.0498359
20
-10.5447886
10
-21.0370375
20
-10.5393279
10
-21.0263155
20
-10.5346301
10
-21.0176537
20
-10.5307348
10
-21.0110354
20
-10.5276814
10
-21.0064433
20
-10.5255092
10
-20.923175
20
-10.4838331
10
-20.2674001
20
-11.7013889
10
-20.3480197
20
-11.7479827
10
-20.3523604
20
-11.7506217
10
-20.3585518
20
-11.7544676
10
-20.3665707
20
-11.7595565
10
-20.3763934
20
-11.7659241
10
-20.3879957
20
-11.7736056
10
-20.4013529
20
-11.7826361
10
-20.4164397
20
-11.7930503
10
-20.4332303
20
-11.8048823
10
-20.4516986
20
-11.8181662
10
-20.4718177
20
-11.8329354
10
-20.4935605
20
-11.849223
10
-20.5168992
20
-11.8670619
10
-20.5418057
20
-11.8864843
10
-20.5682512
20
-11.9075223
10
-20.5962065
20
-11.9302073
10
-20.6256422
20
-11.9545705
10
-20.656528
20
-11.9806427
10
-20.6888335
20
-12.008454
10
-20.7225278
20
-12.0380343
10
-20.7575792
20
-12.069413
10
-20.7939561
20
-12.1026192
10
-20.8316261
20
-12.1376812
10
-20.8705565
20
-12.1746272
10
-20.9107141
20
-12.2134848
10
-20.9520654
20
-12.254281
10
-20.9945764
20
-12.2970426
10
-21.0382128
20
-12.3417958
10
-21.0829398
20
-12.3885661
10
-21.1287221
20
-12.4373788
10
-21.1755244
20
-12.4882587
10
-21.2233106
20
-12.54123
10
-21.2720444
20
-12.5963163
10
-21.3216893
20
-12.6535408
10
-21.3722081
20
-12.7129263
10
-21.4235635
20
-12.7744949
10
-21.4757178
20
-12.8382683
10
-21.528633
20
-12.9042676
10
-21.5822706
20
-12.9725133
10
-21.6365918
20
-13.0430256
10
-21.6915578
20
-13.1158239
10
-21.7471291
20
-13.1909272
10
-21.8032661
20
-13.268354
10
-21.8599288
20
-13.348122
10
-21.917077
20
-13.4302486
10
-21.9746701
20
-13.5147505
10
-22.0326674
20
-13.6016439
10
-22.0910277
20
-13.6909444
10
-22.1497098
20
-13.7826671
10
-22.208672
20
-13.8768265
10
-22.2678725
20
-13.9734363
10
-22.2975489
20
-14.0226643
10
-22.3124039
20
-14.0475098
10
-22.3198352
20
-14.0599905
10
-22.3235519
20
-14.0662453
10
-22.3254104
20
-14.0693764
10
-22.3253897
20
-14.0694859
10
-21.7752368
20
-14.9067945
10
-21.7751445
20
-14.906857
10
-21.771533
20
-14.9063939
10
-21.7643167
20
-14.9054653
10
-21.7499116
20
-14.9035983
10
-21.7212108
20
-14.8998256
10
-21.6642475
20
-14.892127
10
-21.5520759
20
-14.8761369
10
-21.442248
20
-14.8593929
10
-21.3347678
20
-14.8419388
10
-21.2296385
20
-14.8238186
10
-21.1268627
20
-14.8050762
10
-21.0264423
20
-14.7857555
10
-20.9283787
20
-14.7659003
10
-20.8326727
20
-14.7455545
10
-20.7393242
20
-14.724762
10
-20.6483329
20
-14.7035664
10
-20.5596975
20
-14.6820116
10
-20.4734162
20
-14.660141
10
-20.3894866
20
-14.6379984
10
-20.3079057
20
-14.6156271
10
-20.2286698
20
-14.5930707
10
-20.1517747
20
-14.5703724
10
-20.0772154
20
-14.5475754
10
-20.0049864
20
-14.5247229
10
-19.9350817
20
-14.5018578
10
-19.8674944
20
-14.479023
10
-19.8022172
20
-14.4562611
10
-19.7392421
20
-14.4336149
10
-19.6785606
20
-14.4111267
10
-19.6201635
20
-14.3888388
10
-19.564041
20
-14.3667933
10
-19.5101826
20
-14.3450322
10
-19.4585776
20
-14.3235971
10
-19.4092141
20
-14.3025298
10
-19.3620802
20
-14.2818715
10
-19.3171629
20
-14.2616634
10
-19.2744491
20
-14.2419464
10
-19.2339246
20
-14.2227615
10
-19.1955751
20
-14.2041489
10
-19.1593853
20
-14.1861491
10
-19.1253398
20
-14.168802
10
-19.0934221
20
-14.1521475
10
-19.0636154
20
-14.136225
10
-19.0359025
20
-14.1210739
10
-19.0102653
20
-14.1067332
10
-18.9866854
20
-14.0932416
10
-18.9651436
20
-14.0806376
10
-18.9456205
20
-14.0689592
10
-18.9280958
20
-14.0582444
10
-18.9125488
20
-14.0485306
10
-18.8989583
20
-14.0398552
10
-18.8873025
20
-14.0322551
10
-18.8775592
20
-14.0257667
10
-18.8697054
20
-14.0204265
10
-18.8637179
20
-14.0162703
10
-18.8595727
20
-14.0133336
10
-18.7848065
20
-13.9578313
10
-17.9275679
20
-15.0430156
10
-17.9988718
20
-15.102901
10
-18.0026883
20
-15.1062537
10
-18.0081178
20
-15.1111163
10
-18.0151312
20
-15.1175203
10
-18.023699
20
-15.1254968
10
-18.0337911
20
-15.1350764
10
-18.0453772
20
-15.1462891
10
-18.0584264
20
-15.1591649
10
-18.0729073
20
-15.1737328
10
-18.0887883
20
-15.1900219
10
-18.1060372
20
-15.2080603
10
-18.1246213
20
-15.2278761
10
-18.1445078
20
-15.2494967
10
-18.1656632
20
-15.2729491
10
-18.1880537
20
-15.2982596
10
-18.2116451
20
-15.3254544
10
-18.2364029
20
-15.3545589
10
-18.2622922
20
-15.3855982
10
-18.2892775
20
-15.4185968
10
-18.3173233
20
-15.4535787
10
-18.3463934
20
-15.4905673
10
-18.3764514
20
-15.5295858
10
-18.4074607
20
-15.5706565
10
-18.439384
20
-15.6138014
10
-18.472184
20
-15.6590419
10
-18.5058229
20
-15.706399
10
-18.5402626
20
-15.7558929
10
-18.5754647
20
-15.8075435
10
-18.6113906
20
-15.86137
10
-18.6480012
20
-15.9173912
10
-18.6852572
20
-15.9756252
10
-18.7231191
20
-16.0360897
10
-18.7615469
20
-16.0988017
10
-18.8005006
20
-16.1637776
10
-18.8399397
20
-16.2310334
10
-18.8798237
20
-16.3005844
10
-18.9201115
20
-16.3724454
10
-18.9607621
20
-16.4466307
10
-19.0017341
20
-16.5231537
10
-19.0429858
20
-16.6020275
10
-19.0844754
20
-16.6832646
10
-19.1261609
20
-16.7668767
10
-19.168
20
-16.8528753
10
-19.2099503
20
-16.9412708
10
-19.2519692
20
-17.0320734
10
-19.2940137
20
-17.1252925
10
-19.336041
20
-17.2209369
10
-19.3780078
20
-17.3190149
10
-19.4198709
20
-17.4195342
10
-19.4615867
20
-17.5225017
10
-19.5031117
20
-17.6279238
10
-19.5237889
20
-17.6815572
10
-19.5341038
20
-17.7086048
10
-19.5392551
20
-17.7221863
10
-19.5418291
20
-17.7289916
10
-19.5431157
20
-17.7323978
10
-19.5430763
20
-17.732502
10
-18.8558843
20
-18.4615569
10
-18.8557826
20
-18.4616025
10
-18.8523063
20
-18.4605193
10
-18.8453609
20
-18.4583517
10
-18.8314989
20
-18.4540117
10
-18.8038892
20
-18.4453124
10
-18.7491282
20
-18.4278392
10
-18.6414373
20
-18.3926137
10
-18.5361856
20
-18.3570526
10
-18.4333692
20
-18.3212
10
-18.3329835
20
-18.2850995
10
-18.2350237
20
-18.248795
10
-18.1394839
20
-18.21233
10
-18.0463579
20
-18.1757479
10
-17.9556389
20
-18.1390921
10
-17.8673192
20
-18.1024057
10
-17.7813908
20
-18.0657316
10
-17.6978449
20
-18.0291128
10
-17.6166722
20
-17.992592
10
-17.5378627
20
-17.9562115
10
-17.4614059
20
-17.9200137
10
-17.3872907
20
-17.8840408
10
-17.3155053
20
-17.8483347
10
-17.2460374
20
-17.8129369
10
-17.1788741
20
-17.7778892
10
-17.1140018
20
-17.7432326
10
-17.0514065
20
-17.7090083
10
-16.9910736
20
-17.675257
10
-16.9329877
20
-17.6420193
10
-16.8771332
20
-17.6093355
10
-16.8234935
20
-17.5772457
10
-16.7720517
20
-17.5457895
10
-16.7227904
20
-17.5150066
10
-16.6756915
20
-17.484936
10
-16.6307363
20
-17.4556169
10
-16.5879057
20
-17.4270877
10
-16.54718
20
-17.3993868
10
-16.5085388
20
-17.3725522
10
-16.4719615
20
-17.3466217
10
-16.4374266
20
-17.3216326
10
-16.4049123
20
-17.2976219
10
-16.3743962
20
-17.2746264
10
-16.3458555
20
-17.2526825
10
-16.3192666
20
-17.2318261
10
-16.2946056
20
-17.2120929
10
-16.2718481
20
-17.1935182
10
-16.2509692
20
-17.1761369
10
-16.2319434
20
-17.1599837
10
-16.2147448
20
-17.1450926
10
-16.1993469
20
-17.1314974
10
-16.1857229
20
-17.1192315
10
-16.1738454
20
-17.1083279
10
-16.1636864
20
-17.0988192
10
-16.1552178
20
-17.0907376
10
-16.1484107
20
-17.0841147
10
-16.1432358
20
-17.0789819
10
-16.1396636
20
-17.07537
10
-16.0756711
20
-17.0077279
10
-15.0430156
20
-17.9275679
10
-15.1028372
20
-17.9989253
10
-15.1060136
20
-18.0028897
10
-15.1105162
20
-18.0086213
10
-15.116311
20
-18.0161459
10
-15.1233635
20
-18.025489
10
-15.1316389
20
-18.0366755
10
-15.1411019
20
-18.0497299
10
-15.151717
20
-18.0646759
10
-15.1634482
20
-18.0815372
10
-15.1762594
20
-18.1003364
10
-15.1901138
20
-18.1210961
10
-15.2049746
20
-18.143838
10
-15.2208046
20
-18.1685833
10
-15.2375661
20
-18.1953529
10
-15.2552214
20
-18.224167
10
-15.2737321
20
-18.2550453
10
-15.2930598
20
-18.2880068
10
-15.3131658
20
-18.3230702
10
-15.3340111
20
-18.3602534
10
-15.3555562
20
-18.3995739
10
-15.3777617
20
-18.4410486
10
-15.4005876
20
-18.4846938
10
-15.4239939
20
-18.5305252
10
-15.4479402
20
-18.5785581
10
-15.4723859
20
-18.628807
10
-15.4972903
20
-18.6812859
10
-15.5226123
20
-18.7360083
10
-15.5483106
20
-18.792987
10
-15.5743438
20
-18.8522342
10
-15.6006702
20
-18.9137617
10
-15.627248
20
-18.9775805
10
-15.6540351
20
-19.043701
10
-15.6809893
20
-19.1121331
10
-15.7080682
20
-19.1828861
10
-15.7352294
20
-19.2559687
10
-15.76243
20
-19.3313889
10
-15.7896272
20
-19.4091541
10
-15.8167781
20
-19.4892712
10
-15.8438395
20
-19.5717463
10
-15.8707682
20
-19.6565852
10
-15.8975208
20
-19.7437927
10
-15.9240539
20
-19.8333732
10
-15.950324
20
-19.9253305
10
-15.9762872
20
-20.0196677
10
-16.0019
20
-20.1163873
10
-16.0271185
20
-20.2154911
10
-16.0518988
20
-20.3169805
10
-16.076197
20
-20.4208559
10
-16.0999691
20
-20.5271175
10
-16.123171
20
-20.6357646
10
-16.1457588
20
-20.7467959
10
-16.1568085
20
-20.803205
10
-16.16227
20
-20.8316328
10
-16.1649845
20
-20.8459025
10
-16.1663377
20
-20.8530513
10
-16.1670133
20
-20.8566292
10
-16.1669564
20
-20.856725
10
-15.3636053
20
-21.4553743
10
-15.3634973
20
-21.4554015
10
-15.3602619
20
-21.4537312
10
-15.3537984
20
-21.4503905
10
-15.3409006
20
-21.4437093
10
-15.315221
20
-21.4303478
10
-15.2643261
20
-21.4036309
10
-15.1643882
20
-21.3502402
10
-15.0669106
20
-21.2969426
10
-14.9718819
20
-21.2437807
10
-14.8792901
20
-21.190797
10
-14.7891227
20
-21.1380335
10
-14.7013665
20
-21.0855321
10
-14.6160077
20
-21.0333346
10
-14.5330321
20
-20.9814825
10
-14.4524247
20
-20.9300169
10
-14.3741702
20
-20.8789787
10
-14.2982523
20
-20.8284086
10
-14.2246546
20
-20.7783471
10
-14.1533598
20
-20.7288342
10
-14.0843502
20
-20.6799098
10
-14.0176076
20
-20.6316134
10
-13.9531131
20
-20.5839843
10
-13.8908473
20
-20.5370614
10
-13.8307903
20
-20.4908832
10
-13.7729217
20
-20.4454882
10
-13.7172203
20
-20.4009143
10
-13.6636648
20
-20.3571991
10
-13.6122331
20
-20.3143798
10
-13.5629026
20
-20.2724936
10
-13.5156501
20
-20.2315768
10
-13.4704522
20
-20.1916658
10
-13.4272847
20
-20.1527963
10
-13.386123
20
-20.115004
10
-13.346942
20
-20.0783239
10
-13.3097161
20
-20.0427907
10
-13.2744193
20
-20.0084387
10
-13.241025
20
-19.9753018
10
-13.2095061
20
-19.9434136
10
-13.1798352
20
-19.9128072
10
-13.1519843
20
-19.8835153
10
-13.125925
20
-19.8555701
10
-13.1016283
20
-19.8290035
10
-13.079065
20
-19.8038468
10
-13.0582054
20
-19.7801311
10
-13.0390191
20
-19.7578868
10
-13.0214756
20
-19.737144
10
-13.0055438
20
-19.7179324
10
-12.9911923
20
-19.700281
10
-12.9783892
20
-19.6842185
10
-12.9671021
20
-19.6697732
10
-12.9572983
20
-19.6569728
10
-12.9489449
20
-19.6458445
10
-12.9420083
20
-19.636415
10
-12.9364546
20
-19.6287107
10
-12.9322497
20
-19.6227573
10
-12.929359
20
-19.61858
10
-12.8780846
20
-19.5408533
10
-11.7013889
20
-20.2674001
10
-11.7479106
20
-20.3480613
10
-11.7503503
20
-20.3525171
10
-11.7537893
20
-20.3589435
10
-11.7581894
20
-20.36736
10
-11.7635123
20
-20.3777858
10
-11.7697195
20
-20.3902394
10
-11.7767718
20
-20.4047386
10
-11.7846303
20
-20.421301
10
-11.7932554
20
-20.4399431
10
-11.8026074
20
-20.4606814
10
-11.8126465
20
-20.4835315
10
-11.8233325
20
-20.5085084
10
-11.834625
20
-20.5356267
10
-11.8464834
20
-20.5649002
10
-11.8588669
20
-20.5963424
10
-11.8717344
20
-20.6299659
10
-11.8850448
20
-20.6657829
10
-11.8987567
20
-20.7038049
10
-11.9128284
20
-20.744043
10
-11.9272183
20
-20.7865074
10
-11.9418844
20
-20.8312079
10
-11.9567847
20
-20.8781537
10
-11.9718768
20
-20.9273533
10
-11.9871185
20
-20.9788147
10
-12.0024672
20
-21.0325451
10
-12.0178804
20
-21.0885514
10
-12.0333152
20
-21.1468395
10
-12.0487289
20
-21.2074151
10
-12.0640784
20
-21.2702828
10
-12.0793207
20
-21.3354471
10
-12.0944127
20
-21.4029115
10
-12.1093111
20
-21.472679
10
-12.1239727
20
-21.5447521
10
-12.1383542
20
-21.6191324
10
-12.152412
20
-21.6958212
10
-12.1661028
20
-21.7748189
10
-12.1793831
20
-21.8561254
10
-12.1922093
20
-21.93974
10
-12.2045379
20
-22.0256614
10
-12.2163254
20
-22.1138874
10
-12.2275282
20
-22.2044156
10
-12.2381027
20
-22.2972426
10
-12.2480054
20
-22.3923646
10
-12.2571927
20
-22.4897771
10
-12.2656212
20
-22.5894749
10
-12.2732473
20
-22.6914523
10
-12.2800277
20
-22.7957029
10
-12.285919
20
-22.9022196
10
-12.2908778
20
-23.0109948
10
-12.2948609
20
-23.1220202
10
-12.2978251
20
-23.235287
10
-12.2989117
20
-23.2927579
10
-12.2993537
20
-23.3217023
10
-12.2995491
20
-23.3362266
10
-12.2996404
20
-23.3435017
10
-12.2996844
20
-23.3471426
10
-12.2996117
20
-23.347227
10
-11.404511
20
-23.7972811
10
-11.4043998
20
-23.7972891
10
-11.4015037
20
-23.7950823
10
-11.3957185
20
-23.79067
10
-11.3841768
20
-23.7818506
10
-11.3612076
20
-23.7642329
10
-11.3157252
20
-23.729084
10
-11.2265767
20
-23.6591504
10
-11.1398351
20
-23.5897357
10
-11.0554815
20
-23.52088
10
-10.973497
20
-23.4526228
10
-10.8938617
20
-23.3850034
10
-10.8165554
20
-23.318061
10
-10.7415575
20
-23.2518341
10
-10.6688465
20
-23.1863612
10
-10.5984006
20
-23.1216801
10
-10.5301976
20
-23.0578285
10
-10.4642145
20
-22.9948437
10
-10.400428
20
-22.9327626
10
-10.3388142
20
-22.8716218
10
-10.2793486
20
-22.8114572
10
-10.2220066
20
-22.7523049
10
-10.1667626
20
-22.6942
10
-10.1135908
20
-22.6371776
10
-10.062465
20
-22.5812722
10
-10.0133582
20
-22.5265181
10
-9.9662433
20
-22.4729489
10
-9.9210925
20
-22.420598
10
-9.8778777
20
-22.3694982
10
-9.83657
20
-22.3196821
10
-9.7971406
20
-22.2711817
10
-9.7595598
20
-22.2240285
10
-9.7237977
20
-22.1782536
10
-9.6898239
20
-22.1338878
10
-9.6576076
20
-22.0909612
10
-9.6271176
20
-22.0495036
10
-9.5983222
20
-22.0095442
10
-9.5711893
20
-21.971112
10
-9.5456866
20
-21.934235
10
-9.5217812
20
-21.8989413
10
-9.4994399
20
-21.8652581
10
-9.4786291
20
-21.8332123
10
-9.4593148
20
-21.8028302
10
-9.4414627
20
-21.7741377
10
-9.4250382
20
-21.74716
10
-9.4100061
20
-21.721922
10
-9.396331
20
-21.698448
10
-9.3839774
20
-21.6767617
10
-9.372909
20
-21.6568863
10
-9.3630896
20
-21.6388446
10
-9.3544824
20
-21.6226588
10
-9.3470504
20
-21.6083504
10
-9.3407562
20
-21.5959406
10
-9.3355624
20
-21.5854499
10
-9.331431
20
-21.5768982
10
-9.3283238
20
-21.5703051
10
-9.3262023
20
-21.5656893
10
-9.289204
20
-21.4802397
10
-8.0042214
20
-21.9914176
10
-8.0360297
20
-22.0789318
10
-8.0376586
20
-22.0837436
10
-8.0399293
20
-22.0906695
10
-8.0428011
20
-22.0997222
10
-8.0462328
20
-22.110914
10
-8.0501831
20
-22.1242562
10
-8.0546105
20
-22.1397598
10
-8.0594736
20
-22.1574351
10
-8.0647305
20
-22.1772918
10
-8.0703393
20
-22.199339
10
-8.076258
20
-22.2235852
10
-8.0824444
20
-22.2500382
10
-8.0888563
20
-22.2787054
10
-8.0954512
20
-22.3095934
10
-8.1021867
20
-22.3427083
10
-8.1090201
20
-22.3780554
10
-8.1159087
20
-22.4156396
10
-8.1228098
20
-22.455465
10
-8.1296806
20
-22.4975353
10
-8.136478
20
-22.5418533
10
-8.1431591
20
-22.5884215
10
-8.1496809
20
-22.6372415
10
-8.1560003
20
-22.6883144
10
-8.1620743
20
-22.7416406
10
-8.1678597
20
-22.7972201
10
-8.1733133
20
-22.8550519
10
-8.178392
20
-22.9151348
10
-8.1830526
20
-22.9774666
10
-8.1872521
20
-23.0420447
10
-8.1909472
20
-23.1088657
10
-8.1940948
20
-23.1779259
10
-8.1966519
20
-23.2492206
10
-8.1985754
20
-23.3227447
10
-8.1998223
20
-23.3984923
10
-8.2003497
20
-23.4764571
10
-8.2001147
20
-23.556632
10
-8.1990745
20
-23.6390094
10
-8.1971863
20
-23.723581
10
-8.1944076
20
-23.8103379
10
-8.1906957
20
-23.8992704
10
-8.1860082
20
-23.9903686
10
-8.1803028
20
-24.0836217
10
-8.1735373
20
-24.1790181
10
-8.1656696
20
-24.276546
10
-8.1566577
20
-24.3761928
10
-8.1464598
20
-24.4779452
10
-8.1350343
20
-24.5817893
10
-8.1223396
20
-24.6877108
10
-8.1083344
20
-24.7956946
10
-8.0929777
20
-24.905725
10
-8.0762283
20
-25.0177857
10
-8.0673186
20
-25.0745722
10
-8.0627278
20
-25.1031535
10
-8.0603981
20
-25.1174911
10
-8.0592247
20
-25.1246716
10
-8.0586358
20
-25.1282648
10
-8.0585495
20
-25.1283353
10
-7.0988963
20
-25.4161194
10
-7.0987855
20
-25.416108
10
-7.0963165
20
-25.4134318
10
-7.0913855
20
-25.408082
10
-7.0815505
20
-25.3973924
10
-7.0619896
20
-25.3760537
10
-7.0233017
20
-25.333541
10
-6.9476515
20
-25.2491893
10
-6.8742813
20
-25.1657667
10
-6.803166
20
-25.0833092
10
-6.7342797
20
-25.0018525
10
-6.6675962
20
-24.9214319
10
-6.6030889
20
-24.8420824
10
-6.5407305
20
-24.7638384
10
-6.4804934
20
-24.686734
10
-6.4223495
20
-24.6108028
10
-6.3662703
20
-24.5360779
10
-6.3122269
20
-24.4625922
10
-6.2601897
20
-24.3903778
10
-6.2101289
20
-24.3194667
10
-6.1620143
20
-24.2498901
10
-6.1158151
20
-24.181679
10
-6.0715002
20
-24.1148639
10
-6.029038
20
-24.0494746
10
-5.9883968
20
-23.9855407
10
-5.949544
20
-23.9230911
10
-5.9124471
20
-23.8621543
10
-5.8770729
20
-23.8027584
10
-5.8433879
20
-23.7449308
10
-5.8113583
20
-23.6886985
10
-5.7809499
20
-23.634088
10
-5.7521281
20
-23.5811253
10
-5.7248581
20
-23.5298359
10
-5.6991045
20
-23.4802446
10
-5.6748317
20
-23.4323758
10
-5.6520039
20
-23.3862535
10
-5.6305848
20
-23.341901
10
-5.6105379
20
-23.299341
10
-5.5918262
20
-23.2585958
10
-5.5744127
20
-23.2196872
10
-5.5582598
20
-23.1826362
10
-5.5433299
20
-23.1474634
10
-5.5295848
20
-23.114189
10
-5.5169864
20
-23.0828324
10
-5.505496
20
-23.0534125
10
-5.4950748
20
-23.0259476
10
-5.4856837
20
-23.0004555
10
-5.4772835
20
-22.9769535
10
-5.4698346
20
-22.9554581
10
-5.4632973
20
-22.9359854
10
-5.4576315
20
-22.9185508
10
-5.452797
20
-22.9031693
10
-5.4487534
20
-22.8898551
10
-5.4454602
20
-22.8786218
10
-5.4428765
20
-22.8694827
10
-5.4409614
20
-22.8624501
10
-5.4396737
20
-22.857536
10
-5.4180756
20
-22.7669599
10
-4.0638497
20
-23.047237
10
-4.0799781
20
-23.1389451
10
-4.0807466
20
-23.1439666
10
-4.0817803
20
-23.1511816
10
-4.0830364
20
-23.1605956
10
-4.0844725
20
-23.1722132
10
-4.0860459
20
-23.1860386
10
-4.0877139
20
-23.2020755
10
-4.0894338
20
-23.2203268
10
-4.0911628
20
-23.2407946
10
-4.0928579
20
-23.2634809
10
-4.0944764
20
-23.2883865
10
-4.0959753
20
-23.3155119
10
-4.0973118
20
-23.344857
10
-4.0984429
20
-23.3764209
10
-4.0993257
20
-23.4102023
10
-4.0999173
20
-23.446199
10
-4.1001749
20
-23.4844084
10
-4.1000555
20
-23.5248272
10
-4.0995164
20
-23.5674514
10
-4.0985148
20
-23.6122765
10
-4.097008
20
-23.6592974
10
-4.0949532
20
-23.7085082
10
-4.0923079
20
-23.7599025
10
-4.0890296
20
-23.8134733
10
-4.0850758
20
-23.869213
10
-4.0804042
20
-23.9271133
10
-4.0749724
20
-23.9871653
10
-4.0687385
20
-24.0493594
10
-4.0616602
20
-24.1136856
10
-4.0536958
20
-24.1801332
10
-4.0448035
20
-24.2486907
10
-4.0349415
20
-24.3193464
10
-4.0240685
20
-24.3920874
10
-4.0121431
20
-24.4669008
10
-3.999124
20
-24.5437728
10
-3.9849703
20
-24.6226888
10
-3.9696412
20
-24.7036341
10
-3.9530961
20
-24.786593
10
-3.9352943
20
-24.8715493
10
-3.9161959
20
-24.9584862
10
-3.8957606
20
-25.0473864
10
-3.8739486
20
-25.138232
10
-3.8507205
20
-25.2310044
10
-3.8260367
20
-25.3256844
10
-3.7998583
20
-25.4222524
10
-3.7721462
20
-25.5206881
10
-3.7428619
20
-25.6209706
10
-3.711967
20
-25.7230785
10
-3.6794234
20
-25.8269898
10
-3.6451934
20
-25.9326819
10
-3.6092393
20
-26.0401316
10
-3.5906041
20
-26.0945083
10
-3.58112
20
-26.1218582
10
-3.576336
20
-26.1355734
10
-3.5739335
20
-26.1424411
10
-3.5727296
20
-26.1458774
10
-3.5726324
20
-26.1459319
10
-2.5775853
20
-26.2627019
10
-2.5774782
20
-26.2626714
10
-2.5755114
20
-26.2596071
10
-2.5715842
20
-26.2534823
10
-2.563755
20
-26.2412473
10
-2.5481966
20
-26.2168361
10
-2.5174787
20
-26.1682511
10
-2.4576253
20
-26.0720444
10
-2.399856
20
-25.9771486
10
-2.3441397
20
-25.8835947
10
-2.2904447
20
-25.7914135
10
-2.2387392
20
-25.7006353
10
-2.1889908
20
-25.6112897
10
-2.1411667
20
-25.523406
10
-2.0952337
20
-25.4370129
10
-2.0511585
20
-25.3521387
10
-2.0089072
20
-25.268811
10
-1.9684454
20
-25.1870571
10
-1.9297387
20
-25.1069037
10
-1.892752
20
-25.0283769
10
-1.8574502
20
-24.9515023
10
-1.8237976
20
-24.8763051
10
-1.7917583
20
-24.8028098
10
-1.761296
20
-24.7310405
10
-1.7323741
20
-24.6610206
10
-1.7049559
20
-24.592773
10
-1.6790041
20
-24.5263202
10
-1.6544813
20
-24.461684
10
-1.6313497
20
-24.3988856
10
-1.6095714
20
-24.3379457
10
-1.589108
20
-24.2788845
10
-1.5699209
20
-24.2217216
10
-1.5519715
20
-24.1664759
10
-1.5352206
20
-24.113166
10
-1.5196289
20
-24.0618096
10
-1.505157
20
-24.0124239
10
-1.491765
20
-23.9650258
10
-1.4794131
20
-23.9196313
10
-1.4680611
20
-23.8762559
10
-1.4576685
20
-23.8349145
10
-1.4481949
20
-23.7956215
10
-1.4395994
20
-23.7583906
10
-1.4318412
20
-23.7232349
10
-1.4248792
20
-23.6901669
10
-1.418672
20
-23.6591987
10
-1.4131784
20
-23.6303414
10
-1.4083567
20
-23.6036059
10
-1.4041652
20
-23.5790023
10
-1.4005621
20
-23.5565399
10
-1.3975054
20
-23.5362279
10
-1.3949532
20
-23.5180743
10
-1.3928631
20
-23.502087
10
-1.391193
20
-23.4882728
10
-1.3899005
20
-23.4766384
10
-1.388943
20
-23.4671894
10
-1.3882782
20
-23.4599311
10
-1.3878633
20
-23.4548681
10
-1.3823217
20
-23.3619176
10
0
20
-23.4027778
10
0.0000416
20
-23.4958933
10
0.0001567
20
-23.500972
10
0.0003917
20
-23.5082569
10
0.0007893
20
-23.5177459
10
0.0013924
20
-23.5294364
10
0.0022437
20
-23.543325
10
0.0033857
20
-23.5594079
10
0.0048613
20
-23.5776806
10
0.0067128
20
-23.5981377
10
0.0089828
20
-23.6207736
10
0.0117138
20
-23.6455819
10
0.0149479
20
-23.6725555
10
0.0187274
20
-23.7016869
10
0.0230946
20
-23.7329677
10
0.0280912
20
-23.7663892
10
0.0337594
20
-23.8019417
10
0.0401407
20
-23.8396154
10
0.0472769
20
-23.8793994
10
0.0552094
20
-23.9212824
10
0.0639796
20
-23.9652526
10
0.0736287
20
-24.0112974
10
0.0841976
20
-24.0594038
10
0.0957272
20
-24.109558
10
0.1082582
20
-24.1617457
10
0.121831
20
-24.215952
10
0.136486
20
-24.2721614
10
0.1522631
20
-24.3303579
10
0.1692022
20
-24.3905246
10
0.1873431
20
-24.4526445
10
0.206725
20
-24.5166995
10
0.2273871
20
-24.5826714
10
0.2493685
20
-24.6505411
10
0.2727077
20
-24.720289
10
0.2974432
20
-24.791895
10
0.3236131
20
-24.8653383
10
0.3512554
20
-24.9405977
10
0.3804076
20
-25.0176514
10
0.4111071
20
-25.0964769
10
0.4433908
20
-25.1770512
10
0.4772956
20
-25.259351
10
0.5128578
20
-25.3433521
10
0.5501135
20
-25.4290299
10
0.5890985
20
-25.5163593
10
0.6298483
20
-25.6053147
10
0.6723979
20
-25.6958697
10
0.7167822
20
-25.7879978
10
0.7630355
20
-25.8816716
10
0.8111918
20
-25.9768634
10
0.861285
20
-26.0735449
10
0.9133482
20
-26.1716873
10
0.9674146
20
-26.2712614
10
0.995209
20
-26.3215759
10
1.0092984
20
-26.3468635
10
1.0163913
20
-26.3595396
10
1.0199498
20
-26.3658857
10
1.0217321
20
-26.3690608
10
1.0218373
20
-26.3690975
10
2.0220443
20
-26.3113054
10
2.0221446
20
-26.3112568
10
2.0235493
20
-26.3078976
10
2.0263533
20
-26.3011838
10
2.031939
20
-26.2877751
10
2.0430221
20
-26.2610331
10
2.0648366
20
-26.2078522
10
2.1070745
20
-26.1027137
10
2.1474877
20
-25.999228
10
2.1861121
20
-25.8974203
10
2.2229842
20
-25.7973156
10
2.2581408
20
-25.6989379
10
2.2916187
20
-25.6023109
10
2.3234554
20
-25.5074578
10
2.3536885
20
-25.414401
10
2.3823558
20
-25.3231627
10
2.4094956
20
-25.2337641
10
2.4351463
20
-25.1462261
10
2.4593465
20
-25.060569
10
2.4821352
20
-24.9768125
10
2.5035516
20
-24.8949758
10
2.5236351
20
-24.8150773
10
2.5424253
20
-24.737135
10
2.5599622
20
-24.6611663
10
2.5762858
20
-24.5871879
10
2.5914364
20
-24.515216
10
2.6054545
20
-24.4452663
10
2.6183808
20
-24.3773537
10
2.6302561
20
-24.3114926
10
2.6411215
20
-24.2476967
10
2.6510182
20
-24.1859794
10
2.6599875
20
-24.1263531
10
2.668071
20
-24.0688299
10
2.6753102
20
-24.0134211
10
2.6817471
20
-23.9601374
10
2.6874234
20
-23.908989
10
2.6923813
20
-23.8599855
10
2.6966629
20
-23.8131358
10
2.7003104
20
-23.7684481
10
2.7033662
20
-23.7259301
10
2.7058728
20
-23.685589
10
2.7078726
20
-23.6474311
10
2.7094082
20
-23.6114623
10
2.7105223
20
-23.5776878
10
2.7112575
20
-23.5461121
10
2.7116567
20
-23.5167393
10
2.7117626
20
-23.4895727
10
2.711618
20
-23.464615
10
2.7112658
20
-23.4418682
10
2.7107489
20
-23.421334
10
2.71011
20
-23.403013
10
2.7093922
20
-23.3869056
10
2.7086381
20
-23.3730113
10
2.7078907
20
-23.3613292
10
2.7071928
20
-23.3518575
10
2.7065872
20
-23.344594
10
2.7061165
20
-23.3395359
10
2.6954332
20
-23.2470352
10
4.0638497
20
-23.047237
10
4.0800601
20
-23.1389307
10
4.0810553
20
-23.1439122
10
4.0825517
20
-23.1510456
10
4.084591
20
-23.1603214
10
4.087215
20
-23.1717296
10
4.0904651
20
-23.1852594
10
4.0943826
20
-23.2008997
10
4.0990087
20
-23.2186385
10
4.1043844
20
-23.2384633
10
4.1105507
20
-23.2603611
10
4.117548
20
-23.2843183
10
4.1254169
20
-23.3103206
10
4.1341977
20
-23.338353
10
4.1439303
20
-23.3684003
10
4.1546546
20
-23.4004463
10
4.1664103
20
-23.4344745
10
4.1792366
20
-23.4704677
10
4.1931728
20
-23.5084081
10
4.2082578
20
-23.5482774
10
4.2245301
20
-23.5900566
10
4.2420281
20
-23.6337264
10
4.2607901
20
-23.6792667
10
4.2808537
20
-23.7266568
10
4.3022566
20
-23.7758757
10
4.3250361
20
-23.8269016
10
4.349229
20
-23.8797122
10
4.3748722
20
-23.9342848
10
4.4020018
20
-23.9905961
10
4.4306541
20
-24.0486221
10
4.4608645
20
-24.1083384
10
4.4926687
20
-24.16972
10
4.5261015
20
-24.2327416
10
4.5611978
20
-24.2973771
10
4.5979917
20
-24.3635999
10
4.6365174
20
-24.4313831
10
4.6768084
20
-24.5006991
10
4.7188979
20
-24.5715199
10
4.7628189
20
-24.643817
10
4.8086038
20
-24.7175612
10
4.8562847
20
-24.7927232
10
4.9058932
20
-24.8692728
10
4.9574608
20
-24.9471796
10
5.0110181
20
-25.0264126
10
5.0665957
20
-25.1069404
10
5.1242236
20
-25.1887311
10
5.1839315
20
-25.2717523
10
5.2457483
20
-25.3559712
10
5.309703
20
-25.4413545
10
5.3758237
20
-25.5278686
10
5.4441382
20
-25.6154794
10
5.514674
20
-25.7041521
10
5.5507833
20
-25.7488758
10
5.5690497
20
-25.7713326
10
5.578236
20
-25.7825844
10
5.5828425
20
-25.7882162
10
5.5851491
20
-25.7910336
10
5.5852591
20
-25.7910515
10
6.5602351
20
-25.5604533
10
6.5603254
20
-25.560388
10
6.5611255
20
-25.5568358
10
6.562721
20
-25.5497372
10
6.5658935
20
-25.5355622
10
6.5721645
20
-25.507302
10
6.5844128
20
-25.4511409
10
6.607752
20
-25.3402651
10
6.6295811
20
-25.2313339
10
6.64994
20
-25.1243659
10
6.6688689
20
-25.0193792
10
6.6864083
20
-24.9163912
10
6.7025985
20
-24.8154189
10
6.7174805
20
-24.7164784
10
6.7310951
20
-24.6195855
10
6.7434836
20
-24.5247552
10
6.7546871
20
-24.432002
10
6.7647473
20
-24.3413397
10
6.7737056
20
-24.2527816
10
6.7816039
20
-24.1663404
10
6.7884842
20
-24.082028
10
6.7943883
20
-23.9998559
10
6.7993586
20
-23.9198348
10
6.8034372
20
-23.841975
10
6.8066666
20
-23.7662859
10
6.8090893
20
-23.6927766
10
6.8107478
20
-23.6214554
10
6.8116848
20
-23.5523299
10
6.811943
20
-23.4854072
10
6.8115653
20
-23.4206938
10
6.8105945
20
-23.3581956
10
6.8090736
20
-23.2979176
10
6.8070454
20
-23.2398646
10
6.804553
20
-23.1840405
10
6.8016395
20
-23.1304486
10
6.7983478
20
-23.0790916
10
6.794721
20
-23.0299716
10
6.7908021
20
-22.9830901
10
6.7866343
20
-22.9384479
10
6.7822606
20
-22.8960453
10
6.7777239
20
-22.8558818
10
6.7730672
20
-22.8179563
10
6.7683336
20
-22.7822673
10
6.7635659
20
-22.7488124
10
6.7588069
20
-22.7175888
10
6.7540995
20
-22.688593
10
6.7494863
20
-22.6618207
10
6.7450101
20
-22.6372672
10
6.7407133
20
-22.6149272
10
6.7366385
20
-22.5947947
10
6.7328279
20
-22.576863
10
6.7293239
20
-22.5611249
10
6.7261686
20
-22.5475727
10
6.723404
20
-22.5361978
10
6.721072
20
-22.5269912
10
6.7192143
20
-22.5199433
10
6.7178724
20
-22.5150437
10
6.6912889
20
-22.4258035
10
8.0042214
20
-21.9914176
10
8.0361079
20
-22.0789033
10
8.0379531
20
-22.0836364
10
8.0406654
20
-22.0904016
10
8.0442845
20
-22.0991823
10
8.0488496
20
-22.1099615
10
8.0543998
20
-22.1227214
10
8.0609736
20
-22.1374438
10
8.0686098
20
-22.1541098
10
8.0773464
20
-22.1726999
10
8.0872215
20
-22.1931944
10
8.0982727
20
-22.2155725
10
8.1105373
20
-22.2398133
10
8.1240524
20
-22.2658951
10
8.1388548
20
-22.2937958
10
8.154981
20
-22.3234928
10
8.1724669
20
-22.3549626
10
8.1913486
20
-22.3881817
10
8.2116613
20
-22.4231257
10
8.2334403
20
-22.4597698
10
8.2567203
20
-22.4980887
10
8.2815357
20
-22.5380565
10
8.3079206
20
-22.579647
10
8.3359086
20
-22.6228331
10
8.3655332
20
-22.6675877
10
8.3968271
20
-22.7138827
10
8.429823
20
-22.76169
10
8.464553
20
-22.8109807
10
8.5010488
20
-22.8617254
10
8.5393419
20
-22.9138945
10
8.579463
20
-22.9674575
10
8.6214428
20
-23.0223839
10
8.6653113
20
-23.0786425
10
8.7110982
20
-23.1362016
10
8.7588326
20
-23.1950292
10
8.8085434
20
-23.2550927
10
8.8602589
20
-23.3163592
10
8.9140069
20
-23.3787953
10
8.9698149
20
-23.4423672
10
9.0277098
20
-23.5070407
10
9.087718
20
-23.572781
10
9.1498656
20
-23.6395532
10
9.2141781
20
-23.7073218
10
9.2806804
20
-23.776051
10
9.3493972
20
-23.8457044
10
9.4203524
20
-23.9162455
10
9.4935696
20
-23.9876373
10
9.5690718
20
-24.0598424
10
9.6468815
20
-24.1328229
10
9.7270207
20
-24.206541
10
9.8095109
20
-24.280958
10
9.8943729
20
-24.3560352
10
9.9376998
20
-24.3938091
10
9.9595883
20
-24.4127528
10
9.9705889
20
-24.4222385
10
9.9761033
20
-24.4269848
10
9.9788641
20
-24.4293588
10
9.9789755
20
-24.4293574
10
10.8990966
20
-24.0329597
10
10.8991741
20
-24.0328797
10
10.8993452
20
-24.0292426
10
10.8996839
20
-24.0219747
10
10.9003467
20
-24.0074642
10
10.9016151
20
-23.9785444
10
10.903925
20
-23.9211096
10
10.9076563
20
-23.8078655
10
10.910238
20
-23.6967986
10
10.9117129
20
-23.5879204
10
10.9121235
20
-23.4812417
10
10.9115126
20
-23.3767727
10
10.9099232
20
-23.2745229
10
10.9073983
20
-23.1745013
10
10.9039808
20
-23.0767162
10
10.8997139
20
-22.9811754
10
10.8946409
20
-22.8878858
10
10.8888048
20
-22.796854
10
10.8822491
20
-22.7080857
10
10.8750171
20
-22.6215862
10
10.8671521
20
-22.53736
10
10.8586975
20
-22.455411
10
10.8496968
20
-22.3757425
10
10.8401932
20
-22.2983573
10
10.8302303
20
-22.2232574
10
10.8198514
20
-22.1504442
10
10.8090999
20
-22.0799184
10
10.7980191
20
-22.0116804
10
10.7866525
20
-21.9457296
10
10.7750431
20
-21.8820649
10
10.7632344
20
-21.8206847
10
10.7512694
20
-21.7615867
10
10.7391912
20
-21.7047678
10
10.727043
20
-21.6502246
10
10.7148675
20
-21.5979528
10
10.7027078
20
-21.5479476
10
10.6906065
20
-21.5002037
10
10.6786063
20
-21.4547149
10
10.6667498
20
-21.4114747
10
10.6550793
20
-21.3704757
10
10.6436372
20
-21.3317102
10
10.6324656
20
-21.2951695
10
10.6216066
20
-21.2608447
10
10.6111019
20
-21.228726
10
10.6009933
20
-21.1988031
10
10.5913223
20
-21.1710652
10
10.5821303
20
-21.1455007
10
10.5734584
20
-21.1220975
10
10.5653476
20
-21.1008431
10
10.5578387
20
-21.081724
10
10.5509723
20
-21.0647264
10
10.5447886
20
-21.0498359
10
10.5393279
20
-21.0370375
10
10.5346301
20
-21.0263155
10
10.5307348
20
-21.0176537
10
10.5276814
20
-21.0110354
10
10.5255092
20
-21.0064433
10
10.4838331
20
-20.923175
10
11.7013889
20
-20.2674001
10
11.7479827
20
-20.3480197
10
11.7506217
20
-20.3523604
10
11.7544676
20
-20.3585518
10
11.7595565
20
-20.3665707
10
11.7659241
20
-20.3763934
10
11.7736056
20
-20.3879957
10
11.7826361
20
-20.4013529
10
11.7930503
20
-20.4164397
10
11.8048823
20
-20.4332303
10
11.8181662
20
-20.4516986
10
11.8329354
20
-20.4718177
10
11.849223
20
-20.4935605
10
11.8670619
20
-20.5168992
10
11.8864843
20
-20.5418057
10
11.9075223
20
-20.5682512
10
11.9302073
20
-20.5962065
10
11.9545705
20
-20.6256422
10
11.9806427
20
-20.656528
10
12.008454
20
-20.6888335
10
12.0380343
20
-20.7225278
10
12.069413
20
-20.7575792
10
12.1026192
20
-20.7939561
10
12.1376812
20
-20.8316261
10
12.1746272
20
-20.8705565
10
12.2134848
20
-20.9107141
10
12.254281
20
-20.9520654
10
12.2970426
20
-20.9945764
10
12.3417958
20
-21.0382128
10
12.3885661
20
-21.0829398
10
12.4373788
20
-21.1287221
10
12.4882587
20
-21.1755244
10
12.54123
20
-21.2233106
10
12.5963163
20
-21.2720444
10
12.6535408
20
-21.3216893
10
12.7129263
20
-21.3722081
10
12.7744949
20
-21.4235635
10
12.8382683
20
-21.4757178
10
12.9042676
20
-21.528633
10
12.9725133
20
-21.5822706
10
13.0430256
20
-21.6365918
10
13.1158239
20
-21.6915578
10
13.1909272
20
-21.7471291
10
13.268354
20
-21.8032661
10
13.348122
20
-21.8599288
10
13.4302486
20
-21.917077
10
13.5147505
20
-21.9746701
10
13.6016439
20
-22.0326674
10
13.6909444
20
-22.0910277
10
13.7826671
20
-22.1497098
10
13.8768265
20
-22.208672
10
13.9734363
20
-22.2678725
10
14.0226643
20
-22.2975489
10
14.0475098
20
-22.3124039
10
14.0599905
20
-22.3198352
10
14.0662453
20
-22.3235519
10
14.0693764
20
-22.3254104
10
14.0694859
20
-22.3253897
10
14.9067945
20
-21.7752368
10
14.906857
20
-21.7751445
10
14.9063939
20
-21.771533
10
14.9054653
20
-21.7643167
10
14.9035983
20
-21.7499116
10
14.8998256
20
-21.7212108
10
14.892127
20
-21.6642475
10
14.8761369
20
-21.5520759
10
14.8593929
20
-21.442248
10
14.8419388
20
-21.3347678
10
14.8238186
20
-21.2296385
10
14.8050762
20
-21.1268627
10
14.7857555
20
-21.0264423
10
14.7659003
20
-20.9283787
10
14.7455545
20
-20.8326727
10
14.724762
20
-20.7393242
10
14.7035664
20
-20.6483329
10
14.6820116
20
-20.5596975
10
14.660141
20
-20.4734162
10
14.6379984
20
-20.3894866
10
14.6156271
20
-20.3079057
10
14.5930707
20
-20.2286698
10
14.5703724
20
-20.1517747
10
14.5475754
20
-20.0772154
10
14.5247229
20
-20.0049864
10
14.5018578
20
-19.9350817
10
14.479023
20
-19.8674944
10
14.4562611
20
-19.8022172
10
14.4336149
20
-19.7392421
10
14.4111267
20
-19.6785606
10
14.3888388
20
-19.6201635
10
14.3667933
20
-19.564041
10
14.3450322
20
-19.5101826
10
14.3235971
20
-19.4585776
10
14.3025298
20
-19.4092141
10
14.2818715
20
-19.3620802
10
14.2616634
20
-19.3171629
10
14.2419464
20
-19.2744491
10
14.2227615
20
-19.2339246
10
14.2041489
20
-19.1955751
10
14.1861491
20
-19.1593853
10
14.168802
20
-19.1253398
10
14.1521475
20
-19.0934221
10
14.136225
20
-19.0636154
10
14.1210739
20
-19.0359025
10
14.1067332
20
-19.0102653
10
14.0932416
20
-18.9866854
10
14.0806376
20
-18.9651436
10
14.0689592
20
-18.9456205
10
14.0582444
20
-18.9280958
10
14.0485306
20
-18.9125488
10
14.0398552
20
-18.8989583
10
14.0322551
20
-18.8873025
10
14.0257667
20
-18.8775592
10
14.0204265
20
-18.8697054
10
14.0162703
20
-18.8637179
10
14.0133336
20
-18.8595727
10
13.9578313
20
-18.7848065
10
15.0430156
20
-17.9275679
10
15.102901
20
-17.9988718
10
15.1062537
20
-18.0026883
10
15.1111163
20
-18.0081178
10
15.1175203
20
-18.0151312
10
15.1254968
20
-18.023699
10
15.1350764
20
-18.0337911
10
15.1462891
20
-18.0453772
10
15.1591649
20
-18.0584264
10
15.1737328
20
-18.0729073
10
15.1900219
20
-18.0887883
10
15.2080603
20
-18.1060372
10
15.2278761
20
-18.1246213
10
15.2494967
20
-18.1445078
10
15.2729491
20
-18.1656632
10
15.2982596
20
-18.1880537
10
15.3254544
20
-18.2116451
10
15.3545589
20
-18.2364029
10
15.3855982
20
-18.2622922
10
15.4185968
20
-18.2892775
10
15.4535787
20
-18.3173233
10
15.4905673
20
-18.3463934
10
15.5295858
20
-18.3764514
10
15.5706565
20
-18.4074607
10
15.6138014
20
-18.439384
10
15.6590419
20
-18.472184
10
15.706399
20
-18.5058229
10
15.7558929
20
-18.5402626
10
15.8075435
20
-18.5754647
10
15.86137
20
-18.6113906
10
15.9173912
20
-18.6480012
10
15.9756252
20
-18.6852572
10
16.0360897
20
-18.7231191
10
16.0988017
20
-18.7615469
10
16.1637776
20
-18.8005006
10
16.2310334
20
-18.8399397
10
16.3005844
20
-18.8798237
10
16.3724454
20
-18.9201115
10
16.4466307
20
-18.9607621
10
16.5231537
20
-19.0017341
10
16.6020275
20
-19.0429858
10
16.6832646
20
-19.0844754
10
16.7668767
20
-19.1261609
10
16.8528753
20
-19.168
10
16.9412708
20
-19.2099503
10
17.0320734
20
-19.2519692
10
17.1252925
20
-19.2940137
10
17.2209369
20
-19.336041
10
17.3190149
20
-19.3780078
10
17.4195342
20
-19.4198709
10
17.5225017
20
-19.4615867
10
17.6279238
20
-19.5031117
10
17.6815572
20
-19.5237889
10
17.7086048
20
-19.5341038
10
17.7221863
20
-19.5392551
10
17.7289916
20
-19.5418291
10
17.7323978
20
-19.5431157
10
17.732502
20
-19.5430763
10
18.4615569
20
-18.8558843
10
18.4616025
20
-18.8557826
10
18.4605193
20
-18.8523063
10
18.4583517
20
-18.8453609
10
18.4540117
20
-18.8314989
10
18.4453124
20
-18.8038892
10
18.4278392
20
-18.7491282
10
18.3926137
20
-18.6414373
10
18.3570526
20
-18.5361856
10
18.3212
20
-18.4333692
10
18.2850995
20
-18.3329835
10
18.248795
20
-18.2350237
10
18.21233
20
-18.1394839
10
18.1757479
20
-18.0463579
10
18.1390921
20
-17.9556389
10
18.1024057
20
-17.8673192
10
18.0657316
20
-17.7813908
10
18.0291128
20
-17.6978449
10
17.992592
20
-17.6166722
10
17.9562115
20
-17.5378627
10
17.9200137
20
-17.4614059
10
17.8840408
20
-17.3872907
10
17.8483347
20
-17.3155053
10
17.8129369
20
-17.2460374
10
17.7778892
20
-17.1788741
10
17.7432326
20
-17.1140018
10
17.7090083
20
-17.0514065
10
17.675257
20
-16.9910736
10
17.6420193
20
-16.9329877
10
17.6093355
20
-16.8771332
10
17.5772457
20
-16.8234935
10
17.5457895
20
-16.7720517
10
17.5150066
20
-16.7227904
10
17.484936
20
-16.6756915
10
17.4556169
20
-16.6307363
10
17.4270877
20
-16.5879057
10
17.3993868
20
-16.54718
10
17.3725522
20
-16.5085388
10
17.3466217
20
-16.4719615
10
17.3216326
20
-16.4374266
10
17.2976219
20
-16.4049123
10
17.2746264
20
-16.3743962
10
17.2526825
20
-16.3458555
10
17.2318261
20
-16.3192666
10
17.2120929
20
-16.2946056
10
17.1935182
20
-16.2718481
10
17.1761369
20
-16.2509692
10
17.1599837
20
-16.2319434
10
17.1450926
20
-16.2147448
10
17.1314974
20
-16.1993469
10
17.1192315
20
-16.1857229
10
17.1083279
20
-16.1738454
10
17.0988192
20
-16.1636864
10
17.0907376
20
-16.1552178
10
17.0841147
20
-16.1484107
10
17.0789819
20
-16.1432358
10
17.07537
20
-16.1396636
10
17.0077279
20
-16.0756711
10
17.9275679
20
-15.0430156
10
17.9989253
20
-15.1028372
10
18.0028897
20
-15.1060136
10
18.0086213
20
-15.1105162
10
18.0161459
20
-15.116311
10
18.025489
20
-15.1233635
10
18.0366755
20
-15.1316389
10
18.0497299
20
-15.1411019
10
18.0646759
20
-15.151717
10
18.0815372
20
-15.1634482
10
18.1003364
20
-15.1762594
10
18.1210961
20
-15.1901138
10
18.143838
20
-15.2049746
10
18.1685833
20
-15.2208046
10
18.1953529
20
-15.2375661
10
18.224167
20
-15.2552214
10
18.2550453
20
-15.2737321
10
18.2880068
20
-15.2930598
10
18.3230702
20
-15.3131658
10
18.3602534
20
-15.3340111
10
18.3995739
20
-15.3555562
10
18.4410486
20
-15.3777617
10
18.4846938
20
-15.4005876
10
18.5305252
20
-15.4239939
10
18.5785581
20
-15.4479402
10
18.628807
20
-15.4723859
10
18.6812859
20
-15.4972903
10
18.7360083
20
-15.5226123
10
18.792987
20
-15.5483106
10
18.8522342
20
-15.5743438
10
18.9137617
20
-15.6006702
10
18.9775805
20
-15.627248
10
19.043701
20
-15.6540351
10
19.1121331
20
-15.6809893
10
19.1828861
20
-15.7080682
10
19.2559687
20
-15.7352294
10
19.3313889
20
-15.76243
10
19.4091541
20
-15.7896272
10
19.4892712
20
-15.8167781
10
19.5717463
20
-15.8438395
10
19.6565852
20
-15.8707682
10
19.7437927
20
-15.8975208
10
19.8333732
20
-15.9240539
10
19.9253305
20
-15.950324
10
20.0196677
20
-15.9762872
10
20.1163873
20
-16.0019
10
20.2154911
20
-16.0271185
10
20.3169805
20
-16.0518988
10
20.4208559
20
-16.076197
10
20.5271175
20
-16.0999691
10
20.6357646
20
-16.123171
10
20.7467959
20
-16.1457588
10
20.803205
20
-16.1568085
10
20.8316328
20
-16.16227
10
20.8459025
20
-16.1649845
10
20.8530513
20
-16.1663377
10
20.8566292
20
-16.1670133
10
20.856725
20
-16.1669564
10
21.4553743
20
-15.3636053
10
21.4554015
20
-15.3634973
10
21.4537312
20
-15.3602619
10
21.4503905
20
-15.3537984
10
21.4437093
20
-15.3409006
10
21.4303478
20
-15.315221
10
21.4036309
20
-15.2643261
10
21.3502402
20
-15.1643882
10
21.2969426
20
-15.0669106
10
21.2437807
20
-14.9718819
10
21.190797
20
-14.8792901
10
21.1380335
20
-14.7891227
10
21.0855321
20
-14.7013665
10
21.0333346
20
-14.6160077
10
20.9814825
20
-14.5330321
10
20.9300169
20
-14.4524247
10
20.8789787
20
-14.3741702
10
20.8284086
20
-14.2982523
10
20.7783471
20
-14.2246546
10
20.7288342
20
-14.1533598
10
20.6799098
20
-14.0843502
10
20.6316134
20
-14.0176076
10
20.5839843
20
-13.9531131
10
20.5370614
20
-13.8908473
10
20.4908832
20
-13.8307903
10
20.4454882
20
-13.7729217
10
20.4009143
20
-13.7172203
10
20.3571991
20
-13.6636648
10
20.3143798
20
-13.6122331
10
20.2724936
20
-13.5629026
10
20.2315768
20
-13.5156501
10
20.1916658
20
-13.4704522
10
20.1527963
20
-13.4272847
10
20.115004
20
-13.386123
10
20.0783239
20
-13.346942
10
20.0427907
20
-13.3097161
10
20.0084387
20
-13.2744193
10
19.9753018
20
-13.241025
10
19.9434136
20
-13.2095061
10
19.9128072
20
-13.1798352
10
19.8835153
20
-13.1519843
10
19.8555701
20
-13.125925
10
19.8290035
20
-13.1016283
10
19.8038468
20
-13.079065
10
19.7801311
20
-13.0582054
10
19.7578868
20
-13.0390191
10
19.737144
20
-13.0214756
10
19.7179324
20
-13.0055438
10
19.700281
20
-12.9911923
10
19.6842185
20
-12.9783892
10
19.6697732
20
-12.9671021
10
19.6569728
20
-12.9572983
10
19.6458445
20
-12.9489449
10
19.636415
20
-12.9420083
10
19.6287107
20
-12.9364546
10
19.6227573
20
-12.9322497
10
19.61858
20
-12.929359
10
19.5408533
20
-12.8780846
10
20.2674001
20
-11.7013889
10
20.3480613
20
-11.7479106
10
20.3525171
20
-11.7503503
10
20.3589435
20
-11.7537893
10
20.36736
20
-11.7581894
10
20.3777858
20
-11.7635123
10
20.3902394
20
-11.7697195
10
20.4047386
20
-11.7767718
10
20.421301
20
-11.7846303
10
20.4399431
20
-11.7932554
10
20.4606814
20
-11.8026074
10
20.4835315
20
-11.8126465
10
20.5085084
20
-11.8233325
10
20.5356267
20
-11.834625
10
20.5649002
20
-11.8464834
10
20.5963424
20
-11.8588669
10
20.6299659
20
-11.8717344
10
20.6657829
20
-11.8850448
10
20.7038049
20
-11.8987567
10
20.744043
20
-11.9128284
10
20.7865074
20
-11.9272183
10
20.8312079
20
-11.9418844
10
20.8781537
20
-11.9567847
10
20.9273533
20
-11.9718768
10
20.9788147
20
-11.9871185
10
21.0325451
20
-12.0024672
10
21.0885514
20
-12.0178804
10
21.1468395
20
-12.0333152
10
21.2074151
20
-12.0487289
10
21.2702828
20
-12.0640784
10
21.3354471
20
-12.0793207
10
21.4029115
20
-12.0944127
10
21.472679
20
-12.1093111
10
21.5447521
20
-12.1239727
10
21.6191324
20
-12.1383542
10
21.6958212
20
-12.152412
10
21.7748189
20
-12.1661028
10
21.8561254
20
-12.1793831
10
21.93974
20
-12.1922093
10
22.0256614
20
-12.2045379
10
22.1138874
20
-12.2163254
10
22.2044156
20
-12.2275282
10
22.2972426
20
-12.2381027
10
22.3923646
20
-12.2480054
10
22.4897771
20
-12.2571927
10
22.5894749
20
-12.2656212
10
22.6914523
20
-12.2732473
10
22.7957029
20
-12.2800277
10
22.9022196
20
-12.285919
10
23.0109948
20
-12.2908778
10
23.1220202
20
-12.2948609
10
23.235287
20
-12.2978251
10
23.2927579
20
-12.2989117
10
23.3217023
20
-12.2993537
10
23.3362266
20
-12.2995491
10
23.3435017
20
-12.2996404
10
23.3471426
20
-12.2996844
10
23.347227
20
-12.2996117
10
23.7972811
20
-11.404511
10
23.7972891
20
-11.4043998
10
23.7950823
20
-11.4015037
10
23.79067
20
-11.3957185
10
23.7818506
20
-11.3841768
10
23.7642329
20
-11.3612076
10
23.729084
20
-11.3157252
10
23.6591504
20
-11.2265767
10
23.5897357
20
-11.1398351
10
23.52088
20
-11.0554815
10
23.4526228
20
-10.973497
10
23.3850034
20
-10.8938617
10
23.318061
20
-10.8165554
10
23.2518341
20
-10.7415575
10
23.1863612
20
-10.6688465
10
23.1216801
20
-10.5984006
10
23.0578285
20
-10.5301976
10
22.9948437
20
-10.4642145
10
22.9327626
20
-10.400428
10
22.8716218
20
-10.3388142
10
22.8114572
20
-10.2793486
10
22.7523049
20
-10.2220066
10
22.6942
20
-10.1667626
10
22.6371776
20
-10.1135908
10
22.5812722
20
-10.062465
10
22.5265181
20
-10.0133582
10
22.4729489
20
-9.9662433
10
22.420598
20
-9.9210925
10
22.3694982
20
-9.8778777
10
22.3196821
20
-9.83657
10
22.2711817
20
-9.7971406
10
22.2240285
20
-9.7595598
10
22.1782536
20
-9.7237977
10
22.1338878
20
-9.6898239
10
22.0909612
20
-9.6576076
10
22.0495036
20
-9.6271176
10
22.0095442
20
-9.5983222
10
21.971112
20
-9.5711893
10
21.934235
20
-9.5456866
10
21.8989413
20
-9.5217812
10
21.8652581
20
-9.4994399
10
21.8332123
20
-9.4786291
10
21.8028302
20
-9.4593148
10
21.7741377
20
-9.4414627
10
21.74716
20
-9.4250382
10
21.721922
20
-9.4100061
10
21.698448
20
-9.396331
10
21.6767617
20
-9.3839774
10
21.6568863
20
-9.372909
10
21.6388446
20
-9.3630896
10
21.6226588
20
-9.3544824
10
21.6083504
20
-9.3470504
10
21.5959406
20
-9.3407562
10
21.5854499
20
-9.3355624
10
21.5768982
20
-9.331431
10
21.5703051
20
-9.3283238
10
21.5656893
20
-9.3262023
10
21.4802397
20
-9.289204
10
21.9914176
20
-8.0042214
10
22.0789318
20
-8.0360297
10
22.0837436
20
-8.0376586
10
22.0906695
20
-8.0399293
10
22.0997222
20
-8.0428011
10
22.110914
20
-8.0462328
10
22.1242562
20
-8.0501831
10
22.1397598
20
-8.0546105
10
22.1574351
20
-8.0594736
10
22.1772918
20
-8.0647305
10
22.199339
20
-8.0703393
10
22.2235852
20
-8.076258
10
22.2500382
20
-8.0824444
10
22.2787054
20
-8.0888563
10
22.3095934
20
-8.0954512
10
22.3427083
20
-8.1021867
10
22.3780554
20
-8.1090201
10
22.4156396
20
-8.1159087
10
22.455465
20
-8.1228098
10
22.4975353
20
-8.1296806
10
22.5418533
20
-8.136478
10
22.5884215
20
-8.1431591
10
22.6372415
20
-8.1496809
10
22.6883144
20
-8.1560003
10
22.7416406
20
-8.1620743
10
22.7972201
20
-8.1678597
10
22.8550519
20
-8.1733133
10
22.9151348
20
-8.178392
10
22.9774666
20
-8.1830526
10
23.0420447
20
-8.1872521
10
23.1088657
20
-8.1909472
10
23.1779259
20
-8.1940948
10
23.2492206
20
-8.1966519
10
23.3227447
20
-8.1985754
10
23.3984923
20
-8.1998223
10
23.4764571
20
-8.2003497
10
23.556632
20
-8.2001147
10
23.6390094
20
-8.1990745
10
23.723581
20
-8.1971863
10
23.8103379
20
-8.1944076
10
23.8992704
20
-8.1906957
10
23.9903686
20
-8.1860082
10
24.0836217
20
-8.1803028
10
24.1790181
20
-8.1735373
10
24.276546
20
-8.1656696
10
24.3761928
20
-8.1566577
10
24.4779452
20
-8.1464598
10
24.5817893
20
-8.1350343
10
24.6877108
20
-8.1223396
10
24.7956946
20
-8.1083344
10
24.905725
20
-8.0929777
10
25.0177857
20
-8.0762283
10
25.0745722
20
-8.0673186
10
25.1031535
20
-8.0627278
10
25.1174911
20
-8.0603981
10
25.1246716
20
-8.0592247
10
25.1282648
20
-8.0586358
10
25.1283353
20
-8.0585495
10
25.4161194
20
-7.0988963
10
25.416108
20
-7.0987855
10
25.4134318
20
-7.0963165
10
25.408082
20
-7.0913855
10
25.3973924
20
-7.0815505
10
25.3760537
20
-7.0619896
10
25.333541
20
-7.0233017
10
25.2491893
20
-6.9476515
10
25.1657667
20
-6.8742813
10
25.0833092
20
-6.803166
10
25.0018525
20
-6.7342797
10
24.9214319
20
-6.6675962
10
24.8420824
20
-6.6030889
10
24.7638384
20
-6.5407305
10
24.686734
20
-6.4804934
10
24.6108028
20
-6.4223495
10
24.5360779
20
-6.3662703
10
24.4625922
20
-6.3122269
10
24.3903778
20
-6.2601897
10
24.3194667
20
-6.2101289
10
24.2498901
20
-6.1620143
10
24.181679
20
-6.1158151
10
24.1148639
20
-6.0715002
10
24.0494746
20
-6.029038
10
23.9855407
20
-5.9883968
10
23.9230911
20
-5.949544
10
23.8621543
20
-5.9124471
10
23.8027584
20
-5.8770729
10
23.7449308
20
-5.8433879
10
23.6886985
20
-5.8113583
10
23.634088
20
-5.7809499
10
23.5811253
20
-5.7521281
10
23.5298359
20
-5.7248581
10
23.4802446
20
-5.6991045
10
23.4323758
20
-5.6748317
10
23.3862535
20
-5.6520039
10
23.341901
20
-5.6305848
10
23.299341
20
-5.6105379
10
23.2585958
20
-5.5918262
10
23.2196872
20
-5.5744127
10
23.1826362
20
-5.5582598
10
23.1474634
20
-5.5433299
10
23.114189
20
-5.5295848
10
23.0828324
20
-5.5169864
10
23.0534125
20
-5.505496
10
23.0259476
20
-5.4950748
10
23.0004555
20
-5.4856837
10
22.9769535
20
-5.4772835
10
22.9554581
20
-5.4698346
10
22.9359854
20
-5.4632973
10
22.9185508
20
-5.4576315
10
22.9031693
20
-5.452797
10
22.8898551
20
-5.4487534
10
22.8786218
20
-5.4454602
10
22.8694827
20
-5.4428765
10
22.8624501
20
-5.4409614
10
22.857536
20
-5.4396737
10
22.7669599
20
-5.4180756
10
23.047237
20
-4.0638497
10
23.1389451
20
-4.0799781
10
23.1439666
20
-4.0807466
10
23.1511816
20
-4.0817803
10
23.1605956
20
-4.0830364
10
23.1722132
20
-4.0844725
10
23.1860386
20
-4.0860459
10
23.2020755
20
-4.0877139
10
23.2203268
20
-4.0894338
10
23.2407946
20
-4.0911628
10
23.2634809
20
-4.0928579
10
23.2883865
20
-4.0944764
10
23.3155119
20
-4.0959753
10
23.344857
20
-4.0973118
10
23.3764209
20
-4.0984429
10
23.4102023
20
-4.0993257
10
23.446199
20
-4.0999173
10
23.4844084
20
-4.1001749
10
23.5248272
20
-4.1000555
10
23.5674514
20
-4.0995164
10
23.6122765
20
-4.0985148
10
23.6592974
20
-4.097008
10
23.7085082
20
-4.0949532
10
23.7599025
20
-4.0923079
10
23.8134733
20
-4.0890296
10
23.869213
20
-4.0850758
10
23.9271133
20
-4.0804042
10
23.9871653
20
-4.0749724
10
24.0493594
20
-4.0687385
10
24.1136856
20
-4.0616602
10
24.1801332
20
-4.0536958
10
24.2486907
20
-4.0448035
10
24.3193464
20
-4.0349415
10
24.3920874
20
-4.0240685
10
24.4669008
20
-4.0121431
10
24.5437728
20
-3.999124
10
24.6226888
20
-3.9849703
10
24.7036341
20
-3.9696412
10
24.786593
20
-3.9530961
10
24.8715493
20
-3.9352943
10
24.9584862
20
-3.9161959
10
25.0473864
20
-3.8957606
10
25.138232
20
-3.8739486
10
25.2310044
20
-3.8507205
10
25.3256844
20
-3.8260367
10
25.4222524
20
-3.7998583
10
25.5206881
20
-3.7721462
10
25.6209706
20
-3.7428619
10
25.7230785
20
-3.711967
10
25.8269898
20
-3.6794234
10
25.9326819
20
-3.6451934
10
26.0401316
20
-3.6092393
10
26.0945083
20
-3.5906041
10
26.1218582
20
-3.58112
10
26.1355734
20
-3.576336
10
26.1424411
20
-3.5739335
10
26.1458774
20
-3.5727296
10
26.1459319
20
-3.5726324
10
26.2627019
20
-2.5775853
10
26.2626714
20
-2.5774782
10
26.2596071
20
-2.5755114
10
26.2534823
20
-2.5715842
10
26.2412473
20
-2.563755
10
26.2168361
20
-2.5481966
10
26.1682511
20
-2.5174787
10
26.0720444
20
-2.4576253
10
25.9771486
20
-2.399856
10
25.8835947
20
-2.3441397
10
25.7914135
20
-2.2904447
10
25.7006353
20
-2.2387392
10
25.6112897
20
-2.1889908
10
25.523406
20
-2.1411667
10
25.4370129
20
-2.0952337
10
25.3521387
20
-2.0511585
10
25.268811
20
-2.0089072
10
25.1870571
20
-1.9684454
10
25.1069037
20
-1.9297387
10
25.0283769
20
-1.892752
10
24.9515023
20
-1.8574502
10
24.8763051
20
-1.8237976
10
24.8028098
20
-1.7917583
10
24.7310405
20
-1.761296
10
24.6610206
20
-1.7323741
10
24.592773
20
-1.7049559
10
24.5263202
20
-1.6790041
10
24.461684
20
-1.6544813
10
24.3988856
20
-1.6313497
10
24.3379457
20
-1.6095714
10
24.2788845
20
-1.589108
10
24.2217216
20
-1.5699209
10
24.1664759
20
-1.5519715
10
24.113166
20
-1.5352206
10
24.0618096
20
-1.5196289
10
24.0124239
20
-1.505157
10
23.9650258
20
-1.491765
10
23.9196313
20
-1.4794131
10
23.8762559
20
-1.4680611
10
23.8349145
20
-1.4576685
10
23.7956215
20
-1.4481949
10
23.7583906
20
-1.4395994
10
23.7232349
20
-1.4318412
10
23.6901669
20
-1.4248792
10
23.6591987
20
-1.418672
10
23.6303414
20
-1.4131784
10
23.6036059
20
-1.4083567
10
23.5790023
20
-1.4041652
10
23.5565399
20
-1.4005621
10
23.5362279
20
-1.3975054
10
23.5180743
20
-1.3949532
10
23.502087
20
-1.3928631
10
23.4882728
20
-1.391193
10
23.4766384
20
-1.3899005
10
23.4671894
20
-1.388943
10
23.4599311
20
-1.3882782
10
23.4548681
20
-1.3878633
10
23.3619176
20
-1.3823217
8
gear
0
LWPOLYLINE
5
1004
100
AcDbEntity
100
AcDbPolyline
90
5
70
0
43
0
10
22.9797801
20
2.380766
10
22.9766692
20
2.4106042
10
22.9735196
20
2.4404384
10
22.9703312
20
2.4702685
10
22.9671041
20
2.5000944
8
gear_texts
0
LWPOLYLINE
5
1005
100
AcDbEntity
100
AcDbPolyline
90
2
70
0
43
0
10
22.9138553
20
2.4341004
10
23.0331839
20
2.4467765
8
gear_texts
0
LWPOLYLINE
5
1006
100
AcDbEntity
100
AcDbPolyline
90
5
70
0
43
0
10
23.0394607
20
2.386949
10
23.0065055
20
2.4137345
10
22.9735196
20
2.4404384
10
22.9405032
20
2.4670608
10
22.9074564
20
2.4936015
8
gear_texts
0
LWPOLYLINE
5
1007
100
AcDbEntity
100
AcDbPolyline
90
5
70
0
43
0
10
22.9200996
20
2.3745829
10
22.946833
20
2.407474
10
22.9735196
20
2.4404384
10
23.0001592
20
2.4734763
10
23.0267517
20
2.5065874
8
gear_texts
0
LWPOLYLINE
5
1008
100
AcDbEntity
100
AcDbPolyline
90
3
70
0
43
0
10
23.0455821
20
2.3271055
10
23.0784366
20
2.3001531
10
22.899324
20
2.2823015
8
gear_texts
0
LWPOLYLINE
5
1009
100
AcDbEntity
100
AcDbPolyline
90
3
70
0
43
0
10
22.9022684
20
2.2525638
10
22.899324
20
2.2823015
10
22.8963411
20
2.3120354
8
gear_texts
0
LWPOLYLINE
5
1010
100
AcDbEntity
100
AcDbPolyline
90
7
70
0
43
0
10
23.1114756
20
1.9402677
10
22.9321065
20
1.9252092
10
22.9744246
20
1.9588088
10
23.0166939
20
1.9925215
10
23.0589144
20
2.0263473
10
23.1010857
20
2.0602861
10
22.9217974
20
2.0442962
8
gear_texts
0
LWPOLYLINE
5
1011
100
AcDbEntity
100
AcDbPolyline
90
5
70
0
43
0
10
23.0660641
20
1.7555893
10
23.063765
20
1.7855402
10
23.0614269
20
1.815488
10
23.05905
20
1.8454328
10
23.0566342
20
1.8753744
8
gear_texts
0
LWPOLYLINE
5
1012
100
AcDbEntity
100
AcDbPolyline
90
5
70
0
43
0
10
23.0062372
20
1.7510358
10
23.003944
20
1.780909
10
23.001612
20
1.8107791
10
22.9992412
20
1.8406462
10
22.9968317
20
1.8705102
8
gear_texts
0
LWPOLYLINE
5
1013
100
AcDbEntity
100
AcDbPolyline
90
13
70
0
43
0
10
23.100465
20
1.6978779
10
23.1325725
20
1.6700397
10
23.1347216
20
1.6399996
10
23.1368317
20
1.6099567
10
23.1089725
20
1.5778675
10
23.0790422
20
1.5758239
10
23.0470488
20
1.6037093
10
23.0191815
20
1.5717367
10
22.9892512
20
1.569693
10
22.9572659
20
1.5974618
10
22.9551722
20
1.6272715
10
22.9530397
20
1.6570784
10
22.9807879
20
1.6890816
8
gear_texts
0
LWPOLYLINE
5
1014
100
AcDbEntity
100
AcDbPolyline
90
2
70
0
43
0
10
23.0449469
20
1.6336355
10
23.0470488
20
1.6037093
8
gear_texts
0
LWPOLYLINE
5
1015
100
AcDbEntity
100
AcDbPolyline
90
14
70
0
43
0
10
23.0531214
20
1.5139144
10
23.0550678
20
1.4839776
10
23.0569754
20
1.4540383
10
23.0588441
20
1.4240966
10
23.0307286
20
1.3923421
10
23.0007832
20
1.3905317
10
22.9690152
20
1.4185488
10
22.9671538
20
1.4483739
10
22.9652537
20
1.4781966
10
22.9932503
20
1.5099826
10
23.0830569
20
1.5158803
10
23.1149439
20
1.4878316
10
23.1467969
20
1.4597027
10
23.1486729
20
1.4296444
8
gear_texts
0
LWPOLYLINE
5
1016
100
AcDbEntity
100
AcDbPolyline
90
11
70
0
43
0
10
23.0723936
20
1.1844805
10
23.0739123
20
1.1545189
10
23.075392
20
1.1245554
10
23.0768328
20
1.0945901
10
23.1082029
20
1.0660053
10
23.138171
20
1.0673878
10
23.1667318
20
1.0988542
10
23.1652853
20
1.1289363
10
23.1637998
20
1.1590165
10
23.1622752
20
1.1890948
10
22.982512
20
1.1798662
8
gear_texts
0
LWPOLYLINE
5
1017
100
AcDbEntity
100
AcDbPolyline
90
2
70
0
43
0
10
22.991007
20
1.0007692
10
23.1108935
20
1.0059877
8
gear_texts
0
LWPOLYLINE
5
1018
100
AcDbEntity
100
AcDbPolyline
90
2
70
0
43
0
10
23.1408651
20
1.0072923
10
23.1708367
20
1.0085969
8
gear_texts
0
LWPOLYLINE
5
1019
100
AcDbEntity
100
AcDbPolyline
90
4
70
0
43
0
10
23.0280872
20
0.8226825
10
22.9970201
20
0.8514748
10
23.025873
20
0.8824857
10
23.1757629
20
0.8882304
8
gear_texts
0
LWPOLYLINE
5
1020
100
AcDbEntity
100
AcDbPolyline
90
5
70
0
43
0
10
23.1180298
20
0.8258957
10
23.1169379
20
0.8559148
10
23.115807
20
0.8859325
10
23.114637
20
0.9159487
10
23.1134282
20
0.9459633
8
gear_texts
0
LWPOLYLINE
5
1021
100
AcDbEntity
100
AcDbPolyline
90
10
70
0
43
0
10
23.0038096
20
0.6424039
10
23.0029561
20
0.6722748
10
23.0020637
20
0.7021446
10
23.0011325
20
0.7320132
10
23.0301461
20
0.7628738
10
23.0901133
20
0.7648602
10
23.1210718
20
0.7358303
10
23.1220078
20
0.7058059
10
23.1229048
20
0.6757804
10
23.1237629
20
0.6457537
8
gear_texts
0
LWPOLYLINE
5
1022
100
AcDbEntity
100
AcDbPolyline
90
6
70
0
43
0
10
23.0653812
20
0.5841779
10
23.0961117
20
0.5549466
10
23.1268051
20
0.5256365
10
23.1274682
20
0.4956049
10
23.0980983
20
0.4649686
10
23.0081165
20
0.4631573
8
gear_texts
0
LWPOLYLINE
5
1023
100
AcDbEntity
100
AcDbPolyline
90
2
70
0
43
0
10
23.0054004
20
0.5826588
10
23.1853427
20
0.5872162
8
gear_texts
0
LWPOLYLINE
5
1024
100
AcDbEntity
100
AcDbPolyline
90
10
70
0
43
0
10
23.011376
20
0.2540015
10
23.0116864
20
0.2241199
10
23.011958
20
0.194238
10
23.0121909
20
0.1643558
10
23.0423844
20
0.1346486
10
23.1623823
20
0.1353498
10
23.1921863
20
0.1656414
10
23.1919516
20
0.1957573
10
23.1916779
20
0.2258729
10
23.191365
20
0.2559882
8
gear_texts
0
LWPOLYLINE
5
1025
100
AcDbEntity
100
AcDbPolyline
90
2
70
0
43
0
10
23.1916779
20
0.2258729
10
23.0116864
20
0.2241199
8
gear_texts
0
LWPOLYLINE
5
1026
100
AcDbEntity
100
AcDbPolyline
90
5
70
0
43
0
10
23.1327339
20
-0.0450584
10
23.1327729
20
-0.0150195
10
23.1327729
20
0.0150195
10
23.1327339
20
0.0450584
10
23.1326559
20
0.0750973
8
gear_texts
0
LWPOLYLINE
5
1027
100
AcDbEntity
100
AcDbPolyline
90
5
70
0
43
0
10
23.072734
20
-0.0449415
10
23.0727729
20
-0.0149805
10
23.0727729
20
0.0149805
10
23.072734
20
0.0449415
10
23.0726562
20
0.0749025
8
gear_texts
0
LWPOLYLINE
5
1028
100
AcDbEntity
100
AcDbPolyline
90
15
70
0
43
0
10
23.1916779
20
-0.2258729
10
23.1919516
20
-0.1957573
10
23.1921863
20
-0.1656414
10
23.1923818
20
-0.1355251
10
23.1925382
20
-0.1054087
10
23.1325389
20
-0.105136
10
23.1323828
20
-0.1351745
10
23.1321878
20
-0.1652129
10
23.1319538
20
-0.1952509
10
23.1016821
20
-0.2249964
10
23.041685
20
-0.2244121
10
23.011958
20
-0.194238
10
23.0121909
20
-0.1643558
10
23.0123849
20
-0.1344733
10
23.0425398
20
-0.1047269
8
gear_texts
0
LWPOLYLINE
5
1029
100
AcDbEntity
100
AcDbPolyline
90
9
70
0
43
0
10
23.0397423
20
-0.3740097
10
23.0102119
20
-0.3436432
10
23.0106387
20
-0.3137632
10
23.0410245
20
-0.2842526
10
23.1610153
20
-0.2857329
10
23.190622
20
-0.3162173
10
23.1901918
20
-0.3463311
10
23.1597265
20
-0.3759574
10
23.0397423
20
-0.3740097
8
gear_texts
0
LWPOLYLINE
5
1030
100
AcDbEntity
100
AcDbPolyline
90
11
70
0
43
0
10
23.0953716
20
-0.5849375
10
23.0945926
20
-0.6149274
10
23.0937746
20
-0.6449162
10
23.0929177
20
-0.674904
10
23.1220078
20
-0.7058059
10
23.1519939
20
-0.7067213
10
23.1828792
20
-0.6775331
10
23.1837395
20
-0.6474286
10
23.1845607
20
-0.6173229
10
23.1853427
20
-0.5872162
10
23.0054004
20
-0.5826588
8
gear_texts
0
LWPOLYLINE
5
1031
100
AcDbEntity
100
AcDbPolyline
90
5
70
0
43
0
10
23.115807
20
-0.8859325
10
23.1169379
20
-0.8559148
10
23.1180298
20
-0.8258957
10
23.1190828
20
-0.7958752
10
23.1200968
20
-0.7658534
8
gear_texts
0
LWPOLYLINE
5
1032
100
AcDbEntity
100
AcDbPolyline
90
5
70
0
43
0
10
23.055851
20
-0.8836346
10
23.056979
20
-0.8536948
10
23.0580681
20
-0.8237536
10
23.0591183
20
-0.793811
10
23.0601297
20
-0.763867
8
gear_texts
0
LWPOLYLINE
5
1033
100
AcDbEntity
100
AcDbPolyline
90
9
70
0
43
0
10
23.019658
20
-1.0319667
10
22.991007
20
-1.0007692
10
22.9922871
20
-0.9709135
10
23.0235034
20
-0.9422829
10
23.1434031
20
-0.9471901
10
23.1721269
20
-0.9785077
10
23.1708367
20
-1.0085969
10
23.1395376
20
-1.0373409
10
23.019658
20
-1.0319667
8
gear_texts
0
LWPOLYLINE
5
1034
100
AcDbEntity
100
AcDbPolyline
90
2
70
0
43
0
10
23.0169002
20
-1.0917473
10
22.9869339
20
-1.0903259
8
gear_texts
0
LWPOLYLINE
5
1035
100
AcDbEntity
100
AcDbPolyline
90
7
70
0
43
0
10
23.1637998
20
-1.1590165
10
23.1622752
20
-1.1890948
10
23.1607116
20
-1.219171
10
23.159109
20
-1.2492452
10
23.1574672
20
-1.2793173
10
23.0692396
20
-1.2443975
10
22.9809605
20
-1.209709
8
gear_texts
0
LWPOLYLINE
5
1036
100
AcDbEntity
100
AcDbPolyline
90
15
70
0
43
0
10
22.9671538
20
-1.4483739
10
22.9690152
20
-1.4185488
10
22.9708379
20
-1.3887213
10
22.9726219
20
-1.3588915
10
22.9743671
20
-1.3290594
10
23.0342669
20
-1.3325246
10
23.0624648
20
-1.364206
10
23.0606739
20
-1.3941525
10
23.0588441
20
-1.4240966
10
23.0869159
20
-1.4559265
10
23.1168564
20
-1.4578146
10
23.1486729
20
-1.4296444
10
23.1505099
20
-1.3995836
10
23.1523078
20
-1.3695204
10
23.1241167
20
-1.3377224
8
gear_texts
0
LWPOLYLINE
5
1037
100
AcDbEntity
100
AcDbPolyline
90
11
70
0
43
0
10
23.0428061
20
-1.663559
10
23.0406265
20
-1.6934798
10
23.038408
20
-1.7233976
10
23.0361506
20
-1.7533126
10
23.063765
20
-1.7855402
10
23.0936755
20
-1.7878558
10
23.1258911
20
-1.7601428
10
23.1281572
20
-1.7301113
10
23.1303843
20
-1.7000769
10
23.1325725
20
-1.6700397
10
22.9530397
20
-1.6570784
8
gear_texts
0
LWPOLYLINE
5
1038
100
AcDbEntity
100
AcDbPolyline
90
7
70
0
43
0
10
22.9394324
20
-1.8358597
10
22.9992412
20
-1.8406462
10
23.0566342
20
-1.8753744
10
23.1139756
20
-1.9102547
10
23.0516859
20
-1.9352482
10
22.9893703
20
-1.9600831
10
22.9295872
20
-1.9549859
8
gear_texts
0
LWPOLYLINE
5
1039
100
AcDbEntity
100
AcDbPolyline
90
5
70
0
43
0
10
22.9992412
20
-1.8406462
10
22.9968317
20
-1.8705102
10
22.9943833
20
-1.900371
10
22.9918962
20
-1.9302287
10
22.9893703
20
-1.9600831
8
gear_texts
0
LWPOLYLINE
5
1040
100
AcDbEntity
100
AcDbPolyline
90
5
70
0
43
0
10
23.0331428
20
-2.1447009
10
23.0359083
20
-2.1147895
10
23.0386351
20
-2.0848746
10
23.0413229
20
-2.0549561
10
23.043972
20
-2.0250342
8
gear_texts
0
LWPOLYLINE
5
1041
100
AcDbEntity
100
AcDbPolyline
90
5
70
0
43
0
10
22.9734012
20
-2.1391382
10
22.9761596
20
-2.1093044
10
22.9788792
20
-2.079467
10
22.9815602
20
-2.0496262
10
22.9842023
20
-2.0197819
8
gear_texts
0
LWPOLYLINE
5
1042
100
AcDbEntity
100
AcDbPolyline
90
15
70
0
43
0
10
22.8963411
20
-2.3120354
10
22.899324
20
-2.2823015
10
22.9022684
20
-2.2525638
10
22.9051741
20
-2.2228223
10
22.9080413
20
-2.193077
10
22.9677682
20
-2.1987949
10
22.9947533
20
-2.2315154
10
22.9918362
20
-2.2613733
10
22.9888803
20
-2.2912273
10
23.0157339
20
-2.3240915
10
23.0455821
20
-2.3271055
10
23.0784366
20
-2.3001531
10
23.081404
20
-2.2701827
10
23.0843325
20
-2.2402086
10
23.0573586
20
-2.2073717
8
gear_texts
0
LWPOLYLINE
5
1043
100
AcDbEntity
100
AcDbPolyline
90
9
70
0
43
0
10
22.9106752
20
-2.463853
10
22.8840231
20
-2.4309314
10
22.8871605
20
-2.4012134
10
22.9200996
20
-2.3745829
10
23.0394607
20
-2.386949
10
23.0661779
20
-2.4199951
10
23.063016
20
-2.4499455
10
23.0299872
20
-2.476684
10
22.9106752
20
-2.463853
8
gear_texts
0
LINE
5
1001
100
AcDbEntity
100
AcDbLine
10
0.1
20
0
30
0
11
-0.1
21
0
31
0
8
gear_guides
0
LINE
5
1002
100
AcDbEntity
100
AcDbLine
10
0
20
0.1
30
0
11
0
21
-0.1
31
0
8
gear_guides
0
CIRCLE
5
1003
100
AcDbEntity
100
AcDbCircle
10
24.9583724
20
1.4420985
30
0
40
0.5451389
8
gear_guides
0
CIRCLE
5
1044
100
AcDbEntity
100
AcDbCircle
10
0
20
0
30
0
40
25
8
gear_guides
0
CIRCLE
5
1045
100
AcDbEntity
100
AcDbCircle
10
0
20
0
30
0
40
26.3888889
8
gear_guides
0
CIRCLE
5
1046
100
AcDbEntity
100
AcDbCircle
10
0
20
0
30
0
40
23.4923155
8
gear_guides
0
ENDSEC
0
SECTION
2
OBJECTS
0
DICTIONARY
5
21D
330
0
100
AcDbDictionary
281
1
3
ACAD_CIP_PREVIOUS_PRODUCT_INFO
350
291
3
ACAD_COLOR
350
273
3
ACAD_DETAILVIEWSTYLE
350
27B
3
ACAD_GROUP
350
21E
3
ACAD_LAYOUT
350
272
3
ACAD_MATERIAL
350
221
3
ACAD_MLEADERSTYLE
350
276
3
ACAD_MLINESTYLE
350
26F
3
ACAD_PLOTSETTINGS
350
271
3
ACAD_PLOTSTYLENAME
350
21F
3
ACAD_SCALELIST
350
253
3
ACAD_SECTIONVIEWSTYLE
350
278
3
ACAD_TABLESTYLE
350
274
3
ACAD_VISUALSTYLE
350
23A
3
ACDB_RECOMPOSE_DATA
350
1057
3
AcDbVariableDictionary
350
29D
0
DICTIONARY
5
297
330
213
100
AcDbDictionary
280
1
281
1
3
ACAD_LAYERSTATES
360
298
0
DICTIONARY
5
292
330
265
100
AcDbDictionary
280
1
281
1
3
ADSK_XREC_LAYER_RECONCILED
360
293
0
XRECORD
5
291
102
{ACAD_REACTORS
330
21D
102
}
330
21D
100
AcDbXrecord
280
1
300
ACDMAC
300
2013
300
ACDMAC_F_S
0
DICTIONARY
5
273
102
{ACAD_REACTORS
330
21D
102
}
330
21D
100
AcDbDictionary
281
1
0
DICTIONARY
5
27B
102
{ACAD_REACTORS
330
21D
102
}
330
21D
100
AcDbDictionary
281
1
3
Imperial24
350
27C
0
DICTIONARY
5
21E
102
{ACAD_REACTORS
330
21D
102
}
330
21D
100
AcDbDictionary
281
1
0
DICTIONARY
5
272
102
{ACAD_REACTORS
330
21D
102
}
330
21D
100
AcDbDictionary
281
1
3
Layout1
350
280
3
Model
350
284
0
DICTIONARY
5
221
102
{ACAD_REACTORS
330
21D
102
}
330
21D
100
AcDbDictionary
281
1
3
ByBlock
350
22A
3
ByLayer
350
222
3
Global
350
232
0
DICTIONARY
5
276
102
{ACAD_REACTORS
330
21D
102
}
330
21D
100
AcDbDictionary
281
1
3
Standard
350
277
0
DICTIONARY
5
26F
102
{ACAD_REACTORS
330
21D
102
}
330
21D
100
AcDbDictionary
281
1
3
Standard
350
270
0
DICTIONARY
5
271
102
{ACAD_REACTORS
330
21D
102
}
330
21D
100
AcDbDictionary
281
1
0
ACDBDICTIONARYWDFLT
5
21F
102
{ACAD_REACTORS
330
21D
102
}
330
21D
100
AcDbDictionary
281
1
3
Normal
350
220
100
AcDbDictionaryWithDefault
340
220
0
DICTIONARY
5
253
102
{ACAD_REACTORS
330
21D
102
}
330
21D
100
AcDbDictionary
281
1
3
A0
350
254
3
A1
350
255
3
A2
350
256
3
A3
350
257
3
A4
350
258
3
A5
350
259
3
A6
350
25A
3
A7
350
25B
3
A8
350
25C
3
A9
350
25D
3
B0
350
25E
3
B1
350
25F
3
B2
350
260
3
B3
350
261
3
B4
350
262
3
B5
350
263
3
B6
350
264
0
DICTIONARY
5
278
102
{ACAD_REACTORS
330
21D
102
}
330
21D
100
AcDbDictionary
281
1
3
Imperial24
350
27A
0
DICTIONARY
5
274
102
{ACAD_REACTORS
330
21D
102
}
330
21D
100
AcDbDictionary
281
1
3
Standard
350
275
0
DICTIONARY
5
23A
102
{ACAD_REACTORS
330
21D
102
}
330
21D
100
AcDbDictionary
281
1
3
2dWireframe
350
240
3
Basic
350
23F
3
Brighten
350
246
3
ColorChange
350
24A
3
Conceptual
350
243
3
Dim
350
245
3
EdgeColorOff
350
252
3
Facepattern
350
249
3
Flat
350
23B
3
FlatWithEdges
350
23C
3
Gouraud
350
23D
3
GouraudWithEdges
350
23E
3
Hidden
350
242
3
JitterOff
350
250
3
Linepattern
350
248
3
OverhangOff
350
251
3
Realistic
350
244
3
Shaded
350
24F
3
Shaded with edges
350
24E
3
Shades of Gray
350
24B
3
Sketchy
350
24C
3
Thicken
350
247
3
Wireframe
350
241
3
X-Ray
350
24D
0
XRECORD
5
1057
102
{ACAD_REACTORS
330
21D
102
}
330
21D
100
AcDbXrecord
280
1
90
1
330
275
0
DICTIONARY
5
29D
102
{ACAD_REACTORS
330
21D
102
}
330
21D
100
AcDbDictionary
281
1
3
CANNOSCALE
350
2A3
3
CMLEADERSTYLE
350
29F
3
CTABLESTYLE
350
29E
3
CVIEWDETAILSTYLE
350
2A0
3
CVIEWSECTIONSTYLE
350
2A1
3
LAYEREVAL
350
2A5
3
LAYERNOTIFY
350
2A6
3
LIGHTINGUNITS
350
2A4
3
MSLTSCALE
350
2A2
0
DICTIONARY
5
298
102
{ACAD_REACTORS
330
297
102
}
330
297
100
AcDbDictionary
281
1
0
XRECORD
5
293
102
{ACAD_REACTORS
330
292
102
}
330
292
100
AcDbXrecord
280
1
290
1
0
ACDBDETAILVIEWSTYLE
5
27C
102
{ACAD_REACTORS
330
27B
102
}
330
27B
100
AcDbModelDocViewStyle
70
0
3
Imperial24
290
0
100
AcDbDetailViewStyle
70
0
71
0
90
3
71
1
340
266
62
256
40
0.24
340
0
62
256
40
0.24
300

40
0.36
280
3
71
2
340
26D
90
25
62
256
71
3
340
266
62
256
40
0.24
90
1
40
0.75
90
1
300
%<AcVar ViewType  "%tc1">% %<AcVar ViewDetailId>%PSCALE %<AcVar ViewScale  "%sn">%
71
4
340
26D
90
25
62
256
340
26D
90
25
62
256
280
0
0
LAYOUT
5
280
102
{ACAD_REACTORS
330
272
102
}
330
272
100
AcDbPlotSettings
1

2
HP_LaserJet_P1505
4

6

40
0.0
41
0.0
42
0.0
43
0.0
44
0.0
45
0.0
46
0.0
47
0.0
48
0.0
49
0.0
140
0.0
141
0.0
142
1.0
143
1.0
70
688
72
0
73
0
74
5
7

75
16
147
1.0
76
0
77
2
78
300
148
0.0
149
0.0
100
AcDbLayout
1
Layout1
70
1
71
1
10
0.0
20
0.0
11
12.0
21
9.0
12
0.0
22
0.0
32
0.0
14
0.0
24
0.0
34
0.0
15
0.0
25
0.0
35
0.0
146
0.0
13
0.0
23
0.0
33
0.0
16
1.0
26
0.0
36
0.0
17
0.0
27
1.0
37
0.0
76
0
330
27D
0
LAYOUT
5
284
102
{ACAD_REACTORS
330
272
102
}
330
272
100
AcDbPlotSettings
1

2
HP_LaserJet_P1505
4

6

40
0.0
41
0.0
42
0.0
43
0.0
44
0.0
45
0.0
46
0.0
47
0.0
48
0.0
49
0.0
140
0.0
141
0.0
142
1.0
143
1.0
70
1712
72
0
73
0
74
0
7

75
0
147
1.0
76
0
77
2
78
300
148
0.0
149
0.0
100
AcDbLayout
1
Model
70
1
71
0
10
0.0
20
0.0
11
12.0
21
9.0
12
0.0
22
0.0
32
0.0
14
0.0
24
0.0
34
0.0
15
0.0
25
0.0
35
0.0
146
0.0
13
0.0
23
0.0
33
0.0
16
1.0
26
0.0
36
0.0
17
0.0
27
1.0
37
0.0
76
0
330
281
331
285
0
MATERIAL
5
22A
102
{ACAD_XDICTIONARY
360
22B
102
}
102
{ACAD_REACTORS
330
221
102
}
330
221
100
AcDbMaterial
1
ByBlock
72
0
43
0.0208333333333333
43
0.0
43
0.0
43
0.0
43
0.0
43
0.0208333333333333
43
0.0
43
0.0
43
0.0
43
0.0
43
1.0
43
0.0
43
0.0
43
0.0
43
0.0
43
1.0
77
0
47
0.0208333333333333
47
0.0
47
0.0
47
0.0
47
0.0
47
0.0208333333333333
47
0.0
47
0.0
47
0.0
47
0.0
47
1.0
47
0.0
47
0.0
47
0.0
47
0.0
47
1.0
171
0
49
0.0208333333333333
49
0.0
49
0.0
49
0.0
49
0.0
49
0.0208333333333333
49
0.0
49
0.0
49
0.0
49
0.0
49
1.0
49
0.0
49
0.0
49
0.0
49
0.0
49
1.0
175
0
142
0.0208333333333333
142
0.0
142
0.0
142
0.0
142
0.0
142
0.0208333333333333
142
0.0
142
0.0
142
0.0
142
0.0
142
1.0
142
0.0
142
0.0
142
0.0
142
0.0
142
1.0
179
0
144
0.0208333333333333
144
0.0
144
0.0
144
0.0
144
0.0
144
0.0208333333333333
144
0.0
144
0.0
144
0.0
144
0.0
144
1.0
144
0.0
144
0.0
144
0.0
144
0.0
144
1.0
147
0.0208333333333333
147
0.0
147
0.0
147
0.0
147
0.0
147
0.0208333333333333
147
0.0
147
0.0
147
0.0
147
0.0
147
1.0
147
0.0
147
0.0
147
0.0
147
0.0
147
1.0
0
MATERIAL
5
222
102
{ACAD_XDICTIONARY
360
223
102
}
102
{ACAD_REACTORS
330
221
102
}
330
221
100
AcDbMaterial
1
ByLayer
72
0
43
0.0208333333333333
43
0.0
43
0.0
43
0.0
43
0.0
43
0.0208333333333333
43
0.0
43
0.0
43
0.0
43
0.0
43
1.0
43
0.0
43
0.0
43
0.0
43
0.0
43
1.0
77
0
47
0.0208333333333333
47
0.0
47
0.0
47
0.0
47
0.0
47
0.0208333333333333
47
0.0
47
0.0
47
0.0
47
0.0
47
1.0
47
0.0
47
0.0
47
0.0
47
0.0
47
1.0
171
0
49
0.0208333333333333
49
0.0
49
0.0
49
0.0
49
0.0
49
0.0208333333333333
49
0.0
49
0.0
49
0.0
49
0.0
49
1.0
49
0.0
49
0.0
49
0.0
49
0.0
49
1.0
175
0
142
0.0208333333333333
142
0.0
142
0.0
142
0.0
142
0.0
142
0.0208333333333333
142
0.0
142
0.0
142
0.0
142
0.0
142
1.0
142
0.0
142
0.0
142
0.0
142
0.0
142
1.0
179
0
144
0.0208333333333333
144
0.0
144
0.0
144
0.0
144
0.0
144
0.0208333333333333
144
0.0
144
0.0
144
0.0
144
0.0
144
1.0
144
0.0
144
0.0
144
0.0
144
0.0
144
1.0
147
0.0208333333333333
147
0.0
147
0.0
147
0.0
147
0.0
147
0.0208333333333333
147
0.0
147
0.0
147
0.0
147
0.0
147
1.0
147
0.0
147
0.0
147
0.0
147
0.0
147
1.0
0
MATERIAL
5
232
102
{ACAD_XDICTIONARY
360
233
102
}
102
{ACAD_REACTORS
330
221
102
}
330
221
100
AcDbMaterial
1
Global
72
0
43
0.0208333333333333
43
0.0
43
0.0
43
0.0
43
0.0
43
0.0208333333333333
43
0.0
43
0.0
43
0.0
43
0.0
43
1.0
43
0.0
43
0.0
43
0.0
43
0.0
43
1.0
77
0
47
0.0208333333333333
47
0.0
47
0.0
47
0.0
47
0.0
47
0.0208333333333333
47
0.0
47
0.0
47
0.0
47
0.0
47
1.0
47
0.0
47
0.0
47
0.0
47
0.0
47
1.0
171
0
49
0.0208333333333333
49
0.0
49
0.0
49
0.0
49
0.0
49
0.0208333333333333
49
0.0
49
0.0
49
0.0
49
0.0
49
1.0
49
0.0
49
0.0
49
0.0
49
0.0
49
1.0
175
0
142
0.0208333333333333
142
0.0
142
0.0
142
0.0
142
0.0
142
0.0208333333333333
142
0.0
142
0.0
142
0.0
142
0.0
142
1.0
142
0.0
142
0.0
142
0.0
142
0.0
142
1.0
179
0
144
0.0208333333333333
144
0.0
144
0.0
144
0.0
144
0.0
144
0.0208333333333333
144
0.0
144
0.0
144
0.0
144
0.0
144
1.0
144
0.0
144
0.0
144
0.0
144
0.0
144
1.0
147
0.0208333333333333
147
0.0
147
0.0
147
0.0
147
0.0
147
0.0208333333333333
147
0.0
147
0.0
147
0.0
147
0.0
147
1.0
147
0.0
147
0.0
147
0.0
147
0.0
147
1.0
0
MLEADERSTYLE
5
277
102
{ACAD_REACTORS
330
276
102
}
330
276
100
AcDbMLeaderStyle
179
2
170
2
171
1
172
0
90
2
40
0.0
41
0.0
173
1
91
-1056964608
340
26B
92
-2
290
1
42
0.09
291
1
43
0.36
3
Standard
44
0.18
300

342
266
174
1
178
6
175
1
176
0
93
-1056964608
45
0.18
292
0
297
0
46
0.18
94
-1056964608
47
1.0
49
1.0
140
1.0
293
1
141
0.0
294
1
177
0
142
1.0
295
0
296
0
143
0.125
271
0
272
9
273
9
298
0
0
MLINESTYLE
5
270
102
{ACAD_REACTORS
330
26F
102
}
330
26F
100
AcDbMlineStyle
2
STANDARD
70
0
3

62
256
51
90.0
52
90.0
71
2
49
0.5
62
256
6
BYLAYER
49
-0.5
62
256
6
BYLAYER
0
ACDBPLACEHOLDER
5
220
102
{ACAD_REACTORS
330
21F
102
}
330
21F
0
SCALE
5
254
102
{ACAD_REACTORS
330
253
102
}
330
253
100
AcDbScale
70
0
300
1:1
140
1.0
141
1.0
290
1
0
SCALE
5
255
102
{ACAD_REACTORS
330
253
102
}
330
253
100
AcDbScale
70
0
300
1/128" = 1'-0"
140
0.0078125
141
12.0
290
0
0
SCALE
5
256
102
{ACAD_REACTORS
330
253
102
}
330
253
100
AcDbScale
70
0
300
1/64" = 1'-0"
140
0.015625
141
12.0
290
0
0
SCALE
5
257
102
{ACAD_REACTORS
330
253
102
}
330
253
100
AcDbScale
70
0
300
1/32" = 1'-0"
140
0.03125
141
12.0
290
0
0
SCALE
5
258
102
{ACAD_REACTORS
330
253
102
}
330
253
100
AcDbScale
70
0
300
1/16" = 1'-0"
140
0.0625
141
12.0
290
0
0
SCALE
5
259
102
{ACAD_REACTORS
330
253
102
}
330
253
100
AcDbScale
70
0
300
3/32" = 1'-0"
140
0.09375
141
12.0
290
0
0
SCALE
5
25A
102
{ACAD_REACTORS
330
253
102
}
330
253
100
AcDbScale
70
0
300
1/8" = 1'-0"
140
0.125
141
12.0
290
0
0
SCALE
5
25B
102
{ACAD_REACTORS
330
253
102
}
330
253
100
AcDbScale
70
0
300
3/16" = 1'-0"
140
0.1875
141
12.0
290
0
0
SCALE
5
25C
102
{ACAD_REACTORS
330
253
102
}
330
253
100
AcDbScale
70
0
300
1/4" = 1'-0"
140
0.25
141
12.0
290
0
0
SCALE
5
25D
102
{ACAD_REACTORS
330
253
102
}
330
253
100
AcDbScale
70
0
300
3/8" = 1'-0"
140
0.375
141
12.0
290
0
0
SCALE
5
25E
102
{ACAD_REACTORS
330
253
102
}
330
253
100
AcDbScale
70
0
300
1/2" = 1'-0"
140
0.5
141
12.0
290
0
0
SCALE
5
25F
102
{ACAD_REACTORS
330
253
102
}
330
253
100
AcDbScale
70
0
300
3/4" = 1'-0"
140
0.75
141
12.0
290
0
0
SCALE
5
260
102
{ACAD_REACTORS
330
253
102
}
330
253
100
AcDbScale
70
0
300
1" = 1'-0"
140
1.0
141
12.0
290
0
0
SCALE
5
261
102
{ACAD_REACTORS
330
253
102
}
330
253
100
AcDbScale
70
0
300
1-1/2" = 1'-0"
140
1.5
141
12.0
290
0
0
SCALE
5
262
102
{ACAD_REACTORS
330
253
102
}
330
253
100
AcDbScale
70
0
300
3" = 1'-0"
140
3.0
141
12.0
290
0
0
SCALE
5
263
102
{ACAD_REACTORS
330
253
102
}
330
253
100
AcDbScale
70
0
300
6" = 1'-0"
140
6.0
141
12.0
290
0
0
SCALE
5
264
102
{ACAD_REACTORS
330
253
102
}
330
253
100
AcDbScale
70
0
300
1'-0" = 1'-0"
140
12.0
141
12.0
290
0
0
ACDBSECTIONVIEWSTYLE
5
27A
102
{ACAD_REACTORS
330
278
102
}
330
278
100
AcDbModelDocViewStyle
70
0
3
Imperial24
290
0
100
AcDbSectionViewStyle
70
0
71
0
90
78
71
1
340
266
62
256
40
0.24
340
0
340
0
62
256
40
0.24
300
I, O, Q, S, X, Z
40
0.48
90
3
40
0.18
90
1
71
2
340
279
90
25
62
256
340
26D
90
50
62
256
40
0.24
40
0.0
40
0.24
71
3
340
266
62
256
40
0.24
90
1
40
0.75
90
1
300
%<AcVar ViewType  "%tc1">% %<AcVar ViewSectionStartId>%-%<AcVar ViewSectionEndId>%PSCALE %<AcVar ViewScale  "%sn">%
71
4
62
256
62
257
300
ANSI31
40
1.0
90
0
290
0
290
0
90
6
40
0.0
40
1.570796326794896
40
0.2617993877991494
40
1.308996938995747
40
-0.2617993877991494
40
1.832595714594044
0
TABLESTYLE
5
275
102
{ACAD_XDICTIONARY
360
2A7
102
}
102
{ACAD_REACTORS
330
274
102
}
330
274
100
AcDbTableStyle
280
0
3
Standard
70
0
71
0
40
0.06
41
0.06
280
0
281
0
7
STANDARD
140
0.18
170
2
62
0
63
7
283
0
90
512
91
0
1

274
-2
284
1
64
0
275
-2
285
1
65
0
276
-2
286
1
66
0
277
-2
287
1
67
0
278
-2
288
1
68
0
279
-2
289
1
69
0
7
STANDARD
140
0.25
170
5
62
0
63
7
283
0
90
512
91
0
1

274
-2
284
1
64
0
275
-2
285
1
65
0
276
-2
286
1
66
0
277
-2
287
1
67
0
278
-2
288
1
68
0
279
-2
289
1
69
0
7
STANDARD
140
0.18
170
5
62
0
63
7
283
0
90
512
91
0
1

274
-2
284
1
64
0
275
-2
285
1
65
0
276
-2
286
1
66
0
277
-2
287
1
67
0
278
-2
288
1
68
0
279
-2
289
1
69
0
0
VISUALSTYLE
5
240
102
{ACAD_REACTORS
330
23A
102
}
330
23A
100
AcDbVisualStyle
2
2dWireframe
70
4
177
3
291
0
70
58
90
0
176
1
90
2
176
1
90
0
176
1
90
0
176
1
40
0.6
176
1
40
30.0
176
1
62
7
420
16777215
176
1
90
1
176
1
90
4
176
1
62
7
176
1
62
257
176
1
90
1
176
1
90
1
176
1
40
1.0
176
1
90
0
176
1
62
257
176
1
40
1.0
176
1
90
1
176
1
90
6
176
1
90
2
176
1
62
7
176
1
90
5
176
1
90
0
176
1
90
0
176
1
290
0
176
1
90
1
176
1
40
0.0
176
1
90
0
176
1
290
1
176
1
290
1
176
1
290
0
176
1
290
0
176
1
290
0
176
1
290
0
176
1
290
0
176
1
290
0
176
1
290
0
176
1
90
50
176
1
40
0.0
176
1
40
1.0
176
1
90
0
176
1
62
18
176
1
90
50
176
1
90
3
176
1
62
5
420
255
176
1
290
0
176
1
90
50
176
1
90
50
176
1
90
50
176
1
290
0
176
1
90
50
176
1
62
256
176
0
40
1.0
176
0
90
2
176
1
1
strokes_ogs.tif
176
1
290
0
176
1
40
1.0
176
1
40
1.0
176
1
1001
ACAD
1000
AcDbSavedByObjectVersion
1070
0
0
VISUALSTYLE
5
23F
102
{ACAD_REACTORS
330
23A
102
}
330
23A
100
AcDbVisualStyle
2
Basic
70
7
177
3
291
1
70
58
90
1
176
1
90
0
176
1
90
1
176
1
90
0
176
1
40
0.6
176
1
40
30.0
176
1
62
7
420
16777215
176
1
90
0
176
1
90
4
176
1
62
7
176
1
62
257
176
1
90
1
176
1
90
1
176
1
40
1.0
176
1
90
8
176
1
62
7
176
1
40
1.0
176
1
90
1
176
1
90
6
176
1
90
2
176
1
62
7
176
1
90
5
176
1
90
0
176
1
90
0
176
1
290
0
176
1
90
1
176
1
40
0.0
176
1
90
0
176
1
290
0
176
1
290
1
176
1
290
1
176
1
290
0
176
1
290
0
176
1
290
0
176
1
290
0
176
1
290
0
176
1
290
0
176
1
90
50
176
1
40
0.0
176
1
40
1.0
176
1
90
0
176
1
62
18
176
1
90
50
176
1
90
3
176
1
62
5
420
255
176
1
290
0
176
1
90
50
176
1
90
50
176
1
90
50
176
1
290
0
176
1
90
50
176
1
62
256
176
0
40
1.0
176
0
90
2
176
1
1
strokes_ogs.tif
176
1
290
0
176
1
40
1.0
176
1
40
1.0
176
1
1001
ACAD
1000
AcDbSavedByObjectVersion
1070
0
0
VISUALSTYLE
5
246
102
{ACAD_REACTORS
330
23A
102
}
330
23A
100
AcDbVisualStyle
2
Brighten
70
12
177
3
291
1
70
58
90
2
176
1
90
2
176
1
90
0
176
1
90
0
176
1
40
0.6
176
1
40
30.0
176
1
62
7
420
16777215
176
1
90
1
176
1
90
4
176
1
62
7
176
1
62
257
176
1
90
1
176
1
90
1
176
1
40
1.0
176
1
90
8
176
1
62
7
176
1
40
1.0
176
1
90
1
176
1
90
6
176
1
90
2
176
1
62
7
176
1
90
5
176
1
90
0
176
1
90
0
176
1
290
0
176
1
90
1
176
1
40
50.0
176
1
90
0
176
1
290
0
176
1
290
1
176
1
290
1
176
1
290
0
176
1
290
0
176
1
290
0
176
1
290
0
176
1
290
0
176
1
290
0
176
1
90
50
176
1
40
0.0
176
1
40
1.0
176
1
90
0
176
1
62
18
176
1
90
50
176
1
90
3
176
1
62
5
420
255
176
1
290
0
176
1
90
50
176
1
90
50
176
1
90
50
176
1
290
0
176
1
90
50
176
1
62
256
176
0
40
1.0
176
0
90
2
176
1
1
strokes_ogs.tif
176
1
290
0
176
1
40
1.0
176
1
40
1.0
176
1
1001
ACAD
1000
AcDbSavedByObjectVersion
1070
0
0
VISUALSTYLE
5
24A
102
{ACAD_REACTORS
330
23A
102
}
330
23A
100
AcDbVisualStyle
2
ColorChange
70
16
177
3
291
1
70
58
90
2
176
1
90
2
176
1
90
3
176
1
90
0
176
1
40
0.6
176
1
40
30.0
176
1
62
8
420
8421504
176
1
90
1
176
1
90
4
176
1
62
7
176
1
62
257
176
1
90
1
176
1
90
1
176
1
40
1.0
176
1
90
8
176
1
62
8
420
8421504
176
1
40
1.0
176
1
90
1
176
1
90
6
176
1
90
2
176
1
62
7
176
1
90
5
176
1
90
0
176
1
90
0
176
1
290
0
176
1
90
1
176
1
40
0.0
176
1
90
0
176
1
290
0
176
1
290
1
176
1
290
1
176
1
290
0
176
1
290
0
176
1
290
0
176
1
290
0
176
1
290
0
176
1
290
0
176
1
90
50
176
1
40
0.0
176
1
40
1.0
176
1
90
0
176
1
62
18
176
1
90
50
176
1
90
3
176
1
62
5
420
255
176
1
290
0
176
1
90
50
176
1
90
50
176
1
90
50
176
1
290
0
176
1
90
50
176
1
62
256
176
0
40
1.0
176
0
90
2
176
1
1
strokes_ogs.tif
176
1
290
0
176
1
40
1.0
176
1
40
1.0
176
1
1001
ACAD
1000
AcDbSavedByObjectVersion
1070
0
0
VISUALSTYLE
5
243
102
{ACAD_REACTORS
330
23A
102
}
330
23A
100
AcDbVisualStyle
2
Conceptual
70
9
177
3
291
0
70
58
90
3
176
1
90
2
176
1
90
0
176
1
90
0
176
1
40
0.6
176
1
40
30.0
176
1
62
7
420
16777215
176
1
90
2
176
1
90
2
176
1
62
7
176
1
62
257
176
1
90
1
176
1
90
1
176
1
40
179.0
176
1
90
8
176
1
62
7
176
1
40
1.0
176
1
90
1
176
1
90
6
176
1
90
2
176
1
62
7
176
1
90
3
176
1
90
0
176
1
90
0
176
1
290
0
176
1
90
1
176
1
40
0.0
176
1
90
0
176
1
290
0
176
1
290
1
176
1
290
1
176
1
290
0
176
1
290
0
176
1
290
0
176
1
290
0
176
1
290
0
176
1
290
0
176
1
90
50
176
1
40
0.0
176
1
40
1.0
176
1
90
0
176
1
62
18
176
1
90
50
176
1
90
3
176
1
62
5
420
255
176
1
290
0
176
1
90
50
176
1
90
50
176
1
90
50
176
1
290
0
176
1
90
50
176
1
62
256
176
0
40
1.0
176
0
90
2
176
1
1
strokes_ogs.tif
176
1
290
0
176
1
40
1.0
176
1
40
1.0
176
1
1001
ACAD
1000
AcDbSavedByObjectVersion
1070
0
0
VISUALSTYLE
5
245
102
{ACAD_REACTORS
330
23A
102
}
330
23A
100
AcDbVisualStyle
2
Dim
70
11
177
3
291
1
70
58
90
2
176
1
90
2
176
1
90
0
176
1
90
0
176
1
40
0.6
176
1
40
30.0
176
1
62
7
420
16777215
176
1
90
1
176
1
90
4
176
1
62
7
176
1
62
257
176
1
90
1
176
1
90
1
176
1
40
1.0
176
1
90
8
176
1
62
7
176
1
40
1.0
176
1
90
1
176
1
90
6
176
1
90
2
176
1
62
7
176
1
90
5
176
1
90
0
176
1
90
0
176
1
290
0
176
1
90
1
176
1
40
-50.0
176
1
90
0
176
1
290
0
176
1
290
1
176
1
290
1
176
1
290
0
176
1
290
0
176
1
290
0
176
1
290
0
176
1
290
0
176
1
290
0
176
1
90
50
176
1
40
0.0
176
1
40
1.0
176
1
90
0
176
1
62
18
176
1
90
50
176
1
90
3
176
1
62
5
420
255
176
1
290
0
176
1
90
50
176
1
90
50
176
1
90
50
176
1
290
0
176
1
90
50
176
1
62
256
176
0
40
1.0
176
0
90
2
176
1
1
strokes_ogs.tif
176
1
290
0
176
1
40
1.0
176
1
40
1.0
176
1
1001
ACAD
1000
AcDbSavedByObjectVersion
1070
0
0
VISUALSTYLE
5
252
102
{ACAD_REACTORS
330
23A
102
}
330
23A
100
AcDbVisualStyle
2
EdgeColorOff
70
22
177
3
291
1
70
58
90
2
176
0
90
2
176
0
90
0
176
0
90
0
176
0
40
0.6
176
0
40
30.0
176
0
62
7
420
16777215
176
0
90
1
176
0
90
4
176
0
62
7
176
0
62
257
176
0
90
1
176
0
90
1
176
0
40
1.0
176
0
90
8
176
2
62
7
176
0
40
1.0
176
0
90
1
176
0
90
6
176
0
90
2
176
0
62
7
176
0
90
5
176
0
90
0
176
0
90
0
176
0
290
0
176
0
90
1
176
0
40
0.0
176
0
90
0
176
0
290
0
176
1
290
1
176
1
290
1
176
1
290
0
176
1
290
0
176
1
290
0
176
1
290
0
176
1
290
0
176
1
290
0
176
1
90
50
176
0
40
0.0
176
0
40
1.0
176
0
90
0
176
0
62
18
176
0
90
50
176
0
90
3
176
0
62
5
420
255
176
0
290
0
176
1
90
50
176
0
90
50
176
0
90
50
176
0
290
0
176
1
90
50
176
0
62
256
176
0
40
1.0
176
0
90
2
176
0
1
strokes_ogs.tif
176
0
290
0
176
1
40
1.0
176
0
40
1.0
176
0
1001
ACAD
1000
AcDbSavedByObjectVersion
1070
0
0
VISUALSTYLE
5
249
102
{ACAD_REACTORS
330
23A
102
}
330
23A
100
AcDbVisualStyle
2
Facepattern
70
15
177
3
291
1
70
58
90
2
176
1
90
2
176
1
90
0
176
1
90
0
176
1
40
0.6
176
1
40
30.0
176
1
62
7
420
16777215
176
1
90
1
176
1
90
4
176
1
62
7
176
1
62
257
176
1
90
1
176
1
90
1
176
1
40
1.0
176
1
90
8
176
1
62
7
176
1
40
1.0
176
1
90
1
176
1
90
6
176
1
90
2
176
1
62
7
176
1
90
5
176
1
90
0
176
1
90
0
176
1
290
0
176
1
90
1
176
1
40
0.0
176
1
90
0
176
1
290
0
176
1
290
1
176
1
290
1
176
1
290
0
176
1
290
0
176
1
290
0
176
1
290
0
176
1
290
0
176
1
290
0
176
1
90
50
176
1
40
0.0
176
1
40
1.0
176
1
90
0
176
1
62
18
176
1
90
50
176
1
90
3
176
1
62
5
420
255
176
1
290
0
176
1
90
50
176
1
90
50
176
1
90
50
176
1
290
0
176
1
90
50
176
1
62
256
176
0
40
1.0
176
0
90
2
176
1
1
strokes_ogs.tif
176
1
290
0
176
1
40
1.0
176
1
40
1.0
176
1
1001
ACAD
1000
AcDbSavedByObjectVersion
1070
0
0
VISUALSTYLE
5
23B
102
{ACAD_REACTORS
330
23A
102
}
330
23A
100
AcDbVisualStyle
2
Flat
70
0
177
3
291
1
70
58
90
2
176
1
90
1
176
1
90
1
176
1
90
2
176
1
40
0.6
176
1
40
30.0
176
1
62
7
420
16777215
176
1
90
0
176
1
90
0
176
1
62
7
176
1
62
257
176
1
90
1
176
1
90
1
176
1
40
1.0
176
1
90
8
176
1
62
7
176
1
40
1.0
176
1
90
1
176
1
90
6
176
1
90
2
176
1
62
7
176
1
90
5
176
1
90
0
176
1
90
0
176
1
290
0
176
1
90
13
176
1
40
0.0
176
1
90
0
176
1
290
0
176
1
290
1
176
1
290
1
176
1
290
0
176
1
290
0
176
1
290
0
176
1
290
0
176
1
290
0
176
1
290
0
176
1
90
50
176
1
40
0.0
176
1
40
1.0
176
1
90
0
176
1
62
18
176
1
90
50
176
1
90
3
176
1
62
5
420
255
176
1
290
0
176
1
90
50
176
1
90
50
176
1
90
50
176
1
290
0
176
1
90
50
176
1
62
256
176
0
40
1.0
176
0
90
2
176
1
1
strokes_ogs.tif
176
1
290
0
176
1
40
1.0
176
1
40
1.0
176
1
1001
ACAD
1000
AcDbSavedByObjectVersion
1070
0
0
VISUALSTYLE
5
23C
102
{ACAD_REACTORS
330
23A
102
}
330
23A
100
AcDbVisualStyle
2
FlatWithEdges
70
1
177
3
291
1
70
58
90
2
176
1
90
1
176
1
90
1
176
1
90
2
176
1
40
0.6
176
1
40
30.0
176
1
62
7
420
16777215
176
1
90
1
176
1
90
0
176
1
62
7
176
1
62
257
176
1
90
1
176
1
90
1
176
1
40
1.0
176
1
90
0
176
1
62
257
176
1
40
1.0
176
1
90
1
176
1
90
6
176
1
90
2
176
1
62
7
176
1
90
5
176
1
90
0
176
1
90
0
176
1
290
0
176
1
90
13
176
1
40
0.0
176
1
90
0
176
1
290
0
176
1
290
1
176
1
290
1
176
1
290
0
176
1
290
0
176
1
290
0
176
1
290
0
176
1
290
0
176
1
290
0
176
1
90
50
176
1
40
0.0
176
1
40
1.0
176
1
90
0
176
1
62
18
176
1
90
50
176
1
90
3
176
1
62
5
420
255
176
1
290
0
176
1
90
50
176
1
90
50
176
1
90
50
176
1
290
0
176
1
90
50
176
1
62
256
176
0
40
1.0
176
0
90
2
176
1
1
strokes_ogs.tif
176
1
290
0
176
1
40
1.0
176
1
40
1.0
176
1
1001
ACAD
1000
AcDbSavedByObjectVersion
1070
0
0
VISUALSTYLE
5
23D
102
{ACAD_REACTORS
330
23A
102
}
330
23A
100
AcDbVisualStyle
2
Gouraud
70
2
177
3
291
1
70
58
90
2
176
1
90
2
176
1
90
1
176
1
90
2
176
1
40
0.6
176
1
40
30.0
176
1
62
7
420
16777215
176
1
90
0
176
1
90
0
176
1
62
7
176
1
62
257
176
1
90
1
176
1
90
1
176
1
40
1.0
176
1
90
0
176
1
62
7
176
1
40
1.0
176
1
90
1
176
1
90
6
176
1
90
2
176
1
62
7
176
1
90
5
176
1
90
0
176
1
90
0
176
1
290
0
176
1
90
13
176
1
40
0.0
176
1
90
0
176
1
290
0
176
1
290
1
176
1
290
1
176
1
290
0
176
1
290
0
176
1
290
0
176
1
290
0
176
1
290
0
176
1
290
0
176
1
90
50
176
1
40
0.0
176
1
40
1.0
176
1
90
0
176
1
62
18
176
1
90
50
176
1
90
3
176
1
62
5
420
255
176
1
290
0
176
1
90
50
176
1
90
50
176
1
90
50
176
1
290
0
176
1
90
50
176
1
62
256
176
0
40
1.0
176
0
90
2
176
1
1
strokes_ogs.tif
176
1
290
0
176
1
40
1.0
176
1
40
1.0
176
1
1001
ACAD
1000
AcDbSavedByObjectVersion
1070
0
0
VISUALSTYLE
5
23E
102
{ACAD_REACTORS
330
23A
102
}
330
23A
100
AcDbVisualStyle
2
GouraudWithEdges
70
3
177
3
291
1
70
58
90
2
176
1
90
2
176
1
90
1
176
1
90
2
176
1
40
0.6
176
1
40
30.0
176
1
62
7
420
16777215
176
1
90
1
176
1
90
0
176
1
62
7
176
1
62
257
176
1
90
1
176
1
90
1
176
1
40
1.0
176
1
90
0
176
1
62
257
176
1
40
1.0
176
1
90
1
176
1
90
6
176
1
90
2
176
1
62
7
176
1
90
5
176
1
90
0
176
1
90
0
176
1
290
0
176
1
90
13
176
1
40
0.0
176
1
90
0
176
1
290
0
176
1
290
1
176
1
290
1
176
1
290
0
176
1
290
0
176
1
290
0
176
1
290
0
176
1
290
0
176
1
290
0
176
1
90
50
176
1
40
0.0
176
1
40
1.0
176
1
90
0
176
1
62
18
176
1
90
50
176
1
90
3
176
1
62
5
420
255
176
1
290
0
176
1
90
50
176
1
90
50
176
1
90
50
176
1
290
0
176
1
90
50
176
1
62
256
176
0
40
1.0
176
0
90
2
176
1
1
strokes_ogs.tif
176
1
290
0
176
1
40
1.0
176
1
40
1.0
176
1
1001
ACAD
1000
AcDbSavedByObjectVersion
1070
0
0
VISUALSTYLE
5
242
102
{ACAD_REACTORS
330
23A
102
}
330
23A
100
AcDbVisualStyle
2
Hidden
70
6
177
3
291
0
70
58
90
1
176
1
90
2
176
1
90
2
176
1
90
0
176
1
40
0.6
176
1
40
30.0
176
1
62
7
420
16777215
176
1
90
2
176
1
90
2
176
1
62
7
176
1
62
257
176
1
90
2
176
1
90
1
176
1
40
40.0
176
1
90
0
176
1
62
257
176
1
40
1.0
176
1
90
1
176
1
90
6
176
1
90
2
176
1
62
7
176
1
90
3
176
1
90
0
176
1
90
0
176
1
290
0
176
1
90
1
176
1
40
0.0
176
1
90
0
176
1
290
0
176
1
290
1
176
1
290
1
176
1
290
0
176
1
290
0
176
1
290
0
176
1
290
0
176
1
290
0
176
1
290
0
176
1
90
50
176
1
40
0.0
176
1
40
1.0
176
1
90
0
176
1
62
18
176
1
90
50
176
1
90
3
176
1
62
5
420
255
176
1
290
0
176
1
90
50
176
1
90
50
176
1
90
50
176
1
290
0
176
1
90
50
176
1
62
256
176
0
40
1.0
176
0
90
2
176
1
1
strokes_ogs.tif
176
1
290
0
176
1
40
1.0
176
1
40
1.0
176
1
1001
ACAD
1000
AcDbSavedByObjectVersion
1070
0
0
VISUALSTYLE
5
250
102
{ACAD_REACTORS
330
23A
102
}
330
23A
100
AcDbVisualStyle
2
JitterOff
70
20
177
3
291
1
70
58
90
2
176
0
90
2
176
0
90
0
176
0
90
0
176
0
40
0.6
176
0
40
30.0
176
0
62
7
420
16777215
176
0
90
1
176
0
90
4
176
0
62
7
176
0
62
257
176
0
90
1
176
0
90
1
176
0
40
1.0
176
0
90
10
176
2
62
7
176
0
40
1.0
176
0
90
1
176
0
90
6
176
0
90
2
176
0
62
7
176
0
90
5
176
0
90
0
176
0
90
0
176
0
290
0
176
0
90
1
176
0
40
0.0
176
0
90
0
176
0
290
0
176
1
290
1
176
1
290
1
176
1
290
0
176
1
290
0
176
1
290
0
176
1
290
0
176
1
290
0
176
1
290
0
176
1
90
50
176
0
40
0.0
176
0
40
1.0
176
0
90
0
176
0
62
18
176
0
90
50
176
0
90
3
176
0
62
5
420
255
176
0
290
0
176
1
90
50
176
0
90
50
176
0
90
50
176
0
290
0
176
1
90
50
176
0
62
256
176
0
40
1.0
176
0
90
2
176
0
1
strokes_ogs.tif
176
0
290
0
176
1
40
1.0
176
0
40
1.0
176
0
1001
ACAD
1000
AcDbSavedByObjectVersion
1070
0
0
VISUALSTYLE
5
248
102
{ACAD_REACTORS
330
23A
102
}
330
23A
100
AcDbVisualStyle
2
Linepattern
70
14
177
3
291
1
70
58
90
2
176
1
90
2
176
1
90
0
176
1
90
0
176
1
40
0.6
176
1
40
30.0
176
1
62
7
420
16777215
176
1
90
1
176
1
90
4
176
1
62
7
176
1
62
257
176
1
90
7
176
1
90
7
176
1
40
1.0
176
1
90
8
176
1
62
7
176
1
40
1.0
176
1
90
1
176
1
90
6
176
1
90
2
176
1
62
7
176
1
90
5
176
1
90
0
176
1
90
0
176
1
290
0
176
1
90
1
176
1
40
0.0
176
1
90
0
176
1
290
0
176
1
290
1
176
1
290
1
176
1
290
0
176
1
290
0
176
1
290
0
176
1
290
0
176
1
290
0
176
1
290
0
176
1
90
50
176
1
40
0.0
176
1
40
1.0
176
1
90
0
176
1
62
18
176
1
90
50
176
1
90
3
176
1
62
5
420
255
176
1
290
0
176
1
90
50
176
1
90
50
176
1
90
50
176
1
290
0
176
1
90
50
176
1
62
256
176
0
40
1.0
176
0
90
2
176
1
1
strokes_ogs.tif
176
1
290
0
176
1
40
1.0
176
1
40
1.0
176
1
1001
ACAD
1000
AcDbSavedByObjectVersion
1070
0
0
VISUALSTYLE
5
251
102
{ACAD_REACTORS
330
23A
102
}
330
23A
100
AcDbVisualStyle
2
OverhangOff
70
21
177
3
291
1
70
58
90
2
176
0
90
2
176
0
90
0
176
0
90
0
176
0
40
0.6
176
0
40
30.0
176
0
62
7
420
16777215
176
0
90
1
176
0
90
4
176
0
62
7
176
0
62
257
176
0
90
1
176
0
90
1
176
0
40
1.0
176
0
90
9
176
2
62
7
176
0
40
1.0
176
0
90
1
176
0
90
6
176
0
90
2
176
0
62
7
176
0
90
5
176
0
90
0
176
0
90
0
176
0
290
0
176
0
90
1
176
0
40
0.0
176
0
90
0
176
0
290
0
176
1
290
1
176
1
290
1
176
1
290
0
176
1
290
0
176
1
290
0
176
1
290
0
176
1
290
0
176
1
290
0
176
1
90
50
176
0
40
0.0
176
0
40
1.0
176
0
90
0
176
0
62
18
176
0
90
50
176
0
90
3
176
0
62
5
420
255
176
0
290
0
176
1
90
50
176
0
90
50
176
0
90
50
176
0
290
0
176
1
90
50
176
0
62
256
176
0
40
1.0
176
0
90
2
176
0
1
strokes_ogs.tif
176
0
290
0
176
1
40
1.0
176
0
40
1.0
176
0
1001
ACAD
1000
AcDbSavedByObjectVersion
1070
0
0
VISUALSTYLE
5
244
102
{ACAD_REACTORS
330
23A
102
}
330
23A
100
AcDbVisualStyle
2
Realistic
70
8
177
3
291
0
70
58
90
2
176
1
90
3
176
1
90
0
176
1
90
2
176
1
40
0.6
176
1
40
30.0
176
1
62
7
420
16777215
176
1
90
0
176
1
90
0
176
1
62
7
176
1
62
257
176
1
90
1
176
1
90
1
176
1
40
1.0
176
1
90
8
176
1
62
257
176
1
40
1.0
176
1
90
1
176
1
90
6
176
1
90
2
176
1
62
7
176
1
90
3
176
1
90
0
176
1
90
0
176
1
290
0
176
1
90
13
176
1
40
0.0
176
1
90
0
176
1
290
0
176
1
290
1
176
1
290
1
176
1
290
0
176
1
290
0
176
1
290
0
176
1
290
0
176
1
290
0
176
1
290
0
176
1
90
50
176
1
40
0.0
176
1
40
1.0
176
1
90
0
176
1
62
18
176
1
90
50
176
1
90
3
176
1
62
5
420
255
176
1
290
0
176
1
90
50
176
1
90
50
176
1
90
50
176
1
290
0
176
1
90
50
176
1
62
256
176
0
40
1.0
176
0
90
2
176
1
1
strokes_ogs.tif
176
1
290
0
176
1
40
1.0
176
1
40
1.0
176
1
1001
ACAD
1000
AcDbSavedByObjectVersion
1070
0
0
VISUALSTYLE
5
24F
102
{ACAD_REACTORS
330
23A
102
}
330
23A
100
AcDbVisualStyle
2
Shaded
70
27
177
3
291
0
70
58
90
2
176
1
90
2
176
1
90
1
176
1
90
2
176
1
40
0.6
176
1
40
30.0
176
1
62
7
420
16777215
176
1
90
0
176
1
90
4
176
1
62
7
176
1
62
257
176
1
90
1
176
1
90
1
176
1
40
1.0
176
1
90
8
176
1
62
257
176
1
40
1.0
176
1
90
1
176
1
90
6
176
1
90
2
176
1
62
8
420
7895160
176
1
90
3
176
1
90
0
176
1
90
0
176
1
290
0
176
1
90
5
176
1
40
0.0
176
1
90
0
176
1
290
0
176
1
290
1
176
1
290
1
176
1
290
0
176
1
290
0
176
1
290
0
176
1
290
0
176
1
290
0
176
1
290
0
176
1
90
50
176
1
40
0.0
176
1
40
1.0
176
1
90
0
176
1
62
18
176
1
90
50
176
1
90
3
176
1
62
5
420
255
176
1
290
0
176
1
90
50
176
1
90
50
176
1
90
50
176
1
290
0
176
1
90
50
176
1
62
256
176
0
40
1.0
176
0
90
2
176
1
1
strokes_ogs.tif
176
1
290
0
176
1
40
1.0
176
1
40
1.0
176
1
1001
ACAD
1000
AcDbSavedByObjectVersion
1070
0
0
VISUALSTYLE
5
24E
102
{ACAD_REACTORS
330
23A
102
}
330
23A
100
AcDbVisualStyle
2
Shaded with edges
70
26
177
3
291
0
70
58
90
2
176
1
90
2
176
1
90
1
176
1
90
2
176
1
40
0.6
176
1
40
30.0
176
1
62
7
420
16777215
176
1
90
1
176
1
90
10
176
1
62
7
176
1
62
257
176
1
90
2
176
1
90
1
176
1
40
1.0
176
1
90
8
176
1
62
257
176
1
40
1.0
176
1
90
1
176
1
90
6
176
1
90
2
176
1
62
7
176
1
90
3
176
1
90
0
176
1
90
0
176
1
290
0
176
1
90
5
176
1
40
0.0
176
1
90
0
176
1
290
0
176
1
290
1
176
1
290
1
176
1
290
0
176
1
290
0
176
1
290
0
176
1
290
0
176
1
290
0
176
1
290
0
176
1
90
50
176
1
40
0.0
176
1
40
1.0
176
1
90
0
176
1
62
18
176
1
90
50
176
1
90
3
176
1
62
5
420
255
176
1
290
0
176
1
90
50
176
1
90
50
176
1
90
50
176
1
290
0
176
1
90
50
176
1
62
256
176
0
40
1.0
176
0
90
2
176
1
1
strokes_ogs.tif
176
1
290
0
176
1
40
1.0
176
1
40
1.0
176
1
1001
ACAD
1000
AcDbSavedByObjectVersion
1070
0
0
VISUALSTYLE
5
24B
102
{ACAD_REACTORS
330
23A
102
}
330
23A
100
AcDbVisualStyle
2
Shades of Gray
70
23
177
3
291
0
70
58
90
2
176
1
90
2
176
1
90
3
176
1
90
0
176
1
40
0.6
176
1
40
30.0
176
1
62
7
420
16777215
176
1
90
2
176
1
90
2
176
1
62
7
176
1
62
7
176
1
90
1
176
1
90
1
176
1
40
40.0
176
1
90
8
176
1
62
7
176
1
40
1.0
176
1
90
1
176
1
90
6
176
1
90
2
176
1
62
7
176
1
90
3
176
1
90
0
176
1
90
0
176
1
290
0
176
1
90
1
176
1
40
0.0
176
1
90
0
176
1
290
0
176
1
290
1
176
1
290
1
176
1
290
0
176
1
290
0
176
1
290
0
176
1
290
0
176
1
290
0
176
1
290
0
176
1
90
50
176
1
40
0.0
176
1
40
1.0
176
1
90
0
176
1
62
18
176
1
90
50
176
1
90
3
176
1
62
5
420
255
176
1
290
0
176
1
90
50
176
1
90
50
176
1
90
50
176
1
290
0
176
1
90
50
176
1
62
256
176
0
40
1.0
176
0
90
2
176
1
1
strokes_ogs.tif
176
1
290
0
176
1
40
1.0
176
1
40
1.0
176
1
1001
ACAD
1000
AcDbSavedByObjectVersion
1070
0
0
VISUALSTYLE
5
24C
102
{ACAD_REACTORS
330
23A
102
}
330
23A
100
AcDbVisualStyle
2
Sketchy
70
24
177
3
291
0
70
58
90
1
176
1
90
2
176
1
90
2
176
1
90
0
176
1
40
0.6
176
1
40
30.0
176
1
62
7
420
16777215
176
1
90
2
176
1
90
2
176
1
62
7
176
1
62
7
176
1
90
1
176
1
90
1
176
1
40
40.0
176
1
90
11
176
1
62
7
176
1
40
1.0
176
1
90
1
176
1
90
6
176
1
90
2
176
1
62
7
176
1
90
6
176
1
90
0
176
1
90
0
176
1
290
0
176
1
90
1
176
1
40
0.0
176
1
90
0
176
1
290
0
176
1
290
1
176
1
290
1
176
1
290
0
176
1
290
0
176
1
290
0
176
1
290
0
176
1
290
0
176
1
290
0
176
1
90
50
176
1
40
0.0
176
1
40
1.0
176
1
90
0
176
1
62
18
176
1
90
50
176
1
90
3
176
1
62
5
420
255
176
1
290
0
176
1
90
50
176
1
90
50
176
1
90
50
176
1
290
0
176
1
90
50
176
1
62
256
176
0
40
1.0
176
0
90
2
176
1
1
strokes_ogs.tif
176
1
290
0
176
1
40
1.0
176
1
40
1.0
176
1
1001
ACAD
1000
AcDbSavedByObjectVersion
1070
0
0
VISUALSTYLE
5
247
102
{ACAD_REACTORS
330
23A
102
}
330
23A
100
AcDbVisualStyle
2
Thicken
70
13
177
3
291
1
70
58
90
2
176
1
90
2
176
1
90
0
176
1
90
0
176
1
40
0.6
176
1
40
30.0
176
1
62
7
420
16777215
176
1
90
1
176
1
90
4
176
1
62
7
176
1
62
257
176
1
90
1
176
1
90
1
176
1
40
1.0
176
1
90
12
176
1
62
7
176
1
40
1.0
176
1
90
1
176
1
90
6
176
1
90
2
176
1
62
7
176
1
90
5
176
1
90
0
176
1
90
0
176
1
290
0
176
1
90
1
176
1
40
0.0
176
1
90
0
176
1
290
0
176
1
290
1
176
1
290
1
176
1
290
0
176
1
290
0
176
1
290
0
176
1
290
0
176
1
290
0
176
1
290
0
176
1
90
50
176
1
40
0.0
176
1
40
1.0
176
1
90
0
176
1
62
18
176
1
90
50
176
1
90
3
176
1
62
5
420
255
176
1
290
0
176
1
90
50
176
1
90
50
176
1
90
50
176
1
290
0
176
1
90
50
176
1
62
256
176
0
40
1.0
176
0
90
2
176
1
1
strokes_ogs.tif
176
1
290
0
176
1
40
1.0
176
1
40
1.0
176
1
1001
ACAD
1000
AcDbSavedByObjectVersion
1070
0
0
VISUALSTYLE
5
241
102
{ACAD_REACTORS
330
23A
102
}
330
23A
100
AcDbVisualStyle
2
Wireframe
70
5
177
3
291
0
70
58
90
0
176
1
90
2
176
1
90
0
176
1
90
0
176
1
40
0.6
176
1
40
30.0
176
1
62
7
420
16777215
176
1
90
1
176
1
90
4
176
1
62
7
176
1
62
257
176
1
90
1
176
1
90
1
176
1
40
1.0
176
1
90
0
176
1
62
257
176
1
40
1.0
176
1
90
1
176
1
90
6
176
1
90
2
176
1
62
7
176
1
90
3
176
1
90
0
176
1
90
0
176
1
290
0
176
1
90
1
176
1
40
0.0
176
1
90
0
176
1
290
0
176
1
290
1
176
1
290
1
176
1
290
0
176
1
290
0
176
1
290
0
176
1
290
0
176
1
290
0
176
1
290
0
176
1
90
50
176
1
40
0.0
176
1
40
1.0
176
1
90
0
176
1
62
18
176
1
90
50
176
1
90
3
176
1
62
5
420
255
176
1
290
0
176
1
90
50
176
1
90
50
176
1
90
50
176
1
290
0
176
1
90
50
176
1
62
256
176
0
40
1.0
176
0
90
2
176
1
1
strokes_ogs.tif
176
1
290
0
176
1
40
1.0
176
1
40
1.0
176
1
1001
ACAD
1000
AcDbSavedByObjectVersion
1070
0
0
VISUALSTYLE
5
24D
102
{ACAD_REACTORS
330
23A
102
}
330
23A
100
AcDbVisualStyle
2
X-Ray
70
25
177
3
291
0
70
58
90
2
176
1
90
2
176
1
90
1
176
1
90
1
176
1
40
0.5
176
1
40
30.0
176
1
62
7
420
16777215
176
1
90
1
176
1
90
0
176
1
62
7
176
1
62
257
176
1
90
1
176
1
90
1
176
1
40
1.0
176
1
90
8
176
1
62
7
176
1
40
1.0
176
1
90
1
176
1
90
6
176
1
90
2
176
1
62
7
176
1
90
3
176
1
90
0
176
1
90
0
176
1
290
0
176
1
90
13
176
1
40
0.0
176
1
90
0
176
1
290
0
176
1
290
1
176
1
290
1
176
1
290
0
176
1
290
0
176
1
290
0
176
1
290
0
176
1
290
0
176
1
290
0
176
1
90
50
176
1
40
0.0
176
1
40
1.0
176
1
90
0
176
1
62
18
176
1
90
50
176
1
90
3
176
1
62
5
420
255
176
1
290
0
176
1
90
50
176
1
90
50
176
1
90
50
176
1
290
0
176
1
90
50
176
1
62
256
176
0
40
1.0
176
0
90
2
176
1
1
strokes_ogs.tif
176
1
290
0
176
1
40
1.0
176
1
40
1.0
176
1
1001
ACAD
1000
AcDbSavedByObjectVersion
1070
0
0
DICTIONARYVAR
5
2A3
102
{ACAD_REACTORS
330
29D
102
}
330
29D
100
DictionaryVariables
280
0
1
1:1
0
DICTIONARYVAR
5
29F
102
{ACAD_REACTORS
330
29D
102
}
330
29D
100
DictionaryVariables
280
0
1
STANDARD
0
DICTIONARYVAR
5
29E
102
{ACAD_REACTORS
330
29D
102
}
330
29D
100
DictionaryVariables
280
0
1
STANDARD
0
DICTIONARYVAR
5
2A0
102
{ACAD_REACTORS
330
29D
102
}
330
29D
100
DictionaryVariables
280
0
1
Imperial24
0
DICTIONARYVAR
5
2A1
102
{ACAD_REACTORS
330
29D
102
}
330
29D
100
DictionaryVariables
280
0
1
Imperial24
0
DICTIONARYVAR
5
2A5
102
{ACAD_REACTORS
330
29D
102
}
330
29D
100
DictionaryVariables
280
0
1
1
0
DICTIONARYVAR
5
2A6
102
{ACAD_REACTORS
330
29D
102
}
330
29D
100
DictionaryVariables
280
0
1
15
0
DICTIONARYVAR
5
2A4
102
{ACAD_REACTORS
330
29D
102
}
330
29D
100
DictionaryVariables
280
0
1
0
0
DICTIONARYVAR
5
2A2
102
{ACAD_REACTORS
330
29D
102
}
330
29D
100
DictionaryVariables
280
0
1
0
0
DICTIONARY
5
22B
330
22A
100
AcDbDictionary
280
1
281
1
3
BUMPTILE
360
22D
3
DIFFUSETILE
360
22C
3
OPACITYTILE
360
230
3
REFLECTIONTILE
360
22F
3
REFRACTIONTILE
360
231
3
SPECULARTILE
360
22E
0
DICTIONARY
5
223
330
222
100
AcDbDictionary
280
1
281
1
3
BUMPTILE
360
225
3
DIFFUSETILE
360
224
3
OPACITYTILE
360
228
3
REFLECTIONTILE
360
227
3
REFRACTIONTILE
360
229
3
SPECULARTILE
360
226
0
DICTIONARY
5
233
330
232
100
AcDbDictionary
280
1
281
1
3
BUMPTILE
360
235
3
DIFFUSETILE
360
234
3
OPACITYTILE
360
238
3
REFLECTIONTILE
360
237
3
REFRACTIONTILE
360
239
3
SPECULARTILE
360
236
0
DICTIONARY
5
2A7
330
275
100
AcDbDictionary
280
1
281
1
3
ACAD_ROUNDTRIP_2008_TABLESTYLE_CELLSTYLEMAP
360
1056
0
XRECORD
5
22D
102
{ACAD_REACTORS
330
22B
102
}
330
22B
100
AcDbXrecord
280
1
270
1
271
1
0
XRECORD
5
22C
102
{ACAD_REACTORS
330
22B
102
}
330
22B
100
AcDbXrecord
280
1
270
1
271
1
0
XRECORD
5
230
102
{ACAD_REACTORS
330
22B
102
}
330
22B
100
AcDbXrecord
280
1
270
1
271
1
0
XRECORD
5
22F
102
{ACAD_REACTORS
330
22B
102
}
330
22B
100
AcDbXrecord
280
1
270
1
271
1
0
XRECORD
5
231
102
{ACAD_REACTORS
330
22B
102
}
330
22B
100
AcDbXrecord
280
1
270
1
271
1
0
XRECORD
5
22E
102
{ACAD_REACTORS
330
22B
102
}
330
22B
100
AcDbXrecord
280
1
270
1
271
1
0
XRECORD
5
225
102
{ACAD_REACTORS
330
223
102
}
330
223
100
AcDbXrecord
280
1
270
1
271
1
0
XRECORD
5
224
102
{ACAD_REACTORS
330
223
102
}
330
223
100
AcDbXrecord
280
1
270
1
271
1
0
XRECORD
5
228
102
{ACAD_REACTORS
330
223
102
}
330
223
100
AcDbXrecord
280
1
270
1
271
1
0
XRECORD
5
227
102
{ACAD_REACTORS
330
223
102
}
330
223
100
AcDbXrecord
280
1
270
1
271
1
0
XRECORD
5
229
102
{ACAD_REACTORS
330
223
102
}
330
223
100
AcDbXrecord
280
1
270
1
271
1
0
XRECORD
5
226
102
{ACAD_REACTORS
330
223
102
}
330
223
100
AcDbXrecord
280
1
270
1
271
1
0
XRECORD
5
235
102
{ACAD_REACTORS
330
233
102
}
330
233
100
AcDbXrecord
280
1
270
1
271
1
0
XRECORD
5
234
102
{ACAD_REACTORS
330
233
102
}
330
233
100
AcDbXrecord
280
1
270
1
271
1
0
XRECORD
5
238
102
{ACAD_REACTORS
330
233
102
}
330
233
100
AcDbXrecord
280
1
270
1
271
1
0
XRECORD
5
237
102
{ACAD_REACTORS
330
233
102
}
330
233
100
AcDbXrecord
280
1
270
1
271
1
0
XRECORD
5
239
102
{ACAD_REACTORS
330
233
102
}
330
233
100
AcDbXrecord
280
1
270
1
271
1
0
XRECORD
5
236
102
{ACAD_REACTORS
330
233
102
}
330
233
100
AcDbXrecord
280
1
270
1
271
1
0
CELLSTYLEMAP
5
1056
102
{ACAD_REACTORS
330
2A7
102
}
330
2A7
100
AcDbCellStyleMap
90
3
300
CELLSTYLE
1
TABLEFORMAT_BEGIN
90
5
170
1
91
0
92
32768
62
257
93
1
300
CONTENTFORMAT
1
CONTENTFORMAT_BEGIN
90
0
91
0
92
512
93
0
300

40
0.0
140
1.0
94
5
62
0
340
266
144
0.25
309
CONTENTFORMAT_END
171
1
301
MARGIN
1
CELLMARGIN_BEGIN
40
0.06
40
0.06
40
0.06
40
0.06
40
0.18
40
0.18
309
CELLMARGIN_END
94
6
95
1
302
GRIDFORMAT
1
GRIDFORMAT_BEGIN
90
0
91
1
62
0
92
-2
340
0
93
0
40
0.045
309
GRIDFORMAT_END
95
2
302
GRIDFORMAT
1
GRIDFORMAT_BEGIN
90
0
91
1
62
0
92
-2
340
0
93
0
40
0.045
309
GRIDFORMAT_END
95
4
302
GRIDFORMAT
1
GRIDFORMAT_BEGIN
90
0
91
1
62
0
92
-2
340
0
93
0
40
0.045
309
GRIDFORMAT_END
95
8
302
GRIDFORMAT
1
GRIDFORMAT_BEGIN
90
0
91
1
62
0
92
-2
340
0
93
0
40
0.045
309
GRIDFORMAT_END
95
16
302
GRIDFORMAT
1
GRIDFORMAT_BEGIN
90
0
91
1
62
0
92
-2
340
0
93
0
40
0.045
309
GRIDFORMAT_END
95
32
302
GRIDFORMAT
1
GRIDFORMAT_BEGIN
90
0
91
1
62
0
92
-2
340
0
93
0
40
0.045
309
GRIDFORMAT_END
309
TABLEFORMAT_END
1
CELLSTYLE_BEGIN
90
1
91
1
300
_TITLE
309
CELLSTYLE_END
300
CELLSTYLE
1
TABLEFORMAT_BEGIN
90
5
170
1
91
0
92
0
62
257
93
1
300
CONTENTFORMAT
1
CONTENTFORMAT_BEGIN
90
0
91
0
92
512
93
0
300

40
0.0
140
1.0
94
5
62
0
340
266
144
0.18
309
CONTENTFORMAT_END
171
1
301
MARGIN
1
CELLMARGIN_BEGIN
40
0.06
40
0.06
40
0.06
40
0.06
40
0.18
40
0.18
309
CELLMARGIN_END
94
6
95
1
302
GRIDFORMAT
1
GRIDFORMAT_BEGIN
90
0
91
1
62
0
92
-2
340
0
93
0
40
0.045
309
GRIDFORMAT_END
95
2
302
GRIDFORMAT
1
GRIDFORMAT_BEGIN
90
0
91
1
62
0
92
-2
340
0
93
0
40
0.045
309
GRIDFORMAT_END
95
4
302
GRIDFORMAT
1
GRIDFORMAT_BEGIN
90
0
91
1
62
0
92
-2
340
0
93
0
40
0.045
309
GRIDFORMAT_END
95
8
302
GRIDFORMAT
1
GRIDFORMAT_BEGIN
90
0
91
1
62
0
92
-2
340
0
93
0
40
0.045
309
GRIDFORMAT_END
95
16
302
GRIDFORMAT
1
GRIDFORMAT_BEGIN
90
0
91
1
62
0
92
-2
340
0
93
0
40
0.045
309
GRIDFORMAT_END
95
32
302
GRIDFORMAT
1
GRIDFORMAT_BEGIN
90
0
91
1
62
0
92
-2
340
0
93
0
40
0.045
309
GRIDFORMAT_END
309
TABLEFORMAT_END
1
CELLSTYLE_BEGIN
90
2
91
1
300
_HEADER
309
CELLSTYLE_END
300
CELLSTYLE
1
TABLEFORMAT_BEGIN
90
5
170
1
91
0
92
0
62
257
93
1
300
CONTENTFORMAT
1
CONTENTFORMAT_BEGIN
90
0
91
0
92
512
93
0
300

40
0.0
140
1.0
94
2
62
0
340
266
144
0.18
309
CONTENTFORMAT_END
171
1
301
MARGIN
1
CELLMARGIN_BEGIN
40
0.06
40
0.06
40
0.06
40
0.06
40
0.18
40
0.18
309
CELLMARGIN_END
94
6
95
1
302
GRIDFORMAT
1
GRIDFORMAT_BEGIN
90
0
91
1
62
0
92
-2
340
0
93
0
40
0.045
309
GRIDFORMAT_END
95
2
302
GRIDFORMAT
1
GRIDFORMAT_BEGIN
90
0
91
1
62
0
92
-2
340
0
93
0
40
0.045
309
GRIDFORMAT_END
95
4
302
GRIDFORMAT
1
GRIDFORMAT_BEGIN
90
0
91
1
62
0
92
-2
340
0
93
0
40
0.045
309
GRIDFORMAT_END
95
8
302
GRIDFORMAT
1
GRIDFORMAT_BEGIN
90
0
91
1
62
0
92
-2
340
0
93
0
40
0.045
309
GRIDFORMAT_END
95
16
302
GRIDFORMAT
1
GRIDFORMAT_BEGIN
90
0
91
1
62
0
92
-2
340
0
93
0
40
0.045
309
GRIDFORMAT_END
95
32
302
GRIDFORMAT
1
GRIDFORMAT_BEGIN
90
0
91
1
62
0
92
-2
340
0
93
0
40
0.045
309
GRIDFORMAT_END
309
TABLEFORMAT_END
1
CELLSTYLE_BEGIN
90
3
91
2
300
_DATA
309
CELLSTYLE_END
0
ENDSEC
0
SECTION
2
ACDSDATA
70
2
71
2
0
ACDSSCHEMA
90
0
1
AcDb_Thumbnail_Schema
2
AcDbDs::ID
280
10
91
8
2
Thumbnail_Data
280
15
91
0
101
ACDSRECORD
95
0
90
1
2
AcDbDs::TreatedAsObjectData
280
1
291
1
101
ACDSRECORD
95
0
90
2
2
AcDbDs::Legacy
280
1
291
1
101
ACDSRECORD
1
AcDbDs::ID
90
3
2
AcDs:Indexable
280
1
291
1
101
ACDSRECORD
1
AcDbDs::ID
90
4
2
AcDbDs::HandleAttribute
280
7
282
1
0
ACDSSCHEMA
90
1
1
AcDbDs::TreatedAsObjectDataSchema
2
AcDbDs::TreatedAsObjectData
280
1
91
0
0
ACDSSCHEMA
90
2
1
AcDbDs::LegacySchema
2
AcDbDs::Legacy
280
1
91
0
0
ACDSSCHEMA
90
3
1
AcDbDs::IndexedPropertySchema
2
AcDs:Indexable
280
1
91
0
0
ACDSSCHEMA
90
4
1
AcDbDs::HandleAttributeSchema
2
AcDbDs::HandleAttribute
280
7
91
1
284
1
0
ACDSRECORD
90
0
2
AcDbDs::ID
280
10
320
284
2
Thumbnail_Data
280
15
94
1130
310
89504E470D0A1A0A0000000D4948445200000100000000BB0803000000BDD6B05600000300504C54452128300000000000000000000000000000000000000000000000000000000000000000330000660000990000CC0000FF0033000033330033660033990033CC0033FF0066000066330066660066990066CC0066FF0099
310
000099330099660099990099CC0099FF00CC0000CC3300CC6600CC9900CCCC00CCFF00FF0000FF3300FF6600FF9900FFCC00FFFF3300003300333300663300993300CC3300FF3333003333333333663333993333CC3333FF3366003366333366663366993366CC3366FF3399003399333399663399993399CC3399FF33CC00
310
33CC3333CC6633CC9933CCCC33CCFF33FF0033FF3333FF6633FF9933FFCC33FFFF6600006600336600666600996600CC6600FF6633006633336633666633996633CC6633FF6666006666336666666666996666CC6666FF6699006699336699666699996699CC6699FF66CC0066CC3366CC6666CC9966CCCC66CCFF66FF0066
310
FF3366FF6666FF9966FFCC66FFFF9900009900339900669900999900CC9900FF9933009933339933669933999933CC9933FF9966009966339966669966999966CC9966FF9999009999339999669999999999CC9999FF99CC0099CC3399CC6699CC9999CCCC99CCFF99FF0099FF3399FF6699FF9999FFCC99FFFFCC0000CC00
310
33CC0066CC0099CC00CCCC00FFCC3300CC3333CC3366CC3399CC33CCCC33FFCC6600CC6633CC6666CC6699CC66CCCC66FFCC9900CC9933CC9966CC9999CC99CCCC99FFCCCC00CCCC33CCCC66CCCC99CCCCCCCCCCFFCCFF00CCFF33CCFF66CCFF99CCFFCCCCFFFFFF0000FF0033FF0066FF0099FF00CCFF00FFFF3300FF3333
310
FF3366FF3399FF33CCFF33FFFF6600FF6633FF6666FF6699FF66CCFF66FFFF9900FF9933FF9966FF9999FF99CCFF99FFFFCC00FFCC33FFCC66FFCC99FFCCCCFFCCFFFFFF00FFFF33FFFF66FFFF99FFFFCCFFFFFF0000000D0D0D1A1A1A2828283535354343435050505D5D5D6B6B6B787878868686939393A1A1A1AEAEAEBB
310
BBBBC9C9C9D6D6D6E4E4E4F1F1F1FFFFFF000000000000000000000000000000000000000000000000000000000000544354A80000004549444154789CEDC13101000000C2A0F54F6D094FA000000000000000000000000000000000000000000000000000000000000000000000000000000000000000000000E062BBBB00
310
01006808E50000000049454E44AE4260824BBACA0DB465ABDB4063B2B20534072BDA4047AC9A0DF4A42AD9407A015D99E20BA8D8407A019D89143066171752C0D0E513E84D54AE01050C5E7F7B0A18BA7C020A18BA7C02F105C4FF0C2920FE4024FE484C01F1C7E2F11723AEC65C8EBA1E372071982F7D48A87EFCC5989C41
310
49A3B22F9BB861E9DF3E73F299D3F25FC9D901000000000000000000000000000000000000000000E0344F3123803F1ED9B2780000000049454E44AE426082FADAD667F149BFC5000000000000000000000000000000000000000070A90F51C3A687E5D1137C0000000049454E44AE426082
0
ENDSEC
0
EOF
