0
SECTION
2
HEADER
9
$ACADVER
1
AC1027
9
$ACADMAINTVER
70
8
9
$DWGCODEPAGE
3
ANSI_1252
9
$LASTSAVEDBY
1
macc
9
$REQUIREDVERSIONS
160
0
9
$INSBASE
10
0.0
20
0.0
30
0.0
9
$EXTMIN
10
1.000000000000000E+20
20
1.000000000000000E+20
30
1.000000000000000E+20
9
$EXTMAX
10
-1.000000000000000E+20
20
-1.000000000000000E+20
30
-1.000000000000000E+20
9
$LIMMIN
10
0.0
20
0.0
9
$LIMMAX
10
12.0
20
9.0
9
$ORTHOMODE
70
0
9
$REGENMODE
70
1
9
$FILLMODE
70
1
9
$QTEXTMODE
70
0
9
$MIRRTEXT
70
0
9
$LTSCALE
40
1.0
9
$ATTMODE
70
1
9
$TEXTSIZE
40
0.2
9
$TRACEWID
40
0.05
9
$TEXTSTYLE
7
STANDARD
9
$CLAYER
8
0
9
$CELTYPE
6
ByLayer
9
$CECOLOR
62
256
9
$CELTSCALE
40
1.0
9
$DISPSILH
70
0
9
$DIMSCALE
40
1.0
9
$DIMASZ
40
0.18
9
$DIMEXO
40
0.0625
9
$DIMDLI
40
0.38
9
$DIMRND
40
0.0
9
$DIMDLE
40
0.0
9
$DIMEXE
40
0.18
9
$DIMTP
40
0.0
9
$DIMTM
40
0.0
9
$DIMTXT
40
0.18
9
$DIMCEN
40
0.09
9
$DIMTSZ
40
0.0
9
$DIMTOL
70
0
9
$DIMLIM
70
0
9
$DIMTIH
70
1
9
$DIMTOH
70
1
9
$DIMSE1
70
0
9
$DIMSE2
70
0
9
$DIMTAD
70
0
9
$DIMZIN
70
0
9
$DIMBLK
1

9
$DIMASO
70
1
9
$DIMSHO
70
1
9
$DIMPOST
1

9
$DIMAPOST
1

9
$DIMALT
70
0
9
$DIMALTD
70
2
9
$DIMALTF
40
25.4
9
$DIMLFAC
40
1.0
9
$DIMTOFL
70
0
9
$DIMTVP
40
0.0
9
$DIMTIX
70
0
9
$DIMSOXD
70
0
9
$DIMSAH
70
0
9
$DIMBLK1
1

9
$DIMBLK2
1

9
$DIMSTYLE
2
STANDARD
9
$DIMCLRD
70
0
9
$DIMCLRE
70
0
9
$DIMCLRT
70
0
9
$DIMTFAC
40
1.0
9
$DIMGAP
40
0.09
9
$DIMJUST
70
0
9
$DIMSD1
70
0
9
$DIMSD2
70
0
9
$DIMTOLJ
70
1
9
$DIMTZIN
70
0
9
$DIMALTZ
70
0
9
$DIMALTTZ
70
0
9
$DIMUPT
70
0
9
$DIMDEC
70
4
9
$DIMTDEC
70
4
9
$DIMALTU
70
2
9
$DIMALTTD
70
2
9
$DIMTXSTY
7
STANDARD
9
$DIMAUNIT
70
0
9
$DIMADEC
70
0
9
$DIMALTRND
40
0.0
9
$DIMAZIN
70
0
9
$DIMDSEP
70
46
9
$DIMATFIT
70
3
9
$DIMFRAC
70
0
9
$DIMLDRBLK
1

9
$DIMLUNIT
70
2
9
$DIMLWD
70
-2
9
$DIMLWE
70
-2
9
$DIMTMOVE
70
0
9
$DIMFXL
40
1.0
9
$DIMFXLON
70
0
9
$DIMJOGANG
40
0.7853981633974483
9
$DIMTFILL
70
0
9
$DIMTFILLCLR
70
0
9
$DIMARCSYM
70
0
9
$DIMLTYPE
6

9
$DIMLTEX1
6

9
$DIMLTEX2
6

9
$DIMTXTDIRECTION
70
0
9
$LUNITS
70
2
9
$LUPREC
70
4
9
$SKETCHINC
40
0.1
9
$FILLETRAD
40
0.0
9
$AUNITS
70
0
9
$AUPREC
70
0
9
$MENU
1
.
9
$ELEVATION
40
0.0
9
$PELEVATION
40
0.0
9
$THICKNESS
40
0.0
9
$LIMCHECK
70
0
9
$CHAMFERA
40
0.0
9
$CHAMFERB
40
0.0
9
$CHAMFERC
40
0.0
9
$CHAMFERD
40
0.0
9
$SKPOLY
70
0
9
$TDCREATE
40
2458312.067262384
9
$TDUCREATE
40
2458311.983929051
9
$TDUPDATE
40
2458312.961305069
9
$TDUUPDATE
40
2458312.877971736
9
$TDINDWG
40
0.0045230903
9
$TDUSRTIMER
40
0.0045219676
9
$USRTIMER
70
1
9
$ANGBASE
50
0.0
9
$ANGDIR
70
0
9
$PDMODE
70
0
9
$PDSIZE
40
0.0
9
$PLINEWID
40
0.0
9
$SPLFRAME
70
0
9
$SPLINETYPE
70
6
9
$SPLINESEGS
70
8
9
$HANDSEED
5
1058
9
$SURFTAB1
70
6
9
$SURFTAB2
70
6
9
$SURFTYPE
70
6
9
$SURFU
70
6
9
$SURFV
70
6
9
$UCSBASE
2

9
$UCSNAME
2

9
$UCSORG
10
0.0
20
0.0
30
0.0
9
$UCSXDIR
10
1.0
20
0.0
30
0.0
9
$UCSYDIR
10
0.0
20
1.0
30
0.0
9
$UCSORTHOREF
2

9
$UCSORTHOVIEW
70
0
9
$UCSORGTOP
10
0.0
20
0.0
30
0.0
9
$UCSORGBOTTOM
10
0.0
20
0.0
30
0.0
9
$UCSORGLEFT
10
0.0
20
0.0
30
0.0
9
$UCSORGRIGHT
10
0.0
20
0.0
30
0.0
9
$UCSORGFRONT
10
0.0
20
0.0
30
0.0
9
$UCSORGBACK
10
0.0
20
0.0
30
0.0
9
$PUCSBASE
2

9
$PUCSNAME
2

9
$PUCSORG
10
0.0
20
0.0
30
0.0
9
$PUCSXDIR
10
1.0
20
0.0
30
0.0
9
$PUCSYDIR
10
0.0
20
1.0
30
0.0
9
$PUCSORTHOREF
2

9
$PUCSORTHOVIEW
70
0
9
$PUCSORGTOP
10
0.0
20
0.0
30
0.0
9
$PUCSORGBOTTOM
10
0.0
20
0.0
30
0.0
9
$PUCSORGLEFT
10
0.0
20
0.0
30
0.0
9
$PUCSORGRIGHT
10
0.0
20
0.0
30
0.0
9
$PUCSORGFRONT
10
0.0
20
0.0
30
0.0
9
$PUCSORGBACK
10
0.0
20
0.0
30
0.0
9
$USERI1
70
0
9
$USERI2
70
0
9
$USERI3
70
0
9
$USERI4
70
0
9
$USERI5
70
0
9
$USERR1
40
0.0
9
$USERR2
40
0.0
9
$USERR3
40
0.0
9
$USERR4
40
0.0
9
$USERR5
40
0.0
9
$WORLDVIEW
70
1
9
$SHADEDGE
70
3
9
$SHADEDIF
70
70
9
$TILEMODE
70
1
9
$MAXACTVP
70
64
9
$PINSBASE
10
0.0
20
0.0
30
0.0
9
$PLIMCHECK
70
0
9
$PEXTMIN
10
0.0
20
0.0
30
0.0
9
$PEXTMAX
10
0.0
20
0.0
30
0.0
9
$PLIMMIN
10
0.0
20
0.0
9
$PLIMMAX
10
12.0
20
9.0
9
$UNITMODE
70
0
9
$VISRETAIN
70
1
9
$PLINEGEN
70
0
9
$PSLTSCALE
70
1
9
$TREEDEPTH
70
3020
9
$CMLSTYLE
2
Standard
9
$CMLJUST
70
0
9
$CMLSCALE
40
1.0
9
$PROXYGRAPHICS
70
1
9
$MEASUREMENT
70
0
9
$CELWEIGHT
370
-1
9
$ENDCAPS
280
0
9
$JOINSTYLE
280
0
9
$LWDISPLAY
290
0
9
$INSUNITS
70
0
9
$HYPERLINKBASE
1

9
$STYLESHEET
1

9
$XEDIT
290
1
9
$CEPSNTYPE
380
0
9
$PSTYLEMODE
290
1
9
$FINGERPRINTGUID
2
{4B4ED3CC-337F-6143-9B17-EFB0F3F01845}
9
$VERSIONGUID
2
{A4861B96-12DA-254C-ACF2-0C3CF0F63D02}
9
$EXTNAMES
290
1
9
$PSVPSCALE
40
0.0
9
$OLESTARTUP
290
0
9
$SORTENTS
280
127
9
$INDEXCTL
280
0
9
$HIDETEXT
280
0
9
$XCLIPFRAME
280
2
9
$HALOGAP
280
0
9
$OBSCOLOR
70
257
9
$OBSLTYPE
280
0
9
$INTERSECTIONDISPLAY
280
0
9
$INTERSECTIONCOLOR
70
257
9
$DIMASSOC
280
1
9
$PROJECTNAME
1

9
$CAMERADISPLAY
290
0
9
$LENSLENGTH
40
50.0
9
$CAMERAHEIGHT
40
0.0
9
$STEPSPERSEC
40
2.0
9
$STEPSIZE
40
6.0
9
$3DDWFPREC
40
2.0
9
$PSOLWIDTH
40
0.25
9
$PSOLHEIGHT
40
4.0
9
$LOFTANG1
40
1.570796326794896
9
$LOFTANG2
40
1.570796326794896
9
$LOFTMAG1
40
0.0
9
$LOFTMAG2
40
0.0
9
$LOFTPARAM
70
7
9
$LOFTNORMALS
280
1
9
$LATITUDE
40
37.795
9
$LONGITUDE
40
-122.394
9
$NORTHDIRECTION
40
0.0
9
$TIMEZONE
70
-8000
9
$LIGHTGLYPHDISPLAY
280
1
9
$TILEMODELIGHTSYNCH
280
1
9
$CMATERIAL
347
222
9
$SOLIDHIST
280
0
9
$SHOWHIST
280
1
9
$DWFFRAME
280
2
9
$DGNFRAME
280
0
9
$REALWORLDSCALE
290
1
9
$INTERFERECOLOR
62
1
9
$INTERFEREOBJVS
345
244
9
$INTERFEREVPVS
346
241
9
$CSHADOW
280
0
9
$SHADOWPLANELOCATION
40
0.0
0
ENDSEC
0
SECTION
2
CLASSES
0
CLASS
1
ACDBDICTIONARYWDFLT
2
AcDbDictionaryWithDefault
3
ObjectDBX Classes
90
0
91
1
280
0
281
0
0
CLASS
1
MATERIAL
2
AcDbMaterial
3
ObjectDBX Classes
90
1153
91
3
280
0
281
0
0
CLASS
1
VISUALSTYLE
2
AcDbVisualStyle
3
ObjectDBX Classes
90
4095
91
24
280
0
281
0
0
CLASS
1
SCALE
2
AcDbScale
3
ObjectDBX Classes
90
1153
91
17
280
0
281
0
0
CLASS
1
TABLESTYLE
2
AcDbTableStyle
3
ObjectDBX Classes
90
4095
91
1
280
0
281
0
0
CLASS
1
MLEADERSTYLE
2
AcDbMLeaderStyle
3
ACDB_MLEADERSTYLE_CLASS
90
4095
91
1
280
0
281
0
0
CLASS
1
ACDBSECTIONVIEWSTYLE
2
AcDbSectionViewStyle
3
ObjectDBX Classes
90
1025
91
1
280
0
281
0
0
CLASS
1
ACDBDETAILVIEWSTYLE
2
AcDbDetailViewStyle
3
ObjectDBX Classes
90
1025
91
1
280
0
281
0
0
CLASS
1
DICTIONARYVAR
2
AcDbDictionaryVar
3
ObjectDBX Classes
90
0
91
9
280
0
281
0
0
CLASS
1
CELLSTYLEMAP
2
AcDbCellStyleMap
3
ObjectDBX Classes
90
1152
91
2
280
0
281
0
0
ENDSEC
0
SECTION
2
TABLES
0
TABLE
2
VPORT
5
219
330
0
100
AcDbSymbolTable
70
1
0
VPORT
5
285
330
219
100
AcDbSymbolTableRecord
100
AcDbViewportTableRecord
2
*ACTIVE
70
0
10
0.0
20
0.0
11
1.0
21
1.0
12
60.85393284500712
22
1.602311788490737
13
0.0
23
0.0
14
0.5
24
0.5
15
0.5
25
0.5
16
0.0
26
0.0
36
1.0
17
0.0
27
0.0
37
0.0
40
135.7601553851812
41
1.367970660146699
42
50.0
43
0.0
44
0.0
50
0.0
51
0.0
71
0
72
1000
73
1
74
3
75
0
76
1
77
0
78
0
281
0
65
1
110
0.0
120
0.0
130
0.0
111
1.0
121
0.0
131
0.0
112
0.0
122
1.0
132
0.0
79
0
146
0.0
348
240
60
3
61
5
292
1
282
0
141
0.0
142
0.0
63
250
421
3355443
1001
ACAD_NAV_VCDISPLAY
1070
3
0
ENDTAB
0
TABLE
2
LTYPE
5
216
330
0
100
AcDbSymbolTable
70
2
0
LTYPE
5
26B
330
216
100
AcDbSymbolTableRecord
100
AcDbLinetypeTableRecord
2
ByBlock
70
0
3

72
65
73
0
40
0.0
0
LTYPE
5
26C
330
216
100
AcDbSymbolTableRecord
100
AcDbLinetypeTableRecord
2
ByLayer
70
0
3

72
65
73
0
40
0.0
0
LTYPE
5
26D
330
216
100
AcDbSymbolTableRecord
100
AcDbLinetypeTableRecord
2
CONTINUOUS
70
0
3
Solid line
72
65
73
0
40
0.0
0
LTYPE
5
103D
330
216
100
AcDbSymbolTableRecord
100
AcDbLinetypeTableRecord
2
DOTTED
70
0
3
Dotted . . . . . . . . . . . . . . . . . . . .
72
65
73
2
40
3.0
49
0.0
74
0
49
-3.0
74
0
0
ENDTAB
0
TABLE
2
LAYER
5
213
102
{ACAD_XDICTIONARY
360
297
102
}
330
0
100
AcDbSymbolTable
70
4
0
LAYER
5
265
102
{ACAD_XDICTIONARY
360
292
102
}
330
213
100
AcDbSymbolTableRecord
100
AcDbLayerTableRecord
2
0
70
0
62
7
6
CONTINUOUS
370
-3
390
220
347
232
348
0
0
LAYER
5
2FB
330
213
100
AcDbSymbolTableRecord
100
AcDbLayerTableRecord
2
gear
70
0
62
7
6
CONTINUOUS
370
-3
390
220
347
232
348
0
1001
AcAecLayerStandard
1000

1000

1001
AcCmTransparency
1071
0
0
LAYER
5
2FE
330
213
100
AcDbSymbolTableRecord
100
AcDbLayerTableRecord
2
gear_texts
70
0
62
7
6
CONTINUOUS
370
-3
390
220
347
232
348
0
1001
AcAecLayerStandard
1000

1000

1001
AcCmTransparency
1071
0
0
LAYER
5
2FF
330
213
100
AcDbSymbolTableRecord
100
AcDbLayerTableRecord
2
gear_guides
70
0
62
5
6
CONTINUOUS
370
-3
390
220
347
232
348
0
1001
AcAecLayerStandard
1000

1000

1001
AcCmTransparency
1071
0
0
ENDTAB
0
TABLE
2
STYLE
5
214
330
0
100
AcDbSymbolTable
70
3
0
STYLE
5
266
330
214
100
AcDbSymbolTableRecord
100
AcDbTextStyleTableRecord
2
STANDARD
70
0
40
0.0
41
1.0
50
0.0
71
0
42
0.2
3
txt
4

0
STYLE
5
26A
330
214
100
AcDbSymbolTableRecord
100
AcDbTextStyleTableRecord
2
ANNOTATIVE
70
0
40
0.0
41
1.0
50
0.0
71
0
42
0.2
3
txt
4

1001
ACADANNOTATIVE
1000
AnnotativeData
1002
{
1070
1
1070
1
1002
}
0
STYLE
5
301
330
214
100
AcDbSymbolTableRecord
100
AcDbTextStyleTableRecord
2

70
1
40
0.0
41
1.0
50
0.0
71
0
42
0.2
3
ltypeshp.shx
4

0
ENDTAB
0
TABLE
2
VIEW
5
217
330
0
100
AcDbSymbolTable
70
1
0
ENDTAB
0
TABLE
2
UCS
5
218
330
0
100
AcDbSymbolTable
70
0
0
ENDTAB
0
TABLE
2
APPID
5
21A
330
0
100
AcDbSymbolTable
70
10
0
APPID
5
267
330
21A
100
AcDbSymbolTableRecord
100
AcDbRegAppTableRecord
2
ACAD
70
0
0
APPID
5
26E
330
21A
100
AcDbSymbolTableRecord
100
AcDbRegAppTableRecord
2
ACADANNOTATIVE
70
0
0
APPID
5
286
330
21A
100
AcDbSymbolTableRecord
100
AcDbRegAppTableRecord
2
ACADANNOPO
70
0
0
APPID
5
287
330
21A
100
AcDbSymbolTableRecord
100
AcDbRegAppTableRecord
2
ACAD_DSTYLE_DIMJAG
70
0
0
APPID
5
288
330
21A
100
AcDbSymbolTableRecord
100
AcDbRegAppTableRecord
2
ACAD_DSTYLE_DIMTALN
70
0
0
APPID
5
289
330
21A
100
AcDbSymbolTableRecord
100
AcDbRegAppTableRecord
2
ACAD_MLEADERVER
70
0
0
APPID
5
28A
330
21A
100
AcDbSymbolTableRecord
100
AcDbRegAppTableRecord
2
ACAD_NAV_VCDISPLAY
70
0
0
APPID
5
2E7
330
21A
100
AcDbSymbolTableRecord
100
AcDbRegAppTableRecord
2
ACAD_EXEMPT_FROM_CAD_STANDARDS
70
0
0
APPID
5
2FC
330
21A
100
AcDbSymbolTableRecord
100
AcDbRegAppTableRecord
2
AcAecLayerStandard
70
0
0
APPID
5
2FD
330
21A
100
AcDbSymbolTableRecord
100
AcDbRegAppTableRecord
2
AcCmTransparency
70
0
0
ENDTAB
0
TABLE
2
DIMSTYLE
5
21B
330
0
100
AcDbSymbolTable
70
2
100
AcDbDimStyleTable
71
1
340
268
0
DIMSTYLE
105
268
330
21B
100
AcDbSymbolTableRecord
100
AcDbDimStyleTableRecord
2
STANDARD
70
0
279
2
340
266
0
DIMSTYLE
105
269
330
21B
100
AcDbSymbolTableRecord
100
AcDbDimStyleTableRecord
2
ANNOTATIVE
70
0
40
0.0
279
2
340
266
1001
ACADANNOTATIVE
1000
AnnotativeData
1002
{
1070
1
1070
1
1002
}
0
ENDTAB
0
TABLE
2
BLOCK_RECORD
5
212
330
0
100
AcDbSymbolTable
70
2
0
BLOCK_RECORD
5
281
330
212
100
AcDbSymbolTableRecord
100
AcDbBlockTableRecord
2
*Model_Space
340
284
70
0
280
1
281
0
0
BLOCK_RECORD
5
27D
330
212
100
AcDbSymbolTableRecord
100
AcDbBlockTableRecord
2
*Paper_Space
340
280
70
0
280
1
281
0
0
BLOCK_RECORD
5
28C
330
212
100
AcDbSymbolTableRecord
100
AcDbBlockTableRecord
2
$MODEL_SPACE
340
0
70
0
280
1
281
0
0
BLOCK_RECORD
5
28E
330
212
100
AcDbSymbolTableRecord
100
AcDbBlockTableRecord
2
$PAPER_SPACE
340
0
70
0
280
1
281
0
0
ENDTAB
0
ENDSEC
0
SECTION
2
BLOCKS
0
BLOCK
5
282
330
281
100
AcDbEntity
8
0
100
AcDbBlockBegin
2
*Model_Space
70
0
10
0.0
20
0.0
30
0.0
3
*Model_Space
1

0
ENDBLK
5
283
330
281
100
AcDbEntity
8
0
100
AcDbBlockEnd
0
BLOCK
5
27E
330
27D
100
AcDbEntity
67
1
8
0
100
AcDbBlockBegin
2
*Paper_Space
70
0
10
0.0
20
0.0
30
0.0
3
*Paper_Space
1

0
ENDBLK
5
27F
330
27D
100
AcDbEntity
67
1
8
0
100
AcDbBlockEnd
0
BLOCK
5
28D
330
28C
100
AcDbEntity
8
0
100
AcDbBlockBegin
2
$MODEL_SPACE
70
0
10
0.0
20
0.0
30
0.0
3
$MODEL_SPACE
1

0
ENDBLK
5
21
330
28C
100
AcDbEntity
8
0
100
AcDbBlockEnd
0
BLOCK
5
28F
330
28E
100
AcDbEntity
8
0
100
AcDbBlockBegin
2
$PAPER_SPACE
70
0
10
0.0
20
0.0
30
0.0
3
$PAPER_SPACE
1

0
ENDBLK
5
5B
330
28E
100
AcDbEntity
8
0
100
AcDbBlockEnd
0
ENDSEC
0
SECTION
2
ENTITIES
0
LWPOLYLINE
5
1000
100
AcDbEntity
100
AcDbPolyline
90
1368
70
1
43
0
10
10.9027778
20
0
10
11.7479467
20
0.0000208
10
11.7541284
20
0.0001958
10
11.7647182
20
0.0006962
10
11.779704
20
0.0016929
10
11.7990689
20
0.0033564
10
11.822791
20
0.0058569
10
11.8508435
20
0.0093637
10
11.8831946
20
0.0140456
10
11.9198077
20
0.0200703
10
11.9606412
20
0.0276047
10
12.0056487
20
0.0368143
10
12.054779
20
0.0478636
10
12.107976
20
0.0609155
10
12.1651789
20
0.0761315
10
12.2263222
20
0.0936715
10
12.2913357
20
0.1136936
10
12.3601445
20
0.1363538
10
12.4326691
20
0.1618065
10
12.5088257
20
0.1902038
10
12.5885256
20
0.2216954
10
12.671676
20
0.2564289
10
12.7581797
20
0.2945493
10
12.8479349
20
0.336199
10
12.9408358
20
0.3815177
10
13.0367725
20
0.4306425
10
13.1356307
20
0.4837073
10
13.2372923
20
0.5408431
10
13.341635
20
0.6021778
10
13.448533
20
0.6678359
10
13.5578562
20
0.7379389
10
13.6694712
20
0.8126045
10
13.7832407
20
0.8919472
10
13.8408895
20
0.9334071
10
13.8553783
20
0.9439606
10
13.8562849
20
0.9446228
10
13.8565115
20
0.9447883
10
13.856706
20
0.9449517
10
13.7672009
20
1.8345066
10
13.7669778
20
1.834628
10
13.7667227
20
1.8347451
10
13.7657024
20
1.8352133
10
13.7494016
20
1.8426689
10
13.6846487
20
1.871813
10
13.5573532
20
1.9269002
10
13.4331007
20
1.9778333
10
13.312003
20
2.0247518
10
13.1941675
20
2.0677978
10
13.0796972
20
2.107116
10
12.9686909
20
2.1428536
10
12.8612428
20
2.1751603
10
12.7574426
20
2.204188
10
12.6573755
20
2.2300907
10
12.5611221
20
2.2530246
10
12.4687581
20
2.2731477
10
12.3803549
20
2.2906198
10
12.2959788
20
2.3056025
10
12.2156916
20
2.3182587
10
12.13955
20
2.3287529
10
12.0676061
20
2.337251
10
11.9999071
20
2.3439197
10
11.9364951
20
2.3489272
10
11.8774075
20
2.3524424
10
11.8226766
20
2.3546348
10
11.7723299
20
2.3556749
10
11.7263899
20
2.3557336
10
11.6848739
20
2.3549821
10
11.6477944
20
2.3535921
10
11.6151591
20
2.3517352
10
11.5869702
20
2.3495831
10
11.5632255
20
2.3473076
10
11.5439174
20
2.3450799
10
11.5290334
20
2.3430712
10
11.5185563
20
2.3414518
10
11.5124636
20
2.3403918
10
10.6842319
20
2.1720387
10
10.2452598
20
3.7289696
10
11.0394517
20
4.018054
10
11.0452008
20
4.0203327
10
11.0549808
20
4.0244248
10
11.0687219
20
4.0304868
10
11.08635
20
4.0386732
10
11.1077862
20
4.0491363
10
11.1329476
20
4.0620262
10
11.1617464
20
4.0774905
10
11.1940909
20
4.0956743
10
11.2298849
20
4.1167202
10
11.2690283
20
4.1407679
10
11.3114166
20
4.1679543
10
11.3569414
20
4.1984136
10
11.4054903
20
4.2322765
10
11.4569472
20
4.2696709
10
11.511192
20
4.3107214
10
11.5681008
20
4.3555491
10
11.6275464
20
4.4042717
10
11.6893977
20
4.4570035
10
11.7535203
20
4.5138549
10
11.8197766
20
4.5749328
10
11.8880255
20
4.6403402
10
11.9581228
20
4.7101762
10
12.0299212
20
4.7845359
10
12.1032705
20
4.8635104
10
12.1780176
20
4.9471864
10
12.2540066
20
5.0356468
10
12.3310791
20
5.1289699
10
12.4090739
20
5.2272297
10
12.4878275
20
5.3304957
10
12.5671741
20
5.438833
10
12.6469457
20
5.5523021
10
12.6869378
20
5.6109787
10
12.6969432
20
5.6258513
10
12.6975686
20
5.6267836
10
12.697725
20
5.6270167
10
12.6978518
20
5.6272367
10
12.3094989
20
6.4325323
10
12.3092477
20
6.4325701
10
12.3089679
20
6.4325929
10
12.307849
20
6.4326839
10
12.2899813
20
6.4341147
10
12.2191657
20
6.4393544
10
12.0807061
20
6.4475818
10
11.9465268
20
6.4529464
10
11.8166851
20
6.4556175
10
11.6912333
20
6.4557654
10
11.5702188
20
6.4535613
10
11.4536841
20
6.4491773
10
11.3416663
20
6.4427862
10
11.234198
20
6.4345615
10
11.1313064
20
6.4246772
10
11.0330139
20
6.4133074
10
10.9393377
20
6.4006266
10
10.85029
20
6.3868093
10
10.7658781
20
6.3720301
10
10.686104
20
6.3564632
10
10.6109651
20
6.3402826
10
10.5404535
20
6.3236619
10
10.4745564
20
6.306774
10
10.4132559
20
6.2897914
10
10.3565295
20
6.2728853
10
10.3043495
20
6.2562265
10
10.2566833
20
6.2399843
10
10.2134937
20
6.224327
10
10.1747384
20
6.2094216
10
10.1403706
20
6.1954334
10
10.1103385
20
6.1825265
10
10.0845857
20
6.1708631
10
10.0630512
20
6.1606037
10
10.0456694
20
6.1519066
10
10.0323701
20
6.1449284
10
10.0230786
20
6.1398233
10
10.0177159
20
6.1367433
10
9.2970129
20
5.6952712
10
8.3520123
20
7.0081705
10
8.9994359
20
7.5514505
10
9.0040589
20
7.5555581
10
9.0118495
20
7.5627484
10
9.0226886
20
7.5731446
10
9.0364537
20
7.5868664
10
9.0530186
20
7.6040302
10
9.0722539
20
7.6247484
10
9.0940268
20
7.6491298
10
9.1182015
20
7.6772795
10
9.1446388
20
7.7092984
10
9.1731967
20
7.7452837
10
9.2037303
20
7.7853282
10
9.236092
20
7.829521
10
9.2701313
20
7.8779464
10
9.3056953
20
7.930685
10
9.3426286
20
7.9878126
10
9.3807735
20
8.0494008
10
9.4199699
20
8.1155167
10
9.4600558
20
8.1862227
10
9.500867
20
8.2615768
10
9.5422377
20
8.3416323
10
9.584
20
8.4264376
10
9.6259846
20
8.5160367
10
9.6680205
20
8.6104685
10
9.7099354
20
8.7097671
10
9.7515558
20
8.8139619
10
9.7927069
20
8.9230773
10
9.833213
20
9.0371326
10
9.8728973
20
9.1561424
10
9.9115824
20
9.280116
10
9.9490903
20
9.4090579
10
9.9852424
20
9.5429675
10
10.002754
20
9.6117836
10
10.0070694
20
9.6291813
10
10.0073382
20
9.6302712
10
10.0074054
20
9.6305438
10
10.0074494
20
9.6307939
10
9.3670896
20
10.2546997
10
9.3668407
20
10.2546493
10
9.36657
20
10.254575
10
9.3654875
20
10.2542779
10
9.3482079
20
10.2495112
10
9.2798709
20
10.2302146
10
9.1469475
20
10.1905898
10
9.0190254
20
10.1497389
10
8.8961005
20
10.1078405
10
8.7781639
20
10.0650724
10
8.6652013
20
10.0216118
10
8.5571939
20
9.977635
10
8.4541175
20
9.933317
10
8.3559433
20
9.888832
10
8.2626375
20
9.8443528
10
8.1741615
20
9.8000506
10
8.0904717
20
9.7560954
10
8.01152
20
9.7126553
10
7.9372535
20
9.6698968
10
7.8676147
20
9.6279844
10
7.8025413
20
9.5870806
10
7.7419667
20
9.5473458
10
7.6858196
20
9.5089383
10
7.6340244
20
9.4720138
10
7.5865012
20
9.4367258
10
7.5431657
20
9.403225
10
7.5039293
20
9.3716595
10
7.4686994
20
9.3421747
10
7.4373794
20
9.3149131
10
7.4098684
20
9.2900141
10
7.3860618
20
9.267614
10
7.3658513
20
9.247846
10
7.3491244
20
9.23084
10
7.3357654
20
9.2167225
10
7.3256549
20
9.2056165
10
7.3186698
20
9.1976414
10
7.3146839
20
9.1929131
10
6.7884369
20
8.53157
10
5.4513889
20
9.4420825
10
5.8739553
20
10.1740307
10
5.8768946
20
10.1794717
10
5.8817562
20
10.1888929
10
5.8883859
20
10.2023693
10
5.8966277
20
10.2199716
10
5.9063233
20
10.2417658
10
5.9173125
20
10.2678133
10
5.9294334
20
10.2981712
10
5.9425224
20
10.3328914
10
5.9564142
20
10.3720215
10
5.9709422
20
10.4156039
10
5.9859384
20
10.4636767
10
6.0012336
20
10.5162726
10
6.0166576
20
10.5734198
10
6.0320392
20
10.6351414
10
6.0472063
20
10.7014557
10
6.0619864
20
10.772376
10
6.076206
20
10.8479106
10
6.0896915
20
10.9280627
10
6.102269
20
11.0128307
10
6.1137641
20
11.1022078
10
6.1240027
20
11.1961823
10
6.1328106
20
11.2947375
10
6.1400139
20
11.3978514
10
6.1454389
20
11.5054974
10
6.1489126
20
11.6176435
10
6.1502623
20
11.7342529
10
6.1493163
20
11.8552837
10
6.1459036
20
11.9806892
10
6.1398543
20
12.1104174
10
6.1309994
20
12.2444116
10
6.1191715
20
12.3826102
10
6.1120906
20
12.4532655
10
6.1101953
20
12.4710899
10
6.1100751
20
12.4722061
10
6.1100451
20
12.4724852
10
6.1100008
20
12.4727353
10
5.2948711
20
12.839999
10
5.2946545
20
12.8398665
10
5.2944255
20
12.8397041
10
5.2935099
20
12.8390546
10
5.2789027
20
12.8286655
10
5.2212867
20
12.7871599
10
5.1099321
20
12.7044624
10
5.0036964
20
12.6223231
10
4.902515
20
12.5409087
10
4.8063183
20
12.4603831
10
4.7150326
20
12.3809081
10
4.6285798
20
12.3026426
10
4.5468773
20
12.2257432
10
4.4698385
20
12.1503634
10
4.3973726
20
12.0766541
10
4.3293845
20
12.0047631
10
4.2657754
20
11.9348351
10
4.2064425
20
11.8670117
10
4.1512791
20
11.8014312
10
4.1001749
20
11.7382286
10
4.0530158
20
11.6775351
10
4.0096844
20
11.6194789
10
3.9700595
20
11.5641842
10
3.9340169
20
11.5117716
10
3.9014289
20
11.4623578
10
3.8721648
20
11.4160557
10
3.8460906
20
11.3729742
10
3.8230698
20
11.3332183
10
3.8029626
20
11.2968887
10
3.7856267
20
11.2640819
10
3.7709171
20
11.2348904
10
3.7586865
20
11.2094021
10
3.7487848
20
11.1877008
10
3.7410599
20
11.1698657
10
3.7353576
20
11.1559714
10
3.7315214
20
11.1460883
10
3.729393
20
11.1402818
10
3.4610753
20
10.3388356
10
1.8932475
20
10.7371401
10
2.039989
20
11.5694726
10
2.0408901
20
11.5755908
10
2.0422362
20
11.5861066
10
2.043857
20
11.6010378
10
2.0455814
20
11.6203973
10
2.0472382
20
11.6441932
10
2.0486559
20
11.6724285
10
2.0496629
20
11.7051012
10
2.0500874
20
11.7422042
10
2.0497582
20
11.7837257
10
2.048504
20
11.8296487
10
2.046154
20
11.8799513
10
2.0425379
20
11.9346065
10
2.0374862
20
11.9935826
10
2.0308301
20
12.0568428
10
2.0224017
20
12.1243454
10
2.0120343
20
12.1960437
10
1.999562
20
12.2718864
10
1.9848206
20
12.3518171
10
1.9676472
20
12.4357746
10
1.9478803
20
12.5236932
10
1.9253602
20
12.6155022
10
1.8999291
20
12.7111262
10
1.8714309
20
12.8104853
10
1.8397117
20
12.9134949
10
1.8046197
20
13.0200658
10
1.7660052
20
13.1301045
10
1.7237213
20
13.2435127
10
1.6776232
20
13.360188
10
1.6275691
20
13.4800237
10
1.5734195
20
13.6029085
10
1.5150382
20
13.7287273
10
1.4842187
20
13.7926998
10
1.4763414
20
13.808801
10
1.4758468
20
13.8098088
10
1.4757231
20
13.8100608
10
1.475596
20
13.8102806
10
0.584013
20
13.8766049
10
0.5838548
20
13.8764063
10
0.5836951
20
13.8761754
10
0.5830568
20
13.8752519
10
0.5728839
20
13.8604934
10
0.5329383
20
13.8017851
10
0.4565834
20
13.6859892
10
0.3848479
20
13.5724689
10
0.3176137
20
13.4613582
10
0.2547598
20
13.3527878
10
0.1961614
20
13.2468841
10
0.1416907
20
13.14377
10
0.0912166
20
13.0435643
10
0.0446053
20
12.9463816
10
0.0017196
20
12.8523328
10
-0.0375801
20
12.761524
10
-0.0734364
20
12.6740576
10
-0.1059941
20
12.5900314
10
-0.1354009
20
12.5095389
10
-0.1618065
20
12.4326691
10
-0.1853632
20
12.3595067
10
-0.2062251
20
12.2901314
10
-0.2245483
20
12.2246189
10
-0.2404911
20
12.1630398
10
-0.2542133
20
12.1054603
10
-0.2658764
20
12.0519417
10
-0.2756433
20
12.0025405
10
-0.2836785
20
11.9573085
10
-0.2901476
20
11.9162927
10
-0.2952174
20
11.8795352
10
-0.2990558
20
11.8470732
10
-0.3018314
20
11.818939
10
-0.3037137
20
11.7951598
10
-0.3048727
20
11.7757582
10
-0.305479
20
11.7607516
10
-0.3057036
20
11.7501524
10
-0.3057177
20
11.7439681
10
-0.2837431
20
10.899085
10
-1.8932475
20
10.7371401
10
-2.04003
20
11.5694653
10
-2.0412758
20
11.5755228
10
-2.0436075
20
11.5858648
10
-2.0471913
20
11.6004498
10
-2.0521922
20
11.6192316
10
-2.058774
20
11.6421592
10
-2.0670988
20
11.6691765
10
-2.0773273
20
11.7002232
10
-2.0896183
20
11.7352338
10
-2.1041289
20
11.7741387
10
-2.1210141
20
11.8168632
10
-2.1404269
20
11.8633284
10
-2.162518
20
11.9134508
10
-2.1874361
20
11.9671424
10
-2.215327
20
12.024311
10
-2.2463343
20
12.08486
10
-2.2805989
20
12.1486885
10
-2.3182587
20
12.2156916
10
-2.359449
20
12.28576
10
-2.4043019
20
12.3587806
10
-2.4529466
20
12.4346364
10
-2.505509
20
12.5132063
10
-2.5621118
20
12.5943655
10
-2.6228742
20
12.6779856
10
-2.6879118
20
12.7639343
10
-2.757337
20
12.852076
10
-2.8312581
20
12.9422716
10
-2.9097799
20
13.0343786
10
-2.9930032
20
13.1282511
10
-3.081025
20
13.2237402
10
-3.173938
20
13.3206939
10
-3.2718311
20
13.4189573
10
-3.3226717
20
13.4685309
10
-3.335581
20
13.480967
10
-3.3363904
20
13.4817448
10
-3.3365929
20
13.4819392
10
-3.3367875
20
13.4821023
10
-4.1972856
20
13.2394874
10
-4.1973664
20
13.2392466
10
-4.1974375
20
13.2389751
10
-4.1977214
20
13.237889
10
-4.2022332
20
13.2205412
10
-4.2196903
20
13.1517112
10
-4.2518359
20
13.0167838
10
-4.2804191
20
12.8855746
10
-4.3055964
20
12.7581693
10
-4.3275265
20
12.6346491
10
-4.3463698
20
12.5150904
10
-4.3622884
20
12.3995647
10
-4.3754461
20
12.288139
10
-4.3860081
20
12.1808752
10
-4.3941408
20
12.0778304
10
-4.4000121
20
11.9790568
10
-4.4037906
20
11.8846017
10
-4.4056462
20
11.7945075
10
-4.4057495
20
11.7088116
10
-4.4042717
20
11.6275464
10
-4.4013847
20
11.5507392
10
-4.3972607
20
11.4784127
10
-4.3920723
20
11.4105841
10
-4.3859924
20
11.347266
10
-4.3791936
20
11.2884657
10
-4.3718489
20
11.2341856
10
-4.3641306
20
11.1844231
10
-4.3562109
20
11.1391708
10
-4.3482617
20
11.098416
10
-4.340454
20
11.0621413
10
-4.3329582
20
11.0303242
10
-4.3259439
20
11.0029373
10
-4.3195797
20
10.9799484
10
-4.3140331
20
10.9613205
10
-4.3094703
20
10.9470115
10
-4.3060562
20
10.9369747
10
-4.3039543
20
10.9311586
10
-3.9943379
20
10.1447439
10
-5.4513889
20
9.4420825
10
-5.8739914
20
10.1740098
10
-5.8772338
20
10.1792759
10
-5.882962
20
10.1881967
10
-5.8913181
20
10.2006765
10
-5.9024412
20
10.2166152
10
-5.9164677
20
10.2359089
10
-5.9335309
20
10.2584496
10
-5.9537612
20
10.2841256
10
-5.9772853
20
10.3128211
10
-6.004227
20
10.3444168
10
-6.0347065
20
10.3787896
10
-6.0688406
20
10.4158131
10
-6.1067424
20
10.4553571
10
-6.1485213
20
10.4972882
10
-6.194283
20
10.5414699
10
-6.2441294
20
10.5877622
10
-6.2981581
20
10.6360222
10
-6.3564632
20
10.686104
10
-6.4191342
20
10.7378589
10
-6.4862567
20
10.7911353
10
-6.557912
20
10.8457789
10
-6.634177
20
10.9016331
10
-6.7151243
20
10.9585385
10
-6.800822
20
11.0163337
10
-6.8913336
20
11.0748549
10
-6.9867181
20
11.1339362
10
-7.08703
20
11.1934098
10
-7.1923187
20
11.253106
10
-7.3026294
20
11.3128532
10
-7.418002
20
11.3724785
10
-7.5384718
20
11.4318071
10
-7.6640692
20
11.490663
10
-7.728799
20
11.5198584
10
-7.7451831
20
11.5271293
10
-7.7462097
20
11.5275833
10
-7.7464665
20
11.5276968
10
-7.7467052
20
11.5277835
10
-8.4723297
20
11.0054924
10
-8.4723233
20
11.0052385
10
-8.4722972
20
11.004959
10
-8.4721925
20
11.0038413
10
-8.4704989
20
10.9859966
10
-8.463362
20
10.9153469
10
-8.4474211
20
10.7775622
10
-8.4294043
20
10.6444898
10
-8.409488
20
10.5161569
10
-8.3878492
20
10.3925853
10
-8.3646646
20
10.2737921
10
-8.3401111
20
10.159789
10
-8.3143655
20
10.0505829
10
-8.2876041
20
9.9461754
10
-8.260003
20
9.8465634
10
-8.2317376
20
9.7517385
10
-8.2029827
20
9.6616874
10
-8.1739124
20
9.5763919
10
-8.1446997
20
9.4958288
10
-8.1155167
20
9.4199699
10
-8.0865342
20
9.3487822
10
-8.0579218
20
9.282228
10
-8.0298476
20
9.2202645
10
-8.0024782
20
9.1628444
10
-7.9759786
20
9.1099154
10
-7.9505119
20
9.0614209
10
-7.9262393
20
9.0172993
10
-7.9033201
20
8.9774847
10
-7.8819113
20
8.9419065
10
-7.8621677
20
8.9104898
10
-7.8442419
20
8.8831552
10
-7.8282838
20
8.859819
10
-7.8144407
20
8.8403933
10
-7.8028575
20
8.8247858
10
-7.7936759
20
8.8129003
10
-7.7870349
20
8.8046364
10
-7.7830705
20
8.79989
10
-7.2231566
20
8.1667969
10
-8.3520123
20
7.0081705
10
-8.9994626
20
7.5514186
10
-9.0043107
20
7.5552581
10
-9.0127445
20
7.5616818
10
-9.0248649
20
7.5705509
10
-9.0407686
20
7.5817241
10
-9.060548
20
7.5950569
10
-9.0842917
20
7.6104023
10
-9.1120835
20
7.6276107
10
-9.1440034
20
7.6465299
10
-9.1801267
20
7.6670055
10
-9.2205243
20
7.6888808
10
-9.2652626
20
7.7119969
10
-9.3144035
20
7.736193
10
-9.3680041
20
7.7613061
10
-9.4261171
20
7.7871719
10
-9.4887902
20
7.813624
10
-9.5560666
20
7.8404946
10
-9.6279844
20
7.8676147
10
-9.704577
20
7.8948136
10
-9.7858732
20
7.9219198
10
-9.8718963
20
7.9487604
10
-9.9626652
20
7.975162
10
-10.0581936
20
8.00095
10
-10.1584902
20
8.0259494
10
-10.2635588
20
8.0499845
10
-10.3733979
20
8.0728794
10
-10.4880014
20
8.0944576
10
-10.6073578
20
8.1145428
10
-10.7314506
20
8.1329584
10
-10.8602584
20
8.149528
10
-10.9937546
20
8.1640755
10
-11.1319075
20
8.1764252
10
-11.202719
20
8.181721
10
-11.2206018
20
8.1829497
10
-11.2217218
20
8.1830252
10
-11.2220019
20
8.1830441
10
-11.2222559
20
8.1830439
10
-11.7254858
20
7.4440726
10
-11.7253929
20
7.4438362
10
-11.7252728
20
7.4435825
10
-11.7247922
20
7.442568
10
-11.7170974
20
7.4263787
10
-11.6862273
20
7.3624307
10
-11.6241226
20
7.2384075
10
-11.5616789
20
7.1195225
10
-11.4990713
20
7.0057407
10
-11.4364735
20
6.8970223
10
-11.3740574
20
6.7933228
10
-11.3119934
20
6.6945927
10
-11.2504497
20
6.6007781
10
-11.1895928
20
6.5118201
10
-11.1295869
20
6.4276556
10
-11.0705941
20
6.3482166
10
-11.012774
20
6.2734311
10
-10.9562841
20
6.2032221
10
-10.9012789
20
6.1375089
10
-10.8479106
20
6.076206
10
-10.7963283
20
6.0192241
10
-10.7466786
20
5.9664696
10
-10.6991047
20
5.9178449
10
-10.6537471
20
5.8732485
10
-10.6107428
20
5.832575
10
-10.5702258
20
5.7957151
10
-10.5323266
20
5.7625561
10
-10.4971722
20
5.7329815
10
-10.464886
20
5.7068712
10
-10.435588
20
5.6841018
10
-10.4093943
20
5.6645467
10
-10.3864171
20
5.6480758
10
-10.3667649
20
5.6345562
10
-10.3505421
20
5.6238516
10
-10.3378491
20
5.6158232
10
-10.3287823
20
5.6103291
10
-10.3234336
20
5.6072248
10
-9.580756
20
5.2038137
10
-10.2452598
20
3.7289696
10
-11.0394659
20
4.0180148
10
-11.0453347
20
4.0199647
10
-11.055457
20
4.0231164
10
-11.0698799
20
4.0273053
10
-11.0886459
20
4.0323652
10
-11.1117926
20
4.038129
10
-11.1393527
20
4.0444282
10
-11.1713541
20
4.0510934
10
-11.2078198
20
4.0579544
10
-11.2487676
20
4.0648403
10
-11.2942108
20
4.0715795
10
-11.3441572
20
4.0780002
10
-11.39861
20
4.0839298
10
-11.4575674
20
4.089196
10
-11.5210223
20
4.093626
10
-11.5889629
20
4.0970474
10
-11.6613723
20
4.0992877
10
-11.7382286
20
4.1001749
10
-11.8195047
20
4.0995373
10
-11.9051689
20
4.0972038
10
-11.9951843
20
4.0930041
10
-12.0895091
20
4.0867687
10
-12.1880964
20
4.0783288
10
-12.2908947
20
4.0675171
10
-12.3978473
20
4.0541672
10
-12.5088929
20
4.0381141
10
-12.6239651
20
4.0191943
10
-12.7429929
20
3.9972459
10
-12.8659005
20
3.9721087
10
-12.9926074
20
3.9436242
10
-13.1230284
20
3.911636
10
-13.2570735
20
3.8759898
10
-13.3254258
20
3.8567473
10
-13.3426503
20
3.8517856
10
-13.3437287
20
3.8514735
10
-13.3439983
20
3.8513954
10
-13.3442369
20
3.8513084
10
-13.5643753
20
2.9847877
10
-13.5642071
20
2.9845974
10
-13.5640075
20
2.9844001
10
-13.5632089
20
2.9836111
10
-13.5504411
20
2.9710299
10
-13.4995612
20
2.9214966
10
-13.3987834
20
2.826194
10
-13.2994445
20
2.7358356
10
-13.2016969
20
2.6503288
10
-13.1056903
20
2.5695767
10
-13.0115711
20
2.4934786
10
-12.9194823
20
2.4219298
10
-12.8295636
20
2.354822
10
-12.7419514
20
2.2920432
10
-12.6567783
20
2.2334776
10
-12.5741735
20
2.1790062
10
-12.4942623
20
2.1285063
10
-12.4171662
20
2.0818522
10
-12.343003
20
2.0389148
10
-12.2718864
20
1.999562
10
-12.203926
20
1.9636587
10
-12.1392273
20
1.9310669
10
-12.0778919
20
1.9016459
10
-12.0200168
20
1.8752522
10
-11.9656948
20
1.8517399
10
-11.9150145
20
1.8309606
10
-11.8680598
20
1.8127636
10
-11.8249104
20
1.7969961
10
-11.7856411
20
1.7835029
10
-11.7503224
20
1.7721272
10
-11.7190201
20
1.7627102
10
-11.6917952
20
1.7550913
10
-11.6687042
20
1.7491084
10
-11.6497986
20
1.744598
10
-11.6351252
20
1.741395
10
-11.624726
20
1.7393333
10
-11.6186382
20
1.7382455
10
-10.7827748
20
1.6131738
10
-10.9027778
20
0
10
-11.7479467
20
-0.0000208
10
-11.7541284
20
-0.0001958
10
-11.7647182
20
-0.0006962
10
-11.779704
20
-0.0016929
10
-11.7990689
20
-0.0033564
10
-11.822791
20
-0.0058569
10
-11.8508435
20
-0.0093637
10
-11.8831946
20
-0.0140456
10
-11.9198077
20
-0.0200703
10
-11.9606412
20
-0.0276047
10
-12.0056487
20
-0.0368143
10
-12.054779
20
-0.0478636
10
-12.107976
20
-0.0609155
10
-12.1651789
20
-0.0761315
10
-12.2263222
20
-0.0936715
10
-12.2913357
20
-0.1136936
10
-12.3601445
20
-0.1363538
10
-12.4326691
20
-0.1618065
10
-12.5088257
20
-0.1902038
10
-12.5885256
20
-0.2216954
10
-12.671676
20
-0.2564289
10
-12.7581797
20
-0.2945493
10
-12.8479349
20
-0.336199
10
-12.9408358
20
-0.3815177
10
-13.0367725
20
-0.4306425
10
-13.1356307
20
-0.4837073
10
-13.2372923
20
-0.5408431
10
-13.341635
20
-0.6021778
10
-13.448533
20
-0.6678359
10
-13.5578562
20
-0.7379389
10
-13.6694712
20
-0.8126045
10
-13.7832407
20
-0.8919472
10
-13.8408895
20
-0.9334071
10
-13.8553783
20
-0.9439606
10
-13.8562849
20
-0.9446228
10
-13.8565115
20
-0.9447883
10
-13.856706
20
-0.9449517
10
-13.7672009
20
-1.8345066
10
-13.7669778
20
-1.834628
10
-13.7667227
20
-1.8347451
10
-13.7657024
20
-1.8352133
10
-13.7494016
20
-1.8426689
10
-13.6846487
20
-1.871813
10
-13.5573532
20
-1.9269002
10
-13.4331007
20
-1.9778333
10
-13.312003
20
-2.0247518
10
-13.1941675
20
-2.0677978
10
-13.0796972
20
-2.107116
10
-12.9686909
20
-2.1428536
10
-12.8612428
20
-2.1751603
10
-12.7574426
20
-2.204188
10
-12.6573755
20
-2.2300907
10
-12.5611221
20
-2.2530246
10
-12.4687581
20
-2.2731477
10
-12.3803549
20
-2.2906198
10
-12.2959788
20
-2.3056025
10
-12.2156916
20
-2.3182587
10
-12.13955
20
-2.3287529
10
-12.0676061
20
-2.337251
10
-11.9999071
20
-2.3439197
10
-11.9364951
20
-2.3489272
10
-11.8774075
20
-2.3524424
10
-11.8226766
20
-2.3546348
10
-11.7723299
20
-2.3556749
10
-11.7263899
20
-2.3557336
10
-11.6848739
20
-2.3549821
10
-11.6477944
20
-2.3535921
10
-11.6151591
20
-2.3517352
10
-11.5869702
20
-2.3495831
10
-11.5632255
20
-2.3473076
10
-11.5439174
20
-2.3450799
10
-11.5290334
20
-2.3430712
10
-11.5185563
20
-2.3414518
10
-11.5124636
20
-2.3403918
10
-10.6842319
20
-2.1720387
10
-10.2452598
20
-3.7289696
10
-11.0394517
20
-4.018054
10
-11.0452008
20
-4.0203327
10
-11.0549808
20
-4.0244248
10
-11.0687219
20
-4.0304868
10
-11.08635
20
-4.0386732
10
-11.1077862
20
-4.0491363
10
-11.1329476
20
-4.0620262
10
-11.1617464
20
-4.0774905
10
-11.1940909
20
-4.0956743
10
-11.2298849
20
-4.1167202
10
-11.2690283
20
-4.1407679
10
-11.3114166
20
-4.1679543
10
-11.3569414
20
-4.1984136
10
-11.4054903
20
-4.2322765
10
-11.4569472
20
-4.2696709
10
-11.511192
20
-4.3107214
10
-11.5681008
20
-4.3555491
10
-11.6275464
20
-4.4042717
10
-11.6893977
20
-4.4570035
10
-11.7535203
20
-4.5138549
10
-11.8197766
20
-4.5749328
10
-11.8880255
20
-4.6403402
10
-11.9581228
20
-4.7101762
10
-12.0299212
20
-4.7845359
10
-12.1032705
20
-4.8635104
10
-12.1780176
20
-4.9471864
10
-12.2540066
20
-5.0356468
10
-12.3310791
20
-5.1289699
10
-12.4090739
20
-5.2272297
10
-12.4878275
20
-5.3304957
10
-12.5671741
20
-5.438833
10
-12.6469457
20
-5.5523021
10
-12.6869378
20
-5.6109787
10
-12.6969432
20
-5.6258513
10
-12.6975686
20
-5.6267836
10
-12.697725
20
-5.6270167
10
-12.6978518
20
-5.6272367
10
-12.3094989
20
-6.4325323
10
-12.3092477
20
-6.4325701
10
-12.3089679
20
-6.4325929
10
-12.307849
20
-6.4326839
10
-12.2899813
20
-6.4341147
10
-12.2191657
20
-6.4393544
10
-12.0807061
20
-6.4475818
10
-11.9465268
20
-6.4529464
10
-11.8166851
20
-6.4556175
10
-11.6912333
20
-6.4557654
10
-11.5702188
20
-6.4535613
10
-11.4536841
20
-6.4491773
10
-11.3416663
20
-6.4427862
10
-11.234198
20
-6.4345615
10
-11.1313064
20
-6.4246772
10
-11.0330139
20
-6.4133074
10
-10.9393377
20
-6.4006266
10
-10.85029
20
-6.3868093
10
-10.7658781
20
-6.3720301
10
-10.686104
20
-6.3564632
10
-10.6109651
20
-6.3402826
10
-10.5404535
20
-6.3236619
10
-10.4745564
20
-6.306774
10
-10.4132559
20
-6.2897914
10
-10.3565295
20
-6.2728853
10
-10.3043495
20
-6.2562265
10
-10.2566833
20
-6.2399843
10
-10.2134937
20
-6.224327
10
-10.1747384
20
-6.2094216
10
-10.1403706
20
-6.1954334
10
-10.1103385
20
-6.1825265
10
-10.0845857
20
-6.1708631
10
-10.0630512
20
-6.1606037
10
-10.0456694
20
-6.1519066
10
-10.0323701
20
-6.1449284
10
-10.0230786
20
-6.1398233
10
-10.0177159
20
-6.1367433
10
-9.2970129
20
-5.6952712
10
-8.3520123
20
-7.0081705
10
-8.9994359
20
-7.5514505
10
-9.0040589
20
-7.5555581
10
-9.0118495
20
-7.5627484
10
-9.0226886
20
-7.5731446
10
-9.0364537
20
-7.5868664
10
-9.0530186
20
-7.6040302
10
-9.0722539
20
-7.6247484
10
-9.0940268
20
-7.6491298
10
-9.1182015
20
-7.6772795
10
-9.1446388
20
-7.7092984
10
-9.1731967
20
-7.7452837
10
-9.2037303
20
-7.7853282
10
-9.236092
20
-7.829521
10
-9.2701313
20
-7.8779464
10
-9.3056953
20
-7.930685
10
-9.3426286
20
-7.9878126
10
-9.3807735
20
-8.0494008
10
-9.4199699
20
-8.1155167
10
-9.4600558
20
-8.1862227
10
-9.500867
20
-8.2615768
10
-9.5422377
20
-8.3416323
10
-9.584
20
-8.4264376
10
-9.6259846
20
-8.5160367
10
-9.6680205
20
-8.6104685
10
-9.7099354
20
-8.7097671
10
-9.7515558
20
-8.8139619
10
-9.7927069
20
-8.9230773
10
-9.833213
20
-9.0371326
10
-9.8728973
20
-9.1561424
10
-9.9115824
20
-9.280116
10
-9.9490903
20
-9.4090579
10
-9.9852424
20
-9.5429675
10
-10.002754
20
-9.6117836
10
-10.0070694
20
-9.6291813
10
-10.0073382
20
-9.6302712
10
-10.0074054
20
-9.6305438
10
-10.0074494
20
-9.6307939
10
-9.3670896
20
-10.2546997
10
-9.3668407
20
-10.2546493
10
-9.36657
20
-10.254575
10
-9.3654875
20
-10.2542779
10
-9.3482079
20
-10.2495112
10
-9.2798709
20
-10.2302146
10
-9.1469475
20
-10.1905898
10
-9.0190254
20
-10.1497389
10
-8.8961005
20
-10.1078405
10
-8.7781639
20
-10.0650724
10
-8.6652013
20
-10.0216118
10
-8.5571939
20
-9.977635
10
-8.4541175
20
-9.933317
10
-8.3559433
20
-9.888832
10
-8.2626375
20
-9.8443528
10
-8.1741615
20
-9.8000506
10
-8.0904717
20
-9.7560954
10
-8.01152
20
-9.7126553
10
-7.9372535
20
-9.6698968
10
-7.8676147
20
-9.6279844
10
-7.8025413
20
-9.5870806
10
-7.7419667
20
-9.5473458
10
-7.6858196
20
-9.5089383
10
-7.6340244
20
-9.4720138
10
-7.5865012
20
-9.4367258
10
-7.5431657
20
-9.403225
10
-7.5039293
20
-9.3716595
10
-7.4686994
20
-9.3421747
10
-7.4373794
20
-9.3149131
10
-7.4098684
20
-9.2900141
10
-7.3860618
20
-9.267614
10
-7.3658513
20
-9.247846
10
-7.3491244
20
-9.23084
10
-7.3357654
20
-9.2167225
10
-7.3256549
20
-9.2056165
10
-7.3186698
20
-9.1976414
10
-7.3146839
20
-9.1929131
10
-6.7884369
20
-8.53157
10
-5.4513889
20
-9.4420825
10
-5.8739553
20
-10.1740307
10
-5.8768946
20
-10.1794717
10
-5.8817562
20
-10.1888929
10
-5.8883859
20
-10.2023693
10
-5.8966277
20
-10.2199716
10
-5.9063233
20
-10.2417658
10
-5.9173125
20
-10.2678133
10
-5.9294334
20
-10.2981712
10
-5.9425224
20
-10.3328914
10
-5.9564142
20
-10.3720215
10
-5.9709422
20
-10.4156039
10
-5.9859384
20
-10.4636767
10
-6.0012336
20
-10.5162726
10
-6.0166576
20
-10.5734198
10
-6.0320392
20
-10.6351414
10
-6.0472063
20
-10.7014557
10
-6.0619864
20
-10.772376
10
-6.076206
20
-10.8479106
10
-6.0896915
20
-10.9280627
10
-6.102269
20
-11.0128307
10
-6.1137641
20
-11.1022078
10
-6.1240027
20
-11.1961823
10
-6.1328106
20
-11.2947375
10
-6.1400139
20
-11.3978514
10
-6.1454389
20
-11.5054974
10
-6.1489126
20
-11.6176435
10
-6.1502623
20
-11.7342529
10
-6.1493163
20
-11.8552837
10
-6.1459036
20
-11.9806892
10
-6.1398543
20
-12.1104174
10
-6.1309994
20
-12.2444116
10
-6.1191715
20
-12.3826102
10
-6.1120906
20
-12.4532655
10
-6.1101953
20
-12.4710899
10
-6.1100751
20
-12.4722061
10
-6.1100451
20
-12.4724852
10
-6.1100008
20
-12.4727353
10
-5.2948711
20
-12.839999
10
-5.2946545
20
-12.8398665
10
-5.2944255
20
-12.8397041
10
-5.2935099
20
-12.8390546
10
-5.2789027
20
-12.8286655
10
-5.2212867
20
-12.7871599
10
-5.1099321
20
-12.7044624
10
-5.0036964
20
-12.6223231
10
-4.902515
20
-12.5409087
10
-4.8063183
20
-12.4603831
10
-4.7150326
20
-12.3809081
10
-4.6285798
20
-12.3026426
10
-4.5468773
20
-12.2257432
10
-4.4698385
20
-12.1503634
10
-4.3973726
20
-12.0766541
10
-4.3293845
20
-12.0047631
10
-4.2657754
20
-11.9348351
10
-4.2064425
20
-11.8670117
10
-4.1512791
20
-11.8014312
10
-4.1001749
20
-11.7382286
10
-4.0530158
20
-11.6775351
10
-4.0096844
20
-11.6194789
10
-3.9700595
20
-11.5641842
10
-3.9340169
20
-11.5117716
10
-3.9014289
20
-11.4623578
10
-3.8721648
20
-11.4160557
10
-3.8460906
20
-11.3729742
10
-3.8230698
20
-11.3332183
10
-3.8029626
20
-11.2968887
10
-3.7856267
20
-11.2640819
10
-3.7709171
20
-11.2348904
10
-3.7586865
20
-11.2094021
10
-3.7487848
20
-11.1877008
10
-3.7410599
20
-11.1698657
10
-3.7353576
20
-11.1559714
10
-3.7315214
20
-11.1460883
10
-3.729393
20
-11.1402818
10
-3.4610753
20
-10.3388356
10
-1.8932475
20
-10.7371401
10
-2.039989
20
-11.5694726
10
-2.0408901
20
-11.5755908
10
-2.0422362
20
-11.5861066
10
-2.043857
20
-11.6010378
10
-2.0455814
20
-11.6203973
10
-2.0472382
20
-11.6441932
10
-2.0486559
20
-11.6724285
10
-2.0496629
20
-11.7051012
10
-2.0500874
20
-11.7422042
10
-2.0497582
20
-11.7837257
10
-2.048504
20
-11.8296487
10
-2.046154
20
-11.8799513
10
-2.0425379
20
-11.9346065
10
-2.0374862
20
-11.9935826
10
-2.0308301
20
-12.0568428
10
-2.0224017
20
-12.1243454
10
-2.0120343
20
-12.1960437
10
-1.999562
20
-12.2718864
10
-1.9848206
20
-12.3518171
10
-1.9676472
20
-12.4357746
10
-1.9478803
20
-12.5236932
10
-1.9253602
20
-12.6155022
10
-1.8999291
20
-12.7111262
10
-1.8714309
20
-12.8104853
10
-1.8397117
20
-12.9134949
10
-1.8046197
20
-13.0200658
10
-1.7660052
20
-13.1301045
10
-1.7237213
20
-13.2435127
10
-1.6776232
20
-13.360188
10
-1.6275691
20
-13.4800237
10
-1.5734195
20
-13.6029085
10
-1.5150382
20
-13.7287273
10
-1.4842187
20
-13.7926998
10
-1.4763414
20
-13.808801
10
-1.4758468
20
-13.8098088
10
-1.4757231
20
-13.8100608
10
-1.475596
20
-13.8102806
10
-0.584013
20
-13.8766049
10
-0.5838548
20
-13.8764063
10
-0.5836951
20
-13.8761754
10
-0.5830568
20
-13.8752519
10
-0.5728839
20
-13.8604934
10
-0.5329383
20
-13.8017851
10
-0.4565834
20
-13.6859892
10
-0.3848479
20
-13.5724689
10
-0.3176137
20
-13.4613582
10
-0.2547598
20
-13.3527878
10
-0.1961614
20
-13.2468841
10
-0.1416907
20
-13.14377
10
-0.0912166
20
-13.0435643
10
-0.0446053
20
-12.9463816
10
-0.0017196
20
-12.8523328
10
0.0375801
20
-12.761524
10
0.0734364
20
-12.6740576
10
0.1059941
20
-12.5900314
10
0.1354009
20
-12.5095389
10
0.1618065
20
-12.4326691
10
0.1853632
20
-12.3595067
10
0.2062251
20
-12.2901314
10
0.2245483
20
-12.2246189
10
0.2404911
20
-12.1630398
10
0.2542133
20
-12.1054603
10
0.2658764
20
-12.0519417
10
0.2756433
20
-12.0025405
10
0.2836785
20
-11.9573085
10
0.2901476
20
-11.9162927
10
0.2952174
20
-11.8795352
10
0.2990558
20
-11.8470732
10
0.3018314
20
-11.818939
10
0.3037137
20
-11.7951598
10
0.3048727
20
-11.7757582
10
0.305479
20
-11.7607516
10
0.3057036
20
-11.7501524
10
0.3057177
20
-11.7439681
10
0.2837431
20
-10.899085
10
1.8932475
20
-10.7371401
10
2.04003
20
-11.5694653
10
2.0412758
20
-11.5755228
10
2.0436075
20
-11.5858648
10
2.0471913
20
-11.6004498
10
2.0521922
20
-11.6192316
10
2.058774
20
-11.6421592
10
2.0670988
20
-11.6691765
10
2.0773273
20
-11.7002232
10
2.0896183
20
-11.7352338
10
2.1041289
20
-11.7741387
10
2.1210141
20
-11.8168632
10
2.1404269
20
-11.8633284
10
2.162518
20
-11.9134508
10
2.1874361
20
-11.9671424
10
2.215327
20
-12.024311
10
2.2463343
20
-12.08486
10
2.2805989
20
-12.1486885
10
2.3182587
20
-12.2156916
10
2.359449
20
-12.28576
10
2.4043019
20
-12.3587806
10
2.4529466
20
-12.4346364
10
2.505509
20
-12.5132063
10
2.5621118
20
-12.5943655
10
2.6228742
20
-12.6779856
10
2.6879118
20
-12.7639343
10
2.757337
20
-12.852076
10
2.8312581
20
-12.9422716
10
2.9097799
20
-13.0343786
10
2.9930032
20
-13.1282511
10
3.081025
20
-13.2237402
10
3.173938
20
-13.3206939
10
3.2718311
20
-13.4189573
10
3.3226717
20
-13.4685309
10
3.335581
20
-13.480967
10
3.3363904
20
-13.4817448
10
3.3365929
20
-13.4819392
10
3.3367875
20
-13.4821023
10
4.1972856
20
-13.2394874
10
4.1973664
20
-13.2392466
10
4.1974375
20
-13.2389751
10
4.1977214
20
-13.237889
10
4.2022332
20
-13.2205412
10
4.2196903
20
-13.1517112
10
4.2518359
20
-13.0167838
10
4.2804191
20
-12.8855746
10
4.3055964
20
-12.7581693
10
4.3275265
20
-12.6346491
10
4.3463698
20
-12.5150904
10
4.3622884
20
-12.3995647
10
4.3754461
20
-12.288139
10
4.3860081
20
-12.1808752
10
4.3941408
20
-12.0778304
10
4.4000121
20
-11.9790568
10
4.4037906
20
-11.8846017
10
4.4056462
20
-11.7945075
10
4.4057495
20
-11.7088116
10
4.4042717
20
-11.6275464
10
4.4013847
20
-11.5507392
10
4.3972607
20
-11.4784127
10
4.3920723
20
-11.4105841
10
4.3859924
20
-11.347266
10
4.3791936
20
-11.2884657
10
4.3718489
20
-11.2341856
10
4.3641306
20
-11.1844231
10
4.3562109
20
-11.1391708
10
4.3482617
20
-11.098416
10
4.340454
20
-11.0621413
10
4.3329582
20
-11.0303242
10
4.3259439
20
-11.0029373
10
4.3195797
20
-10.9799484
10
4.3140331
20
-10.9613205
10
4.3094703
20
-10.9470115
10
4.3060562
20
-10.9369747
10
4.3039543
20
-10.9311586
10
3.9943379
20
-10.1447439
10
5.4513889
20
-9.4420825
10
5.8739914
20
-10.1740098
10
5.8772338
20
-10.1792759
10
5.882962
20
-10.1881967
10
5.8913181
20
-10.2006765
10
5.9024412
20
-10.2166152
10
5.9164677
20
-10.2359089
10
5.9335309
20
-10.2584496
10
5.9537612
20
-10.2841256
10
5.9772853
20
-10.3128211
10
6.004227
20
-10.3444168
10
6.0347065
20
-10.3787896
10
6.0688406
20
-10.4158131
10
6.1067424
20
-10.4553571
10
6.1485213
20
-10.4972882
10
6.194283
20
-10.5414699
10
6.2441294
20
-10.5877622
10
6.2981581
20
-10.6360222
10
6.3564632
20
-10.686104
10
6.4191342
20
-10.7378589
10
6.4862567
20
-10.7911353
10
6.557912
20
-10.8457789
10
6.634177
20
-10.9016331
10
6.7151243
20
-10.9585385
10
6.800822
20
-11.0163337
10
6.8913336
20
-11.0748549
10
6.9867181
20
-11.1339362
10
7.08703
20
-11.1934098
10
7.1923187
20
-11.253106
10
7.3026294
20
-11.3128532
10
7.418002
20
-11.3724785
10
7.5384718
20
-11.4318071
10
7.6640692
20
-11.490663
10
7.728799
20
-11.5198584
10
7.7451831
20
-11.5271293
10
7.7462097
20
-11.5275833
10
7.7464665
20
-11.5276968
10
7.7467052
20
-11.5277835
10
8.4723297
20
-11.0054924
10
8.4723233
20
-11.0052385
10
8.4722972
20
-11.004959
10
8.4721925
20
-11.0038413
10
8.4704989
20
-10.9859966
10
8.463362
20
-10.9153469
10
8.4474211
20
-10.7775622
10
8.4294043
20
-10.6444898
10
8.409488
20
-10.5161569
10
8.3878492
20
-10.3925853
10
8.3646646
20
-10.2737921
10
8.3401111
20
-10.159789
10
8.3143655
20
-10.0505829
10
8.2876041
20
-9.9461754
10
8.260003
20
-9.8465634
10
8.2317376
20
-9.7517385
10
8.2029827
20
-9.6616874
10
8.1739124
20
-9.5763919
10
8.1446997
20
-9.4958288
10
8.1155167
20
-9.4199699
10
8.0865342
20
-9.3487822
10
8.0579218
20
-9.282228
10
8.0298476
20
-9.2202645
10
8.0024782
20
-9.1628444
10
7.9759786
20
-9.1099154
10
7.9505119
20
-9.0614209
10
7.9262393
20
-9.0172993
10
7.9033201
20
-8.9774847
10
7.8819113
20
-8.9419065
10
7.8621677
20
-8.9104898
10
7.8442419
20
-8.8831552
10
7.8282838
20
-8.859819
10
7.8144407
20
-8.8403933
10
7.8028575
20
-8.8247858
10
7.7936759
20
-8.8129003
10
7.7870349
20
-8.8046364
10
7.7830705
20
-8.79989
10
7.2231566
20
-8.1667969
10
8.3520123
20
-7.0081705
10
8.9994626
20
-7.5514186
10
9.0043107
20
-7.5552581
10
9.0127445
20
-7.5616818
10
9.0248649
20
-7.5705509
10
9.0407686
20
-7.5817241
10
9.060548
20
-7.5950569
10
9.0842917
20
-7.6104023
10
9.1120835
20
-7.6276107
10
9.1440034
20
-7.6465299
10
9.1801267
20
-7.6670055
10
9.2205243
20
-7.6888808
10
9.2652626
20
-7.7119969
10
9.3144035
20
-7.736193
10
9.3680041
20
-7.7613061
10
9.4261171
20
-7.7871719
10
9.4887902
20
-7.813624
10
9.5560666
20
-7.8404946
10
9.6279844
20
-7.8676147
10
9.704577
20
-7.8948136
10
9.7858732
20
-7.9219198
10
9.8718963
20
-7.9487604
10
9.9626652
20
-7.975162
10
10.0581936
20
-8.00095
10
10.1584902
20
-8.0259494
10
10.2635588
20
-8.0499845
10
10.3733979
20
-8.0728794
10
10.4880014
20
-8.0944576
10
10.6073578
20
-8.1145428
10
10.7314506
20
-8.1329584
10
10.8602584
20
-8.149528
10
10.9937546
20
-8.1640755
10
11.1319075
20
-8.1764252
10
11.202719
20
-8.181721
10
11.2206018
20
-8.1829497
10
11.2217218
20
-8.1830252
10
11.2220019
20
-8.1830441
10
11.2222559
20
-8.1830439
10
11.7254858
20
-7.4440726
10
11.7253929
20
-7.4438362
10
11.7252728
20
-7.4435825
10
11.7247922
20
-7.442568
10
11.7170974
20
-7.4263787
10
11.6862273
20
-7.3624307
10
11.6241226
20
-7.2384075
10
11.5616789
20
-7.1195225
10
11.4990713
20
-7.0057407
10
11.4364735
20
-6.8970223
10
11.3740574
20
-6.7933228
10
11.3119934
20
-6.6945927
10
11.2504497
20
-6.6007781
10
11.1895928
20
-6.5118201
10
11.1295869
20
-6.4276556
10
11.0705941
20
-6.3482166
10
11.012774
20
-6.2734311
10
10.9562841
20
-6.2032221
10
10.9012789
20
-6.1375089
10
10.8479106
20
-6.076206
10
10.7963283
20
-6.0192241
10
10.7466786
20
-5.9664696
10
10.6991047
20
-5.9178449
10
10.6537471
20
-5.8732485
10
10.6107428
20
-5.832575
10
10.5702258
20
-5.7957151
10
10.5323266
20
-5.7625561
10
10.4971722
20
-5.7329815
10
10.464886
20
-5.7068712
10
10.435588
20
-5.6841018
10
10.4093943
20
-5.6645467
10
10.3864171
20
-5.6480758
10
10.3667649
20
-5.6345562
10
10.3505421
20
-5.6238516
10
10.3378491
20
-5.6158232
10
10.3287823
20
-5.6103291
10
10.3234336
20
-5.6072248
10
9.580756
20
-5.2038137
10
10.2452598
20
-3.7289696
10
11.0394659
20
-4.0180148
10
11.0453347
20
-4.0199647
10
11.055457
20
-4.0231164
10
11.0698799
20
-4.0273053
10
11.0886459
20
-4.0323652
10
11.1117926
20
-4.038129
10
11.1393527
20
-4.0444282
10
11.1713541
20
-4.0510934
10
11.2078198
20
-4.0579544
10
11.2487676
20
-4.0648403
10
11.2942108
20
-4.0715795
10
11.3441572
20
-4.0780002
10
11.39861
20
-4.0839298
10
11.4575674
20
-4.089196
10
11.5210223
20
-4.093626
10
11.5889629
20
-4.0970474
10
11.6613723
20
-4.0992877
10
11.7382286
20
-4.1001749
10
11.8195047
20
-4.0995373
10
11.9051689
20
-4.0972038
10
11.9951843
20
-4.0930041
10
12.0895091
20
-4.0867687
10
12.1880964
20
-4.0783288
10
12.2908947
20
-4.0675171
10
12.3978473
20
-4.0541672
10
12.5088929
20
-4.0381141
10
12.6239651
20
-4.0191943
10
12.7429929
20
-3.9972459
10
12.8659005
20
-3.9721087
10
12.9926074
20
-3.9436242
10
13.1230284
20
-3.911636
10
13.2570735
20
-3.8759898
10
13.3254258
20
-3.8567473
10
13.3426503
20
-3.8517856
10
13.3437287
20
-3.8514735
10
13.3439983
20
-3.8513954
10
13.3442369
20
-3.8513084
10
13.5643753
20
-2.9847877
10
13.5642071
20
-2.9845974
10
13.5640075
20
-2.9844001
10
13.5632089
20
-2.9836111
10
13.5504411
20
-2.9710299
10
13.4995612
20
-2.9214966
10
13.3987834
20
-2.826194
10
13.2994445
20
-2.7358356
10
13.2016969
20
-2.6503288
10
13.1056903
20
-2.5695767
10
13.0115711
20
-2.4934786
10
12.9194823
20
-2.4219298
10
12.8295636
20
-2.354822
10
12.7419514
20
-2.2920432
10
12.6567783
20
-2.2334776
10
12.5741735
20
-2.1790062
10
12.4942623
20
-2.1285063
10
12.4171662
20
-2.0818522
10
12.343003
20
-2.0389148
10
12.2718864
20
-1.999562
10
12.203926
20
-1.9636587
10
12.1392273
20
-1.9310669
10
12.0778919
20
-1.9016459
10
12.0200168
20
-1.8752522
10
11.9656948
20
-1.8517399
10
11.9150145
20
-1.8309606
10
11.8680598
20
-1.8127636
10
11.8249104
20
-1.7969961
10
11.7856411
20
-1.7835029
10
11.7503224
20
-1.7721272
10
11.7190201
20
-1.7627102
10
11.6917952
20
-1.7550913
10
11.6687042
20
-1.7491084
10
11.6497986
20
-1.744598
10
11.6351252
20
-1.741395
10
11.624726
20
-1.7393333
10
11.6186382
20
-1.7382455
10
10.7827748
20
-1.6131738
8
gear
0
LWPOLYLINE
5
1004
100
AcDbEntity
100
AcDbPolyline
90
5
70
0
43
0
10
10.3356647
20
2.3649379
10
10.3289319
20
2.3941726
10
10.3221164
20
2.4233882
10
10.3152182
20
2.4525843
10
10.3082375
20
2.4817608
8
gear_texts
0
LWPOLYLINE
5
1005
100
AcDbEntity
100
AcDbPolyline
90
2
70
0
43
0
10
10.2637046
20
2.4096745
10
10.3805281
20
2.4371019
8
gear_texts
0
LWPOLYLINE
5
1006
100
AcDbEntity
100
AcDbPolyline
90
5
70
0
43
0
10
10.3941532
20
2.3783209
10
10.3581571
20
2.4009468
10
10.3221164
20
2.4233882
10
10.2860318
20
2.4456449
10
10.2499042
20
2.4677168
8
gear_texts
0
LWPOLYLINE
5
1007
100
AcDbEntity
100
AcDbPolyline
90
5
70
0
43
0
10
10.2771763
20
2.351555
10
10.2997067
20
2.3873985
10
10.3221164
20
2.4233882
10
10.3444046
20
2.4595238
10
10.3665707
20
2.4958049
8
gear_texts
0
LWPOLYLINE
5
1008
100
AcDbEntity
100
AcDbPolyline
90
9
70
0
43
0
10
10.3094147
20
2.2059309
10
10.2738138
20
2.2287319
10
10.2674666
20
2.2577921
10
10.2903189
20
2.2933602
10
10.4074453
20
2.3194637
10
10.4432664
20
2.2964501
10
10.4497223
20
2.2668923
10
10.4267586
20
2.2310392
10
10.3094147
20
2.2059309
8
gear_texts
0
LWPOLYLINE
5
1009
100
AcDbEntity
100
AcDbPolyline
90
7
70
0
43
0
10
10.5206533
20
1.9108507
10
10.3435508
20
1.8786838
10
10.3824465
20
1.9161097
10
10.4212128
20
1.9537707
10
10.4598488
20
1.9916664
10
10.4983534
20
2.0297963
10
10.3216263
20
1.9956271
8
gear_texts
0
LWPOLYLINE
5
1010
100
AcDbEntity
100
AcDbPolyline
90
5
70
0
43
0
10
10.492368
20
1.7222595
10
10.4874529
20
1.7519402
10
10.4824539
20
1.7816068
10
10.477371
20
1.8112592
10
10.4722042
20
1.8408971
8
gear_texts
0
LWPOLYLINE
5
1011
100
AcDbEntity
100
AcDbPolyline
90
5
70
0
43
0
10
10.4331603
20
1.7125409
10
10.428273
20
1.7420541
10
10.4233022
20
1.7715533
10
10.418248
20
1.8010384
10
10.4131103
20
1.830509
8
gear_texts
0
LWPOLYLINE
5
1012
100
AcDbEntity
100
AcDbPolyline
90
3
70
0
43
0
10
10.5315769
20
1.6675487
10
10.565897
20
1.6423514
10
10.3880328
20
1.6147044
8
gear_texts
0
LWPOLYLINE
5
1013
100
AcDbEntity
100
AcDbPolyline
90
3
70
0
43
0
10
10.39256
20
1.5853056
10
10.3880328
20
1.6147044
10
10.3834225
20
1.6440903
8
gear_texts
0
LWPOLYLINE
5
1014
100
AcDbEntity
100
AcDbPolyline
90
19
70
0
43
0
10
10.4947248
20
1.50985
10
10.4607287
20
1.5351822
10
10.4310467
20
1.5308261
10
10.405642
20
1.4970339
10
10.4098362
20
1.4675857
10
10.4139469
20
1.4381258
10
10.4477038
20
1.4126742
10
10.4774333
20
1.4166941
10
10.5031008
20
1.4504376
10
10.4989549
20
1.4801498
10
10.4947248
20
1.50985
10
10.5200929
20
1.5438943
10
10.5497749
20
1.5482503
10
10.5838076
20
1.5226662
10
10.5880736
20
1.4927138
10
10.5922547
20
1.4627495
10
10.5666217
20
1.4287536
10
10.5368922
20
1.4247337
10
10.5031008
20
1.4504376
8
gear_texts
0
LWPOLYLINE
5
1015
100
AcDbEntity
100
AcDbPolyline
90
11
70
0
43
0
10
10.5332389
20
1.2123426
10
10.536627
20
1.1825346
10
10.5399307
20
1.152717
10
10.5431501
20
1.1228903
10
10.5761252
20
1.0961473
10
10.6059654
20
1.09924
10
10.632644
20
1.1324218
10
10.6293973
20
1.1625017
10
10.6260655
20
1.1925723
10
10.6226486
20
1.2226334
10
10.4438292
20
1.2020518
8
gear_texts
0
LWPOLYLINE
5
1016
100
AcDbEntity
100
AcDbPolyline
90
2
70
0
43
0
10
10.4627301
20
1.0245856
10
10.5821588
20
1.0362809
8
gear_texts
0
LWPOLYLINE
5
1017
100
AcDbEntity
100
AcDbPolyline
90
2
70
0
43
0
10
10.612016
20
1.0392047
10
10.6418732
20
1.0421285
8
gear_texts
0
LWPOLYLINE
5
1018
100
AcDbEntity
100
AcDbPolyline
90
4
70
0
43
0
10
10.5085182
20
0.8492406
10
10.4761777
20
0.8764693
10
10.5035442
20
0.9086932
10
10.652986
20
0.9216219
8
gear_texts
0
LWPOLYLINE
5
1019
100
AcDbEntity
100
AcDbPolyline
90
5
70
0
43
0
10
10.5982257
20
0.8564902
10
10.5957599
20
0.8864739
10
10.5932092
20
0.9164504
10
10.5905738
20
0.9464196
10
10.5878536
20
0.9763813
8
gear_texts
0
LWPOLYLINE
5
1020
100
AcDbEntity
100
AcDbPolyline
90
10
70
0
43
0
10
10.4914812
20
0.6688184
10
10.4895469
20
0.6985008
10
10.4875285
20
0.7281775
10
10.4854262
20
0.7578485
10
10.5131556
20
0.7897607
10
10.572987
20
0.7942553
10
10.605114
20
0.7664991
10
10.6072403
20
0.7364895
10
10.6092817
20
0.7064739
10
10.6112381
20
0.6764527
8
gear_texts
0
LWPOLYLINE
5
1021
100
AcDbEntity
100
AcDbPolyline
90
6
70
0
43
0
10
10.5549971
20
0.6129161
10
10.5866434
20
0.5847032
10
10.6182143
20
0.5563162
10
10.6197459
20
0.5262703
10
10.5912251
20
0.4948202
10
10.5013232
20
0.49062
8
gear_texts
0
LWPOLYLINE
5
1022
100
AcDbEntity
100
AcDbPolyline
90
2
70
0
43
0
10
10.495098
20
0.6094378
10
10.6747953
20
0.6198726
8
gear_texts
0
LWPOLYLINE
5
1023
100
AcDbEntity
100
AcDbPolyline
90
10
70
0
43
0
10
10.5089802
20
0.2825468
10
10.5097375
20
0.2528111
10
10.5104108
20
0.2230734
10
10.5109999
20
0.1933339
10
10.5415012
20
0.1640597
10
10.6614867
20
0.165927
10
10.6909694
20
0.1966441
10
10.6903703
20
0.2268928
10
10.6896855
20
0.2571397
10
10.6889151
20
0.2873846
8
gear_texts
0
LWPOLYLINE
5
1024
100
AcDbEntity
100
AcDbPolyline
90
2
70
0
43
0
10
10.6896855
20
0.2571397
10
10.5097375
20
0.2528111
8
gear_texts
0
LWPOLYLINE
5
1025
100
AcDbEntity
100
AcDbPolyline
90
5
70
0
43
0
10
10.6327671
20
-0.0150424
10
10.6327671
20
0.0150424
10
10.632682
20
0.0451272
10
10.6325118
20
0.0752116
10
10.6322564
20
0.1052954
8
gear_texts
0
LWPOLYLINE
5
1026
100
AcDbEntity
100
AcDbPolyline
90
5
70
0
43
0
10
10.5727672
20
-0.0149576
10
10.5727672
20
0.0149576
10
10.5726826
20
0.0448725
10
10.5725133
20
0.0747872
10
10.5722593
20
0.1047012
8
gear_texts
0
LWPOLYLINE
5
1027
100
AcDbEntity
100
AcDbPolyline
90
15
70
0
43
0
10
10.5109999
20
-0.1933339
10
10.5115048
20
-0.1635928
10
10.5119256
20
-0.1338505
10
10.5122623
20
-0.104107
10
10.5125148
20
-0.0743628
10
10.5725133
20
-0.0747872
10
10.6022579
20
-0.1049983
10
10.6019183
20
-0.1349964
10
10.6014939
20
-0.1649933
10
10.6309796
20
-0.1955407
10
10.6609745
20
-0.1960924
10
10.691483
20
-0.1663939
10
10.691911
20
-0.1361422
10
10.6922535
20
-0.1058895
10
10.662511
20
-0.0754238
8
gear_texts
0
LWPOLYLINE
5
1028
100
AcDbEntity
100
AcDbPolyline
90
15
70
0
43
0
10
10.6860907
20
-0.3781043
10
10.6871177
20
-0.3478671
10
10.6880592
20
-0.3176271
10
10.6889151
20
-0.2873846
10
10.6896855
20
-0.2571397
10
10.6297028
20
-0.2556969
10
10.6289368
20
-0.285772
10
10.6280857
20
-0.3158448
10
10.6271495
20
-0.3459151
10
10.596147
20
-0.3749218
10
10.5361845
20
-0.3728002
10
10.507213
20
-0.3420112
10
10.5081386
20
-0.3122802
10
10.5089802
20
-0.2825468
10
10.5397289
20
-0.2535325
8
gear_texts
0
LWPOLYLINE
5
1029
100
AcDbEntity
100
AcDbPolyline
90
11
70
0
43
0
10
10.5866434
20
-0.5847032
10
10.5849467
20
-0.6146552
10
10.5831651
20
-0.6446023
10
10.5812989
20
-0.6745441
10
10.6092817
20
-0.7064739
10
10.6392154
20
-0.7084672
10
10.6711166
20
-0.6802699
10
10.6729987
20
-0.6500739
10
10.6747953
20
-0.6198726
10
10.6765065
20
-0.5896664
10
10.4967804
20
-0.5797401
8
gear_texts
0
LWPOLYLINE
5
1030
100
AcDbEntity
100
AcDbPolyline
90
5
70
0
43
0
10
10.5957599
20
-0.8864739
10
10.5982257
20
-0.8564902
10
10.6006067
20
-0.8264997
10
10.6029028
20
-0.7965026
10
10.605114
20
-0.7664991
8
gear_texts
0
LWPOLYLINE
5
1031
100
AcDbEntity
100
AcDbPolyline
90
5
70
0
43
0
10
10.5359688
20
-0.8814716
10
10.5384207
20
-0.8516571
10
10.5407882
20
-0.8218358
10
10.5430713
20
-0.792008
10
10.5452701
20
-0.7621738
8
gear_texts
0
LWPOLYLINE
5
1032
100
AcDbEntity
100
AcDbPolyline
90
9
70
0
43
0
10
10.4925873
20
-1.0275094
10
10.4655872
20
-0.9949778
10
10.4683606
20
-0.965362
10
10.500931
20
-0.9384088
10
10.6204547
20
-0.9490899
10
10.6476
20
-0.9818909
10
10.6447792
20
-1.0120138
10
10.612016
20
-1.0392047
10
10.4925873
20
-1.0275094
8
gear_texts
0
LWPOLYLINE
5
1033
100
AcDbEntity
100
AcDbPolyline
90
2
70
0
43
0
10
10.4866047
20
-1.0868691
10
10.4567646
20
-1.0837763
8
gear_texts
0
LWPOLYLINE
5
1034
100
AcDbEntity
100
AcDbPolyline
90
7
70
0
43
0
10
10.6293973
20
-1.1625017
10
10.6260655
20
-1.1925723
10
10.6226486
20
-1.2226334
10
10.6191467
20
-1.2526847
10
10.6155598
20
-1.282726
10
10.5297665
20
-1.242141
10
10.4438292
20
-1.2020518
8
gear_texts
0
LWPOLYLINE
5
1035
100
AcDbEntity
100
AcDbPolyline
90
15
70
0
43
0
10
10.4139469
20
-1.4381258
10
10.4179743
20
-1.4086544
10
10.4219183
20
-1.3791717
10
10.4257789
20
-1.3496779
10
10.429556
20
-1.3201734
10
10.489081
20
-1.3277081
10
10.5150341
20
-1.3612326
10
10.5111405
20
-1.3909788
10
10.5071627
20
-1.4207139
10
10.5328188
20
-1.4545416
10
10.5625368
20
-1.4586455
10
10.5963511
20
-1.4327734
10
10.6003627
20
-1.4027859
10
10.6042893
20
-1.3727872
10
10.5783686
20
-1.3390101
8
gear_texts
0
LWPOLYLINE
5
1036
100
AcDbEntity
100
AcDbPolyline
90
11
70
0
43
0
10
10.4723151
20
-1.6581653
10
10.4675815
20
-1.6877895
10
10.4627641
20
-1.7174002
10
10.457863
20
-1.7469971
10
10.4824539
20
-1.7816068
10
10.5120298
20
-1.7866335
10
10.5466329
20
-1.7618262
10
10.5515756
20
-1.7319781
10
10.5564339
20
-1.7021161
10
10.5612077
20
-1.6722404
10
10.3834225
20
-1.6440903
8
gear_texts
0
LWPOLYLINE
5
1037
100
AcDbEntity
100
AcDbPolyline
90
7
70
0
43
0
10
10.3540164
20
-1.820121
10
10.4131103
20
-1.830509
10
10.4669536
20
-1.8705202
10
10.5206533
20
-1.9108507
10
10.456201
20
-1.9297213
10
10.3917265
20
-1.9482426
10
10.332754
20
-1.9371865
8
gear_texts
0
LWPOLYLINE
5
1038
100
AcDbEntity
100
AcDbPolyline
90
5
70
0
43
0
10
10.4131103
20
-1.830509
10
10.4078893
20
-1.859965
10
10.402585
20
-1.8894061
10
10.3971974
20
-1.918832
10
10.3917265
20
-1.9482426
8
gear_texts
0
LWPOLYLINE
5
1039
100
AcDbEntity
100
AcDbPolyline
90
5
70
0
43
0
10
10.4159323
20
-2.1364262
10
10.4219355
20
-2.1069463
10
10.4278553
20
-2.0774496
10
10.4336916
20
-2.0479363
10
10.4394443
20
-2.0184065
8
gear_texts
0
LWPOLYLINE
5
1040
100
AcDbEntity
100
AcDbPolyline
90
5
70
0
43
0
10
10.357156
20
-2.1243705
10
10.3631253
20
-2.095057
10
10.3690117
20
-2.0657267
10
10.374815
20
-2.0363799
10
10.3805353
20
-2.0070168
8
gear_texts
0
LWPOLYLINE
5
1041
100
AcDbEntity
100
AcDbPolyline
90
15
70
0
43
0
10
10.2610372
20
-2.2868343
10
10.2674666
20
-2.2577921
10
10.2738138
20
-2.2287319
10
10.2800788
20
-2.1996538
10
10.2862614
20
-2.1705581
10
10.3449686
20
-2.1829462
10
10.3680866
20
-2.2184851
10
10.3617681
20
-2.2478121
10
10.3553665
20
-2.2771211
10
10.3781637
20
-2.3129378
10
10.4074453
20
-2.3194637
10
10.4432664
20
-2.2964501
10
10.4497223
20
-2.2668923
10
10.4560945
20
-2.2373163
10
10.4330294
20
-2.2015284
8
gear_texts
0
LWPOLYLINE
5
1042
100
AcDbEntity
100
AcDbPolyline
90
9
70
0
43
0
10
10.2568455
20
-2.4387054
10
10.2344987
20
-2.4028176
10
10.2412564
20
-2.3738501
10
10.2771763
20
-2.351555
10
10.3941532
20
-2.3783209
10
10.4166074
20
-2.4144952
10
10.409734
20
-2.4439587
10
10.3735909
20
-2.4664632
10
10.2568455
20
-2.4387054
8
gear_texts
0
LINE
5
1001
100
AcDbEntity
100
AcDbLine
10
0.1
20
0
30
0
11
-0.1
21
0
31
0
8
gear_guides
0
LINE
5
1002
100
AcDbEntity
100
AcDbLine
10
0
20
0.1
30
0
11
0
21
-0.1
31
0
8
gear_guides
0
CIRCLE
5
1003
100
AcDbEntity
100
AcDbCircle
10
12.4372017
20
1.2514046
30
0
40
0.5451389
8
gear_guides
0
CIRCLE
5
1043
100
AcDbEntity
100
AcDbCircle
10
0
20
0
30
0
40
12.5
8
gear_guides
0
CIRCLE
5
1044
100
AcDbEntity
100
AcDbCircle
10
0
20
0
30
0
40
13.8888889
8
gear_guides
0
CIRCLE
5
1045
100
AcDbEntity
100
AcDbCircle
10
0
20
0
30
0
40
11.7461578
8
gear_guides
0
ENDSEC
0
SECTION
2
OBJECTS
0
DICTIONARY
5
21D
330
0
100
AcDbDictionary
281
1
3
ACAD_CIP_PREVIOUS_PRODUCT_INFO
350
291
3
ACAD_COLOR
350
273
3
ACAD_DETAILVIEWSTYLE
350
27B
3
ACAD_GROUP
350
21E
3
ACAD_LAYOUT
350
272
3
ACAD_MATERIAL
350
221
3
ACAD_MLEADERSTYLE
350
276
3
ACAD_MLINESTYLE
350
26F
3
ACAD_PLOTSETTINGS
350
271
3
ACAD_PLOTSTYLENAME
350
21F
3
ACAD_SCALELIST
350
253
3
ACAD_SECTIONVIEWSTYLE
350
278
3
ACAD_TABLESTYLE
350
274
3
ACAD_VISUALSTYLE
350
23A
3
ACDB_RECOMPOSE_DATA
350
1057
3
AcDbVariableDictionary
350
29D
0
DICTIONARY
5
297
330
213
100
AcDbDictionary
280
1
281
1
3
ACAD_LAYERSTATES
360
298
0
DICTIONARY
5
292
330
265
100
AcDbDictionary
280
1
281
1
3
ADSK_XREC_LAYER_RECONCILED
360
293
0
XRECORD
5
291
102
{ACAD_REACTORS
330
21D
102
}
330
21D
100
AcDbXrecord
280
1
300
ACDMAC
300
2013
300
ACDMAC_F_S
0
DICTIONARY
5
273
102
{ACAD_REACTORS
330
21D
102
}
330
21D
100
AcDbDictionary
281
1
0
DICTIONARY
5
27B
102
{ACAD_REACTORS
330
21D
102
}
330
21D
100
AcDbDictionary
281
1
3
Imperial24
350
27C
0
DICTIONARY
5
21E
102
{ACAD_REACTORS
330
21D
102
}
330
21D
100
AcDbDictionary
281
1
0
DICTIONARY
5
272
102
{ACAD_REACTORS
330
21D
102
}
330
21D
100
AcDbDictionary
281
1
3
Layout1
350
280
3
Model
350
284
0
DICTIONARY
5
221
102
{ACAD_REACTORS
330
21D
102
}
330
21D
100
AcDbDictionary
281
1
3
ByBlock
350
22A
3
ByLayer
350
222
3
Global
350
232
0
DICTIONARY
5
276
102
{ACAD_REACTORS
330
21D
102
}
330
21D
100
AcDbDictionary
281
1
3
Standard
350
277
0
DICTIONARY
5
26F
102
{ACAD_REACTORS
330
21D
102
}
330
21D
100
AcDbDictionary
281
1
3
Standard
350
270
0
DICTIONARY
5
271
102
{ACAD_REACTORS
330
21D
102
}
330
21D
100
AcDbDictionary
281
1
0
ACDBDICTIONARYWDFLT
5
21F
102
{ACAD_REACTORS
330
21D
102
}
330
21D
100
AcDbDictionary
281
1
3
Normal
350
220
100
AcDbDictionaryWithDefault
340
220
0
DICTIONARY
5
253
102
{ACAD_REACTORS
330
21D
102
}
330
21D
100
AcDbDictionary
281
1
3
A0
350
254
3
A1
350
255
3
A2
350
256
3
A3
350
257
3
A4
350
258
3
A5
350
259
3
A6
350
25A
3
A7
350
25B
3
A8
350
25C
3
A9
350
25D
3
B0
350
25E
3
B1
350
25F
3
B2
350
260
3
B3
350
261
3
B4
350
262
3
B5
350
263
3
B6
350
264
0
DICTIONARY
5
278
102
{ACAD_REACTORS
330
21D
102
}
330
21D
100
AcDbDictionary
281
1
3
Imperial24
350
27A
0
DICTIONARY
5
274
102
{ACAD_REACTORS
330
21D
102
}
330
21D
100
AcDbDictionary
281
1
3
Standard
350
275
0
DICTIONARY
5
23A
102
{ACAD_REACTORS
330
21D
102
}
330
21D
100
AcDbDictionary
281
1
3
2dWireframe
350
240
3
Basic
350
23F
3
Brighten
350
246
3
ColorChange
350
24A
3
Conceptual
350
243
3
Dim
350
245
3
EdgeColorOff
350
252
3
Facepattern
350
249
3
Flat
350
23B
3
FlatWithEdges
350
23C
3
Gouraud
350
23D
3
GouraudWithEdges
350
23E
3
Hidden
350
242
3
JitterOff
350
250
3
Linepattern
350
248
3
OverhangOff
350
251
3
Realistic
350
244
3
Shaded
350
24F
3
Shaded with edges
350
24E
3
Shades of Gray
350
24B
3
Sketchy
350
24C
3
Thicken
350
247
3
Wireframe
350
241
3
X-Ray
350
24D
0
XRECORD
5
1057
102
{ACAD_REACTORS
330
21D
102
}
330
21D
100
AcDbXrecord
280
1
90
1
330
275
0
DICTIONARY
5
29D
102
{ACAD_REACTORS
330
21D
102
}
330
21D
100
AcDbDictionary
281
1
3
CANNOSCALE
350
2A3
3
CMLEADERSTYLE
350
29F
3
CTABLESTYLE
350
29E
3
CVIEWDETAILSTYLE
350
2A0
3
CVIEWSECTIONSTYLE
350
2A1
3
LAYEREVAL
350
2A5
3
LAYERNOTIFY
350
2A6
3
LIGHTINGUNITS
350
2A4
3
MSLTSCALE
350
2A2
0
DICTIONARY
5
298
102
{ACAD_REACTORS
330
297
102
}
330
297
100
AcDbDictionary
281
1
0
XRECORD
5
293
102
{ACAD_REACTORS
330
292
102
}
330
292
100
AcDbXrecord
280
1
290
1
0
ACDBDETAILVIEWSTYLE
5
27C
102
{ACAD_REACTORS
330
27B
102
}
330
27B
100
AcDbModelDocViewStyle
70
0
3
Imperial24
290
0
100
AcDbDetailViewStyle
70
0
71
0
90
3
71
1
340
266
62
256
40
0.24
340
0
62
256
40
0.24
300

40
0.36
280
3
71
2
340
26D
90
25
62
256
71
3
340
266
62
256
40
0.24
90
1
40
0.75
90
1
300
%<AcVar ViewType  "%tc1">% %<AcVar ViewDetailId>%PSCALE %<AcVar ViewScale  "%sn">%
71
4
340
26D
90
25
62
256
340
26D
90
25
62
256
280
0
0
LAYOUT
5
280
102
{ACAD_REACTORS
330
272
102
}
330
272
100
AcDbPlotSettings
1

2
HP_LaserJet_P1505
4

6

40
0.0
41
0.0
42
0.0
43
0.0
44
0.0
45
0.0
46
0.0
47
0.0
48
0.0
49
0.0
140
0.0
141
0.0
142
1.0
143
1.0
70
688
72
0
73
0
74
5
7

75
16
147
1.0
76
0
77
2
78
300
148
0.0
149
0.0
100
AcDbLayout
1
Layout1
70
1
71
1
10
0.0
20
0.0
11
12.0
21
9.0
12
0.0
22
0.0
32
0.0
14
0.0
24
0.0
34
0.0
15
0.0
25
0.0
35
0.0
146
0.0
13
0.0
23
0.0
33
0.0
16
1.0
26
0.0
36
0.0
17
0.0
27
1.0
37
0.0
76
0
330
27D
0
LAYOUT
5
284
102
{ACAD_REACTORS
330
272
102
}
330
272
100
AcDbPlotSettings
1

2
HP_LaserJet_P1505
4

6

40
0.0
41
0.0
42
0.0
43
0.0
44
0.0
45
0.0
46
0.0
47
0.0
48
0.0
49
0.0
140
0.0
141
0.0
142
1.0
143
1.0
70
1712
72
0
73
0
74
0
7

75
0
147
1.0
76
0
77
2
78
300
148
0.0
149
0.0
100
AcDbLayout
1
Model
70
1
71
0
10
0.0
20
0.0
11
12.0
21
9.0
12
0.0
22
0.0
32
0.0
14
0.0
24
0.0
34
0.0
15
0.0
25
0.0
35
0.0
146
0.0
13
0.0
23
0.0
33
0.0
16
1.0
26
0.0
36
0.0
17
0.0
27
1.0
37
0.0
76
0
330
281
331
285
0
MATERIAL
5
22A
102
{ACAD_XDICTIONARY
360
22B
102
}
102
{ACAD_REACTORS
330
221
102
}
330
221
100
AcDbMaterial
1
ByBlock
72
0
43
0.0208333333333333
43
0.0
43
0.0
43
0.0
43
0.0
43
0.0208333333333333
43
0.0
43
0.0
43
0.0
43
0.0
43
1.0
43
0.0
43
0.0
43
0.0
43
0.0
43
1.0
77
0
47
0.0208333333333333
47
0.0
47
0.0
47
0.0
47
0.0
47
0.0208333333333333
47
0.0
47
0.0
47
0.0
47
0.0
47
1.0
47
0.0
47
0.0
47
0.0
47
0.0
47
1.0
171
0
49
0.0208333333333333
49
0.0
49
0.0
49
0.0
49
0.0
49
0.0208333333333333
49
0.0
49
0.0
49
0.0
49
0.0
49
1.0
49
0.0
49
0.0
49
0.0
49
0.0
49
1.0
175
0
142
0.0208333333333333
142
0.0
142
0.0
142
0.0
142
0.0
142
0.0208333333333333
142
0.0
142
0.0
142
0.0
142
0.0
142
1.0
142
0.0
142
0.0
142
0.0
142
0.0
142
1.0
179
0
144
0.0208333333333333
144
0.0
144
0.0
144
0.0
144
0.0
144
0.0208333333333333
144
0.0
144
0.0
144
0.0
144
0.0
144
1.0
144
0.0
144
0.0
144
0.0
144
0.0
144
1.0
147
0.0208333333333333
147
0.0
147
0.0
147
0.0
147
0.0
147
0.0208333333333333
147
0.0
147
0.0
147
0.0
147
0.0
147
1.0
147
0.0
147
0.0
147
0.0
147
0.0
147
1.0
0
MATERIAL
5
222
102
{ACAD_XDICTIONARY
360
223
102
}
102
{ACAD_REACTORS
330
221
102
}
330
221
100
AcDbMaterial
1
ByLayer
72
0
43
0.0208333333333333
43
0.0
43
0.0
43
0.0
43
0.0
43
0.0208333333333333
43
0.0
43
0.0
43
0.0
43
0.0
43
1.0
43
0.0
43
0.0
43
0.0
43
0.0
43
1.0
77
0
47
0.0208333333333333
47
0.0
47
0.0
47
0.0
47
0.0
47
0.0208333333333333
47
0.0
47
0.0
47
0.0
47
0.0
47
1.0
47
0.0
47
0.0
47
0.0
47
0.0
47
1.0
171
0
49
0.0208333333333333
49
0.0
49
0.0
49
0.0
49
0.0
49
0.0208333333333333
49
0.0
49
0.0
49
0.0
49
0.0
49
1.0
49
0.0
49
0.0
49
0.0
49
0.0
49
1.0
175
0
142
0.0208333333333333
142
0.0
142
0.0
142
0.0
142
0.0
142
0.0208333333333333
142
0.0
142
0.0
142
0.0
142
0.0
142
1.0
142
0.0
142
0.0
142
0.0
142
0.0
142
1.0
179
0
144
0.0208333333333333
144
0.0
144
0.0
144
0.0
144
0.0
144
0.0208333333333333
144
0.0
144
0.0
144
0.0
144
0.0
144
1.0
144
0.0
144
0.0
144
0.0
144
0.0
144
1.0
147
0.0208333333333333
147
0.0
147
0.0
147
0.0
147
0.0
147
0.0208333333333333
147
0.0
147
0.0
147
0.0
147
0.0
147
1.0
147
0.0
147
0.0
147
0.0
147
0.0
147
1.0
0
MATERIAL
5
232
102
{ACAD_XDICTIONARY
360
233
102
}
102
{ACAD_REACTORS
330
221
102
}
330
221
100
AcDbMaterial
1
Global
72
0
43
0.0208333333333333
43
0.0
43
0.0
43
0.0
43
0.0
43
0.0208333333333333
43
0.0
43
0.0
43
0.0
43
0.0
43
1.0
43
0.0
43
0.0
43
0.0
43
0.0
43
1.0
77
0
47
0.0208333333333333
47
0.0
47
0.0
47
0.0
47
0.0
47
0.0208333333333333
47
0.0
47
0.0
47
0.0
47
0.0
47
1.0
47
0.0
47
0.0
47
0.0
47
0.0
47
1.0
171
0
49
0.0208333333333333
49
0.0
49
0.0
49
0.0
49
0.0
49
0.0208333333333333
49
0.0
49
0.0
49
0.0
49
0.0
49
1.0
49
0.0
49
0.0
49
0.0
49
0.0
49
1.0
175
0
142
0.0208333333333333
142
0.0
142
0.0
142
0.0
142
0.0
142
0.0208333333333333
142
0.0
142
0.0
142
0.0
142
0.0
142
1.0
142
0.0
142
0.0
142
0.0
142
0.0
142
1.0
179
0
144
0.0208333333333333
144
0.0
144
0.0
144
0.0
144
0.0
144
0.0208333333333333
144
0.0
144
0.0
144
0.0
144
0.0
144
1.0
144
0.0
144
0.0
144
0.0
144
0.0
144
1.0
147
0.0208333333333333
147
0.0
147
0.0
147
0.0
147
0.0
147
0.0208333333333333
147
0.0
147
0.0
147
0.0
147
0.0
147
1.0
147
0.0
147
0.0
147
0.0
147
0.0
147
1.0
0
MLEADERSTYLE
5
277
102
{ACAD_REACTORS
330
276
102
}
330
276
100
AcDbMLeaderStyle
179
2
170
2
171
1
172
0
90
2
40
0.0
41
0.0
173
1
91
-1056964608
340
26B
92
-2
290
1
42
0.09
291
1
43
0.36
3
Standard
44
0.18
300

342
266
174
1
178
6
175
1
176
0
93
-1056964608
45
0.18
292
0
297
0
46
0.18
94
-1056964608
47
1.0
49
1.0
140
1.0
293
1
141
0.0
294
1
177
0
142
1.0
295
0
296
0
143
0.125
271
0
272
9
273
9
298
0
0
MLINESTYLE
5
270
102
{ACAD_REACTORS
330
26F
102
}
330
26F
100
AcDbMlineStyle
2
STANDARD
70
0
3

62
256
51
90.0
52
90.0
71
2
49
0.5
62
256
6
BYLAYER
49
-0.5
62
256
6
BYLAYER
0
ACDBPLACEHOLDER
5
220
102
{ACAD_REACTORS
330
21F
102
}
330
21F
0
SCALE
5
254
102
{ACAD_REACTORS
330
253
102
}
330
253
100
AcDbScale
70
0
300
1:1
140
1.0
141
1.0
290
1
0
SCALE
5
255
102
{ACAD_REACTORS
330
253
102
}
330
253
100
AcDbScale
70
0
300
1/128" = 1'-0"
140
0.0078125
141
12.0
290
0
0
SCALE
5
256
102
{ACAD_REACTORS
330
253
102
}
330
253
100
AcDbScale
70
0
300
1/64" = 1'-0"
140
0.015625
141
12.0
290
0
0
SCALE
5
257
102
{ACAD_REACTORS
330
253
102
}
330
253
100
AcDbScale
70
0
300
1/32" = 1'-0"
140
0.03125
141
12.0
290
0
0
SCALE
5
258
102
{ACAD_REACTORS
330
253
102
}
330
253
100
AcDbScale
70
0
300
1/16" = 1'-0"
140
0.0625
141
12.0
290
0
0
SCALE
5
259
102
{ACAD_REACTORS
330
253
102
}
330
253
100
AcDbScale
70
0
300
3/32" = 1'-0"
140
0.09375
141
12.0
290
0
0
SCALE
5
25A
102
{ACAD_REACTORS
330
253
102
}
330
253
100
AcDbScale
70
0
300
1/8" = 1'-0"
140
0.125
141
12.0
290
0
0
SCALE
5
25B
102
{ACAD_REACTORS
330
253
102
}
330
253
100
AcDbScale
70
0
300
3/16" = 1'-0"
140
0.1875
141
12.0
290
0
0
SCALE
5
25C
102
{ACAD_REACTORS
330
253
102
}
330
253
100
AcDbScale
70
0
300
1/4" = 1'-0"
140
0.25
141
12.0
290
0
0
SCALE
5
25D
102
{ACAD_REACTORS
330
253
102
}
330
253
100
AcDbScale
70
0
300
3/8" = 1'-0"
140
0.375
141
12.0
290
0
0
SCALE
5
25E
102
{ACAD_REACTORS
330
253
102
}
330
253
100
AcDbScale
70
0
300
1/2" = 1'-0"
140
0.5
141
12.0
290
0
0
SCALE
5
25F
102
{ACAD_REACTORS
330
253
102
}
330
253
100
AcDbScale
70
0
300
3/4" = 1'-0"
140
0.75
141
12.0
290
0
0
SCALE
5
260
102
{ACAD_REACTORS
330
253
102
}
330
253
100
AcDbScale
70
0
300
1" = 1'-0"
140
1.0
141
12.0
290
0
0
SCALE
5
261
102
{ACAD_REACTORS
330
253
102
}
330
253
100
AcDbScale
70
0
300
1-1/2" = 1'-0"
140
1.5
141
12.0
290
0
0
SCALE
5
262
102
{ACAD_REACTORS
330
253
102
}
330
253
100
AcDbScale
70
0
300
3" = 1'-0"
140
3.0
141
12.0
290
0
0
SCALE
5
263
102
{ACAD_REACTORS
330
253
102
}
330
253
100
AcDbScale
70
0
300
6" = 1'-0"
140
6.0
141
12.0
290
0
0
SCALE
5
264
102
{ACAD_REACTORS
330
253
102
}
330
253
100
AcDbScale
70
0
300
1'-0" = 1'-0"
140
12.0
141
12.0
290
0
0
ACDBSECTIONVIEWSTYLE
5
27A
102
{ACAD_REACTORS
330
278
102
}
330
278
100
AcDbModelDocViewStyle
70
0
3
Imperial24
290
0
100
AcDbSectionViewStyle
70
0
71
0
90
78
71
1
340
266
62
256
40
0.24
340
0
340
0
62
256
40
0.24
300
I, O, Q, S, X, Z
40
0.48
90
3
40
0.18
90
1
71
2
340
279
90
25
62
256
340
26D
90
50
62
256
40
0.24
40
0.0
40
0.24
71
3
340
266
62
256
40
0.24
90
1
40
0.75
90
1
300
%<AcVar ViewType  "%tc1">% %<AcVar ViewSectionStartId>%-%<AcVar ViewSectionEndId>%PSCALE %<AcVar ViewScale  "%sn">%
71
4
62
256
62
257
300
ANSI31
40
1.0
90
0
290
0
290
0
90
6
40
0.0
40
1.570796326794896
40
0.2617993877991494
40
1.308996938995747
40
-0.2617993877991494
40
1.832595714594044
0
TABLESTYLE
5
275
102
{ACAD_XDICTIONARY
360
2A7
102
}
102
{ACAD_REACTORS
330
274
102
}
330
274
100
AcDbTableStyle
280
0
3
Standard
70
0
71
0
40
0.06
41
0.06
280
0
281
0
7
STANDARD
140
0.18
170
2
62
0
63
7
283
0
90
512
91
0
1

274
-2
284
1
64
0
275
-2
285
1
65
0
276
-2
286
1
66
0
277
-2
287
1
67
0
278
-2
288
1
68
0
279
-2
289
1
69
0
7
STANDARD
140
0.25
170
5
62
0
63
7
283
0
90
512
91
0
1

274
-2
284
1
64
0
275
-2
285
1
65
0
276
-2
286
1
66
0
277
-2
287
1
67
0
278
-2
288
1
68
0
279
-2
289
1
69
0
7
STANDARD
140
0.18
170
5
62
0
63
7
283
0
90
512
91
0
1

274
-2
284
1
64
0
275
-2
285
1
65
0
276
-2
286
1
66
0
277
-2
287
1
67
0
278
-2
288
1
68
0
279
-2
289
1
69
0
0
VISUALSTYLE
5
240
102
{ACAD_REACTORS
330
23A
102
}
330
23A
100
AcDbVisualStyle
2
2dWireframe
70
4
177
3
291
0
70
58
90
0
176
1
90
2
176
1
90
0
176
1
90
0
176
1
40
0.6
176
1
40
30.0
176
1
62
7
420
16777215
176
1
90
1
176
1
90
4
176
1
62
7
176
1
62
257
176
1
90
1
176
1
90
1
176
1
40
1.0
176
1
90
0
176
1
62
257
176
1
40
1.0
176
1
90
1
176
1
90
6
176
1
90
2
176
1
62
7
176
1
90
5
176
1
90
0
176
1
90
0
176
1
290
0
176
1
90
1
176
1
40
0.0
176
1
90
0
176
1
290
1
176
1
290
1
176
1
290
0
176
1
290
0
176
1
290
0
176
1
290
0
176
1
290
0
176
1
290
0
176
1
290
0
176
1
90
50
176
1
40
0.0
176
1
40
1.0
176
1
90
0
176
1
62
18
176
1
90
50
176
1
90
3
176
1
62
5
420
255
176
1
290
0
176
1
90
50
176
1
90
50
176
1
90
50
176
1
290
0
176
1
90
50
176
1
62
256
176
0
40
1.0
176
0
90
2
176
1
1
strokes_ogs.tif
176
1
290
0
176
1
40
1.0
176
1
40
1.0
176
1
1001
ACAD
1000
AcDbSavedByObjectVersion
1070
0
0
VISUALSTYLE
5
23F
102
{ACAD_REACTORS
330
23A
102
}
330
23A
100
AcDbVisualStyle
2
Basic
70
7
177
3
291
1
70
58
90
1
176
1
90
0
176
1
90
1
176
1
90
0
176
1
40
0.6
176
1
40
30.0
176
1
62
7
420
16777215
176
1
90
0
176
1
90
4
176
1
62
7
176
1
62
257
176
1
90
1
176
1
90
1
176
1
40
1.0
176
1
90
8
176
1
62
7
176
1
40
1.0
176
1
90
1
176
1
90
6
176
1
90
2
176
1
62
7
176
1
90
5
176
1
90
0
176
1
90
0
176
1
290
0
176
1
90
1
176
1
40
0.0
176
1
90
0
176
1
290
0
176
1
290
1
176
1
290
1
176
1
290
0
176
1
290
0
176
1
290
0
176
1
290
0
176
1
290
0
176
1
290
0
176
1
90
50
176
1
40
0.0
176
1
40
1.0
176
1
90
0
176
1
62
18
176
1
90
50
176
1
90
3
176
1
62
5
420
255
176
1
290
0
176
1
90
50
176
1
90
50
176
1
90
50
176
1
290
0
176
1
90
50
176
1
62
256
176
0
40
1.0
176
0
90
2
176
1
1
strokes_ogs.tif
176
1
290
0
176
1
40
1.0
176
1
40
1.0
176
1
1001
ACAD
1000
AcDbSavedByObjectVersion
1070
0
0
VISUALSTYLE
5
246
102
{ACAD_REACTORS
330
23A
102
}
330
23A
100
AcDbVisualStyle
2
Brighten
70
12
177
3
291
1
70
58
90
2
176
1
90
2
176
1
90
0
176
1
90
0
176
1
40
0.6
176
1
40
30.0
176
1
62
7
420
16777215
176
1
90
1
176
1
90
4
176
1
62
7
176
1
62
257
176
1
90
1
176
1
90
1
176
1
40
1.0
176
1
90
8
176
1
62
7
176
1
40
1.0
176
1
90
1
176
1
90
6
176
1
90
2
176
1
62
7
176
1
90
5
176
1
90
0
176
1
90
0
176
1
290
0
176
1
90
1
176
1
40
50.0
176
1
90
0
176
1
290
0
176
1
290
1
176
1
290
1
176
1
290
0
176
1
290
0
176
1
290
0
176
1
290
0
176
1
290
0
176
1
290
0
176
1
90
50
176
1
40
0.0
176
1
40
1.0
176
1
90
0
176
1
62
18
176
1
90
50
176
1
90
3
176
1
62
5
420
255
176
1
290
0
176
1
90
50
176
1
90
50
176
1
90
50
176
1
290
0
176
1
90
50
176
1
62
256
176
0
40
1.0
176
0
90
2
176
1
1
strokes_ogs.tif
176
1
290
0
176
1
40
1.0
176
1
40
1.0
176
1
1001
ACAD
1000
AcDbSavedByObjectVersion
1070
0
0
VISUALSTYLE
5
24A
102
{ACAD_REACTORS
330
23A
102
}
330
23A
100
AcDbVisualStyle
2
ColorChange
70
16
177
3
291
1
70
58
90
2
176
1
90
2
176
1
90
3
176
1
90
0
176
1
40
0.6
176
1
40
30.0
176
1
62
8
420
8421504
176
1
90
1
176
1
90
4
176
1
62
7
176
1
62
257
176
1
90
1
176
1
90
1
176
1
40
1.0
176
1
90
8
176
1
62
8
420
8421504
176
1
40
1.0
176
1
90
1
176
1
90
6
176
1
90
2
176
1
62
7
176
1
90
5
176
1
90
0
176
1
90
0
176
1
290
0
176
1
90
1
176
1
40
0.0
176
1
90
0
176
1
290
0
176
1
290
1
176
1
290
1
176
1
290
0
176
1
290
0
176
1
290
0
176
1
290
0
176
1
290
0
176
1
290
0
176
1
90
50
176
1
40
0.0
176
1
40
1.0
176
1
90
0
176
1
62
18
176
1
90
50
176
1
90
3
176
1
62
5
420
255
176
1
290
0
176
1
90
50
176
1
90
50
176
1
90
50
176
1
290
0
176
1
90
50
176
1
62
256
176
0
40
1.0
176
0
90
2
176
1
1
strokes_ogs.tif
176
1
290
0
176
1
40
1.0
176
1
40
1.0
176
1
1001
ACAD
1000
AcDbSavedByObjectVersion
1070
0
0
VISUALSTYLE
5
243
102
{ACAD_REACTORS
330
23A
102
}
330
23A
100
AcDbVisualStyle
2
Conceptual
70
9
177
3
291
0
70
58
90
3
176
1
90
2
176
1
90
0
176
1
90
0
176
1
40
0.6
176
1
40
30.0
176
1
62
7
420
16777215
176
1
90
2
176
1
90
2
176
1
62
7
176
1
62
257
176
1
90
1
176
1
90
1
176
1
40
179.0
176
1
90
8
176
1
62
7
176
1
40
1.0
176
1
90
1
176
1
90
6
176
1
90
2
176
1
62
7
176
1
90
3
176
1
90
0
176
1
90
0
176
1
290
0
176
1
90
1
176
1
40
0.0
176
1
90
0
176
1
290
0
176
1
290
1
176
1
290
1
176
1
290
0
176
1
290
0
176
1
290
0
176
1
290
0
176
1
290
0
176
1
290
0
176
1
90
50
176
1
40
0.0
176
1
40
1.0
176
1
90
0
176
1
62
18
176
1
90
50
176
1
90
3
176
1
62
5
420
255
176
1
290
0
176
1
90
50
176
1
90
50
176
1
90
50
176
1
290
0
176
1
90
50
176
1
62
256
176
0
40
1.0
176
0
90
2
176
1
1
strokes_ogs.tif
176
1
290
0
176
1
40
1.0
176
1
40
1.0
176
1
1001
ACAD
1000
AcDbSavedByObjectVersion
1070
0
0
VISUALSTYLE
5
245
102
{ACAD_REACTORS
330
23A
102
}
330
23A
100
AcDbVisualStyle
2
Dim
70
11
177
3
291
1
70
58
90
2
176
1
90
2
176
1
90
0
176
1
90
0
176
1
40
0.6
176
1
40
30.0
176
1
62
7
420
16777215
176
1
90
1
176
1
90
4
176
1
62
7
176
1
62
257
176
1
90
1
176
1
90
1
176
1
40
1.0
176
1
90
8
176
1
62
7
176
1
40
1.0
176
1
90
1
176
1
90
6
176
1
90
2
176
1
62
7
176
1
90
5
176
1
90
0
176
1
90
0
176
1
290
0
176
1
90
1
176
1
40
-50.0
176
1
90
0
176
1
290
0
176
1
290
1
176
1
290
1
176
1
290
0
176
1
290
0
176
1
290
0
176
1
290
0
176
1
290
0
176
1
290
0
176
1
90
50
176
1
40
0.0
176
1
40
1.0
176
1
90
0
176
1
62
18
176
1
90
50
176
1
90
3
176
1
62
5
420
255
176
1
290
0
176
1
90
50
176
1
90
50
176
1
90
50
176
1
290
0
176
1
90
50
176
1
62
256
176
0
40
1.0
176
0
90
2
176
1
1
strokes_ogs.tif
176
1
290
0
176
1
40
1.0
176
1
40
1.0
176
1
1001
ACAD
1000
AcDbSavedByObjectVersion
1070
0
0
VISUALSTYLE
5
252
102
{ACAD_REACTORS
330
23A
102
}
330
23A
100
AcDbVisualStyle
2
EdgeColorOff
70
22
177
3
291
1
70
58
90
2
176
0
90
2
176
0
90
0
176
0
90
0
176
0
40
0.6
176
0
40
30.0
176
0
62
7
420
16777215
176
0
90
1
176
0
90
4
176
0
62
7
176
0
62
257
176
0
90
1
176
0
90
1
176
0
40
1.0
176
0
90
8
176
2
62
7
176
0
40
1.0
176
0
90
1
176
0
90
6
176
0
90
2
176
0
62
7
176
0
90
5
176
0
90
0
176
0
90
0
176
0
290
0
176
0
90
1
176
0
40
0.0
176
0
90
0
176
0
290
0
176
1
290
1
176
1
290
1
176
1
290
0
176
1
290
0
176
1
290
0
176
1
290
0
176
1
290
0
176
1
290
0
176
1
90
50
176
0
40
0.0
176
0
40
1.0
176
0
90
0
176
0
62
18
176
0
90
50
176
0
90
3
176
0
62
5
420
255
176
0
290
0
176
1
90
50
176
0
90
50
176
0
90
50
176
0
290
0
176
1
90
50
176
0
62
256
176
0
40
1.0
176
0
90
2
176
0
1
strokes_ogs.tif
176
0
290
0
176
1
40
1.0
176
0
40
1.0
176
0
1001
ACAD
1000
AcDbSavedByObjectVersion
1070
0
0
VISUALSTYLE
5
249
102
{ACAD_REACTORS
330
23A
102
}
330
23A
100
AcDbVisualStyle
2
Facepattern
70
15
177
3
291
1
70
58
90
2
176
1
90
2
176
1
90
0
176
1
90
0
176
1
40
0.6
176
1
40
30.0
176
1
62
7
420
16777215
176
1
90
1
176
1
90
4
176
1
62
7
176
1
62
257
176
1
90
1
176
1
90
1
176
1
40
1.0
176
1
90
8
176
1
62
7
176
1
40
1.0
176
1
90
1
176
1
90
6
176
1
90
2
176
1
62
7
176
1
90
5
176
1
90
0
176
1
90
0
176
1
290
0
176
1
90
1
176
1
40
0.0
176
1
90
0
176
1
290
0
176
1
290
1
176
1
290
1
176
1
290
0
176
1
290
0
176
1
290
0
176
1
290
0
176
1
290
0
176
1
290
0
176
1
90
50
176
1
40
0.0
176
1
40
1.0
176
1
90
0
176
1
62
18
176
1
90
50
176
1
90
3
176
1
62
5
420
255
176
1
290
0
176
1
90
50
176
1
90
50
176
1
90
50
176
1
290
0
176
1
90
50
176
1
62
256
176
0
40
1.0
176
0
90
2
176
1
1
strokes_ogs.tif
176
1
290
0
176
1
40
1.0
176
1
40
1.0
176
1
1001
ACAD
1000
AcDbSavedByObjectVersion
1070
0
0
VISUALSTYLE
5
23B
102
{ACAD_REACTORS
330
23A
102
}
330
23A
100
AcDbVisualStyle
2
Flat
70
0
177
3
291
1
70
58
90
2
176
1
90
1
176
1
90
1
176
1
90
2
176
1
40
0.6
176
1
40
30.0
176
1
62
7
420
16777215
176
1
90
0
176
1
90
0
176
1
62
7
176
1
62
257
176
1
90
1
176
1
90
1
176
1
40
1.0
176
1
90
8
176
1
62
7
176
1
40
1.0
176
1
90
1
176
1
90
6
176
1
90
2
176
1
62
7
176
1
90
5
176
1
90
0
176
1
90
0
176
1
290
0
176
1
90
13
176
1
40
0.0
176
1
90
0
176
1
290
0
176
1
290
1
176
1
290
1
176
1
290
0
176
1
290
0
176
1
290
0
176
1
290
0
176
1
290
0
176
1
290
0
176
1
90
50
176
1
40
0.0
176
1
40
1.0
176
1
90
0
176
1
62
18
176
1
90
50
176
1
90
3
176
1
62
5
420
255
176
1
290
0
176
1
90
50
176
1
90
50
176
1
90
50
176
1
290
0
176
1
90
50
176
1
62
256
176
0
40
1.0
176
0
90
2
176
1
1
strokes_ogs.tif
176
1
290
0
176
1
40
1.0
176
1
40
1.0
176
1
1001
ACAD
1000
AcDbSavedByObjectVersion
1070
0
0
VISUALSTYLE
5
23C
102
{ACAD_REACTORS
330
23A
102
}
330
23A
100
AcDbVisualStyle
2
FlatWithEdges
70
1
177
3
291
1
70
58
90
2
176
1
90
1
176
1
90
1
176
1
90
2
176
1
40
0.6
176
1
40
30.0
176
1
62
7
420
16777215
176
1
90
1
176
1
90
0
176
1
62
7
176
1
62
257
176
1
90
1
176
1
90
1
176
1
40
1.0
176
1
90
0
176
1
62
257
176
1
40
1.0
176
1
90
1
176
1
90
6
176
1
90
2
176
1
62
7
176
1
90
5
176
1
90
0
176
1
90
0
176
1
290
0
176
1
90
13
176
1
40
0.0
176
1
90
0
176
1
290
0
176
1
290
1
176
1
290
1
176
1
290
0
176
1
290
0
176
1
290
0
176
1
290
0
176
1
290
0
176
1
290
0
176
1
90
50
176
1
40
0.0
176
1
40
1.0
176
1
90
0
176
1
62
18
176
1
90
50
176
1
90
3
176
1
62
5
420
255
176
1
290
0
176
1
90
50
176
1
90
50
176
1
90
50
176
1
290
0
176
1
90
50
176
1
62
256
176
0
40
1.0
176
0
90
2
176
1
1
strokes_ogs.tif
176
1
290
0
176
1
40
1.0
176
1
40
1.0
176
1
1001
ACAD
1000
AcDbSavedByObjectVersion
1070
0
0
VISUALSTYLE
5
23D
102
{ACAD_REACTORS
330
23A
102
}
330
23A
100
AcDbVisualStyle
2
Gouraud
70
2
177
3
291
1
70
58
90
2
176
1
90
2
176
1
90
1
176
1
90
2
176
1
40
0.6
176
1
40
30.0
176
1
62
7
420
16777215
176
1
90
0
176
1
90
0
176
1
62
7
176
1
62
257
176
1
90
1
176
1
90
1
176
1
40
1.0
176
1
90
0
176
1
62
7
176
1
40
1.0
176
1
90
1
176
1
90
6
176
1
90
2
176
1
62
7
176
1
90
5
176
1
90
0
176
1
90
0
176
1
290
0
176
1
90
13
176
1
40
0.0
176
1
90
0
176
1
290
0
176
1
290
1
176
1
290
1
176
1
290
0
176
1
290
0
176
1
290
0
176
1
290
0
176
1
290
0
176
1
290
0
176
1
90
50
176
1
40
0.0
176
1
40
1.0
176
1
90
0
176
1
62
18
176
1
90
50
176
1
90
3
176
1
62
5
420
255
176
1
290
0
176
1
90
50
176
1
90
50
176
1
90
50
176
1
290
0
176
1
90
50
176
1
62
256
176
0
40
1.0
176
0
90
2
176
1
1
strokes_ogs.tif
176
1
290
0
176
1
40
1.0
176
1
40
1.0
176
1
1001
ACAD
1000
AcDbSavedByObjectVersion
1070
0
0
VISUALSTYLE
5
23E
102
{ACAD_REACTORS
330
23A
102
}
330
23A
100
AcDbVisualStyle
2
GouraudWithEdges
70
3
177
3
291
1
70
58
90
2
176
1
90
2
176
1
90
1
176
1
90
2
176
1
40
0.6
176
1
40
30.0
176
1
62
7
420
16777215
176
1
90
1
176
1
90
0
176
1
62
7
176
1
62
257
176
1
90
1
176
1
90
1
176
1
40
1.0
176
1
90
0
176
1
62
257
176
1
40
1.0
176
1
90
1
176
1
90
6
176
1
90
2
176
1
62
7
176
1
90
5
176
1
90
0
176
1
90
0
176
1
290
0
176
1
90
13
176
1
40
0.0
176
1
90
0
176
1
290
0
176
1
290
1
176
1
290
1
176
1
290
0
176
1
290
0
176
1
290
0
176
1
290
0
176
1
290
0
176
1
290
0
176
1
90
50
176
1
40
0.0
176
1
40
1.0
176
1
90
0
176
1
62
18
176
1
90
50
176
1
90
3
176
1
62
5
420
255
176
1
290
0
176
1
90
50
176
1
90
50
176
1
90
50
176
1
290
0
176
1
90
50
176
1
62
256
176
0
40
1.0
176
0
90
2
176
1
1
strokes_ogs.tif
176
1
290
0
176
1
40
1.0
176
1
40
1.0
176
1
1001
ACAD
1000
AcDbSavedByObjectVersion
1070
0
0
VISUALSTYLE
5
242
102
{ACAD_REACTORS
330
23A
102
}
330
23A
100
AcDbVisualStyle
2
Hidden
70
6
177
3
291
0
70
58
90
1
176
1
90
2
176
1
90
2
176
1
90
0
176
1
40
0.6
176
1
40
30.0
176
1
62
7
420
16777215
176
1
90
2
176
1
90
2
176
1
62
7
176
1
62
257
176
1
90
2
176
1
90
1
176
1
40
40.0
176
1
90
0
176
1
62
257
176
1
40
1.0
176
1
90
1
176
1
90
6
176
1
90
2
176
1
62
7
176
1
90
3
176
1
90
0
176
1
90
0
176
1
290
0
176
1
90
1
176
1
40
0.0
176
1
90
0
176
1
290
0
176
1
290
1
176
1
290
1
176
1
290
0
176
1
290
0
176
1
290
0
176
1
290
0
176
1
290
0
176
1
290
0
176
1
90
50
176
1
40
0.0
176
1
40
1.0
176
1
90
0
176
1
62
18
176
1
90
50
176
1
90
3
176
1
62
5
420
255
176
1
290
0
176
1
90
50
176
1
90
50
176
1
90
50
176
1
290
0
176
1
90
50
176
1
62
256
176
0
40
1.0
176
0
90
2
176
1
1
strokes_ogs.tif
176
1
290
0
176
1
40
1.0
176
1
40
1.0
176
1
1001
ACAD
1000
AcDbSavedByObjectVersion
1070
0
0
VISUALSTYLE
5
250
102
{ACAD_REACTORS
330
23A
102
}
330
23A
100
AcDbVisualStyle
2
JitterOff
70
20
177
3
291
1
70
58
90
2
176
0
90
2
176
0
90
0
176
0
90
0
176
0
40
0.6
176
0
40
30.0
176
0
62
7
420
16777215
176
0
90
1
176
0
90
4
176
0
62
7
176
0
62
257
176
0
90
1
176
0
90
1
176
0
40
1.0
176
0
90
10
176
2
62
7
176
0
40
1.0
176
0
90
1
176
0
90
6
176
0
90
2
176
0
62
7
176
0
90
5
176
0
90
0
176
0
90
0
176
0
290
0
176
0
90
1
176
0
40
0.0
176
0
90
0
176
0
290
0
176
1
290
1
176
1
290
1
176
1
290
0
176
1
290
0
176
1
290
0
176
1
290
0
176
1
290
0
176
1
290
0
176
1
90
50
176
0
40
0.0
176
0
40
1.0
176
0
90
0
176
0
62
18
176
0
90
50
176
0
90
3
176
0
62
5
420
255
176
0
290
0
176
1
90
50
176
0
90
50
176
0
90
50
176
0
290
0
176
1
90
50
176
0
62
256
176
0
40
1.0
176
0
90
2
176
0
1
strokes_ogs.tif
176
0
290
0
176
1
40
1.0
176
0
40
1.0
176
0
1001
ACAD
1000
AcDbSavedByObjectVersion
1070
0
0
VISUALSTYLE
5
248
102
{ACAD_REACTORS
330
23A
102
}
330
23A
100
AcDbVisualStyle
2
Linepattern
70
14
177
3
291
1
70
58
90
2
176
1
90
2
176
1
90
0
176
1
90
0
176
1
40
0.6
176
1
40
30.0
176
1
62
7
420
16777215
176
1
90
1
176
1
90
4
176
1
62
7
176
1
62
257
176
1
90
7
176
1
90
7
176
1
40
1.0
176
1
90
8
176
1
62
7
176
1
40
1.0
176
1
90
1
176
1
90
6
176
1
90
2
176
1
62
7
176
1
90
5
176
1
90
0
176
1
90
0
176
1
290
0
176
1
90
1
176
1
40
0.0
176
1
90
0
176
1
290
0
176
1
290
1
176
1
290
1
176
1
290
0
176
1
290
0
176
1
290
0
176
1
290
0
176
1
290
0
176
1
290
0
176
1
90
50
176
1
40
0.0
176
1
40
1.0
176
1
90
0
176
1
62
18
176
1
90
50
176
1
90
3
176
1
62
5
420
255
176
1
290
0
176
1
90
50
176
1
90
50
176
1
90
50
176
1
290
0
176
1
90
50
176
1
62
256
176
0
40
1.0
176
0
90
2
176
1
1
strokes_ogs.tif
176
1
290
0
176
1
40
1.0
176
1
40
1.0
176
1
1001
ACAD
1000
AcDbSavedByObjectVersion
1070
0
0
VISUALSTYLE
5
251
102
{ACAD_REACTORS
330
23A
102
}
330
23A
100
AcDbVisualStyle
2
OverhangOff
70
21
177
3
291
1
70
58
90
2
176
0
90
2
176
0
90
0
176
0
90
0
176
0
40
0.6
176
0
40
30.0
176
0
62
7
420
16777215
176
0
90
1
176
0
90
4
176
0
62
7
176
0
62
257
176
0
90
1
176
0
90
1
176
0
40
1.0
176
0
90
9
176
2
62
7
176
0
40
1.0
176
0
90
1
176
0
90
6
176
0
90
2
176
0
62
7
176
0
90
5
176
0
90
0
176
0
90
0
176
0
290
0
176
0
90
1
176
0
40
0.0
176
0
90
0
176
0
290
0
176
1
290
1
176
1
290
1
176
1
290
0
176
1
290
0
176
1
290
0
176
1
290
0
176
1
290
0
176
1
290
0
176
1
90
50
176
0
40
0.0
176
0
40
1.0
176
0
90
0
176
0
62
18
176
0
90
50
176
0
90
3
176
0
62
5
420
255
176
0
290
0
176
1
90
50
176
0
90
50
176
0
90
50
176
0
290
0
176
1
90
50
176
0
62
256
176
0
40
1.0
176
0
90
2
176
0
1
strokes_ogs.tif
176
0
290
0
176
1
40
1.0
176
0
40
1.0
176
0
1001
ACAD
1000
AcDbSavedByObjectVersion
1070
0
0
VISUALSTYLE
5
244
102
{ACAD_REACTORS
330
23A
102
}
330
23A
100
AcDbVisualStyle
2
Realistic
70
8
177
3
291
0
70
58
90
2
176
1
90
3
176
1
90
0
176
1
90
2
176
1
40
0.6
176
1
40
30.0
176
1
62
7
420
16777215
176
1
90
0
176
1
90
0
176
1
62
7
176
1
62
257
176
1
90
1
176
1
90
1
176
1
40
1.0
176
1
90
8
176
1
62
257
176
1
40
1.0
176
1
90
1
176
1
90
6
176
1
90
2
176
1
62
7
176
1
90
3
176
1
90
0
176
1
90
0
176
1
290
0
176
1
90
13
176
1
40
0.0
176
1
90
0
176
1
290
0
176
1
290
1
176
1
290
1
176
1
290
0
176
1
290
0
176
1
290
0
176
1
290
0
176
1
290
0
176
1
290
0
176
1
90
50
176
1
40
0.0
176
1
40
1.0
176
1
90
0
176
1
62
18
176
1
90
50
176
1
90
3
176
1
62
5
420
255
176
1
290
0
176
1
90
50
176
1
90
50
176
1
90
50
176
1
290
0
176
1
90
50
176
1
62
256
176
0
40
1.0
176
0
90
2
176
1
1
strokes_ogs.tif
176
1
290
0
176
1
40
1.0
176
1
40
1.0
176
1
1001
ACAD
1000
AcDbSavedByObjectVersion
1070
0
0
VISUALSTYLE
5
24F
102
{ACAD_REACTORS
330
23A
102
}
330
23A
100
AcDbVisualStyle
2
Shaded
70
27
177
3
291
0
70
58
90
2
176
1
90
2
176
1
90
1
176
1
90
2
176
1
40
0.6
176
1
40
30.0
176
1
62
7
420
16777215
176
1
90
0
176
1
90
4
176
1
62
7
176
1
62
257
176
1
90
1
176
1
90
1
176
1
40
1.0
176
1
90
8
176
1
62
257
176
1
40
1.0
176
1
90
1
176
1
90
6
176
1
90
2
176
1
62
8
420
7895160
176
1
90
3
176
1
90
0
176
1
90
0
176
1
290
0
176
1
90
5
176
1
40
0.0
176
1
90
0
176
1
290
0
176
1
290
1
176
1
290
1
176
1
290
0
176
1
290
0
176
1
290
0
176
1
290
0
176
1
290
0
176
1
290
0
176
1
90
50
176
1
40
0.0
176
1
40
1.0
176
1
90
0
176
1
62
18
176
1
90
50
176
1
90
3
176
1
62
5
420
255
176
1
290
0
176
1
90
50
176
1
90
50
176
1
90
50
176
1
290
0
176
1
90
50
176
1
62
256
176
0
40
1.0
176
0
90
2
176
1
1
strokes_ogs.tif
176
1
290
0
176
1
40
1.0
176
1
40
1.0
176
1
1001
ACAD
1000
AcDbSavedByObjectVersion
1070
0
0
VISUALSTYLE
5
24E
102
{ACAD_REACTORS
330
23A
102
}
330
23A
100
AcDbVisualStyle
2
Shaded with edges
70
26
177
3
291
0
70
58
90
2
176
1
90
2
176
1
90
1
176
1
90
2
176
1
40
0.6
176
1
40
30.0
176
1
62
7
420
16777215
176
1
90
1
176
1
90
10
176
1
62
7
176
1
62
257
176
1
90
2
176
1
90
1
176
1
40
1.0
176
1
90
8
176
1
62
257
176
1
40
1.0
176
1
90
1
176
1
90
6
176
1
90
2
176
1
62
7
176
1
90
3
176
1
90
0
176
1
90
0
176
1
290
0
176
1
90
5
176
1
40
0.0
176
1
90
0
176
1
290
0
176
1
290
1
176
1
290
1
176
1
290
0
176
1
290
0
176
1
290
0
176
1
290
0
176
1
290
0
176
1
290
0
176
1
90
50
176
1
40
0.0
176
1
40
1.0
176
1
90
0
176
1
62
18
176
1
90
50
176
1
90
3
176
1
62
5
420
255
176
1
290
0
176
1
90
50
176
1
90
50
176
1
90
50
176
1
290
0
176
1
90
50
176
1
62
256
176
0
40
1.0
176
0
90
2
176
1
1
strokes_ogs.tif
176
1
290
0
176
1
40
1.0
176
1
40
1.0
176
1
1001
ACAD
1000
AcDbSavedByObjectVersion
1070
0
0
VISUALSTYLE
5
24B
102
{ACAD_REACTORS
330
23A
102
}
330
23A
100
AcDbVisualStyle
2
Shades of Gray
70
23
177
3
291
0
70
58
90
2
176
1
90
2
176
1
90
3
176
1
90
0
176
1
40
0.6
176
1
40
30.0
176
1
62
7
420
16777215
176
1
90
2
176
1
90
2
176
1
62
7
176
1
62
7
176
1
90
1
176
1
90
1
176
1
40
40.0
176
1
90
8
176
1
62
7
176
1
40
1.0
176
1
90
1
176
1
90
6
176
1
90
2
176
1
62
7
176
1
90
3
176
1
90
0
176
1
90
0
176
1
290
0
176
1
90
1
176
1
40
0.0
176
1
90
0
176
1
290
0
176
1
290
1
176
1
290
1
176
1
290
0
176
1
290
0
176
1
290
0
176
1
290
0
176
1
290
0
176
1
290
0
176
1
90
50
176
1
40
0.0
176
1
40
1.0
176
1
90
0
176
1
62
18
176
1
90
50
176
1
90
3
176
1
62
5
420
255
176
1
290
0
176
1
90
50
176
1
90
50
176
1
90
50
176
1
290
0
176
1
90
50
176
1
62
256
176
0
40
1.0
176
0
90
2
176
1
1
strokes_ogs.tif
176
1
290
0
176
1
40
1.0
176
1
40
1.0
176
1
1001
ACAD
1000
AcDbSavedByObjectVersion
1070
0
0
VISUALSTYLE
5
24C
102
{ACAD_REACTORS
330
23A
102
}
330
23A
100
AcDbVisualStyle
2
Sketchy
70
24
177
3
291
0
70
58
90
1
176
1
90
2
176
1
90
2
176
1
90
0
176
1
40
0.6
176
1
40
30.0
176
1
62
7
420
16777215
176
1
90
2
176
1
90
2
176
1
62
7
176
1
62
7
176
1
90
1
176
1
90
1
176
1
40
40.0
176
1
90
11
176
1
62
7
176
1
40
1.0
176
1
90
1
176
1
90
6
176
1
90
2
176
1
62
7
176
1
90
6
176
1
90
0
176
1
90
0
176
1
290
0
176
1
90
1
176
1
40
0.0
176
1
90
0
176
1
290
0
176
1
290
1
176
1
290
1
176
1
290
0
176
1
290
0
176
1
290
0
176
1
290
0
176
1
290
0
176
1
290
0
176
1
90
50
176
1
40
0.0
176
1
40
1.0
176
1
90
0
176
1
62
18
176
1
90
50
176
1
90
3
176
1
62
5
420
255
176
1
290
0
176
1
90
50
176
1
90
50
176
1
90
50
176
1
290
0
176
1
90
50
176
1
62
256
176
0
40
1.0
176
0
90
2
176
1
1
strokes_ogs.tif
176
1
290
0
176
1
40
1.0
176
1
40
1.0
176
1
1001
ACAD
1000
AcDbSavedByObjectVersion
1070
0
0
VISUALSTYLE
5
247
102
{ACAD_REACTORS
330
23A
102
}
330
23A
100
AcDbVisualStyle
2
Thicken
70
13
177
3
291
1
70
58
90
2
176
1
90
2
176
1
90
0
176
1
90
0
176
1
40
0.6
176
1
40
30.0
176
1
62
7
420
16777215
176
1
90
1
176
1
90
4
176
1
62
7
176
1
62
257
176
1
90
1
176
1
90
1
176
1
40
1.0
176
1
90
12
176
1
62
7
176
1
40
1.0
176
1
90
1
176
1
90
6
176
1
90
2
176
1
62
7
176
1
90
5
176
1
90
0
176
1
90
0
176
1
290
0
176
1
90
1
176
1
40
0.0
176
1
90
0
176
1
290
0
176
1
290
1
176
1
290
1
176
1
290
0
176
1
290
0
176
1
290
0
176
1
290
0
176
1
290
0
176
1
290
0
176
1
90
50
176
1
40
0.0
176
1
40
1.0
176
1
90
0
176
1
62
18
176
1
90
50
176
1
90
3
176
1
62
5
420
255
176
1
290
0
176
1
90
50
176
1
90
50
176
1
90
50
176
1
290
0
176
1
90
50
176
1
62
256
176
0
40
1.0
176
0
90
2
176
1
1
strokes_ogs.tif
176
1
290
0
176
1
40
1.0
176
1
40
1.0
176
1
1001
ACAD
1000
AcDbSavedByObjectVersion
1070
0
0
VISUALSTYLE
5
241
102
{ACAD_REACTORS
330
23A
102
}
330
23A
100
AcDbVisualStyle
2
Wireframe
70
5
177
3
291
0
70
58
90
0
176
1
90
2
176
1
90
0
176
1
90
0
176
1
40
0.6
176
1
40
30.0
176
1
62
7
420
16777215
176
1
90
1
176
1
90
4
176
1
62
7
176
1
62
257
176
1
90
1
176
1
90
1
176
1
40
1.0
176
1
90
0
176
1
62
257
176
1
40
1.0
176
1
90
1
176
1
90
6
176
1
90
2
176
1
62
7
176
1
90
3
176
1
90
0
176
1
90
0
176
1
290
0
176
1
90
1
176
1
40
0.0
176
1
90
0
176
1
290
0
176
1
290
1
176
1
290
1
176
1
290
0
176
1
290
0
176
1
290
0
176
1
290
0
176
1
290
0
176
1
290
0
176
1
90
50
176
1
40
0.0
176
1
40
1.0
176
1
90
0
176
1
62
18
176
1
90
50
176
1
90
3
176
1
62
5
420
255
176
1
290
0
176
1
90
50
176
1
90
50
176
1
90
50
176
1
290
0
176
1
90
50
176
1
62
256
176
0
40
1.0
176
0
90
2
176
1
1
strokes_ogs.tif
176
1
290
0
176
1
40
1.0
176
1
40
1.0
176
1
1001
ACAD
1000
AcDbSavedByObjectVersion
1070
0
0
VISUALSTYLE
5
24D
102
{ACAD_REACTORS
330
23A
102
}
330
23A
100
AcDbVisualStyle
2
X-Ray
70
25
177
3
291
0
70
58
90
2
176
1
90
2
176
1
90
1
176
1
90
1
176
1
40
0.5
176
1
40
30.0
176
1
62
7
420
16777215
176
1
90
1
176
1
90
0
176
1
62
7
176
1
62
257
176
1
90
1
176
1
90
1
176
1
40
1.0
176
1
90
8
176
1
62
7
176
1
40
1.0
176
1
90
1
176
1
90
6
176
1
90
2
176
1
62
7
176
1
90
3
176
1
90
0
176
1
90
0
176
1
290
0
176
1
90
13
176
1
40
0.0
176
1
90
0
176
1
290
0
176
1
290
1
176
1
290
1
176
1
290
0
176
1
290
0
176
1
290
0
176
1
290
0
176
1
290
0
176
1
290
0
176
1
90
50
176
1
40
0.0
176
1
40
1.0
176
1
90
0
176
1
62
18
176
1
90
50
176
1
90
3
176
1
62
5
420
255
176
1
290
0
176
1
90
50
176
1
90
50
176
1
90
50
176
1
290
0
176
1
90
50
176
1
62
256
176
0
40
1.0
176
0
90
2
176
1
1
strokes_ogs.tif
176
1
290
0
176
1
40
1.0
176
1
40
1.0
176
1
1001
ACAD
1000
AcDbSavedByObjectVersion
1070
0
0
DICTIONARYVAR
5
2A3
102
{ACAD_REACTORS
330
29D
102
}
330
29D
100
DictionaryVariables
280
0
1
1:1
0
DICTIONARYVAR
5
29F
102
{ACAD_REACTORS
330
29D
102
}
330
29D
100
DictionaryVariables
280
0
1
STANDARD
0
DICTIONARYVAR
5
29E
102
{ACAD_REACTORS
330
29D
102
}
330
29D
100
DictionaryVariables
280
0
1
STANDARD
0
DICTIONARYVAR
5
2A0
102
{ACAD_REACTORS
330
29D
102
}
330
29D
100
DictionaryVariables
280
0
1
Imperial24
0
DICTIONARYVAR
5
2A1
102
{ACAD_REACTORS
330
29D
102
}
330
29D
100
DictionaryVariables
280
0
1
Imperial24
0
DICTIONARYVAR
5
2A5
102
{ACAD_REACTORS
330
29D
102
}
330
29D
100
DictionaryVariables
280
0
1
1
0
DICTIONARYVAR
5
2A6
102
{ACAD_REACTORS
330
29D
102
}
330
29D
100
DictionaryVariables
280
0
1
15
0
DICTIONARYVAR
5
2A4
102
{ACAD_REACTORS
330
29D
102
}
330
29D
100
DictionaryVariables
280
0
1
0
0
DICTIONARYVAR
5
2A2
102
{ACAD_REACTORS
330
29D
102
}
330
29D
100
DictionaryVariables
280
0
1
0
0
DICTIONARY
5
22B
330
22A
100
AcDbDictionary
280
1
281
1
3
BUMPTILE
360
22D
3
DIFFUSETILE
360
22C
3
OPACITYTILE
360
230
3
REFLECTIONTILE
360
22F
3
REFRACTIONTILE
360
231
3
SPECULARTILE
360
22E
0
DICTIONARY
5
223
330
222
100
AcDbDictionary
280
1
281
1
3
BUMPTILE
360
225
3
DIFFUSETILE
360
224
3
OPACITYTILE
360
228
3
REFLECTIONTILE
360
227
3
REFRACTIONTILE
360
229
3
SPECULARTILE
360
226
0
DICTIONARY
5
233
330
232
100
AcDbDictionary
280
1
281
1
3
BUMPTILE
360
235
3
DIFFUSETILE
360
234
3
OPACITYTILE
360
238
3
REFLECTIONTILE
360
237
3
REFRACTIONTILE
360
239
3
SPECULARTILE
360
236
0
DICTIONARY
5
2A7
330
275
100
AcDbDictionary
280
1
281
1
3
ACAD_ROUNDTRIP_2008_TABLESTYLE_CELLSTYLEMAP
360
1056
0
XRECORD
5
22D
102
{ACAD_REACTORS
330
22B
102
}
330
22B
100
AcDbXrecord
280
1
270
1
271
1
0
XRECORD
5
22C
102
{ACAD_REACTORS
330
22B
102
}
330
22B
100
AcDbXrecord
280
1
270
1
271
1
0
XRECORD
5
230
102
{ACAD_REACTORS
330
22B
102
}
330
22B
100
AcDbXrecord
280
1
270
1
271
1
0
XRECORD
5
22F
102
{ACAD_REACTORS
330
22B
102
}
330
22B
100
AcDbXrecord
280
1
270
1
271
1
0
XRECORD
5
231
102
{ACAD_REACTORS
330
22B
102
}
330
22B
100
AcDbXrecord
280
1
270
1
271
1
0
XRECORD
5
22E
102
{ACAD_REACTORS
330
22B
102
}
330
22B
100
AcDbXrecord
280
1
270
1
271
1
0
XRECORD
5
225
102
{ACAD_REACTORS
330
223
102
}
330
223
100
AcDbXrecord
280
1
270
1
271
1
0
XRECORD
5
224
102
{ACAD_REACTORS
330
223
102
}
330
223
100
AcDbXrecord
280
1
270
1
271
1
0
XRECORD
5
228
102
{ACAD_REACTORS
330
223
102
}
330
223
100
AcDbXrecord
280
1
270
1
271
1
0
XRECORD
5
227
102
{ACAD_REACTORS
330
223
102
}
330
223
100
AcDbXrecord
280
1
270
1
271
1
0
XRECORD
5
229
102
{ACAD_REACTORS
330
223
102
}
330
223
100
AcDbXrecord
280
1
270
1
271
1
0
XRECORD
5
226
102
{ACAD_REACTORS
330
223
102
}
330
223
100
AcDbXrecord
280
1
270
1
271
1
0
XRECORD
5
235
102
{ACAD_REACTORS
330
233
102
}
330
233
100
AcDbXrecord
280
1
270
1
271
1
0
XRECORD
5
234
102
{ACAD_REACTORS
330
233
102
}
330
233
100
AcDbXrecord
280
1
270
1
271
1
0
XRECORD
5
238
102
{ACAD_REACTORS
330
233
102
}
330
233
100
AcDbXrecord
280
1
270
1
271
1
0
XRECORD
5
237
102
{ACAD_REACTORS
330
233
102
}
330
233
100
AcDbXrecord
280
1
270
1
271
1
0
XRECORD
5
239
102
{ACAD_REACTORS
330
233
102
}
330
233
100
AcDbXrecord
280
1
270
1
271
1
0
XRECORD
5
236
102
{ACAD_REACTORS
330
233
102
}
330
233
100
AcDbXrecord
280
1
270
1
271
1
0
CELLSTYLEMAP
5
1056
102
{ACAD_REACTORS
330
2A7
102
}
330
2A7
100
AcDbCellStyleMap
90
3
300
CELLSTYLE
1
TABLEFORMAT_BEGIN
90
5
170
1
91
0
92
32768
62
257
93
1
300
CONTENTFORMAT
1
CONTENTFORMAT_BEGIN
90
0
91
0
92
512
93
0
300

40
0.0
140
1.0
94
5
62
0
340
266
144
0.25
309
CONTENTFORMAT_END
171
1
301
MARGIN
1
CELLMARGIN_BEGIN
40
0.06
40
0.06
40
0.06
40
0.06
40
0.18
40
0.18
309
CELLMARGIN_END
94
6
95
1
302
GRIDFORMAT
1
GRIDFORMAT_BEGIN
90
0
91
1
62
0
92
-2
340
0
93
0
40
0.045
309
GRIDFORMAT_END
95
2
302
GRIDFORMAT
1
GRIDFORMAT_BEGIN
90
0
91
1
62
0
92
-2
340
0
93
0
40
0.045
309
GRIDFORMAT_END
95
4
302
GRIDFORMAT
1
GRIDFORMAT_BEGIN
90
0
91
1
62
0
92
-2
340
0
93
0
40
0.045
309
GRIDFORMAT_END
95
8
302
GRIDFORMAT
1
GRIDFORMAT_BEGIN
90
0
91
1
62
0
92
-2
340
0
93
0
40
0.045
309
GRIDFORMAT_END
95
16
302
GRIDFORMAT
1
GRIDFORMAT_BEGIN
90
0
91
1
62
0
92
-2
340
0
93
0
40
0.045
309
GRIDFORMAT_END
95
32
302
GRIDFORMAT
1
GRIDFORMAT_BEGIN
90
0
91
1
62
0
92
-2
340
0
93
0
40
0.045
309
GRIDFORMAT_END
309
TABLEFORMAT_END
1
CELLSTYLE_BEGIN
90
1
91
1
300
_TITLE
309
CELLSTYLE_END
300
CELLSTYLE
1
TABLEFORMAT_BEGIN
90
5
170
1
91
0
92
0
62
257
93
1
300
CONTENTFORMAT
1
CONTENTFORMAT_BEGIN
90
0
91
0
92
512
93
0
300

40
0.0
140
1.0
94
5
62
0
340
266
144
0.18
309
CONTENTFORMAT_END
171
1
301
MARGIN
1
CELLMARGIN_BEGIN
40
0.06
40
0.06
40
0.06
40
0.06
40
0.18
40
0.18
309
CELLMARGIN_END
94
6
95
1
302
GRIDFORMAT
1
GRIDFORMAT_BEGIN
90
0
91
1
62
0
92
-2
340
0
93
0
40
0.045
309
GRIDFORMAT_END
95
2
302
GRIDFORMAT
1
GRIDFORMAT_BEGIN
90
0
91
1
62
0
92
-2
340
0
93
0
40
0.045
309
GRIDFORMAT_END
95
4
302
GRIDFORMAT
1
GRIDFORMAT_BEGIN
90
0
91
1
62
0
92
-2
340
0
93
0
40
0.045
309
GRIDFORMAT_END
95
8
302
GRIDFORMAT
1
GRIDFORMAT_BEGIN
90
0
91
1
62
0
92
-2
340
0
93
0
40
0.045
309
GRIDFORMAT_END
95
16
302
GRIDFORMAT
1
GRIDFORMAT_BEGIN
90
0
91
1
62
0
92
-2
340
0
93
0
40
0.045
309
GRIDFORMAT_END
95
32
302
GRIDFORMAT
1
GRIDFORMAT_BEGIN
90
0
91
1
62
0
92
-2
340
0
93
0
40
0.045
309
GRIDFORMAT_END
309
TABLEFORMAT_END
1
CELLSTYLE_BEGIN
90
2
91
1
300
_HEADER
309
CELLSTYLE_END
300
CELLSTYLE
1
TABLEFORMAT_BEGIN
90
5
170
1
91
0
92
0
62
257
93
1
300
CONTENTFORMAT
1
CONTENTFORMAT_BEGIN
90
0
91
0
92
512
93
0
300

40
0.0
140
1.0
94
2
62
0
340
266
144
0.18
309
CONTENTFORMAT_END
171
1
301
MARGIN
1
CELLMARGIN_BEGIN
40
0.06
40
0.06
40
0.06
40
0.06
40
0.18
40
0.18
309
CELLMARGIN_END
94
6
95
1
302
GRIDFORMAT
1
GRIDFORMAT_BEGIN
90
0
91
1
62
0
92
-2
340
0
93
0
40
0.045
309
GRIDFORMAT_END
95
2
302
GRIDFORMAT
1
GRIDFORMAT_BEGIN
90
0
91
1
62
0
92
-2
340
0
93
0
40
0.045
309
GRIDFORMAT_END
95
4
302
GRIDFORMAT
1
GRIDFORMAT_BEGIN
90
0
91
1
62
0
92
-2
340
0
93
0
40
0.045
309
GRIDFORMAT_END
95
8
302
GRIDFORMAT
1
GRIDFORMAT_BEGIN
90
0
91
1
62
0
92
-2
340
0
93
0
40
0.045
309
GRIDFORMAT_END
95
16
302
GRIDFORMAT
1
GRIDFORMAT_BEGIN
90
0
91
1
62
0
92
-2
340
0
93
0
40
0.045
309
GRIDFORMAT_END
95
32
302
GRIDFORMAT
1
GRIDFORMAT_BEGIN
90
0
91
1
62
0
92
-2
340
0
93
0
40
0.045
309
GRIDFORMAT_END
309
TABLEFORMAT_END
1
CELLSTYLE_BEGIN
90
3
91
2
300
_DATA
309
CELLSTYLE_END
0
ENDSEC
0
SECTION
2
ACDSDATA
70
2
71
2
0
ACDSSCHEMA
90
0
1
AcDb_Thumbnail_Schema
2
AcDbDs::ID
280
10
91
8
2
Thumbnail_Data
280
15
91
0
101
ACDSRECORD
95
0
90
1
2
AcDbDs::TreatedAsObjectData
280
1
291
1
101
ACDSRECORD
95
0
90
2
2
AcDbDs::Legacy
280
1
291
1
101
ACDSRECORD
1
AcDbDs::ID
90
3
2
AcDs:Indexable
280
1
291
1
101
ACDSRECORD
1
AcDbDs::ID
90
4
2
AcDbDs::HandleAttribute
280
7
282
1
0
ACDSSCHEMA
90
1
1
AcDbDs::TreatedAsObjectDataSchema
2
AcDbDs::TreatedAsObjectData
280
1
91
0
0
ACDSSCHEMA
90
2
1
AcDbDs::LegacySchema
2
AcDbDs::Legacy
280
1
91
0
0
ACDSSCHEMA
90
3
1
AcDbDs::IndexedPropertySchema
2
AcDs:Indexable
280
1
91
0
0
ACDSSCHEMA
90
4
1
AcDbDs::HandleAttributeSchema
2
AcDbDs::HandleAttribute
280
7
91
1
284
1
0
ACDSRECORD
90
0
2
AcDbDs::ID
280
10
320
284
2
Thumbnail_Data
280
15
94
1130
310
89504E470D0A1A0A0000000D4948445200000100000000BB0803000000BDD6B05600000300504C54452128300000000000000000000000000000000000000000000000000000000000000000330000660000990000CC0000FF0033000033330033660033990033CC0033FF0066000066330066660066990066CC0066FF0099
310
000099330099660099990099CC0099FF00CC0000CC3300CC6600CC9900CCCC00CCFF00FF0000FF3300FF6600FF9900FFCC00FFFF3300003300333300663300993300CC3300FF3333003333333333663333993333CC3333FF3366003366333366663366993366CC3366FF3399003399333399663399993399CC3399FF33CC00
310
33CC3333CC6633CC9933CCCC33CCFF33FF0033FF3333FF6633FF9933FFCC33FFFF6600006600336600666600996600CC6600FF6633006633336633666633996633CC6633FF6666006666336666666666996666CC6666FF6699006699336699666699996699CC6699FF66CC0066CC3366CC6666CC9966CCCC66CCFF66FF0066
310
FF3366FF6666FF9966FFCC66FFFF9900009900339900669900999900CC9900FF9933009933339933669933999933CC9933FF9966009966339966669966999966CC9966FF9999009999339999669999999999CC9999FF99CC0099CC3399CC6699CC9999CCCC99CCFF99FF0099FF3399FF6699FF9999FFCC99FFFFCC0000CC00
310
33CC0066CC0099CC00CCCC00FFCC3300CC3333CC3366CC3399CC33CCCC33FFCC6600CC6633CC6666CC6699CC66CCCC66FFCC9900CC9933CC9966CC9999CC99CCCC99FFCCCC00CCCC33CCCC66CCCC99CCCCCCCCCCFFCCFF00CCFF33CCFF66CCFF99CCFFCCCCFFFFFF0000FF0033FF0066FF0099FF00CCFF00FFFF3300FF3333
310
FF3366FF3399FF33CCFF33FFFF6600FF6633FF6666FF6699FF66CCFF66FFFF9900FF9933FF9966FF9999FF99CCFF99FFFFCC00FFCC33FFCC66FFCC99FFCCCCFFCCFFFFFF00FFFF33FFFF66FFFF99FFFFCCFFFFFF0000000D0D0D1A1A1A2828283535354343435050505D5D5D6B6B6B787878868686939393A1A1A1AEAEAEBB
310
BBBBC9C9C9D6D6D6E4E4E4F1F1F1FFFFFF000000000000000000000000000000000000000000000000000000000000544354A80000004549444154789CEDC13101000000C2A0F54F6D094FA000000000000000000000000000000000000000000000000000000000000000000000000000000000000000000000E062BBBB00
310
01006808E50000000049454E44AE4260824BBACA0DB465ABDB4063B2B20534072BDA4047AC9A0DF4A42AD9407A015D99E20BA8D8407A019D89143066171752C0D0E513E84D54AE01050C5E7F7B0A18BA7C020A18BA7C02F105C4FF0C2920FE4024FE484C01F1C7E2F11723AEC65C8EBA1E372071982F7D48A87EFCC5989C41
310
49A3B22F9BB861E9DF3E73F299D3F25FC9D901000000000000000000000000000000000000000000E0344F3123803F1ED9B2780000000049454E44AE426082FADAD667F149BFC5000000000000000000000000000000000000000070A90F51C3A687E5D1137C0000000049454E44AE426082
0
ENDSEC
0
EOF
