%TF.GenerationSoftware,KiCad,Pcbnew,7.0.6*%
%TF.CreationDate,2023-12-03T11:26:54-05:00*%
%TF.ProjectId,oe-commutator-controller,6f652d63-6f6d-46d7-9574-61746f722d63,C*%
%TF.SameCoordinates,Original*%
%TF.FileFunction,Copper,L3,Inr*%
%TF.FilePolarity,Positive*%
%FSLAX46Y46*%
G04 Gerber Fmt 4.6, Leading zero omitted, Abs format (unit mm)*
G04 Created by KiCad (PCBNEW 7.0.6) date 2023-12-03 11:26:54*
%MOMM*%
%LPD*%
G01*
G04 APERTURE LIST*
%TA.AperFunction,ViaPad*%
%ADD10C,0.900000*%
%TD*%
%TA.AperFunction,ViaPad*%
%ADD11C,0.500000*%
%TD*%
G04 APERTURE END LIST*
D10*
%TO.N,/OB2*%
X108900000Y-134200000D03*
%TO.N,/OA1*%
X120400000Y-138950000D03*
X119400000Y-139450000D03*
%TO.N,/OA2*%
X118550000Y-136600000D03*
%TO.N,/OB1*%
X113450000Y-136600000D03*
%TO.N,VCC*%
X135200000Y-63600000D03*
X137200000Y-57900000D03*
X132250500Y-63900000D03*
D11*
%TO.N,GND*%
X127466568Y-106232072D03*
X115000000Y-123250000D03*
X122200000Y-140600000D03*
X137700000Y-99000000D03*
X120000000Y-64300000D03*
X127400000Y-123100000D03*
X110050000Y-127600000D03*
X109100000Y-120000000D03*
X115900000Y-124750000D03*
X126900000Y-122000000D03*
X139000000Y-125600000D03*
X118400000Y-125500000D03*
X122200000Y-117900000D03*
X138200000Y-109600000D03*
X129800000Y-90900000D03*
X131000000Y-142000000D03*
X133000000Y-106500000D03*
X113800000Y-79600000D03*
X115000000Y-122500000D03*
X129900000Y-89600000D03*
X139300000Y-141400000D03*
X140600000Y-66200000D03*
X141200000Y-120100000D03*
X110300000Y-74600000D03*
X139600000Y-73000000D03*
X115250000Y-131550000D03*
X113550000Y-132800000D03*
X121800000Y-127000000D03*
X108200000Y-138200000D03*
X132000000Y-144800000D03*
X111950000Y-131300000D03*
X124200000Y-123900000D03*
X124300000Y-115600000D03*
X117500000Y-125500000D03*
X108400000Y-85650000D03*
X118000000Y-138200000D03*
X138600000Y-64400000D03*
X139700000Y-122500000D03*
X113400000Y-144800000D03*
X116700000Y-125500000D03*
X115000000Y-124000000D03*
X139800000Y-113800000D03*
X111100000Y-120400000D03*
X115800000Y-143000000D03*
X124050000Y-126600000D03*
X134200000Y-60000000D03*
X105850000Y-124500000D03*
X113300000Y-129200000D03*
X119200000Y-135000000D03*
X118400000Y-124000000D03*
X129100000Y-58700000D03*
X138200000Y-111000000D03*
X105850000Y-123000000D03*
X111600000Y-138400000D03*
X115900000Y-123250000D03*
X120100000Y-58900000D03*
X129200000Y-63800000D03*
X116700000Y-124750000D03*
X106000000Y-127000000D03*
X134200000Y-60800000D03*
X106000000Y-118400000D03*
X111600000Y-74800000D03*
X115000000Y-124750000D03*
X112400000Y-121400000D03*
X128400000Y-61200000D03*
X140800000Y-102400000D03*
X106100000Y-100700000D03*
X115900000Y-124000000D03*
X134300000Y-105300000D03*
X106400000Y-142800000D03*
X109300000Y-68000000D03*
X132500000Y-122900000D03*
X107457097Y-114019260D03*
X133400000Y-60000000D03*
X123393706Y-74851949D03*
X132300000Y-89700000D03*
X111100000Y-119200000D03*
X113600000Y-131550000D03*
X111000000Y-77800000D03*
X118700000Y-77500000D03*
X111850000Y-129200000D03*
X116693763Y-58550624D03*
X130300000Y-72400000D03*
X126321294Y-70061350D03*
X127000000Y-76100000D03*
X139400000Y-65200000D03*
X138600000Y-98150000D03*
X140400000Y-83300000D03*
X140300000Y-105000000D03*
X140200000Y-141400000D03*
X132000000Y-62800000D03*
X136800000Y-99000000D03*
X109507864Y-59006871D03*
X128600000Y-142300000D03*
X128300000Y-129800000D03*
X125000000Y-138800000D03*
X137600000Y-62100000D03*
X140600000Y-65200000D03*
X106600000Y-61600000D03*
X134200000Y-109100000D03*
X111598999Y-62732893D03*
X115800000Y-141200000D03*
X115100000Y-132750000D03*
X111050000Y-96900000D03*
X123650000Y-123250000D03*
X117500000Y-122500000D03*
X111000000Y-134300000D03*
X134300000Y-107900000D03*
X138600000Y-62100000D03*
X140600000Y-95700000D03*
X109200000Y-123750000D03*
X126100000Y-119400000D03*
X118000000Y-63200000D03*
X141800000Y-113000000D03*
X110600000Y-143200000D03*
X109550000Y-103050000D03*
X139600000Y-109800000D03*
X117600000Y-133100000D03*
X117500000Y-123250000D03*
X121000000Y-81600000D03*
X123500000Y-96800000D03*
X131100000Y-89500000D03*
X106600000Y-121000000D03*
X118400000Y-122500000D03*
X124100000Y-127500000D03*
X138400000Y-67600000D03*
X115900000Y-125500000D03*
X141100000Y-60100000D03*
X138600000Y-99000000D03*
X110000000Y-129900000D03*
X122600000Y-135000000D03*
X107200000Y-81200000D03*
X109300000Y-77500000D03*
X133200000Y-92200000D03*
X120924464Y-120988114D03*
X117500000Y-124750000D03*
X123950000Y-130500000D03*
X122400000Y-83400000D03*
X105850000Y-123750000D03*
X127750000Y-124500000D03*
X141600000Y-110200000D03*
X128300000Y-133900000D03*
X131500000Y-120100000D03*
X121200000Y-63300000D03*
X136800000Y-98150000D03*
X137700000Y-98150000D03*
X127021996Y-142211146D03*
X108200000Y-76400000D03*
X138000000Y-112600000D03*
X120000000Y-142000000D03*
X138100000Y-145000000D03*
X121800000Y-120400000D03*
X106600000Y-107400000D03*
X130400000Y-113900000D03*
X130200000Y-137900000D03*
X106200000Y-90400000D03*
X119600000Y-121600000D03*
X118000000Y-72600000D03*
X109200000Y-124500000D03*
X141015563Y-107406878D03*
X133500000Y-126700000D03*
X113800000Y-121600000D03*
X132200000Y-92400000D03*
X135200000Y-142800000D03*
X131600000Y-76600000D03*
X125600000Y-144600000D03*
X139000000Y-80200000D03*
X123600000Y-132000000D03*
X137300000Y-69200000D03*
X133400000Y-116500000D03*
X135900000Y-61800000D03*
X136400000Y-72800000D03*
X141300000Y-62000000D03*
X123800000Y-106900000D03*
X136100000Y-131500000D03*
X117600000Y-131500000D03*
X109200000Y-123000000D03*
X125200000Y-142400000D03*
X132600000Y-60800000D03*
X112250000Y-132600000D03*
X136100000Y-135200000D03*
X115800000Y-139600000D03*
X112550000Y-102450000D03*
X112100000Y-76900000D03*
X108200000Y-145000000D03*
X112300000Y-127500000D03*
X131000000Y-92100000D03*
X126000000Y-64300000D03*
X106000000Y-139800000D03*
X118400000Y-144800000D03*
X121300000Y-64100000D03*
X113800000Y-126400000D03*
X137200000Y-120000000D03*
X115900000Y-122500000D03*
X108600000Y-75000000D03*
X140100000Y-84800000D03*
X136600000Y-103100000D03*
X138800000Y-83600000D03*
X111100000Y-112100000D03*
X119300000Y-133100000D03*
X116000000Y-105400000D03*
X128100000Y-126600000D03*
X108400000Y-140800000D03*
X118400000Y-124750000D03*
X116200000Y-90900000D03*
X118400000Y-123250000D03*
X141000000Y-141400000D03*
X117500000Y-124000000D03*
X140400000Y-80600000D03*
X123800000Y-90300000D03*
X139100000Y-108200000D03*
X113800000Y-111400000D03*
X117400000Y-135200000D03*
X126900000Y-72800000D03*
X133400000Y-60850000D03*
X139800000Y-59900000D03*
X124100000Y-86400000D03*
X109450000Y-113100000D03*
X127000000Y-115800000D03*
X116100000Y-114600000D03*
X132600000Y-60000000D03*
X134400000Y-106500000D03*
X115000000Y-125500000D03*
X123600000Y-101500000D03*
X139800000Y-78400000D03*
X110200000Y-132300000D03*
X131700000Y-82000000D03*
X120000000Y-120500000D03*
X139900000Y-61300000D03*
X141600000Y-65000000D03*
X128122482Y-137995081D03*
X134800000Y-95400000D03*
X122150000Y-131900000D03*
X106500000Y-95600000D03*
X138800000Y-76300000D03*
X116700000Y-123250000D03*
X109550000Y-93050000D03*
X106400000Y-136600000D03*
X121300000Y-64900000D03*
X113600000Y-135000000D03*
X124000000Y-129050000D03*
X106000000Y-132200000D03*
X121140299Y-72683619D03*
X123100000Y-115800000D03*
X113200000Y-59000000D03*
X137700000Y-63400000D03*
X141000000Y-113800000D03*
X141000000Y-109600000D03*
X129800000Y-92100000D03*
X126100000Y-118400000D03*
X113900000Y-67100000D03*
X136000000Y-64700000D03*
X118100000Y-67900000D03*
X126000000Y-120500000D03*
X127300000Y-98700000D03*
X125400000Y-125100000D03*
X119300000Y-131500000D03*
X136200000Y-76400000D03*
X136700000Y-61800000D03*
X116700000Y-122500000D03*
X127400000Y-59050000D03*
X122000000Y-144800000D03*
X125100000Y-140800000D03*
X138800000Y-113400000D03*
X116700000Y-124000000D03*
%TO.N,+3.3V*%
X122800000Y-79500000D03*
X127600000Y-79700000D03*
D10*
%TO.N,/OA2*%
X117450000Y-136600000D03*
X121162500Y-124649500D03*
%TO.N,/OA1*%
X121150000Y-122850500D03*
%TO.N,/OB1*%
X112350000Y-136650000D03*
X112212500Y-122850500D03*
%TO.N,/OB2*%
X112200000Y-124650000D03*
X109750000Y-135000000D03*
D11*
%TO.N,/LTC44_{VMID}*%
X129600000Y-95500000D03*
X136550000Y-105050000D03*
%TO.N,/LTC44_{EN}*%
X136700000Y-91200000D03*
X139900000Y-99900000D03*
%TO.N,/LTC44_{~{PFO}}*%
X138700000Y-95100000D03*
X138000000Y-91400000D03*
D10*
%TO.N,Net-(U5-VMID)*%
X134800000Y-96700000D03*
X137148833Y-95058568D03*
D11*
%TO.N,/CW*%
X138100000Y-71800000D03*
%TO.N,/MODE*%
X135410000Y-65490000D03*
%TO.N,/CCW*%
X112700000Y-82000000D03*
%TO.N,/STOP*%
X121700000Y-118900000D03*
%TO.N,Net-(S5-A)*%
X141000000Y-91000000D03*
X130600000Y-78000000D03*
X139375000Y-89375000D03*
X108700000Y-78700000D03*
%TO.N,/IS31_{EN}*%
X135000000Y-59000000D03*
X131750000Y-59549500D03*
%TO.N,/TMC_{EN}*%
X113100000Y-126900000D03*
X119200000Y-116700000D03*
%TO.N,/SCLK*%
X117500000Y-85300000D03*
X110800000Y-82900000D03*
%TO.N,/TMC_{STEP}*%
X115000000Y-85300000D03*
X112500000Y-86800000D03*
%TO.N,/LTC44_{CURR}*%
X137300000Y-101900000D03*
X134500000Y-92600000D03*
%TD*%
%TA.AperFunction,Conductor*%
%TO.N,GND*%
G36*
X142090958Y-54519407D02*
G01*
X142126922Y-54568907D01*
X142126922Y-54630093D01*
X142090958Y-54679593D01*
X142084495Y-54683911D01*
X142056343Y-54701162D01*
X142056335Y-54701168D01*
X141864785Y-54864767D01*
X141864767Y-54864785D01*
X141701168Y-55056335D01*
X141701162Y-55056343D01*
X141569535Y-55271137D01*
X141569532Y-55271143D01*
X141473127Y-55503886D01*
X141414316Y-55748853D01*
X141394551Y-56000000D01*
X141414316Y-56251146D01*
X141473127Y-56496113D01*
X141569532Y-56728856D01*
X141569535Y-56728862D01*
X141701162Y-56943656D01*
X141701168Y-56943664D01*
X141714662Y-56959464D01*
X141864776Y-57135224D01*
X141864782Y-57135229D01*
X141864785Y-57135232D01*
X141898102Y-57163687D01*
X142056341Y-57298836D01*
X142056343Y-57298837D01*
X142271137Y-57430464D01*
X142271143Y-57430467D01*
X142503887Y-57526872D01*
X142503889Y-57526873D01*
X142748852Y-57585683D01*
X142937118Y-57600500D01*
X142937123Y-57600500D01*
X143062877Y-57600500D01*
X143062882Y-57600500D01*
X143251148Y-57585683D01*
X143496111Y-57526873D01*
X143728859Y-57430466D01*
X143943659Y-57298836D01*
X144135224Y-57135224D01*
X144298836Y-56943659D01*
X144316088Y-56915505D01*
X144362613Y-56875768D01*
X144423610Y-56870967D01*
X144475780Y-56902936D01*
X144499195Y-56959464D01*
X144499500Y-56967232D01*
X144499500Y-146032767D01*
X144480593Y-146090958D01*
X144431093Y-146126922D01*
X144369907Y-146126922D01*
X144320407Y-146090958D01*
X144316089Y-146084495D01*
X144298837Y-146056343D01*
X144298836Y-146056341D01*
X144135224Y-145864776D01*
X144135217Y-145864770D01*
X144135214Y-145864767D01*
X143943664Y-145701168D01*
X143943656Y-145701162D01*
X143728862Y-145569535D01*
X143728856Y-145569532D01*
X143496112Y-145473127D01*
X143496113Y-145473127D01*
X143251146Y-145414316D01*
X143122812Y-145404216D01*
X143062882Y-145399500D01*
X142937118Y-145399500D01*
X142880775Y-145403934D01*
X142748853Y-145414316D01*
X142503886Y-145473127D01*
X142271143Y-145569532D01*
X142271137Y-145569535D01*
X142056343Y-145701162D01*
X142056335Y-145701168D01*
X141864785Y-145864767D01*
X141864767Y-145864785D01*
X141701168Y-146056335D01*
X141701162Y-146056343D01*
X141569535Y-146271137D01*
X141569532Y-146271143D01*
X141473127Y-146503886D01*
X141414316Y-146748853D01*
X141394551Y-147000000D01*
X141414316Y-147251146D01*
X141473127Y-147496113D01*
X141569532Y-147728856D01*
X141569535Y-147728862D01*
X141701162Y-147943656D01*
X141701168Y-147943664D01*
X141714662Y-147959464D01*
X141864776Y-148135224D01*
X142056341Y-148298836D01*
X142056343Y-148298837D01*
X142084495Y-148316089D01*
X142124231Y-148362615D01*
X142129032Y-148423611D01*
X142097062Y-148475780D01*
X142040534Y-148499195D01*
X142032767Y-148499500D01*
X104967233Y-148499500D01*
X104909042Y-148480593D01*
X104873078Y-148431093D01*
X104873078Y-148369907D01*
X104909042Y-148320407D01*
X104915505Y-148316089D01*
X104919906Y-148313391D01*
X104943659Y-148298836D01*
X105135224Y-148135224D01*
X105298836Y-147943659D01*
X105430466Y-147728859D01*
X105526873Y-147496111D01*
X105585683Y-147251148D01*
X105605449Y-147000000D01*
X105585683Y-146748852D01*
X105526873Y-146503889D01*
X105430466Y-146271141D01*
X105298836Y-146056341D01*
X105135224Y-145864776D01*
X105135217Y-145864770D01*
X105135214Y-145864767D01*
X104943664Y-145701168D01*
X104943656Y-145701162D01*
X104728862Y-145569535D01*
X104728856Y-145569532D01*
X104496112Y-145473127D01*
X104496113Y-145473127D01*
X104251146Y-145414316D01*
X104122812Y-145404216D01*
X104062882Y-145399500D01*
X103937118Y-145399500D01*
X103880775Y-145403934D01*
X103748853Y-145414316D01*
X103503886Y-145473127D01*
X103271143Y-145569532D01*
X103271137Y-145569535D01*
X103056343Y-145701162D01*
X103056335Y-145701168D01*
X102864785Y-145864767D01*
X102864767Y-145864785D01*
X102701168Y-146056335D01*
X102701162Y-146056343D01*
X102683911Y-146084495D01*
X102637385Y-146124231D01*
X102576389Y-146129032D01*
X102524220Y-146097062D01*
X102500805Y-146040534D01*
X102500500Y-146032767D01*
X102500500Y-139450004D01*
X118644751Y-139450004D01*
X118663685Y-139618053D01*
X118663688Y-139618065D01*
X118719544Y-139777690D01*
X118719544Y-139777691D01*
X118809520Y-139920886D01*
X118809523Y-139920890D01*
X118929110Y-140040477D01*
X119072310Y-140130456D01*
X119136232Y-140152823D01*
X119231934Y-140186311D01*
X119231938Y-140186312D01*
X119231941Y-140186313D01*
X119231942Y-140186313D01*
X119231946Y-140186314D01*
X119399996Y-140205249D01*
X119400000Y-140205249D01*
X119400004Y-140205249D01*
X119568053Y-140186314D01*
X119568055Y-140186313D01*
X119568059Y-140186313D01*
X119727690Y-140130456D01*
X119870890Y-140040477D01*
X119990477Y-139920890D01*
X120080456Y-139777690D01*
X120092769Y-139742498D01*
X120129833Y-139693820D01*
X120188433Y-139676223D01*
X120218912Y-139681754D01*
X120231937Y-139686312D01*
X120231940Y-139686312D01*
X120231941Y-139686313D01*
X120231942Y-139686313D01*
X120231946Y-139686314D01*
X120399996Y-139705249D01*
X120400000Y-139705249D01*
X120400004Y-139705249D01*
X120568053Y-139686314D01*
X120568055Y-139686313D01*
X120568059Y-139686313D01*
X120727690Y-139630456D01*
X120870890Y-139540477D01*
X120990477Y-139420890D01*
X121080456Y-139277690D01*
X121136313Y-139118059D01*
X121155249Y-138950000D01*
X121155249Y-138949995D01*
X121136314Y-138781946D01*
X121136311Y-138781934D01*
X121092769Y-138657500D01*
X121080456Y-138622310D01*
X120990477Y-138479110D01*
X120870890Y-138359523D01*
X120870887Y-138359521D01*
X120870886Y-138359520D01*
X120727691Y-138269544D01*
X120568065Y-138213688D01*
X120568053Y-138213685D01*
X120400004Y-138194751D01*
X120399996Y-138194751D01*
X120231946Y-138213685D01*
X120231934Y-138213688D01*
X120072309Y-138269544D01*
X120072308Y-138269544D01*
X119929113Y-138359520D01*
X119809520Y-138479113D01*
X119719544Y-138622308D01*
X119707230Y-138657500D01*
X119670164Y-138706180D01*
X119611564Y-138723776D01*
X119581092Y-138718247D01*
X119568056Y-138713686D01*
X119568057Y-138713686D01*
X119400004Y-138694751D01*
X119399996Y-138694751D01*
X119231946Y-138713685D01*
X119231934Y-138713688D01*
X119072309Y-138769544D01*
X119072308Y-138769544D01*
X118929113Y-138859520D01*
X118809520Y-138979113D01*
X118719544Y-139122308D01*
X118719544Y-139122309D01*
X118663688Y-139281934D01*
X118663685Y-139281946D01*
X118644751Y-139449995D01*
X118644751Y-139450004D01*
X102500500Y-139450004D01*
X102500500Y-136650004D01*
X111594751Y-136650004D01*
X111613685Y-136818053D01*
X111613688Y-136818065D01*
X111669544Y-136977690D01*
X111669544Y-136977691D01*
X111753539Y-137111367D01*
X111759523Y-137120890D01*
X111879110Y-137240477D01*
X112022310Y-137330456D01*
X112086232Y-137352823D01*
X112181934Y-137386311D01*
X112181938Y-137386312D01*
X112181941Y-137386313D01*
X112181942Y-137386313D01*
X112181946Y-137386314D01*
X112349996Y-137405249D01*
X112350000Y-137405249D01*
X112350004Y-137405249D01*
X112518053Y-137386314D01*
X112518055Y-137386313D01*
X112518059Y-137386313D01*
X112677690Y-137330456D01*
X112820890Y-137240477D01*
X112856825Y-137204541D01*
X112911340Y-137176766D01*
X112971772Y-137186337D01*
X112979498Y-137190721D01*
X113001495Y-137204543D01*
X113122310Y-137280456D01*
X113186232Y-137302823D01*
X113281934Y-137336311D01*
X113281938Y-137336312D01*
X113281941Y-137336313D01*
X113281942Y-137336313D01*
X113281946Y-137336314D01*
X113449996Y-137355249D01*
X113450000Y-137355249D01*
X113450004Y-137355249D01*
X113618053Y-137336314D01*
X113618055Y-137336313D01*
X113618059Y-137336313D01*
X113777690Y-137280456D01*
X113920890Y-137190477D01*
X114040477Y-137070890D01*
X114130456Y-136927690D01*
X114186313Y-136768059D01*
X114199615Y-136650004D01*
X114205249Y-136600004D01*
X116694751Y-136600004D01*
X116713685Y-136768053D01*
X116713688Y-136768065D01*
X116769544Y-136927690D01*
X116769544Y-136927691D01*
X116859520Y-137070886D01*
X116859523Y-137070890D01*
X116979110Y-137190477D01*
X117122310Y-137280456D01*
X117186232Y-137302823D01*
X117281934Y-137336311D01*
X117281938Y-137336312D01*
X117281941Y-137336313D01*
X117281942Y-137336313D01*
X117281946Y-137336314D01*
X117449996Y-137355249D01*
X117450000Y-137355249D01*
X117450004Y-137355249D01*
X117618053Y-137336314D01*
X117618055Y-137336313D01*
X117618059Y-137336313D01*
X117777690Y-137280456D01*
X117920890Y-137190477D01*
X117929993Y-137181373D01*
X117984509Y-137153593D01*
X118044942Y-137163163D01*
X118069999Y-137181367D01*
X118079110Y-137190477D01*
X118222310Y-137280456D01*
X118286232Y-137302823D01*
X118381934Y-137336311D01*
X118381938Y-137336312D01*
X118381941Y-137336313D01*
X118381942Y-137336313D01*
X118381946Y-137336314D01*
X118549996Y-137355249D01*
X118550000Y-137355249D01*
X118550004Y-137355249D01*
X118718053Y-137336314D01*
X118718055Y-137336313D01*
X118718059Y-137336313D01*
X118877690Y-137280456D01*
X119020890Y-137190477D01*
X119140477Y-137070890D01*
X119230456Y-136927690D01*
X119286313Y-136768059D01*
X119299615Y-136650004D01*
X119305249Y-136600004D01*
X119305249Y-136599995D01*
X119286314Y-136431946D01*
X119286311Y-136431934D01*
X119263480Y-136366690D01*
X119230456Y-136272310D01*
X119140477Y-136129110D01*
X119020890Y-136009523D01*
X119020887Y-136009521D01*
X119020886Y-136009520D01*
X118877691Y-135919544D01*
X118718065Y-135863688D01*
X118718053Y-135863685D01*
X118550004Y-135844751D01*
X118549996Y-135844751D01*
X118381946Y-135863685D01*
X118381934Y-135863688D01*
X118222309Y-135919544D01*
X118222308Y-135919544D01*
X118079113Y-136009520D01*
X118079107Y-136009525D01*
X118070001Y-136018631D01*
X118015483Y-136046407D01*
X117955052Y-136036833D01*
X117929996Y-136018629D01*
X117920889Y-136009522D01*
X117777691Y-135919544D01*
X117618065Y-135863688D01*
X117618053Y-135863685D01*
X117450004Y-135844751D01*
X117449996Y-135844751D01*
X117281946Y-135863685D01*
X117281934Y-135863688D01*
X117122309Y-135919544D01*
X117122308Y-135919544D01*
X116979113Y-136009520D01*
X116859520Y-136129113D01*
X116769544Y-136272308D01*
X116769544Y-136272309D01*
X116713688Y-136431934D01*
X116713685Y-136431946D01*
X116694751Y-136599995D01*
X116694751Y-136600004D01*
X114205249Y-136600004D01*
X114205249Y-136599995D01*
X114186314Y-136431946D01*
X114186311Y-136431934D01*
X114163480Y-136366690D01*
X114130456Y-136272310D01*
X114040477Y-136129110D01*
X113920890Y-136009523D01*
X113920887Y-136009521D01*
X113920886Y-136009520D01*
X113777691Y-135919544D01*
X113618065Y-135863688D01*
X113618053Y-135863685D01*
X113450004Y-135844751D01*
X113449996Y-135844751D01*
X113281946Y-135863685D01*
X113281934Y-135863688D01*
X113122309Y-135919544D01*
X113122308Y-135919544D01*
X112979113Y-136009520D01*
X112979107Y-136009525D01*
X112943174Y-136045457D01*
X112888657Y-136073234D01*
X112828225Y-136063661D01*
X112820501Y-136059278D01*
X112677691Y-135969544D01*
X112518065Y-135913688D01*
X112518053Y-135913685D01*
X112350004Y-135894751D01*
X112349996Y-135894751D01*
X112181946Y-135913685D01*
X112181934Y-135913688D01*
X112022309Y-135969544D01*
X112022308Y-135969544D01*
X111879113Y-136059520D01*
X111759520Y-136179113D01*
X111669544Y-136322308D01*
X111669544Y-136322309D01*
X111613688Y-136481934D01*
X111613685Y-136481946D01*
X111594751Y-136649995D01*
X111594751Y-136650004D01*
X102500500Y-136650004D01*
X102500500Y-134200004D01*
X108144751Y-134200004D01*
X108163685Y-134368053D01*
X108163688Y-134368065D01*
X108219544Y-134527690D01*
X108219544Y-134527691D01*
X108220436Y-134529110D01*
X108309523Y-134670890D01*
X108429110Y-134790477D01*
X108572310Y-134880456D01*
X108636232Y-134902823D01*
X108731934Y-134936311D01*
X108731938Y-134936312D01*
X108731941Y-134936313D01*
X108731942Y-134936313D01*
X108731946Y-134936314D01*
X108899996Y-134955249D01*
X108901237Y-134955249D01*
X108901895Y-134955463D01*
X108905525Y-134955872D01*
X108905441Y-134956615D01*
X108959428Y-134974156D01*
X108995392Y-135023656D01*
X108999614Y-135043164D01*
X109013685Y-135168053D01*
X109013688Y-135168065D01*
X109069544Y-135327690D01*
X109069544Y-135327691D01*
X109159520Y-135470886D01*
X109159523Y-135470890D01*
X109279110Y-135590477D01*
X109422310Y-135680456D01*
X109486232Y-135702823D01*
X109581934Y-135736311D01*
X109581938Y-135736312D01*
X109581941Y-135736313D01*
X109581942Y-135736313D01*
X109581946Y-135736314D01*
X109749996Y-135755249D01*
X109750000Y-135755249D01*
X109750004Y-135755249D01*
X109918053Y-135736314D01*
X109918055Y-135736313D01*
X109918059Y-135736313D01*
X110077690Y-135680456D01*
X110220890Y-135590477D01*
X110340477Y-135470890D01*
X110430456Y-135327690D01*
X110486313Y-135168059D01*
X110505249Y-135000000D01*
X110505249Y-134999995D01*
X110486314Y-134831946D01*
X110486311Y-134831934D01*
X110463480Y-134766690D01*
X110430456Y-134672310D01*
X110340477Y-134529110D01*
X110220890Y-134409523D01*
X110220887Y-134409521D01*
X110220886Y-134409520D01*
X110077691Y-134319544D01*
X109918065Y-134263688D01*
X109918053Y-134263685D01*
X109750004Y-134244751D01*
X109748763Y-134244751D01*
X109748104Y-134244536D01*
X109744475Y-134244128D01*
X109744558Y-134243384D01*
X109690572Y-134225844D01*
X109654608Y-134176344D01*
X109650386Y-134156836D01*
X109636314Y-134031946D01*
X109636311Y-134031934D01*
X109613480Y-133966690D01*
X109580456Y-133872310D01*
X109490477Y-133729110D01*
X109370890Y-133609523D01*
X109370887Y-133609521D01*
X109370886Y-133609520D01*
X109227691Y-133519544D01*
X109068065Y-133463688D01*
X109068053Y-133463685D01*
X108900004Y-133444751D01*
X108899996Y-133444751D01*
X108731946Y-133463685D01*
X108731934Y-133463688D01*
X108572309Y-133519544D01*
X108572308Y-133519544D01*
X108429113Y-133609520D01*
X108309520Y-133729113D01*
X108219544Y-133872308D01*
X108219544Y-133872309D01*
X108163688Y-134031934D01*
X108163685Y-134031946D01*
X108144751Y-134199995D01*
X108144751Y-134200004D01*
X102500500Y-134200004D01*
X102500500Y-126900000D01*
X112544750Y-126900000D01*
X112563669Y-127043708D01*
X112563670Y-127043709D01*
X112619139Y-127177625D01*
X112707379Y-127292621D01*
X112822375Y-127380861D01*
X112956291Y-127436330D01*
X113100000Y-127455250D01*
X113243709Y-127436330D01*
X113377625Y-127380861D01*
X113492621Y-127292621D01*
X113580861Y-127177625D01*
X113636330Y-127043709D01*
X113655250Y-126900000D01*
X113636330Y-126756291D01*
X113580861Y-126622375D01*
X113492621Y-126507379D01*
X113377625Y-126419139D01*
X113377621Y-126419137D01*
X113243709Y-126363670D01*
X113243708Y-126363669D01*
X113100000Y-126344750D01*
X112956291Y-126363669D01*
X112956290Y-126363670D01*
X112822378Y-126419137D01*
X112822374Y-126419139D01*
X112707381Y-126507377D01*
X112707377Y-126507381D01*
X112619139Y-126622374D01*
X112619137Y-126622378D01*
X112563670Y-126756290D01*
X112563669Y-126756291D01*
X112544750Y-126899999D01*
X112544750Y-126900000D01*
X102500500Y-126900000D01*
X102500500Y-124650004D01*
X111444751Y-124650004D01*
X111463685Y-124818053D01*
X111463688Y-124818065D01*
X111519544Y-124977690D01*
X111519544Y-124977691D01*
X111609520Y-125120886D01*
X111609523Y-125120890D01*
X111729110Y-125240477D01*
X111729112Y-125240478D01*
X111729113Y-125240479D01*
X111871512Y-125329955D01*
X111872310Y-125330456D01*
X111936232Y-125352823D01*
X112031934Y-125386311D01*
X112031938Y-125386312D01*
X112031941Y-125386313D01*
X112031942Y-125386313D01*
X112031946Y-125386314D01*
X112199996Y-125405249D01*
X112200000Y-125405249D01*
X112200004Y-125405249D01*
X112368053Y-125386314D01*
X112368055Y-125386313D01*
X112368059Y-125386313D01*
X112527690Y-125330456D01*
X112670890Y-125240477D01*
X112790477Y-125120890D01*
X112880456Y-124977690D01*
X112936313Y-124818059D01*
X112936369Y-124817565D01*
X112955249Y-124650004D01*
X112955249Y-124649995D01*
X112955194Y-124649504D01*
X120407251Y-124649504D01*
X120426185Y-124817553D01*
X120426188Y-124817565D01*
X120482044Y-124977190D01*
X120482044Y-124977191D01*
X120572020Y-125120386D01*
X120572023Y-125120390D01*
X120691610Y-125239977D01*
X120834810Y-125329956D01*
X120898732Y-125352323D01*
X120994434Y-125385811D01*
X120994438Y-125385812D01*
X120994441Y-125385813D01*
X120994442Y-125385813D01*
X120994446Y-125385814D01*
X121162496Y-125404749D01*
X121162500Y-125404749D01*
X121162504Y-125404749D01*
X121330553Y-125385814D01*
X121330555Y-125385813D01*
X121330559Y-125385813D01*
X121490190Y-125329956D01*
X121633390Y-125239977D01*
X121752977Y-125120390D01*
X121842956Y-124977190D01*
X121898813Y-124817559D01*
X121898814Y-124817553D01*
X121917749Y-124649504D01*
X121917749Y-124649495D01*
X121898814Y-124481446D01*
X121898811Y-124481434D01*
X121875980Y-124416190D01*
X121842956Y-124321810D01*
X121752977Y-124178610D01*
X121633390Y-124059023D01*
X121633387Y-124059021D01*
X121633386Y-124059020D01*
X121490191Y-123969044D01*
X121330565Y-123913188D01*
X121330553Y-123913185D01*
X121162504Y-123894251D01*
X121162496Y-123894251D01*
X120994446Y-123913185D01*
X120994434Y-123913188D01*
X120834809Y-123969044D01*
X120834808Y-123969044D01*
X120691613Y-124059020D01*
X120572020Y-124178613D01*
X120482044Y-124321808D01*
X120482044Y-124321809D01*
X120426188Y-124481434D01*
X120426185Y-124481446D01*
X120407251Y-124649495D01*
X120407251Y-124649504D01*
X112955194Y-124649504D01*
X112936314Y-124481946D01*
X112936311Y-124481934D01*
X112913480Y-124416690D01*
X112880456Y-124322310D01*
X112790477Y-124179110D01*
X112670890Y-124059523D01*
X112670887Y-124059521D01*
X112670886Y-124059520D01*
X112527691Y-123969544D01*
X112368065Y-123913688D01*
X112368053Y-123913685D01*
X112200004Y-123894751D01*
X112199996Y-123894751D01*
X112031946Y-123913685D01*
X112031934Y-123913688D01*
X111872309Y-123969544D01*
X111872308Y-123969544D01*
X111729113Y-124059520D01*
X111609520Y-124179113D01*
X111519544Y-124322308D01*
X111519544Y-124322309D01*
X111463688Y-124481934D01*
X111463685Y-124481946D01*
X111444751Y-124649995D01*
X111444751Y-124650004D01*
X102500500Y-124650004D01*
X102500500Y-122850504D01*
X111457251Y-122850504D01*
X111476185Y-123018553D01*
X111476188Y-123018565D01*
X111532044Y-123178190D01*
X111532044Y-123178191D01*
X111622020Y-123321386D01*
X111622023Y-123321390D01*
X111741610Y-123440977D01*
X111884810Y-123530956D01*
X111948732Y-123553323D01*
X112044434Y-123586811D01*
X112044438Y-123586812D01*
X112044441Y-123586813D01*
X112044442Y-123586813D01*
X112044446Y-123586814D01*
X112212496Y-123605749D01*
X112212500Y-123605749D01*
X112212504Y-123605749D01*
X112380553Y-123586814D01*
X112380555Y-123586813D01*
X112380559Y-123586813D01*
X112540190Y-123530956D01*
X112683390Y-123440977D01*
X112802977Y-123321390D01*
X112892956Y-123178190D01*
X112948813Y-123018559D01*
X112967749Y-122850504D01*
X120394751Y-122850504D01*
X120413685Y-123018553D01*
X120413688Y-123018565D01*
X120469544Y-123178190D01*
X120469544Y-123178191D01*
X120559520Y-123321386D01*
X120559523Y-123321390D01*
X120679110Y-123440977D01*
X120822310Y-123530956D01*
X120886232Y-123553323D01*
X120981934Y-123586811D01*
X120981938Y-123586812D01*
X120981941Y-123586813D01*
X120981942Y-123586813D01*
X120981946Y-123586814D01*
X121149996Y-123605749D01*
X121150000Y-123605749D01*
X121150004Y-123605749D01*
X121318053Y-123586814D01*
X121318055Y-123586813D01*
X121318059Y-123586813D01*
X121477690Y-123530956D01*
X121620890Y-123440977D01*
X121740477Y-123321390D01*
X121830456Y-123178190D01*
X121886313Y-123018559D01*
X121905249Y-122850500D01*
X121905249Y-122850495D01*
X121886314Y-122682446D01*
X121886311Y-122682434D01*
X121863480Y-122617190D01*
X121830456Y-122522810D01*
X121740477Y-122379610D01*
X121620890Y-122260023D01*
X121620887Y-122260021D01*
X121620886Y-122260020D01*
X121477691Y-122170044D01*
X121318065Y-122114188D01*
X121318053Y-122114185D01*
X121150004Y-122095251D01*
X121149996Y-122095251D01*
X120981946Y-122114185D01*
X120981934Y-122114188D01*
X120822309Y-122170044D01*
X120822308Y-122170044D01*
X120679113Y-122260020D01*
X120559520Y-122379613D01*
X120469544Y-122522808D01*
X120469544Y-122522809D01*
X120413688Y-122682434D01*
X120413685Y-122682446D01*
X120394751Y-122850495D01*
X120394751Y-122850504D01*
X112967749Y-122850504D01*
X112967749Y-122850500D01*
X112967749Y-122850495D01*
X112948814Y-122682446D01*
X112948811Y-122682434D01*
X112925980Y-122617190D01*
X112892956Y-122522810D01*
X112802977Y-122379610D01*
X112683390Y-122260023D01*
X112683387Y-122260021D01*
X112683386Y-122260020D01*
X112540191Y-122170044D01*
X112380565Y-122114188D01*
X112380553Y-122114185D01*
X112212504Y-122095251D01*
X112212496Y-122095251D01*
X112044446Y-122114185D01*
X112044434Y-122114188D01*
X111884809Y-122170044D01*
X111884808Y-122170044D01*
X111741613Y-122260020D01*
X111622020Y-122379613D01*
X111532044Y-122522808D01*
X111532044Y-122522809D01*
X111476188Y-122682434D01*
X111476185Y-122682446D01*
X111457251Y-122850495D01*
X111457251Y-122850504D01*
X102500500Y-122850504D01*
X102500500Y-118900000D01*
X121144750Y-118900000D01*
X121163669Y-119043708D01*
X121163670Y-119043709D01*
X121219139Y-119177625D01*
X121307379Y-119292621D01*
X121422375Y-119380861D01*
X121556291Y-119436330D01*
X121699999Y-119455250D01*
X121699999Y-119455249D01*
X121700000Y-119455250D01*
X121843709Y-119436330D01*
X121977625Y-119380861D01*
X122092621Y-119292621D01*
X122180861Y-119177625D01*
X122236330Y-119043709D01*
X122255250Y-118900000D01*
X122236330Y-118756291D01*
X122180861Y-118622375D01*
X122092621Y-118507379D01*
X121977625Y-118419139D01*
X121977621Y-118419137D01*
X121843709Y-118363670D01*
X121843708Y-118363669D01*
X121700000Y-118344750D01*
X121556291Y-118363669D01*
X121556290Y-118363670D01*
X121422378Y-118419137D01*
X121422374Y-118419139D01*
X121307381Y-118507377D01*
X121307377Y-118507381D01*
X121219139Y-118622374D01*
X121219137Y-118622378D01*
X121163670Y-118756290D01*
X121163669Y-118756291D01*
X121144750Y-118899999D01*
X121144750Y-118900000D01*
X102500500Y-118900000D01*
X102500500Y-116700000D01*
X118644750Y-116700000D01*
X118663669Y-116843708D01*
X118663670Y-116843709D01*
X118719139Y-116977625D01*
X118807379Y-117092621D01*
X118922375Y-117180861D01*
X119056291Y-117236330D01*
X119200000Y-117255250D01*
X119343709Y-117236330D01*
X119477625Y-117180861D01*
X119592621Y-117092621D01*
X119680861Y-116977625D01*
X119736330Y-116843709D01*
X119755250Y-116700000D01*
X119736330Y-116556291D01*
X119680861Y-116422375D01*
X119592621Y-116307379D01*
X119477625Y-116219139D01*
X119477621Y-116219137D01*
X119343709Y-116163670D01*
X119343708Y-116163669D01*
X119200000Y-116144750D01*
X119056291Y-116163669D01*
X119056290Y-116163670D01*
X118922378Y-116219137D01*
X118922374Y-116219139D01*
X118807381Y-116307377D01*
X118807377Y-116307381D01*
X118719139Y-116422374D01*
X118719137Y-116422378D01*
X118663670Y-116556290D01*
X118663669Y-116556291D01*
X118644750Y-116699999D01*
X118644750Y-116700000D01*
X102500500Y-116700000D01*
X102500500Y-105050000D01*
X135994750Y-105050000D01*
X136013669Y-105193708D01*
X136013670Y-105193709D01*
X136069139Y-105327625D01*
X136157379Y-105442621D01*
X136272375Y-105530861D01*
X136406291Y-105586330D01*
X136550000Y-105605250D01*
X136693709Y-105586330D01*
X136827625Y-105530861D01*
X136942621Y-105442621D01*
X137030861Y-105327625D01*
X137086330Y-105193709D01*
X137105250Y-105050000D01*
X137086330Y-104906291D01*
X137030861Y-104772375D01*
X136942621Y-104657379D01*
X136827625Y-104569139D01*
X136827621Y-104569137D01*
X136693709Y-104513670D01*
X136693708Y-104513669D01*
X136550000Y-104494750D01*
X136406291Y-104513669D01*
X136406290Y-104513670D01*
X136272378Y-104569137D01*
X136272374Y-104569139D01*
X136157381Y-104657377D01*
X136157377Y-104657381D01*
X136069139Y-104772374D01*
X136069137Y-104772378D01*
X136013670Y-104906290D01*
X136013669Y-104906291D01*
X135994750Y-105049999D01*
X135994750Y-105050000D01*
X102500500Y-105050000D01*
X102500500Y-101900000D01*
X136744750Y-101900000D01*
X136763669Y-102043708D01*
X136763670Y-102043709D01*
X136819139Y-102177625D01*
X136907379Y-102292621D01*
X137022375Y-102380861D01*
X137156291Y-102436330D01*
X137299999Y-102455250D01*
X137299999Y-102455249D01*
X137300000Y-102455250D01*
X137443709Y-102436330D01*
X137577625Y-102380861D01*
X137692621Y-102292621D01*
X137780861Y-102177625D01*
X137836330Y-102043709D01*
X137855250Y-101900000D01*
X137836330Y-101756291D01*
X137780861Y-101622375D01*
X137692621Y-101507379D01*
X137577625Y-101419139D01*
X137577621Y-101419137D01*
X137443709Y-101363670D01*
X137443708Y-101363669D01*
X137300000Y-101344750D01*
X137156291Y-101363669D01*
X137156290Y-101363670D01*
X137022378Y-101419137D01*
X137022374Y-101419139D01*
X136907381Y-101507377D01*
X136907377Y-101507381D01*
X136819139Y-101622374D01*
X136819137Y-101622378D01*
X136763670Y-101756290D01*
X136763669Y-101756291D01*
X136744750Y-101899999D01*
X136744750Y-101900000D01*
X102500500Y-101900000D01*
X102500500Y-99900000D01*
X139344750Y-99900000D01*
X139363669Y-100043708D01*
X139363670Y-100043709D01*
X139419139Y-100177625D01*
X139507379Y-100292621D01*
X139622375Y-100380861D01*
X139756291Y-100436330D01*
X139899999Y-100455250D01*
X139899999Y-100455249D01*
X139900000Y-100455250D01*
X140043709Y-100436330D01*
X140177625Y-100380861D01*
X140292621Y-100292621D01*
X140380861Y-100177625D01*
X140436330Y-100043709D01*
X140455250Y-99900000D01*
X140436330Y-99756291D01*
X140380861Y-99622375D01*
X140292621Y-99507379D01*
X140177625Y-99419139D01*
X140177621Y-99419137D01*
X140043709Y-99363670D01*
X140043708Y-99363669D01*
X139900000Y-99344750D01*
X139756291Y-99363669D01*
X139756290Y-99363670D01*
X139622378Y-99419137D01*
X139622374Y-99419139D01*
X139507381Y-99507377D01*
X139507377Y-99507381D01*
X139419139Y-99622374D01*
X139419137Y-99622378D01*
X139363670Y-99756290D01*
X139363669Y-99756291D01*
X139344750Y-99899999D01*
X139344750Y-99900000D01*
X102500500Y-99900000D01*
X102500500Y-96700004D01*
X134044751Y-96700004D01*
X134063685Y-96868053D01*
X134063688Y-96868065D01*
X134119544Y-97027690D01*
X134119544Y-97027691D01*
X134209520Y-97170886D01*
X134209523Y-97170890D01*
X134329110Y-97290477D01*
X134472310Y-97380456D01*
X134536232Y-97402823D01*
X134631934Y-97436311D01*
X134631938Y-97436312D01*
X134631941Y-97436313D01*
X134631942Y-97436313D01*
X134631946Y-97436314D01*
X134799996Y-97455249D01*
X134800000Y-97455249D01*
X134800004Y-97455249D01*
X134968053Y-97436314D01*
X134968055Y-97436313D01*
X134968059Y-97436313D01*
X135127690Y-97380456D01*
X135270890Y-97290477D01*
X135390477Y-97170890D01*
X135480456Y-97027690D01*
X135536313Y-96868059D01*
X135555249Y-96700000D01*
X135555249Y-96699995D01*
X135536314Y-96531946D01*
X135536311Y-96531934D01*
X135513480Y-96466690D01*
X135480456Y-96372310D01*
X135390477Y-96229110D01*
X135270890Y-96109523D01*
X135270887Y-96109521D01*
X135270886Y-96109520D01*
X135127691Y-96019544D01*
X134968065Y-95963688D01*
X134968053Y-95963685D01*
X134800004Y-95944751D01*
X134799996Y-95944751D01*
X134631946Y-95963685D01*
X134631934Y-95963688D01*
X134472309Y-96019544D01*
X134472308Y-96019544D01*
X134329113Y-96109520D01*
X134209520Y-96229113D01*
X134119544Y-96372308D01*
X134119544Y-96372309D01*
X134063688Y-96531934D01*
X134063685Y-96531946D01*
X134044751Y-96699995D01*
X134044751Y-96700004D01*
X102500500Y-96700004D01*
X102500500Y-95500000D01*
X129044750Y-95500000D01*
X129063669Y-95643708D01*
X129063670Y-95643709D01*
X129119139Y-95777625D01*
X129207379Y-95892621D01*
X129322375Y-95980861D01*
X129456291Y-96036330D01*
X129600000Y-96055250D01*
X129743709Y-96036330D01*
X129877625Y-95980861D01*
X129992621Y-95892621D01*
X130080861Y-95777625D01*
X130136330Y-95643709D01*
X130155250Y-95500000D01*
X130136330Y-95356291D01*
X130080861Y-95222375D01*
X129992621Y-95107379D01*
X129929015Y-95058572D01*
X136393584Y-95058572D01*
X136412518Y-95226621D01*
X136412521Y-95226633D01*
X136468377Y-95386258D01*
X136468377Y-95386259D01*
X136539846Y-95500000D01*
X136558356Y-95529458D01*
X136677943Y-95649045D01*
X136821143Y-95739024D01*
X136885065Y-95761391D01*
X136980767Y-95794879D01*
X136980771Y-95794880D01*
X136980774Y-95794881D01*
X136980775Y-95794881D01*
X136980779Y-95794882D01*
X137148829Y-95813817D01*
X137148833Y-95813817D01*
X137148837Y-95813817D01*
X137316886Y-95794882D01*
X137316888Y-95794881D01*
X137316892Y-95794881D01*
X137476523Y-95739024D01*
X137619723Y-95649045D01*
X137739310Y-95529458D01*
X137829289Y-95386258D01*
X137885146Y-95226627D01*
X137885625Y-95222375D01*
X137899414Y-95100000D01*
X138144750Y-95100000D01*
X138163669Y-95243708D01*
X138163670Y-95243709D01*
X138219139Y-95377625D01*
X138307379Y-95492621D01*
X138422375Y-95580861D01*
X138556291Y-95636330D01*
X138700000Y-95655250D01*
X138843709Y-95636330D01*
X138977625Y-95580861D01*
X139092621Y-95492621D01*
X139180861Y-95377625D01*
X139236330Y-95243709D01*
X139255250Y-95100000D01*
X139236330Y-94956291D01*
X139180861Y-94822375D01*
X139092621Y-94707379D01*
X138977625Y-94619139D01*
X138977621Y-94619137D01*
X138843709Y-94563670D01*
X138843708Y-94563669D01*
X138700000Y-94544750D01*
X138556291Y-94563669D01*
X138556290Y-94563670D01*
X138422378Y-94619137D01*
X138422374Y-94619139D01*
X138307381Y-94707377D01*
X138307377Y-94707381D01*
X138219139Y-94822374D01*
X138219137Y-94822378D01*
X138163670Y-94956290D01*
X138163669Y-94956291D01*
X138144750Y-95099999D01*
X138144750Y-95100000D01*
X137899414Y-95100000D01*
X137904082Y-95058572D01*
X137904082Y-95058563D01*
X137885147Y-94890514D01*
X137885144Y-94890502D01*
X137861305Y-94822374D01*
X137829289Y-94730878D01*
X137759078Y-94619139D01*
X137739312Y-94587681D01*
X137739311Y-94587680D01*
X137739310Y-94587678D01*
X137619723Y-94468091D01*
X137619720Y-94468089D01*
X137619719Y-94468088D01*
X137476524Y-94378112D01*
X137316898Y-94322256D01*
X137316886Y-94322253D01*
X137148837Y-94303319D01*
X137148829Y-94303319D01*
X136980779Y-94322253D01*
X136980767Y-94322256D01*
X136821142Y-94378112D01*
X136821141Y-94378112D01*
X136677946Y-94468088D01*
X136558353Y-94587681D01*
X136468377Y-94730876D01*
X136468377Y-94730877D01*
X136412521Y-94890502D01*
X136412518Y-94890514D01*
X136393584Y-95058563D01*
X136393584Y-95058572D01*
X129929015Y-95058572D01*
X129877625Y-95019139D01*
X129877621Y-95019137D01*
X129743709Y-94963670D01*
X129743708Y-94963669D01*
X129600000Y-94944750D01*
X129456291Y-94963669D01*
X129456290Y-94963670D01*
X129322378Y-95019137D01*
X129322374Y-95019139D01*
X129207381Y-95107377D01*
X129207377Y-95107381D01*
X129119139Y-95222374D01*
X129119137Y-95222378D01*
X129063670Y-95356290D01*
X129063669Y-95356291D01*
X129044750Y-95499999D01*
X129044750Y-95500000D01*
X102500500Y-95500000D01*
X102500500Y-92600000D01*
X133944750Y-92600000D01*
X133963669Y-92743708D01*
X133963670Y-92743709D01*
X134019139Y-92877625D01*
X134107379Y-92992621D01*
X134222375Y-93080861D01*
X134356291Y-93136330D01*
X134500000Y-93155250D01*
X134643709Y-93136330D01*
X134777625Y-93080861D01*
X134892621Y-92992621D01*
X134980861Y-92877625D01*
X135036330Y-92743709D01*
X135055250Y-92600000D01*
X135036330Y-92456291D01*
X134980861Y-92322375D01*
X134892621Y-92207379D01*
X134777625Y-92119139D01*
X134777621Y-92119137D01*
X134643709Y-92063670D01*
X134643708Y-92063669D01*
X134500000Y-92044750D01*
X134356291Y-92063669D01*
X134356290Y-92063670D01*
X134222378Y-92119137D01*
X134222374Y-92119139D01*
X134107381Y-92207377D01*
X134107377Y-92207381D01*
X134019139Y-92322374D01*
X134019137Y-92322378D01*
X133963670Y-92456290D01*
X133963669Y-92456291D01*
X133944750Y-92599999D01*
X133944750Y-92600000D01*
X102500500Y-92600000D01*
X102500500Y-91200000D01*
X136144750Y-91200000D01*
X136163669Y-91343708D01*
X136163670Y-91343709D01*
X136219139Y-91477625D01*
X136307379Y-91592621D01*
X136422375Y-91680861D01*
X136556291Y-91736330D01*
X136699999Y-91755250D01*
X136699999Y-91755249D01*
X136700000Y-91755250D01*
X136843709Y-91736330D01*
X136977625Y-91680861D01*
X137092621Y-91592621D01*
X137180861Y-91477625D01*
X137213014Y-91400000D01*
X137444750Y-91400000D01*
X137463669Y-91543708D01*
X137463670Y-91543709D01*
X137519139Y-91677625D01*
X137607379Y-91792621D01*
X137722375Y-91880861D01*
X137856291Y-91936330D01*
X137999999Y-91955250D01*
X137999999Y-91955249D01*
X138000000Y-91955250D01*
X138143709Y-91936330D01*
X138277625Y-91880861D01*
X138392621Y-91792621D01*
X138480861Y-91677625D01*
X138536330Y-91543709D01*
X138555250Y-91400000D01*
X138536330Y-91256291D01*
X138480861Y-91122375D01*
X138392621Y-91007379D01*
X138383005Y-91000000D01*
X140444750Y-91000000D01*
X140463669Y-91143708D01*
X140463670Y-91143709D01*
X140519139Y-91277625D01*
X140607379Y-91392621D01*
X140722375Y-91480861D01*
X140856291Y-91536330D01*
X141000000Y-91555250D01*
X141143709Y-91536330D01*
X141277625Y-91480861D01*
X141392621Y-91392621D01*
X141480861Y-91277625D01*
X141536330Y-91143709D01*
X141555250Y-91000000D01*
X141536330Y-90856291D01*
X141480861Y-90722375D01*
X141392621Y-90607379D01*
X141277625Y-90519139D01*
X141277621Y-90519137D01*
X141143709Y-90463670D01*
X141143708Y-90463669D01*
X141000000Y-90444750D01*
X140856291Y-90463669D01*
X140856290Y-90463670D01*
X140722378Y-90519137D01*
X140722374Y-90519139D01*
X140607381Y-90607377D01*
X140607377Y-90607381D01*
X140519139Y-90722374D01*
X140519137Y-90722378D01*
X140463670Y-90856290D01*
X140463669Y-90856291D01*
X140444750Y-90999999D01*
X140444750Y-91000000D01*
X138383005Y-91000000D01*
X138277625Y-90919139D01*
X138277621Y-90919137D01*
X138143709Y-90863670D01*
X138143708Y-90863669D01*
X138000000Y-90844750D01*
X137856291Y-90863669D01*
X137856290Y-90863670D01*
X137722378Y-90919137D01*
X137722374Y-90919139D01*
X137607381Y-91007377D01*
X137607377Y-91007381D01*
X137519139Y-91122374D01*
X137519137Y-91122378D01*
X137463670Y-91256290D01*
X137463669Y-91256291D01*
X137444750Y-91399999D01*
X137444750Y-91400000D01*
X137213014Y-91400000D01*
X137236330Y-91343709D01*
X137255250Y-91200000D01*
X137236330Y-91056291D01*
X137180861Y-90922375D01*
X137092621Y-90807379D01*
X136977625Y-90719139D01*
X136977621Y-90719137D01*
X136843709Y-90663670D01*
X136843708Y-90663669D01*
X136700000Y-90644750D01*
X136556291Y-90663669D01*
X136556290Y-90663670D01*
X136422378Y-90719137D01*
X136422374Y-90719139D01*
X136307381Y-90807377D01*
X136307377Y-90807381D01*
X136219139Y-90922374D01*
X136219137Y-90922378D01*
X136163670Y-91056290D01*
X136163669Y-91056291D01*
X136144750Y-91199999D01*
X136144750Y-91200000D01*
X102500500Y-91200000D01*
X102500500Y-89375000D01*
X138819750Y-89375000D01*
X138838669Y-89518708D01*
X138838670Y-89518709D01*
X138894139Y-89652625D01*
X138982379Y-89767621D01*
X139097375Y-89855861D01*
X139231291Y-89911330D01*
X139375000Y-89930250D01*
X139518709Y-89911330D01*
X139652625Y-89855861D01*
X139767621Y-89767621D01*
X139855861Y-89652625D01*
X139911330Y-89518709D01*
X139930250Y-89375000D01*
X139911330Y-89231291D01*
X139855861Y-89097375D01*
X139767621Y-88982379D01*
X139652625Y-88894139D01*
X139652621Y-88894137D01*
X139518709Y-88838670D01*
X139518708Y-88838669D01*
X139375000Y-88819750D01*
X139231291Y-88838669D01*
X139231290Y-88838670D01*
X139097378Y-88894137D01*
X139097374Y-88894139D01*
X138982381Y-88982377D01*
X138982377Y-88982381D01*
X138894139Y-89097374D01*
X138894137Y-89097378D01*
X138838670Y-89231290D01*
X138838669Y-89231291D01*
X138819750Y-89374999D01*
X138819750Y-89375000D01*
X102500500Y-89375000D01*
X102500500Y-86800000D01*
X111944750Y-86800000D01*
X111963669Y-86943708D01*
X111963670Y-86943709D01*
X112019139Y-87077625D01*
X112107379Y-87192621D01*
X112222375Y-87280861D01*
X112356291Y-87336330D01*
X112499999Y-87355250D01*
X112499999Y-87355249D01*
X112500000Y-87355250D01*
X112643709Y-87336330D01*
X112777625Y-87280861D01*
X112892621Y-87192621D01*
X112980861Y-87077625D01*
X113036330Y-86943709D01*
X113055250Y-86800000D01*
X113036330Y-86656291D01*
X112980861Y-86522375D01*
X112892621Y-86407379D01*
X112777625Y-86319139D01*
X112777621Y-86319137D01*
X112643709Y-86263670D01*
X112643708Y-86263669D01*
X112500000Y-86244750D01*
X112356291Y-86263669D01*
X112356290Y-86263670D01*
X112222378Y-86319137D01*
X112222374Y-86319139D01*
X112107381Y-86407377D01*
X112107377Y-86407381D01*
X112019139Y-86522374D01*
X112019137Y-86522378D01*
X111963670Y-86656290D01*
X111963669Y-86656291D01*
X111944750Y-86799999D01*
X111944750Y-86800000D01*
X102500500Y-86800000D01*
X102500500Y-85300000D01*
X114444750Y-85300000D01*
X114463669Y-85443708D01*
X114463670Y-85443709D01*
X114519139Y-85577625D01*
X114607379Y-85692621D01*
X114722375Y-85780861D01*
X114856291Y-85836330D01*
X115000000Y-85855250D01*
X115143709Y-85836330D01*
X115277625Y-85780861D01*
X115392621Y-85692621D01*
X115480861Y-85577625D01*
X115536330Y-85443709D01*
X115555250Y-85300000D01*
X116944750Y-85300000D01*
X116963669Y-85443708D01*
X116963670Y-85443709D01*
X117019139Y-85577625D01*
X117107379Y-85692621D01*
X117222375Y-85780861D01*
X117356291Y-85836330D01*
X117500000Y-85855250D01*
X117643709Y-85836330D01*
X117777625Y-85780861D01*
X117892621Y-85692621D01*
X117980861Y-85577625D01*
X118036330Y-85443709D01*
X118055250Y-85300000D01*
X118036330Y-85156291D01*
X117980861Y-85022375D01*
X117892621Y-84907379D01*
X117777625Y-84819139D01*
X117777621Y-84819137D01*
X117643709Y-84763670D01*
X117643708Y-84763669D01*
X117500000Y-84744750D01*
X117356291Y-84763669D01*
X117356290Y-84763670D01*
X117222378Y-84819137D01*
X117222374Y-84819139D01*
X117107381Y-84907377D01*
X117107377Y-84907381D01*
X117019139Y-85022374D01*
X117019137Y-85022378D01*
X116963670Y-85156290D01*
X116963669Y-85156291D01*
X116944750Y-85299999D01*
X116944750Y-85300000D01*
X115555250Y-85300000D01*
X115536330Y-85156291D01*
X115480861Y-85022375D01*
X115392621Y-84907379D01*
X115277625Y-84819139D01*
X115277621Y-84819137D01*
X115143709Y-84763670D01*
X115143708Y-84763669D01*
X115000000Y-84744750D01*
X114856291Y-84763669D01*
X114856290Y-84763670D01*
X114722378Y-84819137D01*
X114722374Y-84819139D01*
X114607381Y-84907377D01*
X114607377Y-84907381D01*
X114519139Y-85022374D01*
X114519137Y-85022378D01*
X114463670Y-85156290D01*
X114463669Y-85156291D01*
X114444750Y-85299999D01*
X114444750Y-85300000D01*
X102500500Y-85300000D01*
X102500500Y-82900000D01*
X110244750Y-82900000D01*
X110263669Y-83043708D01*
X110263670Y-83043709D01*
X110319139Y-83177625D01*
X110407379Y-83292621D01*
X110522375Y-83380861D01*
X110656291Y-83436330D01*
X110800000Y-83455250D01*
X110943709Y-83436330D01*
X111077625Y-83380861D01*
X111192621Y-83292621D01*
X111280861Y-83177625D01*
X111336330Y-83043709D01*
X111355250Y-82900000D01*
X111336330Y-82756291D01*
X111280861Y-82622375D01*
X111192621Y-82507379D01*
X111077625Y-82419139D01*
X111077621Y-82419137D01*
X110943709Y-82363670D01*
X110943708Y-82363669D01*
X110800000Y-82344750D01*
X110656291Y-82363669D01*
X110656290Y-82363670D01*
X110522378Y-82419137D01*
X110522374Y-82419139D01*
X110407381Y-82507377D01*
X110407377Y-82507381D01*
X110319139Y-82622374D01*
X110319137Y-82622378D01*
X110263670Y-82756290D01*
X110263669Y-82756291D01*
X110244750Y-82899999D01*
X110244750Y-82900000D01*
X102500500Y-82900000D01*
X102500500Y-82000000D01*
X112144750Y-82000000D01*
X112163669Y-82143708D01*
X112163670Y-82143709D01*
X112219139Y-82277625D01*
X112307379Y-82392621D01*
X112422375Y-82480861D01*
X112556291Y-82536330D01*
X112699999Y-82555250D01*
X112699999Y-82555249D01*
X112700000Y-82555250D01*
X112843709Y-82536330D01*
X112977625Y-82480861D01*
X113092621Y-82392621D01*
X113180861Y-82277625D01*
X113236330Y-82143709D01*
X113255250Y-82000000D01*
X113236330Y-81856291D01*
X113180861Y-81722375D01*
X113092621Y-81607379D01*
X112977625Y-81519139D01*
X112977621Y-81519137D01*
X112843709Y-81463670D01*
X112843708Y-81463669D01*
X112700000Y-81444750D01*
X112556291Y-81463669D01*
X112556290Y-81463670D01*
X112422378Y-81519137D01*
X112422374Y-81519139D01*
X112307381Y-81607377D01*
X112307377Y-81607381D01*
X112219139Y-81722374D01*
X112219137Y-81722378D01*
X112163670Y-81856290D01*
X112163669Y-81856291D01*
X112144750Y-81999999D01*
X112144750Y-82000000D01*
X102500500Y-82000000D01*
X102500500Y-79500000D01*
X122244750Y-79500000D01*
X122263669Y-79643708D01*
X122263670Y-79643709D01*
X122319139Y-79777625D01*
X122407379Y-79892621D01*
X122522375Y-79980861D01*
X122656291Y-80036330D01*
X122800000Y-80055250D01*
X122943709Y-80036330D01*
X123077625Y-79980861D01*
X123192621Y-79892621D01*
X123280861Y-79777625D01*
X123313014Y-79700000D01*
X127044750Y-79700000D01*
X127063669Y-79843708D01*
X127063670Y-79843709D01*
X127119139Y-79977625D01*
X127207379Y-80092621D01*
X127322375Y-80180861D01*
X127456291Y-80236330D01*
X127600000Y-80255250D01*
X127743709Y-80236330D01*
X127877625Y-80180861D01*
X127992621Y-80092621D01*
X128080861Y-79977625D01*
X128136330Y-79843709D01*
X128155250Y-79700000D01*
X128136330Y-79556291D01*
X128080861Y-79422375D01*
X127992621Y-79307379D01*
X127877625Y-79219139D01*
X127877621Y-79219137D01*
X127743709Y-79163670D01*
X127743708Y-79163669D01*
X127600000Y-79144750D01*
X127456291Y-79163669D01*
X127456290Y-79163670D01*
X127322378Y-79219137D01*
X127322374Y-79219139D01*
X127207381Y-79307377D01*
X127207377Y-79307381D01*
X127119139Y-79422374D01*
X127119137Y-79422378D01*
X127063670Y-79556290D01*
X127063669Y-79556291D01*
X127044750Y-79699999D01*
X127044750Y-79700000D01*
X123313014Y-79700000D01*
X123336330Y-79643709D01*
X123355250Y-79500000D01*
X123336330Y-79356291D01*
X123280861Y-79222375D01*
X123192621Y-79107379D01*
X123077625Y-79019139D01*
X123077621Y-79019137D01*
X122943709Y-78963670D01*
X122943708Y-78963669D01*
X122800000Y-78944750D01*
X122656291Y-78963669D01*
X122656290Y-78963670D01*
X122522378Y-79019137D01*
X122522374Y-79019139D01*
X122407381Y-79107377D01*
X122407377Y-79107381D01*
X122319139Y-79222374D01*
X122319137Y-79222378D01*
X122263670Y-79356290D01*
X122263669Y-79356291D01*
X122244750Y-79499999D01*
X122244750Y-79500000D01*
X102500500Y-79500000D01*
X102500500Y-78700000D01*
X108144750Y-78700000D01*
X108163669Y-78843708D01*
X108163670Y-78843709D01*
X108213358Y-78963670D01*
X108219139Y-78977625D01*
X108307379Y-79092621D01*
X108422375Y-79180861D01*
X108556291Y-79236330D01*
X108699999Y-79255250D01*
X108699999Y-79255249D01*
X108700000Y-79255250D01*
X108843709Y-79236330D01*
X108977625Y-79180861D01*
X109092621Y-79092621D01*
X109180861Y-78977625D01*
X109236330Y-78843709D01*
X109255250Y-78700000D01*
X109236330Y-78556291D01*
X109180861Y-78422375D01*
X109092621Y-78307379D01*
X108977625Y-78219139D01*
X108977621Y-78219137D01*
X108843709Y-78163670D01*
X108843708Y-78163669D01*
X108700000Y-78144750D01*
X108556291Y-78163669D01*
X108556290Y-78163670D01*
X108422378Y-78219137D01*
X108422374Y-78219139D01*
X108307381Y-78307377D01*
X108307377Y-78307381D01*
X108219139Y-78422374D01*
X108219137Y-78422378D01*
X108163670Y-78556290D01*
X108163669Y-78556291D01*
X108144750Y-78699999D01*
X108144750Y-78700000D01*
X102500500Y-78700000D01*
X102500500Y-78000000D01*
X130044750Y-78000000D01*
X130063669Y-78143708D01*
X130063670Y-78143709D01*
X130094913Y-78219139D01*
X130119139Y-78277625D01*
X130207379Y-78392621D01*
X130322375Y-78480861D01*
X130456291Y-78536330D01*
X130599999Y-78555250D01*
X130599999Y-78555249D01*
X130600000Y-78555250D01*
X130743709Y-78536330D01*
X130877625Y-78480861D01*
X130992621Y-78392621D01*
X131080861Y-78277625D01*
X131136330Y-78143709D01*
X131155250Y-78000000D01*
X131136330Y-77856291D01*
X131080861Y-77722375D01*
X130992621Y-77607379D01*
X130877625Y-77519139D01*
X130877621Y-77519137D01*
X130743709Y-77463670D01*
X130743708Y-77463669D01*
X130600000Y-77444750D01*
X130456291Y-77463669D01*
X130456290Y-77463670D01*
X130322378Y-77519137D01*
X130322374Y-77519139D01*
X130207381Y-77607377D01*
X130207377Y-77607381D01*
X130119139Y-77722374D01*
X130119137Y-77722378D01*
X130063670Y-77856290D01*
X130063669Y-77856291D01*
X130044750Y-77999999D01*
X130044750Y-78000000D01*
X102500500Y-78000000D01*
X102500500Y-71800000D01*
X137544750Y-71800000D01*
X137563669Y-71943708D01*
X137563670Y-71943709D01*
X137619139Y-72077625D01*
X137707379Y-72192621D01*
X137822375Y-72280861D01*
X137956291Y-72336330D01*
X138100000Y-72355250D01*
X138243709Y-72336330D01*
X138377625Y-72280861D01*
X138492621Y-72192621D01*
X138580861Y-72077625D01*
X138636330Y-71943709D01*
X138655250Y-71800000D01*
X138636330Y-71656291D01*
X138580861Y-71522375D01*
X138492621Y-71407379D01*
X138377625Y-71319139D01*
X138377621Y-71319137D01*
X138243709Y-71263670D01*
X138243708Y-71263669D01*
X138100000Y-71244750D01*
X137956291Y-71263669D01*
X137956290Y-71263670D01*
X137822378Y-71319137D01*
X137822374Y-71319139D01*
X137707381Y-71407377D01*
X137707377Y-71407381D01*
X137619139Y-71522374D01*
X137619137Y-71522378D01*
X137563670Y-71656290D01*
X137563669Y-71656291D01*
X137544750Y-71799999D01*
X137544750Y-71800000D01*
X102500500Y-71800000D01*
X102500500Y-65490000D01*
X134854750Y-65490000D01*
X134873669Y-65633708D01*
X134873670Y-65633709D01*
X134929139Y-65767625D01*
X135017379Y-65882621D01*
X135132375Y-65970861D01*
X135266291Y-66026330D01*
X135410000Y-66045250D01*
X135553709Y-66026330D01*
X135687625Y-65970861D01*
X135802621Y-65882621D01*
X135890861Y-65767625D01*
X135946330Y-65633709D01*
X135965250Y-65490000D01*
X135946330Y-65346291D01*
X135890861Y-65212375D01*
X135802621Y-65097379D01*
X135687625Y-65009139D01*
X135687621Y-65009137D01*
X135553709Y-64953670D01*
X135553708Y-64953669D01*
X135410000Y-64934750D01*
X135266291Y-64953669D01*
X135266290Y-64953670D01*
X135132378Y-65009137D01*
X135132374Y-65009139D01*
X135017381Y-65097377D01*
X135017377Y-65097381D01*
X134929139Y-65212374D01*
X134929137Y-65212378D01*
X134873670Y-65346290D01*
X134873669Y-65346291D01*
X134854750Y-65489999D01*
X134854750Y-65490000D01*
X102500500Y-65490000D01*
X102500500Y-63900004D01*
X131495251Y-63900004D01*
X131514185Y-64068053D01*
X131514188Y-64068065D01*
X131570044Y-64227690D01*
X131570044Y-64227691D01*
X131638297Y-64336314D01*
X131660023Y-64370890D01*
X131779610Y-64490477D01*
X131922810Y-64580456D01*
X131986732Y-64602823D01*
X132082434Y-64636311D01*
X132082438Y-64636312D01*
X132082441Y-64636313D01*
X132082442Y-64636313D01*
X132082446Y-64636314D01*
X132250496Y-64655249D01*
X132250500Y-64655249D01*
X132250504Y-64655249D01*
X132418553Y-64636314D01*
X132418555Y-64636313D01*
X132418559Y-64636313D01*
X132578190Y-64580456D01*
X132721390Y-64490477D01*
X132840977Y-64370890D01*
X132930956Y-64227690D01*
X132986813Y-64068059D01*
X133005749Y-63900000D01*
X133005749Y-63899995D01*
X132986814Y-63731946D01*
X132986811Y-63731934D01*
X132940646Y-63600004D01*
X134444751Y-63600004D01*
X134463685Y-63768053D01*
X134463688Y-63768065D01*
X134519544Y-63927690D01*
X134519544Y-63927691D01*
X134609520Y-64070886D01*
X134609523Y-64070890D01*
X134729110Y-64190477D01*
X134872310Y-64280456D01*
X134936232Y-64302823D01*
X135031934Y-64336311D01*
X135031938Y-64336312D01*
X135031941Y-64336313D01*
X135031942Y-64336313D01*
X135031946Y-64336314D01*
X135199996Y-64355249D01*
X135200000Y-64355249D01*
X135200004Y-64355249D01*
X135368053Y-64336314D01*
X135368055Y-64336313D01*
X135368059Y-64336313D01*
X135527690Y-64280456D01*
X135670890Y-64190477D01*
X135790477Y-64070890D01*
X135880456Y-63927690D01*
X135936313Y-63768059D01*
X135940383Y-63731941D01*
X135955249Y-63600004D01*
X135955249Y-63599995D01*
X135936314Y-63431946D01*
X135936311Y-63431934D01*
X135893476Y-63309520D01*
X135880456Y-63272310D01*
X135790477Y-63129110D01*
X135670890Y-63009523D01*
X135670887Y-63009521D01*
X135670886Y-63009520D01*
X135527691Y-62919544D01*
X135368065Y-62863688D01*
X135368053Y-62863685D01*
X135200004Y-62844751D01*
X135199996Y-62844751D01*
X135031946Y-62863685D01*
X135031934Y-62863688D01*
X134872309Y-62919544D01*
X134872308Y-62919544D01*
X134729113Y-63009520D01*
X134609520Y-63129113D01*
X134519544Y-63272308D01*
X134519544Y-63272309D01*
X134463688Y-63431934D01*
X134463685Y-63431946D01*
X134444751Y-63599995D01*
X134444751Y-63600004D01*
X132940646Y-63600004D01*
X132940643Y-63599995D01*
X132930956Y-63572310D01*
X132842751Y-63431934D01*
X132840979Y-63429113D01*
X132840978Y-63429112D01*
X132840977Y-63429110D01*
X132721390Y-63309523D01*
X132721387Y-63309521D01*
X132721386Y-63309520D01*
X132578191Y-63219544D01*
X132418565Y-63163688D01*
X132418553Y-63163685D01*
X132250504Y-63144751D01*
X132250496Y-63144751D01*
X132082446Y-63163685D01*
X132082434Y-63163688D01*
X131922809Y-63219544D01*
X131922808Y-63219544D01*
X131779613Y-63309520D01*
X131660020Y-63429113D01*
X131570044Y-63572308D01*
X131570044Y-63572309D01*
X131514188Y-63731934D01*
X131514185Y-63731946D01*
X131495251Y-63899995D01*
X131495251Y-63900004D01*
X102500500Y-63900004D01*
X102500500Y-60749999D01*
X121900000Y-60749999D01*
X121919698Y-61000293D01*
X121978310Y-61244428D01*
X122074388Y-61476382D01*
X122074394Y-61476394D01*
X122205569Y-61690450D01*
X122205570Y-61690452D01*
X122205571Y-61690454D01*
X122205573Y-61690456D01*
X122368629Y-61881371D01*
X122559544Y-62044427D01*
X122559546Y-62044428D01*
X122559547Y-62044429D01*
X122559549Y-62044430D01*
X122773605Y-62175605D01*
X122773617Y-62175611D01*
X123005571Y-62271689D01*
X123005573Y-62271690D01*
X123249705Y-62330301D01*
X123500000Y-62350000D01*
X123750295Y-62330301D01*
X123994427Y-62271690D01*
X124226385Y-62175610D01*
X124226389Y-62175607D01*
X124226394Y-62175605D01*
X124318912Y-62118908D01*
X124440456Y-62044427D01*
X124631371Y-61881371D01*
X124794427Y-61690456D01*
X124868908Y-61568912D01*
X124925605Y-61476394D01*
X124925607Y-61476389D01*
X124925610Y-61476385D01*
X125021690Y-61244427D01*
X125080301Y-61000295D01*
X125100000Y-60750000D01*
X125080301Y-60499705D01*
X125021690Y-60255573D01*
X124925610Y-60023615D01*
X124925605Y-60023605D01*
X124794430Y-59809549D01*
X124794429Y-59809547D01*
X124794428Y-59809546D01*
X124794427Y-59809544D01*
X124631371Y-59618629D01*
X124631364Y-59618623D01*
X124631361Y-59618620D01*
X124550432Y-59549500D01*
X131194750Y-59549500D01*
X131213669Y-59693208D01*
X131213670Y-59693209D01*
X131269139Y-59827125D01*
X131357379Y-59942121D01*
X131472375Y-60030361D01*
X131606291Y-60085830D01*
X131749999Y-60104750D01*
X131749999Y-60104749D01*
X131750000Y-60104750D01*
X131893709Y-60085830D01*
X132027625Y-60030361D01*
X132142621Y-59942121D01*
X132230861Y-59827125D01*
X132286330Y-59693209D01*
X132305250Y-59549500D01*
X132296213Y-59480862D01*
X132286330Y-59405791D01*
X132230861Y-59271875D01*
X132142621Y-59156879D01*
X132027625Y-59068639D01*
X132027621Y-59068637D01*
X131893709Y-59013170D01*
X131893708Y-59013169D01*
X131793677Y-59000000D01*
X134444750Y-59000000D01*
X134463669Y-59143708D01*
X134463670Y-59143709D01*
X134516758Y-59271878D01*
X134519139Y-59277625D01*
X134607379Y-59392621D01*
X134722375Y-59480861D01*
X134856291Y-59536330D01*
X135000000Y-59555250D01*
X135143709Y-59536330D01*
X135277625Y-59480861D01*
X135392621Y-59392621D01*
X135480861Y-59277625D01*
X135536330Y-59143709D01*
X135555250Y-59000000D01*
X135536330Y-58856291D01*
X135480861Y-58722375D01*
X135392621Y-58607379D01*
X135277625Y-58519139D01*
X135277621Y-58519137D01*
X135143709Y-58463670D01*
X135143708Y-58463669D01*
X135000000Y-58444750D01*
X134856291Y-58463669D01*
X134856290Y-58463670D01*
X134722378Y-58519137D01*
X134722374Y-58519139D01*
X134607381Y-58607377D01*
X134607377Y-58607381D01*
X134519139Y-58722374D01*
X134519137Y-58722378D01*
X134463670Y-58856290D01*
X134463669Y-58856291D01*
X134444750Y-58999999D01*
X134444750Y-59000000D01*
X131793677Y-59000000D01*
X131750000Y-58994250D01*
X131606291Y-59013169D01*
X131606290Y-59013170D01*
X131472378Y-59068637D01*
X131472374Y-59068639D01*
X131357381Y-59156877D01*
X131357377Y-59156881D01*
X131269139Y-59271874D01*
X131269137Y-59271878D01*
X131213670Y-59405790D01*
X131213669Y-59405791D01*
X131194750Y-59549499D01*
X131194750Y-59549500D01*
X124550432Y-59549500D01*
X124531226Y-59533097D01*
X124440456Y-59455573D01*
X124440454Y-59455571D01*
X124440452Y-59455570D01*
X124440450Y-59455569D01*
X124226394Y-59324394D01*
X124226382Y-59324388D01*
X123994428Y-59228310D01*
X123994429Y-59228310D01*
X123750293Y-59169698D01*
X123500000Y-59150000D01*
X123249706Y-59169698D01*
X123005571Y-59228310D01*
X122773617Y-59324388D01*
X122773605Y-59324394D01*
X122559549Y-59455569D01*
X122559547Y-59455570D01*
X122368638Y-59618620D01*
X122368620Y-59618638D01*
X122205570Y-59809547D01*
X122205569Y-59809549D01*
X122074394Y-60023605D01*
X122074388Y-60023617D01*
X121978310Y-60255571D01*
X121919698Y-60499706D01*
X121900000Y-60749999D01*
X102500500Y-60749999D01*
X102500500Y-57900004D01*
X136444751Y-57900004D01*
X136463685Y-58068053D01*
X136463688Y-58068065D01*
X136519544Y-58227690D01*
X136519544Y-58227691D01*
X136609520Y-58370886D01*
X136609523Y-58370890D01*
X136729110Y-58490477D01*
X136872310Y-58580456D01*
X136936232Y-58602823D01*
X137031934Y-58636311D01*
X137031938Y-58636312D01*
X137031941Y-58636313D01*
X137031942Y-58636313D01*
X137031946Y-58636314D01*
X137199996Y-58655249D01*
X137200000Y-58655249D01*
X137200004Y-58655249D01*
X137368053Y-58636314D01*
X137368055Y-58636313D01*
X137368059Y-58636313D01*
X137527690Y-58580456D01*
X137670890Y-58490477D01*
X137790477Y-58370890D01*
X137880456Y-58227690D01*
X137936313Y-58068059D01*
X137955249Y-57900000D01*
X137955249Y-57899995D01*
X137936314Y-57731946D01*
X137936311Y-57731934D01*
X137885135Y-57585683D01*
X137880456Y-57572310D01*
X137790477Y-57429110D01*
X137670890Y-57309523D01*
X137670887Y-57309521D01*
X137670886Y-57309520D01*
X137527691Y-57219544D01*
X137368065Y-57163688D01*
X137368053Y-57163685D01*
X137200004Y-57144751D01*
X137199996Y-57144751D01*
X137031946Y-57163685D01*
X137031934Y-57163688D01*
X136872309Y-57219544D01*
X136872308Y-57219544D01*
X136729113Y-57309520D01*
X136609520Y-57429113D01*
X136519544Y-57572308D01*
X136519544Y-57572309D01*
X136463688Y-57731934D01*
X136463685Y-57731946D01*
X136444751Y-57899995D01*
X136444751Y-57900004D01*
X102500500Y-57900004D01*
X102500500Y-56967232D01*
X102519407Y-56909041D01*
X102568907Y-56873077D01*
X102630093Y-56873077D01*
X102679593Y-56909041D01*
X102683912Y-56915506D01*
X102701161Y-56943655D01*
X102701168Y-56943664D01*
X102714662Y-56959464D01*
X102864776Y-57135224D01*
X102864782Y-57135229D01*
X102864785Y-57135232D01*
X102898102Y-57163687D01*
X103056341Y-57298836D01*
X103056343Y-57298837D01*
X103271137Y-57430464D01*
X103271143Y-57430467D01*
X103503887Y-57526872D01*
X103503889Y-57526873D01*
X103748852Y-57585683D01*
X103937118Y-57600500D01*
X103937123Y-57600500D01*
X104062877Y-57600500D01*
X104062882Y-57600500D01*
X104251148Y-57585683D01*
X104496111Y-57526873D01*
X104728859Y-57430466D01*
X104943659Y-57298836D01*
X105135224Y-57135224D01*
X105298836Y-56943659D01*
X105430466Y-56728859D01*
X105526873Y-56496111D01*
X105585683Y-56251148D01*
X105605449Y-56000000D01*
X105585683Y-55748852D01*
X105526873Y-55503889D01*
X105430466Y-55271141D01*
X105298836Y-55056341D01*
X105135224Y-54864776D01*
X105135217Y-54864770D01*
X105135214Y-54864767D01*
X104943664Y-54701168D01*
X104943656Y-54701162D01*
X104915505Y-54683911D01*
X104875769Y-54637385D01*
X104870968Y-54576389D01*
X104902938Y-54524220D01*
X104959466Y-54500805D01*
X104967233Y-54500500D01*
X142032767Y-54500500D01*
X142090958Y-54519407D01*
G37*
%TD.AperFunction*%
%TD*%
M02*
