%TF.GenerationSoftware,KiCad,Pcbnew,8.0.5*%
%TF.CreationDate,2024-09-27T18:29:33-04:00*%
%TF.ProjectId,oe-commutator-controller,6f652d63-6f6d-46d7-9574-61746f722d63,D*%
%TF.SameCoordinates,Original*%
%TF.FileFunction,AssemblyDrawing,Top*%
%FSLAX46Y46*%
G04 Gerber Fmt 4.6, Leading zero omitted, Abs format (unit mm)*
G04 Created by KiCad (PCBNEW 8.0.5) date 2024-09-27 18:29:33*
%MOMM*%
%LPD*%
G01*
G04 APERTURE LIST*
%ADD10C,0.040000*%
%ADD11C,0.150000*%
%ADD12C,0.060000*%
%ADD13C,0.080000*%
%ADD14C,0.120000*%
%ADD15C,0.110000*%
%ADD16C,0.105000*%
%ADD17C,0.100000*%
%ADD18C,0.020000*%
G04 APERTURE END LIST*
D10*
X124356667Y-80618200D02*
X124270000Y-80494391D01*
X124208095Y-80618200D02*
X124208095Y-80358200D01*
X124208095Y-80358200D02*
X124307143Y-80358200D01*
X124307143Y-80358200D02*
X124331905Y-80370581D01*
X124331905Y-80370581D02*
X124344286Y-80382962D01*
X124344286Y-80382962D02*
X124356667Y-80407724D01*
X124356667Y-80407724D02*
X124356667Y-80444867D01*
X124356667Y-80444867D02*
X124344286Y-80469629D01*
X124344286Y-80469629D02*
X124331905Y-80482010D01*
X124331905Y-80482010D02*
X124307143Y-80494391D01*
X124307143Y-80494391D02*
X124208095Y-80494391D01*
X124579524Y-80444867D02*
X124579524Y-80618200D01*
X124517619Y-80345820D02*
X124455714Y-80531534D01*
X124455714Y-80531534D02*
X124616667Y-80531534D01*
D11*
X111766666Y-112829819D02*
X111766666Y-113544104D01*
X111766666Y-113544104D02*
X111719047Y-113686961D01*
X111719047Y-113686961D02*
X111623809Y-113782200D01*
X111623809Y-113782200D02*
X111480952Y-113829819D01*
X111480952Y-113829819D02*
X111385714Y-113829819D01*
X112766666Y-113829819D02*
X112195238Y-113829819D01*
X112480952Y-113829819D02*
X112480952Y-112829819D01*
X112480952Y-112829819D02*
X112385714Y-112972676D01*
X112385714Y-112972676D02*
X112290476Y-113067914D01*
X112290476Y-113067914D02*
X112195238Y-113115533D01*
D12*
X134643832Y-67757142D02*
X134662880Y-67776190D01*
X134662880Y-67776190D02*
X134681927Y-67833332D01*
X134681927Y-67833332D02*
X134681927Y-67871428D01*
X134681927Y-67871428D02*
X134662880Y-67928571D01*
X134662880Y-67928571D02*
X134624784Y-67966666D01*
X134624784Y-67966666D02*
X134586689Y-67985713D01*
X134586689Y-67985713D02*
X134510499Y-68004761D01*
X134510499Y-68004761D02*
X134453356Y-68004761D01*
X134453356Y-68004761D02*
X134377165Y-67985713D01*
X134377165Y-67985713D02*
X134339070Y-67966666D01*
X134339070Y-67966666D02*
X134300975Y-67928571D01*
X134300975Y-67928571D02*
X134281927Y-67871428D01*
X134281927Y-67871428D02*
X134281927Y-67833332D01*
X134281927Y-67833332D02*
X134300975Y-67776190D01*
X134300975Y-67776190D02*
X134320022Y-67757142D01*
X134281927Y-67623809D02*
X134281927Y-67376190D01*
X134281927Y-67376190D02*
X134434308Y-67509523D01*
X134434308Y-67509523D02*
X134434308Y-67452380D01*
X134434308Y-67452380D02*
X134453356Y-67414285D01*
X134453356Y-67414285D02*
X134472403Y-67395237D01*
X134472403Y-67395237D02*
X134510499Y-67376190D01*
X134510499Y-67376190D02*
X134605737Y-67376190D01*
X134605737Y-67376190D02*
X134643832Y-67395237D01*
X134643832Y-67395237D02*
X134662880Y-67414285D01*
X134662880Y-67414285D02*
X134681927Y-67452380D01*
X134681927Y-67452380D02*
X134681927Y-67566666D01*
X134681927Y-67566666D02*
X134662880Y-67604761D01*
X134662880Y-67604761D02*
X134643832Y-67623809D01*
X134681927Y-67185714D02*
X134681927Y-67109523D01*
X134681927Y-67109523D02*
X134662880Y-67071428D01*
X134662880Y-67071428D02*
X134643832Y-67052380D01*
X134643832Y-67052380D02*
X134586689Y-67014285D01*
X134586689Y-67014285D02*
X134510499Y-66995238D01*
X134510499Y-66995238D02*
X134358118Y-66995238D01*
X134358118Y-66995238D02*
X134320022Y-67014285D01*
X134320022Y-67014285D02*
X134300975Y-67033333D01*
X134300975Y-67033333D02*
X134281927Y-67071428D01*
X134281927Y-67071428D02*
X134281927Y-67147619D01*
X134281927Y-67147619D02*
X134300975Y-67185714D01*
X134300975Y-67185714D02*
X134320022Y-67204761D01*
X134320022Y-67204761D02*
X134358118Y-67223809D01*
X134358118Y-67223809D02*
X134453356Y-67223809D01*
X134453356Y-67223809D02*
X134491451Y-67204761D01*
X134491451Y-67204761D02*
X134510499Y-67185714D01*
X134510499Y-67185714D02*
X134529546Y-67147619D01*
X134529546Y-67147619D02*
X134529546Y-67071428D01*
X134529546Y-67071428D02*
X134510499Y-67033333D01*
X134510499Y-67033333D02*
X134491451Y-67014285D01*
X134491451Y-67014285D02*
X134453356Y-66995238D01*
D10*
X135456667Y-77618200D02*
X135370000Y-77494391D01*
X135308095Y-77618200D02*
X135308095Y-77358200D01*
X135308095Y-77358200D02*
X135407143Y-77358200D01*
X135407143Y-77358200D02*
X135431905Y-77370581D01*
X135431905Y-77370581D02*
X135444286Y-77382962D01*
X135444286Y-77382962D02*
X135456667Y-77407724D01*
X135456667Y-77407724D02*
X135456667Y-77444867D01*
X135456667Y-77444867D02*
X135444286Y-77469629D01*
X135444286Y-77469629D02*
X135431905Y-77482010D01*
X135431905Y-77482010D02*
X135407143Y-77494391D01*
X135407143Y-77494391D02*
X135308095Y-77494391D01*
X135580476Y-77618200D02*
X135630000Y-77618200D01*
X135630000Y-77618200D02*
X135654762Y-77605820D01*
X135654762Y-77605820D02*
X135667143Y-77593439D01*
X135667143Y-77593439D02*
X135691905Y-77556296D01*
X135691905Y-77556296D02*
X135704286Y-77506772D01*
X135704286Y-77506772D02*
X135704286Y-77407724D01*
X135704286Y-77407724D02*
X135691905Y-77382962D01*
X135691905Y-77382962D02*
X135679524Y-77370581D01*
X135679524Y-77370581D02*
X135654762Y-77358200D01*
X135654762Y-77358200D02*
X135605238Y-77358200D01*
X135605238Y-77358200D02*
X135580476Y-77370581D01*
X135580476Y-77370581D02*
X135568095Y-77382962D01*
X135568095Y-77382962D02*
X135555714Y-77407724D01*
X135555714Y-77407724D02*
X135555714Y-77469629D01*
X135555714Y-77469629D02*
X135568095Y-77494391D01*
X135568095Y-77494391D02*
X135580476Y-77506772D01*
X135580476Y-77506772D02*
X135605238Y-77519153D01*
X135605238Y-77519153D02*
X135654762Y-77519153D01*
X135654762Y-77519153D02*
X135679524Y-77506772D01*
X135679524Y-77506772D02*
X135691905Y-77494391D01*
X135691905Y-77494391D02*
X135704286Y-77469629D01*
X106189765Y-78460714D02*
X106201670Y-78472618D01*
X106201670Y-78472618D02*
X106213574Y-78508333D01*
X106213574Y-78508333D02*
X106213574Y-78532142D01*
X106213574Y-78532142D02*
X106201670Y-78567856D01*
X106201670Y-78567856D02*
X106177860Y-78591666D01*
X106177860Y-78591666D02*
X106154050Y-78603571D01*
X106154050Y-78603571D02*
X106106431Y-78615475D01*
X106106431Y-78615475D02*
X106070717Y-78615475D01*
X106070717Y-78615475D02*
X106023098Y-78603571D01*
X106023098Y-78603571D02*
X105999289Y-78591666D01*
X105999289Y-78591666D02*
X105975479Y-78567856D01*
X105975479Y-78567856D02*
X105963574Y-78532142D01*
X105963574Y-78532142D02*
X105963574Y-78508333D01*
X105963574Y-78508333D02*
X105975479Y-78472618D01*
X105975479Y-78472618D02*
X105987384Y-78460714D01*
X106213574Y-78222618D02*
X106213574Y-78365475D01*
X106213574Y-78294047D02*
X105963574Y-78294047D01*
X105963574Y-78294047D02*
X105999289Y-78317856D01*
X105999289Y-78317856D02*
X106023098Y-78341666D01*
X106023098Y-78341666D02*
X106035003Y-78365475D01*
X105963574Y-77996428D02*
X105963574Y-78115476D01*
X105963574Y-78115476D02*
X106082622Y-78127380D01*
X106082622Y-78127380D02*
X106070717Y-78115476D01*
X106070717Y-78115476D02*
X106058812Y-78091666D01*
X106058812Y-78091666D02*
X106058812Y-78032142D01*
X106058812Y-78032142D02*
X106070717Y-78008333D01*
X106070717Y-78008333D02*
X106082622Y-77996428D01*
X106082622Y-77996428D02*
X106106431Y-77984523D01*
X106106431Y-77984523D02*
X106165955Y-77984523D01*
X106165955Y-77984523D02*
X106189765Y-77996428D01*
X106189765Y-77996428D02*
X106201670Y-78008333D01*
X106201670Y-78008333D02*
X106213574Y-78032142D01*
X106213574Y-78032142D02*
X106213574Y-78091666D01*
X106213574Y-78091666D02*
X106201670Y-78115476D01*
X106201670Y-78115476D02*
X106189765Y-78127380D01*
X109858333Y-79689765D02*
X109846429Y-79701670D01*
X109846429Y-79701670D02*
X109810714Y-79713574D01*
X109810714Y-79713574D02*
X109786905Y-79713574D01*
X109786905Y-79713574D02*
X109751191Y-79701670D01*
X109751191Y-79701670D02*
X109727381Y-79677860D01*
X109727381Y-79677860D02*
X109715476Y-79654050D01*
X109715476Y-79654050D02*
X109703572Y-79606431D01*
X109703572Y-79606431D02*
X109703572Y-79570717D01*
X109703572Y-79570717D02*
X109715476Y-79523098D01*
X109715476Y-79523098D02*
X109727381Y-79499289D01*
X109727381Y-79499289D02*
X109751191Y-79475479D01*
X109751191Y-79475479D02*
X109786905Y-79463574D01*
X109786905Y-79463574D02*
X109810714Y-79463574D01*
X109810714Y-79463574D02*
X109846429Y-79475479D01*
X109846429Y-79475479D02*
X109858333Y-79487384D01*
X110072619Y-79463574D02*
X110025000Y-79463574D01*
X110025000Y-79463574D02*
X110001191Y-79475479D01*
X110001191Y-79475479D02*
X109989286Y-79487384D01*
X109989286Y-79487384D02*
X109965476Y-79523098D01*
X109965476Y-79523098D02*
X109953572Y-79570717D01*
X109953572Y-79570717D02*
X109953572Y-79665955D01*
X109953572Y-79665955D02*
X109965476Y-79689765D01*
X109965476Y-79689765D02*
X109977381Y-79701670D01*
X109977381Y-79701670D02*
X110001191Y-79713574D01*
X110001191Y-79713574D02*
X110048810Y-79713574D01*
X110048810Y-79713574D02*
X110072619Y-79701670D01*
X110072619Y-79701670D02*
X110084524Y-79689765D01*
X110084524Y-79689765D02*
X110096429Y-79665955D01*
X110096429Y-79665955D02*
X110096429Y-79606431D01*
X110096429Y-79606431D02*
X110084524Y-79582622D01*
X110084524Y-79582622D02*
X110072619Y-79570717D01*
X110072619Y-79570717D02*
X110048810Y-79558812D01*
X110048810Y-79558812D02*
X110001191Y-79558812D01*
X110001191Y-79558812D02*
X109977381Y-79570717D01*
X109977381Y-79570717D02*
X109965476Y-79582622D01*
X109965476Y-79582622D02*
X109953572Y-79606431D01*
D12*
X116681927Y-69066666D02*
X116491451Y-69199999D01*
X116681927Y-69295237D02*
X116281927Y-69295237D01*
X116281927Y-69295237D02*
X116281927Y-69142856D01*
X116281927Y-69142856D02*
X116300975Y-69104761D01*
X116300975Y-69104761D02*
X116320022Y-69085714D01*
X116320022Y-69085714D02*
X116358118Y-69066666D01*
X116358118Y-69066666D02*
X116415260Y-69066666D01*
X116415260Y-69066666D02*
X116453356Y-69085714D01*
X116453356Y-69085714D02*
X116472403Y-69104761D01*
X116472403Y-69104761D02*
X116491451Y-69142856D01*
X116491451Y-69142856D02*
X116491451Y-69295237D01*
X116681927Y-68685714D02*
X116681927Y-68914285D01*
X116681927Y-68799999D02*
X116281927Y-68799999D01*
X116281927Y-68799999D02*
X116339070Y-68838095D01*
X116339070Y-68838095D02*
X116377165Y-68876190D01*
X116377165Y-68876190D02*
X116396213Y-68914285D01*
D13*
X114879530Y-129721428D02*
X114903340Y-129745237D01*
X114903340Y-129745237D02*
X114927149Y-129816666D01*
X114927149Y-129816666D02*
X114927149Y-129864285D01*
X114927149Y-129864285D02*
X114903340Y-129935713D01*
X114903340Y-129935713D02*
X114855720Y-129983332D01*
X114855720Y-129983332D02*
X114808101Y-130007142D01*
X114808101Y-130007142D02*
X114712863Y-130030951D01*
X114712863Y-130030951D02*
X114641435Y-130030951D01*
X114641435Y-130030951D02*
X114546197Y-130007142D01*
X114546197Y-130007142D02*
X114498578Y-129983332D01*
X114498578Y-129983332D02*
X114450959Y-129935713D01*
X114450959Y-129935713D02*
X114427149Y-129864285D01*
X114427149Y-129864285D02*
X114427149Y-129816666D01*
X114427149Y-129816666D02*
X114450959Y-129745237D01*
X114450959Y-129745237D02*
X114474768Y-129721428D01*
X114427149Y-129554761D02*
X114427149Y-129245237D01*
X114427149Y-129245237D02*
X114617625Y-129411904D01*
X114617625Y-129411904D02*
X114617625Y-129340475D01*
X114617625Y-129340475D02*
X114641435Y-129292856D01*
X114641435Y-129292856D02*
X114665244Y-129269047D01*
X114665244Y-129269047D02*
X114712863Y-129245237D01*
X114712863Y-129245237D02*
X114831911Y-129245237D01*
X114831911Y-129245237D02*
X114879530Y-129269047D01*
X114879530Y-129269047D02*
X114903340Y-129292856D01*
X114903340Y-129292856D02*
X114927149Y-129340475D01*
X114927149Y-129340475D02*
X114927149Y-129483332D01*
X114927149Y-129483332D02*
X114903340Y-129530951D01*
X114903340Y-129530951D02*
X114879530Y-129554761D01*
X114427149Y-128935714D02*
X114427149Y-128888095D01*
X114427149Y-128888095D02*
X114450959Y-128840476D01*
X114450959Y-128840476D02*
X114474768Y-128816666D01*
X114474768Y-128816666D02*
X114522387Y-128792857D01*
X114522387Y-128792857D02*
X114617625Y-128769047D01*
X114617625Y-128769047D02*
X114736673Y-128769047D01*
X114736673Y-128769047D02*
X114831911Y-128792857D01*
X114831911Y-128792857D02*
X114879530Y-128816666D01*
X114879530Y-128816666D02*
X114903340Y-128840476D01*
X114903340Y-128840476D02*
X114927149Y-128888095D01*
X114927149Y-128888095D02*
X114927149Y-128935714D01*
X114927149Y-128935714D02*
X114903340Y-128983333D01*
X114903340Y-128983333D02*
X114879530Y-129007142D01*
X114879530Y-129007142D02*
X114831911Y-129030952D01*
X114831911Y-129030952D02*
X114736673Y-129054761D01*
X114736673Y-129054761D02*
X114617625Y-129054761D01*
X114617625Y-129054761D02*
X114522387Y-129030952D01*
X114522387Y-129030952D02*
X114474768Y-129007142D01*
X114474768Y-129007142D02*
X114450959Y-128983333D01*
X114450959Y-128983333D02*
X114427149Y-128935714D01*
D12*
X136242857Y-107881927D02*
X136109524Y-107691451D01*
X136014286Y-107881927D02*
X136014286Y-107481927D01*
X136014286Y-107481927D02*
X136166667Y-107481927D01*
X136166667Y-107481927D02*
X136204762Y-107500975D01*
X136204762Y-107500975D02*
X136223809Y-107520022D01*
X136223809Y-107520022D02*
X136242857Y-107558118D01*
X136242857Y-107558118D02*
X136242857Y-107615260D01*
X136242857Y-107615260D02*
X136223809Y-107653356D01*
X136223809Y-107653356D02*
X136204762Y-107672403D01*
X136204762Y-107672403D02*
X136166667Y-107691451D01*
X136166667Y-107691451D02*
X136014286Y-107691451D01*
X136623809Y-107881927D02*
X136395238Y-107881927D01*
X136509524Y-107881927D02*
X136509524Y-107481927D01*
X136509524Y-107481927D02*
X136471428Y-107539070D01*
X136471428Y-107539070D02*
X136433333Y-107577165D01*
X136433333Y-107577165D02*
X136395238Y-107596213D01*
X137004761Y-107881927D02*
X136776190Y-107881927D01*
X136890476Y-107881927D02*
X136890476Y-107481927D01*
X136890476Y-107481927D02*
X136852380Y-107539070D01*
X136852380Y-107539070D02*
X136814285Y-107577165D01*
X136814285Y-107577165D02*
X136776190Y-107596213D01*
X138181927Y-89757142D02*
X137991451Y-89890475D01*
X138181927Y-89985713D02*
X137781927Y-89985713D01*
X137781927Y-89985713D02*
X137781927Y-89833332D01*
X137781927Y-89833332D02*
X137800975Y-89795237D01*
X137800975Y-89795237D02*
X137820022Y-89776190D01*
X137820022Y-89776190D02*
X137858118Y-89757142D01*
X137858118Y-89757142D02*
X137915260Y-89757142D01*
X137915260Y-89757142D02*
X137953356Y-89776190D01*
X137953356Y-89776190D02*
X137972403Y-89795237D01*
X137972403Y-89795237D02*
X137991451Y-89833332D01*
X137991451Y-89833332D02*
X137991451Y-89985713D01*
X138181927Y-89376190D02*
X138181927Y-89604761D01*
X138181927Y-89490475D02*
X137781927Y-89490475D01*
X137781927Y-89490475D02*
X137839070Y-89528571D01*
X137839070Y-89528571D02*
X137877165Y-89566666D01*
X137877165Y-89566666D02*
X137896213Y-89604761D01*
X137915260Y-89033333D02*
X138181927Y-89033333D01*
X137762880Y-89128571D02*
X138048594Y-89223809D01*
X138048594Y-89223809D02*
X138048594Y-88976190D01*
X132181927Y-69257142D02*
X131991451Y-69390475D01*
X132181927Y-69485713D02*
X131781927Y-69485713D01*
X131781927Y-69485713D02*
X131781927Y-69333332D01*
X131781927Y-69333332D02*
X131800975Y-69295237D01*
X131800975Y-69295237D02*
X131820022Y-69276190D01*
X131820022Y-69276190D02*
X131858118Y-69257142D01*
X131858118Y-69257142D02*
X131915260Y-69257142D01*
X131915260Y-69257142D02*
X131953356Y-69276190D01*
X131953356Y-69276190D02*
X131972403Y-69295237D01*
X131972403Y-69295237D02*
X131991451Y-69333332D01*
X131991451Y-69333332D02*
X131991451Y-69485713D01*
X131820022Y-69104761D02*
X131800975Y-69085713D01*
X131800975Y-69085713D02*
X131781927Y-69047618D01*
X131781927Y-69047618D02*
X131781927Y-68952380D01*
X131781927Y-68952380D02*
X131800975Y-68914285D01*
X131800975Y-68914285D02*
X131820022Y-68895237D01*
X131820022Y-68895237D02*
X131858118Y-68876190D01*
X131858118Y-68876190D02*
X131896213Y-68876190D01*
X131896213Y-68876190D02*
X131953356Y-68895237D01*
X131953356Y-68895237D02*
X132181927Y-69123809D01*
X132181927Y-69123809D02*
X132181927Y-68876190D01*
X131915260Y-68533333D02*
X132181927Y-68533333D01*
X131762880Y-68628571D02*
X132048594Y-68723809D01*
X132048594Y-68723809D02*
X132048594Y-68476190D01*
D10*
X118989765Y-73941666D02*
X119001670Y-73953570D01*
X119001670Y-73953570D02*
X119013574Y-73989285D01*
X119013574Y-73989285D02*
X119013574Y-74013094D01*
X119013574Y-74013094D02*
X119001670Y-74048808D01*
X119001670Y-74048808D02*
X118977860Y-74072618D01*
X118977860Y-74072618D02*
X118954050Y-74084523D01*
X118954050Y-74084523D02*
X118906431Y-74096427D01*
X118906431Y-74096427D02*
X118870717Y-74096427D01*
X118870717Y-74096427D02*
X118823098Y-74084523D01*
X118823098Y-74084523D02*
X118799289Y-74072618D01*
X118799289Y-74072618D02*
X118775479Y-74048808D01*
X118775479Y-74048808D02*
X118763574Y-74013094D01*
X118763574Y-74013094D02*
X118763574Y-73989285D01*
X118763574Y-73989285D02*
X118775479Y-73953570D01*
X118775479Y-73953570D02*
X118787384Y-73941666D01*
X118846908Y-73727380D02*
X119013574Y-73727380D01*
X118751670Y-73786904D02*
X118930241Y-73846427D01*
X118930241Y-73846427D02*
X118930241Y-73691666D01*
D12*
X139781927Y-93557142D02*
X139591451Y-93690475D01*
X139781927Y-93785713D02*
X139381927Y-93785713D01*
X139381927Y-93785713D02*
X139381927Y-93633332D01*
X139381927Y-93633332D02*
X139400975Y-93595237D01*
X139400975Y-93595237D02*
X139420022Y-93576190D01*
X139420022Y-93576190D02*
X139458118Y-93557142D01*
X139458118Y-93557142D02*
X139515260Y-93557142D01*
X139515260Y-93557142D02*
X139553356Y-93576190D01*
X139553356Y-93576190D02*
X139572403Y-93595237D01*
X139572403Y-93595237D02*
X139591451Y-93633332D01*
X139591451Y-93633332D02*
X139591451Y-93785713D01*
X139781927Y-93176190D02*
X139781927Y-93404761D01*
X139781927Y-93290475D02*
X139381927Y-93290475D01*
X139381927Y-93290475D02*
X139439070Y-93328571D01*
X139439070Y-93328571D02*
X139477165Y-93366666D01*
X139477165Y-93366666D02*
X139496213Y-93404761D01*
X139381927Y-93042857D02*
X139381927Y-92795238D01*
X139381927Y-92795238D02*
X139534308Y-92928571D01*
X139534308Y-92928571D02*
X139534308Y-92871428D01*
X139534308Y-92871428D02*
X139553356Y-92833333D01*
X139553356Y-92833333D02*
X139572403Y-92814285D01*
X139572403Y-92814285D02*
X139610499Y-92795238D01*
X139610499Y-92795238D02*
X139705737Y-92795238D01*
X139705737Y-92795238D02*
X139743832Y-92814285D01*
X139743832Y-92814285D02*
X139762880Y-92833333D01*
X139762880Y-92833333D02*
X139781927Y-92871428D01*
X139781927Y-92871428D02*
X139781927Y-92985714D01*
X139781927Y-92985714D02*
X139762880Y-93023809D01*
X139762880Y-93023809D02*
X139743832Y-93042857D01*
X139942857Y-106081927D02*
X139809524Y-105891451D01*
X139714286Y-106081927D02*
X139714286Y-105681927D01*
X139714286Y-105681927D02*
X139866667Y-105681927D01*
X139866667Y-105681927D02*
X139904762Y-105700975D01*
X139904762Y-105700975D02*
X139923809Y-105720022D01*
X139923809Y-105720022D02*
X139942857Y-105758118D01*
X139942857Y-105758118D02*
X139942857Y-105815260D01*
X139942857Y-105815260D02*
X139923809Y-105853356D01*
X139923809Y-105853356D02*
X139904762Y-105872403D01*
X139904762Y-105872403D02*
X139866667Y-105891451D01*
X139866667Y-105891451D02*
X139714286Y-105891451D01*
X140323809Y-106081927D02*
X140095238Y-106081927D01*
X140209524Y-106081927D02*
X140209524Y-105681927D01*
X140209524Y-105681927D02*
X140171428Y-105739070D01*
X140171428Y-105739070D02*
X140133333Y-105777165D01*
X140133333Y-105777165D02*
X140095238Y-105796213D01*
X140685714Y-105681927D02*
X140495238Y-105681927D01*
X140495238Y-105681927D02*
X140476190Y-105872403D01*
X140476190Y-105872403D02*
X140495238Y-105853356D01*
X140495238Y-105853356D02*
X140533333Y-105834308D01*
X140533333Y-105834308D02*
X140628571Y-105834308D01*
X140628571Y-105834308D02*
X140666666Y-105853356D01*
X140666666Y-105853356D02*
X140685714Y-105872403D01*
X140685714Y-105872403D02*
X140704761Y-105910499D01*
X140704761Y-105910499D02*
X140704761Y-106005737D01*
X140704761Y-106005737D02*
X140685714Y-106043832D01*
X140685714Y-106043832D02*
X140666666Y-106062880D01*
X140666666Y-106062880D02*
X140628571Y-106081927D01*
X140628571Y-106081927D02*
X140533333Y-106081927D01*
X140533333Y-106081927D02*
X140495238Y-106062880D01*
X140495238Y-106062880D02*
X140476190Y-106043832D01*
D10*
X122039285Y-79489765D02*
X122027381Y-79501670D01*
X122027381Y-79501670D02*
X121991666Y-79513574D01*
X121991666Y-79513574D02*
X121967857Y-79513574D01*
X121967857Y-79513574D02*
X121932143Y-79501670D01*
X121932143Y-79501670D02*
X121908333Y-79477860D01*
X121908333Y-79477860D02*
X121896428Y-79454050D01*
X121896428Y-79454050D02*
X121884524Y-79406431D01*
X121884524Y-79406431D02*
X121884524Y-79370717D01*
X121884524Y-79370717D02*
X121896428Y-79323098D01*
X121896428Y-79323098D02*
X121908333Y-79299289D01*
X121908333Y-79299289D02*
X121932143Y-79275479D01*
X121932143Y-79275479D02*
X121967857Y-79263574D01*
X121967857Y-79263574D02*
X121991666Y-79263574D01*
X121991666Y-79263574D02*
X122027381Y-79275479D01*
X122027381Y-79275479D02*
X122039285Y-79287384D01*
X122277381Y-79513574D02*
X122134524Y-79513574D01*
X122205952Y-79513574D02*
X122205952Y-79263574D01*
X122205952Y-79263574D02*
X122182143Y-79299289D01*
X122182143Y-79299289D02*
X122158333Y-79323098D01*
X122158333Y-79323098D02*
X122134524Y-79335003D01*
X122515476Y-79513574D02*
X122372619Y-79513574D01*
X122444047Y-79513574D02*
X122444047Y-79263574D01*
X122444047Y-79263574D02*
X122420238Y-79299289D01*
X122420238Y-79299289D02*
X122396428Y-79323098D01*
X122396428Y-79323098D02*
X122372619Y-79335003D01*
X114558333Y-74389765D02*
X114546429Y-74401670D01*
X114546429Y-74401670D02*
X114510714Y-74413574D01*
X114510714Y-74413574D02*
X114486905Y-74413574D01*
X114486905Y-74413574D02*
X114451191Y-74401670D01*
X114451191Y-74401670D02*
X114427381Y-74377860D01*
X114427381Y-74377860D02*
X114415476Y-74354050D01*
X114415476Y-74354050D02*
X114403572Y-74306431D01*
X114403572Y-74306431D02*
X114403572Y-74270717D01*
X114403572Y-74270717D02*
X114415476Y-74223098D01*
X114415476Y-74223098D02*
X114427381Y-74199289D01*
X114427381Y-74199289D02*
X114451191Y-74175479D01*
X114451191Y-74175479D02*
X114486905Y-74163574D01*
X114486905Y-74163574D02*
X114510714Y-74163574D01*
X114510714Y-74163574D02*
X114546429Y-74175479D01*
X114546429Y-74175479D02*
X114558333Y-74187384D01*
X114784524Y-74163574D02*
X114665476Y-74163574D01*
X114665476Y-74163574D02*
X114653572Y-74282622D01*
X114653572Y-74282622D02*
X114665476Y-74270717D01*
X114665476Y-74270717D02*
X114689286Y-74258812D01*
X114689286Y-74258812D02*
X114748810Y-74258812D01*
X114748810Y-74258812D02*
X114772619Y-74270717D01*
X114772619Y-74270717D02*
X114784524Y-74282622D01*
X114784524Y-74282622D02*
X114796429Y-74306431D01*
X114796429Y-74306431D02*
X114796429Y-74365955D01*
X114796429Y-74365955D02*
X114784524Y-74389765D01*
X114784524Y-74389765D02*
X114772619Y-74401670D01*
X114772619Y-74401670D02*
X114748810Y-74413574D01*
X114748810Y-74413574D02*
X114689286Y-74413574D01*
X114689286Y-74413574D02*
X114665476Y-74401670D01*
X114665476Y-74401670D02*
X114653572Y-74389765D01*
D14*
X132287664Y-92414285D02*
X132325760Y-92452381D01*
X132325760Y-92452381D02*
X132363855Y-92566666D01*
X132363855Y-92566666D02*
X132363855Y-92642857D01*
X132363855Y-92642857D02*
X132325760Y-92757143D01*
X132325760Y-92757143D02*
X132249569Y-92833333D01*
X132249569Y-92833333D02*
X132173379Y-92871428D01*
X132173379Y-92871428D02*
X132020998Y-92909524D01*
X132020998Y-92909524D02*
X131906712Y-92909524D01*
X131906712Y-92909524D02*
X131754331Y-92871428D01*
X131754331Y-92871428D02*
X131678140Y-92833333D01*
X131678140Y-92833333D02*
X131601950Y-92757143D01*
X131601950Y-92757143D02*
X131563855Y-92642857D01*
X131563855Y-92642857D02*
X131563855Y-92566666D01*
X131563855Y-92566666D02*
X131601950Y-92452381D01*
X131601950Y-92452381D02*
X131640045Y-92414285D01*
X131640045Y-92109524D02*
X131601950Y-92071428D01*
X131601950Y-92071428D02*
X131563855Y-91995238D01*
X131563855Y-91995238D02*
X131563855Y-91804762D01*
X131563855Y-91804762D02*
X131601950Y-91728571D01*
X131601950Y-91728571D02*
X131640045Y-91690476D01*
X131640045Y-91690476D02*
X131716236Y-91652381D01*
X131716236Y-91652381D02*
X131792426Y-91652381D01*
X131792426Y-91652381D02*
X131906712Y-91690476D01*
X131906712Y-91690476D02*
X132363855Y-92147619D01*
X132363855Y-92147619D02*
X132363855Y-91652381D01*
X131563855Y-90966666D02*
X131563855Y-91119047D01*
X131563855Y-91119047D02*
X131601950Y-91195238D01*
X131601950Y-91195238D02*
X131640045Y-91233333D01*
X131640045Y-91233333D02*
X131754331Y-91309523D01*
X131754331Y-91309523D02*
X131906712Y-91347619D01*
X131906712Y-91347619D02*
X132211474Y-91347619D01*
X132211474Y-91347619D02*
X132287664Y-91309523D01*
X132287664Y-91309523D02*
X132325760Y-91271428D01*
X132325760Y-91271428D02*
X132363855Y-91195238D01*
X132363855Y-91195238D02*
X132363855Y-91042857D01*
X132363855Y-91042857D02*
X132325760Y-90966666D01*
X132325760Y-90966666D02*
X132287664Y-90928571D01*
X132287664Y-90928571D02*
X132211474Y-90890476D01*
X132211474Y-90890476D02*
X132020998Y-90890476D01*
X132020998Y-90890476D02*
X131944807Y-90928571D01*
X131944807Y-90928571D02*
X131906712Y-90966666D01*
X131906712Y-90966666D02*
X131868617Y-91042857D01*
X131868617Y-91042857D02*
X131868617Y-91195238D01*
X131868617Y-91195238D02*
X131906712Y-91271428D01*
X131906712Y-91271428D02*
X131944807Y-91309523D01*
X131944807Y-91309523D02*
X132020998Y-91347619D01*
D10*
X119989765Y-84141666D02*
X120001670Y-84153570D01*
X120001670Y-84153570D02*
X120013574Y-84189285D01*
X120013574Y-84189285D02*
X120013574Y-84213094D01*
X120013574Y-84213094D02*
X120001670Y-84248808D01*
X120001670Y-84248808D02*
X119977860Y-84272618D01*
X119977860Y-84272618D02*
X119954050Y-84284523D01*
X119954050Y-84284523D02*
X119906431Y-84296427D01*
X119906431Y-84296427D02*
X119870717Y-84296427D01*
X119870717Y-84296427D02*
X119823098Y-84284523D01*
X119823098Y-84284523D02*
X119799289Y-84272618D01*
X119799289Y-84272618D02*
X119775479Y-84248808D01*
X119775479Y-84248808D02*
X119763574Y-84213094D01*
X119763574Y-84213094D02*
X119763574Y-84189285D01*
X119763574Y-84189285D02*
X119775479Y-84153570D01*
X119775479Y-84153570D02*
X119787384Y-84141666D01*
X120013574Y-84022618D02*
X120013574Y-83974999D01*
X120013574Y-83974999D02*
X120001670Y-83951189D01*
X120001670Y-83951189D02*
X119989765Y-83939285D01*
X119989765Y-83939285D02*
X119954050Y-83915475D01*
X119954050Y-83915475D02*
X119906431Y-83903570D01*
X119906431Y-83903570D02*
X119811193Y-83903570D01*
X119811193Y-83903570D02*
X119787384Y-83915475D01*
X119787384Y-83915475D02*
X119775479Y-83927380D01*
X119775479Y-83927380D02*
X119763574Y-83951189D01*
X119763574Y-83951189D02*
X119763574Y-83998808D01*
X119763574Y-83998808D02*
X119775479Y-84022618D01*
X119775479Y-84022618D02*
X119787384Y-84034523D01*
X119787384Y-84034523D02*
X119811193Y-84046427D01*
X119811193Y-84046427D02*
X119870717Y-84046427D01*
X119870717Y-84046427D02*
X119894527Y-84034523D01*
X119894527Y-84034523D02*
X119906431Y-84022618D01*
X119906431Y-84022618D02*
X119918336Y-83998808D01*
X119918336Y-83998808D02*
X119918336Y-83951189D01*
X119918336Y-83951189D02*
X119906431Y-83927380D01*
X119906431Y-83927380D02*
X119894527Y-83915475D01*
X119894527Y-83915475D02*
X119870717Y-83903570D01*
X109889765Y-75560714D02*
X109901670Y-75572618D01*
X109901670Y-75572618D02*
X109913574Y-75608333D01*
X109913574Y-75608333D02*
X109913574Y-75632142D01*
X109913574Y-75632142D02*
X109901670Y-75667856D01*
X109901670Y-75667856D02*
X109877860Y-75691666D01*
X109877860Y-75691666D02*
X109854050Y-75703571D01*
X109854050Y-75703571D02*
X109806431Y-75715475D01*
X109806431Y-75715475D02*
X109770717Y-75715475D01*
X109770717Y-75715475D02*
X109723098Y-75703571D01*
X109723098Y-75703571D02*
X109699289Y-75691666D01*
X109699289Y-75691666D02*
X109675479Y-75667856D01*
X109675479Y-75667856D02*
X109663574Y-75632142D01*
X109663574Y-75632142D02*
X109663574Y-75608333D01*
X109663574Y-75608333D02*
X109675479Y-75572618D01*
X109675479Y-75572618D02*
X109687384Y-75560714D01*
X109913574Y-75322618D02*
X109913574Y-75465475D01*
X109913574Y-75394047D02*
X109663574Y-75394047D01*
X109663574Y-75394047D02*
X109699289Y-75417856D01*
X109699289Y-75417856D02*
X109723098Y-75441666D01*
X109723098Y-75441666D02*
X109735003Y-75465475D01*
X109746908Y-75108333D02*
X109913574Y-75108333D01*
X109651670Y-75167857D02*
X109830241Y-75227380D01*
X109830241Y-75227380D02*
X109830241Y-75072619D01*
X118989765Y-84141666D02*
X119001670Y-84153570D01*
X119001670Y-84153570D02*
X119013574Y-84189285D01*
X119013574Y-84189285D02*
X119013574Y-84213094D01*
X119013574Y-84213094D02*
X119001670Y-84248808D01*
X119001670Y-84248808D02*
X118977860Y-84272618D01*
X118977860Y-84272618D02*
X118954050Y-84284523D01*
X118954050Y-84284523D02*
X118906431Y-84296427D01*
X118906431Y-84296427D02*
X118870717Y-84296427D01*
X118870717Y-84296427D02*
X118823098Y-84284523D01*
X118823098Y-84284523D02*
X118799289Y-84272618D01*
X118799289Y-84272618D02*
X118775479Y-84248808D01*
X118775479Y-84248808D02*
X118763574Y-84213094D01*
X118763574Y-84213094D02*
X118763574Y-84189285D01*
X118763574Y-84189285D02*
X118775479Y-84153570D01*
X118775479Y-84153570D02*
X118787384Y-84141666D01*
X118870717Y-83998808D02*
X118858812Y-84022618D01*
X118858812Y-84022618D02*
X118846908Y-84034523D01*
X118846908Y-84034523D02*
X118823098Y-84046427D01*
X118823098Y-84046427D02*
X118811193Y-84046427D01*
X118811193Y-84046427D02*
X118787384Y-84034523D01*
X118787384Y-84034523D02*
X118775479Y-84022618D01*
X118775479Y-84022618D02*
X118763574Y-83998808D01*
X118763574Y-83998808D02*
X118763574Y-83951189D01*
X118763574Y-83951189D02*
X118775479Y-83927380D01*
X118775479Y-83927380D02*
X118787384Y-83915475D01*
X118787384Y-83915475D02*
X118811193Y-83903570D01*
X118811193Y-83903570D02*
X118823098Y-83903570D01*
X118823098Y-83903570D02*
X118846908Y-83915475D01*
X118846908Y-83915475D02*
X118858812Y-83927380D01*
X118858812Y-83927380D02*
X118870717Y-83951189D01*
X118870717Y-83951189D02*
X118870717Y-83998808D01*
X118870717Y-83998808D02*
X118882622Y-84022618D01*
X118882622Y-84022618D02*
X118894527Y-84034523D01*
X118894527Y-84034523D02*
X118918336Y-84046427D01*
X118918336Y-84046427D02*
X118965955Y-84046427D01*
X118965955Y-84046427D02*
X118989765Y-84034523D01*
X118989765Y-84034523D02*
X119001670Y-84022618D01*
X119001670Y-84022618D02*
X119013574Y-83998808D01*
X119013574Y-83998808D02*
X119013574Y-83951189D01*
X119013574Y-83951189D02*
X119001670Y-83927380D01*
X119001670Y-83927380D02*
X118989765Y-83915475D01*
X118989765Y-83915475D02*
X118965955Y-83903570D01*
X118965955Y-83903570D02*
X118918336Y-83903570D01*
X118918336Y-83903570D02*
X118894527Y-83915475D01*
X118894527Y-83915475D02*
X118882622Y-83927380D01*
X118882622Y-83927380D02*
X118870717Y-83951189D01*
X124356667Y-81618200D02*
X124270000Y-81494391D01*
X124208095Y-81618200D02*
X124208095Y-81358200D01*
X124208095Y-81358200D02*
X124307143Y-81358200D01*
X124307143Y-81358200D02*
X124331905Y-81370581D01*
X124331905Y-81370581D02*
X124344286Y-81382962D01*
X124344286Y-81382962D02*
X124356667Y-81407724D01*
X124356667Y-81407724D02*
X124356667Y-81444867D01*
X124356667Y-81444867D02*
X124344286Y-81469629D01*
X124344286Y-81469629D02*
X124331905Y-81482010D01*
X124331905Y-81482010D02*
X124307143Y-81494391D01*
X124307143Y-81494391D02*
X124208095Y-81494391D01*
X124579524Y-81358200D02*
X124530000Y-81358200D01*
X124530000Y-81358200D02*
X124505238Y-81370581D01*
X124505238Y-81370581D02*
X124492857Y-81382962D01*
X124492857Y-81382962D02*
X124468095Y-81420105D01*
X124468095Y-81420105D02*
X124455714Y-81469629D01*
X124455714Y-81469629D02*
X124455714Y-81568677D01*
X124455714Y-81568677D02*
X124468095Y-81593439D01*
X124468095Y-81593439D02*
X124480476Y-81605820D01*
X124480476Y-81605820D02*
X124505238Y-81618200D01*
X124505238Y-81618200D02*
X124554762Y-81618200D01*
X124554762Y-81618200D02*
X124579524Y-81605820D01*
X124579524Y-81605820D02*
X124591905Y-81593439D01*
X124591905Y-81593439D02*
X124604286Y-81568677D01*
X124604286Y-81568677D02*
X124604286Y-81506772D01*
X124604286Y-81506772D02*
X124591905Y-81482010D01*
X124591905Y-81482010D02*
X124579524Y-81469629D01*
X124579524Y-81469629D02*
X124554762Y-81457248D01*
X124554762Y-81457248D02*
X124505238Y-81457248D01*
X124505238Y-81457248D02*
X124480476Y-81469629D01*
X124480476Y-81469629D02*
X124468095Y-81482010D01*
X124468095Y-81482010D02*
X124455714Y-81506772D01*
D11*
X122761905Y-61204819D02*
X122761905Y-60204819D01*
X122761905Y-60204819D02*
X123000000Y-60204819D01*
X123000000Y-60204819D02*
X123142857Y-60252438D01*
X123142857Y-60252438D02*
X123238095Y-60347676D01*
X123238095Y-60347676D02*
X123285714Y-60442914D01*
X123285714Y-60442914D02*
X123333333Y-60633390D01*
X123333333Y-60633390D02*
X123333333Y-60776247D01*
X123333333Y-60776247D02*
X123285714Y-60966723D01*
X123285714Y-60966723D02*
X123238095Y-61061961D01*
X123238095Y-61061961D02*
X123142857Y-61157200D01*
X123142857Y-61157200D02*
X123000000Y-61204819D01*
X123000000Y-61204819D02*
X122761905Y-61204819D01*
X124285714Y-61204819D02*
X123714286Y-61204819D01*
X124000000Y-61204819D02*
X124000000Y-60204819D01*
X124000000Y-60204819D02*
X123904762Y-60347676D01*
X123904762Y-60347676D02*
X123809524Y-60442914D01*
X123809524Y-60442914D02*
X123714286Y-60490533D01*
D13*
X116879530Y-131021428D02*
X116903340Y-131045237D01*
X116903340Y-131045237D02*
X116927149Y-131116666D01*
X116927149Y-131116666D02*
X116927149Y-131164285D01*
X116927149Y-131164285D02*
X116903340Y-131235713D01*
X116903340Y-131235713D02*
X116855720Y-131283332D01*
X116855720Y-131283332D02*
X116808101Y-131307142D01*
X116808101Y-131307142D02*
X116712863Y-131330951D01*
X116712863Y-131330951D02*
X116641435Y-131330951D01*
X116641435Y-131330951D02*
X116546197Y-131307142D01*
X116546197Y-131307142D02*
X116498578Y-131283332D01*
X116498578Y-131283332D02*
X116450959Y-131235713D01*
X116450959Y-131235713D02*
X116427149Y-131164285D01*
X116427149Y-131164285D02*
X116427149Y-131116666D01*
X116427149Y-131116666D02*
X116450959Y-131045237D01*
X116450959Y-131045237D02*
X116474768Y-131021428D01*
X116474768Y-130830951D02*
X116450959Y-130807142D01*
X116450959Y-130807142D02*
X116427149Y-130759523D01*
X116427149Y-130759523D02*
X116427149Y-130640475D01*
X116427149Y-130640475D02*
X116450959Y-130592856D01*
X116450959Y-130592856D02*
X116474768Y-130569047D01*
X116474768Y-130569047D02*
X116522387Y-130545237D01*
X116522387Y-130545237D02*
X116570006Y-130545237D01*
X116570006Y-130545237D02*
X116641435Y-130569047D01*
X116641435Y-130569047D02*
X116927149Y-130854761D01*
X116927149Y-130854761D02*
X116927149Y-130545237D01*
X116927149Y-130307142D02*
X116927149Y-130211904D01*
X116927149Y-130211904D02*
X116903340Y-130164285D01*
X116903340Y-130164285D02*
X116879530Y-130140476D01*
X116879530Y-130140476D02*
X116808101Y-130092857D01*
X116808101Y-130092857D02*
X116712863Y-130069047D01*
X116712863Y-130069047D02*
X116522387Y-130069047D01*
X116522387Y-130069047D02*
X116474768Y-130092857D01*
X116474768Y-130092857D02*
X116450959Y-130116666D01*
X116450959Y-130116666D02*
X116427149Y-130164285D01*
X116427149Y-130164285D02*
X116427149Y-130259523D01*
X116427149Y-130259523D02*
X116450959Y-130307142D01*
X116450959Y-130307142D02*
X116474768Y-130330952D01*
X116474768Y-130330952D02*
X116522387Y-130354761D01*
X116522387Y-130354761D02*
X116641435Y-130354761D01*
X116641435Y-130354761D02*
X116689054Y-130330952D01*
X116689054Y-130330952D02*
X116712863Y-130307142D01*
X116712863Y-130307142D02*
X116736673Y-130259523D01*
X116736673Y-130259523D02*
X116736673Y-130164285D01*
X116736673Y-130164285D02*
X116712863Y-130116666D01*
X116712863Y-130116666D02*
X116689054Y-130092857D01*
X116689054Y-130092857D02*
X116641435Y-130069047D01*
D12*
X129481927Y-69257142D02*
X129291451Y-69390475D01*
X129481927Y-69485713D02*
X129081927Y-69485713D01*
X129081927Y-69485713D02*
X129081927Y-69333332D01*
X129081927Y-69333332D02*
X129100975Y-69295237D01*
X129100975Y-69295237D02*
X129120022Y-69276190D01*
X129120022Y-69276190D02*
X129158118Y-69257142D01*
X129158118Y-69257142D02*
X129215260Y-69257142D01*
X129215260Y-69257142D02*
X129253356Y-69276190D01*
X129253356Y-69276190D02*
X129272403Y-69295237D01*
X129272403Y-69295237D02*
X129291451Y-69333332D01*
X129291451Y-69333332D02*
X129291451Y-69485713D01*
X129120022Y-69104761D02*
X129100975Y-69085713D01*
X129100975Y-69085713D02*
X129081927Y-69047618D01*
X129081927Y-69047618D02*
X129081927Y-68952380D01*
X129081927Y-68952380D02*
X129100975Y-68914285D01*
X129100975Y-68914285D02*
X129120022Y-68895237D01*
X129120022Y-68895237D02*
X129158118Y-68876190D01*
X129158118Y-68876190D02*
X129196213Y-68876190D01*
X129196213Y-68876190D02*
X129253356Y-68895237D01*
X129253356Y-68895237D02*
X129481927Y-69123809D01*
X129481927Y-69123809D02*
X129481927Y-68876190D01*
X129081927Y-68742857D02*
X129081927Y-68495238D01*
X129081927Y-68495238D02*
X129234308Y-68628571D01*
X129234308Y-68628571D02*
X129234308Y-68571428D01*
X129234308Y-68571428D02*
X129253356Y-68533333D01*
X129253356Y-68533333D02*
X129272403Y-68514285D01*
X129272403Y-68514285D02*
X129310499Y-68495238D01*
X129310499Y-68495238D02*
X129405737Y-68495238D01*
X129405737Y-68495238D02*
X129443832Y-68514285D01*
X129443832Y-68514285D02*
X129462880Y-68533333D01*
X129462880Y-68533333D02*
X129481927Y-68571428D01*
X129481927Y-68571428D02*
X129481927Y-68685714D01*
X129481927Y-68685714D02*
X129462880Y-68723809D01*
X129462880Y-68723809D02*
X129443832Y-68742857D01*
X118181927Y-69066666D02*
X117991451Y-69199999D01*
X118181927Y-69295237D02*
X117781927Y-69295237D01*
X117781927Y-69295237D02*
X117781927Y-69142856D01*
X117781927Y-69142856D02*
X117800975Y-69104761D01*
X117800975Y-69104761D02*
X117820022Y-69085714D01*
X117820022Y-69085714D02*
X117858118Y-69066666D01*
X117858118Y-69066666D02*
X117915260Y-69066666D01*
X117915260Y-69066666D02*
X117953356Y-69085714D01*
X117953356Y-69085714D02*
X117972403Y-69104761D01*
X117972403Y-69104761D02*
X117991451Y-69142856D01*
X117991451Y-69142856D02*
X117991451Y-69295237D01*
X117820022Y-68914285D02*
X117800975Y-68895237D01*
X117800975Y-68895237D02*
X117781927Y-68857142D01*
X117781927Y-68857142D02*
X117781927Y-68761904D01*
X117781927Y-68761904D02*
X117800975Y-68723809D01*
X117800975Y-68723809D02*
X117820022Y-68704761D01*
X117820022Y-68704761D02*
X117858118Y-68685714D01*
X117858118Y-68685714D02*
X117896213Y-68685714D01*
X117896213Y-68685714D02*
X117953356Y-68704761D01*
X117953356Y-68704761D02*
X118181927Y-68933333D01*
X118181927Y-68933333D02*
X118181927Y-68685714D01*
D11*
X124459580Y-116142857D02*
X124507200Y-116190476D01*
X124507200Y-116190476D02*
X124554819Y-116333333D01*
X124554819Y-116333333D02*
X124554819Y-116428571D01*
X124554819Y-116428571D02*
X124507200Y-116571428D01*
X124507200Y-116571428D02*
X124411961Y-116666666D01*
X124411961Y-116666666D02*
X124316723Y-116714285D01*
X124316723Y-116714285D02*
X124126247Y-116761904D01*
X124126247Y-116761904D02*
X123983390Y-116761904D01*
X123983390Y-116761904D02*
X123792914Y-116714285D01*
X123792914Y-116714285D02*
X123697676Y-116666666D01*
X123697676Y-116666666D02*
X123602438Y-116571428D01*
X123602438Y-116571428D02*
X123554819Y-116428571D01*
X123554819Y-116428571D02*
X123554819Y-116333333D01*
X123554819Y-116333333D02*
X123602438Y-116190476D01*
X123602438Y-116190476D02*
X123650057Y-116142857D01*
X123650057Y-115761904D02*
X123602438Y-115714285D01*
X123602438Y-115714285D02*
X123554819Y-115619047D01*
X123554819Y-115619047D02*
X123554819Y-115380952D01*
X123554819Y-115380952D02*
X123602438Y-115285714D01*
X123602438Y-115285714D02*
X123650057Y-115238095D01*
X123650057Y-115238095D02*
X123745295Y-115190476D01*
X123745295Y-115190476D02*
X123840533Y-115190476D01*
X123840533Y-115190476D02*
X123983390Y-115238095D01*
X123983390Y-115238095D02*
X124554819Y-115809523D01*
X124554819Y-115809523D02*
X124554819Y-115190476D01*
X124554819Y-114238095D02*
X124554819Y-114809523D01*
X124554819Y-114523809D02*
X123554819Y-114523809D01*
X123554819Y-114523809D02*
X123697676Y-114619047D01*
X123697676Y-114619047D02*
X123792914Y-114714285D01*
X123792914Y-114714285D02*
X123840533Y-114809523D01*
D12*
X120343832Y-128957142D02*
X120362880Y-128976190D01*
X120362880Y-128976190D02*
X120381927Y-129033332D01*
X120381927Y-129033332D02*
X120381927Y-129071428D01*
X120381927Y-129071428D02*
X120362880Y-129128571D01*
X120362880Y-129128571D02*
X120324784Y-129166666D01*
X120324784Y-129166666D02*
X120286689Y-129185713D01*
X120286689Y-129185713D02*
X120210499Y-129204761D01*
X120210499Y-129204761D02*
X120153356Y-129204761D01*
X120153356Y-129204761D02*
X120077165Y-129185713D01*
X120077165Y-129185713D02*
X120039070Y-129166666D01*
X120039070Y-129166666D02*
X120000975Y-129128571D01*
X120000975Y-129128571D02*
X119981927Y-129071428D01*
X119981927Y-129071428D02*
X119981927Y-129033332D01*
X119981927Y-129033332D02*
X120000975Y-128976190D01*
X120000975Y-128976190D02*
X120020022Y-128957142D01*
X120020022Y-128804761D02*
X120000975Y-128785713D01*
X120000975Y-128785713D02*
X119981927Y-128747618D01*
X119981927Y-128747618D02*
X119981927Y-128652380D01*
X119981927Y-128652380D02*
X120000975Y-128614285D01*
X120000975Y-128614285D02*
X120020022Y-128595237D01*
X120020022Y-128595237D02*
X120058118Y-128576190D01*
X120058118Y-128576190D02*
X120096213Y-128576190D01*
X120096213Y-128576190D02*
X120153356Y-128595237D01*
X120153356Y-128595237D02*
X120381927Y-128823809D01*
X120381927Y-128823809D02*
X120381927Y-128576190D01*
X119981927Y-128442857D02*
X119981927Y-128176190D01*
X119981927Y-128176190D02*
X120381927Y-128347619D01*
D11*
X116154819Y-124761904D02*
X116964342Y-124761904D01*
X116964342Y-124761904D02*
X117059580Y-124714285D01*
X117059580Y-124714285D02*
X117107200Y-124666666D01*
X117107200Y-124666666D02*
X117154819Y-124571428D01*
X117154819Y-124571428D02*
X117154819Y-124380952D01*
X117154819Y-124380952D02*
X117107200Y-124285714D01*
X117107200Y-124285714D02*
X117059580Y-124238095D01*
X117059580Y-124238095D02*
X116964342Y-124190476D01*
X116964342Y-124190476D02*
X116154819Y-124190476D01*
X116154819Y-123809523D02*
X116154819Y-123142857D01*
X116154819Y-123142857D02*
X117154819Y-123571428D01*
D12*
X111155357Y-126093832D02*
X111136309Y-126112880D01*
X111136309Y-126112880D02*
X111079167Y-126131927D01*
X111079167Y-126131927D02*
X111041071Y-126131927D01*
X111041071Y-126131927D02*
X110983928Y-126112880D01*
X110983928Y-126112880D02*
X110945833Y-126074784D01*
X110945833Y-126074784D02*
X110926786Y-126036689D01*
X110926786Y-126036689D02*
X110907738Y-125960499D01*
X110907738Y-125960499D02*
X110907738Y-125903356D01*
X110907738Y-125903356D02*
X110926786Y-125827165D01*
X110926786Y-125827165D02*
X110945833Y-125789070D01*
X110945833Y-125789070D02*
X110983928Y-125750975D01*
X110983928Y-125750975D02*
X111041071Y-125731927D01*
X111041071Y-125731927D02*
X111079167Y-125731927D01*
X111079167Y-125731927D02*
X111136309Y-125750975D01*
X111136309Y-125750975D02*
X111155357Y-125770022D01*
X111288690Y-125731927D02*
X111536309Y-125731927D01*
X111536309Y-125731927D02*
X111402976Y-125884308D01*
X111402976Y-125884308D02*
X111460119Y-125884308D01*
X111460119Y-125884308D02*
X111498214Y-125903356D01*
X111498214Y-125903356D02*
X111517262Y-125922403D01*
X111517262Y-125922403D02*
X111536309Y-125960499D01*
X111536309Y-125960499D02*
X111536309Y-126055737D01*
X111536309Y-126055737D02*
X111517262Y-126093832D01*
X111517262Y-126093832D02*
X111498214Y-126112880D01*
X111498214Y-126112880D02*
X111460119Y-126131927D01*
X111460119Y-126131927D02*
X111345833Y-126131927D01*
X111345833Y-126131927D02*
X111307738Y-126112880D01*
X111307738Y-126112880D02*
X111288690Y-126093832D01*
X111688690Y-125770022D02*
X111707738Y-125750975D01*
X111707738Y-125750975D02*
X111745833Y-125731927D01*
X111745833Y-125731927D02*
X111841071Y-125731927D01*
X111841071Y-125731927D02*
X111879166Y-125750975D01*
X111879166Y-125750975D02*
X111898214Y-125770022D01*
X111898214Y-125770022D02*
X111917261Y-125808118D01*
X111917261Y-125808118D02*
X111917261Y-125846213D01*
X111917261Y-125846213D02*
X111898214Y-125903356D01*
X111898214Y-125903356D02*
X111669642Y-126131927D01*
X111669642Y-126131927D02*
X111917261Y-126131927D01*
D14*
X108935714Y-124113855D02*
X108669047Y-123732902D01*
X108478571Y-124113855D02*
X108478571Y-123313855D01*
X108478571Y-123313855D02*
X108783333Y-123313855D01*
X108783333Y-123313855D02*
X108859523Y-123351950D01*
X108859523Y-123351950D02*
X108897618Y-123390045D01*
X108897618Y-123390045D02*
X108935714Y-123466236D01*
X108935714Y-123466236D02*
X108935714Y-123580521D01*
X108935714Y-123580521D02*
X108897618Y-123656712D01*
X108897618Y-123656712D02*
X108859523Y-123694807D01*
X108859523Y-123694807D02*
X108783333Y-123732902D01*
X108783333Y-123732902D02*
X108478571Y-123732902D01*
X109240475Y-123390045D02*
X109278571Y-123351950D01*
X109278571Y-123351950D02*
X109354761Y-123313855D01*
X109354761Y-123313855D02*
X109545237Y-123313855D01*
X109545237Y-123313855D02*
X109621428Y-123351950D01*
X109621428Y-123351950D02*
X109659523Y-123390045D01*
X109659523Y-123390045D02*
X109697618Y-123466236D01*
X109697618Y-123466236D02*
X109697618Y-123542426D01*
X109697618Y-123542426D02*
X109659523Y-123656712D01*
X109659523Y-123656712D02*
X109202380Y-124113855D01*
X109202380Y-124113855D02*
X109697618Y-124113855D01*
X110192857Y-123313855D02*
X110269047Y-123313855D01*
X110269047Y-123313855D02*
X110345238Y-123351950D01*
X110345238Y-123351950D02*
X110383333Y-123390045D01*
X110383333Y-123390045D02*
X110421428Y-123466236D01*
X110421428Y-123466236D02*
X110459523Y-123618617D01*
X110459523Y-123618617D02*
X110459523Y-123809093D01*
X110459523Y-123809093D02*
X110421428Y-123961474D01*
X110421428Y-123961474D02*
X110383333Y-124037664D01*
X110383333Y-124037664D02*
X110345238Y-124075760D01*
X110345238Y-124075760D02*
X110269047Y-124113855D01*
X110269047Y-124113855D02*
X110192857Y-124113855D01*
X110192857Y-124113855D02*
X110116666Y-124075760D01*
X110116666Y-124075760D02*
X110078571Y-124037664D01*
X110078571Y-124037664D02*
X110040476Y-123961474D01*
X110040476Y-123961474D02*
X110002380Y-123809093D01*
X110002380Y-123809093D02*
X110002380Y-123618617D01*
X110002380Y-123618617D02*
X110040476Y-123466236D01*
X110040476Y-123466236D02*
X110078571Y-123390045D01*
X110078571Y-123390045D02*
X110116666Y-123351950D01*
X110116666Y-123351950D02*
X110192857Y-123313855D01*
D11*
X134888095Y-120604819D02*
X134888095Y-121414342D01*
X134888095Y-121414342D02*
X134935714Y-121509580D01*
X134935714Y-121509580D02*
X134983333Y-121557200D01*
X134983333Y-121557200D02*
X135078571Y-121604819D01*
X135078571Y-121604819D02*
X135269047Y-121604819D01*
X135269047Y-121604819D02*
X135364285Y-121557200D01*
X135364285Y-121557200D02*
X135411904Y-121509580D01*
X135411904Y-121509580D02*
X135459523Y-121414342D01*
X135459523Y-121414342D02*
X135459523Y-120604819D01*
X136411904Y-120604819D02*
X135935714Y-120604819D01*
X135935714Y-120604819D02*
X135888095Y-121081009D01*
X135888095Y-121081009D02*
X135935714Y-121033390D01*
X135935714Y-121033390D02*
X136030952Y-120985771D01*
X136030952Y-120985771D02*
X136269047Y-120985771D01*
X136269047Y-120985771D02*
X136364285Y-121033390D01*
X136364285Y-121033390D02*
X136411904Y-121081009D01*
X136411904Y-121081009D02*
X136459523Y-121176247D01*
X136459523Y-121176247D02*
X136459523Y-121414342D01*
X136459523Y-121414342D02*
X136411904Y-121509580D01*
X136411904Y-121509580D02*
X136364285Y-121557200D01*
X136364285Y-121557200D02*
X136269047Y-121604819D01*
X136269047Y-121604819D02*
X136030952Y-121604819D01*
X136030952Y-121604819D02*
X135935714Y-121557200D01*
X135935714Y-121557200D02*
X135888095Y-121509580D01*
D10*
X121156667Y-72418200D02*
X121070000Y-72294391D01*
X121008095Y-72418200D02*
X121008095Y-72158200D01*
X121008095Y-72158200D02*
X121107143Y-72158200D01*
X121107143Y-72158200D02*
X121131905Y-72170581D01*
X121131905Y-72170581D02*
X121144286Y-72182962D01*
X121144286Y-72182962D02*
X121156667Y-72207724D01*
X121156667Y-72207724D02*
X121156667Y-72244867D01*
X121156667Y-72244867D02*
X121144286Y-72269629D01*
X121144286Y-72269629D02*
X121131905Y-72282010D01*
X121131905Y-72282010D02*
X121107143Y-72294391D01*
X121107143Y-72294391D02*
X121008095Y-72294391D01*
X121391905Y-72158200D02*
X121268095Y-72158200D01*
X121268095Y-72158200D02*
X121255714Y-72282010D01*
X121255714Y-72282010D02*
X121268095Y-72269629D01*
X121268095Y-72269629D02*
X121292857Y-72257248D01*
X121292857Y-72257248D02*
X121354762Y-72257248D01*
X121354762Y-72257248D02*
X121379524Y-72269629D01*
X121379524Y-72269629D02*
X121391905Y-72282010D01*
X121391905Y-72282010D02*
X121404286Y-72306772D01*
X121404286Y-72306772D02*
X121404286Y-72368677D01*
X121404286Y-72368677D02*
X121391905Y-72393439D01*
X121391905Y-72393439D02*
X121379524Y-72405820D01*
X121379524Y-72405820D02*
X121354762Y-72418200D01*
X121354762Y-72418200D02*
X121292857Y-72418200D01*
X121292857Y-72418200D02*
X121268095Y-72405820D01*
X121268095Y-72405820D02*
X121255714Y-72393439D01*
D12*
X122033333Y-82843832D02*
X122014285Y-82862880D01*
X122014285Y-82862880D02*
X121957143Y-82881927D01*
X121957143Y-82881927D02*
X121919047Y-82881927D01*
X121919047Y-82881927D02*
X121861904Y-82862880D01*
X121861904Y-82862880D02*
X121823809Y-82824784D01*
X121823809Y-82824784D02*
X121804762Y-82786689D01*
X121804762Y-82786689D02*
X121785714Y-82710499D01*
X121785714Y-82710499D02*
X121785714Y-82653356D01*
X121785714Y-82653356D02*
X121804762Y-82577165D01*
X121804762Y-82577165D02*
X121823809Y-82539070D01*
X121823809Y-82539070D02*
X121861904Y-82500975D01*
X121861904Y-82500975D02*
X121919047Y-82481927D01*
X121919047Y-82481927D02*
X121957143Y-82481927D01*
X121957143Y-82481927D02*
X122014285Y-82500975D01*
X122014285Y-82500975D02*
X122033333Y-82520022D01*
X122414285Y-82881927D02*
X122185714Y-82881927D01*
X122300000Y-82881927D02*
X122300000Y-82481927D01*
X122300000Y-82481927D02*
X122261904Y-82539070D01*
X122261904Y-82539070D02*
X122223809Y-82577165D01*
X122223809Y-82577165D02*
X122185714Y-82596213D01*
X113081927Y-129457142D02*
X112891451Y-129590475D01*
X113081927Y-129685713D02*
X112681927Y-129685713D01*
X112681927Y-129685713D02*
X112681927Y-129533332D01*
X112681927Y-129533332D02*
X112700975Y-129495237D01*
X112700975Y-129495237D02*
X112720022Y-129476190D01*
X112720022Y-129476190D02*
X112758118Y-129457142D01*
X112758118Y-129457142D02*
X112815260Y-129457142D01*
X112815260Y-129457142D02*
X112853356Y-129476190D01*
X112853356Y-129476190D02*
X112872403Y-129495237D01*
X112872403Y-129495237D02*
X112891451Y-129533332D01*
X112891451Y-129533332D02*
X112891451Y-129685713D01*
X112720022Y-129304761D02*
X112700975Y-129285713D01*
X112700975Y-129285713D02*
X112681927Y-129247618D01*
X112681927Y-129247618D02*
X112681927Y-129152380D01*
X112681927Y-129152380D02*
X112700975Y-129114285D01*
X112700975Y-129114285D02*
X112720022Y-129095237D01*
X112720022Y-129095237D02*
X112758118Y-129076190D01*
X112758118Y-129076190D02*
X112796213Y-129076190D01*
X112796213Y-129076190D02*
X112853356Y-129095237D01*
X112853356Y-129095237D02*
X113081927Y-129323809D01*
X113081927Y-129323809D02*
X113081927Y-129076190D01*
X112720022Y-128923809D02*
X112700975Y-128904761D01*
X112700975Y-128904761D02*
X112681927Y-128866666D01*
X112681927Y-128866666D02*
X112681927Y-128771428D01*
X112681927Y-128771428D02*
X112700975Y-128733333D01*
X112700975Y-128733333D02*
X112720022Y-128714285D01*
X112720022Y-128714285D02*
X112758118Y-128695238D01*
X112758118Y-128695238D02*
X112796213Y-128695238D01*
X112796213Y-128695238D02*
X112853356Y-128714285D01*
X112853356Y-128714285D02*
X113081927Y-128942857D01*
X113081927Y-128942857D02*
X113081927Y-128695238D01*
D11*
X131357142Y-140359580D02*
X131309523Y-140407200D01*
X131309523Y-140407200D02*
X131166666Y-140454819D01*
X131166666Y-140454819D02*
X131071428Y-140454819D01*
X131071428Y-140454819D02*
X130928571Y-140407200D01*
X130928571Y-140407200D02*
X130833333Y-140311961D01*
X130833333Y-140311961D02*
X130785714Y-140216723D01*
X130785714Y-140216723D02*
X130738095Y-140026247D01*
X130738095Y-140026247D02*
X130738095Y-139883390D01*
X130738095Y-139883390D02*
X130785714Y-139692914D01*
X130785714Y-139692914D02*
X130833333Y-139597676D01*
X130833333Y-139597676D02*
X130928571Y-139502438D01*
X130928571Y-139502438D02*
X131071428Y-139454819D01*
X131071428Y-139454819D02*
X131166666Y-139454819D01*
X131166666Y-139454819D02*
X131309523Y-139502438D01*
X131309523Y-139502438D02*
X131357142Y-139550057D01*
X131738095Y-139550057D02*
X131785714Y-139502438D01*
X131785714Y-139502438D02*
X131880952Y-139454819D01*
X131880952Y-139454819D02*
X132119047Y-139454819D01*
X132119047Y-139454819D02*
X132214285Y-139502438D01*
X132214285Y-139502438D02*
X132261904Y-139550057D01*
X132261904Y-139550057D02*
X132309523Y-139645295D01*
X132309523Y-139645295D02*
X132309523Y-139740533D01*
X132309523Y-139740533D02*
X132261904Y-139883390D01*
X132261904Y-139883390D02*
X131690476Y-140454819D01*
X131690476Y-140454819D02*
X132309523Y-140454819D01*
X133166666Y-139788152D02*
X133166666Y-140454819D01*
X132928571Y-139407200D02*
X132690476Y-140121485D01*
X132690476Y-140121485D02*
X133309523Y-140121485D01*
D12*
X134742857Y-82343832D02*
X134723809Y-82362880D01*
X134723809Y-82362880D02*
X134666667Y-82381927D01*
X134666667Y-82381927D02*
X134628571Y-82381927D01*
X134628571Y-82381927D02*
X134571428Y-82362880D01*
X134571428Y-82362880D02*
X134533333Y-82324784D01*
X134533333Y-82324784D02*
X134514286Y-82286689D01*
X134514286Y-82286689D02*
X134495238Y-82210499D01*
X134495238Y-82210499D02*
X134495238Y-82153356D01*
X134495238Y-82153356D02*
X134514286Y-82077165D01*
X134514286Y-82077165D02*
X134533333Y-82039070D01*
X134533333Y-82039070D02*
X134571428Y-82000975D01*
X134571428Y-82000975D02*
X134628571Y-81981927D01*
X134628571Y-81981927D02*
X134666667Y-81981927D01*
X134666667Y-81981927D02*
X134723809Y-82000975D01*
X134723809Y-82000975D02*
X134742857Y-82020022D01*
X135123809Y-82381927D02*
X134895238Y-82381927D01*
X135009524Y-82381927D02*
X135009524Y-81981927D01*
X135009524Y-81981927D02*
X134971428Y-82039070D01*
X134971428Y-82039070D02*
X134933333Y-82077165D01*
X134933333Y-82077165D02*
X134895238Y-82096213D01*
X135352380Y-82153356D02*
X135314285Y-82134308D01*
X135314285Y-82134308D02*
X135295238Y-82115260D01*
X135295238Y-82115260D02*
X135276190Y-82077165D01*
X135276190Y-82077165D02*
X135276190Y-82058118D01*
X135276190Y-82058118D02*
X135295238Y-82020022D01*
X135295238Y-82020022D02*
X135314285Y-82000975D01*
X135314285Y-82000975D02*
X135352380Y-81981927D01*
X135352380Y-81981927D02*
X135428571Y-81981927D01*
X135428571Y-81981927D02*
X135466666Y-82000975D01*
X135466666Y-82000975D02*
X135485714Y-82020022D01*
X135485714Y-82020022D02*
X135504761Y-82058118D01*
X135504761Y-82058118D02*
X135504761Y-82077165D01*
X135504761Y-82077165D02*
X135485714Y-82115260D01*
X135485714Y-82115260D02*
X135466666Y-82134308D01*
X135466666Y-82134308D02*
X135428571Y-82153356D01*
X135428571Y-82153356D02*
X135352380Y-82153356D01*
X135352380Y-82153356D02*
X135314285Y-82172403D01*
X135314285Y-82172403D02*
X135295238Y-82191451D01*
X135295238Y-82191451D02*
X135276190Y-82229546D01*
X135276190Y-82229546D02*
X135276190Y-82305737D01*
X135276190Y-82305737D02*
X135295238Y-82343832D01*
X135295238Y-82343832D02*
X135314285Y-82362880D01*
X135314285Y-82362880D02*
X135352380Y-82381927D01*
X135352380Y-82381927D02*
X135428571Y-82381927D01*
X135428571Y-82381927D02*
X135466666Y-82362880D01*
X135466666Y-82362880D02*
X135485714Y-82343832D01*
X135485714Y-82343832D02*
X135504761Y-82305737D01*
X135504761Y-82305737D02*
X135504761Y-82229546D01*
X135504761Y-82229546D02*
X135485714Y-82191451D01*
X135485714Y-82191451D02*
X135466666Y-82172403D01*
X135466666Y-82172403D02*
X135428571Y-82153356D01*
D14*
X130835714Y-108337664D02*
X130797618Y-108375760D01*
X130797618Y-108375760D02*
X130683333Y-108413855D01*
X130683333Y-108413855D02*
X130607142Y-108413855D01*
X130607142Y-108413855D02*
X130492856Y-108375760D01*
X130492856Y-108375760D02*
X130416666Y-108299569D01*
X130416666Y-108299569D02*
X130378571Y-108223379D01*
X130378571Y-108223379D02*
X130340475Y-108070998D01*
X130340475Y-108070998D02*
X130340475Y-107956712D01*
X130340475Y-107956712D02*
X130378571Y-107804331D01*
X130378571Y-107804331D02*
X130416666Y-107728140D01*
X130416666Y-107728140D02*
X130492856Y-107651950D01*
X130492856Y-107651950D02*
X130607142Y-107613855D01*
X130607142Y-107613855D02*
X130683333Y-107613855D01*
X130683333Y-107613855D02*
X130797618Y-107651950D01*
X130797618Y-107651950D02*
X130835714Y-107690045D01*
X131140475Y-107690045D02*
X131178571Y-107651950D01*
X131178571Y-107651950D02*
X131254761Y-107613855D01*
X131254761Y-107613855D02*
X131445237Y-107613855D01*
X131445237Y-107613855D02*
X131521428Y-107651950D01*
X131521428Y-107651950D02*
X131559523Y-107690045D01*
X131559523Y-107690045D02*
X131597618Y-107766236D01*
X131597618Y-107766236D02*
X131597618Y-107842426D01*
X131597618Y-107842426D02*
X131559523Y-107956712D01*
X131559523Y-107956712D02*
X131102380Y-108413855D01*
X131102380Y-108413855D02*
X131597618Y-108413855D01*
X131902380Y-107690045D02*
X131940476Y-107651950D01*
X131940476Y-107651950D02*
X132016666Y-107613855D01*
X132016666Y-107613855D02*
X132207142Y-107613855D01*
X132207142Y-107613855D02*
X132283333Y-107651950D01*
X132283333Y-107651950D02*
X132321428Y-107690045D01*
X132321428Y-107690045D02*
X132359523Y-107766236D01*
X132359523Y-107766236D02*
X132359523Y-107842426D01*
X132359523Y-107842426D02*
X132321428Y-107956712D01*
X132321428Y-107956712D02*
X131864285Y-108413855D01*
X131864285Y-108413855D02*
X132359523Y-108413855D01*
D12*
X122055357Y-125993832D02*
X122036309Y-126012880D01*
X122036309Y-126012880D02*
X121979167Y-126031927D01*
X121979167Y-126031927D02*
X121941071Y-126031927D01*
X121941071Y-126031927D02*
X121883928Y-126012880D01*
X121883928Y-126012880D02*
X121845833Y-125974784D01*
X121845833Y-125974784D02*
X121826786Y-125936689D01*
X121826786Y-125936689D02*
X121807738Y-125860499D01*
X121807738Y-125860499D02*
X121807738Y-125803356D01*
X121807738Y-125803356D02*
X121826786Y-125727165D01*
X121826786Y-125727165D02*
X121845833Y-125689070D01*
X121845833Y-125689070D02*
X121883928Y-125650975D01*
X121883928Y-125650975D02*
X121941071Y-125631927D01*
X121941071Y-125631927D02*
X121979167Y-125631927D01*
X121979167Y-125631927D02*
X122036309Y-125650975D01*
X122036309Y-125650975D02*
X122055357Y-125670022D01*
X122188690Y-125631927D02*
X122436309Y-125631927D01*
X122436309Y-125631927D02*
X122302976Y-125784308D01*
X122302976Y-125784308D02*
X122360119Y-125784308D01*
X122360119Y-125784308D02*
X122398214Y-125803356D01*
X122398214Y-125803356D02*
X122417262Y-125822403D01*
X122417262Y-125822403D02*
X122436309Y-125860499D01*
X122436309Y-125860499D02*
X122436309Y-125955737D01*
X122436309Y-125955737D02*
X122417262Y-125993832D01*
X122417262Y-125993832D02*
X122398214Y-126012880D01*
X122398214Y-126012880D02*
X122360119Y-126031927D01*
X122360119Y-126031927D02*
X122245833Y-126031927D01*
X122245833Y-126031927D02*
X122207738Y-126012880D01*
X122207738Y-126012880D02*
X122188690Y-125993832D01*
X122817261Y-126031927D02*
X122588690Y-126031927D01*
X122702976Y-126031927D02*
X122702976Y-125631927D01*
X122702976Y-125631927D02*
X122664880Y-125689070D01*
X122664880Y-125689070D02*
X122626785Y-125727165D01*
X122626785Y-125727165D02*
X122588690Y-125746213D01*
D13*
X122592030Y-129396428D02*
X122615840Y-129420237D01*
X122615840Y-129420237D02*
X122639649Y-129491666D01*
X122639649Y-129491666D02*
X122639649Y-129539285D01*
X122639649Y-129539285D02*
X122615840Y-129610713D01*
X122615840Y-129610713D02*
X122568220Y-129658332D01*
X122568220Y-129658332D02*
X122520601Y-129682142D01*
X122520601Y-129682142D02*
X122425363Y-129705951D01*
X122425363Y-129705951D02*
X122353935Y-129705951D01*
X122353935Y-129705951D02*
X122258697Y-129682142D01*
X122258697Y-129682142D02*
X122211078Y-129658332D01*
X122211078Y-129658332D02*
X122163459Y-129610713D01*
X122163459Y-129610713D02*
X122139649Y-129539285D01*
X122139649Y-129539285D02*
X122139649Y-129491666D01*
X122139649Y-129491666D02*
X122163459Y-129420237D01*
X122163459Y-129420237D02*
X122187268Y-129396428D01*
X122139649Y-129229761D02*
X122139649Y-128920237D01*
X122139649Y-128920237D02*
X122330125Y-129086904D01*
X122330125Y-129086904D02*
X122330125Y-129015475D01*
X122330125Y-129015475D02*
X122353935Y-128967856D01*
X122353935Y-128967856D02*
X122377744Y-128944047D01*
X122377744Y-128944047D02*
X122425363Y-128920237D01*
X122425363Y-128920237D02*
X122544411Y-128920237D01*
X122544411Y-128920237D02*
X122592030Y-128944047D01*
X122592030Y-128944047D02*
X122615840Y-128967856D01*
X122615840Y-128967856D02*
X122639649Y-129015475D01*
X122639649Y-129015475D02*
X122639649Y-129158332D01*
X122639649Y-129158332D02*
X122615840Y-129205951D01*
X122615840Y-129205951D02*
X122592030Y-129229761D01*
X122139649Y-128753571D02*
X122139649Y-128444047D01*
X122139649Y-128444047D02*
X122330125Y-128610714D01*
X122330125Y-128610714D02*
X122330125Y-128539285D01*
X122330125Y-128539285D02*
X122353935Y-128491666D01*
X122353935Y-128491666D02*
X122377744Y-128467857D01*
X122377744Y-128467857D02*
X122425363Y-128444047D01*
X122425363Y-128444047D02*
X122544411Y-128444047D01*
X122544411Y-128444047D02*
X122592030Y-128467857D01*
X122592030Y-128467857D02*
X122615840Y-128491666D01*
X122615840Y-128491666D02*
X122639649Y-128539285D01*
X122639649Y-128539285D02*
X122639649Y-128682142D01*
X122639649Y-128682142D02*
X122615840Y-128729761D01*
X122615840Y-128729761D02*
X122592030Y-128753571D01*
D12*
X114142857Y-120243832D02*
X114123809Y-120262880D01*
X114123809Y-120262880D02*
X114066667Y-120281927D01*
X114066667Y-120281927D02*
X114028571Y-120281927D01*
X114028571Y-120281927D02*
X113971428Y-120262880D01*
X113971428Y-120262880D02*
X113933333Y-120224784D01*
X113933333Y-120224784D02*
X113914286Y-120186689D01*
X113914286Y-120186689D02*
X113895238Y-120110499D01*
X113895238Y-120110499D02*
X113895238Y-120053356D01*
X113895238Y-120053356D02*
X113914286Y-119977165D01*
X113914286Y-119977165D02*
X113933333Y-119939070D01*
X113933333Y-119939070D02*
X113971428Y-119900975D01*
X113971428Y-119900975D02*
X114028571Y-119881927D01*
X114028571Y-119881927D02*
X114066667Y-119881927D01*
X114066667Y-119881927D02*
X114123809Y-119900975D01*
X114123809Y-119900975D02*
X114142857Y-119920022D01*
X114295238Y-119920022D02*
X114314286Y-119900975D01*
X114314286Y-119900975D02*
X114352381Y-119881927D01*
X114352381Y-119881927D02*
X114447619Y-119881927D01*
X114447619Y-119881927D02*
X114485714Y-119900975D01*
X114485714Y-119900975D02*
X114504762Y-119920022D01*
X114504762Y-119920022D02*
X114523809Y-119958118D01*
X114523809Y-119958118D02*
X114523809Y-119996213D01*
X114523809Y-119996213D02*
X114504762Y-120053356D01*
X114504762Y-120053356D02*
X114276190Y-120281927D01*
X114276190Y-120281927D02*
X114523809Y-120281927D01*
X114752380Y-120053356D02*
X114714285Y-120034308D01*
X114714285Y-120034308D02*
X114695238Y-120015260D01*
X114695238Y-120015260D02*
X114676190Y-119977165D01*
X114676190Y-119977165D02*
X114676190Y-119958118D01*
X114676190Y-119958118D02*
X114695238Y-119920022D01*
X114695238Y-119920022D02*
X114714285Y-119900975D01*
X114714285Y-119900975D02*
X114752380Y-119881927D01*
X114752380Y-119881927D02*
X114828571Y-119881927D01*
X114828571Y-119881927D02*
X114866666Y-119900975D01*
X114866666Y-119900975D02*
X114885714Y-119920022D01*
X114885714Y-119920022D02*
X114904761Y-119958118D01*
X114904761Y-119958118D02*
X114904761Y-119977165D01*
X114904761Y-119977165D02*
X114885714Y-120015260D01*
X114885714Y-120015260D02*
X114866666Y-120034308D01*
X114866666Y-120034308D02*
X114828571Y-120053356D01*
X114828571Y-120053356D02*
X114752380Y-120053356D01*
X114752380Y-120053356D02*
X114714285Y-120072403D01*
X114714285Y-120072403D02*
X114695238Y-120091451D01*
X114695238Y-120091451D02*
X114676190Y-120129546D01*
X114676190Y-120129546D02*
X114676190Y-120205737D01*
X114676190Y-120205737D02*
X114695238Y-120243832D01*
X114695238Y-120243832D02*
X114714285Y-120262880D01*
X114714285Y-120262880D02*
X114752380Y-120281927D01*
X114752380Y-120281927D02*
X114828571Y-120281927D01*
X114828571Y-120281927D02*
X114866666Y-120262880D01*
X114866666Y-120262880D02*
X114885714Y-120243832D01*
X114885714Y-120243832D02*
X114904761Y-120205737D01*
X114904761Y-120205737D02*
X114904761Y-120129546D01*
X114904761Y-120129546D02*
X114885714Y-120091451D01*
X114885714Y-120091451D02*
X114866666Y-120072403D01*
X114866666Y-120072403D02*
X114828571Y-120053356D01*
X121842857Y-84343832D02*
X121823809Y-84362880D01*
X121823809Y-84362880D02*
X121766667Y-84381927D01*
X121766667Y-84381927D02*
X121728571Y-84381927D01*
X121728571Y-84381927D02*
X121671428Y-84362880D01*
X121671428Y-84362880D02*
X121633333Y-84324784D01*
X121633333Y-84324784D02*
X121614286Y-84286689D01*
X121614286Y-84286689D02*
X121595238Y-84210499D01*
X121595238Y-84210499D02*
X121595238Y-84153356D01*
X121595238Y-84153356D02*
X121614286Y-84077165D01*
X121614286Y-84077165D02*
X121633333Y-84039070D01*
X121633333Y-84039070D02*
X121671428Y-84000975D01*
X121671428Y-84000975D02*
X121728571Y-83981927D01*
X121728571Y-83981927D02*
X121766667Y-83981927D01*
X121766667Y-83981927D02*
X121823809Y-84000975D01*
X121823809Y-84000975D02*
X121842857Y-84020022D01*
X122223809Y-84381927D02*
X121995238Y-84381927D01*
X122109524Y-84381927D02*
X122109524Y-83981927D01*
X122109524Y-83981927D02*
X122071428Y-84039070D01*
X122071428Y-84039070D02*
X122033333Y-84077165D01*
X122033333Y-84077165D02*
X121995238Y-84096213D01*
X122376190Y-84020022D02*
X122395238Y-84000975D01*
X122395238Y-84000975D02*
X122433333Y-83981927D01*
X122433333Y-83981927D02*
X122528571Y-83981927D01*
X122528571Y-83981927D02*
X122566666Y-84000975D01*
X122566666Y-84000975D02*
X122585714Y-84020022D01*
X122585714Y-84020022D02*
X122604761Y-84058118D01*
X122604761Y-84058118D02*
X122604761Y-84096213D01*
X122604761Y-84096213D02*
X122585714Y-84153356D01*
X122585714Y-84153356D02*
X122357142Y-84381927D01*
X122357142Y-84381927D02*
X122604761Y-84381927D01*
D10*
X122158333Y-78489765D02*
X122146429Y-78501670D01*
X122146429Y-78501670D02*
X122110714Y-78513574D01*
X122110714Y-78513574D02*
X122086905Y-78513574D01*
X122086905Y-78513574D02*
X122051191Y-78501670D01*
X122051191Y-78501670D02*
X122027381Y-78477860D01*
X122027381Y-78477860D02*
X122015476Y-78454050D01*
X122015476Y-78454050D02*
X122003572Y-78406431D01*
X122003572Y-78406431D02*
X122003572Y-78370717D01*
X122003572Y-78370717D02*
X122015476Y-78323098D01*
X122015476Y-78323098D02*
X122027381Y-78299289D01*
X122027381Y-78299289D02*
X122051191Y-78275479D01*
X122051191Y-78275479D02*
X122086905Y-78263574D01*
X122086905Y-78263574D02*
X122110714Y-78263574D01*
X122110714Y-78263574D02*
X122146429Y-78275479D01*
X122146429Y-78275479D02*
X122158333Y-78287384D01*
X122241667Y-78263574D02*
X122396429Y-78263574D01*
X122396429Y-78263574D02*
X122313095Y-78358812D01*
X122313095Y-78358812D02*
X122348810Y-78358812D01*
X122348810Y-78358812D02*
X122372619Y-78370717D01*
X122372619Y-78370717D02*
X122384524Y-78382622D01*
X122384524Y-78382622D02*
X122396429Y-78406431D01*
X122396429Y-78406431D02*
X122396429Y-78465955D01*
X122396429Y-78465955D02*
X122384524Y-78489765D01*
X122384524Y-78489765D02*
X122372619Y-78501670D01*
X122372619Y-78501670D02*
X122348810Y-78513574D01*
X122348810Y-78513574D02*
X122277381Y-78513574D01*
X122277381Y-78513574D02*
X122253572Y-78501670D01*
X122253572Y-78501670D02*
X122241667Y-78489765D01*
D12*
X113942857Y-132081927D02*
X113809524Y-131891451D01*
X113714286Y-132081927D02*
X113714286Y-131681927D01*
X113714286Y-131681927D02*
X113866667Y-131681927D01*
X113866667Y-131681927D02*
X113904762Y-131700975D01*
X113904762Y-131700975D02*
X113923809Y-131720022D01*
X113923809Y-131720022D02*
X113942857Y-131758118D01*
X113942857Y-131758118D02*
X113942857Y-131815260D01*
X113942857Y-131815260D02*
X113923809Y-131853356D01*
X113923809Y-131853356D02*
X113904762Y-131872403D01*
X113904762Y-131872403D02*
X113866667Y-131891451D01*
X113866667Y-131891451D02*
X113714286Y-131891451D01*
X114323809Y-132081927D02*
X114095238Y-132081927D01*
X114209524Y-132081927D02*
X114209524Y-131681927D01*
X114209524Y-131681927D02*
X114171428Y-131739070D01*
X114171428Y-131739070D02*
X114133333Y-131777165D01*
X114133333Y-131777165D02*
X114095238Y-131796213D01*
X114514285Y-132081927D02*
X114590476Y-132081927D01*
X114590476Y-132081927D02*
X114628571Y-132062880D01*
X114628571Y-132062880D02*
X114647619Y-132043832D01*
X114647619Y-132043832D02*
X114685714Y-131986689D01*
X114685714Y-131986689D02*
X114704761Y-131910499D01*
X114704761Y-131910499D02*
X114704761Y-131758118D01*
X114704761Y-131758118D02*
X114685714Y-131720022D01*
X114685714Y-131720022D02*
X114666666Y-131700975D01*
X114666666Y-131700975D02*
X114628571Y-131681927D01*
X114628571Y-131681927D02*
X114552380Y-131681927D01*
X114552380Y-131681927D02*
X114514285Y-131700975D01*
X114514285Y-131700975D02*
X114495238Y-131720022D01*
X114495238Y-131720022D02*
X114476190Y-131758118D01*
X114476190Y-131758118D02*
X114476190Y-131853356D01*
X114476190Y-131853356D02*
X114495238Y-131891451D01*
X114495238Y-131891451D02*
X114514285Y-131910499D01*
X114514285Y-131910499D02*
X114552380Y-131929546D01*
X114552380Y-131929546D02*
X114628571Y-131929546D01*
X114628571Y-131929546D02*
X114666666Y-131910499D01*
X114666666Y-131910499D02*
X114685714Y-131891451D01*
X114685714Y-131891451D02*
X114704761Y-131853356D01*
X131442857Y-133881927D02*
X131309524Y-133691451D01*
X131214286Y-133881927D02*
X131214286Y-133481927D01*
X131214286Y-133481927D02*
X131366667Y-133481927D01*
X131366667Y-133481927D02*
X131404762Y-133500975D01*
X131404762Y-133500975D02*
X131423809Y-133520022D01*
X131423809Y-133520022D02*
X131442857Y-133558118D01*
X131442857Y-133558118D02*
X131442857Y-133615260D01*
X131442857Y-133615260D02*
X131423809Y-133653356D01*
X131423809Y-133653356D02*
X131404762Y-133672403D01*
X131404762Y-133672403D02*
X131366667Y-133691451D01*
X131366667Y-133691451D02*
X131214286Y-133691451D01*
X131823809Y-133881927D02*
X131595238Y-133881927D01*
X131709524Y-133881927D02*
X131709524Y-133481927D01*
X131709524Y-133481927D02*
X131671428Y-133539070D01*
X131671428Y-133539070D02*
X131633333Y-133577165D01*
X131633333Y-133577165D02*
X131595238Y-133596213D01*
X131976190Y-133520022D02*
X131995238Y-133500975D01*
X131995238Y-133500975D02*
X132033333Y-133481927D01*
X132033333Y-133481927D02*
X132128571Y-133481927D01*
X132128571Y-133481927D02*
X132166666Y-133500975D01*
X132166666Y-133500975D02*
X132185714Y-133520022D01*
X132185714Y-133520022D02*
X132204761Y-133558118D01*
X132204761Y-133558118D02*
X132204761Y-133596213D01*
X132204761Y-133596213D02*
X132185714Y-133653356D01*
X132185714Y-133653356D02*
X131957142Y-133881927D01*
X131957142Y-133881927D02*
X132204761Y-133881927D01*
X137081927Y-68004761D02*
X137405737Y-68004761D01*
X137405737Y-68004761D02*
X137443832Y-67985714D01*
X137443832Y-67985714D02*
X137462880Y-67966666D01*
X137462880Y-67966666D02*
X137481927Y-67928571D01*
X137481927Y-67928571D02*
X137481927Y-67852380D01*
X137481927Y-67852380D02*
X137462880Y-67814285D01*
X137462880Y-67814285D02*
X137443832Y-67795238D01*
X137443832Y-67795238D02*
X137405737Y-67776190D01*
X137405737Y-67776190D02*
X137081927Y-67776190D01*
X137481927Y-67566666D02*
X137481927Y-67490475D01*
X137481927Y-67490475D02*
X137462880Y-67452380D01*
X137462880Y-67452380D02*
X137443832Y-67433332D01*
X137443832Y-67433332D02*
X137386689Y-67395237D01*
X137386689Y-67395237D02*
X137310499Y-67376190D01*
X137310499Y-67376190D02*
X137158118Y-67376190D01*
X137158118Y-67376190D02*
X137120022Y-67395237D01*
X137120022Y-67395237D02*
X137100975Y-67414285D01*
X137100975Y-67414285D02*
X137081927Y-67452380D01*
X137081927Y-67452380D02*
X137081927Y-67528571D01*
X137081927Y-67528571D02*
X137100975Y-67566666D01*
X137100975Y-67566666D02*
X137120022Y-67585713D01*
X137120022Y-67585713D02*
X137158118Y-67604761D01*
X137158118Y-67604761D02*
X137253356Y-67604761D01*
X137253356Y-67604761D02*
X137291451Y-67585713D01*
X137291451Y-67585713D02*
X137310499Y-67566666D01*
X137310499Y-67566666D02*
X137329546Y-67528571D01*
X137329546Y-67528571D02*
X137329546Y-67452380D01*
X137329546Y-67452380D02*
X137310499Y-67414285D01*
X137310499Y-67414285D02*
X137291451Y-67395237D01*
X137291451Y-67395237D02*
X137253356Y-67376190D01*
D14*
X132287664Y-103114285D02*
X132325760Y-103152381D01*
X132325760Y-103152381D02*
X132363855Y-103266666D01*
X132363855Y-103266666D02*
X132363855Y-103342857D01*
X132363855Y-103342857D02*
X132325760Y-103457143D01*
X132325760Y-103457143D02*
X132249569Y-103533333D01*
X132249569Y-103533333D02*
X132173379Y-103571428D01*
X132173379Y-103571428D02*
X132020998Y-103609524D01*
X132020998Y-103609524D02*
X131906712Y-103609524D01*
X131906712Y-103609524D02*
X131754331Y-103571428D01*
X131754331Y-103571428D02*
X131678140Y-103533333D01*
X131678140Y-103533333D02*
X131601950Y-103457143D01*
X131601950Y-103457143D02*
X131563855Y-103342857D01*
X131563855Y-103342857D02*
X131563855Y-103266666D01*
X131563855Y-103266666D02*
X131601950Y-103152381D01*
X131601950Y-103152381D02*
X131640045Y-103114285D01*
X131640045Y-102809524D02*
X131601950Y-102771428D01*
X131601950Y-102771428D02*
X131563855Y-102695238D01*
X131563855Y-102695238D02*
X131563855Y-102504762D01*
X131563855Y-102504762D02*
X131601950Y-102428571D01*
X131601950Y-102428571D02*
X131640045Y-102390476D01*
X131640045Y-102390476D02*
X131716236Y-102352381D01*
X131716236Y-102352381D02*
X131792426Y-102352381D01*
X131792426Y-102352381D02*
X131906712Y-102390476D01*
X131906712Y-102390476D02*
X132363855Y-102847619D01*
X132363855Y-102847619D02*
X132363855Y-102352381D01*
X131563855Y-101857142D02*
X131563855Y-101780952D01*
X131563855Y-101780952D02*
X131601950Y-101704761D01*
X131601950Y-101704761D02*
X131640045Y-101666666D01*
X131640045Y-101666666D02*
X131716236Y-101628571D01*
X131716236Y-101628571D02*
X131868617Y-101590476D01*
X131868617Y-101590476D02*
X132059093Y-101590476D01*
X132059093Y-101590476D02*
X132211474Y-101628571D01*
X132211474Y-101628571D02*
X132287664Y-101666666D01*
X132287664Y-101666666D02*
X132325760Y-101704761D01*
X132325760Y-101704761D02*
X132363855Y-101780952D01*
X132363855Y-101780952D02*
X132363855Y-101857142D01*
X132363855Y-101857142D02*
X132325760Y-101933333D01*
X132325760Y-101933333D02*
X132287664Y-101971428D01*
X132287664Y-101971428D02*
X132211474Y-102009523D01*
X132211474Y-102009523D02*
X132059093Y-102047619D01*
X132059093Y-102047619D02*
X131868617Y-102047619D01*
X131868617Y-102047619D02*
X131716236Y-102009523D01*
X131716236Y-102009523D02*
X131640045Y-101971428D01*
X131640045Y-101971428D02*
X131601950Y-101933333D01*
X131601950Y-101933333D02*
X131563855Y-101857142D01*
D11*
X115454819Y-79761904D02*
X116264342Y-79761904D01*
X116264342Y-79761904D02*
X116359580Y-79714285D01*
X116359580Y-79714285D02*
X116407200Y-79666666D01*
X116407200Y-79666666D02*
X116454819Y-79571428D01*
X116454819Y-79571428D02*
X116454819Y-79380952D01*
X116454819Y-79380952D02*
X116407200Y-79285714D01*
X116407200Y-79285714D02*
X116359580Y-79238095D01*
X116359580Y-79238095D02*
X116264342Y-79190476D01*
X116264342Y-79190476D02*
X115454819Y-79190476D01*
X115550057Y-78761904D02*
X115502438Y-78714285D01*
X115502438Y-78714285D02*
X115454819Y-78619047D01*
X115454819Y-78619047D02*
X115454819Y-78380952D01*
X115454819Y-78380952D02*
X115502438Y-78285714D01*
X115502438Y-78285714D02*
X115550057Y-78238095D01*
X115550057Y-78238095D02*
X115645295Y-78190476D01*
X115645295Y-78190476D02*
X115740533Y-78190476D01*
X115740533Y-78190476D02*
X115883390Y-78238095D01*
X115883390Y-78238095D02*
X116454819Y-78809523D01*
X116454819Y-78809523D02*
X116454819Y-78190476D01*
D10*
X109856667Y-82318200D02*
X109770000Y-82194391D01*
X109708095Y-82318200D02*
X109708095Y-82058200D01*
X109708095Y-82058200D02*
X109807143Y-82058200D01*
X109807143Y-82058200D02*
X109831905Y-82070581D01*
X109831905Y-82070581D02*
X109844286Y-82082962D01*
X109844286Y-82082962D02*
X109856667Y-82107724D01*
X109856667Y-82107724D02*
X109856667Y-82144867D01*
X109856667Y-82144867D02*
X109844286Y-82169629D01*
X109844286Y-82169629D02*
X109831905Y-82182010D01*
X109831905Y-82182010D02*
X109807143Y-82194391D01*
X109807143Y-82194391D02*
X109708095Y-82194391D01*
X109943333Y-82058200D02*
X110104286Y-82058200D01*
X110104286Y-82058200D02*
X110017619Y-82157248D01*
X110017619Y-82157248D02*
X110054762Y-82157248D01*
X110054762Y-82157248D02*
X110079524Y-82169629D01*
X110079524Y-82169629D02*
X110091905Y-82182010D01*
X110091905Y-82182010D02*
X110104286Y-82206772D01*
X110104286Y-82206772D02*
X110104286Y-82268677D01*
X110104286Y-82268677D02*
X110091905Y-82293439D01*
X110091905Y-82293439D02*
X110079524Y-82305820D01*
X110079524Y-82305820D02*
X110054762Y-82318200D01*
X110054762Y-82318200D02*
X109980476Y-82318200D01*
X109980476Y-82318200D02*
X109955714Y-82305820D01*
X109955714Y-82305820D02*
X109943333Y-82293439D01*
D12*
X118643832Y-130057142D02*
X118662880Y-130076190D01*
X118662880Y-130076190D02*
X118681927Y-130133332D01*
X118681927Y-130133332D02*
X118681927Y-130171428D01*
X118681927Y-130171428D02*
X118662880Y-130228571D01*
X118662880Y-130228571D02*
X118624784Y-130266666D01*
X118624784Y-130266666D02*
X118586689Y-130285713D01*
X118586689Y-130285713D02*
X118510499Y-130304761D01*
X118510499Y-130304761D02*
X118453356Y-130304761D01*
X118453356Y-130304761D02*
X118377165Y-130285713D01*
X118377165Y-130285713D02*
X118339070Y-130266666D01*
X118339070Y-130266666D02*
X118300975Y-130228571D01*
X118300975Y-130228571D02*
X118281927Y-130171428D01*
X118281927Y-130171428D02*
X118281927Y-130133332D01*
X118281927Y-130133332D02*
X118300975Y-130076190D01*
X118300975Y-130076190D02*
X118320022Y-130057142D01*
X118281927Y-129923809D02*
X118281927Y-129676190D01*
X118281927Y-129676190D02*
X118434308Y-129809523D01*
X118434308Y-129809523D02*
X118434308Y-129752380D01*
X118434308Y-129752380D02*
X118453356Y-129714285D01*
X118453356Y-129714285D02*
X118472403Y-129695237D01*
X118472403Y-129695237D02*
X118510499Y-129676190D01*
X118510499Y-129676190D02*
X118605737Y-129676190D01*
X118605737Y-129676190D02*
X118643832Y-129695237D01*
X118643832Y-129695237D02*
X118662880Y-129714285D01*
X118662880Y-129714285D02*
X118681927Y-129752380D01*
X118681927Y-129752380D02*
X118681927Y-129866666D01*
X118681927Y-129866666D02*
X118662880Y-129904761D01*
X118662880Y-129904761D02*
X118643832Y-129923809D01*
X118415260Y-129333333D02*
X118681927Y-129333333D01*
X118262880Y-129428571D02*
X118548594Y-129523809D01*
X118548594Y-129523809D02*
X118548594Y-129276190D01*
X139942857Y-104281927D02*
X139809524Y-104091451D01*
X139714286Y-104281927D02*
X139714286Y-103881927D01*
X139714286Y-103881927D02*
X139866667Y-103881927D01*
X139866667Y-103881927D02*
X139904762Y-103900975D01*
X139904762Y-103900975D02*
X139923809Y-103920022D01*
X139923809Y-103920022D02*
X139942857Y-103958118D01*
X139942857Y-103958118D02*
X139942857Y-104015260D01*
X139942857Y-104015260D02*
X139923809Y-104053356D01*
X139923809Y-104053356D02*
X139904762Y-104072403D01*
X139904762Y-104072403D02*
X139866667Y-104091451D01*
X139866667Y-104091451D02*
X139714286Y-104091451D01*
X140323809Y-104281927D02*
X140095238Y-104281927D01*
X140209524Y-104281927D02*
X140209524Y-103881927D01*
X140209524Y-103881927D02*
X140171428Y-103939070D01*
X140171428Y-103939070D02*
X140133333Y-103977165D01*
X140133333Y-103977165D02*
X140095238Y-103996213D01*
X140552380Y-104053356D02*
X140514285Y-104034308D01*
X140514285Y-104034308D02*
X140495238Y-104015260D01*
X140495238Y-104015260D02*
X140476190Y-103977165D01*
X140476190Y-103977165D02*
X140476190Y-103958118D01*
X140476190Y-103958118D02*
X140495238Y-103920022D01*
X140495238Y-103920022D02*
X140514285Y-103900975D01*
X140514285Y-103900975D02*
X140552380Y-103881927D01*
X140552380Y-103881927D02*
X140628571Y-103881927D01*
X140628571Y-103881927D02*
X140666666Y-103900975D01*
X140666666Y-103900975D02*
X140685714Y-103920022D01*
X140685714Y-103920022D02*
X140704761Y-103958118D01*
X140704761Y-103958118D02*
X140704761Y-103977165D01*
X140704761Y-103977165D02*
X140685714Y-104015260D01*
X140685714Y-104015260D02*
X140666666Y-104034308D01*
X140666666Y-104034308D02*
X140628571Y-104053356D01*
X140628571Y-104053356D02*
X140552380Y-104053356D01*
X140552380Y-104053356D02*
X140514285Y-104072403D01*
X140514285Y-104072403D02*
X140495238Y-104091451D01*
X140495238Y-104091451D02*
X140476190Y-104129546D01*
X140476190Y-104129546D02*
X140476190Y-104205737D01*
X140476190Y-104205737D02*
X140495238Y-104243832D01*
X140495238Y-104243832D02*
X140514285Y-104262880D01*
X140514285Y-104262880D02*
X140552380Y-104281927D01*
X140552380Y-104281927D02*
X140628571Y-104281927D01*
X140628571Y-104281927D02*
X140666666Y-104262880D01*
X140666666Y-104262880D02*
X140685714Y-104243832D01*
X140685714Y-104243832D02*
X140704761Y-104205737D01*
X140704761Y-104205737D02*
X140704761Y-104129546D01*
X140704761Y-104129546D02*
X140685714Y-104091451D01*
X140685714Y-104091451D02*
X140666666Y-104072403D01*
X140666666Y-104072403D02*
X140628571Y-104053356D01*
X138281927Y-93557142D02*
X138091451Y-93690475D01*
X138281927Y-93785713D02*
X137881927Y-93785713D01*
X137881927Y-93785713D02*
X137881927Y-93633332D01*
X137881927Y-93633332D02*
X137900975Y-93595237D01*
X137900975Y-93595237D02*
X137920022Y-93576190D01*
X137920022Y-93576190D02*
X137958118Y-93557142D01*
X137958118Y-93557142D02*
X138015260Y-93557142D01*
X138015260Y-93557142D02*
X138053356Y-93576190D01*
X138053356Y-93576190D02*
X138072403Y-93595237D01*
X138072403Y-93595237D02*
X138091451Y-93633332D01*
X138091451Y-93633332D02*
X138091451Y-93785713D01*
X138281927Y-93176190D02*
X138281927Y-93404761D01*
X138281927Y-93290475D02*
X137881927Y-93290475D01*
X137881927Y-93290475D02*
X137939070Y-93328571D01*
X137939070Y-93328571D02*
X137977165Y-93366666D01*
X137977165Y-93366666D02*
X137996213Y-93404761D01*
X137881927Y-92928571D02*
X137881927Y-92890476D01*
X137881927Y-92890476D02*
X137900975Y-92852380D01*
X137900975Y-92852380D02*
X137920022Y-92833333D01*
X137920022Y-92833333D02*
X137958118Y-92814285D01*
X137958118Y-92814285D02*
X138034308Y-92795238D01*
X138034308Y-92795238D02*
X138129546Y-92795238D01*
X138129546Y-92795238D02*
X138205737Y-92814285D01*
X138205737Y-92814285D02*
X138243832Y-92833333D01*
X138243832Y-92833333D02*
X138262880Y-92852380D01*
X138262880Y-92852380D02*
X138281927Y-92890476D01*
X138281927Y-92890476D02*
X138281927Y-92928571D01*
X138281927Y-92928571D02*
X138262880Y-92966666D01*
X138262880Y-92966666D02*
X138243832Y-92985714D01*
X138243832Y-92985714D02*
X138205737Y-93004761D01*
X138205737Y-93004761D02*
X138129546Y-93023809D01*
X138129546Y-93023809D02*
X138034308Y-93023809D01*
X138034308Y-93023809D02*
X137958118Y-93004761D01*
X137958118Y-93004761D02*
X137920022Y-92985714D01*
X137920022Y-92985714D02*
X137900975Y-92966666D01*
X137900975Y-92966666D02*
X137881927Y-92928571D01*
D11*
X140779819Y-79333333D02*
X141494104Y-79333333D01*
X141494104Y-79333333D02*
X141636961Y-79380952D01*
X141636961Y-79380952D02*
X141732200Y-79476190D01*
X141732200Y-79476190D02*
X141779819Y-79619047D01*
X141779819Y-79619047D02*
X141779819Y-79714285D01*
X140875057Y-78904761D02*
X140827438Y-78857142D01*
X140827438Y-78857142D02*
X140779819Y-78761904D01*
X140779819Y-78761904D02*
X140779819Y-78523809D01*
X140779819Y-78523809D02*
X140827438Y-78428571D01*
X140827438Y-78428571D02*
X140875057Y-78380952D01*
X140875057Y-78380952D02*
X140970295Y-78333333D01*
X140970295Y-78333333D02*
X141065533Y-78333333D01*
X141065533Y-78333333D02*
X141208390Y-78380952D01*
X141208390Y-78380952D02*
X141779819Y-78952380D01*
X141779819Y-78952380D02*
X141779819Y-78333333D01*
X116566666Y-138154819D02*
X116566666Y-138869104D01*
X116566666Y-138869104D02*
X116519047Y-139011961D01*
X116519047Y-139011961D02*
X116423809Y-139107200D01*
X116423809Y-139107200D02*
X116280952Y-139154819D01*
X116280952Y-139154819D02*
X116185714Y-139154819D01*
X116947619Y-138154819D02*
X117566666Y-138154819D01*
X117566666Y-138154819D02*
X117233333Y-138535771D01*
X117233333Y-138535771D02*
X117376190Y-138535771D01*
X117376190Y-138535771D02*
X117471428Y-138583390D01*
X117471428Y-138583390D02*
X117519047Y-138631009D01*
X117519047Y-138631009D02*
X117566666Y-138726247D01*
X117566666Y-138726247D02*
X117566666Y-138964342D01*
X117566666Y-138964342D02*
X117519047Y-139059580D01*
X117519047Y-139059580D02*
X117471428Y-139107200D01*
X117471428Y-139107200D02*
X117376190Y-139154819D01*
X117376190Y-139154819D02*
X117090476Y-139154819D01*
X117090476Y-139154819D02*
X116995238Y-139107200D01*
X116995238Y-139107200D02*
X116947619Y-139059580D01*
D14*
X123398214Y-124113855D02*
X123131547Y-123732902D01*
X122941071Y-124113855D02*
X122941071Y-123313855D01*
X122941071Y-123313855D02*
X123245833Y-123313855D01*
X123245833Y-123313855D02*
X123322023Y-123351950D01*
X123322023Y-123351950D02*
X123360118Y-123390045D01*
X123360118Y-123390045D02*
X123398214Y-123466236D01*
X123398214Y-123466236D02*
X123398214Y-123580521D01*
X123398214Y-123580521D02*
X123360118Y-123656712D01*
X123360118Y-123656712D02*
X123322023Y-123694807D01*
X123322023Y-123694807D02*
X123245833Y-123732902D01*
X123245833Y-123732902D02*
X122941071Y-123732902D01*
X123702975Y-123390045D02*
X123741071Y-123351950D01*
X123741071Y-123351950D02*
X123817261Y-123313855D01*
X123817261Y-123313855D02*
X124007737Y-123313855D01*
X124007737Y-123313855D02*
X124083928Y-123351950D01*
X124083928Y-123351950D02*
X124122023Y-123390045D01*
X124122023Y-123390045D02*
X124160118Y-123466236D01*
X124160118Y-123466236D02*
X124160118Y-123542426D01*
X124160118Y-123542426D02*
X124122023Y-123656712D01*
X124122023Y-123656712D02*
X123664880Y-124113855D01*
X123664880Y-124113855D02*
X124160118Y-124113855D01*
X124922023Y-124113855D02*
X124464880Y-124113855D01*
X124693452Y-124113855D02*
X124693452Y-123313855D01*
X124693452Y-123313855D02*
X124617261Y-123428140D01*
X124617261Y-123428140D02*
X124541071Y-123504331D01*
X124541071Y-123504331D02*
X124464880Y-123542426D01*
D11*
X126238095Y-73654819D02*
X126238095Y-74464342D01*
X126238095Y-74464342D02*
X126285714Y-74559580D01*
X126285714Y-74559580D02*
X126333333Y-74607200D01*
X126333333Y-74607200D02*
X126428571Y-74654819D01*
X126428571Y-74654819D02*
X126619047Y-74654819D01*
X126619047Y-74654819D02*
X126714285Y-74607200D01*
X126714285Y-74607200D02*
X126761904Y-74559580D01*
X126761904Y-74559580D02*
X126809523Y-74464342D01*
X126809523Y-74464342D02*
X126809523Y-73654819D01*
X127809523Y-74654819D02*
X127238095Y-74654819D01*
X127523809Y-74654819D02*
X127523809Y-73654819D01*
X127523809Y-73654819D02*
X127428571Y-73797676D01*
X127428571Y-73797676D02*
X127333333Y-73892914D01*
X127333333Y-73892914D02*
X127238095Y-73940533D01*
D10*
X122039285Y-80489765D02*
X122027381Y-80501670D01*
X122027381Y-80501670D02*
X121991666Y-80513574D01*
X121991666Y-80513574D02*
X121967857Y-80513574D01*
X121967857Y-80513574D02*
X121932143Y-80501670D01*
X121932143Y-80501670D02*
X121908333Y-80477860D01*
X121908333Y-80477860D02*
X121896428Y-80454050D01*
X121896428Y-80454050D02*
X121884524Y-80406431D01*
X121884524Y-80406431D02*
X121884524Y-80370717D01*
X121884524Y-80370717D02*
X121896428Y-80323098D01*
X121896428Y-80323098D02*
X121908333Y-80299289D01*
X121908333Y-80299289D02*
X121932143Y-80275479D01*
X121932143Y-80275479D02*
X121967857Y-80263574D01*
X121967857Y-80263574D02*
X121991666Y-80263574D01*
X121991666Y-80263574D02*
X122027381Y-80275479D01*
X122027381Y-80275479D02*
X122039285Y-80287384D01*
X122277381Y-80513574D02*
X122134524Y-80513574D01*
X122205952Y-80513574D02*
X122205952Y-80263574D01*
X122205952Y-80263574D02*
X122182143Y-80299289D01*
X122182143Y-80299289D02*
X122158333Y-80323098D01*
X122158333Y-80323098D02*
X122134524Y-80335003D01*
X122432142Y-80263574D02*
X122455952Y-80263574D01*
X122455952Y-80263574D02*
X122479761Y-80275479D01*
X122479761Y-80275479D02*
X122491666Y-80287384D01*
X122491666Y-80287384D02*
X122503571Y-80311193D01*
X122503571Y-80311193D02*
X122515476Y-80358812D01*
X122515476Y-80358812D02*
X122515476Y-80418336D01*
X122515476Y-80418336D02*
X122503571Y-80465955D01*
X122503571Y-80465955D02*
X122491666Y-80489765D01*
X122491666Y-80489765D02*
X122479761Y-80501670D01*
X122479761Y-80501670D02*
X122455952Y-80513574D01*
X122455952Y-80513574D02*
X122432142Y-80513574D01*
X122432142Y-80513574D02*
X122408333Y-80501670D01*
X122408333Y-80501670D02*
X122396428Y-80489765D01*
X122396428Y-80489765D02*
X122384523Y-80465955D01*
X122384523Y-80465955D02*
X122372619Y-80418336D01*
X122372619Y-80418336D02*
X122372619Y-80358812D01*
X122372619Y-80358812D02*
X122384523Y-80311193D01*
X122384523Y-80311193D02*
X122396428Y-80287384D01*
X122396428Y-80287384D02*
X122408333Y-80275479D01*
X122408333Y-80275479D02*
X122432142Y-80263574D01*
X115489765Y-85341666D02*
X115501670Y-85353570D01*
X115501670Y-85353570D02*
X115513574Y-85389285D01*
X115513574Y-85389285D02*
X115513574Y-85413094D01*
X115513574Y-85413094D02*
X115501670Y-85448808D01*
X115501670Y-85448808D02*
X115477860Y-85472618D01*
X115477860Y-85472618D02*
X115454050Y-85484523D01*
X115454050Y-85484523D02*
X115406431Y-85496427D01*
X115406431Y-85496427D02*
X115370717Y-85496427D01*
X115370717Y-85496427D02*
X115323098Y-85484523D01*
X115323098Y-85484523D02*
X115299289Y-85472618D01*
X115299289Y-85472618D02*
X115275479Y-85448808D01*
X115275479Y-85448808D02*
X115263574Y-85413094D01*
X115263574Y-85413094D02*
X115263574Y-85389285D01*
X115263574Y-85389285D02*
X115275479Y-85353570D01*
X115275479Y-85353570D02*
X115287384Y-85341666D01*
X115263574Y-85258332D02*
X115263574Y-85091666D01*
X115263574Y-85091666D02*
X115513574Y-85198808D01*
D15*
X132996244Y-60788928D02*
X133603387Y-60788928D01*
X133603387Y-60788928D02*
X133674815Y-60753214D01*
X133674815Y-60753214D02*
X133710530Y-60717500D01*
X133710530Y-60717500D02*
X133746244Y-60646071D01*
X133746244Y-60646071D02*
X133746244Y-60503214D01*
X133746244Y-60503214D02*
X133710530Y-60431785D01*
X133710530Y-60431785D02*
X133674815Y-60396071D01*
X133674815Y-60396071D02*
X133603387Y-60360357D01*
X133603387Y-60360357D02*
X132996244Y-60360357D01*
X133317672Y-59896071D02*
X133281958Y-59967500D01*
X133281958Y-59967500D02*
X133246244Y-60003214D01*
X133246244Y-60003214D02*
X133174815Y-60038928D01*
X133174815Y-60038928D02*
X133139101Y-60038928D01*
X133139101Y-60038928D02*
X133067672Y-60003214D01*
X133067672Y-60003214D02*
X133031958Y-59967500D01*
X133031958Y-59967500D02*
X132996244Y-59896071D01*
X132996244Y-59896071D02*
X132996244Y-59753214D01*
X132996244Y-59753214D02*
X133031958Y-59681786D01*
X133031958Y-59681786D02*
X133067672Y-59646071D01*
X133067672Y-59646071D02*
X133139101Y-59610357D01*
X133139101Y-59610357D02*
X133174815Y-59610357D01*
X133174815Y-59610357D02*
X133246244Y-59646071D01*
X133246244Y-59646071D02*
X133281958Y-59681786D01*
X133281958Y-59681786D02*
X133317672Y-59753214D01*
X133317672Y-59753214D02*
X133317672Y-59896071D01*
X133317672Y-59896071D02*
X133353387Y-59967500D01*
X133353387Y-59967500D02*
X133389101Y-60003214D01*
X133389101Y-60003214D02*
X133460530Y-60038928D01*
X133460530Y-60038928D02*
X133603387Y-60038928D01*
X133603387Y-60038928D02*
X133674815Y-60003214D01*
X133674815Y-60003214D02*
X133710530Y-59967500D01*
X133710530Y-59967500D02*
X133746244Y-59896071D01*
X133746244Y-59896071D02*
X133746244Y-59753214D01*
X133746244Y-59753214D02*
X133710530Y-59681786D01*
X133710530Y-59681786D02*
X133674815Y-59646071D01*
X133674815Y-59646071D02*
X133603387Y-59610357D01*
X133603387Y-59610357D02*
X133460530Y-59610357D01*
X133460530Y-59610357D02*
X133389101Y-59646071D01*
X133389101Y-59646071D02*
X133353387Y-59681786D01*
X133353387Y-59681786D02*
X133317672Y-59753214D01*
D16*
X110618373Y-70320833D02*
X111185040Y-70320833D01*
X111185040Y-70320833D02*
X111251706Y-70287500D01*
X111251706Y-70287500D02*
X111285040Y-70254166D01*
X111285040Y-70254166D02*
X111318373Y-70187500D01*
X111318373Y-70187500D02*
X111318373Y-70054166D01*
X111318373Y-70054166D02*
X111285040Y-69987500D01*
X111285040Y-69987500D02*
X111251706Y-69954166D01*
X111251706Y-69954166D02*
X111185040Y-69920833D01*
X111185040Y-69920833D02*
X110618373Y-69920833D01*
X110851706Y-69287500D02*
X111318373Y-69287500D01*
X110585040Y-69454167D02*
X111085040Y-69620833D01*
X111085040Y-69620833D02*
X111085040Y-69187500D01*
D10*
X109858333Y-81089765D02*
X109846429Y-81101670D01*
X109846429Y-81101670D02*
X109810714Y-81113574D01*
X109810714Y-81113574D02*
X109786905Y-81113574D01*
X109786905Y-81113574D02*
X109751191Y-81101670D01*
X109751191Y-81101670D02*
X109727381Y-81077860D01*
X109727381Y-81077860D02*
X109715476Y-81054050D01*
X109715476Y-81054050D02*
X109703572Y-81006431D01*
X109703572Y-81006431D02*
X109703572Y-80970717D01*
X109703572Y-80970717D02*
X109715476Y-80923098D01*
X109715476Y-80923098D02*
X109727381Y-80899289D01*
X109727381Y-80899289D02*
X109751191Y-80875479D01*
X109751191Y-80875479D02*
X109786905Y-80863574D01*
X109786905Y-80863574D02*
X109810714Y-80863574D01*
X109810714Y-80863574D02*
X109846429Y-80875479D01*
X109846429Y-80875479D02*
X109858333Y-80887384D01*
X109953572Y-80887384D02*
X109965476Y-80875479D01*
X109965476Y-80875479D02*
X109989286Y-80863574D01*
X109989286Y-80863574D02*
X110048810Y-80863574D01*
X110048810Y-80863574D02*
X110072619Y-80875479D01*
X110072619Y-80875479D02*
X110084524Y-80887384D01*
X110084524Y-80887384D02*
X110096429Y-80911193D01*
X110096429Y-80911193D02*
X110096429Y-80935003D01*
X110096429Y-80935003D02*
X110084524Y-80970717D01*
X110084524Y-80970717D02*
X109941667Y-81113574D01*
X109941667Y-81113574D02*
X110096429Y-81113574D01*
D12*
X135342857Y-70643832D02*
X135323809Y-70662880D01*
X135323809Y-70662880D02*
X135266667Y-70681927D01*
X135266667Y-70681927D02*
X135228571Y-70681927D01*
X135228571Y-70681927D02*
X135171428Y-70662880D01*
X135171428Y-70662880D02*
X135133333Y-70624784D01*
X135133333Y-70624784D02*
X135114286Y-70586689D01*
X135114286Y-70586689D02*
X135095238Y-70510499D01*
X135095238Y-70510499D02*
X135095238Y-70453356D01*
X135095238Y-70453356D02*
X135114286Y-70377165D01*
X135114286Y-70377165D02*
X135133333Y-70339070D01*
X135133333Y-70339070D02*
X135171428Y-70300975D01*
X135171428Y-70300975D02*
X135228571Y-70281927D01*
X135228571Y-70281927D02*
X135266667Y-70281927D01*
X135266667Y-70281927D02*
X135323809Y-70300975D01*
X135323809Y-70300975D02*
X135342857Y-70320022D01*
X135476190Y-70281927D02*
X135723809Y-70281927D01*
X135723809Y-70281927D02*
X135590476Y-70434308D01*
X135590476Y-70434308D02*
X135647619Y-70434308D01*
X135647619Y-70434308D02*
X135685714Y-70453356D01*
X135685714Y-70453356D02*
X135704762Y-70472403D01*
X135704762Y-70472403D02*
X135723809Y-70510499D01*
X135723809Y-70510499D02*
X135723809Y-70605737D01*
X135723809Y-70605737D02*
X135704762Y-70643832D01*
X135704762Y-70643832D02*
X135685714Y-70662880D01*
X135685714Y-70662880D02*
X135647619Y-70681927D01*
X135647619Y-70681927D02*
X135533333Y-70681927D01*
X135533333Y-70681927D02*
X135495238Y-70662880D01*
X135495238Y-70662880D02*
X135476190Y-70643832D01*
X135952380Y-70453356D02*
X135914285Y-70434308D01*
X135914285Y-70434308D02*
X135895238Y-70415260D01*
X135895238Y-70415260D02*
X135876190Y-70377165D01*
X135876190Y-70377165D02*
X135876190Y-70358118D01*
X135876190Y-70358118D02*
X135895238Y-70320022D01*
X135895238Y-70320022D02*
X135914285Y-70300975D01*
X135914285Y-70300975D02*
X135952380Y-70281927D01*
X135952380Y-70281927D02*
X136028571Y-70281927D01*
X136028571Y-70281927D02*
X136066666Y-70300975D01*
X136066666Y-70300975D02*
X136085714Y-70320022D01*
X136085714Y-70320022D02*
X136104761Y-70358118D01*
X136104761Y-70358118D02*
X136104761Y-70377165D01*
X136104761Y-70377165D02*
X136085714Y-70415260D01*
X136085714Y-70415260D02*
X136066666Y-70434308D01*
X136066666Y-70434308D02*
X136028571Y-70453356D01*
X136028571Y-70453356D02*
X135952380Y-70453356D01*
X135952380Y-70453356D02*
X135914285Y-70472403D01*
X135914285Y-70472403D02*
X135895238Y-70491451D01*
X135895238Y-70491451D02*
X135876190Y-70529546D01*
X135876190Y-70529546D02*
X135876190Y-70605737D01*
X135876190Y-70605737D02*
X135895238Y-70643832D01*
X135895238Y-70643832D02*
X135914285Y-70662880D01*
X135914285Y-70662880D02*
X135952380Y-70681927D01*
X135952380Y-70681927D02*
X136028571Y-70681927D01*
X136028571Y-70681927D02*
X136066666Y-70662880D01*
X136066666Y-70662880D02*
X136085714Y-70643832D01*
X136085714Y-70643832D02*
X136104761Y-70605737D01*
X136104761Y-70605737D02*
X136104761Y-70529546D01*
X136104761Y-70529546D02*
X136085714Y-70491451D01*
X136085714Y-70491451D02*
X136066666Y-70472403D01*
X136066666Y-70472403D02*
X136028571Y-70453356D01*
D14*
X140387664Y-139014285D02*
X140425760Y-139052381D01*
X140425760Y-139052381D02*
X140463855Y-139166666D01*
X140463855Y-139166666D02*
X140463855Y-139242857D01*
X140463855Y-139242857D02*
X140425760Y-139357143D01*
X140425760Y-139357143D02*
X140349569Y-139433333D01*
X140349569Y-139433333D02*
X140273379Y-139471428D01*
X140273379Y-139471428D02*
X140120998Y-139509524D01*
X140120998Y-139509524D02*
X140006712Y-139509524D01*
X140006712Y-139509524D02*
X139854331Y-139471428D01*
X139854331Y-139471428D02*
X139778140Y-139433333D01*
X139778140Y-139433333D02*
X139701950Y-139357143D01*
X139701950Y-139357143D02*
X139663855Y-139242857D01*
X139663855Y-139242857D02*
X139663855Y-139166666D01*
X139663855Y-139166666D02*
X139701950Y-139052381D01*
X139701950Y-139052381D02*
X139740045Y-139014285D01*
X139740045Y-138709524D02*
X139701950Y-138671428D01*
X139701950Y-138671428D02*
X139663855Y-138595238D01*
X139663855Y-138595238D02*
X139663855Y-138404762D01*
X139663855Y-138404762D02*
X139701950Y-138328571D01*
X139701950Y-138328571D02*
X139740045Y-138290476D01*
X139740045Y-138290476D02*
X139816236Y-138252381D01*
X139816236Y-138252381D02*
X139892426Y-138252381D01*
X139892426Y-138252381D02*
X140006712Y-138290476D01*
X140006712Y-138290476D02*
X140463855Y-138747619D01*
X140463855Y-138747619D02*
X140463855Y-138252381D01*
X139663855Y-137985714D02*
X139663855Y-137490476D01*
X139663855Y-137490476D02*
X139968617Y-137757142D01*
X139968617Y-137757142D02*
X139968617Y-137642857D01*
X139968617Y-137642857D02*
X140006712Y-137566666D01*
X140006712Y-137566666D02*
X140044807Y-137528571D01*
X140044807Y-137528571D02*
X140120998Y-137490476D01*
X140120998Y-137490476D02*
X140311474Y-137490476D01*
X140311474Y-137490476D02*
X140387664Y-137528571D01*
X140387664Y-137528571D02*
X140425760Y-137566666D01*
X140425760Y-137566666D02*
X140463855Y-137642857D01*
X140463855Y-137642857D02*
X140463855Y-137871428D01*
X140463855Y-137871428D02*
X140425760Y-137947619D01*
X140425760Y-137947619D02*
X140387664Y-137985714D01*
D16*
X106866667Y-75585040D02*
X106866667Y-75918373D01*
X106633333Y-75218373D02*
X106866667Y-75585040D01*
X106866667Y-75585040D02*
X107100000Y-75218373D01*
X107700000Y-75918373D02*
X107300000Y-75918373D01*
X107500000Y-75918373D02*
X107500000Y-75218373D01*
X107500000Y-75218373D02*
X107433333Y-75318373D01*
X107433333Y-75318373D02*
X107366667Y-75385040D01*
X107366667Y-75385040D02*
X107300000Y-75418373D01*
D11*
X129466666Y-82599819D02*
X129466666Y-83314104D01*
X129466666Y-83314104D02*
X129419047Y-83456961D01*
X129419047Y-83456961D02*
X129323809Y-83552200D01*
X129323809Y-83552200D02*
X129180952Y-83599819D01*
X129180952Y-83599819D02*
X129085714Y-83599819D01*
X129942857Y-83599819D02*
X129942857Y-82599819D01*
X129942857Y-82599819D02*
X130323809Y-82599819D01*
X130323809Y-82599819D02*
X130419047Y-82647438D01*
X130419047Y-82647438D02*
X130466666Y-82695057D01*
X130466666Y-82695057D02*
X130514285Y-82790295D01*
X130514285Y-82790295D02*
X130514285Y-82933152D01*
X130514285Y-82933152D02*
X130466666Y-83028390D01*
X130466666Y-83028390D02*
X130419047Y-83076009D01*
X130419047Y-83076009D02*
X130323809Y-83123628D01*
X130323809Y-83123628D02*
X129942857Y-83123628D01*
X131466666Y-83599819D02*
X130895238Y-83599819D01*
X131180952Y-83599819D02*
X131180952Y-82599819D01*
X131180952Y-82599819D02*
X131085714Y-82742676D01*
X131085714Y-82742676D02*
X130990476Y-82837914D01*
X130990476Y-82837914D02*
X130895238Y-82885533D01*
D13*
X136079530Y-93721428D02*
X136103340Y-93745237D01*
X136103340Y-93745237D02*
X136127149Y-93816666D01*
X136127149Y-93816666D02*
X136127149Y-93864285D01*
X136127149Y-93864285D02*
X136103340Y-93935713D01*
X136103340Y-93935713D02*
X136055720Y-93983332D01*
X136055720Y-93983332D02*
X136008101Y-94007142D01*
X136008101Y-94007142D02*
X135912863Y-94030951D01*
X135912863Y-94030951D02*
X135841435Y-94030951D01*
X135841435Y-94030951D02*
X135746197Y-94007142D01*
X135746197Y-94007142D02*
X135698578Y-93983332D01*
X135698578Y-93983332D02*
X135650959Y-93935713D01*
X135650959Y-93935713D02*
X135627149Y-93864285D01*
X135627149Y-93864285D02*
X135627149Y-93816666D01*
X135627149Y-93816666D02*
X135650959Y-93745237D01*
X135650959Y-93745237D02*
X135674768Y-93721428D01*
X135674768Y-93530951D02*
X135650959Y-93507142D01*
X135650959Y-93507142D02*
X135627149Y-93459523D01*
X135627149Y-93459523D02*
X135627149Y-93340475D01*
X135627149Y-93340475D02*
X135650959Y-93292856D01*
X135650959Y-93292856D02*
X135674768Y-93269047D01*
X135674768Y-93269047D02*
X135722387Y-93245237D01*
X135722387Y-93245237D02*
X135770006Y-93245237D01*
X135770006Y-93245237D02*
X135841435Y-93269047D01*
X135841435Y-93269047D02*
X136127149Y-93554761D01*
X136127149Y-93554761D02*
X136127149Y-93245237D01*
X135627149Y-92792857D02*
X135627149Y-93030952D01*
X135627149Y-93030952D02*
X135865244Y-93054761D01*
X135865244Y-93054761D02*
X135841435Y-93030952D01*
X135841435Y-93030952D02*
X135817625Y-92983333D01*
X135817625Y-92983333D02*
X135817625Y-92864285D01*
X135817625Y-92864285D02*
X135841435Y-92816666D01*
X135841435Y-92816666D02*
X135865244Y-92792857D01*
X135865244Y-92792857D02*
X135912863Y-92769047D01*
X135912863Y-92769047D02*
X136031911Y-92769047D01*
X136031911Y-92769047D02*
X136079530Y-92792857D01*
X136079530Y-92792857D02*
X136103340Y-92816666D01*
X136103340Y-92816666D02*
X136127149Y-92864285D01*
X136127149Y-92864285D02*
X136127149Y-92983333D01*
X136127149Y-92983333D02*
X136103340Y-93030952D01*
X136103340Y-93030952D02*
X136079530Y-93054761D01*
D12*
X136242857Y-104281927D02*
X136109524Y-104091451D01*
X136014286Y-104281927D02*
X136014286Y-103881927D01*
X136014286Y-103881927D02*
X136166667Y-103881927D01*
X136166667Y-103881927D02*
X136204762Y-103900975D01*
X136204762Y-103900975D02*
X136223809Y-103920022D01*
X136223809Y-103920022D02*
X136242857Y-103958118D01*
X136242857Y-103958118D02*
X136242857Y-104015260D01*
X136242857Y-104015260D02*
X136223809Y-104053356D01*
X136223809Y-104053356D02*
X136204762Y-104072403D01*
X136204762Y-104072403D02*
X136166667Y-104091451D01*
X136166667Y-104091451D02*
X136014286Y-104091451D01*
X136623809Y-104281927D02*
X136395238Y-104281927D01*
X136509524Y-104281927D02*
X136509524Y-103881927D01*
X136509524Y-103881927D02*
X136471428Y-103939070D01*
X136471428Y-103939070D02*
X136433333Y-103977165D01*
X136433333Y-103977165D02*
X136395238Y-103996213D01*
X136966666Y-103881927D02*
X136890476Y-103881927D01*
X136890476Y-103881927D02*
X136852380Y-103900975D01*
X136852380Y-103900975D02*
X136833333Y-103920022D01*
X136833333Y-103920022D02*
X136795238Y-103977165D01*
X136795238Y-103977165D02*
X136776190Y-104053356D01*
X136776190Y-104053356D02*
X136776190Y-104205737D01*
X136776190Y-104205737D02*
X136795238Y-104243832D01*
X136795238Y-104243832D02*
X136814285Y-104262880D01*
X136814285Y-104262880D02*
X136852380Y-104281927D01*
X136852380Y-104281927D02*
X136928571Y-104281927D01*
X136928571Y-104281927D02*
X136966666Y-104262880D01*
X136966666Y-104262880D02*
X136985714Y-104243832D01*
X136985714Y-104243832D02*
X137004761Y-104205737D01*
X137004761Y-104205737D02*
X137004761Y-104110499D01*
X137004761Y-104110499D02*
X136985714Y-104072403D01*
X136985714Y-104072403D02*
X136966666Y-104053356D01*
X136966666Y-104053356D02*
X136928571Y-104034308D01*
X136928571Y-104034308D02*
X136852380Y-104034308D01*
X136852380Y-104034308D02*
X136814285Y-104053356D01*
X136814285Y-104053356D02*
X136795238Y-104072403D01*
X136795238Y-104072403D02*
X136776190Y-104110499D01*
D10*
X113489765Y-71060714D02*
X113501670Y-71072618D01*
X113501670Y-71072618D02*
X113513574Y-71108333D01*
X113513574Y-71108333D02*
X113513574Y-71132142D01*
X113513574Y-71132142D02*
X113501670Y-71167856D01*
X113501670Y-71167856D02*
X113477860Y-71191666D01*
X113477860Y-71191666D02*
X113454050Y-71203571D01*
X113454050Y-71203571D02*
X113406431Y-71215475D01*
X113406431Y-71215475D02*
X113370717Y-71215475D01*
X113370717Y-71215475D02*
X113323098Y-71203571D01*
X113323098Y-71203571D02*
X113299289Y-71191666D01*
X113299289Y-71191666D02*
X113275479Y-71167856D01*
X113275479Y-71167856D02*
X113263574Y-71132142D01*
X113263574Y-71132142D02*
X113263574Y-71108333D01*
X113263574Y-71108333D02*
X113275479Y-71072618D01*
X113275479Y-71072618D02*
X113287384Y-71060714D01*
X113513574Y-70822618D02*
X113513574Y-70965475D01*
X113513574Y-70894047D02*
X113263574Y-70894047D01*
X113263574Y-70894047D02*
X113299289Y-70917856D01*
X113299289Y-70917856D02*
X113323098Y-70941666D01*
X113323098Y-70941666D02*
X113335003Y-70965475D01*
X113513574Y-70703571D02*
X113513574Y-70655952D01*
X113513574Y-70655952D02*
X113501670Y-70632142D01*
X113501670Y-70632142D02*
X113489765Y-70620238D01*
X113489765Y-70620238D02*
X113454050Y-70596428D01*
X113454050Y-70596428D02*
X113406431Y-70584523D01*
X113406431Y-70584523D02*
X113311193Y-70584523D01*
X113311193Y-70584523D02*
X113287384Y-70596428D01*
X113287384Y-70596428D02*
X113275479Y-70608333D01*
X113275479Y-70608333D02*
X113263574Y-70632142D01*
X113263574Y-70632142D02*
X113263574Y-70679761D01*
X113263574Y-70679761D02*
X113275479Y-70703571D01*
X113275479Y-70703571D02*
X113287384Y-70715476D01*
X113287384Y-70715476D02*
X113311193Y-70727380D01*
X113311193Y-70727380D02*
X113370717Y-70727380D01*
X113370717Y-70727380D02*
X113394527Y-70715476D01*
X113394527Y-70715476D02*
X113406431Y-70703571D01*
X113406431Y-70703571D02*
X113418336Y-70679761D01*
X113418336Y-70679761D02*
X113418336Y-70632142D01*
X113418336Y-70632142D02*
X113406431Y-70608333D01*
X113406431Y-70608333D02*
X113394527Y-70596428D01*
X113394527Y-70596428D02*
X113370717Y-70584523D01*
D15*
X137301244Y-99161428D02*
X137908387Y-99161428D01*
X137908387Y-99161428D02*
X137979815Y-99125714D01*
X137979815Y-99125714D02*
X138015530Y-99090000D01*
X138015530Y-99090000D02*
X138051244Y-99018571D01*
X138051244Y-99018571D02*
X138051244Y-98875714D01*
X138051244Y-98875714D02*
X138015530Y-98804285D01*
X138015530Y-98804285D02*
X137979815Y-98768571D01*
X137979815Y-98768571D02*
X137908387Y-98732857D01*
X137908387Y-98732857D02*
X137301244Y-98732857D01*
X137301244Y-98054286D02*
X137301244Y-98197143D01*
X137301244Y-98197143D02*
X137336958Y-98268571D01*
X137336958Y-98268571D02*
X137372672Y-98304286D01*
X137372672Y-98304286D02*
X137479815Y-98375714D01*
X137479815Y-98375714D02*
X137622672Y-98411428D01*
X137622672Y-98411428D02*
X137908387Y-98411428D01*
X137908387Y-98411428D02*
X137979815Y-98375714D01*
X137979815Y-98375714D02*
X138015530Y-98340000D01*
X138015530Y-98340000D02*
X138051244Y-98268571D01*
X138051244Y-98268571D02*
X138051244Y-98125714D01*
X138051244Y-98125714D02*
X138015530Y-98054286D01*
X138015530Y-98054286D02*
X137979815Y-98018571D01*
X137979815Y-98018571D02*
X137908387Y-97982857D01*
X137908387Y-97982857D02*
X137729815Y-97982857D01*
X137729815Y-97982857D02*
X137658387Y-98018571D01*
X137658387Y-98018571D02*
X137622672Y-98054286D01*
X137622672Y-98054286D02*
X137586958Y-98125714D01*
X137586958Y-98125714D02*
X137586958Y-98268571D01*
X137586958Y-98268571D02*
X137622672Y-98340000D01*
X137622672Y-98340000D02*
X137658387Y-98375714D01*
X137658387Y-98375714D02*
X137729815Y-98411428D01*
D12*
X136242857Y-106081927D02*
X136109524Y-105891451D01*
X136014286Y-106081927D02*
X136014286Y-105681927D01*
X136014286Y-105681927D02*
X136166667Y-105681927D01*
X136166667Y-105681927D02*
X136204762Y-105700975D01*
X136204762Y-105700975D02*
X136223809Y-105720022D01*
X136223809Y-105720022D02*
X136242857Y-105758118D01*
X136242857Y-105758118D02*
X136242857Y-105815260D01*
X136242857Y-105815260D02*
X136223809Y-105853356D01*
X136223809Y-105853356D02*
X136204762Y-105872403D01*
X136204762Y-105872403D02*
X136166667Y-105891451D01*
X136166667Y-105891451D02*
X136014286Y-105891451D01*
X136623809Y-106081927D02*
X136395238Y-106081927D01*
X136509524Y-106081927D02*
X136509524Y-105681927D01*
X136509524Y-105681927D02*
X136471428Y-105739070D01*
X136471428Y-105739070D02*
X136433333Y-105777165D01*
X136433333Y-105777165D02*
X136395238Y-105796213D01*
X136757142Y-105681927D02*
X137023809Y-105681927D01*
X137023809Y-105681927D02*
X136852380Y-106081927D01*
D10*
X135056667Y-80818200D02*
X134970000Y-80694391D01*
X134908095Y-80818200D02*
X134908095Y-80558200D01*
X134908095Y-80558200D02*
X135007143Y-80558200D01*
X135007143Y-80558200D02*
X135031905Y-80570581D01*
X135031905Y-80570581D02*
X135044286Y-80582962D01*
X135044286Y-80582962D02*
X135056667Y-80607724D01*
X135056667Y-80607724D02*
X135056667Y-80644867D01*
X135056667Y-80644867D02*
X135044286Y-80669629D01*
X135044286Y-80669629D02*
X135031905Y-80682010D01*
X135031905Y-80682010D02*
X135007143Y-80694391D01*
X135007143Y-80694391D02*
X134908095Y-80694391D01*
X135205238Y-80669629D02*
X135180476Y-80657248D01*
X135180476Y-80657248D02*
X135168095Y-80644867D01*
X135168095Y-80644867D02*
X135155714Y-80620105D01*
X135155714Y-80620105D02*
X135155714Y-80607724D01*
X135155714Y-80607724D02*
X135168095Y-80582962D01*
X135168095Y-80582962D02*
X135180476Y-80570581D01*
X135180476Y-80570581D02*
X135205238Y-80558200D01*
X135205238Y-80558200D02*
X135254762Y-80558200D01*
X135254762Y-80558200D02*
X135279524Y-80570581D01*
X135279524Y-80570581D02*
X135291905Y-80582962D01*
X135291905Y-80582962D02*
X135304286Y-80607724D01*
X135304286Y-80607724D02*
X135304286Y-80620105D01*
X135304286Y-80620105D02*
X135291905Y-80644867D01*
X135291905Y-80644867D02*
X135279524Y-80657248D01*
X135279524Y-80657248D02*
X135254762Y-80669629D01*
X135254762Y-80669629D02*
X135205238Y-80669629D01*
X135205238Y-80669629D02*
X135180476Y-80682010D01*
X135180476Y-80682010D02*
X135168095Y-80694391D01*
X135168095Y-80694391D02*
X135155714Y-80719153D01*
X135155714Y-80719153D02*
X135155714Y-80768677D01*
X135155714Y-80768677D02*
X135168095Y-80793439D01*
X135168095Y-80793439D02*
X135180476Y-80805820D01*
X135180476Y-80805820D02*
X135205238Y-80818200D01*
X135205238Y-80818200D02*
X135254762Y-80818200D01*
X135254762Y-80818200D02*
X135279524Y-80805820D01*
X135279524Y-80805820D02*
X135291905Y-80793439D01*
X135291905Y-80793439D02*
X135304286Y-80768677D01*
X135304286Y-80768677D02*
X135304286Y-80719153D01*
X135304286Y-80719153D02*
X135291905Y-80694391D01*
X135291905Y-80694391D02*
X135279524Y-80682010D01*
X135279524Y-80682010D02*
X135254762Y-80669629D01*
X109856667Y-78718200D02*
X109770000Y-78594391D01*
X109708095Y-78718200D02*
X109708095Y-78458200D01*
X109708095Y-78458200D02*
X109807143Y-78458200D01*
X109807143Y-78458200D02*
X109831905Y-78470581D01*
X109831905Y-78470581D02*
X109844286Y-78482962D01*
X109844286Y-78482962D02*
X109856667Y-78507724D01*
X109856667Y-78507724D02*
X109856667Y-78544867D01*
X109856667Y-78544867D02*
X109844286Y-78569629D01*
X109844286Y-78569629D02*
X109831905Y-78582010D01*
X109831905Y-78582010D02*
X109807143Y-78594391D01*
X109807143Y-78594391D02*
X109708095Y-78594391D01*
X109943333Y-78458200D02*
X110116667Y-78458200D01*
X110116667Y-78458200D02*
X110005238Y-78718200D01*
D11*
X142587800Y-96566667D02*
X142540180Y-96709524D01*
X142540180Y-96709524D02*
X142540180Y-96947619D01*
X142540180Y-96947619D02*
X142587800Y-97042857D01*
X142587800Y-97042857D02*
X142635419Y-97090476D01*
X142635419Y-97090476D02*
X142730657Y-97138095D01*
X142730657Y-97138095D02*
X142825895Y-97138095D01*
X142825895Y-97138095D02*
X142921133Y-97090476D01*
X142921133Y-97090476D02*
X142968752Y-97042857D01*
X142968752Y-97042857D02*
X143016371Y-96947619D01*
X143016371Y-96947619D02*
X143063990Y-96757143D01*
X143063990Y-96757143D02*
X143111609Y-96661905D01*
X143111609Y-96661905D02*
X143159228Y-96614286D01*
X143159228Y-96614286D02*
X143254466Y-96566667D01*
X143254466Y-96566667D02*
X143349704Y-96566667D01*
X143349704Y-96566667D02*
X143444942Y-96614286D01*
X143444942Y-96614286D02*
X143492561Y-96661905D01*
X143492561Y-96661905D02*
X143540180Y-96757143D01*
X143540180Y-96757143D02*
X143540180Y-96995238D01*
X143540180Y-96995238D02*
X143492561Y-97138095D01*
X143540180Y-97471429D02*
X142540180Y-97709524D01*
X142540180Y-97709524D02*
X143254466Y-97900000D01*
X143254466Y-97900000D02*
X142540180Y-98090476D01*
X142540180Y-98090476D02*
X143540180Y-98328572D01*
X142540180Y-99233333D02*
X142540180Y-98661905D01*
X142540180Y-98947619D02*
X143540180Y-98947619D01*
X143540180Y-98947619D02*
X143397323Y-98852381D01*
X143397323Y-98852381D02*
X143302085Y-98757143D01*
X143302085Y-98757143D02*
X143254466Y-98661905D01*
D10*
X132289765Y-71960714D02*
X132301670Y-71972618D01*
X132301670Y-71972618D02*
X132313574Y-72008333D01*
X132313574Y-72008333D02*
X132313574Y-72032142D01*
X132313574Y-72032142D02*
X132301670Y-72067856D01*
X132301670Y-72067856D02*
X132277860Y-72091666D01*
X132277860Y-72091666D02*
X132254050Y-72103571D01*
X132254050Y-72103571D02*
X132206431Y-72115475D01*
X132206431Y-72115475D02*
X132170717Y-72115475D01*
X132170717Y-72115475D02*
X132123098Y-72103571D01*
X132123098Y-72103571D02*
X132099289Y-72091666D01*
X132099289Y-72091666D02*
X132075479Y-72067856D01*
X132075479Y-72067856D02*
X132063574Y-72032142D01*
X132063574Y-72032142D02*
X132063574Y-72008333D01*
X132063574Y-72008333D02*
X132075479Y-71972618D01*
X132075479Y-71972618D02*
X132087384Y-71960714D01*
X132313574Y-71722618D02*
X132313574Y-71865475D01*
X132313574Y-71794047D02*
X132063574Y-71794047D01*
X132063574Y-71794047D02*
X132099289Y-71817856D01*
X132099289Y-71817856D02*
X132123098Y-71841666D01*
X132123098Y-71841666D02*
X132135003Y-71865475D01*
X132063574Y-71639285D02*
X132063574Y-71484523D01*
X132063574Y-71484523D02*
X132158812Y-71567857D01*
X132158812Y-71567857D02*
X132158812Y-71532142D01*
X132158812Y-71532142D02*
X132170717Y-71508333D01*
X132170717Y-71508333D02*
X132182622Y-71496428D01*
X132182622Y-71496428D02*
X132206431Y-71484523D01*
X132206431Y-71484523D02*
X132265955Y-71484523D01*
X132265955Y-71484523D02*
X132289765Y-71496428D01*
X132289765Y-71496428D02*
X132301670Y-71508333D01*
X132301670Y-71508333D02*
X132313574Y-71532142D01*
X132313574Y-71532142D02*
X132313574Y-71603571D01*
X132313574Y-71603571D02*
X132301670Y-71627380D01*
X132301670Y-71627380D02*
X132289765Y-71639285D01*
D12*
X136028832Y-58844642D02*
X136047880Y-58863690D01*
X136047880Y-58863690D02*
X136066927Y-58920832D01*
X136066927Y-58920832D02*
X136066927Y-58958928D01*
X136066927Y-58958928D02*
X136047880Y-59016071D01*
X136047880Y-59016071D02*
X136009784Y-59054166D01*
X136009784Y-59054166D02*
X135971689Y-59073213D01*
X135971689Y-59073213D02*
X135895499Y-59092261D01*
X135895499Y-59092261D02*
X135838356Y-59092261D01*
X135838356Y-59092261D02*
X135762165Y-59073213D01*
X135762165Y-59073213D02*
X135724070Y-59054166D01*
X135724070Y-59054166D02*
X135685975Y-59016071D01*
X135685975Y-59016071D02*
X135666927Y-58958928D01*
X135666927Y-58958928D02*
X135666927Y-58920832D01*
X135666927Y-58920832D02*
X135685975Y-58863690D01*
X135685975Y-58863690D02*
X135705022Y-58844642D01*
X135666927Y-58711309D02*
X135666927Y-58463690D01*
X135666927Y-58463690D02*
X135819308Y-58597023D01*
X135819308Y-58597023D02*
X135819308Y-58539880D01*
X135819308Y-58539880D02*
X135838356Y-58501785D01*
X135838356Y-58501785D02*
X135857403Y-58482737D01*
X135857403Y-58482737D02*
X135895499Y-58463690D01*
X135895499Y-58463690D02*
X135990737Y-58463690D01*
X135990737Y-58463690D02*
X136028832Y-58482737D01*
X136028832Y-58482737D02*
X136047880Y-58501785D01*
X136047880Y-58501785D02*
X136066927Y-58539880D01*
X136066927Y-58539880D02*
X136066927Y-58654166D01*
X136066927Y-58654166D02*
X136047880Y-58692261D01*
X136047880Y-58692261D02*
X136028832Y-58711309D01*
X135666927Y-58120833D02*
X135666927Y-58197023D01*
X135666927Y-58197023D02*
X135685975Y-58235119D01*
X135685975Y-58235119D02*
X135705022Y-58254166D01*
X135705022Y-58254166D02*
X135762165Y-58292261D01*
X135762165Y-58292261D02*
X135838356Y-58311309D01*
X135838356Y-58311309D02*
X135990737Y-58311309D01*
X135990737Y-58311309D02*
X136028832Y-58292261D01*
X136028832Y-58292261D02*
X136047880Y-58273214D01*
X136047880Y-58273214D02*
X136066927Y-58235119D01*
X136066927Y-58235119D02*
X136066927Y-58158928D01*
X136066927Y-58158928D02*
X136047880Y-58120833D01*
X136047880Y-58120833D02*
X136028832Y-58101785D01*
X136028832Y-58101785D02*
X135990737Y-58082738D01*
X135990737Y-58082738D02*
X135895499Y-58082738D01*
X135895499Y-58082738D02*
X135857403Y-58101785D01*
X135857403Y-58101785D02*
X135838356Y-58120833D01*
X135838356Y-58120833D02*
X135819308Y-58158928D01*
X135819308Y-58158928D02*
X135819308Y-58235119D01*
X135819308Y-58235119D02*
X135838356Y-58273214D01*
X135838356Y-58273214D02*
X135857403Y-58292261D01*
X135857403Y-58292261D02*
X135895499Y-58311309D01*
D13*
X137774530Y-59128928D02*
X137798340Y-59152737D01*
X137798340Y-59152737D02*
X137822149Y-59224166D01*
X137822149Y-59224166D02*
X137822149Y-59271785D01*
X137822149Y-59271785D02*
X137798340Y-59343213D01*
X137798340Y-59343213D02*
X137750720Y-59390832D01*
X137750720Y-59390832D02*
X137703101Y-59414642D01*
X137703101Y-59414642D02*
X137607863Y-59438451D01*
X137607863Y-59438451D02*
X137536435Y-59438451D01*
X137536435Y-59438451D02*
X137441197Y-59414642D01*
X137441197Y-59414642D02*
X137393578Y-59390832D01*
X137393578Y-59390832D02*
X137345959Y-59343213D01*
X137345959Y-59343213D02*
X137322149Y-59271785D01*
X137322149Y-59271785D02*
X137322149Y-59224166D01*
X137322149Y-59224166D02*
X137345959Y-59152737D01*
X137345959Y-59152737D02*
X137369768Y-59128928D01*
X137322149Y-58962261D02*
X137322149Y-58652737D01*
X137322149Y-58652737D02*
X137512625Y-58819404D01*
X137512625Y-58819404D02*
X137512625Y-58747975D01*
X137512625Y-58747975D02*
X137536435Y-58700356D01*
X137536435Y-58700356D02*
X137560244Y-58676547D01*
X137560244Y-58676547D02*
X137607863Y-58652737D01*
X137607863Y-58652737D02*
X137726911Y-58652737D01*
X137726911Y-58652737D02*
X137774530Y-58676547D01*
X137774530Y-58676547D02*
X137798340Y-58700356D01*
X137798340Y-58700356D02*
X137822149Y-58747975D01*
X137822149Y-58747975D02*
X137822149Y-58890832D01*
X137822149Y-58890832D02*
X137798340Y-58938451D01*
X137798340Y-58938451D02*
X137774530Y-58962261D01*
X137322149Y-58486071D02*
X137322149Y-58152738D01*
X137322149Y-58152738D02*
X137822149Y-58367023D01*
X123178571Y-63779530D02*
X123154762Y-63803340D01*
X123154762Y-63803340D02*
X123083333Y-63827149D01*
X123083333Y-63827149D02*
X123035714Y-63827149D01*
X123035714Y-63827149D02*
X122964286Y-63803340D01*
X122964286Y-63803340D02*
X122916667Y-63755720D01*
X122916667Y-63755720D02*
X122892857Y-63708101D01*
X122892857Y-63708101D02*
X122869048Y-63612863D01*
X122869048Y-63612863D02*
X122869048Y-63541435D01*
X122869048Y-63541435D02*
X122892857Y-63446197D01*
X122892857Y-63446197D02*
X122916667Y-63398578D01*
X122916667Y-63398578D02*
X122964286Y-63350959D01*
X122964286Y-63350959D02*
X123035714Y-63327149D01*
X123035714Y-63327149D02*
X123083333Y-63327149D01*
X123083333Y-63327149D02*
X123154762Y-63350959D01*
X123154762Y-63350959D02*
X123178571Y-63374768D01*
X123345238Y-63327149D02*
X123654762Y-63327149D01*
X123654762Y-63327149D02*
X123488095Y-63517625D01*
X123488095Y-63517625D02*
X123559524Y-63517625D01*
X123559524Y-63517625D02*
X123607143Y-63541435D01*
X123607143Y-63541435D02*
X123630952Y-63565244D01*
X123630952Y-63565244D02*
X123654762Y-63612863D01*
X123654762Y-63612863D02*
X123654762Y-63731911D01*
X123654762Y-63731911D02*
X123630952Y-63779530D01*
X123630952Y-63779530D02*
X123607143Y-63803340D01*
X123607143Y-63803340D02*
X123559524Y-63827149D01*
X123559524Y-63827149D02*
X123416667Y-63827149D01*
X123416667Y-63827149D02*
X123369048Y-63803340D01*
X123369048Y-63803340D02*
X123345238Y-63779530D01*
X124107142Y-63327149D02*
X123869047Y-63327149D01*
X123869047Y-63327149D02*
X123845238Y-63565244D01*
X123845238Y-63565244D02*
X123869047Y-63541435D01*
X123869047Y-63541435D02*
X123916666Y-63517625D01*
X123916666Y-63517625D02*
X124035714Y-63517625D01*
X124035714Y-63517625D02*
X124083333Y-63541435D01*
X124083333Y-63541435D02*
X124107142Y-63565244D01*
X124107142Y-63565244D02*
X124130952Y-63612863D01*
X124130952Y-63612863D02*
X124130952Y-63731911D01*
X124130952Y-63731911D02*
X124107142Y-63779530D01*
X124107142Y-63779530D02*
X124083333Y-63803340D01*
X124083333Y-63803340D02*
X124035714Y-63827149D01*
X124035714Y-63827149D02*
X123916666Y-63827149D01*
X123916666Y-63827149D02*
X123869047Y-63803340D01*
X123869047Y-63803340D02*
X123845238Y-63779530D01*
D17*
%TO.C,R4*%
X123875000Y-80230000D02*
X124925000Y-80230000D01*
X123875000Y-80770000D02*
X123875000Y-80230000D01*
X124925000Y-80230000D02*
X124925000Y-80770000D01*
X124925000Y-80770000D02*
X123875000Y-80770000D01*
%TO.C,J1*%
X105750000Y-110835000D02*
X117500000Y-110835000D01*
X105750000Y-115915000D02*
X105750000Y-110835000D01*
X106700000Y-109775000D02*
X106700000Y-110835000D01*
X106700000Y-116975000D02*
X106700000Y-115915000D01*
X107340000Y-109775000D02*
X106700000Y-109775000D01*
X107340000Y-110835000D02*
X107340000Y-109775000D01*
X107340000Y-115915000D02*
X107340000Y-116975000D01*
X107340000Y-116975000D02*
X106700000Y-116975000D01*
X109240000Y-109775000D02*
X109240000Y-110835000D01*
X109240000Y-116975000D02*
X109240000Y-115915000D01*
X109880000Y-109775000D02*
X109240000Y-109775000D01*
X109880000Y-110835000D02*
X109880000Y-109775000D01*
X109880000Y-115915000D02*
X109880000Y-116975000D01*
X109880000Y-116975000D02*
X109240000Y-116975000D01*
X111780000Y-109775000D02*
X111780000Y-110835000D01*
X111780000Y-116975000D02*
X111780000Y-115915000D01*
X112420000Y-109775000D02*
X111780000Y-109775000D01*
X112420000Y-110835000D02*
X112420000Y-109775000D01*
X112420000Y-115915000D02*
X112420000Y-116975000D01*
X112420000Y-116975000D02*
X111780000Y-116975000D01*
X114320000Y-109775000D02*
X114320000Y-110835000D01*
X114320000Y-116975000D02*
X114320000Y-115915000D01*
X114960000Y-109775000D02*
X114320000Y-109775000D01*
X114960000Y-110835000D02*
X114960000Y-109775000D01*
X114960000Y-115915000D02*
X114960000Y-116975000D01*
X114960000Y-116975000D02*
X114320000Y-116975000D01*
X116860000Y-109775000D02*
X116860000Y-110835000D01*
X116860000Y-116975000D02*
X116860000Y-115915000D01*
X117500000Y-109775000D02*
X116860000Y-109775000D01*
X117500000Y-110835000D02*
X117500000Y-109775000D01*
X117500000Y-110835000D02*
X118450000Y-111785000D01*
X117500000Y-115915000D02*
X117500000Y-116975000D01*
X117500000Y-116975000D02*
X116860000Y-116975000D01*
X118450000Y-111785000D02*
X118450000Y-115915000D01*
X118450000Y-115915000D02*
X105750000Y-115915000D01*
%TO.C,C39*%
X134100000Y-66700000D02*
X134900000Y-66700000D01*
X134100000Y-68300000D02*
X134100000Y-66700000D01*
X134900000Y-66700000D02*
X134900000Y-68300000D01*
X134900000Y-68300000D02*
X134100000Y-68300000D01*
%TO.C,R9*%
X134975000Y-77230000D02*
X136025000Y-77230000D01*
X134975000Y-77770000D02*
X134975000Y-77230000D01*
X136025000Y-77230000D02*
X136025000Y-77770000D01*
X136025000Y-77770000D02*
X134975000Y-77770000D01*
%TO.C,C15*%
X105850000Y-77800000D02*
X106350000Y-77800000D01*
X105850000Y-78800000D02*
X105850000Y-77800000D01*
X106350000Y-77800000D02*
X106350000Y-78800000D01*
X106350000Y-78800000D02*
X105850000Y-78800000D01*
%TO.C,C6*%
X109400000Y-79350000D02*
X110400000Y-79350000D01*
X109400000Y-79850000D02*
X109400000Y-79350000D01*
X110400000Y-79350000D02*
X110400000Y-79850000D01*
X110400000Y-79850000D02*
X109400000Y-79850000D01*
%TO.C,R1*%
X116087500Y-68200000D02*
X116912500Y-68200000D01*
X116087500Y-69800000D02*
X116087500Y-68200000D01*
X116912500Y-68200000D02*
X116912500Y-69800000D01*
X116912500Y-69800000D02*
X116087500Y-69800000D01*
%TO.C,C30*%
X114075000Y-128400000D02*
X115325000Y-128400000D01*
X114075000Y-130400000D02*
X114075000Y-128400000D01*
X115325000Y-128400000D02*
X115325000Y-130400000D01*
X115325000Y-130400000D02*
X114075000Y-130400000D01*
%TO.C,R11*%
X135700000Y-107287500D02*
X137300000Y-107287500D01*
X135700000Y-108112500D02*
X135700000Y-107287500D01*
X137300000Y-107287500D02*
X137300000Y-108112500D01*
X137300000Y-108112500D02*
X135700000Y-108112500D01*
%TO.C,R14*%
X137587500Y-88700000D02*
X138412500Y-88700000D01*
X137587500Y-90300000D02*
X137587500Y-88700000D01*
X138412500Y-88700000D02*
X138412500Y-90300000D01*
X138412500Y-90300000D02*
X137587500Y-90300000D01*
%TO.C,R24*%
X131587500Y-68200000D02*
X132412500Y-68200000D01*
X131587500Y-69800000D02*
X131587500Y-68200000D01*
X132412500Y-68200000D02*
X132412500Y-69800000D01*
X132412500Y-69800000D02*
X131587500Y-69800000D01*
%TO.C,C4*%
X118650000Y-73400000D02*
X119150000Y-73400000D01*
X118650000Y-74400000D02*
X118650000Y-73400000D01*
X119150000Y-73400000D02*
X119150000Y-74400000D01*
X119150000Y-74400000D02*
X118650000Y-74400000D01*
%TO.C,R13*%
X139187500Y-92500000D02*
X140012500Y-92500000D01*
X139187500Y-94100000D02*
X139187500Y-92500000D01*
X140012500Y-92500000D02*
X140012500Y-94100000D01*
X140012500Y-94100000D02*
X139187500Y-94100000D01*
%TO.C,R15*%
X139400000Y-105487500D02*
X141000000Y-105487500D01*
X139400000Y-106312500D02*
X139400000Y-105487500D01*
X141000000Y-105487500D02*
X141000000Y-106312500D01*
X141000000Y-106312500D02*
X139400000Y-106312500D01*
%TO.C,C11*%
X121700000Y-79150000D02*
X122700000Y-79150000D01*
X121700000Y-79650000D02*
X121700000Y-79150000D01*
X122700000Y-79150000D02*
X122700000Y-79650000D01*
X122700000Y-79650000D02*
X121700000Y-79650000D01*
%TO.C,C5*%
X114100000Y-74050000D02*
X115100000Y-74050000D01*
X114100000Y-74550000D02*
X114100000Y-74050000D01*
X115100000Y-74050000D02*
X115100000Y-74550000D01*
X115100000Y-74550000D02*
X114100000Y-74550000D01*
%TO.C,C26*%
X130750000Y-90300000D02*
X133250000Y-90300000D01*
X130750000Y-93500000D02*
X130750000Y-90300000D01*
X133250000Y-90300000D02*
X133250000Y-93500000D01*
X133250000Y-93500000D02*
X130750000Y-93500000D01*
%TO.C,C9*%
X119650000Y-83600000D02*
X120150000Y-83600000D01*
X119650000Y-84600000D02*
X119650000Y-83600000D01*
X120150000Y-83600000D02*
X120150000Y-84600000D01*
X120150000Y-84600000D02*
X119650000Y-84600000D01*
%TO.C,C14*%
X109550000Y-74900000D02*
X110050000Y-74900000D01*
X109550000Y-75900000D02*
X109550000Y-74900000D01*
X110050000Y-74900000D02*
X110050000Y-75900000D01*
X110050000Y-75900000D02*
X109550000Y-75900000D01*
%TO.C,C8*%
X118650000Y-83600000D02*
X119150000Y-83600000D01*
X118650000Y-84600000D02*
X118650000Y-83600000D01*
X119150000Y-83600000D02*
X119150000Y-84600000D01*
X119150000Y-84600000D02*
X118650000Y-84600000D01*
%TO.C,R6*%
X123875000Y-81230000D02*
X124925000Y-81230000D01*
X123875000Y-81770000D02*
X123875000Y-81230000D01*
X124925000Y-81230000D02*
X124925000Y-81770000D01*
X124925000Y-81770000D02*
X123875000Y-81770000D01*
%TO.C,D1*%
X121900000Y-61050000D02*
X123000000Y-62150000D01*
X121900000Y-62150000D02*
X125100000Y-62150000D01*
X125100000Y-59350000D01*
X121900000Y-59350000D01*
X121900000Y-62150000D01*
D18*
X125100000Y-60750000D02*
G75*
G02*
X121900000Y-60750000I-1600000J0D01*
G01*
X121900000Y-60750000D02*
G75*
G02*
X125100000Y-60750000I1600000J0D01*
G01*
D17*
%TO.C,C29*%
X116075000Y-129700000D02*
X117325000Y-129700000D01*
X116075000Y-131700000D02*
X116075000Y-129700000D01*
X117325000Y-129700000D02*
X117325000Y-131700000D01*
X117325000Y-131700000D02*
X116075000Y-131700000D01*
%TO.C,R23*%
X128887500Y-68200000D02*
X129712500Y-68200000D01*
X128887500Y-69800000D02*
X128887500Y-68200000D01*
X129712500Y-68200000D02*
X129712500Y-69800000D01*
X129712500Y-69800000D02*
X128887500Y-69800000D01*
%TO.C,R2*%
X117587500Y-68200000D02*
X118412500Y-68200000D01*
X117587500Y-69800000D02*
X117587500Y-68200000D01*
X118412500Y-68200000D02*
X118412500Y-69800000D01*
X118412500Y-69800000D02*
X117587500Y-69800000D01*
%TO.C,C21*%
X119950000Y-112350000D02*
X119950000Y-119650000D01*
X120950000Y-111350000D02*
X119950000Y-112350000D01*
X127250000Y-111350000D02*
X120950000Y-111350000D01*
X127250000Y-111350000D02*
X128250000Y-112350000D01*
X128250000Y-112350000D02*
X128250000Y-119650000D01*
X128250000Y-119650000D02*
X119950000Y-119650000D01*
X128100000Y-115500000D02*
G75*
G02*
X120100000Y-115500000I-4000000J0D01*
G01*
X120100000Y-115500000D02*
G75*
G02*
X128100000Y-115500000I4000000J0D01*
G01*
%TO.C,C27*%
X119800000Y-127900000D02*
X120600000Y-127900000D01*
X119800000Y-129500000D02*
X119800000Y-127900000D01*
X120600000Y-127900000D02*
X120600000Y-129500000D01*
X120600000Y-129500000D02*
X119800000Y-129500000D01*
%TO.C,U7*%
X113700000Y-121500000D02*
X118700000Y-121500000D01*
X113700000Y-126500000D02*
X113700000Y-121500000D01*
X118700000Y-121500000D02*
X119700000Y-122500000D01*
X119700000Y-122500000D02*
X119700000Y-126500000D01*
X119700000Y-126500000D02*
X113700000Y-126500000D01*
%TO.C,C32*%
X110612500Y-125550000D02*
X112212500Y-125550000D01*
X110612500Y-126350000D02*
X110612500Y-125550000D01*
X112212500Y-125550000D02*
X112212500Y-126350000D01*
X112212500Y-126350000D02*
X110612500Y-126350000D01*
%TO.C,R20*%
X107850000Y-122950000D02*
X111050000Y-122950000D01*
X107850000Y-124550000D02*
X107850000Y-122950000D01*
X111050000Y-122950000D02*
X111050000Y-124550000D01*
X111050000Y-124550000D02*
X107850000Y-124550000D01*
%TO.C,U5*%
X129350000Y-110000000D02*
X140750000Y-110000000D01*
X129350000Y-132200000D02*
X129350000Y-110000000D01*
X140750000Y-110000000D02*
X141950000Y-111200000D01*
X141950000Y-111200000D02*
X141950000Y-132200000D01*
X141950000Y-132200000D02*
X129350000Y-132200000D01*
%TO.C,R5*%
X120675000Y-72030000D02*
X121725000Y-72030000D01*
X120675000Y-72570000D02*
X120675000Y-72030000D01*
X121725000Y-72030000D02*
X121725000Y-72570000D01*
X121725000Y-72570000D02*
X120675000Y-72570000D01*
%TO.C,C1*%
X121300000Y-82300000D02*
X122900000Y-82300000D01*
X121300000Y-83100000D02*
X121300000Y-82300000D01*
X122900000Y-82300000D02*
X122900000Y-83100000D01*
X122900000Y-83100000D02*
X121300000Y-83100000D01*
%TO.C,R22*%
X112487500Y-128400000D02*
X113312500Y-128400000D01*
X112487500Y-130000000D02*
X112487500Y-128400000D01*
X113312500Y-128400000D02*
X113312500Y-130000000D01*
X113312500Y-130000000D02*
X112487500Y-130000000D01*
%TO.C,C24*%
X127850000Y-144150000D02*
X127850000Y-135850000D01*
X135150000Y-135850000D02*
X127850000Y-135850000D01*
X135150000Y-144150000D02*
X127850000Y-144150000D01*
X136150000Y-136850000D02*
X135150000Y-135850000D01*
X136150000Y-143150000D02*
X135150000Y-144150000D01*
X136150000Y-143150000D02*
X136150000Y-136850000D01*
X136000000Y-140000000D02*
G75*
G02*
X128000000Y-140000000I-4000000J0D01*
G01*
X128000000Y-140000000D02*
G75*
G02*
X136000000Y-140000000I4000000J0D01*
G01*
%TO.C,C18*%
X134200000Y-81800000D02*
X135800000Y-81800000D01*
X134200000Y-82600000D02*
X134200000Y-81800000D01*
X135800000Y-81800000D02*
X135800000Y-82600000D01*
X135800000Y-82600000D02*
X134200000Y-82600000D01*
%TO.C,C22*%
X129750000Y-107250000D02*
X132950000Y-107250000D01*
X129750000Y-108850000D02*
X129750000Y-107250000D01*
X132950000Y-107250000D02*
X132950000Y-108850000D01*
X132950000Y-108850000D02*
X129750000Y-108850000D01*
%TO.C,C31*%
X121512500Y-125450000D02*
X123112500Y-125450000D01*
X121512500Y-126250000D02*
X121512500Y-125450000D01*
X123112500Y-125450000D02*
X123112500Y-126250000D01*
X123112500Y-126250000D02*
X121512500Y-126250000D01*
%TO.C,C33*%
X121787500Y-128075000D02*
X123037500Y-128075000D01*
X121787500Y-130075000D02*
X121787500Y-128075000D01*
X123037500Y-128075000D02*
X123037500Y-130075000D01*
X123037500Y-130075000D02*
X121787500Y-130075000D01*
%TO.C,C28*%
X113600000Y-119700000D02*
X115200000Y-119700000D01*
X113600000Y-120500000D02*
X113600000Y-119700000D01*
X115200000Y-119700000D02*
X115200000Y-120500000D01*
X115200000Y-120500000D02*
X113600000Y-120500000D01*
%TO.C,C12*%
X121300000Y-83800000D02*
X122900000Y-83800000D01*
X121300000Y-84600000D02*
X121300000Y-83800000D01*
X122900000Y-83800000D02*
X122900000Y-84600000D01*
X122900000Y-84600000D02*
X121300000Y-84600000D01*
%TO.C,C3*%
X121700000Y-78150000D02*
X122700000Y-78150000D01*
X121700000Y-78650000D02*
X121700000Y-78150000D01*
X122700000Y-78150000D02*
X122700000Y-78650000D01*
X122700000Y-78650000D02*
X121700000Y-78650000D01*
%TO.C,R19*%
X113400000Y-131487500D02*
X115000000Y-131487500D01*
X113400000Y-132312500D02*
X113400000Y-131487500D01*
X115000000Y-131487500D02*
X115000000Y-132312500D01*
X115000000Y-132312500D02*
X113400000Y-132312500D01*
%TO.C,R12*%
X130900000Y-133287500D02*
X132500000Y-133287500D01*
X130900000Y-134112500D02*
X130900000Y-133287500D01*
X132500000Y-133287500D02*
X132500000Y-134112500D01*
X132500000Y-134112500D02*
X130900000Y-134112500D01*
%TO.C,U9*%
X135850000Y-66900000D02*
X138750000Y-66900000D01*
X135850000Y-68100000D02*
X135850000Y-66900000D01*
X136250000Y-68500000D02*
X135850000Y-68100000D01*
X138750000Y-66900000D02*
X138750000Y-68500000D01*
X138750000Y-68500000D02*
X136250000Y-68500000D01*
%TO.C,C20*%
X133250000Y-104200000D02*
X130750000Y-104200000D01*
X133250000Y-101000000D02*
X133250000Y-104200000D01*
X130750000Y-104200000D02*
X130750000Y-101000000D01*
X130750000Y-101000000D02*
X133250000Y-101000000D01*
%TO.C,U2*%
X112500000Y-75500000D02*
X118500000Y-75500000D01*
X112500000Y-82500000D02*
X112500000Y-75500000D01*
X118500000Y-75500000D02*
X119500000Y-76500000D01*
X119500000Y-76500000D02*
X119500000Y-82500000D01*
X119500000Y-82500000D02*
X112500000Y-82500000D01*
%TO.C,R3*%
X109375000Y-81930000D02*
X110425000Y-81930000D01*
X109375000Y-82470000D02*
X109375000Y-81930000D01*
X110425000Y-81930000D02*
X110425000Y-82470000D01*
X110425000Y-82470000D02*
X109375000Y-82470000D01*
%TO.C,C34*%
X118100000Y-129000000D02*
X118900000Y-129000000D01*
X118100000Y-130600000D02*
X118100000Y-129000000D01*
X118900000Y-129000000D02*
X118900000Y-130600000D01*
X118900000Y-130600000D02*
X118100000Y-130600000D01*
%TO.C,R18*%
X139400000Y-103687500D02*
X141000000Y-103687500D01*
X139400000Y-104512500D02*
X139400000Y-103687500D01*
X141000000Y-103687500D02*
X141000000Y-104512500D01*
X141000000Y-104512500D02*
X139400000Y-104512500D01*
%TO.C,R10*%
X137687500Y-92500000D02*
X138512500Y-92500000D01*
X137687500Y-94100000D02*
X137687500Y-92500000D01*
X138512500Y-92500000D02*
X138512500Y-94100000D01*
X138512500Y-94100000D02*
X137687500Y-94100000D01*
%TO.C,J2*%
X137650000Y-82700000D02*
X138230000Y-82200000D01*
X138230000Y-82200000D02*
X137650000Y-81700000D01*
X137650000Y-83470000D02*
X145000000Y-83470000D01*
X145000000Y-74530000D01*
X137650000Y-74530000D01*
X137650000Y-83470000D01*
%TO.C,J3*%
X110400000Y-141200000D02*
X110400000Y-136200000D01*
X110900000Y-140700000D02*
X110900000Y-136700000D01*
X113100000Y-141200000D02*
X110400000Y-141200000D01*
X113100000Y-142800000D02*
X113100000Y-141200000D01*
X113900000Y-136200000D02*
X110400000Y-136200000D01*
X113900000Y-136700000D02*
X110900000Y-136700000D01*
X113900000Y-136700000D02*
X113900000Y-136200000D01*
X113900000Y-140700000D02*
X110900000Y-140700000D01*
X113900000Y-141700000D02*
X113900000Y-140700000D01*
X114900000Y-136200000D02*
X113900000Y-136200000D01*
X114900000Y-136200000D02*
X114900000Y-136700000D01*
X114900000Y-136700000D02*
X118900000Y-136700000D01*
X118900000Y-136200000D02*
X114900000Y-136200000D01*
X118900000Y-136700000D02*
X118900000Y-136200000D01*
X119900000Y-136200000D02*
X118900000Y-136200000D01*
X119900000Y-136200000D02*
X123400000Y-136200000D01*
X119900000Y-136700000D02*
X119900000Y-136200000D01*
X119900000Y-140700000D02*
X119900000Y-141700000D01*
X119900000Y-141700000D02*
X113900000Y-141700000D01*
X120200000Y-140700000D02*
X119900000Y-140700000D01*
X120700000Y-141200000D02*
X120700000Y-142800000D01*
X120700000Y-142800000D02*
X113100000Y-142800000D01*
X122900000Y-136700000D02*
X119900000Y-136700000D01*
X122900000Y-136700000D02*
X122900000Y-140700000D01*
X122900000Y-140700000D02*
X120200000Y-140700000D01*
X123400000Y-136200000D02*
X123400000Y-141200000D01*
X123400000Y-141200000D02*
X120700000Y-141200000D01*
%TO.C,R21*%
X122312500Y-122950000D02*
X125512500Y-122950000D01*
X122312500Y-124550000D02*
X122312500Y-122950000D01*
X125512500Y-122950000D02*
X125512500Y-124550000D01*
X125512500Y-124550000D02*
X122312500Y-124550000D01*
%TO.C,U1*%
X124385000Y-72585000D02*
X125385000Y-71585000D01*
X124385000Y-76815000D02*
X124385000Y-72585000D01*
X125385000Y-71585000D02*
X129615000Y-71585000D01*
X129615000Y-71585000D02*
X129615000Y-76815000D01*
X129615000Y-76815000D02*
X124385000Y-76815000D01*
%TO.C,C10*%
X121700000Y-80150000D02*
X122700000Y-80150000D01*
X121700000Y-80650000D02*
X121700000Y-80150000D01*
X122700000Y-80150000D02*
X122700000Y-80650000D01*
X122700000Y-80650000D02*
X121700000Y-80650000D01*
%TO.C,C7*%
X115150000Y-84800000D02*
X115650000Y-84800000D01*
X115150000Y-85800000D02*
X115150000Y-84800000D01*
X115650000Y-84800000D02*
X115650000Y-85800000D01*
X115650000Y-85800000D02*
X115150000Y-85800000D01*
%TO.C,U8*%
X131905000Y-58717500D02*
X134155000Y-58717500D01*
X131905000Y-61717500D02*
X131905000Y-58717500D01*
X134155000Y-58717500D02*
X134905000Y-59467500D01*
X134905000Y-59467500D02*
X134905000Y-61717500D01*
X134905000Y-61717500D02*
X131905000Y-61717500D01*
%TO.C,U4*%
X109500000Y-68287500D02*
X112500000Y-68287500D01*
X109500000Y-70537500D02*
X109500000Y-68287500D01*
X110250000Y-71287500D02*
X109500000Y-70537500D01*
X112500000Y-68287500D02*
X112500000Y-71287500D01*
X112500000Y-71287500D02*
X110250000Y-71287500D01*
%TO.C,C2*%
X109400000Y-80750000D02*
X110400000Y-80750000D01*
X109400000Y-81250000D02*
X109400000Y-80750000D01*
X110400000Y-80750000D02*
X110400000Y-81250000D01*
X110400000Y-81250000D02*
X109400000Y-81250000D01*
%TO.C,C38*%
X134800000Y-70100000D02*
X136400000Y-70100000D01*
X134800000Y-70900000D02*
X134800000Y-70100000D01*
X136400000Y-70100000D02*
X136400000Y-70900000D01*
X136400000Y-70900000D02*
X134800000Y-70900000D01*
%TO.C,C23*%
X139300000Y-136900000D02*
X140900000Y-136900000D01*
X139300000Y-140100000D02*
X139300000Y-136900000D01*
X140900000Y-136900000D02*
X140900000Y-140100000D01*
X140900000Y-140100000D02*
X139300000Y-140100000D01*
%TO.C,Y1*%
X105600000Y-74550000D02*
X105800000Y-74350000D01*
X105600000Y-75850000D02*
X106600000Y-76850000D01*
X105600000Y-76650000D02*
X105600000Y-74550000D01*
X105800000Y-74350000D02*
X108600000Y-74350000D01*
X105800000Y-76850000D02*
X105600000Y-76650000D01*
X108600000Y-74350000D02*
X108800000Y-74550000D01*
X108600000Y-76850000D02*
X105800000Y-76850000D01*
X108800000Y-74550000D02*
X108800000Y-76650000D01*
X108800000Y-76650000D02*
X108600000Y-76850000D01*
%TO.C,JP1*%
X127760000Y-81875000D02*
X132840000Y-81875000D01*
X127760000Y-83465000D02*
X127760000Y-81875000D01*
X128710000Y-84415000D02*
X127760000Y-83465000D01*
X128710000Y-84415000D02*
X128710000Y-85685000D01*
X128710000Y-85685000D02*
X129350000Y-85685000D01*
X129350000Y-85685000D02*
X129350000Y-84415000D01*
X131250000Y-80605000D02*
X131890000Y-80605000D01*
X131250000Y-81875000D02*
X131250000Y-80605000D01*
X131890000Y-80605000D02*
X131890000Y-81875000D01*
X132840000Y-81875000D02*
X132840000Y-84415000D01*
X132840000Y-84415000D02*
X128710000Y-84415000D01*
%TO.C,C25*%
X135275000Y-92400000D02*
X136525000Y-92400000D01*
X135275000Y-94400000D02*
X135275000Y-92400000D01*
X136525000Y-92400000D02*
X136525000Y-94400000D01*
X136525000Y-94400000D02*
X135275000Y-94400000D01*
%TO.C,R16*%
X135700000Y-103687500D02*
X137300000Y-103687500D01*
X135700000Y-104512500D02*
X135700000Y-103687500D01*
X137300000Y-103687500D02*
X137300000Y-104512500D01*
X137300000Y-104512500D02*
X135700000Y-104512500D01*
%TO.C,C19*%
X113150000Y-70400000D02*
X113650000Y-70400000D01*
X113150000Y-71400000D02*
X113150000Y-70400000D01*
X113650000Y-70400000D02*
X113650000Y-71400000D01*
X113650000Y-71400000D02*
X113150000Y-71400000D01*
%TO.C,U6*%
X135710000Y-97090000D02*
X139710000Y-97090000D01*
X135710000Y-99340000D02*
X135710000Y-97090000D01*
X136460000Y-100090000D02*
X135710000Y-99340000D01*
X139710000Y-97090000D02*
X139710000Y-100090000D01*
X139710000Y-100090000D02*
X136460000Y-100090000D01*
%TO.C,R17*%
X135700000Y-105487500D02*
X137300000Y-105487500D01*
X135700000Y-106312500D02*
X135700000Y-105487500D01*
X137300000Y-105487500D02*
X137300000Y-106312500D01*
X137300000Y-106312500D02*
X135700000Y-106312500D01*
%TO.C,R8*%
X134575000Y-80430000D02*
X135625000Y-80430000D01*
X134575000Y-80970000D02*
X134575000Y-80430000D01*
X135625000Y-80430000D02*
X135625000Y-80970000D01*
X135625000Y-80970000D02*
X134575000Y-80970000D01*
%TO.C,R7*%
X109375000Y-78330000D02*
X110425000Y-78330000D01*
X109375000Y-78870000D02*
X109375000Y-78330000D01*
X110425000Y-78330000D02*
X110425000Y-78870000D01*
X110425000Y-78870000D02*
X109375000Y-78870000D01*
%TO.C,SW1*%
X141595000Y-96150000D02*
X144395000Y-96150000D01*
X141595000Y-99650000D02*
X141595000Y-96150000D01*
X144395000Y-96150000D02*
X144395000Y-98800000D01*
X144395000Y-97100000D02*
X145095000Y-97100000D01*
X144395000Y-98800000D02*
X144395000Y-99650000D01*
X144395000Y-99650000D02*
X141595000Y-99650000D01*
X145095000Y-97100000D02*
X145095000Y-98800000D01*
X145095000Y-98800000D02*
X144395000Y-98800000D01*
%TO.C,C13*%
X131950000Y-71300000D02*
X132450000Y-71300000D01*
X131950000Y-72300000D02*
X131950000Y-71300000D01*
X132450000Y-71300000D02*
X132450000Y-72300000D01*
X132450000Y-72300000D02*
X131950000Y-72300000D01*
%TO.C,C36*%
X135485000Y-57787500D02*
X136285000Y-57787500D01*
X135485000Y-59387500D02*
X135485000Y-57787500D01*
X136285000Y-57787500D02*
X136285000Y-59387500D01*
X136285000Y-59387500D02*
X135485000Y-59387500D01*
%TO.C,C37*%
X136970000Y-57807500D02*
X138220000Y-57807500D01*
X136970000Y-59807500D02*
X136970000Y-57807500D01*
X138220000Y-57807500D02*
X138220000Y-59807500D01*
X138220000Y-59807500D02*
X136970000Y-59807500D01*
%TO.C,C35*%
X122500000Y-62975000D02*
X124500000Y-62975000D01*
X122500000Y-64225000D02*
X122500000Y-62975000D01*
X124500000Y-62975000D02*
X124500000Y-64225000D01*
X124500000Y-64225000D02*
X122500000Y-64225000D01*
%TD*%
M02*
