M48
; DRILL file {KiCad 8.0.5} date 2024-09-27T18:29:29-0400
; FORMAT={-:-/ absolute / metric / decimal}
; #@! TF.CreationDate,2024-09-27T18:29:29-04:00
; #@! TF.GenerationSoftware,Kicad,Pcbnew,8.0.5
; #@! TF.FileFunction,Plated,1,4,PTH
FMAT,2
METRIC
; #@! TA.AperFunction,Plated,PTH,ViaDrill
T1C0.250
; #@! TA.AperFunction,Plated,PTH,ViaDrill
T2C0.400
; #@! TA.AperFunction,Plated,PTH,ViaDrill
T3C0.500
%
G90
G05
T1
X103.866Y-61.993
X105.9Y-80.0
X105.958Y-83.978
X106.0Y-114.0
X106.0Y-115.0
X106.0Y-116.0
X106.0Y-123.0
X106.0Y-123.75
X106.0Y-124.5
X106.0Y-127.0
X106.0Y-132.2
X106.0Y-139.8
X106.1Y-67.2
X106.4Y-136.6
X106.4Y-142.8
X106.6Y-108.5
X106.6Y-121.0
X106.7Y-72.8
X106.8Y-80.0
X107.0Y-81.5
X107.0Y-100.6
X107.0Y-113.0
X107.1Y-91.6
X107.3Y-79.1
X107.5Y-105.0
X107.5Y-108.5
X107.9Y-77.6
X108.0Y-113.0
X108.0Y-114.0
X108.1Y-71.7
X108.2Y-73.2
X108.2Y-138.2
X108.2Y-145.0
X108.3Y-82.6
X108.4Y-140.8
X108.67Y-79.6
X108.67Y-81.0
X108.8Y-77.7
X109.0Y-69.0
X109.0Y-69.75
X109.0Y-70.5
X109.0Y-108.5
X109.2Y-123.0
X109.3Y-88.8
X109.4Y-82.9
X109.55Y-93.05
X109.55Y-103.05
X109.7Y-77.0
X110.0Y-73.1
X110.0Y-113.0
X110.1Y-108.5
X110.25Y-63.9
X110.4Y-127.2
X110.4Y-129.0
X110.4Y-132.3
X110.6Y-121.5
X110.6Y-143.2
X110.7Y-83.4
X110.7Y-105.5
X110.8Y-85.6
X110.8Y-89.1
X110.9Y-58.7
X111.0Y-114.0
X111.45Y-74.05
X111.5Y-76.9
X111.6Y-77.7
X111.6Y-108.5
X112.0Y-113.0
X112.1Y-74.575
X112.1Y-105.2
X112.3Y-104.0
X112.3Y-108.0
X112.5Y-121.0
X112.5Y-131.6
X112.517Y-106.423
X112.75Y-75.3
X112.8Y-101.2
X113.37Y-119.0
X113.4Y-73.3
X113.4Y-126.8
X113.4Y-144.8
X113.45Y-69.35
X113.5Y-77.2
X113.5Y-78.0
X113.5Y-81.5
X113.6Y-78.9
X113.6Y-135.0
X113.66Y-108.0
X113.7Y-80.6
X113.875Y-79.6
X114.1Y-93.8
X114.1Y-104.0
X114.2Y-100.6
X114.2Y-106.2
X114.25Y-69.7
X114.5Y-73.3
X114.64Y-108.0
X115.0Y-122.5
X115.0Y-123.25
X115.0Y-124.0
X115.0Y-124.75
X115.0Y-125.5
X115.1Y-66.0
X115.2Y-68.525
X115.4Y-87.0
X115.4Y-88.0
X115.8Y-71.5
X115.8Y-139.6
X115.8Y-143.0
X115.9Y-73.2
X115.9Y-122.5
X115.9Y-123.25
X115.9Y-124.0
X115.9Y-124.75
X115.9Y-125.5
X116.1Y-77.0
X116.2Y-74.2
X116.4Y-132.7
X116.694Y-58.551
X116.7Y-122.5
X116.7Y-123.25
X116.7Y-124.0
X116.7Y-124.75
X116.7Y-125.5
X117.2Y-88.7
X117.2Y-106.1
X117.2Y-108.0
X117.25Y-63.15
X117.361Y-132.896
X117.4Y-71.5
X117.4Y-135.2
X117.5Y-90.0
X117.5Y-122.5
X117.5Y-123.25
X117.5Y-124.0
X117.5Y-124.75
X117.5Y-125.5
X117.7Y-94.3
X117.8Y-113.3
X117.95Y-79.8
X117.959Y-103.919
X118.0Y-77.1
X118.0Y-91.0
X118.0Y-97.8
X118.0Y-138.2
X118.1Y-99.3
X118.4Y-109.1
X118.4Y-111.3
X118.4Y-122.5
X118.4Y-123.25
X118.4Y-124.0
X118.4Y-124.75
X118.4Y-125.5
X118.4Y-132.4
X118.4Y-144.8
X118.433Y-102.479
X118.5Y-115.5
X118.55Y-78.5
X118.6Y-117.0
X118.69Y-80.799
X119.139Y-85.361
X119.2Y-132.6
X119.3Y-131.5
X119.5Y-82.6
X119.5Y-121.25
X120.0Y-86.0
X120.0Y-90.0
X120.0Y-142.0
X120.6Y-63.5
X120.6Y-68.2
X120.7Y-100.8
X120.924Y-120.988
X121.0Y-91.5
X121.3Y-63.0
X121.4Y-64.0
X121.8Y-120.4
X122.0Y-144.8
X122.1Y-131.2
X122.1Y-132.1
X122.2Y-140.6
X122.4Y-90.4
X122.7Y-92.5
X123.75Y-82.35
X123.75Y-83.4
X123.75Y-84.55
X123.8Y-101.3
X124.0Y-108.0
X124.2Y-68.7
X124.395Y-127.674
X124.4Y-91.5
X124.4Y-125.8
X124.5Y-130.0
X124.5Y-131.0
X124.5Y-132.0
X124.7Y-126.7
X125.0Y-79.0
X125.0Y-138.8
X125.1Y-140.8
X125.199Y-115.627
X125.2Y-142.4
X125.3Y-66.9
X125.4Y-83.3
X125.4Y-125.1
X125.6Y-144.6
X126.0Y-73.0
X126.0Y-74.2
X126.0Y-75.2
X126.0Y-90.2
X126.0Y-120.5
X126.1Y-118.4
X126.1Y-119.4
X126.6Y-81.5
X126.7Y-125.5
X126.9Y-94.3
X127.0Y-115.8
X127.022Y-142.211
X127.1Y-109.1
X127.1Y-113.4
X127.3Y-98.7
X127.35Y-123.35
X127.4Y-59.05
X127.467Y-106.232
X127.5Y-64.2
X127.7Y-85.5
X127.75Y-124.5
X128.0Y-73.0
X128.0Y-75.0
X128.0Y-103.1
X128.1Y-126.6
X128.122Y-137.995
X128.2Y-82.9
X128.3Y-129.8
X128.3Y-133.9
X128.4Y-61.2
X128.6Y-80.6
X128.6Y-142.3
X129.1Y-58.7
X129.425Y-90.475
X129.5Y-98.0
X129.7Y-93.4
X129.9Y-94.7
X130.2Y-137.9
X130.4Y-69.8
X130.4Y-85.7
X130.4Y-113.9
X130.5Y-77.5
X130.5Y-80.5
X130.5Y-100.1
X130.9Y-70.9
X131.0Y-142.0
X131.5Y-120.1
X131.55Y-62.0
X132.0Y-66.0
X132.0Y-144.8
X132.5Y-65.0
X132.5Y-122.9
X132.6Y-59.8
X132.6Y-60.6
X133.0Y-69.6
X133.0Y-106.5
X133.1Y-94.8
X133.2Y-80.6
X133.2Y-92.2
X133.2Y-96.0
X133.4Y-59.8
X133.4Y-60.6
X133.5Y-126.7
X133.8Y-70.1
X133.9Y-73.7
X134.2Y-59.8
X134.2Y-60.6
X134.2Y-109.1
X134.3Y-75.7
X134.3Y-105.3
X134.3Y-107.9
X134.4Y-106.5
X134.5Y-100.5
X134.5Y-101.5
X134.5Y-102.5
X134.6Y-71.6
X134.8Y-69.3
X135.2Y-142.8
X135.3Y-91.1
X135.6Y-60.5
X135.8Y-64.9
X135.9Y-64.0
X136.05Y-91.2
X136.1Y-131.5
X136.1Y-135.2
X136.3Y-61.0
X136.471Y-123.865
X136.8Y-98.15
X136.8Y-99.0
X136.838Y-93.737
X137.2Y-61.1
X137.3Y-67.5
X137.3Y-71.3
X137.3Y-93.1
X137.4Y-118.6
X137.6Y-62.1
X137.7Y-63.4
X137.7Y-70.1
X137.7Y-98.15
X137.7Y-99.0
X138.0Y-91.1
X138.0Y-112.6
X138.1Y-145.0
X138.2Y-109.6
X138.2Y-111.0
X138.5Y-61.1
X138.6Y-62.1
X138.6Y-98.15
X138.6Y-99.0
X138.685Y-95.115
X138.8Y-113.4
X139.0Y-78.4
X139.0Y-125.6
X139.1Y-65.0
X139.1Y-108.2
X139.2Y-79.5
X139.3Y-141.4
X139.6Y-109.8
X139.7Y-70.3
X139.7Y-122.5
X139.8Y-89.8
X139.8Y-113.8
X140.0Y-107.0
X140.2Y-141.4
X140.4Y-105.0
X140.6Y-78.7
X140.7Y-80.9
X140.8Y-66.4
X140.8Y-68.2
X140.9Y-77.0
X141.0Y-99.7
X141.0Y-101.0
X141.0Y-103.0
X141.0Y-107.0
X141.0Y-109.6
X141.0Y-113.8
X141.0Y-141.4
X141.1Y-97.6
X141.15Y-75.5
X141.2Y-120.1
X141.4Y-86.3
X141.6Y-72.2
X141.6Y-110.2
X141.7Y-82.3
X141.8Y-93.1
X141.8Y-113.0
X142.0Y-97.6
X142.0Y-103.2
X142.0Y-104.1
X142.0Y-105.0
X142.0Y-106.0
X142.0Y-107.0
X142.1Y-75.5
X142.2Y-101.0
X142.263Y-86.157
X142.5Y-72.2
X142.5Y-82.3
X142.529Y-88.776
X142.6Y-94.6
X142.7Y-98.3
X143.0Y-68.4
X143.0Y-75.5
X143.2Y-86.2
X143.4Y-72.2
X143.4Y-82.4
T2
X117.475Y-66.25
X131.438Y-105.537
X136.4Y-102.1
X137.0Y-88.7
T3
X111.35Y-133.0
X111.35Y-134.253
X112.2Y-124.65
X112.212Y-122.85
X113.1Y-136.6
X114.1Y-136.6
X119.2Y-135.3
X119.2Y-136.8
X119.65Y-140.8
X120.475Y-139.975
X121.0Y-124.649
X121.0Y-122.85
X121.7Y-85.4
X127.9Y-89.3
X132.0Y-98.85
X132.8Y-73.3
X133.0Y-86.0
X137.149Y-95.059
M30
