M48
; DRILL file {KiCad 7.0.6} date Sun Dec  3 11:26:53 2023
; FORMAT={-:-/ absolute / inch / decimal}
; #@! TF.CreationDate,2023-12-03T11:26:53-05:00
; #@! TF.GenerationSoftware,Kicad,Pcbnew,7.0.6
; #@! TF.FileFunction,Plated,1,4,PTH
FMAT,2
INCH
; #@! TA.AperFunction,Plated,PTH,ViaDrill
T1C0.0098
; #@! TA.AperFunction,Plated,PTH,ViaDrill
T2C0.0197
%
G90
G05
T1
X4.1673Y-4.8425
X4.1673Y-4.872
X4.1673Y-4.9016
X4.1732Y-4.6614
X4.1732Y-5.0
X4.1732Y-5.2047
X4.1732Y-5.5039
X4.1772Y-3.9646
X4.1811Y-3.5591
X4.189Y-5.378
X4.189Y-5.622
X4.1929Y-3.7638
X4.1969Y-2.4252
X4.1969Y-4.2283
X4.1969Y-4.7638
X4.2205Y-3.1969
X4.2306Y-4.4889
X4.2598Y-3.0079
X4.2598Y-5.4409
X4.2598Y-5.7087
X4.2677Y-3.372
X4.2677Y-5.5433
X4.2756Y-2.9528
X4.2795Y-3.0984
X4.2953Y-4.7244
X4.2992Y-4.8425
X4.2992Y-4.872
X4.2992Y-4.9016
X4.3031Y-2.6772
X4.3031Y-3.0512
X4.3091Y-4.4528
X4.3113Y-2.3231
X4.313Y-3.6634
X4.313Y-4.0571
X4.3307Y-5.1142
X4.3327Y-5.0236
X4.3386Y-5.2087
X4.3425Y-2.937
X4.3543Y-5.6378
X4.3622Y-3.2638
X4.3701Y-3.063
X4.3701Y-5.2874
X4.372Y-3.815
X4.374Y-4.4134
X4.374Y-4.6929
X4.374Y-4.7402
X4.3937Y-2.4698
X4.3937Y-2.9449
X4.3937Y-5.4488
X4.4035Y-5.0866
X4.4075Y-5.1693
X4.4134Y-3.0276
X4.4193Y-5.2205
X4.4213Y-5.0197
X4.4252Y-4.7795
X4.4291Y-3.4173
X4.4311Y-4.0335
X4.437Y-3.2283
X4.4528Y-4.9961
X4.4567Y-2.3228
X4.4606Y-5.0866
X4.4646Y-5.7008
X4.4705Y-5.2283
X4.4724Y-5.1791
X4.4724Y-5.315
X4.4803Y-3.1339
X4.4803Y-4.3858
X4.4803Y-4.7874
X4.4803Y-4.9764
X4.4843Y-2.6417
X4.5276Y-3.3583
X4.5276Y-4.8228
X4.5276Y-4.8524
X4.5276Y-4.8819
X4.5276Y-4.9114
X4.5276Y-4.9409
X4.5315Y-5.2264
X4.5374Y-5.1791
X4.5591Y-5.4961
X4.5591Y-5.5591
X4.5591Y-5.6299
X4.563Y-4.8228
X4.563Y-4.8524
X4.563Y-4.8819
X4.563Y-4.9114
X4.563Y-4.9409
X4.5669Y-4.1496
X4.5709Y-4.5118
X4.5748Y-3.5787
X4.5942Y-2.3051
X4.5945Y-4.8228
X4.5945Y-4.8524
X4.5945Y-4.8819
X4.5945Y-4.9114
X4.5945Y-4.9409
X4.622Y-5.3228
X4.626Y-3.3583
X4.626Y-4.8228
X4.626Y-4.8524
X4.626Y-4.8819
X4.626Y-4.9114
X4.626Y-4.9409
X4.6299Y-5.1772
X4.6299Y-5.2402
X4.6457Y-2.4882
X4.6457Y-2.8583
X4.6457Y-5.4409
X4.6496Y-2.6732
X4.6614Y-4.8228
X4.6614Y-4.8524
X4.6614Y-4.8819
X4.6614Y-4.9114
X4.6614Y-4.9409
X4.6614Y-5.7008
X4.6732Y-3.0512
X4.6929Y-4.5945
X4.6929Y-5.315
X4.6969Y-5.1772
X4.6969Y-5.2402
X4.7087Y-4.7874
X4.7244Y-2.5315
X4.7244Y-4.7441
X4.7244Y-5.5906
X4.7283Y-2.3189
X4.7608Y-4.7633
X4.7638Y-3.2126
X4.7693Y-2.8616
X4.7717Y-2.4921
X4.7756Y-2.5236
X4.7756Y-2.5551
X4.7913Y-4.6811
X4.7953Y-4.7402
X4.7953Y-5.0
X4.8031Y-5.7008
X4.8091Y-5.1929
X4.811Y-4.6417
X4.811Y-5.5354
X4.8189Y-3.2835
X4.8268Y-5.315
X4.8346Y-3.1299
X4.8465Y-4.5591
X4.858Y-2.9469
X4.8622Y-3.811
X4.8661Y-3.9961
X4.8661Y-5.1969
X4.8681Y-4.8524
X4.874Y-3.5551
X4.874Y-4.2087
X4.8799Y-5.1378
X4.8819Y-5.0807
X4.8839Y-4.9843
X4.8858Y-3.4016
X4.8858Y-5.0197
X4.8898Y-4.878
X4.8937Y-4.5512
X4.9213Y-5.4646
X4.9252Y-5.5433
X4.9291Y-5.6063
X4.937Y-4.9252
X4.9449Y-5.6929
X4.9606Y-2.5315
X4.9606Y-4.7441
X4.9646Y-4.6614
X4.9646Y-4.7008
X4.9733Y-2.7583
X4.9961Y-2.8661
X4.9961Y-4.8031
X5.0Y-2.9961
X5.0Y-4.5591
X5.0009Y-5.5989
X5.0118Y-3.8858
X5.0157Y-2.3248
X5.0157Y-4.8465
X5.0184Y-4.1824
X5.0236Y-3.1378
X5.0295Y-4.9016
X5.0433Y-4.9843
X5.0442Y-5.4329
X5.0512Y-5.1102
X5.0512Y-5.2717
X5.0551Y-2.4094
X5.063Y-5.6024
X5.0827Y-2.311
X5.0866Y-2.5118
X5.1024Y-3.7598
X5.1102Y-3.5787
X5.1102Y-3.626
X5.1142Y-3.5276
X5.126Y-5.4291
X5.1299Y-2.8504
X5.1339Y-4.4843
X5.1417Y-3.0709
X5.1575Y-3.626
X5.1575Y-5.5906
X5.1614Y-3.5236
X5.1772Y-4.7283
X5.1811Y-3.0157
X5.185Y-3.2283
X5.187Y-2.3445
X5.1969Y-2.4724
X5.1969Y-5.7008
X5.2047Y-3.6378
X5.2087Y-3.5315
X5.2165Y-4.8386
X5.2205Y-2.3622
X5.2205Y-2.3937
X5.2362Y-4.1929
X5.2441Y-3.6299
X5.252Y-2.3622
X5.252Y-2.3957
X5.252Y-4.5866
X5.2559Y-4.9882
X5.2835Y-2.3622
X5.2835Y-2.3937
X5.2835Y-4.2953
X5.2874Y-4.1457
X5.2874Y-4.248
X5.2913Y-4.1929
X5.2953Y-3.6457
X5.3071Y-3.7559
X5.315Y-2.3228
X5.3228Y-5.622
X5.3311Y-2.5783
X5.3504Y-2.4331
X5.3543Y-2.5472
X5.3583Y-5.1772
X5.3583Y-5.3228
X5.3622Y-3.0079
X5.3701Y-2.8661
X5.376Y-4.1358
X5.378Y-4.0591
X5.3819Y-2.4331
X5.3819Y-3.5906
X5.3858Y-3.8642
X5.3858Y-3.8976
X5.4016Y-4.7244
X5.4055Y-2.7244
X5.4055Y-4.0118
X5.4173Y-2.4449
X5.4213Y-2.4961
X5.4213Y-3.8642
X5.4213Y-3.8976
X5.4331Y-3.5984
X5.4331Y-4.4331
X5.437Y-2.8268
X5.437Y-5.7087
X5.4409Y-4.315
X5.4409Y-4.3701
X5.4488Y-2.6614
X5.4567Y-2.4449
X5.4567Y-2.5354
X5.4567Y-3.8642
X5.4567Y-3.8976
X5.4606Y-3.7441
X5.4646Y-3.0039
X5.4646Y-3.2913
X5.4646Y-4.4646
X5.4724Y-3.1575
X5.4724Y-4.9449
X5.4764Y-4.2598
X5.4843Y-5.5669
X5.4872Y-3.5187
X5.4882Y-2.5669
X5.4961Y-2.874
X5.4961Y-4.3228
X5.5Y-4.8228
X5.5039Y-2.3583
X5.5039Y-3.0866
X5.5039Y-4.4803
X5.5079Y-2.4134
X5.5079Y-3.9331
X5.5157Y-3.3386
X5.5197Y-5.5669
X5.5236Y-4.1339
X5.5276Y-3.1732
X5.5276Y-3.2795
X5.5354Y-2.5669
X5.5354Y-2.6063
X5.5354Y-3.7677
X5.5433Y-4.0315
X5.5512Y-3.5827
X5.5512Y-4.315
X5.5512Y-4.4803
X5.5512Y-5.5669
X5.5518Y-4.2286
X5.5551Y-2.3661
X5.5591Y-4.7283
X5.563Y-2.4409
X5.5748Y-2.5591
X5.5748Y-4.3386
X5.5827Y-4.4488
T2
X4.2874Y-5.2835
X4.3209Y-5.315
X4.4173Y-4.9075
X4.4178Y-4.8366
X4.4232Y-5.3799
X4.4665Y-5.378
X4.624Y-5.378
X4.6673Y-5.378
X4.7008Y-5.4902
X4.7402Y-5.4705
X4.7697Y-4.8366
X4.7702Y-4.9075
X5.2067Y-2.5157
X5.3071Y-3.8071
X5.3228Y-2.5039
X5.3996Y-3.7425
X5.4016Y-2.2795
T0
M30
