%TF.GenerationSoftware,KiCad,Pcbnew,8.0.5*%
%TF.CreationDate,2024-09-27T18:29:33-04:00*%
%TF.ProjectId,oe-commutator-controller,6f652d63-6f6d-46d7-9574-61746f722d63,D*%
%TF.SameCoordinates,Original*%
%TF.FileFunction,Copper,L2,Inr*%
%TF.FilePolarity,Positive*%
%FSLAX46Y46*%
G04 Gerber Fmt 4.6, Leading zero omitted, Abs format (unit mm)*
G04 Created by KiCad (PCBNEW 8.0.5) date 2024-09-27 18:29:33*
%MOMM*%
%LPD*%
G01*
G04 APERTURE LIST*
%TA.AperFunction,ViaPad*%
%ADD10C,0.500000*%
%TD*%
%TA.AperFunction,ViaPad*%
%ADD11C,0.800000*%
%TD*%
%TA.AperFunction,ViaPad*%
%ADD12C,0.900000*%
%TD*%
%TA.AperFunction,Conductor*%
%ADD13C,1.000000*%
%TD*%
%TA.AperFunction,Conductor*%
%ADD14C,0.200000*%
%TD*%
%TA.AperFunction,Conductor*%
%ADD15C,0.500000*%
%TD*%
%TA.AperFunction,Conductor*%
%ADD16C,0.400000*%
%TD*%
%TA.AperFunction,Conductor*%
%ADD17C,0.250000*%
%TD*%
G04 APERTURE END LIST*
D10*
%TO.N,GND*%
X127466568Y-106232072D03*
X112800000Y-101200000D03*
X115000000Y-123250000D03*
X110800000Y-89100000D03*
X124400000Y-91500000D03*
X142263231Y-86157346D03*
X122200000Y-140600000D03*
X137700000Y-99000000D03*
X109300000Y-88800000D03*
X127700000Y-85500000D03*
X143400000Y-82400000D03*
X127100000Y-109100000D03*
X108000000Y-114000000D03*
X127350000Y-123350000D03*
X137300000Y-67500000D03*
X115900000Y-124750000D03*
X138500000Y-61100000D03*
X107500000Y-108500000D03*
X133900000Y-73700000D03*
X139000000Y-125600000D03*
X118400000Y-125500000D03*
X137400000Y-118600000D03*
X142200000Y-101000000D03*
X114100000Y-93800000D03*
X138200000Y-109600000D03*
X129425000Y-90475000D03*
X131000000Y-142000000D03*
X142700000Y-98300000D03*
X133000000Y-106500000D03*
X140600000Y-78700000D03*
X128600000Y-80600000D03*
X115000000Y-122500000D03*
X116100000Y-77000000D03*
X139300000Y-141400000D03*
X135300000Y-91100000D03*
X135800000Y-64900000D03*
X142000000Y-104100000D03*
X141200000Y-120100000D03*
X142528940Y-88775641D03*
X109000000Y-70500000D03*
X118000000Y-77100000D03*
X133200000Y-96000000D03*
X112500000Y-131600000D03*
X108200000Y-138200000D03*
X132000000Y-144800000D03*
X117800000Y-113300000D03*
X142500000Y-82300000D03*
X120000000Y-86000000D03*
X117500000Y-125500000D03*
X118000000Y-138200000D03*
X139100000Y-65000000D03*
X139700000Y-122500000D03*
X113400000Y-144800000D03*
X116700000Y-125500000D03*
X115000000Y-124000000D03*
X139800000Y-113800000D03*
X115800000Y-143000000D03*
X137200000Y-61100000D03*
X118100000Y-99300000D03*
X134200000Y-59800000D03*
X106000000Y-124500000D03*
X110900000Y-58700000D03*
X108000000Y-113000000D03*
X112000000Y-113000000D03*
X141100000Y-97600000D03*
X118400000Y-124000000D03*
X118500000Y-115500000D03*
X142100000Y-75500000D03*
X123750000Y-82350000D03*
X129100000Y-58700000D03*
X138200000Y-111000000D03*
X106000000Y-123000000D03*
X125400000Y-83300000D03*
X108670000Y-79600000D03*
X108100000Y-71700000D03*
X115900000Y-123250000D03*
X107300000Y-79100000D03*
X122100000Y-131200000D03*
X142000000Y-103200000D03*
X110700000Y-105500000D03*
X115400000Y-87000000D03*
X116700000Y-124750000D03*
X127100000Y-113400000D03*
X111000000Y-114000000D03*
X106000000Y-127000000D03*
X109700000Y-77000000D03*
X130500000Y-100100000D03*
X129900000Y-94700000D03*
X134200000Y-60600000D03*
X124700000Y-126700000D03*
X122700000Y-92500000D03*
X115000000Y-124750000D03*
X124500000Y-130000000D03*
X128400000Y-61200000D03*
X141000000Y-103000000D03*
X134500000Y-101500000D03*
X107000000Y-100600000D03*
X115900000Y-124000000D03*
X134300000Y-105300000D03*
X143000000Y-68400000D03*
X106400000Y-142800000D03*
X118400000Y-109100000D03*
X110250000Y-63900000D03*
X132500000Y-122900000D03*
X105958247Y-83978089D03*
X133400000Y-59800000D03*
X128000000Y-75000000D03*
X125198782Y-115626744D03*
X116693763Y-58550624D03*
X141800000Y-93100000D03*
X118000000Y-97800000D03*
X117958828Y-103918946D03*
X138600000Y-98150000D03*
X107000000Y-113000000D03*
X140400000Y-105000000D03*
X140200000Y-141400000D03*
X140900000Y-77000000D03*
X131550000Y-62000000D03*
X139000000Y-78400000D03*
X110000000Y-113000000D03*
X136800000Y-99000000D03*
X106000000Y-116000000D03*
X135600000Y-60500000D03*
X107100000Y-91600000D03*
X106700000Y-72800000D03*
X128600000Y-142300000D03*
X128300000Y-129800000D03*
X114200000Y-106200000D03*
X143400000Y-72200000D03*
X125000000Y-138800000D03*
X137600000Y-62100000D03*
X106800000Y-80000000D03*
X134200000Y-109100000D03*
X108670000Y-81000000D03*
X111450000Y-74050000D03*
X130400000Y-85700000D03*
X142000000Y-106000000D03*
X124500000Y-131000000D03*
X117500000Y-122500000D03*
X133200000Y-80600000D03*
X126000000Y-90200000D03*
X134300000Y-107900000D03*
X138600000Y-62100000D03*
X110400000Y-132300000D03*
X126100000Y-119400000D03*
X109000000Y-69750000D03*
X117250000Y-63150000D03*
X141800000Y-113000000D03*
X124500000Y-132000000D03*
X118600000Y-117000000D03*
X110600000Y-143200000D03*
X126000000Y-75200000D03*
X109550000Y-103050000D03*
X139600000Y-109800000D03*
X118400000Y-132400000D03*
X113450000Y-69350000D03*
X117500000Y-123250000D03*
X141150000Y-75500000D03*
X106600000Y-121000000D03*
X134500000Y-100500000D03*
X143000000Y-75500000D03*
X118400000Y-122500000D03*
X141000000Y-101000000D03*
X115900000Y-125500000D03*
X110100000Y-108500000D03*
X138600000Y-99000000D03*
X134800000Y-69300000D03*
X116400000Y-132700000D03*
X117700000Y-94300000D03*
X133200000Y-92200000D03*
X120924464Y-120988114D03*
X128000000Y-73000000D03*
X117500000Y-124750000D03*
X106000000Y-123750000D03*
X127750000Y-124500000D03*
X130900000Y-70900000D03*
X106100000Y-67200000D03*
X141600000Y-110200000D03*
X128300000Y-133900000D03*
X140800000Y-68200000D03*
X141600000Y-72200000D03*
X131500000Y-120100000D03*
X121300000Y-63000000D03*
X136800000Y-98150000D03*
X137700000Y-98150000D03*
X142000000Y-97600000D03*
X127021996Y-142211146D03*
X128000000Y-103100000D03*
X136471152Y-123865425D03*
X138000000Y-112600000D03*
X119500000Y-82600000D03*
X126000000Y-73000000D03*
X126700000Y-125500000D03*
X120000000Y-142000000D03*
X138100000Y-145000000D03*
X140000000Y-107000000D03*
X121800000Y-120400000D03*
X107500000Y-105000000D03*
X130400000Y-113900000D03*
X130200000Y-137900000D03*
X114250000Y-69700000D03*
X112750000Y-75300000D03*
X113500000Y-77200000D03*
X120700000Y-100800000D03*
X129500000Y-98000000D03*
X139700000Y-70300000D03*
X119500000Y-121250000D03*
X141000000Y-107000000D03*
X133500000Y-126700000D03*
X112500000Y-121000000D03*
X133100000Y-94800000D03*
X135200000Y-142800000D03*
X106000000Y-115000000D03*
X113400000Y-73300000D03*
X125600000Y-144600000D03*
X106000000Y-114000000D03*
X124394974Y-127673520D03*
X143200000Y-86200000D03*
X134500000Y-102500000D03*
X136300000Y-61000000D03*
X113700000Y-80600000D03*
X110400000Y-129000000D03*
X117200000Y-106100000D03*
X136100000Y-131500000D03*
X119138909Y-85361091D03*
X109200000Y-123000000D03*
X125200000Y-142400000D03*
X132600000Y-60600000D03*
X112100000Y-105200000D03*
X136100000Y-135200000D03*
X115800000Y-139600000D03*
X136050000Y-91200000D03*
X110800000Y-85600000D03*
X129700000Y-93400000D03*
X125300000Y-66900000D03*
X108200000Y-145000000D03*
X103865691Y-61992796D03*
X112516620Y-106422847D03*
X106000000Y-139800000D03*
X118400000Y-144800000D03*
X121400000Y-64000000D03*
X133800000Y-70100000D03*
X115900000Y-122500000D03*
X141400000Y-86300000D03*
X119200000Y-132600000D03*
X128100000Y-126600000D03*
X134300000Y-75700000D03*
X139800000Y-89800000D03*
X108400000Y-140800000D03*
X118400000Y-124750000D03*
X126900000Y-94300000D03*
X123750000Y-83400000D03*
X118400000Y-123250000D03*
X141000000Y-141400000D03*
X117500000Y-124000000D03*
X140700000Y-80900000D03*
X135900000Y-64000000D03*
X142000000Y-107000000D03*
X116200000Y-74200000D03*
X122400000Y-90400000D03*
X120600000Y-68200000D03*
X139100000Y-108200000D03*
X117400000Y-135200000D03*
X118400000Y-111300000D03*
X133400000Y-60600000D03*
X127500000Y-64200000D03*
X134600000Y-71600000D03*
X127000000Y-115800000D03*
X109000000Y-69000000D03*
X132600000Y-59800000D03*
X113500000Y-78000000D03*
X134400000Y-106500000D03*
X115000000Y-125500000D03*
X123800000Y-101300000D03*
X128200000Y-82900000D03*
X114200000Y-100600000D03*
X108200000Y-73200000D03*
X128122482Y-137995081D03*
X142500000Y-72200000D03*
X105900000Y-80000000D03*
X114500000Y-73300000D03*
X123750000Y-84550000D03*
X116700000Y-123250000D03*
X115400000Y-88000000D03*
X109550000Y-93050000D03*
X106400000Y-136600000D03*
X115900000Y-73200000D03*
X142000000Y-105000000D03*
X124400000Y-125800000D03*
X120600000Y-63500000D03*
X118433313Y-102478546D03*
X139200000Y-79500000D03*
X117200000Y-88700000D03*
X107900000Y-77600000D03*
X113600000Y-135000000D03*
X111600000Y-108500000D03*
X106000000Y-132200000D03*
X132500000Y-65000000D03*
X137700000Y-63400000D03*
X141000000Y-113800000D03*
X141000000Y-109600000D03*
X110400000Y-127200000D03*
X126100000Y-118400000D03*
X140800000Y-66400000D03*
X141700000Y-82300000D03*
X126000000Y-120500000D03*
X127300000Y-98700000D03*
X125400000Y-125100000D03*
X119300000Y-131500000D03*
X142600000Y-94600000D03*
X117950000Y-79800000D03*
X132000000Y-66000000D03*
X137300000Y-71300000D03*
X122100000Y-132100000D03*
X112100000Y-74575000D03*
X116700000Y-122500000D03*
X106600000Y-108500000D03*
X141000000Y-99700000D03*
X127400000Y-59050000D03*
X125000000Y-79000000D03*
X108800000Y-77700000D03*
X109000000Y-108500000D03*
X137700000Y-70100000D03*
X126000000Y-74200000D03*
X122000000Y-144800000D03*
X125100000Y-140800000D03*
X117361082Y-132896248D03*
X138800000Y-113400000D03*
X116700000Y-124000000D03*
D11*
%TO.N,+5V*%
X131437500Y-105537500D03*
X136400000Y-102100000D03*
D10*
%TO.N,+3.3V*%
X130400000Y-69800000D03*
X113600000Y-78900000D03*
D12*
X133000000Y-86000000D03*
D10*
X124000000Y-108000000D03*
X136837500Y-93737500D03*
D11*
X137000000Y-88700000D03*
D12*
X127900000Y-89300000D03*
D10*
X133000000Y-69600000D03*
X114640000Y-108000000D03*
D11*
X117475000Y-66250000D03*
D12*
X132800000Y-73300000D03*
D10*
X115200000Y-68525000D03*
X137300000Y-93100000D03*
X117200000Y-108000000D03*
X109400000Y-82900000D03*
D12*
X121700000Y-85400000D03*
D10*
%TO.N,Net-(U2-VREG_VOUT)*%
X113874998Y-79600000D03*
X118550000Y-78500000D03*
X118690420Y-80798823D03*
D12*
%TO.N,Net-(U6-VMID)*%
X132000000Y-98850000D03*
X137148833Y-95058568D03*
D10*
%TO.N,Net-(J1-Pin_2)*%
X112300000Y-104000000D03*
X114100000Y-104000000D03*
%TO.N,/MCU/GPIO_{1}*%
X111500000Y-76900000D03*
X107000000Y-81500000D03*
%TO.N,/MCU/GPIO_{0}*%
X111600000Y-77700000D03*
X108300000Y-82600000D03*
%TO.N,Net-(J1-Pin_4)*%
X113659999Y-108000000D03*
X112300000Y-108000000D03*
%TO.N,/MCU/~{RESET}*%
X113500000Y-81500000D03*
X126600000Y-81500000D03*
X110700000Y-83400000D03*
%TO.N,/MCU/QSPI_{CLK}*%
X130500000Y-77500000D03*
X130500000Y-80500000D03*
%TO.N,/MCU/SDA*%
X117400000Y-71500000D03*
X115800000Y-71500000D03*
%TO.N,/MCU/LTC44_{~{PFO}}*%
X138685000Y-95115000D03*
X138000000Y-91100000D03*
%TO.N,/Touch Sensors/CCW*%
X110000000Y-73100000D03*
%TO.N,/Touch Sensors/MODE*%
X115100000Y-66000000D03*
%TO.N,/Touch Sensors/CW*%
X124200000Y-68700000D03*
%TO.N,/Touch Sensors/STOP*%
X110600000Y-121500000D03*
%TO.N,/MCU/TMC_{~{CS}}*%
X118000000Y-91000000D03*
X121000000Y-91500000D03*
%TO.N,/MCU/SCLK*%
X117500000Y-90000000D03*
X120000000Y-90000000D03*
%TO.N,/MCU/TMC_{EN}*%
X113369999Y-119000000D03*
X113400000Y-126800000D03*
D12*
%TO.N,/Motor Driver/OA1*%
X119650000Y-140800000D03*
X120475000Y-139975000D03*
X121000250Y-122850000D03*
%TO.N,/Motor Driver/OB1*%
X113100000Y-136600000D03*
X114100000Y-136600000D03*
X112212500Y-122850500D03*
%TO.N,/Motor Driver/OA2*%
X119200000Y-136800000D03*
X119200000Y-135300000D03*
X121000000Y-124649500D03*
%TO.N,/Motor Driver/OB2*%
X112200000Y-124650000D03*
X111350000Y-133000000D03*
X111350000Y-134252944D03*
%TD*%
D13*
%TO.N,+3.3V*%
X133000000Y-87000000D02*
X133000000Y-86000000D01*
X130700000Y-89300000D02*
X133000000Y-87000000D01*
X127900000Y-89300000D02*
X130700000Y-89300000D01*
%TO.N,Net-(U6-VMID)*%
X135800000Y-95050000D02*
X132000000Y-98850000D01*
X137140265Y-95050000D02*
X135800000Y-95050000D01*
X137148833Y-95058568D02*
X137140265Y-95050000D01*
%TO.N,+5V*%
X133525000Y-103450000D02*
X131437500Y-105537500D01*
X135050000Y-103450000D02*
X133525000Y-103450000D01*
X136400000Y-102100000D02*
X135050000Y-103450000D01*
%TO.N,+3.3V*%
X133000000Y-86000000D02*
X131550000Y-84550000D01*
X121900000Y-85600000D02*
X121700000Y-85400000D01*
X132700000Y-73400000D02*
X132800000Y-73300000D01*
D14*
X130400000Y-69800000D02*
X132800000Y-69800000D01*
D13*
X126150000Y-84550000D02*
X125300000Y-85400000D01*
X122900000Y-85600000D02*
X121900000Y-85600000D01*
D15*
X137300000Y-93100000D02*
X137000000Y-92800000D01*
D13*
X131550000Y-84550000D02*
X126150000Y-84550000D01*
X132700000Y-79756497D02*
X132700000Y-73400000D01*
D15*
X137300000Y-93100000D02*
X137300000Y-93275000D01*
D14*
X109400000Y-82400000D02*
X112900000Y-78900000D01*
D13*
X131550000Y-84550000D02*
X131550000Y-80906497D01*
D14*
X132800000Y-69800000D02*
X133000000Y-69600000D01*
D13*
X131550000Y-80906497D02*
X132700000Y-79756497D01*
D14*
X109400000Y-82900000D02*
X109400000Y-82400000D01*
D13*
X125300000Y-85400000D02*
X125100000Y-85600000D01*
D15*
X137300000Y-93275000D02*
X136837500Y-93737500D01*
X137000000Y-92800000D02*
X137000000Y-88700000D01*
D13*
X125100000Y-85600000D02*
X122900000Y-85600000D01*
D16*
X114640000Y-108000000D02*
X117200000Y-108000000D01*
D14*
X112900000Y-78900000D02*
X113600000Y-78900000D01*
D16*
X117200000Y-108000000D02*
X124000000Y-108000000D01*
X117475000Y-66250000D02*
X115200000Y-68525000D01*
D15*
%TO.N,Net-(U2-VREG_VOUT)*%
X118690422Y-80798823D02*
X118589245Y-80900000D01*
X118700002Y-79510050D02*
X118550002Y-79360050D01*
X118589245Y-80900000D02*
X115175000Y-80900000D01*
X118700002Y-80789243D02*
X118700002Y-79510050D01*
X118550002Y-79360050D02*
X118550002Y-78500000D01*
X118690422Y-80798823D02*
X118700002Y-80789243D01*
X115175000Y-80900000D02*
X113875000Y-79600000D01*
D14*
%TO.N,Net-(J1-Pin_2)*%
X112300000Y-104000000D02*
X114100000Y-104000000D01*
%TO.N,/MCU/GPIO_{1}*%
X110700000Y-77700000D02*
X110700000Y-78400000D01*
X110700000Y-78400000D02*
X108650000Y-80450000D01*
X111500000Y-76900000D02*
X110700000Y-77700000D01*
X108050000Y-80450000D02*
X107000000Y-81500000D01*
X108650000Y-80450000D02*
X108050000Y-80450000D01*
%TO.N,/MCU/GPIO_{0}*%
X111600000Y-78847818D02*
X111600000Y-77700000D01*
X108300000Y-82600000D02*
X108300000Y-82147818D01*
X108300000Y-82147818D02*
X111600000Y-78847818D01*
%TO.N,Net-(J1-Pin_4)*%
X112300000Y-108000000D02*
X113659999Y-108000000D01*
%TO.N,/MCU/~{RESET}*%
X113500000Y-81500000D02*
X111600000Y-83400000D01*
X111600000Y-83400000D02*
X110700000Y-83400000D01*
X125300000Y-81500000D02*
X126600000Y-81500000D01*
X125000000Y-81800000D02*
X125300000Y-81500000D01*
X113500000Y-81500000D02*
X113800000Y-81800000D01*
X113800000Y-81800000D02*
X125000000Y-81800000D01*
D17*
%TO.N,/MCU/QSPI_{CLK}*%
X130500000Y-80500000D02*
X130500000Y-77500000D01*
D14*
%TO.N,/MCU/SDA*%
X117400000Y-71500000D02*
X115800000Y-71500000D01*
%TO.N,/MCU/LTC44_{~{PFO}}*%
X138685000Y-91785000D02*
X138000000Y-91100000D01*
X138685000Y-95115000D02*
X138685000Y-91785000D01*
%TO.N,/MCU/TMC_{~{CS}}*%
X118000000Y-91000000D02*
X120500000Y-91000000D01*
X120500000Y-91000000D02*
X121000000Y-91500000D01*
%TO.N,/MCU/SCLK*%
X117500000Y-90000000D02*
X120000000Y-90000000D01*
%TO.N,/MCU/TMC_{EN}*%
X113369999Y-119000000D02*
X113375000Y-119005001D01*
X113375000Y-119005001D02*
X113375000Y-126775000D01*
X113375000Y-126775000D02*
X113400000Y-126800000D01*
D13*
%TO.N,/Motor Driver/OA1*%
X123100000Y-124949750D02*
X121000250Y-122850000D01*
X123100000Y-137350000D02*
X123100000Y-124949750D01*
X119650000Y-140800000D02*
X123100000Y-137350000D01*
%TO.N,/Motor Driver/OB1*%
X111149500Y-122850500D02*
X112212500Y-122850500D01*
X109400000Y-134400000D02*
X109400000Y-124600000D01*
X109400000Y-124600000D02*
X111149500Y-122850500D01*
X113100000Y-136600000D02*
X111600000Y-136600000D01*
X113100000Y-136600000D02*
X114100000Y-136600000D01*
X111600000Y-136600000D02*
X109400000Y-134400000D01*
%TO.N,/Motor Driver/OA2*%
X119200000Y-135300000D02*
X121000000Y-133500000D01*
X121000000Y-133500000D02*
X121000000Y-124649500D01*
X119200000Y-135300000D02*
X119200000Y-136800000D01*
%TO.N,/Motor Driver/OB2*%
X111350000Y-133000000D02*
X111350000Y-125500000D01*
X111350000Y-133000000D02*
X111350000Y-134252944D01*
X111350000Y-125500000D02*
X112200000Y-124650000D01*
%TD*%
%TA.AperFunction,Conductor*%
%TO.N,GND*%
G36*
X113039795Y-123022366D02*
G01*
X113071764Y-123074535D01*
X113074500Y-123097647D01*
X113074500Y-124450599D01*
X113055593Y-124508790D01*
X113006093Y-124544754D01*
X112944907Y-124544754D01*
X112895407Y-124508790D01*
X112878402Y-124469913D01*
X112873580Y-124445671D01*
X112820775Y-124318188D01*
X112820774Y-124318186D01*
X112820771Y-124318181D01*
X112744114Y-124203457D01*
X112646542Y-124105885D01*
X112531818Y-124029228D01*
X112531807Y-124029222D01*
X112404329Y-123976420D01*
X112268996Y-123949500D01*
X112268994Y-123949500D01*
X112131007Y-123949500D01*
X112131004Y-123949500D01*
X111995672Y-123976420D01*
X111995670Y-123976420D01*
X111868191Y-124029223D01*
X111753460Y-124105883D01*
X110805889Y-125053453D01*
X110805886Y-125053457D01*
X110741045Y-125150496D01*
X110741046Y-125150497D01*
X110729222Y-125168192D01*
X110676420Y-125295670D01*
X110676420Y-125295672D01*
X110649500Y-125431004D01*
X110649500Y-134321939D01*
X110669485Y-134422408D01*
X110662293Y-134483169D01*
X110620761Y-134528099D01*
X110560751Y-134540036D01*
X110505186Y-134514420D01*
X110502383Y-134511726D01*
X110129496Y-134138839D01*
X110101719Y-134084322D01*
X110100500Y-134068835D01*
X110100500Y-124931165D01*
X110119407Y-124872974D01*
X110129496Y-124861161D01*
X111410661Y-123579996D01*
X111465178Y-123552219D01*
X111480665Y-123551000D01*
X112281492Y-123551000D01*
X112281493Y-123551000D01*
X112416828Y-123524080D01*
X112544311Y-123471275D01*
X112659042Y-123394614D01*
X112756614Y-123297042D01*
X112833275Y-123182311D01*
X112884036Y-123059761D01*
X112923772Y-123013236D01*
X112983267Y-122998952D01*
X113039795Y-123022366D01*
G37*
%TD.AperFunction*%
%TA.AperFunction,Conductor*%
G36*
X142094452Y-54519407D02*
G01*
X142130416Y-54568907D01*
X142130416Y-54630093D01*
X142094452Y-54679591D01*
X142002804Y-54746178D01*
X141957345Y-54779206D01*
X141779206Y-54957345D01*
X141631128Y-55161157D01*
X141516759Y-55385620D01*
X141438908Y-55625219D01*
X141399500Y-55874034D01*
X141399500Y-56125965D01*
X141438908Y-56374780D01*
X141438910Y-56374785D01*
X141516759Y-56614379D01*
X141631130Y-56838845D01*
X141779207Y-57042656D01*
X141957344Y-57220793D01*
X142161155Y-57368870D01*
X142385621Y-57483241D01*
X142625215Y-57561090D01*
X142625216Y-57561090D01*
X142625219Y-57561091D01*
X142874035Y-57600500D01*
X142874038Y-57600500D01*
X143125965Y-57600500D01*
X143374780Y-57561091D01*
X143374781Y-57561090D01*
X143374785Y-57561090D01*
X143614379Y-57483241D01*
X143838845Y-57368870D01*
X144042656Y-57220793D01*
X144220793Y-57042656D01*
X144320408Y-56905547D01*
X144369907Y-56869584D01*
X144431093Y-56869584D01*
X144480593Y-56905548D01*
X144499500Y-56963739D01*
X144499500Y-146036260D01*
X144480593Y-146094451D01*
X144431093Y-146130415D01*
X144369907Y-146130415D01*
X144320407Y-146094451D01*
X144301049Y-146067808D01*
X144220793Y-145957344D01*
X144042656Y-145779207D01*
X143838845Y-145631130D01*
X143838844Y-145631129D01*
X143838842Y-145631128D01*
X143614379Y-145516759D01*
X143374780Y-145438908D01*
X143125965Y-145399500D01*
X143125962Y-145399500D01*
X142874038Y-145399500D01*
X142874035Y-145399500D01*
X142625219Y-145438908D01*
X142385620Y-145516759D01*
X142161157Y-145631128D01*
X141957345Y-145779206D01*
X141779206Y-145957345D01*
X141631128Y-146161157D01*
X141516759Y-146385620D01*
X141438908Y-146625219D01*
X141399500Y-146874034D01*
X141399500Y-147125965D01*
X141438908Y-147374780D01*
X141438910Y-147374785D01*
X141516759Y-147614379D01*
X141631130Y-147838845D01*
X141779207Y-148042656D01*
X141957344Y-148220793D01*
X142094452Y-148320408D01*
X142130416Y-148369907D01*
X142130416Y-148431093D01*
X142094452Y-148480593D01*
X142036261Y-148499500D01*
X104963739Y-148499500D01*
X104905548Y-148480593D01*
X104869584Y-148431093D01*
X104869584Y-148369907D01*
X104905547Y-148320408D01*
X105042656Y-148220793D01*
X105220793Y-148042656D01*
X105368870Y-147838845D01*
X105483241Y-147614379D01*
X105561090Y-147374785D01*
X105600500Y-147125962D01*
X105600500Y-146874038D01*
X105600500Y-146874034D01*
X105561091Y-146625219D01*
X105561090Y-146625215D01*
X105483241Y-146385621D01*
X105368870Y-146161155D01*
X105220793Y-145957344D01*
X105042656Y-145779207D01*
X104838845Y-145631130D01*
X104838844Y-145631129D01*
X104838842Y-145631128D01*
X104614379Y-145516759D01*
X104374780Y-145438908D01*
X104125965Y-145399500D01*
X104125962Y-145399500D01*
X103874038Y-145399500D01*
X103874035Y-145399500D01*
X103625219Y-145438908D01*
X103385620Y-145516759D01*
X103161157Y-145631128D01*
X102957345Y-145779206D01*
X102779206Y-145957345D01*
X102679593Y-146094451D01*
X102630092Y-146130415D01*
X102568907Y-146130415D01*
X102519407Y-146094451D01*
X102500500Y-146036260D01*
X102500500Y-124531006D01*
X108699500Y-124531006D01*
X108699500Y-134468996D01*
X108726420Y-134604327D01*
X108726420Y-134604329D01*
X108779223Y-134731808D01*
X108779224Y-134731810D01*
X108779225Y-134731811D01*
X108855886Y-134846543D01*
X111153457Y-137144114D01*
X111268189Y-137220775D01*
X111268190Y-137220775D01*
X111268191Y-137220776D01*
X111297070Y-137232738D01*
X111395672Y-137273580D01*
X111531006Y-137300500D01*
X111531007Y-137300500D01*
X114168992Y-137300500D01*
X114168993Y-137300500D01*
X114304328Y-137273580D01*
X114431811Y-137220775D01*
X114546542Y-137144114D01*
X114644114Y-137046542D01*
X114720775Y-136931811D01*
X114773580Y-136804328D01*
X114800500Y-136668993D01*
X114800500Y-136531007D01*
X114773580Y-136395672D01*
X114720775Y-136268189D01*
X114720774Y-136268187D01*
X114720771Y-136268182D01*
X114644114Y-136153458D01*
X114546541Y-136055885D01*
X114431817Y-135979228D01*
X114431806Y-135979222D01*
X114304328Y-135926420D01*
X114168995Y-135899500D01*
X114168993Y-135899500D01*
X113168993Y-135899500D01*
X111931165Y-135899500D01*
X111872974Y-135880593D01*
X111861161Y-135870504D01*
X111221661Y-135231004D01*
X118499500Y-135231004D01*
X118499500Y-136868995D01*
X118526420Y-137004327D01*
X118526420Y-137004329D01*
X118579222Y-137131806D01*
X118579228Y-137131817D01*
X118655885Y-137246541D01*
X118753458Y-137344114D01*
X118868182Y-137420771D01*
X118868193Y-137420777D01*
X118915283Y-137440282D01*
X118995672Y-137473580D01*
X119131007Y-137500500D01*
X119131008Y-137500500D01*
X119268992Y-137500500D01*
X119268993Y-137500500D01*
X119404328Y-137473580D01*
X119531811Y-137420775D01*
X119646542Y-137344114D01*
X119744114Y-137246542D01*
X119820775Y-137131811D01*
X119873580Y-137004328D01*
X119900500Y-136868993D01*
X119900500Y-135631163D01*
X119919407Y-135572972D01*
X119929490Y-135561165D01*
X121544113Y-133946543D01*
X121594723Y-133870801D01*
X121620775Y-133831811D01*
X121673580Y-133704328D01*
X121674342Y-133700500D01*
X121686326Y-133640248D01*
X121700500Y-133568993D01*
X121700500Y-124779915D01*
X121719407Y-124721724D01*
X121768907Y-124685760D01*
X121830093Y-124685760D01*
X121869504Y-124709911D01*
X122370504Y-125210911D01*
X122398281Y-125265428D01*
X122399500Y-125280915D01*
X122399500Y-137018835D01*
X122380593Y-137077026D01*
X122370504Y-137088839D01*
X119105883Y-140353460D01*
X119029223Y-140468191D01*
X118976420Y-140595670D01*
X118976420Y-140595672D01*
X118949500Y-140731003D01*
X118949500Y-140868996D01*
X118976420Y-141004327D01*
X118976420Y-141004329D01*
X119029223Y-141131808D01*
X119029224Y-141131810D01*
X119029225Y-141131811D01*
X119105886Y-141246543D01*
X119203457Y-141344114D01*
X119318189Y-141420775D01*
X119445672Y-141473580D01*
X119581006Y-141500500D01*
X119581007Y-141500500D01*
X119718993Y-141500500D01*
X119718994Y-141500500D01*
X119854328Y-141473580D01*
X119981811Y-141420775D01*
X120096543Y-141344114D01*
X123644114Y-137796543D01*
X123720775Y-137681811D01*
X123773580Y-137554328D01*
X123800500Y-137418994D01*
X123800500Y-137281006D01*
X123800500Y-124880757D01*
X123782836Y-124791957D01*
X123773580Y-124745422D01*
X123720775Y-124617939D01*
X123644114Y-124503207D01*
X121446793Y-122305886D01*
X121332061Y-122229225D01*
X121332060Y-122229224D01*
X121332058Y-122229223D01*
X121204578Y-122176420D01*
X121069246Y-122149500D01*
X121069244Y-122149500D01*
X120931256Y-122149500D01*
X120931253Y-122149500D01*
X120795922Y-122176420D01*
X120795920Y-122176420D01*
X120668441Y-122229223D01*
X120553710Y-122305883D01*
X120456133Y-122403460D01*
X120379473Y-122518191D01*
X120326670Y-122645670D01*
X120326670Y-122645672D01*
X120299750Y-122781003D01*
X120299750Y-122918996D01*
X120326670Y-123054327D01*
X120326670Y-123054329D01*
X120379473Y-123181808D01*
X120379474Y-123181810D01*
X120379475Y-123181811D01*
X120456136Y-123296543D01*
X120710592Y-123550999D01*
X120948161Y-123788568D01*
X120975938Y-123843085D01*
X120966367Y-123903517D01*
X120923102Y-123946782D01*
X120897472Y-123955670D01*
X120795670Y-123975920D01*
X120668193Y-124028722D01*
X120668182Y-124028728D01*
X120553458Y-124105385D01*
X120455885Y-124202958D01*
X120379228Y-124317682D01*
X120379222Y-124317693D01*
X120326420Y-124445170D01*
X120326420Y-124445172D01*
X120299500Y-124580504D01*
X120299500Y-133168835D01*
X120280593Y-133227026D01*
X120270504Y-133238839D01*
X118655889Y-134853453D01*
X118655886Y-134853457D01*
X118595310Y-134944115D01*
X118579225Y-134968188D01*
X118579224Y-134968188D01*
X118526420Y-135095670D01*
X118526420Y-135095672D01*
X118499500Y-135231004D01*
X111221661Y-135231004D01*
X111091217Y-135100560D01*
X111063440Y-135046043D01*
X111073011Y-134985611D01*
X111116276Y-134942346D01*
X111176708Y-134932775D01*
X111180490Y-134933449D01*
X111281007Y-134953444D01*
X111281008Y-134953444D01*
X111418992Y-134953444D01*
X111418993Y-134953444D01*
X111554328Y-134926524D01*
X111681811Y-134873719D01*
X111796542Y-134797058D01*
X111894114Y-134699486D01*
X111970775Y-134584755D01*
X112023580Y-134457272D01*
X112050500Y-134321937D01*
X112050500Y-132931007D01*
X112050500Y-125831164D01*
X112069407Y-125772973D01*
X112079490Y-125761166D01*
X112744114Y-125096543D01*
X112820775Y-124981811D01*
X112873580Y-124854328D01*
X112878402Y-124830084D01*
X112908299Y-124776701D01*
X112963864Y-124751085D01*
X113023873Y-124763022D01*
X113065406Y-124807952D01*
X113074500Y-124849399D01*
X113074500Y-126450789D01*
X113055593Y-126508980D01*
X113050320Y-126515619D01*
X113017118Y-126553936D01*
X113017116Y-126553940D01*
X112963302Y-126671774D01*
X112944867Y-126799997D01*
X112944867Y-126800002D01*
X112963302Y-126928225D01*
X113017117Y-127046061D01*
X113017118Y-127046063D01*
X113101951Y-127143967D01*
X113101952Y-127143968D01*
X113210926Y-127214001D01*
X113210931Y-127214004D01*
X113335228Y-127250500D01*
X113335230Y-127250500D01*
X113464770Y-127250500D01*
X113464772Y-127250500D01*
X113589069Y-127214004D01*
X113698049Y-127143967D01*
X113782882Y-127046063D01*
X113836697Y-126928226D01*
X113855133Y-126800000D01*
X113836697Y-126671774D01*
X113782882Y-126553937D01*
X113749680Y-126515619D01*
X113699680Y-126457914D01*
X113675863Y-126401555D01*
X113675500Y-126393084D01*
X113675500Y-119372290D01*
X113694407Y-119314099D01*
X113699681Y-119307459D01*
X113752881Y-119246063D01*
X113806696Y-119128226D01*
X113825132Y-119000000D01*
X113806696Y-118871774D01*
X113752881Y-118753937D01*
X113668048Y-118656033D01*
X113668047Y-118656032D01*
X113668046Y-118656031D01*
X113559072Y-118585998D01*
X113559069Y-118585996D01*
X113559068Y-118585996D01*
X113559065Y-118585995D01*
X113434773Y-118549500D01*
X113434771Y-118549500D01*
X113305227Y-118549500D01*
X113305224Y-118549500D01*
X113180932Y-118585995D01*
X113180925Y-118585998D01*
X113071951Y-118656031D01*
X112987116Y-118753938D01*
X112933301Y-118871774D01*
X112914866Y-118999997D01*
X112914866Y-119000002D01*
X112933301Y-119128225D01*
X112987117Y-119246063D01*
X113050319Y-119319003D01*
X113074137Y-119375362D01*
X113074500Y-119383834D01*
X113074500Y-122603352D01*
X113055593Y-122661543D01*
X113006093Y-122697507D01*
X112944907Y-122697507D01*
X112895407Y-122661543D01*
X112884036Y-122641237D01*
X112833277Y-122518693D01*
X112833271Y-122518682D01*
X112756614Y-122403958D01*
X112659041Y-122306385D01*
X112544317Y-122229728D01*
X112544306Y-122229722D01*
X112416828Y-122176920D01*
X112281495Y-122150000D01*
X112281493Y-122150000D01*
X111218494Y-122150000D01*
X111080506Y-122150000D01*
X111080503Y-122150000D01*
X110945172Y-122176920D01*
X110945170Y-122176920D01*
X110817691Y-122229723D01*
X110702960Y-122306383D01*
X108855883Y-124153460D01*
X108779223Y-124268191D01*
X108726420Y-124395670D01*
X108726420Y-124395672D01*
X108705030Y-124503208D01*
X108699500Y-124531006D01*
X102500500Y-124531006D01*
X102500500Y-121499997D01*
X110144867Y-121499997D01*
X110144867Y-121500002D01*
X110163302Y-121628225D01*
X110217117Y-121746061D01*
X110217118Y-121746063D01*
X110301951Y-121843967D01*
X110301952Y-121843968D01*
X110410926Y-121914001D01*
X110410931Y-121914004D01*
X110535228Y-121950500D01*
X110535230Y-121950500D01*
X110664770Y-121950500D01*
X110664772Y-121950500D01*
X110789069Y-121914004D01*
X110898049Y-121843967D01*
X110982882Y-121746063D01*
X111036697Y-121628226D01*
X111055133Y-121500000D01*
X111036697Y-121371774D01*
X110982882Y-121253937D01*
X110898049Y-121156033D01*
X110898048Y-121156032D01*
X110898047Y-121156031D01*
X110789073Y-121085998D01*
X110789070Y-121085996D01*
X110789069Y-121085996D01*
X110789066Y-121085995D01*
X110664774Y-121049500D01*
X110664772Y-121049500D01*
X110535228Y-121049500D01*
X110535225Y-121049500D01*
X110410933Y-121085995D01*
X110410926Y-121085998D01*
X110301952Y-121156031D01*
X110217117Y-121253938D01*
X110163302Y-121371774D01*
X110144867Y-121499997D01*
X102500500Y-121499997D01*
X102500500Y-107999997D01*
X111844867Y-107999997D01*
X111844867Y-108000002D01*
X111863302Y-108128225D01*
X111900052Y-108208695D01*
X111917118Y-108246063D01*
X111966517Y-108303073D01*
X112001952Y-108343968D01*
X112089918Y-108400500D01*
X112110931Y-108414004D01*
X112235228Y-108450500D01*
X112235230Y-108450500D01*
X112364770Y-108450500D01*
X112364772Y-108450500D01*
X112489069Y-108414004D01*
X112598049Y-108343967D01*
X112606105Y-108334670D01*
X112658500Y-108303073D01*
X112680925Y-108300500D01*
X113279074Y-108300500D01*
X113337265Y-108319407D01*
X113353894Y-108334670D01*
X113361950Y-108343967D01*
X113470930Y-108414004D01*
X113595227Y-108450500D01*
X113595229Y-108450500D01*
X113724769Y-108450500D01*
X113724771Y-108450500D01*
X113849068Y-108414004D01*
X113958048Y-108343967D01*
X114042881Y-108246063D01*
X114059946Y-108208695D01*
X114101317Y-108163619D01*
X114161283Y-108151467D01*
X114216940Y-108176884D01*
X114240052Y-108208695D01*
X114257118Y-108246063D01*
X114306517Y-108303073D01*
X114341952Y-108343968D01*
X114429918Y-108400500D01*
X114450931Y-108414004D01*
X114575228Y-108450500D01*
X114575230Y-108450500D01*
X114704770Y-108450500D01*
X114704772Y-108450500D01*
X114829069Y-108414004D01*
X114829074Y-108414001D01*
X114835512Y-108411062D01*
X114836418Y-108413047D01*
X114879151Y-108400500D01*
X116960849Y-108400500D01*
X117003581Y-108413047D01*
X117004488Y-108411062D01*
X117010930Y-108414003D01*
X117010931Y-108414004D01*
X117135228Y-108450500D01*
X117135230Y-108450500D01*
X117264770Y-108450500D01*
X117264772Y-108450500D01*
X117389069Y-108414004D01*
X117389074Y-108414001D01*
X117395512Y-108411062D01*
X117396418Y-108413047D01*
X117439151Y-108400500D01*
X123760849Y-108400500D01*
X123803581Y-108413047D01*
X123804488Y-108411062D01*
X123810930Y-108414003D01*
X123810931Y-108414004D01*
X123935228Y-108450500D01*
X123935230Y-108450500D01*
X124064770Y-108450500D01*
X124064772Y-108450500D01*
X124189069Y-108414004D01*
X124298049Y-108343967D01*
X124382882Y-108246063D01*
X124436697Y-108128226D01*
X124455133Y-108000000D01*
X124436697Y-107871774D01*
X124382882Y-107753937D01*
X124298049Y-107656033D01*
X124298048Y-107656032D01*
X124298047Y-107656031D01*
X124189073Y-107585998D01*
X124189070Y-107585996D01*
X124189069Y-107585996D01*
X124189066Y-107585995D01*
X124064774Y-107549500D01*
X124064772Y-107549500D01*
X123935228Y-107549500D01*
X123935225Y-107549500D01*
X123810929Y-107585996D01*
X123804488Y-107588938D01*
X123803581Y-107586952D01*
X123760849Y-107599500D01*
X117439151Y-107599500D01*
X117396418Y-107586952D01*
X117395512Y-107588938D01*
X117389070Y-107585996D01*
X117264774Y-107549500D01*
X117264772Y-107549500D01*
X117135228Y-107549500D01*
X117135225Y-107549500D01*
X117010929Y-107585996D01*
X117004488Y-107588938D01*
X117003581Y-107586952D01*
X116960849Y-107599500D01*
X114879151Y-107599500D01*
X114836418Y-107586952D01*
X114835512Y-107588938D01*
X114829070Y-107585996D01*
X114704774Y-107549500D01*
X114704772Y-107549500D01*
X114575228Y-107549500D01*
X114575225Y-107549500D01*
X114450933Y-107585995D01*
X114450926Y-107585998D01*
X114341952Y-107656031D01*
X114257117Y-107753937D01*
X114240052Y-107791305D01*
X114198679Y-107836382D01*
X114138712Y-107848531D01*
X114083056Y-107823113D01*
X114059946Y-107791305D01*
X114042881Y-107753937D01*
X113958048Y-107656033D01*
X113958047Y-107656032D01*
X113958046Y-107656031D01*
X113849072Y-107585998D01*
X113849069Y-107585996D01*
X113849068Y-107585996D01*
X113849065Y-107585995D01*
X113724773Y-107549500D01*
X113724771Y-107549500D01*
X113595227Y-107549500D01*
X113595224Y-107549500D01*
X113470932Y-107585995D01*
X113470925Y-107585998D01*
X113361950Y-107656032D01*
X113361949Y-107656033D01*
X113353894Y-107665330D01*
X113301499Y-107696927D01*
X113279074Y-107699500D01*
X112680925Y-107699500D01*
X112622734Y-107680593D01*
X112606105Y-107665330D01*
X112598049Y-107656033D01*
X112598048Y-107656032D01*
X112489073Y-107585998D01*
X112489070Y-107585996D01*
X112489069Y-107585996D01*
X112489066Y-107585995D01*
X112364774Y-107549500D01*
X112364772Y-107549500D01*
X112235228Y-107549500D01*
X112235225Y-107549500D01*
X112110933Y-107585995D01*
X112110926Y-107585998D01*
X112001952Y-107656031D01*
X111917117Y-107753938D01*
X111863302Y-107871774D01*
X111844867Y-107999997D01*
X102500500Y-107999997D01*
X102500500Y-105468503D01*
X130737000Y-105468503D01*
X130737000Y-105606496D01*
X130763920Y-105741827D01*
X130763920Y-105741829D01*
X130816723Y-105869308D01*
X130816724Y-105869310D01*
X130816725Y-105869311D01*
X130893386Y-105984043D01*
X130990957Y-106081614D01*
X131105689Y-106158275D01*
X131233172Y-106211080D01*
X131368506Y-106238000D01*
X131368507Y-106238000D01*
X131506493Y-106238000D01*
X131506494Y-106238000D01*
X131641828Y-106211080D01*
X131769311Y-106158275D01*
X131884043Y-106081614D01*
X133786161Y-104179496D01*
X133840678Y-104151719D01*
X133856165Y-104150500D01*
X135118993Y-104150500D01*
X135118994Y-104150500D01*
X135254328Y-104123580D01*
X135381811Y-104070775D01*
X135496543Y-103994114D01*
X136944113Y-102546543D01*
X137020774Y-102431811D01*
X137073580Y-102304329D01*
X137100499Y-102168994D01*
X137100499Y-102031006D01*
X137073580Y-101895672D01*
X137020774Y-101768189D01*
X136944113Y-101653457D01*
X136846543Y-101555887D01*
X136731811Y-101479226D01*
X136731812Y-101479226D01*
X136731810Y-101479225D01*
X136604331Y-101426421D01*
X136604325Y-101426419D01*
X136468996Y-101399501D01*
X136468994Y-101399501D01*
X136331006Y-101399501D01*
X136331003Y-101399501D01*
X136195673Y-101426419D01*
X136195667Y-101426421D01*
X136068190Y-101479225D01*
X136068184Y-101479228D01*
X135953460Y-101555884D01*
X134788839Y-102720504D01*
X134734322Y-102748281D01*
X134718835Y-102749500D01*
X133456003Y-102749500D01*
X133320672Y-102776420D01*
X133320670Y-102776420D01*
X133193191Y-102829223D01*
X133078460Y-102905883D01*
X130893383Y-105090960D01*
X130816723Y-105205691D01*
X130763920Y-105333170D01*
X130763920Y-105333172D01*
X130737000Y-105468503D01*
X102500500Y-105468503D01*
X102500500Y-103999997D01*
X111844867Y-103999997D01*
X111844867Y-104000002D01*
X111863302Y-104128225D01*
X111917117Y-104246061D01*
X111917118Y-104246063D01*
X111966517Y-104303073D01*
X112001952Y-104343968D01*
X112110926Y-104414001D01*
X112110931Y-104414004D01*
X112235228Y-104450500D01*
X112235230Y-104450500D01*
X112364770Y-104450500D01*
X112364772Y-104450500D01*
X112489069Y-104414004D01*
X112598049Y-104343967D01*
X112606105Y-104334670D01*
X112658500Y-104303073D01*
X112680925Y-104300500D01*
X113719075Y-104300500D01*
X113777266Y-104319407D01*
X113793895Y-104334670D01*
X113801951Y-104343967D01*
X113910931Y-104414004D01*
X114035228Y-104450500D01*
X114035230Y-104450500D01*
X114164770Y-104450500D01*
X114164772Y-104450500D01*
X114289069Y-104414004D01*
X114398049Y-104343967D01*
X114482882Y-104246063D01*
X114536697Y-104128226D01*
X114555133Y-104000000D01*
X114536697Y-103871774D01*
X114482882Y-103753937D01*
X114398049Y-103656033D01*
X114398048Y-103656032D01*
X114398047Y-103656031D01*
X114289073Y-103585998D01*
X114289070Y-103585996D01*
X114289069Y-103585996D01*
X114289066Y-103585995D01*
X114164774Y-103549500D01*
X114164772Y-103549500D01*
X114035228Y-103549500D01*
X114035225Y-103549500D01*
X113910933Y-103585995D01*
X113910926Y-103585998D01*
X113801951Y-103656032D01*
X113801950Y-103656033D01*
X113793895Y-103665330D01*
X113741500Y-103696927D01*
X113719075Y-103699500D01*
X112680925Y-103699500D01*
X112622734Y-103680593D01*
X112606105Y-103665330D01*
X112598049Y-103656033D01*
X112598048Y-103656032D01*
X112489073Y-103585998D01*
X112489070Y-103585996D01*
X112489069Y-103585996D01*
X112489066Y-103585995D01*
X112364774Y-103549500D01*
X112364772Y-103549500D01*
X112235228Y-103549500D01*
X112235225Y-103549500D01*
X112110933Y-103585995D01*
X112110926Y-103585998D01*
X112001952Y-103656031D01*
X111917117Y-103753938D01*
X111863302Y-103871774D01*
X111844867Y-103999997D01*
X102500500Y-103999997D01*
X102500500Y-98781003D01*
X131299500Y-98781003D01*
X131299500Y-98918996D01*
X131326420Y-99054327D01*
X131326420Y-99054329D01*
X131379223Y-99181808D01*
X131379224Y-99181810D01*
X131379225Y-99181811D01*
X131455886Y-99296543D01*
X131553457Y-99394114D01*
X131668189Y-99470775D01*
X131795672Y-99523580D01*
X131931006Y-99550500D01*
X131931007Y-99550500D01*
X132068993Y-99550500D01*
X132068994Y-99550500D01*
X132204328Y-99523580D01*
X132331811Y-99470775D01*
X132446543Y-99394114D01*
X136061161Y-95779496D01*
X136115678Y-95751719D01*
X136131165Y-95750500D01*
X137027013Y-95750500D01*
X137046325Y-95752401D01*
X137079839Y-95759068D01*
X137079840Y-95759068D01*
X137217826Y-95759068D01*
X137217827Y-95759068D01*
X137353161Y-95732148D01*
X137480644Y-95679343D01*
X137595376Y-95602682D01*
X137692947Y-95505111D01*
X137769608Y-95390379D01*
X137822413Y-95262896D01*
X137849333Y-95127562D01*
X137849333Y-94989574D01*
X137822413Y-94854240D01*
X137789119Y-94773861D01*
X137769609Y-94726759D01*
X137692949Y-94612028D01*
X137692947Y-94612025D01*
X137586808Y-94505886D01*
X137472076Y-94429225D01*
X137472075Y-94429224D01*
X137472073Y-94429223D01*
X137344593Y-94376420D01*
X137209261Y-94349500D01*
X137209259Y-94349500D01*
X137209258Y-94349500D01*
X137045081Y-94349500D01*
X136986890Y-94330593D01*
X136950926Y-94281093D01*
X136950926Y-94219907D01*
X136986890Y-94170407D01*
X137007182Y-94159041D01*
X137011383Y-94157299D01*
X137011387Y-94157299D01*
X137011389Y-94157297D01*
X137017378Y-94154816D01*
X137017645Y-94155461D01*
X137021991Y-94153594D01*
X137026560Y-94151506D01*
X137026569Y-94151504D01*
X137070110Y-94123520D01*
X137074063Y-94121111D01*
X137114114Y-94097989D01*
X137114265Y-94097837D01*
X137130757Y-94084545D01*
X137135549Y-94081467D01*
X137165131Y-94047325D01*
X137169921Y-94042180D01*
X137660490Y-93551614D01*
X137719799Y-93448887D01*
X137739164Y-93376614D01*
X137750500Y-93334309D01*
X137750500Y-93139301D01*
X137751508Y-93125210D01*
X137755133Y-93100000D01*
X137755133Y-93099998D01*
X137751508Y-93074786D01*
X137750500Y-93060697D01*
X137750500Y-93040690D01*
X137743624Y-93015032D01*
X137741258Y-93003494D01*
X137736698Y-92971777D01*
X137736697Y-92971775D01*
X137728848Y-92954588D01*
X137723274Y-92939083D01*
X137719799Y-92926114D01*
X137719799Y-92926113D01*
X137703219Y-92897396D01*
X137698921Y-92889059D01*
X137682882Y-92853937D01*
X137682881Y-92853936D01*
X137682881Y-92853935D01*
X137674827Y-92844641D01*
X137663906Y-92829305D01*
X137660488Y-92823385D01*
X137632433Y-92795329D01*
X137627619Y-92790158D01*
X137598051Y-92756034D01*
X137593253Y-92752951D01*
X137576775Y-92739672D01*
X137479496Y-92642393D01*
X137451719Y-92587876D01*
X137450500Y-92572389D01*
X137450500Y-91419205D01*
X137469407Y-91361014D01*
X137518907Y-91325050D01*
X137580093Y-91325050D01*
X137624318Y-91354373D01*
X137680495Y-91419205D01*
X137701952Y-91443968D01*
X137789140Y-91500000D01*
X137810931Y-91514004D01*
X137935228Y-91550500D01*
X137984521Y-91550500D01*
X138042712Y-91569407D01*
X138054525Y-91579496D01*
X138355504Y-91880475D01*
X138383281Y-91934992D01*
X138384500Y-91950479D01*
X138384500Y-94736937D01*
X138365593Y-94795128D01*
X138360320Y-94801767D01*
X138302118Y-94868936D01*
X138302116Y-94868940D01*
X138248302Y-94986774D01*
X138229867Y-95114997D01*
X138229867Y-95115002D01*
X138248302Y-95243225D01*
X138302117Y-95361061D01*
X138302118Y-95361063D01*
X138386951Y-95458967D01*
X138386952Y-95458968D01*
X138495926Y-95529001D01*
X138495931Y-95529004D01*
X138620228Y-95565500D01*
X138620230Y-95565500D01*
X138749770Y-95565500D01*
X138749772Y-95565500D01*
X138874069Y-95529004D01*
X138983049Y-95458967D01*
X139067882Y-95361063D01*
X139121697Y-95243226D01*
X139140133Y-95115000D01*
X139121697Y-94986774D01*
X139067882Y-94868937D01*
X139009679Y-94801766D01*
X138985863Y-94745408D01*
X138985500Y-94736937D01*
X138985500Y-91745437D01*
X138985499Y-91745435D01*
X138965021Y-91669011D01*
X138965019Y-91669007D01*
X138925460Y-91600489D01*
X138869511Y-91544539D01*
X138869511Y-91544540D01*
X138483496Y-91158525D01*
X138455719Y-91104008D01*
X138455508Y-91102609D01*
X138436698Y-90971775D01*
X138407459Y-90907753D01*
X138382882Y-90853937D01*
X138298049Y-90756033D01*
X138298048Y-90756032D01*
X138298047Y-90756031D01*
X138189073Y-90685998D01*
X138189070Y-90685996D01*
X138189069Y-90685996D01*
X138170668Y-90680593D01*
X138064774Y-90649500D01*
X138064772Y-90649500D01*
X137935228Y-90649500D01*
X137935225Y-90649500D01*
X137810933Y-90685995D01*
X137810926Y-90685998D01*
X137701951Y-90756032D01*
X137701949Y-90756034D01*
X137624319Y-90845625D01*
X137571924Y-90877221D01*
X137510963Y-90871985D01*
X137464722Y-90831918D01*
X137450500Y-90780794D01*
X137450500Y-89132932D01*
X137469407Y-89074741D01*
X137470936Y-89072693D01*
X137524536Y-89002841D01*
X137585044Y-88856762D01*
X137605682Y-88700000D01*
X137585044Y-88543238D01*
X137524537Y-88397161D01*
X137524537Y-88397160D01*
X137428286Y-88271723D01*
X137428285Y-88271722D01*
X137428282Y-88271718D01*
X137428277Y-88271714D01*
X137428276Y-88271713D01*
X137302838Y-88175462D01*
X137156766Y-88114957D01*
X137156758Y-88114955D01*
X137000001Y-88094318D01*
X136999999Y-88094318D01*
X136843241Y-88114955D01*
X136843233Y-88114957D01*
X136697161Y-88175462D01*
X136697160Y-88175462D01*
X136571723Y-88271713D01*
X136571713Y-88271723D01*
X136475462Y-88397160D01*
X136475462Y-88397161D01*
X136414957Y-88543233D01*
X136414955Y-88543241D01*
X136394318Y-88699999D01*
X136394318Y-88700000D01*
X136414955Y-88856758D01*
X136414957Y-88856766D01*
X136475462Y-89002838D01*
X136475463Y-89002840D01*
X136475464Y-89002841D01*
X136529042Y-89072665D01*
X136549466Y-89130340D01*
X136549500Y-89132932D01*
X136549500Y-92859309D01*
X136573713Y-92949673D01*
X136573712Y-92949673D01*
X136580200Y-92973886D01*
X136580202Y-92973890D01*
X136639507Y-93076609D01*
X136639511Y-93076615D01*
X136680392Y-93117496D01*
X136708169Y-93172013D01*
X136698597Y-93232445D01*
X136680392Y-93257502D01*
X136560723Y-93377172D01*
X136544250Y-93390448D01*
X136539451Y-93393532D01*
X136539450Y-93393533D01*
X136509874Y-93427665D01*
X136505062Y-93432833D01*
X136477012Y-93460883D01*
X136477006Y-93460892D01*
X136473585Y-93466817D01*
X136462678Y-93482134D01*
X136454616Y-93491439D01*
X136438577Y-93526557D01*
X136434263Y-93534924D01*
X136417701Y-93563612D01*
X136417700Y-93563614D01*
X136414223Y-93576588D01*
X136408655Y-93592077D01*
X136400803Y-93609272D01*
X136396240Y-93641005D01*
X136393876Y-93652529D01*
X136387001Y-93678190D01*
X136387001Y-93698190D01*
X136385993Y-93712279D01*
X136382367Y-93737498D01*
X136382367Y-93737500D01*
X136385993Y-93762717D01*
X136387001Y-93776808D01*
X136387001Y-93796810D01*
X136393876Y-93822472D01*
X136396240Y-93833996D01*
X136400803Y-93865727D01*
X136400804Y-93865729D01*
X136408653Y-93882917D01*
X136414224Y-93898413D01*
X136417701Y-93911388D01*
X136417701Y-93911389D01*
X136434268Y-93940084D01*
X136438584Y-93948456D01*
X136454616Y-93983560D01*
X136454618Y-93983564D01*
X136462672Y-93992858D01*
X136473590Y-94008190D01*
X136477007Y-94014109D01*
X136477012Y-94014115D01*
X136505066Y-94042170D01*
X136509879Y-94047340D01*
X136539451Y-94081467D01*
X136544245Y-94084548D01*
X136560717Y-94097821D01*
X136560882Y-94097986D01*
X136560884Y-94097987D01*
X136560886Y-94097989D01*
X136581808Y-94110068D01*
X136600906Y-94121095D01*
X136604928Y-94123547D01*
X136648426Y-94151501D01*
X136648431Y-94151504D01*
X136648435Y-94151505D01*
X136652650Y-94153430D01*
X136657359Y-94155445D01*
X136657620Y-94154816D01*
X136667811Y-94159038D01*
X136714335Y-94198778D01*
X136728614Y-94258274D01*
X136705196Y-94314800D01*
X136653025Y-94346766D01*
X136629920Y-94349500D01*
X135731004Y-94349500D01*
X135595672Y-94376420D01*
X135595670Y-94376420D01*
X135468191Y-94429223D01*
X135353460Y-94505883D01*
X131455883Y-98403460D01*
X131379223Y-98518191D01*
X131326420Y-98645670D01*
X131326420Y-98645672D01*
X131299500Y-98781003D01*
X102500500Y-98781003D01*
X102500500Y-90999997D01*
X117544867Y-90999997D01*
X117544867Y-91000002D01*
X117563302Y-91128225D01*
X117576001Y-91156031D01*
X117617118Y-91246063D01*
X117666517Y-91303073D01*
X117701952Y-91343968D01*
X117810926Y-91414001D01*
X117810931Y-91414004D01*
X117935228Y-91450500D01*
X117935230Y-91450500D01*
X118064770Y-91450500D01*
X118064772Y-91450500D01*
X118189069Y-91414004D01*
X118298049Y-91343967D01*
X118306105Y-91334670D01*
X118358500Y-91303073D01*
X118380925Y-91300500D01*
X120334521Y-91300500D01*
X120392712Y-91319407D01*
X120404525Y-91329496D01*
X120516503Y-91441474D01*
X120544280Y-91495991D01*
X120544491Y-91497389D01*
X120563302Y-91628225D01*
X120617117Y-91746061D01*
X120617118Y-91746063D01*
X120701951Y-91843967D01*
X120701952Y-91843968D01*
X120803877Y-91909471D01*
X120810931Y-91914004D01*
X120935228Y-91950500D01*
X120935230Y-91950500D01*
X121064770Y-91950500D01*
X121064772Y-91950500D01*
X121189069Y-91914004D01*
X121298049Y-91843967D01*
X121382882Y-91746063D01*
X121436697Y-91628226D01*
X121447872Y-91550500D01*
X121455133Y-91500002D01*
X121455133Y-91499997D01*
X121436697Y-91371774D01*
X121417389Y-91329496D01*
X121382882Y-91253937D01*
X121298049Y-91156033D01*
X121298048Y-91156032D01*
X121298047Y-91156031D01*
X121189073Y-91085998D01*
X121189070Y-91085996D01*
X121189069Y-91085996D01*
X121189066Y-91085995D01*
X121064774Y-91049500D01*
X121064772Y-91049500D01*
X121015479Y-91049500D01*
X120957288Y-91030593D01*
X120945476Y-91020504D01*
X120684511Y-90759540D01*
X120647939Y-90738425D01*
X120647938Y-90738425D01*
X120615988Y-90719978D01*
X120539564Y-90699500D01*
X120539562Y-90699500D01*
X118380925Y-90699500D01*
X118322734Y-90680593D01*
X118306105Y-90665330D01*
X118298049Y-90656033D01*
X118298048Y-90656032D01*
X118189073Y-90585998D01*
X118189070Y-90585996D01*
X118189069Y-90585996D01*
X118189066Y-90585995D01*
X118064774Y-90549500D01*
X118064772Y-90549500D01*
X117935228Y-90549500D01*
X117935225Y-90549500D01*
X117810933Y-90585995D01*
X117810926Y-90585998D01*
X117701952Y-90656031D01*
X117617117Y-90753938D01*
X117563302Y-90871774D01*
X117544867Y-90999997D01*
X102500500Y-90999997D01*
X102500500Y-89999997D01*
X117044867Y-89999997D01*
X117044867Y-90000002D01*
X117063302Y-90128225D01*
X117117117Y-90246061D01*
X117117118Y-90246063D01*
X117166517Y-90303073D01*
X117201952Y-90343968D01*
X117310926Y-90414001D01*
X117310931Y-90414004D01*
X117435228Y-90450500D01*
X117435230Y-90450500D01*
X117564770Y-90450500D01*
X117564772Y-90450500D01*
X117689069Y-90414004D01*
X117798049Y-90343967D01*
X117806105Y-90334670D01*
X117858500Y-90303073D01*
X117880925Y-90300500D01*
X119619075Y-90300500D01*
X119677266Y-90319407D01*
X119693895Y-90334670D01*
X119701951Y-90343967D01*
X119810931Y-90414004D01*
X119935228Y-90450500D01*
X119935230Y-90450500D01*
X120064770Y-90450500D01*
X120064772Y-90450500D01*
X120189069Y-90414004D01*
X120298049Y-90343967D01*
X120382882Y-90246063D01*
X120436697Y-90128226D01*
X120455061Y-90000500D01*
X120455133Y-90000002D01*
X120455133Y-89999997D01*
X120436697Y-89871774D01*
X120382882Y-89753938D01*
X120382882Y-89753937D01*
X120298049Y-89656033D01*
X120298048Y-89656032D01*
X120298047Y-89656031D01*
X120189073Y-89585998D01*
X120189070Y-89585996D01*
X120189069Y-89585996D01*
X120189066Y-89585995D01*
X120064774Y-89549500D01*
X120064772Y-89549500D01*
X119935228Y-89549500D01*
X119935225Y-89549500D01*
X119810933Y-89585995D01*
X119810926Y-89585998D01*
X119701951Y-89656032D01*
X119701950Y-89656033D01*
X119693895Y-89665330D01*
X119641500Y-89696927D01*
X119619075Y-89699500D01*
X117880925Y-89699500D01*
X117822734Y-89680593D01*
X117806105Y-89665330D01*
X117798049Y-89656033D01*
X117798048Y-89656032D01*
X117689073Y-89585998D01*
X117689070Y-89585996D01*
X117689069Y-89585996D01*
X117689066Y-89585995D01*
X117564774Y-89549500D01*
X117564772Y-89549500D01*
X117435228Y-89549500D01*
X117435225Y-89549500D01*
X117310933Y-89585995D01*
X117310926Y-89585998D01*
X117201952Y-89656031D01*
X117117117Y-89753938D01*
X117063302Y-89871774D01*
X117044867Y-89999997D01*
X102500500Y-89999997D01*
X102500500Y-85331003D01*
X120999500Y-85331003D01*
X120999500Y-85468996D01*
X121026420Y-85604327D01*
X121026420Y-85604329D01*
X121079223Y-85731808D01*
X121079224Y-85731810D01*
X121079225Y-85731811D01*
X121155886Y-85846543D01*
X121453457Y-86144114D01*
X121568189Y-86220775D01*
X121695672Y-86273580D01*
X121831006Y-86300500D01*
X121831007Y-86300500D01*
X125168993Y-86300500D01*
X125168994Y-86300500D01*
X125304328Y-86273580D01*
X125431811Y-86220775D01*
X125546543Y-86144114D01*
X125844114Y-85846543D01*
X126411161Y-85279496D01*
X126465678Y-85251719D01*
X126481165Y-85250500D01*
X131218835Y-85250500D01*
X131277026Y-85269407D01*
X131288839Y-85279496D01*
X132270504Y-86261161D01*
X132298281Y-86315678D01*
X132299500Y-86331165D01*
X132299500Y-86668835D01*
X132280593Y-86727026D01*
X132270504Y-86738839D01*
X130438839Y-88570504D01*
X130384322Y-88598281D01*
X130368835Y-88599500D01*
X127831004Y-88599500D01*
X127695672Y-88626420D01*
X127695670Y-88626420D01*
X127568193Y-88679222D01*
X127568182Y-88679228D01*
X127453458Y-88755885D01*
X127355885Y-88853458D01*
X127279228Y-88968182D01*
X127279222Y-88968193D01*
X127226420Y-89095670D01*
X127226420Y-89095672D01*
X127199500Y-89231004D01*
X127199500Y-89368995D01*
X127226420Y-89504327D01*
X127226420Y-89504329D01*
X127279222Y-89631806D01*
X127279228Y-89631817D01*
X127355885Y-89746541D01*
X127453458Y-89844114D01*
X127568182Y-89920771D01*
X127568193Y-89920777D01*
X127615283Y-89940282D01*
X127695672Y-89973580D01*
X127831007Y-90000500D01*
X127831008Y-90000500D01*
X130768993Y-90000500D01*
X130768994Y-90000500D01*
X130904328Y-89973580D01*
X131031811Y-89920775D01*
X131146543Y-89844114D01*
X133544114Y-87446543D01*
X133620775Y-87331811D01*
X133673580Y-87204329D01*
X133678934Y-87177409D01*
X133700500Y-87068993D01*
X133700500Y-85931007D01*
X133673580Y-85795672D01*
X133620776Y-85668191D01*
X133620776Y-85668190D01*
X133587144Y-85617857D01*
X133587143Y-85617855D01*
X133544118Y-85553462D01*
X133544116Y-85553460D01*
X133544114Y-85553457D01*
X132279496Y-84288839D01*
X132251719Y-84234322D01*
X132250500Y-84218835D01*
X132250500Y-81814234D01*
X138144500Y-81814234D01*
X138144500Y-81965766D01*
X138164514Y-82040460D01*
X138183720Y-82112139D01*
X138259481Y-82243360D01*
X138259483Y-82243362D01*
X138259485Y-82243365D01*
X138366635Y-82350515D01*
X138366637Y-82350516D01*
X138366639Y-82350518D01*
X138497861Y-82426279D01*
X138497859Y-82426279D01*
X138497863Y-82426280D01*
X138497865Y-82426281D01*
X138644234Y-82465500D01*
X138644236Y-82465500D01*
X138795764Y-82465500D01*
X138795766Y-82465500D01*
X138942135Y-82426281D01*
X138942137Y-82426279D01*
X138942139Y-82426279D01*
X139073360Y-82350518D01*
X139073360Y-82350517D01*
X139073365Y-82350515D01*
X139180515Y-82243365D01*
X139196609Y-82215489D01*
X139256279Y-82112139D01*
X139256279Y-82112137D01*
X139256281Y-82112135D01*
X139295500Y-81965766D01*
X139295500Y-81814234D01*
X139256281Y-81667865D01*
X139256279Y-81667862D01*
X139256279Y-81667860D01*
X139180518Y-81536639D01*
X139180516Y-81536637D01*
X139180515Y-81536635D01*
X139073365Y-81429485D01*
X139073362Y-81429483D01*
X139073360Y-81429481D01*
X138942138Y-81353720D01*
X138942140Y-81353720D01*
X138885347Y-81338503D01*
X138795766Y-81314500D01*
X138644234Y-81314500D01*
X138554652Y-81338503D01*
X138497860Y-81353720D01*
X138366639Y-81429481D01*
X138259481Y-81536639D01*
X138183720Y-81667860D01*
X138183719Y-81667865D01*
X138144500Y-81814234D01*
X132250500Y-81814234D01*
X132250500Y-81237661D01*
X132269407Y-81179470D01*
X132279490Y-81167663D01*
X133244114Y-80203040D01*
X133320775Y-80088308D01*
X133373580Y-79960825D01*
X133400500Y-79825491D01*
X133400500Y-79687503D01*
X133400500Y-76034234D01*
X138144500Y-76034234D01*
X138144500Y-76185766D01*
X138179086Y-76314847D01*
X138183720Y-76332139D01*
X138259481Y-76463360D01*
X138259483Y-76463362D01*
X138259485Y-76463365D01*
X138366635Y-76570515D01*
X138366637Y-76570516D01*
X138366639Y-76570518D01*
X138497861Y-76646279D01*
X138497859Y-76646279D01*
X138497863Y-76646280D01*
X138497865Y-76646281D01*
X138644234Y-76685500D01*
X138644236Y-76685500D01*
X138795764Y-76685500D01*
X138795766Y-76685500D01*
X138942135Y-76646281D01*
X138942137Y-76646279D01*
X138942139Y-76646279D01*
X139073360Y-76570518D01*
X139073360Y-76570517D01*
X139073365Y-76570515D01*
X139180515Y-76463365D01*
X139256281Y-76332135D01*
X139295500Y-76185766D01*
X139295500Y-76034234D01*
X139256281Y-75887865D01*
X139256279Y-75887862D01*
X139256279Y-75887860D01*
X139180518Y-75756639D01*
X139180516Y-75756637D01*
X139180515Y-75756635D01*
X139073365Y-75649485D01*
X139073362Y-75649483D01*
X139073360Y-75649481D01*
X138942138Y-75573720D01*
X138942140Y-75573720D01*
X138885347Y-75558503D01*
X138795766Y-75534500D01*
X138644234Y-75534500D01*
X138554652Y-75558503D01*
X138497860Y-75573720D01*
X138366639Y-75649481D01*
X138259481Y-75756639D01*
X138183720Y-75887860D01*
X138183719Y-75887865D01*
X138144500Y-76034234D01*
X133400500Y-76034234D01*
X133400500Y-73692185D01*
X133417185Y-73637183D01*
X133420774Y-73631812D01*
X133473580Y-73504329D01*
X133500499Y-73368994D01*
X133500499Y-73231006D01*
X133473580Y-73095672D01*
X133420774Y-72968189D01*
X133344113Y-72853457D01*
X133246543Y-72755887D01*
X133246539Y-72755884D01*
X133131810Y-72679225D01*
X133004331Y-72626421D01*
X133004325Y-72626419D01*
X132868996Y-72599501D01*
X132868994Y-72599501D01*
X132731006Y-72599501D01*
X132731003Y-72599501D01*
X132595673Y-72626419D01*
X132595667Y-72626421D01*
X132468188Y-72679225D01*
X132353455Y-72755888D01*
X132155890Y-72953451D01*
X132155885Y-72953457D01*
X132106997Y-73026626D01*
X132106996Y-73026627D01*
X132079223Y-73068190D01*
X132079223Y-73068191D01*
X132026420Y-73195670D01*
X132026420Y-73195672D01*
X131999500Y-73331004D01*
X131999500Y-79425332D01*
X131980593Y-79483523D01*
X131970504Y-79495336D01*
X131086858Y-80378981D01*
X131032341Y-80406758D01*
X130971909Y-80397187D01*
X130928644Y-80353922D01*
X130926801Y-80350104D01*
X130882883Y-80253940D01*
X130882882Y-80253937D01*
X130849679Y-80215618D01*
X130825863Y-80159259D01*
X130825500Y-80150789D01*
X130825500Y-77849211D01*
X130844407Y-77791020D01*
X130849680Y-77784380D01*
X130882882Y-77746063D01*
X130936697Y-77628226D01*
X130955133Y-77500000D01*
X130948510Y-77453938D01*
X130936697Y-77371774D01*
X130920559Y-77336438D01*
X130882882Y-77253937D01*
X130798049Y-77156033D01*
X130798048Y-77156032D01*
X130798047Y-77156031D01*
X130689073Y-77085998D01*
X130689070Y-77085996D01*
X130689069Y-77085996D01*
X130689066Y-77085995D01*
X130564774Y-77049500D01*
X130564772Y-77049500D01*
X130435228Y-77049500D01*
X130435225Y-77049500D01*
X130310933Y-77085995D01*
X130310926Y-77085998D01*
X130201952Y-77156031D01*
X130117117Y-77253938D01*
X130063302Y-77371774D01*
X130044867Y-77499997D01*
X130044867Y-77500002D01*
X130063302Y-77628225D01*
X130085469Y-77676763D01*
X130117118Y-77746063D01*
X130150320Y-77784380D01*
X130174137Y-77840740D01*
X130174500Y-77849211D01*
X130174500Y-80150789D01*
X130155593Y-80208980D01*
X130150320Y-80215619D01*
X130117118Y-80253936D01*
X130117116Y-80253940D01*
X130063302Y-80371774D01*
X130044867Y-80499997D01*
X130044867Y-80500002D01*
X130063302Y-80628225D01*
X130109791Y-80730019D01*
X130117118Y-80746063D01*
X130196351Y-80837504D01*
X130201952Y-80843968D01*
X130209085Y-80848552D01*
X130310931Y-80914004D01*
X130435228Y-80950500D01*
X130435230Y-80950500D01*
X130564770Y-80950500D01*
X130564772Y-80950500D01*
X130689069Y-80914004D01*
X130696977Y-80908921D01*
X130756151Y-80893367D01*
X130813168Y-80915566D01*
X130846247Y-80967038D01*
X130849500Y-80992206D01*
X130849500Y-83750500D01*
X130830593Y-83808691D01*
X130781093Y-83844655D01*
X130750500Y-83849500D01*
X126081004Y-83849500D01*
X125945672Y-83876420D01*
X125945670Y-83876420D01*
X125818191Y-83929223D01*
X125703460Y-84005883D01*
X124838839Y-84870504D01*
X124784322Y-84898281D01*
X124768835Y-84899500D01*
X122231164Y-84899500D01*
X122172973Y-84880593D01*
X122161166Y-84870509D01*
X122146543Y-84855886D01*
X122031811Y-84779225D01*
X122031810Y-84779224D01*
X122031808Y-84779223D01*
X121904328Y-84726420D01*
X121768996Y-84699500D01*
X121768994Y-84699500D01*
X121631006Y-84699500D01*
X121631003Y-84699500D01*
X121495672Y-84726420D01*
X121495670Y-84726420D01*
X121368191Y-84779223D01*
X121253460Y-84855883D01*
X121155883Y-84953460D01*
X121079223Y-85068191D01*
X121026420Y-85195670D01*
X121026420Y-85195672D01*
X120999500Y-85331003D01*
X102500500Y-85331003D01*
X102500500Y-81499997D01*
X106544867Y-81499997D01*
X106544867Y-81500002D01*
X106563302Y-81628225D01*
X106617117Y-81746061D01*
X106617118Y-81746063D01*
X106680670Y-81819407D01*
X106701952Y-81843968D01*
X106810926Y-81914001D01*
X106810931Y-81914004D01*
X106935228Y-81950500D01*
X106935230Y-81950500D01*
X107064770Y-81950500D01*
X107064772Y-81950500D01*
X107189069Y-81914004D01*
X107298049Y-81843967D01*
X107382882Y-81746063D01*
X107436697Y-81628226D01*
X107455133Y-81500000D01*
X107455133Y-81499997D01*
X107455508Y-81497389D01*
X107482503Y-81442481D01*
X107483497Y-81441473D01*
X108145476Y-80779496D01*
X108199992Y-80751719D01*
X108215479Y-80750500D01*
X108689563Y-80750500D01*
X108689563Y-80750499D01*
X108765989Y-80730021D01*
X108834511Y-80690460D01*
X108890460Y-80634511D01*
X110940460Y-78584511D01*
X110950110Y-78567796D01*
X110980021Y-78515989D01*
X111000500Y-78439562D01*
X111000500Y-77926832D01*
X111019407Y-77868641D01*
X111068907Y-77832677D01*
X111130093Y-77832677D01*
X111179593Y-77868641D01*
X111189553Y-77885705D01*
X111217118Y-77946063D01*
X111275320Y-78013232D01*
X111299137Y-78069592D01*
X111299500Y-78078063D01*
X111299500Y-78682339D01*
X111280593Y-78740530D01*
X111270504Y-78752343D01*
X108115489Y-81907358D01*
X108115488Y-81907357D01*
X108059539Y-81963307D01*
X108019980Y-82031825D01*
X108019978Y-82031829D01*
X107999500Y-82108253D01*
X107999500Y-82221937D01*
X107980593Y-82280128D01*
X107975320Y-82286767D01*
X107917118Y-82353936D01*
X107917116Y-82353940D01*
X107863302Y-82471774D01*
X107844867Y-82599997D01*
X107844867Y-82600002D01*
X107863302Y-82728225D01*
X107883191Y-82771774D01*
X107917118Y-82846063D01*
X107963854Y-82900000D01*
X108001952Y-82943968D01*
X108110926Y-83014001D01*
X108110931Y-83014004D01*
X108235228Y-83050500D01*
X108235230Y-83050500D01*
X108364770Y-83050500D01*
X108364772Y-83050500D01*
X108489069Y-83014004D01*
X108598049Y-82943967D01*
X108636149Y-82899997D01*
X108944867Y-82899997D01*
X108944867Y-82900002D01*
X108963302Y-83028225D01*
X108976002Y-83056033D01*
X109017118Y-83146063D01*
X109023941Y-83153937D01*
X109101952Y-83243968D01*
X109210926Y-83314001D01*
X109210931Y-83314004D01*
X109335228Y-83350500D01*
X109335230Y-83350500D01*
X109464770Y-83350500D01*
X109464772Y-83350500D01*
X109589069Y-83314004D01*
X109698049Y-83243967D01*
X109782882Y-83146063D01*
X109836697Y-83028226D01*
X109848016Y-82949500D01*
X109855133Y-82900002D01*
X109855133Y-82899997D01*
X109836697Y-82771774D01*
X109816809Y-82728226D01*
X109782882Y-82653937D01*
X109744892Y-82610093D01*
X109721076Y-82553736D01*
X109734935Y-82494141D01*
X109749705Y-82475265D01*
X112995475Y-79229496D01*
X113049992Y-79201719D01*
X113065479Y-79200500D01*
X113219075Y-79200500D01*
X113277266Y-79219407D01*
X113293895Y-79234670D01*
X113301950Y-79243966D01*
X113301950Y-79243967D01*
X113369539Y-79287403D01*
X113410931Y-79314004D01*
X113410932Y-79314004D01*
X113413510Y-79315661D01*
X113452241Y-79363027D01*
X113455735Y-79424112D01*
X113455614Y-79424566D01*
X113451729Y-79439066D01*
X113446157Y-79454567D01*
X113438300Y-79471771D01*
X113438300Y-79471772D01*
X113433736Y-79503515D01*
X113431372Y-79515041D01*
X113424501Y-79540687D01*
X113424501Y-79560676D01*
X113423493Y-79574765D01*
X113419865Y-79599998D01*
X113419865Y-79600001D01*
X113423493Y-79625232D01*
X113424501Y-79639322D01*
X113424501Y-79659312D01*
X113431372Y-79684956D01*
X113433737Y-79696487D01*
X113438299Y-79728221D01*
X113438301Y-79728227D01*
X113446156Y-79745428D01*
X113451727Y-79760924D01*
X113455200Y-79773885D01*
X113471755Y-79802560D01*
X113476070Y-79810930D01*
X113492115Y-79846062D01*
X113492116Y-79846064D01*
X113500179Y-79855369D01*
X113511095Y-79870698D01*
X113514509Y-79876611D01*
X113514512Y-79876615D01*
X113542550Y-79904654D01*
X113547364Y-79909825D01*
X113576947Y-79943965D01*
X113576951Y-79943969D01*
X113581748Y-79947052D01*
X113598227Y-79960330D01*
X114898386Y-81260490D01*
X114991935Y-81314499D01*
X114991952Y-81314518D01*
X114991956Y-81314512D01*
X114992413Y-81314776D01*
X115033343Y-81360255D01*
X115033739Y-81364031D01*
X115041435Y-81400235D01*
X115041435Y-81400236D01*
X115037535Y-81400236D01*
X115039724Y-81421107D01*
X115009118Y-81474088D01*
X114953216Y-81498960D01*
X114942892Y-81499500D01*
X114040845Y-81499500D01*
X113982654Y-81480593D01*
X113946690Y-81431093D01*
X113942853Y-81414588D01*
X113936697Y-81371775D01*
X113933161Y-81364031D01*
X113882882Y-81253937D01*
X113798049Y-81156033D01*
X113798048Y-81156032D01*
X113798047Y-81156031D01*
X113689073Y-81085998D01*
X113689070Y-81085996D01*
X113689069Y-81085996D01*
X113689066Y-81085995D01*
X113564774Y-81049500D01*
X113564772Y-81049500D01*
X113435228Y-81049500D01*
X113435225Y-81049500D01*
X113310933Y-81085995D01*
X113310926Y-81085998D01*
X113201952Y-81156031D01*
X113117117Y-81253938D01*
X113063302Y-81371774D01*
X113044491Y-81502609D01*
X113017495Y-81557517D01*
X113016503Y-81558524D01*
X111504525Y-83070504D01*
X111450008Y-83098281D01*
X111434521Y-83099500D01*
X111080925Y-83099500D01*
X111022734Y-83080593D01*
X111006105Y-83065330D01*
X110998049Y-83056033D01*
X110998048Y-83056032D01*
X110889073Y-82985998D01*
X110889070Y-82985996D01*
X110889069Y-82985996D01*
X110889066Y-82985995D01*
X110764774Y-82949500D01*
X110764772Y-82949500D01*
X110635228Y-82949500D01*
X110635225Y-82949500D01*
X110510933Y-82985995D01*
X110510926Y-82985998D01*
X110401952Y-83056031D01*
X110317117Y-83153938D01*
X110263302Y-83271774D01*
X110244867Y-83399997D01*
X110244867Y-83400002D01*
X110263302Y-83528225D01*
X110314559Y-83640460D01*
X110317118Y-83646063D01*
X110366517Y-83703073D01*
X110401952Y-83743968D01*
X110510926Y-83814001D01*
X110510931Y-83814004D01*
X110635228Y-83850500D01*
X110635230Y-83850500D01*
X110764770Y-83850500D01*
X110764772Y-83850500D01*
X110889069Y-83814004D01*
X110998049Y-83743967D01*
X111006105Y-83734670D01*
X111058500Y-83703073D01*
X111080925Y-83700500D01*
X111639563Y-83700500D01*
X111639563Y-83700499D01*
X111715989Y-83680021D01*
X111784511Y-83640460D01*
X111840460Y-83584511D01*
X113429998Y-81994972D01*
X113484513Y-81967197D01*
X113544945Y-81976768D01*
X113570000Y-81994971D01*
X113615489Y-82040460D01*
X113615491Y-82040461D01*
X113684007Y-82080019D01*
X113684011Y-82080021D01*
X113760435Y-82100499D01*
X113760437Y-82100500D01*
X113760438Y-82100500D01*
X125039563Y-82100500D01*
X125039563Y-82100499D01*
X125115989Y-82080021D01*
X125184511Y-82040460D01*
X125240460Y-81984511D01*
X125395475Y-81829496D01*
X125449992Y-81801719D01*
X125465479Y-81800500D01*
X126219075Y-81800500D01*
X126277266Y-81819407D01*
X126293895Y-81834670D01*
X126301950Y-81843966D01*
X126301951Y-81843967D01*
X126400589Y-81907358D01*
X126410931Y-81914004D01*
X126535228Y-81950500D01*
X126535230Y-81950500D01*
X126664770Y-81950500D01*
X126664772Y-81950500D01*
X126789069Y-81914004D01*
X126898049Y-81843967D01*
X126982882Y-81746063D01*
X127036697Y-81628226D01*
X127055133Y-81500000D01*
X127055061Y-81499500D01*
X127036697Y-81371774D01*
X127013238Y-81320407D01*
X126982882Y-81253937D01*
X126898049Y-81156033D01*
X126898048Y-81156032D01*
X126898047Y-81156031D01*
X126789073Y-81085998D01*
X126789070Y-81085996D01*
X126789069Y-81085996D01*
X126789066Y-81085995D01*
X126664774Y-81049500D01*
X126664772Y-81049500D01*
X126535228Y-81049500D01*
X126535225Y-81049500D01*
X126410933Y-81085995D01*
X126410926Y-81085998D01*
X126301951Y-81156032D01*
X126301950Y-81156033D01*
X126293895Y-81165330D01*
X126241500Y-81196927D01*
X126219075Y-81199500D01*
X125260435Y-81199500D01*
X125184012Y-81219978D01*
X125125194Y-81253937D01*
X125125193Y-81253937D01*
X125115491Y-81259538D01*
X125115489Y-81259539D01*
X124904524Y-81470504D01*
X124850008Y-81498281D01*
X124834521Y-81499500D01*
X118821353Y-81499500D01*
X118763162Y-81480593D01*
X118727198Y-81431093D01*
X118727198Y-81369907D01*
X118763162Y-81320407D01*
X118771840Y-81314770D01*
X118865859Y-81260489D01*
X118967207Y-81159139D01*
X118983676Y-81145869D01*
X118988469Y-81142790D01*
X119018032Y-81108669D01*
X119022836Y-81103510D01*
X119050911Y-81075437D01*
X119060491Y-81065857D01*
X119066463Y-81055512D01*
X119069686Y-81050990D01*
X119069469Y-81050851D01*
X119073298Y-81044892D01*
X119073299Y-81044889D01*
X119073302Y-81044886D01*
X119074002Y-81043352D01*
X119078315Y-81034981D01*
X119119801Y-80963130D01*
X119123186Y-80950499D01*
X119129470Y-80927048D01*
X119138494Y-80893367D01*
X119150502Y-80848552D01*
X119150502Y-79450741D01*
X119119801Y-79336164D01*
X119119801Y-79336163D01*
X119119801Y-79336162D01*
X119060494Y-79233440D01*
X119060493Y-79233439D01*
X119060492Y-79233438D01*
X119060491Y-79233436D01*
X119029497Y-79202442D01*
X119001721Y-79147925D01*
X119000502Y-79132439D01*
X119000502Y-78539287D01*
X119001510Y-78525196D01*
X119005133Y-78500000D01*
X119005133Y-78499998D01*
X119001510Y-78474800D01*
X119000502Y-78460711D01*
X119000502Y-78440693D01*
X119000502Y-78440691D01*
X118993615Y-78414991D01*
X118991256Y-78403488D01*
X118986697Y-78371774D01*
X118978848Y-78354589D01*
X118973277Y-78339089D01*
X118969802Y-78326118D01*
X118969801Y-78326114D01*
X118953220Y-78297395D01*
X118948912Y-78289038D01*
X118932882Y-78253937D01*
X118924830Y-78244645D01*
X118913914Y-78229317D01*
X118910491Y-78223387D01*
X118910486Y-78223382D01*
X118882426Y-78195321D01*
X118877612Y-78190150D01*
X118848050Y-78156034D01*
X118848051Y-78156034D01*
X118845864Y-78154628D01*
X118843256Y-78152953D01*
X118826782Y-78139678D01*
X118826615Y-78139511D01*
X118826612Y-78139509D01*
X118826610Y-78139507D01*
X118786580Y-78116396D01*
X118782570Y-78113952D01*
X118762999Y-78101375D01*
X118739070Y-78085996D01*
X118734951Y-78084115D01*
X118730138Y-78082055D01*
X118729879Y-78082682D01*
X118723890Y-78080201D01*
X118672905Y-78066540D01*
X118670637Y-78065903D01*
X118614774Y-78049500D01*
X118614772Y-78049500D01*
X118485228Y-78049500D01*
X118485226Y-78049500D01*
X118485220Y-78049501D01*
X118429300Y-78065920D01*
X118427036Y-78066556D01*
X118376114Y-78080201D01*
X118370126Y-78082682D01*
X118369888Y-78082107D01*
X118364121Y-78084539D01*
X118360927Y-78085998D01*
X118317405Y-78113967D01*
X118313385Y-78116417D01*
X118273390Y-78139508D01*
X118273384Y-78139513D01*
X118273220Y-78139678D01*
X118256766Y-78152937D01*
X118251954Y-78156030D01*
X118251950Y-78156033D01*
X118222354Y-78190188D01*
X118217542Y-78195356D01*
X118189513Y-78223385D01*
X118186099Y-78229300D01*
X118175185Y-78244626D01*
X118167117Y-78253937D01*
X118167116Y-78253938D01*
X118151069Y-78289074D01*
X118146755Y-78297442D01*
X118130206Y-78326106D01*
X118130200Y-78326121D01*
X118126728Y-78339077D01*
X118121159Y-78354567D01*
X118113304Y-78371767D01*
X118113302Y-78371776D01*
X118108740Y-78403504D01*
X118106376Y-78415033D01*
X118099502Y-78440691D01*
X118099502Y-78460683D01*
X118098494Y-78474772D01*
X118094867Y-78499998D01*
X118094867Y-78500000D01*
X118098494Y-78525224D01*
X118099502Y-78539315D01*
X118099502Y-79419361D01*
X118107910Y-79450739D01*
X118107910Y-79450741D01*
X118107911Y-79450741D01*
X118130204Y-79533941D01*
X118189509Y-79636659D01*
X118189511Y-79636661D01*
X118189513Y-79636664D01*
X118220507Y-79667658D01*
X118248283Y-79722173D01*
X118249502Y-79737660D01*
X118249502Y-80350500D01*
X118230595Y-80408691D01*
X118181095Y-80444655D01*
X118150502Y-80449500D01*
X115402612Y-80449500D01*
X115344421Y-80430593D01*
X115332608Y-80420504D01*
X114207411Y-79295308D01*
X114202595Y-79290134D01*
X114173048Y-79256034D01*
X114173047Y-79256033D01*
X114168255Y-79252953D01*
X114151779Y-79239676D01*
X114151613Y-79239510D01*
X114111583Y-79216398D01*
X114107562Y-79213947D01*
X114059372Y-79182978D01*
X114020640Y-79135612D01*
X114017146Y-79074527D01*
X114022841Y-79058566D01*
X114036697Y-79028226D01*
X114055133Y-78900000D01*
X114053318Y-78887378D01*
X114036697Y-78771774D01*
X113995853Y-78682339D01*
X113982882Y-78653937D01*
X113898049Y-78556033D01*
X113898048Y-78556032D01*
X113898047Y-78556031D01*
X113789073Y-78485998D01*
X113789070Y-78485996D01*
X113789069Y-78485996D01*
X113789066Y-78485995D01*
X113664774Y-78449500D01*
X113664772Y-78449500D01*
X113535228Y-78449500D01*
X113535225Y-78449500D01*
X113410933Y-78485995D01*
X113410926Y-78485998D01*
X113301951Y-78556032D01*
X113301950Y-78556033D01*
X113293895Y-78565330D01*
X113241500Y-78596927D01*
X113219075Y-78599500D01*
X112860435Y-78599500D01*
X112784012Y-78619978D01*
X112769727Y-78628226D01*
X112769726Y-78628225D01*
X112715490Y-78659539D01*
X109215489Y-82159540D01*
X109215488Y-82159539D01*
X109159539Y-82215489D01*
X109119980Y-82284007D01*
X109119978Y-82284011D01*
X109099500Y-82360435D01*
X109099500Y-82521937D01*
X109080593Y-82580128D01*
X109075320Y-82586767D01*
X109017118Y-82653936D01*
X109017116Y-82653940D01*
X108963302Y-82771774D01*
X108944867Y-82899997D01*
X108636149Y-82899997D01*
X108682882Y-82846063D01*
X108736697Y-82728226D01*
X108755133Y-82600000D01*
X108753230Y-82586767D01*
X108736697Y-82471774D01*
X108715920Y-82426279D01*
X108682882Y-82353937D01*
X108680637Y-82351347D01*
X108667091Y-82335712D01*
X108643275Y-82279353D01*
X108657135Y-82219758D01*
X108671904Y-82200883D01*
X111840460Y-79032329D01*
X111880022Y-78963806D01*
X111900500Y-78887380D01*
X111900500Y-78808256D01*
X111900500Y-78078063D01*
X111919407Y-78019872D01*
X111924680Y-78013232D01*
X111982882Y-77946063D01*
X112036697Y-77828226D01*
X112048510Y-77746063D01*
X112055133Y-77700002D01*
X112055133Y-77699997D01*
X112036697Y-77571774D01*
X112003919Y-77500002D01*
X111982882Y-77453937D01*
X111898049Y-77356033D01*
X111898048Y-77356032D01*
X111898047Y-77356031D01*
X111867559Y-77336438D01*
X111828828Y-77289072D01*
X111825334Y-77227987D01*
X111846259Y-77188327D01*
X111882882Y-77146063D01*
X111936697Y-77028226D01*
X111955133Y-76900000D01*
X111936697Y-76771774D01*
X111882882Y-76653937D01*
X111798049Y-76556033D01*
X111798048Y-76556032D01*
X111798047Y-76556031D01*
X111689073Y-76485998D01*
X111689070Y-76485996D01*
X111689069Y-76485996D01*
X111689066Y-76485995D01*
X111564774Y-76449500D01*
X111564772Y-76449500D01*
X111435228Y-76449500D01*
X111435225Y-76449500D01*
X111310933Y-76485995D01*
X111310926Y-76485998D01*
X111201952Y-76556031D01*
X111117117Y-76653938D01*
X111063302Y-76771774D01*
X111044491Y-76902609D01*
X111017495Y-76957517D01*
X111016503Y-76958523D01*
X110515489Y-77459539D01*
X110459539Y-77515489D01*
X110419980Y-77584007D01*
X110419978Y-77584011D01*
X110399500Y-77660435D01*
X110399500Y-78234521D01*
X110380593Y-78292712D01*
X110370504Y-78304525D01*
X108554525Y-80120504D01*
X108500008Y-80148281D01*
X108484521Y-80149500D01*
X108010435Y-80149500D01*
X107934012Y-80169978D01*
X107903295Y-80187713D01*
X107871630Y-80205995D01*
X107871628Y-80205996D01*
X107871627Y-80205995D01*
X107865493Y-80209537D01*
X107865489Y-80209540D01*
X107054525Y-81020504D01*
X107000008Y-81048281D01*
X106984521Y-81049500D01*
X106935225Y-81049500D01*
X106810933Y-81085995D01*
X106810926Y-81085998D01*
X106701952Y-81156031D01*
X106617117Y-81253938D01*
X106563302Y-81371774D01*
X106544867Y-81499997D01*
X102500500Y-81499997D01*
X102500500Y-73099997D01*
X109544867Y-73099997D01*
X109544867Y-73100002D01*
X109563302Y-73228225D01*
X109610241Y-73331004D01*
X109617118Y-73346063D01*
X109701951Y-73443967D01*
X109701952Y-73443968D01*
X109795876Y-73504329D01*
X109810931Y-73514004D01*
X109935228Y-73550500D01*
X109935230Y-73550500D01*
X110064770Y-73550500D01*
X110064772Y-73550500D01*
X110189069Y-73514004D01*
X110298049Y-73443967D01*
X110382882Y-73346063D01*
X110436697Y-73228226D01*
X110455133Y-73100000D01*
X110454510Y-73095668D01*
X110436697Y-72971774D01*
X110382882Y-72853938D01*
X110382882Y-72853937D01*
X110298049Y-72756033D01*
X110298048Y-72756032D01*
X110298047Y-72756031D01*
X110189073Y-72685998D01*
X110189070Y-72685996D01*
X110189069Y-72685996D01*
X110189066Y-72685995D01*
X110064774Y-72649500D01*
X110064772Y-72649500D01*
X109935228Y-72649500D01*
X109935225Y-72649500D01*
X109810933Y-72685995D01*
X109810926Y-72685998D01*
X109701952Y-72756031D01*
X109617117Y-72853938D01*
X109563302Y-72971774D01*
X109544867Y-73099997D01*
X102500500Y-73099997D01*
X102500500Y-71499997D01*
X115344867Y-71499997D01*
X115344867Y-71500002D01*
X115363302Y-71628225D01*
X115417117Y-71746061D01*
X115417118Y-71746063D01*
X115466517Y-71803073D01*
X115501952Y-71843968D01*
X115610926Y-71914001D01*
X115610931Y-71914004D01*
X115735228Y-71950500D01*
X115735230Y-71950500D01*
X115864770Y-71950500D01*
X115864772Y-71950500D01*
X115989069Y-71914004D01*
X116098049Y-71843967D01*
X116106105Y-71834670D01*
X116158500Y-71803073D01*
X116180925Y-71800500D01*
X117019075Y-71800500D01*
X117077266Y-71819407D01*
X117093895Y-71834670D01*
X117101951Y-71843967D01*
X117210931Y-71914004D01*
X117335228Y-71950500D01*
X117335230Y-71950500D01*
X117464770Y-71950500D01*
X117464772Y-71950500D01*
X117589069Y-71914004D01*
X117698049Y-71843967D01*
X117782882Y-71746063D01*
X117836697Y-71628226D01*
X117855133Y-71500000D01*
X117836697Y-71371774D01*
X117782882Y-71253937D01*
X117698049Y-71156033D01*
X117698048Y-71156032D01*
X117698047Y-71156031D01*
X117589073Y-71085998D01*
X117589070Y-71085996D01*
X117589069Y-71085996D01*
X117589066Y-71085995D01*
X117464774Y-71049500D01*
X117464772Y-71049500D01*
X117335228Y-71049500D01*
X117335225Y-71049500D01*
X117210933Y-71085995D01*
X117210926Y-71085998D01*
X117101951Y-71156032D01*
X117101950Y-71156033D01*
X117093895Y-71165330D01*
X117041500Y-71196927D01*
X117019075Y-71199500D01*
X116180925Y-71199500D01*
X116122734Y-71180593D01*
X116106105Y-71165330D01*
X116098049Y-71156033D01*
X116098048Y-71156032D01*
X115989073Y-71085998D01*
X115989070Y-71085996D01*
X115989069Y-71085996D01*
X115989066Y-71085995D01*
X115864774Y-71049500D01*
X115864772Y-71049500D01*
X115735228Y-71049500D01*
X115735225Y-71049500D01*
X115610933Y-71085995D01*
X115610926Y-71085998D01*
X115501952Y-71156031D01*
X115417117Y-71253938D01*
X115363302Y-71371774D01*
X115344867Y-71499997D01*
X102500500Y-71499997D01*
X102500500Y-69799997D01*
X129944867Y-69799997D01*
X129944867Y-69800002D01*
X129963302Y-69928225D01*
X130002477Y-70014004D01*
X130017118Y-70046063D01*
X130066517Y-70103073D01*
X130101952Y-70143968D01*
X130210926Y-70214001D01*
X130210931Y-70214004D01*
X130335228Y-70250500D01*
X130335230Y-70250500D01*
X130464770Y-70250500D01*
X130464772Y-70250500D01*
X130589069Y-70214004D01*
X130698049Y-70143967D01*
X130706105Y-70134670D01*
X130758500Y-70103073D01*
X130780925Y-70100500D01*
X132839563Y-70100500D01*
X132839563Y-70100499D01*
X132915989Y-70080021D01*
X132926404Y-70074007D01*
X132944150Y-70063763D01*
X132993649Y-70050500D01*
X133064770Y-70050500D01*
X133064772Y-70050500D01*
X133189069Y-70014004D01*
X133298049Y-69943967D01*
X133382882Y-69846063D01*
X133436697Y-69728226D01*
X133455133Y-69600000D01*
X133448510Y-69553938D01*
X133436697Y-69471774D01*
X133397523Y-69385996D01*
X133382882Y-69353937D01*
X133298049Y-69256033D01*
X133298048Y-69256032D01*
X133298047Y-69256031D01*
X133189073Y-69185998D01*
X133189070Y-69185996D01*
X133189069Y-69185996D01*
X133189066Y-69185995D01*
X133064774Y-69149500D01*
X133064772Y-69149500D01*
X132935228Y-69149500D01*
X132935225Y-69149500D01*
X132810933Y-69185995D01*
X132810926Y-69185998D01*
X132701952Y-69256031D01*
X132617116Y-69353939D01*
X132577071Y-69441626D01*
X132535699Y-69486704D01*
X132487018Y-69499500D01*
X130780925Y-69499500D01*
X130722734Y-69480593D01*
X130706105Y-69465330D01*
X130698049Y-69456033D01*
X130698048Y-69456032D01*
X130589073Y-69385998D01*
X130589070Y-69385996D01*
X130589069Y-69385996D01*
X130589066Y-69385995D01*
X130464774Y-69349500D01*
X130464772Y-69349500D01*
X130335228Y-69349500D01*
X130335225Y-69349500D01*
X130210933Y-69385995D01*
X130210926Y-69385998D01*
X130101952Y-69456031D01*
X130017117Y-69553938D01*
X129963302Y-69671774D01*
X129944867Y-69799997D01*
X102500500Y-69799997D01*
X102500500Y-68524997D01*
X114744867Y-68524997D01*
X114744867Y-68525002D01*
X114763302Y-68653225D01*
X114784664Y-68700000D01*
X114817118Y-68771063D01*
X114901951Y-68868967D01*
X114901952Y-68868968D01*
X115010926Y-68939001D01*
X115010931Y-68939004D01*
X115135228Y-68975500D01*
X115135230Y-68975500D01*
X115264770Y-68975500D01*
X115264772Y-68975500D01*
X115389069Y-68939004D01*
X115498049Y-68868967D01*
X115582882Y-68771063D01*
X115615336Y-68699997D01*
X123744867Y-68699997D01*
X123744867Y-68700002D01*
X123763302Y-68828225D01*
X123781909Y-68868967D01*
X123817118Y-68946063D01*
X123842625Y-68975500D01*
X123901952Y-69043968D01*
X124010926Y-69114001D01*
X124010931Y-69114004D01*
X124135228Y-69150500D01*
X124135230Y-69150500D01*
X124264770Y-69150500D01*
X124264772Y-69150500D01*
X124389069Y-69114004D01*
X124498049Y-69043967D01*
X124582882Y-68946063D01*
X124636697Y-68828226D01*
X124655133Y-68700000D01*
X124636697Y-68571774D01*
X124582882Y-68453937D01*
X124498049Y-68356033D01*
X124498048Y-68356032D01*
X124498047Y-68356031D01*
X124389073Y-68285998D01*
X124389070Y-68285996D01*
X124389069Y-68285996D01*
X124389066Y-68285995D01*
X124264774Y-68249500D01*
X124264772Y-68249500D01*
X124135228Y-68249500D01*
X124135225Y-68249500D01*
X124010933Y-68285995D01*
X124010926Y-68285998D01*
X123901952Y-68356031D01*
X123817117Y-68453938D01*
X123763302Y-68571774D01*
X123744867Y-68699997D01*
X115615336Y-68699997D01*
X115628042Y-68672175D01*
X115648087Y-68643304D01*
X117406714Y-66884678D01*
X117461231Y-66856901D01*
X117472447Y-66856018D01*
X117474999Y-66855681D01*
X117475000Y-66855682D01*
X117631762Y-66835044D01*
X117777841Y-66774536D01*
X117903282Y-66678282D01*
X117999536Y-66552841D01*
X118060044Y-66406762D01*
X118080682Y-66250000D01*
X118080163Y-66246061D01*
X118060044Y-66093241D01*
X118060044Y-66093238D01*
X118021424Y-66000002D01*
X117999537Y-65947161D01*
X117999537Y-65947160D01*
X117903286Y-65821723D01*
X117903285Y-65821722D01*
X117903282Y-65821718D01*
X117903277Y-65821714D01*
X117903276Y-65821713D01*
X117777838Y-65725462D01*
X117631766Y-65664957D01*
X117631758Y-65664955D01*
X117475001Y-65644318D01*
X117474999Y-65644318D01*
X117318241Y-65664955D01*
X117318233Y-65664957D01*
X117172161Y-65725462D01*
X117172160Y-65725462D01*
X117046723Y-65821713D01*
X117046713Y-65821723D01*
X116950462Y-65947160D01*
X116950462Y-65947161D01*
X116889957Y-66093233D01*
X116889955Y-66093241D01*
X116868471Y-66256433D01*
X116866742Y-66256205D01*
X116850411Y-66306471D01*
X116840322Y-66318284D01*
X115080723Y-68077882D01*
X115038613Y-68102867D01*
X115010935Y-68110994D01*
X115010926Y-68110998D01*
X114901952Y-68181031D01*
X114817117Y-68278938D01*
X114763302Y-68396774D01*
X114744867Y-68524997D01*
X102500500Y-68524997D01*
X102500500Y-65999997D01*
X114644867Y-65999997D01*
X114644867Y-66000002D01*
X114663302Y-66128225D01*
X114717117Y-66246061D01*
X114717118Y-66246063D01*
X114769461Y-66306471D01*
X114801952Y-66343968D01*
X114899656Y-66406758D01*
X114910931Y-66414004D01*
X115035228Y-66450500D01*
X115035230Y-66450500D01*
X115164770Y-66450500D01*
X115164772Y-66450500D01*
X115289069Y-66414004D01*
X115398049Y-66343967D01*
X115482882Y-66246063D01*
X115536697Y-66128226D01*
X115555133Y-66000000D01*
X115536697Y-65871774D01*
X115482882Y-65753937D01*
X115398049Y-65656033D01*
X115398048Y-65656032D01*
X115398047Y-65656031D01*
X115289073Y-65585998D01*
X115289070Y-65585996D01*
X115289069Y-65585996D01*
X115289066Y-65585995D01*
X115164774Y-65549500D01*
X115164772Y-65549500D01*
X115035228Y-65549500D01*
X115035225Y-65549500D01*
X114910933Y-65585995D01*
X114910926Y-65585998D01*
X114801952Y-65656031D01*
X114717117Y-65753938D01*
X114663302Y-65871774D01*
X114644867Y-65999997D01*
X102500500Y-65999997D01*
X102500500Y-60750000D01*
X121900000Y-60750000D01*
X121919698Y-61000293D01*
X121978310Y-61244428D01*
X122074388Y-61476382D01*
X122074394Y-61476394D01*
X122205569Y-61690450D01*
X122205570Y-61690452D01*
X122205571Y-61690454D01*
X122205573Y-61690456D01*
X122368629Y-61881371D01*
X122559544Y-62044427D01*
X122559546Y-62044428D01*
X122559547Y-62044429D01*
X122559549Y-62044430D01*
X122773605Y-62175605D01*
X122773617Y-62175611D01*
X123005571Y-62271689D01*
X123005573Y-62271690D01*
X123249705Y-62330301D01*
X123500000Y-62350000D01*
X123750295Y-62330301D01*
X123994427Y-62271690D01*
X124226385Y-62175610D01*
X124226389Y-62175607D01*
X124226394Y-62175605D01*
X124318912Y-62118908D01*
X124440456Y-62044427D01*
X124631371Y-61881371D01*
X124794427Y-61690456D01*
X124868908Y-61568912D01*
X124925605Y-61476394D01*
X124925607Y-61476389D01*
X124925610Y-61476385D01*
X125021690Y-61244427D01*
X125080301Y-61000295D01*
X125100000Y-60750000D01*
X125080301Y-60499705D01*
X125021690Y-60255573D01*
X124925610Y-60023615D01*
X124925605Y-60023605D01*
X124794430Y-59809549D01*
X124794429Y-59809547D01*
X124794428Y-59809546D01*
X124794427Y-59809544D01*
X124631371Y-59618629D01*
X124631364Y-59618623D01*
X124631361Y-59618620D01*
X124440452Y-59455570D01*
X124440450Y-59455569D01*
X124226394Y-59324394D01*
X124226382Y-59324388D01*
X123994428Y-59228310D01*
X123994429Y-59228310D01*
X123750293Y-59169698D01*
X123500000Y-59150000D01*
X123249706Y-59169698D01*
X123005571Y-59228310D01*
X122773617Y-59324388D01*
X122773605Y-59324394D01*
X122559549Y-59455569D01*
X122559547Y-59455570D01*
X122368638Y-59618620D01*
X122368620Y-59618638D01*
X122205570Y-59809547D01*
X122205569Y-59809549D01*
X122074394Y-60023605D01*
X122074388Y-60023617D01*
X121978310Y-60255571D01*
X121919698Y-60499706D01*
X121900000Y-60750000D01*
X102500500Y-60750000D01*
X102500500Y-56963739D01*
X102519407Y-56905548D01*
X102568907Y-56869584D01*
X102630093Y-56869584D01*
X102679591Y-56905547D01*
X102779207Y-57042656D01*
X102957344Y-57220793D01*
X103161155Y-57368870D01*
X103385621Y-57483241D01*
X103625215Y-57561090D01*
X103625216Y-57561090D01*
X103625219Y-57561091D01*
X103874035Y-57600500D01*
X103874038Y-57600500D01*
X104125965Y-57600500D01*
X104374780Y-57561091D01*
X104374781Y-57561090D01*
X104374785Y-57561090D01*
X104614379Y-57483241D01*
X104838845Y-57368870D01*
X105042656Y-57220793D01*
X105220793Y-57042656D01*
X105368870Y-56838845D01*
X105483241Y-56614379D01*
X105561090Y-56374785D01*
X105600500Y-56125962D01*
X105600500Y-55874038D01*
X105600500Y-55874034D01*
X105561091Y-55625219D01*
X105561090Y-55625215D01*
X105483241Y-55385621D01*
X105368870Y-55161155D01*
X105220793Y-54957344D01*
X105042656Y-54779207D01*
X104905547Y-54679591D01*
X104869584Y-54630093D01*
X104869584Y-54568907D01*
X104905548Y-54519407D01*
X104963739Y-54500500D01*
X142036261Y-54500500D01*
X142094452Y-54519407D01*
G37*
%TD.AperFunction*%
%TD*%
M02*
