%TF.GenerationSoftware,KiCad,Pcbnew,8.0.5*%
%TF.CreationDate,2024-09-27T18:29:33-04:00*%
%TF.ProjectId,oe-commutator-controller,6f652d63-6f6d-46d7-9574-61746f722d63,D*%
%TF.SameCoordinates,Original*%
%TF.FileFunction,Copper,L3,Inr*%
%TF.FilePolarity,Positive*%
%FSLAX46Y46*%
G04 Gerber Fmt 4.6, Leading zero omitted, Abs format (unit mm)*
G04 Created by KiCad (PCBNEW 8.0.5) date 2024-09-27 18:29:33*
%MOMM*%
%LPD*%
G01*
G04 APERTURE LIST*
%TA.AperFunction,ViaPad*%
%ADD10C,0.500000*%
%TD*%
%TA.AperFunction,ViaPad*%
%ADD11C,0.800000*%
%TD*%
%TA.AperFunction,ViaPad*%
%ADD12C,0.900000*%
%TD*%
G04 APERTURE END LIST*
D10*
%TO.N,GND*%
X127466568Y-106232072D03*
X112800000Y-101200000D03*
X115000000Y-123250000D03*
X110800000Y-89100000D03*
X124400000Y-91500000D03*
X142263231Y-86157346D03*
X122200000Y-140600000D03*
X137700000Y-99000000D03*
X109300000Y-88800000D03*
X127700000Y-85500000D03*
X143400000Y-82400000D03*
X127100000Y-109100000D03*
X108000000Y-114000000D03*
X127350000Y-123350000D03*
X137300000Y-67500000D03*
X115900000Y-124750000D03*
X138500000Y-61100000D03*
X107500000Y-108500000D03*
X133900000Y-73700000D03*
X139000000Y-125600000D03*
X118400000Y-125500000D03*
X137400000Y-118600000D03*
X142200000Y-101000000D03*
X114100000Y-93800000D03*
X138200000Y-109600000D03*
X129425000Y-90475000D03*
X131000000Y-142000000D03*
X142700000Y-98300000D03*
X133000000Y-106500000D03*
X140600000Y-78700000D03*
X128600000Y-80600000D03*
X115000000Y-122500000D03*
X116100000Y-77000000D03*
X139300000Y-141400000D03*
X135300000Y-91100000D03*
X135800000Y-64900000D03*
X142000000Y-104100000D03*
X141200000Y-120100000D03*
X142528940Y-88775641D03*
X109000000Y-70500000D03*
X118000000Y-77100000D03*
X133200000Y-96000000D03*
X112500000Y-131600000D03*
X108200000Y-138200000D03*
X132000000Y-144800000D03*
X117800000Y-113300000D03*
X142500000Y-82300000D03*
X120000000Y-86000000D03*
X117500000Y-125500000D03*
X118000000Y-138200000D03*
X139100000Y-65000000D03*
X139700000Y-122500000D03*
X113400000Y-144800000D03*
X116700000Y-125500000D03*
X115000000Y-124000000D03*
X139800000Y-113800000D03*
X115800000Y-143000000D03*
X137200000Y-61100000D03*
X118100000Y-99300000D03*
X134200000Y-59800000D03*
X106000000Y-124500000D03*
X110900000Y-58700000D03*
X108000000Y-113000000D03*
X112000000Y-113000000D03*
X141100000Y-97600000D03*
X118400000Y-124000000D03*
X118500000Y-115500000D03*
X142100000Y-75500000D03*
X123750000Y-82350000D03*
X129100000Y-58700000D03*
X138200000Y-111000000D03*
X106000000Y-123000000D03*
X125400000Y-83300000D03*
X108670000Y-79600000D03*
X108100000Y-71700000D03*
X115900000Y-123250000D03*
X107300000Y-79100000D03*
X122100000Y-131200000D03*
X142000000Y-103200000D03*
X110700000Y-105500000D03*
X115400000Y-87000000D03*
X116700000Y-124750000D03*
X127100000Y-113400000D03*
X111000000Y-114000000D03*
X106000000Y-127000000D03*
X109700000Y-77000000D03*
X130500000Y-100100000D03*
X129900000Y-94700000D03*
X134200000Y-60600000D03*
X124700000Y-126700000D03*
X122700000Y-92500000D03*
X115000000Y-124750000D03*
X124500000Y-130000000D03*
X128400000Y-61200000D03*
X141000000Y-103000000D03*
X134500000Y-101500000D03*
X107000000Y-100600000D03*
X115900000Y-124000000D03*
X134300000Y-105300000D03*
X143000000Y-68400000D03*
X106400000Y-142800000D03*
X118400000Y-109100000D03*
X110250000Y-63900000D03*
X132500000Y-122900000D03*
X105958247Y-83978089D03*
X133400000Y-59800000D03*
X128000000Y-75000000D03*
X125198782Y-115626744D03*
X116693763Y-58550624D03*
X141800000Y-93100000D03*
X118000000Y-97800000D03*
X117958828Y-103918946D03*
X138600000Y-98150000D03*
X107000000Y-113000000D03*
X140400000Y-105000000D03*
X140200000Y-141400000D03*
X140900000Y-77000000D03*
X131550000Y-62000000D03*
X139000000Y-78400000D03*
X110000000Y-113000000D03*
X136800000Y-99000000D03*
X106000000Y-116000000D03*
X135600000Y-60500000D03*
X107100000Y-91600000D03*
X106700000Y-72800000D03*
X128600000Y-142300000D03*
X128300000Y-129800000D03*
X114200000Y-106200000D03*
X143400000Y-72200000D03*
X125000000Y-138800000D03*
X137600000Y-62100000D03*
X106800000Y-80000000D03*
X134200000Y-109100000D03*
X108670000Y-81000000D03*
X111450000Y-74050000D03*
X130400000Y-85700000D03*
X142000000Y-106000000D03*
X124500000Y-131000000D03*
X117500000Y-122500000D03*
X133200000Y-80600000D03*
X126000000Y-90200000D03*
X134300000Y-107900000D03*
X138600000Y-62100000D03*
X110400000Y-132300000D03*
X126100000Y-119400000D03*
X109000000Y-69750000D03*
X117250000Y-63150000D03*
X141800000Y-113000000D03*
X124500000Y-132000000D03*
X118600000Y-117000000D03*
X110600000Y-143200000D03*
X126000000Y-75200000D03*
X109550000Y-103050000D03*
X139600000Y-109800000D03*
X118400000Y-132400000D03*
X113450000Y-69350000D03*
X117500000Y-123250000D03*
X141150000Y-75500000D03*
X106600000Y-121000000D03*
X134500000Y-100500000D03*
X143000000Y-75500000D03*
X118400000Y-122500000D03*
X141000000Y-101000000D03*
X115900000Y-125500000D03*
X110100000Y-108500000D03*
X138600000Y-99000000D03*
X134800000Y-69300000D03*
X116400000Y-132700000D03*
X117700000Y-94300000D03*
X133200000Y-92200000D03*
X120924464Y-120988114D03*
X128000000Y-73000000D03*
X117500000Y-124750000D03*
X106000000Y-123750000D03*
X127750000Y-124500000D03*
X130900000Y-70900000D03*
X106100000Y-67200000D03*
X141600000Y-110200000D03*
X128300000Y-133900000D03*
X140800000Y-68200000D03*
X141600000Y-72200000D03*
X131500000Y-120100000D03*
X121300000Y-63000000D03*
X136800000Y-98150000D03*
X137700000Y-98150000D03*
X142000000Y-97600000D03*
X127021996Y-142211146D03*
X128000000Y-103100000D03*
X136471152Y-123865425D03*
X138000000Y-112600000D03*
X119500000Y-82600000D03*
X126000000Y-73000000D03*
X126700000Y-125500000D03*
X120000000Y-142000000D03*
X138100000Y-145000000D03*
X140000000Y-107000000D03*
X121800000Y-120400000D03*
X107500000Y-105000000D03*
X130400000Y-113900000D03*
X130200000Y-137900000D03*
X114250000Y-69700000D03*
X112750000Y-75300000D03*
X113500000Y-77200000D03*
X120700000Y-100800000D03*
X129500000Y-98000000D03*
X139700000Y-70300000D03*
X119500000Y-121250000D03*
X141000000Y-107000000D03*
X133500000Y-126700000D03*
X112500000Y-121000000D03*
X133100000Y-94800000D03*
X135200000Y-142800000D03*
X106000000Y-115000000D03*
X113400000Y-73300000D03*
X125600000Y-144600000D03*
X106000000Y-114000000D03*
X124394974Y-127673520D03*
X143200000Y-86200000D03*
X134500000Y-102500000D03*
X136300000Y-61000000D03*
X113700000Y-80600000D03*
X110400000Y-129000000D03*
X117200000Y-106100000D03*
X136100000Y-131500000D03*
X119138909Y-85361091D03*
X109200000Y-123000000D03*
X125200000Y-142400000D03*
X132600000Y-60600000D03*
X112100000Y-105200000D03*
X136100000Y-135200000D03*
X115800000Y-139600000D03*
X136050000Y-91200000D03*
X110800000Y-85600000D03*
X129700000Y-93400000D03*
X125300000Y-66900000D03*
X108200000Y-145000000D03*
X103865691Y-61992796D03*
X112516620Y-106422847D03*
X106000000Y-139800000D03*
X118400000Y-144800000D03*
X121400000Y-64000000D03*
X133800000Y-70100000D03*
X115900000Y-122500000D03*
X141400000Y-86300000D03*
X119200000Y-132600000D03*
X128100000Y-126600000D03*
X134300000Y-75700000D03*
X139800000Y-89800000D03*
X108400000Y-140800000D03*
X118400000Y-124750000D03*
X126900000Y-94300000D03*
X123750000Y-83400000D03*
X118400000Y-123250000D03*
X141000000Y-141400000D03*
X117500000Y-124000000D03*
X140700000Y-80900000D03*
X135900000Y-64000000D03*
X142000000Y-107000000D03*
X116200000Y-74200000D03*
X122400000Y-90400000D03*
X120600000Y-68200000D03*
X139100000Y-108200000D03*
X117400000Y-135200000D03*
X118400000Y-111300000D03*
X133400000Y-60600000D03*
X127500000Y-64200000D03*
X134600000Y-71600000D03*
X127000000Y-115800000D03*
X109000000Y-69000000D03*
X132600000Y-59800000D03*
X113500000Y-78000000D03*
X134400000Y-106500000D03*
X115000000Y-125500000D03*
X123800000Y-101300000D03*
X128200000Y-82900000D03*
X114200000Y-100600000D03*
X108200000Y-73200000D03*
X128122482Y-137995081D03*
X142500000Y-72200000D03*
X105900000Y-80000000D03*
X114500000Y-73300000D03*
X123750000Y-84550000D03*
X116700000Y-123250000D03*
X115400000Y-88000000D03*
X109550000Y-93050000D03*
X106400000Y-136600000D03*
X115900000Y-73200000D03*
X142000000Y-105000000D03*
X124400000Y-125800000D03*
X120600000Y-63500000D03*
X118433313Y-102478546D03*
X139200000Y-79500000D03*
X117200000Y-88700000D03*
X107900000Y-77600000D03*
X113600000Y-135000000D03*
X111600000Y-108500000D03*
X106000000Y-132200000D03*
X132500000Y-65000000D03*
X137700000Y-63400000D03*
X141000000Y-113800000D03*
X141000000Y-109600000D03*
X110400000Y-127200000D03*
X126100000Y-118400000D03*
X140800000Y-66400000D03*
X141700000Y-82300000D03*
X126000000Y-120500000D03*
X127300000Y-98700000D03*
X125400000Y-125100000D03*
X119300000Y-131500000D03*
X142600000Y-94600000D03*
X117950000Y-79800000D03*
X132000000Y-66000000D03*
X137300000Y-71300000D03*
X122100000Y-132100000D03*
X112100000Y-74575000D03*
X116700000Y-122500000D03*
X106600000Y-108500000D03*
X141000000Y-99700000D03*
X127400000Y-59050000D03*
X125000000Y-79000000D03*
X108800000Y-77700000D03*
X109000000Y-108500000D03*
X137700000Y-70100000D03*
X126000000Y-74200000D03*
X122000000Y-144800000D03*
X125100000Y-140800000D03*
X117361082Y-132896248D03*
X138800000Y-113400000D03*
X116700000Y-124000000D03*
D11*
%TO.N,+5V*%
X131437500Y-105537500D03*
X136400000Y-102100000D03*
D10*
%TO.N,+3.3V*%
X130400000Y-69800000D03*
X113600000Y-78900000D03*
D12*
X133000000Y-86000000D03*
D10*
X124000000Y-108000000D03*
X136837500Y-93737500D03*
D11*
X137000000Y-88700000D03*
D12*
X127900000Y-89300000D03*
D10*
X133000000Y-69600000D03*
X114640000Y-108000000D03*
D11*
X117475000Y-66250000D03*
D12*
X132800000Y-73300000D03*
D10*
X115200000Y-68525000D03*
X137300000Y-93100000D03*
X117200000Y-108000000D03*
X109400000Y-82900000D03*
D12*
X121700000Y-85400000D03*
D10*
%TO.N,Net-(U2-VREG_VOUT)*%
X113874998Y-79600000D03*
X118550000Y-78500000D03*
X118690420Y-80798823D03*
D12*
%TO.N,Net-(U6-VMID)*%
X132000000Y-98850000D03*
X137148833Y-95058568D03*
D10*
%TO.N,Net-(J1-Pin_2)*%
X112300000Y-104000000D03*
X114100000Y-104000000D03*
%TO.N,/MCU/GPIO_{1}*%
X111500000Y-76900000D03*
X107000000Y-81500000D03*
%TO.N,/MCU/GPIO_{0}*%
X111600000Y-77700000D03*
X108300000Y-82600000D03*
%TO.N,Net-(J1-Pin_4)*%
X113659999Y-108000000D03*
X112300000Y-108000000D03*
%TO.N,/MCU/~{RESET}*%
X113500000Y-81500000D03*
X126600000Y-81500000D03*
X110700000Y-83400000D03*
%TO.N,/MCU/QSPI_{CLK}*%
X130500000Y-77500000D03*
X130500000Y-80500000D03*
%TO.N,/MCU/SDA*%
X117400000Y-71500000D03*
X115800000Y-71500000D03*
%TO.N,/MCU/LTC44_{~{PFO}}*%
X138685000Y-95115000D03*
X138000000Y-91100000D03*
%TO.N,/Touch Sensors/CCW*%
X110000000Y-73100000D03*
%TO.N,/Touch Sensors/MODE*%
X115100000Y-66000000D03*
%TO.N,/Touch Sensors/CW*%
X124200000Y-68700000D03*
%TO.N,/Touch Sensors/STOP*%
X110600000Y-121500000D03*
%TO.N,/MCU/TMC_{~{CS}}*%
X118000000Y-91000000D03*
X121000000Y-91500000D03*
%TO.N,/MCU/SCLK*%
X117500000Y-90000000D03*
X120000000Y-90000000D03*
%TO.N,/MCU/TMC_{EN}*%
X113369999Y-119000000D03*
X113400000Y-126800000D03*
D12*
%TO.N,/Motor Driver/OA1*%
X119650000Y-140800000D03*
X120475000Y-139975000D03*
X121000250Y-122850000D03*
%TO.N,/Motor Driver/OB1*%
X113100000Y-136600000D03*
X114100000Y-136600000D03*
X112212500Y-122850500D03*
%TO.N,/Motor Driver/OA2*%
X119200000Y-136800000D03*
X119200000Y-135300000D03*
X121000000Y-124649500D03*
%TO.N,/Motor Driver/OB2*%
X112200000Y-124650000D03*
X111350000Y-133000000D03*
X111350000Y-134252944D03*
%TD*%
%TA.AperFunction,Conductor*%
%TO.N,GND*%
G36*
X142094452Y-54519407D02*
G01*
X142130416Y-54568907D01*
X142130416Y-54630093D01*
X142094452Y-54679591D01*
X142002804Y-54746178D01*
X141957345Y-54779206D01*
X141779206Y-54957345D01*
X141631128Y-55161157D01*
X141516759Y-55385620D01*
X141438908Y-55625219D01*
X141399500Y-55874034D01*
X141399500Y-56125965D01*
X141438908Y-56374780D01*
X141438910Y-56374785D01*
X141516759Y-56614379D01*
X141631130Y-56838845D01*
X141779207Y-57042656D01*
X141957344Y-57220793D01*
X142161155Y-57368870D01*
X142385621Y-57483241D01*
X142625215Y-57561090D01*
X142625216Y-57561090D01*
X142625219Y-57561091D01*
X142874035Y-57600500D01*
X142874038Y-57600500D01*
X143125965Y-57600500D01*
X143374780Y-57561091D01*
X143374781Y-57561090D01*
X143374785Y-57561090D01*
X143614379Y-57483241D01*
X143838845Y-57368870D01*
X144042656Y-57220793D01*
X144220793Y-57042656D01*
X144320408Y-56905547D01*
X144369907Y-56869584D01*
X144431093Y-56869584D01*
X144480593Y-56905548D01*
X144499500Y-56963739D01*
X144499500Y-146036260D01*
X144480593Y-146094451D01*
X144431093Y-146130415D01*
X144369907Y-146130415D01*
X144320407Y-146094451D01*
X144301049Y-146067808D01*
X144220793Y-145957344D01*
X144042656Y-145779207D01*
X143838845Y-145631130D01*
X143838844Y-145631129D01*
X143838842Y-145631128D01*
X143614379Y-145516759D01*
X143374780Y-145438908D01*
X143125965Y-145399500D01*
X143125962Y-145399500D01*
X142874038Y-145399500D01*
X142874035Y-145399500D01*
X142625219Y-145438908D01*
X142385620Y-145516759D01*
X142161157Y-145631128D01*
X141957345Y-145779206D01*
X141779206Y-145957345D01*
X141631128Y-146161157D01*
X141516759Y-146385620D01*
X141438908Y-146625219D01*
X141399500Y-146874034D01*
X141399500Y-147125965D01*
X141438908Y-147374780D01*
X141438910Y-147374785D01*
X141516759Y-147614379D01*
X141631130Y-147838845D01*
X141779207Y-148042656D01*
X141957344Y-148220793D01*
X142094452Y-148320408D01*
X142130416Y-148369907D01*
X142130416Y-148431093D01*
X142094452Y-148480593D01*
X142036261Y-148499500D01*
X104963739Y-148499500D01*
X104905548Y-148480593D01*
X104869584Y-148431093D01*
X104869584Y-148369907D01*
X104905547Y-148320408D01*
X105042656Y-148220793D01*
X105220793Y-148042656D01*
X105368870Y-147838845D01*
X105483241Y-147614379D01*
X105561090Y-147374785D01*
X105600500Y-147125962D01*
X105600500Y-146874038D01*
X105600500Y-146874034D01*
X105561091Y-146625219D01*
X105561090Y-146625215D01*
X105483241Y-146385621D01*
X105368870Y-146161155D01*
X105220793Y-145957344D01*
X105042656Y-145779207D01*
X104838845Y-145631130D01*
X104838844Y-145631129D01*
X104838842Y-145631128D01*
X104614379Y-145516759D01*
X104374780Y-145438908D01*
X104125965Y-145399500D01*
X104125962Y-145399500D01*
X103874038Y-145399500D01*
X103874035Y-145399500D01*
X103625219Y-145438908D01*
X103385620Y-145516759D01*
X103161157Y-145631128D01*
X102957345Y-145779206D01*
X102779206Y-145957345D01*
X102679593Y-146094451D01*
X102630092Y-146130415D01*
X102568907Y-146130415D01*
X102519407Y-146094451D01*
X102500500Y-146036260D01*
X102500500Y-140799998D01*
X118994722Y-140799998D01*
X118994722Y-140800001D01*
X119013762Y-140956816D01*
X119013763Y-140956817D01*
X119069780Y-141104523D01*
X119159515Y-141234528D01*
X119159516Y-141234529D01*
X119159517Y-141234530D01*
X119277760Y-141339283D01*
X119417635Y-141412696D01*
X119571015Y-141450500D01*
X119571018Y-141450500D01*
X119728982Y-141450500D01*
X119728985Y-141450500D01*
X119882365Y-141412696D01*
X120022240Y-141339283D01*
X120140483Y-141234530D01*
X120230220Y-141104523D01*
X120286237Y-140956818D01*
X120305278Y-140800000D01*
X120297560Y-140736433D01*
X120309315Y-140676387D01*
X120354120Y-140634719D01*
X120395838Y-140625500D01*
X120553982Y-140625500D01*
X120553985Y-140625500D01*
X120707365Y-140587696D01*
X120847240Y-140514283D01*
X120965483Y-140409530D01*
X121055220Y-140279523D01*
X121111237Y-140131818D01*
X121130278Y-139975000D01*
X121111237Y-139818182D01*
X121055220Y-139670477D01*
X120965483Y-139540470D01*
X120847240Y-139435717D01*
X120777302Y-139399010D01*
X120707364Y-139362303D01*
X120553987Y-139324500D01*
X120553985Y-139324500D01*
X120396015Y-139324500D01*
X120396012Y-139324500D01*
X120242635Y-139362303D01*
X120102758Y-139435718D01*
X119984515Y-139540471D01*
X119894780Y-139670476D01*
X119838763Y-139818182D01*
X119838762Y-139818183D01*
X119819722Y-139974998D01*
X119819722Y-139975001D01*
X119827440Y-140038567D01*
X119815685Y-140098613D01*
X119770880Y-140140281D01*
X119729162Y-140149500D01*
X119571012Y-140149500D01*
X119417635Y-140187303D01*
X119277758Y-140260718D01*
X119159515Y-140365471D01*
X119069780Y-140495476D01*
X119013763Y-140643182D01*
X119013762Y-140643183D01*
X118994722Y-140799998D01*
X102500500Y-140799998D01*
X102500500Y-136599998D01*
X112444722Y-136599998D01*
X112444722Y-136600001D01*
X112463762Y-136756816D01*
X112463763Y-136756817D01*
X112519780Y-136904523D01*
X112609515Y-137034528D01*
X112609516Y-137034529D01*
X112609517Y-137034530D01*
X112727760Y-137139283D01*
X112867635Y-137212696D01*
X113021015Y-137250500D01*
X113021018Y-137250500D01*
X113178982Y-137250500D01*
X113178985Y-137250500D01*
X113332365Y-137212696D01*
X113472240Y-137139283D01*
X113534351Y-137084257D01*
X113590445Y-137059823D01*
X113650189Y-137073026D01*
X113665648Y-137084257D01*
X113727760Y-137139283D01*
X113867635Y-137212696D01*
X114021015Y-137250500D01*
X114021018Y-137250500D01*
X114178982Y-137250500D01*
X114178985Y-137250500D01*
X114332365Y-137212696D01*
X114472240Y-137139283D01*
X114590483Y-137034530D01*
X114680220Y-136904523D01*
X114719861Y-136799998D01*
X118544722Y-136799998D01*
X118544722Y-136800001D01*
X118563762Y-136956816D01*
X118563763Y-136956818D01*
X118593235Y-137034530D01*
X118619780Y-137104523D01*
X118709515Y-137234528D01*
X118709516Y-137234529D01*
X118709517Y-137234530D01*
X118827760Y-137339283D01*
X118967635Y-137412696D01*
X119121015Y-137450500D01*
X119121018Y-137450500D01*
X119278982Y-137450500D01*
X119278985Y-137450500D01*
X119432365Y-137412696D01*
X119572240Y-137339283D01*
X119690483Y-137234530D01*
X119780220Y-137104523D01*
X119836237Y-136956818D01*
X119855278Y-136800000D01*
X119836237Y-136643182D01*
X119780220Y-136495477D01*
X119690483Y-136365470D01*
X119572240Y-136260717D01*
X119502302Y-136224010D01*
X119432364Y-136187303D01*
X119278987Y-136149500D01*
X119278985Y-136149500D01*
X119121015Y-136149500D01*
X119121012Y-136149500D01*
X118967635Y-136187303D01*
X118827758Y-136260718D01*
X118709515Y-136365471D01*
X118619780Y-136495476D01*
X118563763Y-136643182D01*
X118563762Y-136643183D01*
X118544722Y-136799998D01*
X114719861Y-136799998D01*
X114736237Y-136756818D01*
X114755278Y-136600000D01*
X114736237Y-136443182D01*
X114680220Y-136295477D01*
X114605553Y-136187303D01*
X114590484Y-136165471D01*
X114472241Y-136060718D01*
X114472240Y-136060717D01*
X114402302Y-136024010D01*
X114332364Y-135987303D01*
X114178987Y-135949500D01*
X114178985Y-135949500D01*
X114021015Y-135949500D01*
X114021012Y-135949500D01*
X113867635Y-135987303D01*
X113727755Y-136060719D01*
X113665648Y-136115741D01*
X113609554Y-136140176D01*
X113549810Y-136126972D01*
X113534352Y-136115741D01*
X113472244Y-136060719D01*
X113332364Y-135987303D01*
X113178987Y-135949500D01*
X113178985Y-135949500D01*
X113021015Y-135949500D01*
X113021012Y-135949500D01*
X112867635Y-135987303D01*
X112727758Y-136060718D01*
X112609515Y-136165471D01*
X112519780Y-136295476D01*
X112463763Y-136443182D01*
X112463762Y-136443183D01*
X112444722Y-136599998D01*
X102500500Y-136599998D01*
X102500500Y-135299998D01*
X118544722Y-135299998D01*
X118544722Y-135300001D01*
X118563762Y-135456816D01*
X118563763Y-135456817D01*
X118619780Y-135604523D01*
X118709515Y-135734528D01*
X118709516Y-135734529D01*
X118709517Y-135734530D01*
X118827760Y-135839283D01*
X118967635Y-135912696D01*
X119121015Y-135950500D01*
X119121018Y-135950500D01*
X119278982Y-135950500D01*
X119278985Y-135950500D01*
X119432365Y-135912696D01*
X119572240Y-135839283D01*
X119690483Y-135734530D01*
X119780220Y-135604523D01*
X119836237Y-135456818D01*
X119855278Y-135300000D01*
X119836237Y-135143182D01*
X119780220Y-134995477D01*
X119735351Y-134930473D01*
X119690484Y-134865471D01*
X119607806Y-134792225D01*
X119572240Y-134760717D01*
X119502302Y-134724010D01*
X119432364Y-134687303D01*
X119278987Y-134649500D01*
X119278985Y-134649500D01*
X119121015Y-134649500D01*
X119121012Y-134649500D01*
X118967635Y-134687303D01*
X118827758Y-134760718D01*
X118709515Y-134865471D01*
X118619780Y-134995476D01*
X118563763Y-135143182D01*
X118563762Y-135143183D01*
X118544722Y-135299998D01*
X102500500Y-135299998D01*
X102500500Y-132999998D01*
X110694722Y-132999998D01*
X110694722Y-133000001D01*
X110713762Y-133156816D01*
X110713763Y-133156817D01*
X110769780Y-133304523D01*
X110859515Y-133434528D01*
X110977761Y-133539284D01*
X110982684Y-133542682D01*
X110981837Y-133543907D01*
X111019602Y-133582597D01*
X111028442Y-133643141D01*
X111000007Y-133697317D01*
X110982519Y-133710023D01*
X110982684Y-133710262D01*
X110977761Y-133713659D01*
X110859515Y-133818415D01*
X110769780Y-133948420D01*
X110713763Y-134096126D01*
X110713762Y-134096127D01*
X110694722Y-134252942D01*
X110694722Y-134252945D01*
X110713762Y-134409760D01*
X110713763Y-134409761D01*
X110769780Y-134557467D01*
X110859515Y-134687472D01*
X110859516Y-134687473D01*
X110859517Y-134687474D01*
X110977760Y-134792227D01*
X111117635Y-134865640D01*
X111271015Y-134903444D01*
X111271018Y-134903444D01*
X111428982Y-134903444D01*
X111428985Y-134903444D01*
X111582365Y-134865640D01*
X111722240Y-134792227D01*
X111840483Y-134687474D01*
X111930220Y-134557467D01*
X111986237Y-134409762D01*
X112005278Y-134252944D01*
X111986237Y-134096126D01*
X111930220Y-133948421D01*
X111840483Y-133818414D01*
X111722240Y-133713661D01*
X111722238Y-133713659D01*
X111717316Y-133710262D01*
X111718162Y-133709034D01*
X111680401Y-133670355D01*
X111671556Y-133609812D01*
X111699986Y-133555633D01*
X111717481Y-133542921D01*
X111717316Y-133542682D01*
X111722238Y-133539284D01*
X111722237Y-133539284D01*
X111722240Y-133539283D01*
X111840483Y-133434530D01*
X111930220Y-133304523D01*
X111986237Y-133156818D01*
X112005278Y-133000000D01*
X111986237Y-132843182D01*
X111930220Y-132695477D01*
X111840483Y-132565470D01*
X111722240Y-132460717D01*
X111652302Y-132424010D01*
X111582364Y-132387303D01*
X111428987Y-132349500D01*
X111428985Y-132349500D01*
X111271015Y-132349500D01*
X111271012Y-132349500D01*
X111117635Y-132387303D01*
X110977758Y-132460718D01*
X110859515Y-132565471D01*
X110769780Y-132695476D01*
X110713763Y-132843182D01*
X110713762Y-132843183D01*
X110694722Y-132999998D01*
X102500500Y-132999998D01*
X102500500Y-126799997D01*
X112944867Y-126799997D01*
X112944867Y-126800002D01*
X112963302Y-126928225D01*
X113017117Y-127046061D01*
X113017118Y-127046063D01*
X113101951Y-127143967D01*
X113101952Y-127143968D01*
X113210926Y-127214001D01*
X113210931Y-127214004D01*
X113335228Y-127250500D01*
X113335230Y-127250500D01*
X113464770Y-127250500D01*
X113464772Y-127250500D01*
X113589069Y-127214004D01*
X113698049Y-127143967D01*
X113782882Y-127046063D01*
X113836697Y-126928226D01*
X113855133Y-126800000D01*
X113836697Y-126671774D01*
X113782882Y-126553937D01*
X113698049Y-126456033D01*
X113698048Y-126456032D01*
X113698047Y-126456031D01*
X113589073Y-126385998D01*
X113589070Y-126385996D01*
X113589069Y-126385996D01*
X113589066Y-126385995D01*
X113464774Y-126349500D01*
X113464772Y-126349500D01*
X113335228Y-126349500D01*
X113335225Y-126349500D01*
X113210933Y-126385995D01*
X113210926Y-126385998D01*
X113101952Y-126456031D01*
X113017117Y-126553938D01*
X112963302Y-126671774D01*
X112944867Y-126799997D01*
X102500500Y-126799997D01*
X102500500Y-124649998D01*
X111544722Y-124649998D01*
X111544722Y-124650001D01*
X111563762Y-124806816D01*
X111563763Y-124806817D01*
X111619780Y-124954523D01*
X111709515Y-125084528D01*
X111709516Y-125084529D01*
X111709517Y-125084530D01*
X111827760Y-125189283D01*
X111967635Y-125262696D01*
X112121015Y-125300500D01*
X112121018Y-125300500D01*
X112278982Y-125300500D01*
X112278985Y-125300500D01*
X112432365Y-125262696D01*
X112572240Y-125189283D01*
X112690483Y-125084530D01*
X112780220Y-124954523D01*
X112836237Y-124806818D01*
X112855278Y-124650000D01*
X112855217Y-124649501D01*
X112855217Y-124649498D01*
X120344722Y-124649498D01*
X120344722Y-124649501D01*
X120363762Y-124806316D01*
X120363763Y-124806318D01*
X120363953Y-124806818D01*
X120419780Y-124954023D01*
X120509515Y-125084028D01*
X120509516Y-125084029D01*
X120509517Y-125084030D01*
X120627760Y-125188783D01*
X120767635Y-125262196D01*
X120921015Y-125300000D01*
X120921018Y-125300000D01*
X121078982Y-125300000D01*
X121078985Y-125300000D01*
X121232365Y-125262196D01*
X121372240Y-125188783D01*
X121490483Y-125084030D01*
X121580220Y-124954023D01*
X121636237Y-124806318D01*
X121655278Y-124649500D01*
X121636237Y-124492682D01*
X121580220Y-124344977D01*
X121490483Y-124214970D01*
X121372240Y-124110217D01*
X121302302Y-124073510D01*
X121232364Y-124036803D01*
X121078987Y-123999000D01*
X121078985Y-123999000D01*
X120921015Y-123999000D01*
X120921012Y-123999000D01*
X120767635Y-124036803D01*
X120627758Y-124110218D01*
X120509515Y-124214971D01*
X120419780Y-124344976D01*
X120363763Y-124492682D01*
X120363762Y-124492683D01*
X120344722Y-124649498D01*
X112855217Y-124649498D01*
X112836237Y-124493183D01*
X112836237Y-124493182D01*
X112780220Y-124345477D01*
X112690483Y-124215470D01*
X112572240Y-124110717D01*
X112502302Y-124074010D01*
X112432364Y-124037303D01*
X112278987Y-123999500D01*
X112278985Y-123999500D01*
X112121015Y-123999500D01*
X112121012Y-123999500D01*
X111967635Y-124037303D01*
X111827758Y-124110718D01*
X111709515Y-124215471D01*
X111619780Y-124345476D01*
X111563763Y-124493182D01*
X111563762Y-124493183D01*
X111544722Y-124649998D01*
X102500500Y-124649998D01*
X102500500Y-122850498D01*
X111557222Y-122850498D01*
X111557222Y-122850501D01*
X111576262Y-123007316D01*
X111576263Y-123007317D01*
X111632280Y-123155023D01*
X111722015Y-123285028D01*
X111722016Y-123285029D01*
X111722017Y-123285030D01*
X111840260Y-123389783D01*
X111980135Y-123463196D01*
X112133515Y-123501000D01*
X112133518Y-123501000D01*
X112291482Y-123501000D01*
X112291485Y-123501000D01*
X112444865Y-123463196D01*
X112584740Y-123389783D01*
X112702983Y-123285030D01*
X112792720Y-123155023D01*
X112848737Y-123007318D01*
X112867778Y-122850500D01*
X112867717Y-122850001D01*
X112867717Y-122849998D01*
X120344972Y-122849998D01*
X120344972Y-122850001D01*
X120364012Y-123006816D01*
X120364013Y-123006818D01*
X120364203Y-123007318D01*
X120420030Y-123154523D01*
X120509765Y-123284528D01*
X120509766Y-123284529D01*
X120509767Y-123284530D01*
X120628010Y-123389283D01*
X120767885Y-123462696D01*
X120921265Y-123500500D01*
X120921268Y-123500500D01*
X121079232Y-123500500D01*
X121079235Y-123500500D01*
X121232615Y-123462696D01*
X121372490Y-123389283D01*
X121490733Y-123284530D01*
X121580470Y-123154523D01*
X121636487Y-123006818D01*
X121655528Y-122850000D01*
X121636487Y-122693182D01*
X121580470Y-122545477D01*
X121490733Y-122415470D01*
X121372490Y-122310717D01*
X121302552Y-122274010D01*
X121232614Y-122237303D01*
X121079237Y-122199500D01*
X121079235Y-122199500D01*
X120921265Y-122199500D01*
X120921262Y-122199500D01*
X120767885Y-122237303D01*
X120628008Y-122310718D01*
X120509765Y-122415471D01*
X120420030Y-122545476D01*
X120364013Y-122693182D01*
X120364012Y-122693183D01*
X120344972Y-122849998D01*
X112867717Y-122849998D01*
X112848737Y-122693683D01*
X112848737Y-122693682D01*
X112792720Y-122545977D01*
X112702983Y-122415970D01*
X112584740Y-122311217D01*
X112514802Y-122274510D01*
X112444864Y-122237803D01*
X112291487Y-122200000D01*
X112291485Y-122200000D01*
X112133515Y-122200000D01*
X112133512Y-122200000D01*
X111980135Y-122237803D01*
X111840258Y-122311218D01*
X111722015Y-122415971D01*
X111632280Y-122545976D01*
X111576263Y-122693682D01*
X111576262Y-122693683D01*
X111557222Y-122850498D01*
X102500500Y-122850498D01*
X102500500Y-121499997D01*
X110144867Y-121499997D01*
X110144867Y-121500002D01*
X110163302Y-121628225D01*
X110217117Y-121746061D01*
X110217118Y-121746063D01*
X110301951Y-121843967D01*
X110301952Y-121843968D01*
X110410926Y-121914001D01*
X110410931Y-121914004D01*
X110535228Y-121950500D01*
X110535230Y-121950500D01*
X110664770Y-121950500D01*
X110664772Y-121950500D01*
X110789069Y-121914004D01*
X110898049Y-121843967D01*
X110982882Y-121746063D01*
X111036697Y-121628226D01*
X111055133Y-121500000D01*
X111036697Y-121371774D01*
X110982882Y-121253937D01*
X110898049Y-121156033D01*
X110898048Y-121156032D01*
X110898047Y-121156031D01*
X110789073Y-121085998D01*
X110789070Y-121085996D01*
X110789069Y-121085996D01*
X110789066Y-121085995D01*
X110664774Y-121049500D01*
X110664772Y-121049500D01*
X110535228Y-121049500D01*
X110535225Y-121049500D01*
X110410933Y-121085995D01*
X110410926Y-121085998D01*
X110301952Y-121156031D01*
X110217117Y-121253938D01*
X110163302Y-121371774D01*
X110144867Y-121499997D01*
X102500500Y-121499997D01*
X102500500Y-118999997D01*
X112914866Y-118999997D01*
X112914866Y-119000002D01*
X112933301Y-119128225D01*
X112987116Y-119246061D01*
X112987117Y-119246063D01*
X113071950Y-119343967D01*
X113071951Y-119343968D01*
X113180925Y-119414001D01*
X113180930Y-119414004D01*
X113305227Y-119450500D01*
X113305229Y-119450500D01*
X113434769Y-119450500D01*
X113434771Y-119450500D01*
X113559068Y-119414004D01*
X113668048Y-119343967D01*
X113752881Y-119246063D01*
X113806696Y-119128226D01*
X113825132Y-119000000D01*
X113806696Y-118871774D01*
X113752881Y-118753937D01*
X113668048Y-118656033D01*
X113668047Y-118656032D01*
X113668046Y-118656031D01*
X113559072Y-118585998D01*
X113559069Y-118585996D01*
X113559068Y-118585996D01*
X113559065Y-118585995D01*
X113434773Y-118549500D01*
X113434771Y-118549500D01*
X113305227Y-118549500D01*
X113305224Y-118549500D01*
X113180932Y-118585995D01*
X113180925Y-118585998D01*
X113071951Y-118656031D01*
X112987116Y-118753938D01*
X112933301Y-118871774D01*
X112914866Y-118999997D01*
X102500500Y-118999997D01*
X102500500Y-107999997D01*
X111844867Y-107999997D01*
X111844867Y-108000002D01*
X111863302Y-108128225D01*
X111900052Y-108208695D01*
X111917118Y-108246063D01*
X112001951Y-108343967D01*
X112001952Y-108343968D01*
X112110926Y-108414001D01*
X112110931Y-108414004D01*
X112235228Y-108450500D01*
X112235230Y-108450500D01*
X112364770Y-108450500D01*
X112364772Y-108450500D01*
X112489069Y-108414004D01*
X112598049Y-108343967D01*
X112682882Y-108246063D01*
X112736697Y-108128226D01*
X112755133Y-108000000D01*
X112755133Y-107999997D01*
X113204866Y-107999997D01*
X113204866Y-108000002D01*
X113223301Y-108128225D01*
X113260051Y-108208695D01*
X113277117Y-108246063D01*
X113361950Y-108343967D01*
X113361951Y-108343968D01*
X113470925Y-108414001D01*
X113470930Y-108414004D01*
X113595227Y-108450500D01*
X113595229Y-108450500D01*
X113724769Y-108450500D01*
X113724771Y-108450500D01*
X113849068Y-108414004D01*
X113958048Y-108343967D01*
X114042881Y-108246063D01*
X114059946Y-108208695D01*
X114101317Y-108163619D01*
X114161283Y-108151467D01*
X114216940Y-108176884D01*
X114240052Y-108208695D01*
X114257118Y-108246063D01*
X114341951Y-108343967D01*
X114341952Y-108343968D01*
X114450926Y-108414001D01*
X114450931Y-108414004D01*
X114575228Y-108450500D01*
X114575230Y-108450500D01*
X114704770Y-108450500D01*
X114704772Y-108450500D01*
X114829069Y-108414004D01*
X114938049Y-108343967D01*
X115022882Y-108246063D01*
X115076697Y-108128226D01*
X115095133Y-108000000D01*
X115095133Y-107999997D01*
X116744867Y-107999997D01*
X116744867Y-108000002D01*
X116763302Y-108128225D01*
X116800052Y-108208695D01*
X116817118Y-108246063D01*
X116901951Y-108343967D01*
X116901952Y-108343968D01*
X117010926Y-108414001D01*
X117010931Y-108414004D01*
X117135228Y-108450500D01*
X117135230Y-108450500D01*
X117264770Y-108450500D01*
X117264772Y-108450500D01*
X117389069Y-108414004D01*
X117498049Y-108343967D01*
X117582882Y-108246063D01*
X117636697Y-108128226D01*
X117655133Y-108000000D01*
X117655133Y-107999997D01*
X123544867Y-107999997D01*
X123544867Y-108000002D01*
X123563302Y-108128225D01*
X123600052Y-108208695D01*
X123617118Y-108246063D01*
X123701951Y-108343967D01*
X123701952Y-108343968D01*
X123810926Y-108414001D01*
X123810931Y-108414004D01*
X123935228Y-108450500D01*
X123935230Y-108450500D01*
X124064770Y-108450500D01*
X124064772Y-108450500D01*
X124189069Y-108414004D01*
X124298049Y-108343967D01*
X124382882Y-108246063D01*
X124436697Y-108128226D01*
X124455133Y-108000000D01*
X124436697Y-107871774D01*
X124382882Y-107753937D01*
X124298049Y-107656033D01*
X124298048Y-107656032D01*
X124298047Y-107656031D01*
X124189073Y-107585998D01*
X124189070Y-107585996D01*
X124189069Y-107585996D01*
X124189066Y-107585995D01*
X124064774Y-107549500D01*
X124064772Y-107549500D01*
X123935228Y-107549500D01*
X123935225Y-107549500D01*
X123810933Y-107585995D01*
X123810926Y-107585998D01*
X123701952Y-107656031D01*
X123617117Y-107753938D01*
X123563302Y-107871774D01*
X123544867Y-107999997D01*
X117655133Y-107999997D01*
X117636697Y-107871774D01*
X117582882Y-107753937D01*
X117498049Y-107656033D01*
X117498048Y-107656032D01*
X117498047Y-107656031D01*
X117389073Y-107585998D01*
X117389070Y-107585996D01*
X117389069Y-107585996D01*
X117389066Y-107585995D01*
X117264774Y-107549500D01*
X117264772Y-107549500D01*
X117135228Y-107549500D01*
X117135225Y-107549500D01*
X117010933Y-107585995D01*
X117010926Y-107585998D01*
X116901952Y-107656031D01*
X116817117Y-107753938D01*
X116763302Y-107871774D01*
X116744867Y-107999997D01*
X115095133Y-107999997D01*
X115076697Y-107871774D01*
X115022882Y-107753937D01*
X114938049Y-107656033D01*
X114938048Y-107656032D01*
X114938047Y-107656031D01*
X114829073Y-107585998D01*
X114829070Y-107585996D01*
X114829069Y-107585996D01*
X114829066Y-107585995D01*
X114704774Y-107549500D01*
X114704772Y-107549500D01*
X114575228Y-107549500D01*
X114575225Y-107549500D01*
X114450933Y-107585995D01*
X114450926Y-107585998D01*
X114341952Y-107656031D01*
X114257117Y-107753937D01*
X114240052Y-107791305D01*
X114198679Y-107836382D01*
X114138712Y-107848531D01*
X114083056Y-107823113D01*
X114059946Y-107791305D01*
X114042881Y-107753937D01*
X113958048Y-107656033D01*
X113958047Y-107656032D01*
X113958046Y-107656031D01*
X113849072Y-107585998D01*
X113849069Y-107585996D01*
X113849068Y-107585996D01*
X113849065Y-107585995D01*
X113724773Y-107549500D01*
X113724771Y-107549500D01*
X113595227Y-107549500D01*
X113595224Y-107549500D01*
X113470932Y-107585995D01*
X113470925Y-107585998D01*
X113361951Y-107656031D01*
X113277116Y-107753938D01*
X113223301Y-107871774D01*
X113204866Y-107999997D01*
X112755133Y-107999997D01*
X112736697Y-107871774D01*
X112682882Y-107753937D01*
X112598049Y-107656033D01*
X112598048Y-107656032D01*
X112598047Y-107656031D01*
X112489073Y-107585998D01*
X112489070Y-107585996D01*
X112489069Y-107585996D01*
X112489066Y-107585995D01*
X112364774Y-107549500D01*
X112364772Y-107549500D01*
X112235228Y-107549500D01*
X112235225Y-107549500D01*
X112110933Y-107585995D01*
X112110926Y-107585998D01*
X112001952Y-107656031D01*
X111917117Y-107753938D01*
X111863302Y-107871774D01*
X111844867Y-107999997D01*
X102500500Y-107999997D01*
X102500500Y-105537499D01*
X130831818Y-105537499D01*
X130831818Y-105537500D01*
X130852455Y-105694258D01*
X130852457Y-105694266D01*
X130912962Y-105840338D01*
X130912962Y-105840339D01*
X130912964Y-105840341D01*
X131009218Y-105965782D01*
X131134659Y-106062036D01*
X131280738Y-106122544D01*
X131398309Y-106138022D01*
X131437499Y-106143182D01*
X131437500Y-106143182D01*
X131437501Y-106143182D01*
X131468852Y-106139054D01*
X131594262Y-106122544D01*
X131740341Y-106062036D01*
X131865782Y-105965782D01*
X131962036Y-105840341D01*
X132022544Y-105694262D01*
X132043182Y-105537500D01*
X132022544Y-105380738D01*
X131962037Y-105234661D01*
X131962037Y-105234660D01*
X131865786Y-105109223D01*
X131865785Y-105109222D01*
X131865782Y-105109218D01*
X131865777Y-105109214D01*
X131865776Y-105109213D01*
X131740338Y-105012962D01*
X131594266Y-104952457D01*
X131594258Y-104952455D01*
X131437501Y-104931818D01*
X131437499Y-104931818D01*
X131280741Y-104952455D01*
X131280733Y-104952457D01*
X131134661Y-105012962D01*
X131134660Y-105012962D01*
X131009223Y-105109213D01*
X131009213Y-105109223D01*
X130912962Y-105234660D01*
X130912962Y-105234661D01*
X130852457Y-105380733D01*
X130852455Y-105380741D01*
X130831818Y-105537499D01*
X102500500Y-105537499D01*
X102500500Y-103999997D01*
X111844867Y-103999997D01*
X111844867Y-104000002D01*
X111863302Y-104128225D01*
X111917117Y-104246061D01*
X111917118Y-104246063D01*
X112001951Y-104343967D01*
X112001952Y-104343968D01*
X112110926Y-104414001D01*
X112110931Y-104414004D01*
X112235228Y-104450500D01*
X112235230Y-104450500D01*
X112364770Y-104450500D01*
X112364772Y-104450500D01*
X112489069Y-104414004D01*
X112598049Y-104343967D01*
X112682882Y-104246063D01*
X112736697Y-104128226D01*
X112755133Y-104000000D01*
X112755133Y-103999997D01*
X113644867Y-103999997D01*
X113644867Y-104000002D01*
X113663302Y-104128225D01*
X113717117Y-104246061D01*
X113717118Y-104246063D01*
X113801951Y-104343967D01*
X113801952Y-104343968D01*
X113910926Y-104414001D01*
X113910931Y-104414004D01*
X114035228Y-104450500D01*
X114035230Y-104450500D01*
X114164770Y-104450500D01*
X114164772Y-104450500D01*
X114289069Y-104414004D01*
X114398049Y-104343967D01*
X114482882Y-104246063D01*
X114536697Y-104128226D01*
X114555133Y-104000000D01*
X114536697Y-103871774D01*
X114482882Y-103753937D01*
X114398049Y-103656033D01*
X114398048Y-103656032D01*
X114398047Y-103656031D01*
X114289073Y-103585998D01*
X114289070Y-103585996D01*
X114289069Y-103585996D01*
X114289066Y-103585995D01*
X114164774Y-103549500D01*
X114164772Y-103549500D01*
X114035228Y-103549500D01*
X114035225Y-103549500D01*
X113910933Y-103585995D01*
X113910926Y-103585998D01*
X113801952Y-103656031D01*
X113717117Y-103753938D01*
X113663302Y-103871774D01*
X113644867Y-103999997D01*
X112755133Y-103999997D01*
X112736697Y-103871774D01*
X112682882Y-103753937D01*
X112598049Y-103656033D01*
X112598048Y-103656032D01*
X112598047Y-103656031D01*
X112489073Y-103585998D01*
X112489070Y-103585996D01*
X112489069Y-103585996D01*
X112489066Y-103585995D01*
X112364774Y-103549500D01*
X112364772Y-103549500D01*
X112235228Y-103549500D01*
X112235225Y-103549500D01*
X112110933Y-103585995D01*
X112110926Y-103585998D01*
X112001952Y-103656031D01*
X111917117Y-103753938D01*
X111863302Y-103871774D01*
X111844867Y-103999997D01*
X102500500Y-103999997D01*
X102500500Y-102099999D01*
X135794318Y-102099999D01*
X135794318Y-102100000D01*
X135814955Y-102256758D01*
X135814957Y-102256766D01*
X135875462Y-102402838D01*
X135875462Y-102402839D01*
X135875464Y-102402841D01*
X135971718Y-102528282D01*
X136097159Y-102624536D01*
X136243238Y-102685044D01*
X136360809Y-102700522D01*
X136399999Y-102705682D01*
X136400000Y-102705682D01*
X136400001Y-102705682D01*
X136431352Y-102701554D01*
X136556762Y-102685044D01*
X136702841Y-102624536D01*
X136828282Y-102528282D01*
X136924536Y-102402841D01*
X136985044Y-102256762D01*
X137005682Y-102100000D01*
X136985044Y-101943238D01*
X136924537Y-101797161D01*
X136924537Y-101797160D01*
X136828286Y-101671723D01*
X136828285Y-101671722D01*
X136828282Y-101671718D01*
X136828277Y-101671714D01*
X136828276Y-101671713D01*
X136702838Y-101575462D01*
X136556766Y-101514957D01*
X136556758Y-101514955D01*
X136400001Y-101494318D01*
X136399999Y-101494318D01*
X136243241Y-101514955D01*
X136243233Y-101514957D01*
X136097161Y-101575462D01*
X136097160Y-101575462D01*
X135971723Y-101671713D01*
X135971713Y-101671723D01*
X135875462Y-101797160D01*
X135875462Y-101797161D01*
X135814957Y-101943233D01*
X135814955Y-101943241D01*
X135794318Y-102099999D01*
X102500500Y-102099999D01*
X102500500Y-98849998D01*
X131344722Y-98849998D01*
X131344722Y-98850001D01*
X131363762Y-99006816D01*
X131363763Y-99006817D01*
X131419780Y-99154523D01*
X131509515Y-99284528D01*
X131509516Y-99284529D01*
X131509517Y-99284530D01*
X131627760Y-99389283D01*
X131767635Y-99462696D01*
X131921015Y-99500500D01*
X131921018Y-99500500D01*
X132078982Y-99500500D01*
X132078985Y-99500500D01*
X132232365Y-99462696D01*
X132372240Y-99389283D01*
X132490483Y-99284530D01*
X132580220Y-99154523D01*
X132636237Y-99006818D01*
X132655278Y-98850000D01*
X132636237Y-98693182D01*
X132580220Y-98545477D01*
X132490483Y-98415470D01*
X132372240Y-98310717D01*
X132302302Y-98274010D01*
X132232364Y-98237303D01*
X132078987Y-98199500D01*
X132078985Y-98199500D01*
X131921015Y-98199500D01*
X131921012Y-98199500D01*
X131767635Y-98237303D01*
X131627758Y-98310718D01*
X131509515Y-98415471D01*
X131419780Y-98545476D01*
X131363763Y-98693182D01*
X131363762Y-98693183D01*
X131344722Y-98849998D01*
X102500500Y-98849998D01*
X102500500Y-95058566D01*
X136493555Y-95058566D01*
X136493555Y-95058569D01*
X136512595Y-95215384D01*
X136512596Y-95215386D01*
X136567843Y-95361061D01*
X136568613Y-95363091D01*
X136658348Y-95493096D01*
X136658349Y-95493097D01*
X136658350Y-95493098D01*
X136776593Y-95597851D01*
X136916468Y-95671264D01*
X137069848Y-95709068D01*
X137069851Y-95709068D01*
X137227815Y-95709068D01*
X137227818Y-95709068D01*
X137381198Y-95671264D01*
X137521073Y-95597851D01*
X137639316Y-95493098D01*
X137729053Y-95363091D01*
X137785070Y-95215386D01*
X137797259Y-95114997D01*
X138229867Y-95114997D01*
X138229867Y-95115002D01*
X138248302Y-95243225D01*
X138302117Y-95361061D01*
X138302118Y-95361063D01*
X138386951Y-95458967D01*
X138386952Y-95458968D01*
X138440060Y-95493098D01*
X138495931Y-95529004D01*
X138620228Y-95565500D01*
X138620230Y-95565500D01*
X138749770Y-95565500D01*
X138749772Y-95565500D01*
X138874069Y-95529004D01*
X138983049Y-95458967D01*
X139067882Y-95361063D01*
X139121697Y-95243226D01*
X139140133Y-95115000D01*
X139132019Y-95058569D01*
X139121697Y-94986774D01*
X139067882Y-94868938D01*
X139067882Y-94868937D01*
X138983049Y-94771033D01*
X138983048Y-94771032D01*
X138983047Y-94771031D01*
X138874073Y-94700998D01*
X138874070Y-94700996D01*
X138874069Y-94700996D01*
X138874066Y-94700995D01*
X138749774Y-94664500D01*
X138749772Y-94664500D01*
X138620228Y-94664500D01*
X138620225Y-94664500D01*
X138495933Y-94700995D01*
X138495926Y-94700998D01*
X138386952Y-94771031D01*
X138302117Y-94868938D01*
X138248302Y-94986774D01*
X138229867Y-95114997D01*
X137797259Y-95114997D01*
X137804111Y-95058568D01*
X137785070Y-94901750D01*
X137729053Y-94754045D01*
X137639316Y-94624038D01*
X137521073Y-94519285D01*
X137451135Y-94482578D01*
X137381197Y-94445871D01*
X137227820Y-94408068D01*
X137227818Y-94408068D01*
X137069848Y-94408068D01*
X137069845Y-94408068D01*
X136916468Y-94445871D01*
X136776591Y-94519286D01*
X136658348Y-94624039D01*
X136568613Y-94754044D01*
X136512596Y-94901750D01*
X136512595Y-94901751D01*
X136493555Y-95058566D01*
X102500500Y-95058566D01*
X102500500Y-93737497D01*
X136382367Y-93737497D01*
X136382367Y-93737502D01*
X136400802Y-93865725D01*
X136454617Y-93983561D01*
X136454618Y-93983563D01*
X136539451Y-94081467D01*
X136539452Y-94081468D01*
X136648426Y-94151501D01*
X136648431Y-94151504D01*
X136772728Y-94188000D01*
X136772730Y-94188000D01*
X136902270Y-94188000D01*
X136902272Y-94188000D01*
X137026569Y-94151504D01*
X137135549Y-94081467D01*
X137220382Y-93983563D01*
X137274197Y-93865726D01*
X137292633Y-93737500D01*
X137281841Y-93662440D01*
X137292274Y-93602153D01*
X137336152Y-93559510D01*
X137358050Y-93552740D01*
X137357978Y-93552495D01*
X137364772Y-93550500D01*
X137489069Y-93514004D01*
X137598049Y-93443967D01*
X137682882Y-93346063D01*
X137736697Y-93228226D01*
X137755133Y-93100000D01*
X137736697Y-92971774D01*
X137682882Y-92853937D01*
X137598049Y-92756033D01*
X137598048Y-92756032D01*
X137598047Y-92756031D01*
X137489073Y-92685998D01*
X137489070Y-92685996D01*
X137489069Y-92685996D01*
X137489066Y-92685995D01*
X137364774Y-92649500D01*
X137364772Y-92649500D01*
X137235228Y-92649500D01*
X137235225Y-92649500D01*
X137110933Y-92685995D01*
X137110926Y-92685998D01*
X137001952Y-92756031D01*
X136917117Y-92853938D01*
X136863302Y-92971774D01*
X136844867Y-93099997D01*
X136844867Y-93100002D01*
X136855658Y-93175058D01*
X136845225Y-93235347D01*
X136801347Y-93277990D01*
X136779450Y-93284760D01*
X136779522Y-93285005D01*
X136648433Y-93323495D01*
X136648426Y-93323498D01*
X136539452Y-93393531D01*
X136454617Y-93491438D01*
X136400802Y-93609274D01*
X136382367Y-93737497D01*
X102500500Y-93737497D01*
X102500500Y-91499997D01*
X120544867Y-91499997D01*
X120544867Y-91500002D01*
X120563302Y-91628225D01*
X120617117Y-91746061D01*
X120617118Y-91746063D01*
X120701951Y-91843967D01*
X120701952Y-91843968D01*
X120810926Y-91914001D01*
X120810931Y-91914004D01*
X120935228Y-91950500D01*
X120935230Y-91950500D01*
X121064770Y-91950500D01*
X121064772Y-91950500D01*
X121189069Y-91914004D01*
X121298049Y-91843967D01*
X121382882Y-91746063D01*
X121436697Y-91628226D01*
X121447872Y-91550500D01*
X121455133Y-91500002D01*
X121455133Y-91499997D01*
X121436697Y-91371774D01*
X121382882Y-91253938D01*
X121382882Y-91253937D01*
X121298049Y-91156033D01*
X121298048Y-91156032D01*
X121298047Y-91156031D01*
X121210856Y-91099997D01*
X137544867Y-91099997D01*
X137544867Y-91100002D01*
X137563302Y-91228225D01*
X137571448Y-91246061D01*
X137617118Y-91346063D01*
X137701951Y-91443967D01*
X137701952Y-91443968D01*
X137789140Y-91500000D01*
X137810931Y-91514004D01*
X137935228Y-91550500D01*
X137935230Y-91550500D01*
X138064770Y-91550500D01*
X138064772Y-91550500D01*
X138189069Y-91514004D01*
X138298049Y-91443967D01*
X138382882Y-91346063D01*
X138436697Y-91228226D01*
X138455133Y-91100000D01*
X138453119Y-91085995D01*
X138436697Y-90971774D01*
X138382882Y-90853938D01*
X138382882Y-90853937D01*
X138298049Y-90756033D01*
X138298048Y-90756032D01*
X138298047Y-90756031D01*
X138189073Y-90685998D01*
X138189070Y-90685996D01*
X138189069Y-90685996D01*
X138189066Y-90685995D01*
X138064774Y-90649500D01*
X138064772Y-90649500D01*
X137935228Y-90649500D01*
X137935225Y-90649500D01*
X137810933Y-90685995D01*
X137810926Y-90685998D01*
X137701952Y-90756031D01*
X137617117Y-90853938D01*
X137563302Y-90971774D01*
X137544867Y-91099997D01*
X121210856Y-91099997D01*
X121189073Y-91085998D01*
X121189070Y-91085996D01*
X121189069Y-91085996D01*
X121189066Y-91085995D01*
X121064774Y-91049500D01*
X121064772Y-91049500D01*
X120935228Y-91049500D01*
X120935225Y-91049500D01*
X120810933Y-91085995D01*
X120810926Y-91085998D01*
X120701952Y-91156031D01*
X120617117Y-91253938D01*
X120563302Y-91371774D01*
X120544867Y-91499997D01*
X102500500Y-91499997D01*
X102500500Y-90999997D01*
X117544867Y-90999997D01*
X117544867Y-91000002D01*
X117563302Y-91128225D01*
X117608972Y-91228226D01*
X117617118Y-91246063D01*
X117623941Y-91253937D01*
X117701952Y-91343968D01*
X117810926Y-91414001D01*
X117810931Y-91414004D01*
X117935228Y-91450500D01*
X117935230Y-91450500D01*
X118064770Y-91450500D01*
X118064772Y-91450500D01*
X118189069Y-91414004D01*
X118298049Y-91343967D01*
X118382882Y-91246063D01*
X118436697Y-91128226D01*
X118455133Y-91000000D01*
X118436697Y-90871774D01*
X118382882Y-90753937D01*
X118298049Y-90656033D01*
X118298048Y-90656032D01*
X118298047Y-90656031D01*
X118189073Y-90585998D01*
X118189070Y-90585996D01*
X118189069Y-90585996D01*
X118189066Y-90585995D01*
X118064774Y-90549500D01*
X118064772Y-90549500D01*
X117935228Y-90549500D01*
X117935225Y-90549500D01*
X117810933Y-90585995D01*
X117810926Y-90585998D01*
X117701952Y-90656031D01*
X117617117Y-90753938D01*
X117563302Y-90871774D01*
X117544867Y-90999997D01*
X102500500Y-90999997D01*
X102500500Y-89999997D01*
X117044867Y-89999997D01*
X117044867Y-90000002D01*
X117063302Y-90128225D01*
X117117117Y-90246061D01*
X117117118Y-90246063D01*
X117201951Y-90343967D01*
X117201952Y-90343968D01*
X117310926Y-90414001D01*
X117310931Y-90414004D01*
X117435228Y-90450500D01*
X117435230Y-90450500D01*
X117564770Y-90450500D01*
X117564772Y-90450500D01*
X117689069Y-90414004D01*
X117798049Y-90343967D01*
X117882882Y-90246063D01*
X117936697Y-90128226D01*
X117955133Y-90000000D01*
X117955133Y-89999997D01*
X119544867Y-89999997D01*
X119544867Y-90000002D01*
X119563302Y-90128225D01*
X119617117Y-90246061D01*
X119617118Y-90246063D01*
X119701951Y-90343967D01*
X119701952Y-90343968D01*
X119810926Y-90414001D01*
X119810931Y-90414004D01*
X119935228Y-90450500D01*
X119935230Y-90450500D01*
X120064770Y-90450500D01*
X120064772Y-90450500D01*
X120189069Y-90414004D01*
X120298049Y-90343967D01*
X120382882Y-90246063D01*
X120436697Y-90128226D01*
X120455133Y-90000000D01*
X120436697Y-89871774D01*
X120382882Y-89753937D01*
X120298049Y-89656033D01*
X120298048Y-89656032D01*
X120298047Y-89656031D01*
X120189073Y-89585998D01*
X120189070Y-89585996D01*
X120189069Y-89585996D01*
X120189066Y-89585995D01*
X120064774Y-89549500D01*
X120064772Y-89549500D01*
X119935228Y-89549500D01*
X119935225Y-89549500D01*
X119810933Y-89585995D01*
X119810926Y-89585998D01*
X119701952Y-89656031D01*
X119617117Y-89753938D01*
X119563302Y-89871774D01*
X119544867Y-89999997D01*
X117955133Y-89999997D01*
X117936697Y-89871774D01*
X117882882Y-89753937D01*
X117798049Y-89656033D01*
X117798048Y-89656032D01*
X117798047Y-89656031D01*
X117689073Y-89585998D01*
X117689070Y-89585996D01*
X117689069Y-89585996D01*
X117689066Y-89585995D01*
X117564774Y-89549500D01*
X117564772Y-89549500D01*
X117435228Y-89549500D01*
X117435225Y-89549500D01*
X117310933Y-89585995D01*
X117310926Y-89585998D01*
X117201952Y-89656031D01*
X117117117Y-89753938D01*
X117063302Y-89871774D01*
X117044867Y-89999997D01*
X102500500Y-89999997D01*
X102500500Y-89299998D01*
X127244722Y-89299998D01*
X127244722Y-89300001D01*
X127263762Y-89456816D01*
X127263763Y-89456817D01*
X127319780Y-89604523D01*
X127409515Y-89734528D01*
X127409516Y-89734529D01*
X127409517Y-89734530D01*
X127527760Y-89839283D01*
X127667635Y-89912696D01*
X127821015Y-89950500D01*
X127821018Y-89950500D01*
X127978982Y-89950500D01*
X127978985Y-89950500D01*
X128132365Y-89912696D01*
X128272240Y-89839283D01*
X128390483Y-89734530D01*
X128480220Y-89604523D01*
X128536237Y-89456818D01*
X128555278Y-89300000D01*
X128536237Y-89143182D01*
X128480220Y-88995477D01*
X128390483Y-88865470D01*
X128272240Y-88760717D01*
X128156555Y-88700000D01*
X128156553Y-88699999D01*
X136394318Y-88699999D01*
X136394318Y-88700000D01*
X136414955Y-88856758D01*
X136414957Y-88856766D01*
X136475462Y-89002838D01*
X136475462Y-89002839D01*
X136475464Y-89002841D01*
X136571718Y-89128282D01*
X136697159Y-89224536D01*
X136843238Y-89285044D01*
X136956826Y-89299998D01*
X136999999Y-89305682D01*
X137000000Y-89305682D01*
X137000001Y-89305682D01*
X137031352Y-89301554D01*
X137156762Y-89285044D01*
X137302841Y-89224536D01*
X137428282Y-89128282D01*
X137524536Y-89002841D01*
X137585044Y-88856762D01*
X137605682Y-88700000D01*
X137604010Y-88687303D01*
X137585044Y-88543241D01*
X137585044Y-88543238D01*
X137524537Y-88397161D01*
X137524537Y-88397160D01*
X137428286Y-88271723D01*
X137428285Y-88271722D01*
X137428282Y-88271718D01*
X137428277Y-88271714D01*
X137428276Y-88271713D01*
X137302838Y-88175462D01*
X137156766Y-88114957D01*
X137156758Y-88114955D01*
X137000001Y-88094318D01*
X136999999Y-88094318D01*
X136843241Y-88114955D01*
X136843233Y-88114957D01*
X136697161Y-88175462D01*
X136697160Y-88175462D01*
X136571723Y-88271713D01*
X136571713Y-88271723D01*
X136475462Y-88397160D01*
X136475462Y-88397161D01*
X136414957Y-88543233D01*
X136414955Y-88543241D01*
X136394318Y-88699999D01*
X128156553Y-88699999D01*
X128132364Y-88687303D01*
X127978987Y-88649500D01*
X127978985Y-88649500D01*
X127821015Y-88649500D01*
X127821012Y-88649500D01*
X127667635Y-88687303D01*
X127527758Y-88760718D01*
X127409515Y-88865471D01*
X127319780Y-88995476D01*
X127263763Y-89143182D01*
X127263762Y-89143183D01*
X127244722Y-89299998D01*
X102500500Y-89299998D01*
X102500500Y-85399998D01*
X121044722Y-85399998D01*
X121044722Y-85400001D01*
X121063762Y-85556816D01*
X121063763Y-85556818D01*
X121067045Y-85565471D01*
X121119780Y-85704523D01*
X121209515Y-85834528D01*
X121209516Y-85834529D01*
X121209517Y-85834530D01*
X121327760Y-85939283D01*
X121467635Y-86012696D01*
X121621015Y-86050500D01*
X121621018Y-86050500D01*
X121778982Y-86050500D01*
X121778985Y-86050500D01*
X121932365Y-86012696D01*
X121956559Y-85999998D01*
X132344722Y-85999998D01*
X132344722Y-86000001D01*
X132363762Y-86156816D01*
X132363763Y-86156817D01*
X132419780Y-86304523D01*
X132509515Y-86434528D01*
X132509516Y-86434529D01*
X132509517Y-86434530D01*
X132627760Y-86539283D01*
X132767635Y-86612696D01*
X132921015Y-86650500D01*
X132921018Y-86650500D01*
X133078982Y-86650500D01*
X133078985Y-86650500D01*
X133232365Y-86612696D01*
X133372240Y-86539283D01*
X133490483Y-86434530D01*
X133580220Y-86304523D01*
X133636237Y-86156818D01*
X133649146Y-86050499D01*
X133655278Y-86000001D01*
X133655278Y-85999998D01*
X133636237Y-85843183D01*
X133636237Y-85843182D01*
X133580220Y-85695477D01*
X133490483Y-85565470D01*
X133372240Y-85460717D01*
X133256555Y-85400000D01*
X133232364Y-85387303D01*
X133078987Y-85349500D01*
X133078985Y-85349500D01*
X132921015Y-85349500D01*
X132921012Y-85349500D01*
X132767635Y-85387303D01*
X132627758Y-85460718D01*
X132509515Y-85565471D01*
X132419780Y-85695476D01*
X132363763Y-85843182D01*
X132363762Y-85843183D01*
X132344722Y-85999998D01*
X121956559Y-85999998D01*
X122072240Y-85939283D01*
X122190483Y-85834530D01*
X122280220Y-85704523D01*
X122336237Y-85556818D01*
X122355278Y-85400000D01*
X122353736Y-85387304D01*
X122336237Y-85243183D01*
X122336237Y-85243182D01*
X122280220Y-85095477D01*
X122190483Y-84965470D01*
X122072240Y-84860717D01*
X122002302Y-84824010D01*
X121932364Y-84787303D01*
X121778987Y-84749500D01*
X121778985Y-84749500D01*
X121621015Y-84749500D01*
X121621012Y-84749500D01*
X121467635Y-84787303D01*
X121327758Y-84860718D01*
X121209515Y-84965471D01*
X121119780Y-85095476D01*
X121063763Y-85243182D01*
X121063762Y-85243183D01*
X121044722Y-85399998D01*
X102500500Y-85399998D01*
X102500500Y-83399997D01*
X110244867Y-83399997D01*
X110244867Y-83400002D01*
X110263302Y-83528225D01*
X110317117Y-83646061D01*
X110317118Y-83646063D01*
X110401951Y-83743967D01*
X110401952Y-83743968D01*
X110510926Y-83814001D01*
X110510931Y-83814004D01*
X110635228Y-83850500D01*
X110635230Y-83850500D01*
X110764770Y-83850500D01*
X110764772Y-83850500D01*
X110889069Y-83814004D01*
X110998049Y-83743967D01*
X111082882Y-83646063D01*
X111136697Y-83528226D01*
X111155133Y-83400000D01*
X111136697Y-83271774D01*
X111082882Y-83153937D01*
X110998049Y-83056033D01*
X110998048Y-83056032D01*
X110998047Y-83056031D01*
X110889073Y-82985998D01*
X110889070Y-82985996D01*
X110889069Y-82985996D01*
X110889066Y-82985995D01*
X110764774Y-82949500D01*
X110764772Y-82949500D01*
X110635228Y-82949500D01*
X110635225Y-82949500D01*
X110510933Y-82985995D01*
X110510926Y-82985998D01*
X110401952Y-83056031D01*
X110317117Y-83153938D01*
X110263302Y-83271774D01*
X110244867Y-83399997D01*
X102500500Y-83399997D01*
X102500500Y-82599997D01*
X107844867Y-82599997D01*
X107844867Y-82600002D01*
X107863302Y-82728225D01*
X107883191Y-82771774D01*
X107917118Y-82846063D01*
X107963854Y-82900000D01*
X108001952Y-82943968D01*
X108110926Y-83014001D01*
X108110931Y-83014004D01*
X108235228Y-83050500D01*
X108235230Y-83050500D01*
X108364770Y-83050500D01*
X108364772Y-83050500D01*
X108489069Y-83014004D01*
X108598049Y-82943967D01*
X108636149Y-82899997D01*
X108944867Y-82899997D01*
X108944867Y-82900002D01*
X108963302Y-83028225D01*
X108973475Y-83050500D01*
X109017118Y-83146063D01*
X109023941Y-83153937D01*
X109101952Y-83243968D01*
X109210926Y-83314001D01*
X109210931Y-83314004D01*
X109335228Y-83350500D01*
X109335230Y-83350500D01*
X109464770Y-83350500D01*
X109464772Y-83350500D01*
X109589069Y-83314004D01*
X109698049Y-83243967D01*
X109782882Y-83146063D01*
X109836697Y-83028226D01*
X109848016Y-82949500D01*
X109855133Y-82900002D01*
X109855133Y-82899997D01*
X109836697Y-82771774D01*
X109816809Y-82728226D01*
X109782882Y-82653937D01*
X109698049Y-82556033D01*
X109698048Y-82556032D01*
X109698047Y-82556031D01*
X109589073Y-82485998D01*
X109589070Y-82485996D01*
X109589069Y-82485996D01*
X109589066Y-82485995D01*
X109464774Y-82449500D01*
X109464772Y-82449500D01*
X109335228Y-82449500D01*
X109335225Y-82449500D01*
X109210933Y-82485995D01*
X109210926Y-82485998D01*
X109101952Y-82556031D01*
X109017117Y-82653938D01*
X108963302Y-82771774D01*
X108944867Y-82899997D01*
X108636149Y-82899997D01*
X108682882Y-82846063D01*
X108736697Y-82728226D01*
X108755133Y-82600000D01*
X108748811Y-82556031D01*
X108736697Y-82471774D01*
X108682882Y-82353938D01*
X108682882Y-82353937D01*
X108598049Y-82256033D01*
X108598048Y-82256032D01*
X108598047Y-82256031D01*
X108489073Y-82185998D01*
X108489070Y-82185996D01*
X108489069Y-82185996D01*
X108489066Y-82185995D01*
X108364774Y-82149500D01*
X108364772Y-82149500D01*
X108235228Y-82149500D01*
X108235225Y-82149500D01*
X108110933Y-82185995D01*
X108110926Y-82185998D01*
X108001952Y-82256031D01*
X107917117Y-82353938D01*
X107863302Y-82471774D01*
X107844867Y-82599997D01*
X102500500Y-82599997D01*
X102500500Y-81499997D01*
X106544867Y-81499997D01*
X106544867Y-81500002D01*
X106563302Y-81628225D01*
X106617117Y-81746061D01*
X106617118Y-81746063D01*
X106701951Y-81843967D01*
X106701952Y-81843968D01*
X106810926Y-81914001D01*
X106810931Y-81914004D01*
X106935228Y-81950500D01*
X106935230Y-81950500D01*
X107064770Y-81950500D01*
X107064772Y-81950500D01*
X107189069Y-81914004D01*
X107298049Y-81843967D01*
X107382882Y-81746063D01*
X107436697Y-81628226D01*
X107455133Y-81500000D01*
X107455133Y-81499997D01*
X113044867Y-81499997D01*
X113044867Y-81500002D01*
X113063302Y-81628225D01*
X113117117Y-81746061D01*
X113117118Y-81746063D01*
X113201951Y-81843967D01*
X113201952Y-81843968D01*
X113310926Y-81914001D01*
X113310931Y-81914004D01*
X113435228Y-81950500D01*
X113435230Y-81950500D01*
X113564770Y-81950500D01*
X113564772Y-81950500D01*
X113689069Y-81914004D01*
X113798049Y-81843967D01*
X113882882Y-81746063D01*
X113936697Y-81628226D01*
X113955133Y-81500000D01*
X113955133Y-81499997D01*
X126144867Y-81499997D01*
X126144867Y-81500002D01*
X126163302Y-81628225D01*
X126217117Y-81746061D01*
X126217118Y-81746063D01*
X126301951Y-81843967D01*
X126301952Y-81843968D01*
X126410926Y-81914001D01*
X126410931Y-81914004D01*
X126535228Y-81950500D01*
X126535230Y-81950500D01*
X126664770Y-81950500D01*
X126664772Y-81950500D01*
X126789069Y-81914004D01*
X126898049Y-81843967D01*
X126923812Y-81814234D01*
X138144500Y-81814234D01*
X138144500Y-81965766D01*
X138179086Y-82094847D01*
X138183720Y-82112139D01*
X138259481Y-82243360D01*
X138259483Y-82243362D01*
X138259485Y-82243365D01*
X138366635Y-82350515D01*
X138366637Y-82350516D01*
X138366639Y-82350518D01*
X138497861Y-82426279D01*
X138497859Y-82426279D01*
X138497863Y-82426280D01*
X138497865Y-82426281D01*
X138644234Y-82465500D01*
X138644236Y-82465500D01*
X138795764Y-82465500D01*
X138795766Y-82465500D01*
X138942135Y-82426281D01*
X138942137Y-82426279D01*
X138942139Y-82426279D01*
X139073360Y-82350518D01*
X139073360Y-82350517D01*
X139073365Y-82350515D01*
X139180515Y-82243365D01*
X139256281Y-82112135D01*
X139295500Y-81965766D01*
X139295500Y-81814234D01*
X139256281Y-81667865D01*
X139256279Y-81667862D01*
X139256279Y-81667860D01*
X139180518Y-81536639D01*
X139180516Y-81536637D01*
X139180515Y-81536635D01*
X139073365Y-81429485D01*
X139073362Y-81429483D01*
X139073360Y-81429481D01*
X138942138Y-81353720D01*
X138942140Y-81353720D01*
X138885347Y-81338503D01*
X138795766Y-81314500D01*
X138644234Y-81314500D01*
X138554652Y-81338503D01*
X138497860Y-81353720D01*
X138366639Y-81429481D01*
X138259481Y-81536639D01*
X138183720Y-81667860D01*
X138183719Y-81667865D01*
X138144500Y-81814234D01*
X126923812Y-81814234D01*
X126982882Y-81746063D01*
X127036697Y-81628226D01*
X127055133Y-81500000D01*
X127036697Y-81371774D01*
X126982882Y-81253937D01*
X126898049Y-81156033D01*
X126898048Y-81156032D01*
X126898047Y-81156031D01*
X126789073Y-81085998D01*
X126789070Y-81085996D01*
X126789069Y-81085996D01*
X126789066Y-81085995D01*
X126664774Y-81049500D01*
X126664772Y-81049500D01*
X126535228Y-81049500D01*
X126535225Y-81049500D01*
X126410933Y-81085995D01*
X126410926Y-81085998D01*
X126301952Y-81156031D01*
X126217117Y-81253938D01*
X126163302Y-81371774D01*
X126144867Y-81499997D01*
X113955133Y-81499997D01*
X113936697Y-81371774D01*
X113882882Y-81253937D01*
X113798049Y-81156033D01*
X113798048Y-81156032D01*
X113798047Y-81156031D01*
X113689073Y-81085998D01*
X113689070Y-81085996D01*
X113689069Y-81085996D01*
X113689066Y-81085995D01*
X113564774Y-81049500D01*
X113564772Y-81049500D01*
X113435228Y-81049500D01*
X113435225Y-81049500D01*
X113310933Y-81085995D01*
X113310926Y-81085998D01*
X113201952Y-81156031D01*
X113117117Y-81253938D01*
X113063302Y-81371774D01*
X113044867Y-81499997D01*
X107455133Y-81499997D01*
X107436697Y-81371774D01*
X107382882Y-81253937D01*
X107298049Y-81156033D01*
X107298048Y-81156032D01*
X107298047Y-81156031D01*
X107189073Y-81085998D01*
X107189070Y-81085996D01*
X107189069Y-81085996D01*
X107189066Y-81085995D01*
X107064774Y-81049500D01*
X107064772Y-81049500D01*
X106935228Y-81049500D01*
X106935225Y-81049500D01*
X106810933Y-81085995D01*
X106810926Y-81085998D01*
X106701952Y-81156031D01*
X106617117Y-81253938D01*
X106563302Y-81371774D01*
X106544867Y-81499997D01*
X102500500Y-81499997D01*
X102500500Y-80798820D01*
X118235287Y-80798820D01*
X118235287Y-80798825D01*
X118253722Y-80927048D01*
X118307537Y-81044884D01*
X118307538Y-81044886D01*
X118392371Y-81142790D01*
X118392372Y-81142791D01*
X118501346Y-81212824D01*
X118501351Y-81212827D01*
X118625648Y-81249323D01*
X118625650Y-81249323D01*
X118755190Y-81249323D01*
X118755192Y-81249323D01*
X118879489Y-81212827D01*
X118988469Y-81142790D01*
X119073302Y-81044886D01*
X119127117Y-80927049D01*
X119145553Y-80798823D01*
X119137967Y-80746063D01*
X119127117Y-80670597D01*
X119073302Y-80552760D01*
X119027583Y-80499997D01*
X130044867Y-80499997D01*
X130044867Y-80500002D01*
X130063302Y-80628225D01*
X130082653Y-80670597D01*
X130117118Y-80746063D01*
X130162836Y-80798825D01*
X130201952Y-80843968D01*
X130310926Y-80914001D01*
X130310931Y-80914004D01*
X130435228Y-80950500D01*
X130435230Y-80950500D01*
X130564770Y-80950500D01*
X130564772Y-80950500D01*
X130689069Y-80914004D01*
X130798049Y-80843967D01*
X130882882Y-80746063D01*
X130936697Y-80628226D01*
X130955133Y-80500000D01*
X130948642Y-80454856D01*
X130936697Y-80371774D01*
X130882882Y-80253938D01*
X130882882Y-80253937D01*
X130798049Y-80156033D01*
X130798048Y-80156032D01*
X130798047Y-80156031D01*
X130689073Y-80085998D01*
X130689070Y-80085996D01*
X130689069Y-80085996D01*
X130689066Y-80085995D01*
X130564774Y-80049500D01*
X130564772Y-80049500D01*
X130435228Y-80049500D01*
X130435225Y-80049500D01*
X130310933Y-80085995D01*
X130310926Y-80085998D01*
X130201952Y-80156031D01*
X130117117Y-80253938D01*
X130063302Y-80371774D01*
X130044867Y-80499997D01*
X119027583Y-80499997D01*
X118988469Y-80454856D01*
X118988468Y-80454855D01*
X118988467Y-80454854D01*
X118879493Y-80384821D01*
X118879490Y-80384819D01*
X118879489Y-80384819D01*
X118879486Y-80384818D01*
X118755194Y-80348323D01*
X118755192Y-80348323D01*
X118625648Y-80348323D01*
X118625645Y-80348323D01*
X118501353Y-80384818D01*
X118501346Y-80384821D01*
X118392372Y-80454854D01*
X118307537Y-80552761D01*
X118253722Y-80670597D01*
X118235287Y-80798820D01*
X102500500Y-80798820D01*
X102500500Y-78899997D01*
X113144867Y-78899997D01*
X113144867Y-78900002D01*
X113163302Y-79028225D01*
X113177159Y-79058566D01*
X113217118Y-79146063D01*
X113301951Y-79243967D01*
X113410931Y-79314004D01*
X113410936Y-79314005D01*
X113415627Y-79317020D01*
X113454358Y-79364386D01*
X113457852Y-79425472D01*
X113452158Y-79441431D01*
X113438299Y-79471776D01*
X113419865Y-79599997D01*
X113419865Y-79600002D01*
X113438300Y-79728225D01*
X113492115Y-79846061D01*
X113492116Y-79846063D01*
X113576949Y-79943967D01*
X113576950Y-79943968D01*
X113685924Y-80014001D01*
X113685929Y-80014004D01*
X113810226Y-80050500D01*
X113810228Y-80050500D01*
X113939768Y-80050500D01*
X113939770Y-80050500D01*
X114064067Y-80014004D01*
X114173047Y-79943967D01*
X114257880Y-79846063D01*
X114311695Y-79728226D01*
X114330131Y-79600000D01*
X114311695Y-79471774D01*
X114257880Y-79353937D01*
X114173047Y-79256033D01*
X114104921Y-79212251D01*
X114059370Y-79182977D01*
X114020639Y-79135611D01*
X114017147Y-79074525D01*
X114022841Y-79058566D01*
X114036697Y-79028226D01*
X114055133Y-78900000D01*
X114036697Y-78771774D01*
X113982882Y-78653937D01*
X113898049Y-78556033D01*
X113898048Y-78556032D01*
X113898047Y-78556031D01*
X113810856Y-78499997D01*
X118094867Y-78499997D01*
X118094867Y-78500002D01*
X118113302Y-78628225D01*
X118125045Y-78653937D01*
X118167118Y-78746063D01*
X118251951Y-78843967D01*
X118251952Y-78843968D01*
X118339140Y-78900000D01*
X118360931Y-78914004D01*
X118485228Y-78950500D01*
X118485230Y-78950500D01*
X118614770Y-78950500D01*
X118614772Y-78950500D01*
X118739069Y-78914004D01*
X118848049Y-78843967D01*
X118932882Y-78746063D01*
X118986697Y-78628226D01*
X119005133Y-78500000D01*
X119003119Y-78485995D01*
X118986697Y-78371774D01*
X118932882Y-78253938D01*
X118932882Y-78253937D01*
X118848049Y-78156033D01*
X118848048Y-78156032D01*
X118848047Y-78156031D01*
X118739073Y-78085998D01*
X118739070Y-78085996D01*
X118739069Y-78085996D01*
X118739066Y-78085995D01*
X118614774Y-78049500D01*
X118614772Y-78049500D01*
X118485228Y-78049500D01*
X118485225Y-78049500D01*
X118360933Y-78085995D01*
X118360926Y-78085998D01*
X118251952Y-78156031D01*
X118167117Y-78253938D01*
X118113302Y-78371774D01*
X118094867Y-78499997D01*
X113810856Y-78499997D01*
X113789073Y-78485998D01*
X113789070Y-78485996D01*
X113789069Y-78485996D01*
X113789066Y-78485995D01*
X113664774Y-78449500D01*
X113664772Y-78449500D01*
X113535228Y-78449500D01*
X113535225Y-78449500D01*
X113410933Y-78485995D01*
X113410926Y-78485998D01*
X113301952Y-78556031D01*
X113217117Y-78653938D01*
X113163302Y-78771774D01*
X113144867Y-78899997D01*
X102500500Y-78899997D01*
X102500500Y-76899997D01*
X111044867Y-76899997D01*
X111044867Y-76900002D01*
X111063302Y-77028225D01*
X111089686Y-77085996D01*
X111117118Y-77146063D01*
X111201951Y-77243967D01*
X111232441Y-77263562D01*
X111271171Y-77310926D01*
X111274665Y-77372012D01*
X111253737Y-77411675D01*
X111217118Y-77453936D01*
X111163302Y-77571774D01*
X111144867Y-77699997D01*
X111144867Y-77700002D01*
X111163302Y-77828225D01*
X111202477Y-77914004D01*
X111217118Y-77946063D01*
X111220962Y-77950499D01*
X111301952Y-78043968D01*
X111410926Y-78114001D01*
X111410931Y-78114004D01*
X111535228Y-78150500D01*
X111535230Y-78150500D01*
X111664770Y-78150500D01*
X111664772Y-78150500D01*
X111789069Y-78114004D01*
X111898049Y-78043967D01*
X111982882Y-77946063D01*
X112036697Y-77828226D01*
X112048510Y-77746063D01*
X112055133Y-77700002D01*
X112055133Y-77699997D01*
X112036697Y-77571774D01*
X112003919Y-77500002D01*
X112003917Y-77499997D01*
X130044867Y-77499997D01*
X130044867Y-77500002D01*
X130063302Y-77628225D01*
X130096080Y-77699997D01*
X130117118Y-77746063D01*
X130188311Y-77828225D01*
X130201952Y-77843968D01*
X130310926Y-77914001D01*
X130310931Y-77914004D01*
X130435228Y-77950500D01*
X130435230Y-77950500D01*
X130564770Y-77950500D01*
X130564772Y-77950500D01*
X130689069Y-77914004D01*
X130798049Y-77843967D01*
X130882882Y-77746063D01*
X130936697Y-77628226D01*
X130955133Y-77500000D01*
X130948510Y-77453938D01*
X130936697Y-77371774D01*
X130920559Y-77336438D01*
X130882882Y-77253937D01*
X130798049Y-77156033D01*
X130798048Y-77156032D01*
X130798047Y-77156031D01*
X130689073Y-77085998D01*
X130689070Y-77085996D01*
X130689069Y-77085996D01*
X130689066Y-77085995D01*
X130564774Y-77049500D01*
X130564772Y-77049500D01*
X130435228Y-77049500D01*
X130435225Y-77049500D01*
X130310933Y-77085995D01*
X130310926Y-77085998D01*
X130201952Y-77156031D01*
X130117117Y-77253938D01*
X130063302Y-77371774D01*
X130044867Y-77499997D01*
X112003917Y-77499997D01*
X111982882Y-77453937D01*
X111898049Y-77356033D01*
X111898048Y-77356032D01*
X111898047Y-77356031D01*
X111867559Y-77336438D01*
X111828828Y-77289072D01*
X111825334Y-77227987D01*
X111846259Y-77188327D01*
X111882882Y-77146063D01*
X111936697Y-77028226D01*
X111955133Y-76900000D01*
X111936697Y-76771774D01*
X111882882Y-76653937D01*
X111798049Y-76556033D01*
X111798048Y-76556032D01*
X111798047Y-76556031D01*
X111689073Y-76485998D01*
X111689070Y-76485996D01*
X111689069Y-76485996D01*
X111689066Y-76485995D01*
X111564774Y-76449500D01*
X111564772Y-76449500D01*
X111435228Y-76449500D01*
X111435225Y-76449500D01*
X111310933Y-76485995D01*
X111310926Y-76485998D01*
X111201952Y-76556031D01*
X111117117Y-76653938D01*
X111063302Y-76771774D01*
X111044867Y-76899997D01*
X102500500Y-76899997D01*
X102500500Y-76034234D01*
X138144500Y-76034234D01*
X138144500Y-76185766D01*
X138179086Y-76314847D01*
X138183720Y-76332139D01*
X138259481Y-76463360D01*
X138259483Y-76463362D01*
X138259485Y-76463365D01*
X138366635Y-76570515D01*
X138366637Y-76570516D01*
X138366639Y-76570518D01*
X138497861Y-76646279D01*
X138497859Y-76646279D01*
X138497863Y-76646280D01*
X138497865Y-76646281D01*
X138644234Y-76685500D01*
X138644236Y-76685500D01*
X138795764Y-76685500D01*
X138795766Y-76685500D01*
X138942135Y-76646281D01*
X138942137Y-76646279D01*
X138942139Y-76646279D01*
X139073360Y-76570518D01*
X139073360Y-76570517D01*
X139073365Y-76570515D01*
X139180515Y-76463365D01*
X139256281Y-76332135D01*
X139295500Y-76185766D01*
X139295500Y-76034234D01*
X139256281Y-75887865D01*
X139256279Y-75887862D01*
X139256279Y-75887860D01*
X139180518Y-75756639D01*
X139180516Y-75756637D01*
X139180515Y-75756635D01*
X139073365Y-75649485D01*
X139073362Y-75649483D01*
X139073360Y-75649481D01*
X138942138Y-75573720D01*
X138942140Y-75573720D01*
X138885347Y-75558503D01*
X138795766Y-75534500D01*
X138644234Y-75534500D01*
X138554652Y-75558503D01*
X138497860Y-75573720D01*
X138366639Y-75649481D01*
X138259481Y-75756639D01*
X138183720Y-75887860D01*
X138183719Y-75887865D01*
X138144500Y-76034234D01*
X102500500Y-76034234D01*
X102500500Y-73099997D01*
X109544867Y-73099997D01*
X109544867Y-73100002D01*
X109563302Y-73228225D01*
X109596081Y-73300000D01*
X109617118Y-73346063D01*
X109701951Y-73443967D01*
X109701952Y-73443968D01*
X109810926Y-73514001D01*
X109810931Y-73514004D01*
X109935228Y-73550500D01*
X109935230Y-73550500D01*
X110064770Y-73550500D01*
X110064772Y-73550500D01*
X110189069Y-73514004D01*
X110298049Y-73443967D01*
X110382882Y-73346063D01*
X110403919Y-73299998D01*
X132144722Y-73299998D01*
X132144722Y-73300001D01*
X132163762Y-73456816D01*
X132163763Y-73456818D01*
X132199292Y-73550500D01*
X132219780Y-73604523D01*
X132309515Y-73734528D01*
X132309516Y-73734529D01*
X132309517Y-73734530D01*
X132427760Y-73839283D01*
X132567635Y-73912696D01*
X132721015Y-73950500D01*
X132721018Y-73950500D01*
X132878982Y-73950500D01*
X132878985Y-73950500D01*
X133032365Y-73912696D01*
X133172240Y-73839283D01*
X133290483Y-73734530D01*
X133380220Y-73604523D01*
X133436237Y-73456818D01*
X133455278Y-73300000D01*
X133436237Y-73143182D01*
X133380220Y-72995477D01*
X133290483Y-72865470D01*
X133172240Y-72760717D01*
X133102302Y-72724010D01*
X133032364Y-72687303D01*
X132878987Y-72649500D01*
X132878985Y-72649500D01*
X132721015Y-72649500D01*
X132721012Y-72649500D01*
X132567635Y-72687303D01*
X132427758Y-72760718D01*
X132309515Y-72865471D01*
X132219780Y-72995476D01*
X132163763Y-73143182D01*
X132163762Y-73143183D01*
X132144722Y-73299998D01*
X110403919Y-73299998D01*
X110436697Y-73228226D01*
X110448924Y-73143183D01*
X110455133Y-73100002D01*
X110455133Y-73099997D01*
X110436697Y-72971774D01*
X110382882Y-72853938D01*
X110382882Y-72853937D01*
X110298049Y-72756033D01*
X110298048Y-72756032D01*
X110298047Y-72756031D01*
X110189073Y-72685998D01*
X110189070Y-72685996D01*
X110189069Y-72685996D01*
X110189066Y-72685995D01*
X110064774Y-72649500D01*
X110064772Y-72649500D01*
X109935228Y-72649500D01*
X109935225Y-72649500D01*
X109810933Y-72685995D01*
X109810926Y-72685998D01*
X109701952Y-72756031D01*
X109617117Y-72853938D01*
X109563302Y-72971774D01*
X109544867Y-73099997D01*
X102500500Y-73099997D01*
X102500500Y-71499997D01*
X115344867Y-71499997D01*
X115344867Y-71500002D01*
X115363302Y-71628225D01*
X115417117Y-71746061D01*
X115417118Y-71746063D01*
X115501951Y-71843967D01*
X115501952Y-71843968D01*
X115610926Y-71914001D01*
X115610931Y-71914004D01*
X115735228Y-71950500D01*
X115735230Y-71950500D01*
X115864770Y-71950500D01*
X115864772Y-71950500D01*
X115989069Y-71914004D01*
X116098049Y-71843967D01*
X116182882Y-71746063D01*
X116236697Y-71628226D01*
X116255133Y-71500000D01*
X116255133Y-71499997D01*
X116944867Y-71499997D01*
X116944867Y-71500002D01*
X116963302Y-71628225D01*
X117017117Y-71746061D01*
X117017118Y-71746063D01*
X117101951Y-71843967D01*
X117101952Y-71843968D01*
X117210926Y-71914001D01*
X117210931Y-71914004D01*
X117335228Y-71950500D01*
X117335230Y-71950500D01*
X117464770Y-71950500D01*
X117464772Y-71950500D01*
X117589069Y-71914004D01*
X117698049Y-71843967D01*
X117782882Y-71746063D01*
X117836697Y-71628226D01*
X117855133Y-71500000D01*
X117836697Y-71371774D01*
X117782882Y-71253937D01*
X117698049Y-71156033D01*
X117698048Y-71156032D01*
X117698047Y-71156031D01*
X117589073Y-71085998D01*
X117589070Y-71085996D01*
X117589069Y-71085996D01*
X117589066Y-71085995D01*
X117464774Y-71049500D01*
X117464772Y-71049500D01*
X117335228Y-71049500D01*
X117335225Y-71049500D01*
X117210933Y-71085995D01*
X117210926Y-71085998D01*
X117101952Y-71156031D01*
X117017117Y-71253938D01*
X116963302Y-71371774D01*
X116944867Y-71499997D01*
X116255133Y-71499997D01*
X116236697Y-71371774D01*
X116182882Y-71253937D01*
X116098049Y-71156033D01*
X116098048Y-71156032D01*
X116098047Y-71156031D01*
X115989073Y-71085998D01*
X115989070Y-71085996D01*
X115989069Y-71085996D01*
X115989066Y-71085995D01*
X115864774Y-71049500D01*
X115864772Y-71049500D01*
X115735228Y-71049500D01*
X115735225Y-71049500D01*
X115610933Y-71085995D01*
X115610926Y-71085998D01*
X115501952Y-71156031D01*
X115417117Y-71253938D01*
X115363302Y-71371774D01*
X115344867Y-71499997D01*
X102500500Y-71499997D01*
X102500500Y-69799997D01*
X129944867Y-69799997D01*
X129944867Y-69800002D01*
X129963302Y-69928225D01*
X130002477Y-70014004D01*
X130017118Y-70046063D01*
X130020962Y-70050499D01*
X130101952Y-70143968D01*
X130210926Y-70214001D01*
X130210931Y-70214004D01*
X130335228Y-70250500D01*
X130335230Y-70250500D01*
X130464770Y-70250500D01*
X130464772Y-70250500D01*
X130589069Y-70214004D01*
X130698049Y-70143967D01*
X130782882Y-70046063D01*
X130836697Y-69928226D01*
X130848510Y-69846063D01*
X130855133Y-69800002D01*
X130855133Y-69799997D01*
X130836697Y-69671774D01*
X130803919Y-69600002D01*
X130803917Y-69599997D01*
X132544867Y-69599997D01*
X132544867Y-69600002D01*
X132563302Y-69728225D01*
X132596080Y-69799997D01*
X132617118Y-69846063D01*
X132688311Y-69928225D01*
X132701952Y-69943968D01*
X132810926Y-70014001D01*
X132810931Y-70014004D01*
X132935228Y-70050500D01*
X132935230Y-70050500D01*
X133064770Y-70050500D01*
X133064772Y-70050500D01*
X133189069Y-70014004D01*
X133298049Y-69943967D01*
X133382882Y-69846063D01*
X133436697Y-69728226D01*
X133455133Y-69600000D01*
X133448510Y-69553938D01*
X133436697Y-69471774D01*
X133397523Y-69385996D01*
X133382882Y-69353937D01*
X133298049Y-69256033D01*
X133298048Y-69256032D01*
X133298047Y-69256031D01*
X133189073Y-69185998D01*
X133189070Y-69185996D01*
X133189069Y-69185996D01*
X133189066Y-69185995D01*
X133064774Y-69149500D01*
X133064772Y-69149500D01*
X132935228Y-69149500D01*
X132935225Y-69149500D01*
X132810933Y-69185995D01*
X132810926Y-69185998D01*
X132701952Y-69256031D01*
X132617117Y-69353938D01*
X132563302Y-69471774D01*
X132544867Y-69599997D01*
X130803917Y-69599997D01*
X130782882Y-69553937D01*
X130698049Y-69456033D01*
X130698048Y-69456032D01*
X130698047Y-69456031D01*
X130589073Y-69385998D01*
X130589070Y-69385996D01*
X130589069Y-69385996D01*
X130589066Y-69385995D01*
X130464774Y-69349500D01*
X130464772Y-69349500D01*
X130335228Y-69349500D01*
X130335225Y-69349500D01*
X130210933Y-69385995D01*
X130210926Y-69385998D01*
X130101952Y-69456031D01*
X130017117Y-69553938D01*
X129963302Y-69671774D01*
X129944867Y-69799997D01*
X102500500Y-69799997D01*
X102500500Y-68524997D01*
X114744867Y-68524997D01*
X114744867Y-68525002D01*
X114763302Y-68653225D01*
X114784664Y-68700000D01*
X114817118Y-68771063D01*
X114901951Y-68868967D01*
X114901952Y-68868968D01*
X115010926Y-68939001D01*
X115010931Y-68939004D01*
X115135228Y-68975500D01*
X115135230Y-68975500D01*
X115264770Y-68975500D01*
X115264772Y-68975500D01*
X115389069Y-68939004D01*
X115498049Y-68868967D01*
X115582882Y-68771063D01*
X115615337Y-68699997D01*
X123744867Y-68699997D01*
X123744867Y-68700002D01*
X123763302Y-68828225D01*
X123781909Y-68868967D01*
X123817118Y-68946063D01*
X123842625Y-68975500D01*
X123901952Y-69043968D01*
X124010926Y-69114001D01*
X124010931Y-69114004D01*
X124135228Y-69150500D01*
X124135230Y-69150500D01*
X124264770Y-69150500D01*
X124264772Y-69150500D01*
X124389069Y-69114004D01*
X124498049Y-69043967D01*
X124582882Y-68946063D01*
X124636697Y-68828226D01*
X124655133Y-68700000D01*
X124636697Y-68571774D01*
X124582882Y-68453937D01*
X124498049Y-68356033D01*
X124498048Y-68356032D01*
X124498047Y-68356031D01*
X124389073Y-68285998D01*
X124389070Y-68285996D01*
X124389069Y-68285996D01*
X124389066Y-68285995D01*
X124264774Y-68249500D01*
X124264772Y-68249500D01*
X124135228Y-68249500D01*
X124135225Y-68249500D01*
X124010933Y-68285995D01*
X124010926Y-68285998D01*
X123901952Y-68356031D01*
X123817117Y-68453938D01*
X123763302Y-68571774D01*
X123744867Y-68699997D01*
X115615337Y-68699997D01*
X115636697Y-68653226D01*
X115655133Y-68525000D01*
X115636697Y-68396774D01*
X115582882Y-68278937D01*
X115498049Y-68181033D01*
X115498048Y-68181032D01*
X115498047Y-68181031D01*
X115389073Y-68110998D01*
X115389070Y-68110996D01*
X115389069Y-68110996D01*
X115389066Y-68110995D01*
X115264774Y-68074500D01*
X115264772Y-68074500D01*
X115135228Y-68074500D01*
X115135225Y-68074500D01*
X115010933Y-68110995D01*
X115010926Y-68110998D01*
X114901952Y-68181031D01*
X114817117Y-68278938D01*
X114763302Y-68396774D01*
X114744867Y-68524997D01*
X102500500Y-68524997D01*
X102500500Y-65999997D01*
X114644867Y-65999997D01*
X114644867Y-66000002D01*
X114663302Y-66128225D01*
X114717117Y-66246061D01*
X114717118Y-66246063D01*
X114801951Y-66343967D01*
X114801952Y-66343968D01*
X114899656Y-66406758D01*
X114910931Y-66414004D01*
X115035228Y-66450500D01*
X115035230Y-66450500D01*
X115164770Y-66450500D01*
X115164772Y-66450500D01*
X115289069Y-66414004D01*
X115398049Y-66343967D01*
X115479471Y-66249999D01*
X116869318Y-66249999D01*
X116869318Y-66250000D01*
X116889955Y-66406758D01*
X116889957Y-66406766D01*
X116950462Y-66552838D01*
X116950462Y-66552839D01*
X116950464Y-66552841D01*
X117046718Y-66678282D01*
X117172159Y-66774536D01*
X117318238Y-66835044D01*
X117435809Y-66850522D01*
X117474999Y-66855682D01*
X117475000Y-66855682D01*
X117475001Y-66855682D01*
X117506352Y-66851554D01*
X117631762Y-66835044D01*
X117777841Y-66774536D01*
X117903282Y-66678282D01*
X117999536Y-66552841D01*
X118060044Y-66406762D01*
X118080682Y-66250000D01*
X118080163Y-66246061D01*
X118060044Y-66093241D01*
X118060044Y-66093238D01*
X118021424Y-66000002D01*
X117999537Y-65947161D01*
X117999537Y-65947160D01*
X117903286Y-65821723D01*
X117903285Y-65821722D01*
X117903282Y-65821718D01*
X117903277Y-65821714D01*
X117903276Y-65821713D01*
X117777838Y-65725462D01*
X117631766Y-65664957D01*
X117631758Y-65664955D01*
X117475001Y-65644318D01*
X117474999Y-65644318D01*
X117318241Y-65664955D01*
X117318233Y-65664957D01*
X117172161Y-65725462D01*
X117172160Y-65725462D01*
X117046723Y-65821713D01*
X117046713Y-65821723D01*
X116950462Y-65947160D01*
X116950462Y-65947161D01*
X116889957Y-66093233D01*
X116889955Y-66093241D01*
X116869318Y-66249999D01*
X115479471Y-66249999D01*
X115482882Y-66246063D01*
X115536697Y-66128226D01*
X115555133Y-66000000D01*
X115536697Y-65871774D01*
X115482882Y-65753937D01*
X115398049Y-65656033D01*
X115398048Y-65656032D01*
X115398047Y-65656031D01*
X115289073Y-65585998D01*
X115289070Y-65585996D01*
X115289069Y-65585996D01*
X115289066Y-65585995D01*
X115164774Y-65549500D01*
X115164772Y-65549500D01*
X115035228Y-65549500D01*
X115035225Y-65549500D01*
X114910933Y-65585995D01*
X114910926Y-65585998D01*
X114801952Y-65656031D01*
X114717117Y-65753938D01*
X114663302Y-65871774D01*
X114644867Y-65999997D01*
X102500500Y-65999997D01*
X102500500Y-60750000D01*
X121900000Y-60750000D01*
X121919698Y-61000293D01*
X121978310Y-61244428D01*
X122074388Y-61476382D01*
X122074394Y-61476394D01*
X122205569Y-61690450D01*
X122205570Y-61690452D01*
X122205571Y-61690454D01*
X122205573Y-61690456D01*
X122368629Y-61881371D01*
X122559544Y-62044427D01*
X122559546Y-62044428D01*
X122559547Y-62044429D01*
X122559549Y-62044430D01*
X122773605Y-62175605D01*
X122773617Y-62175611D01*
X123005571Y-62271689D01*
X123005573Y-62271690D01*
X123249705Y-62330301D01*
X123500000Y-62350000D01*
X123750295Y-62330301D01*
X123994427Y-62271690D01*
X124226385Y-62175610D01*
X124226389Y-62175607D01*
X124226394Y-62175605D01*
X124318912Y-62118908D01*
X124440456Y-62044427D01*
X124631371Y-61881371D01*
X124794427Y-61690456D01*
X124868908Y-61568912D01*
X124925605Y-61476394D01*
X124925607Y-61476389D01*
X124925610Y-61476385D01*
X125021690Y-61244427D01*
X125080301Y-61000295D01*
X125100000Y-60750000D01*
X125080301Y-60499705D01*
X125021690Y-60255573D01*
X124925610Y-60023615D01*
X124925605Y-60023605D01*
X124794430Y-59809549D01*
X124794429Y-59809547D01*
X124794428Y-59809546D01*
X124794427Y-59809544D01*
X124631371Y-59618629D01*
X124631364Y-59618623D01*
X124631361Y-59618620D01*
X124440452Y-59455570D01*
X124440450Y-59455569D01*
X124226394Y-59324394D01*
X124226382Y-59324388D01*
X123994428Y-59228310D01*
X123994429Y-59228310D01*
X123750293Y-59169698D01*
X123500000Y-59150000D01*
X123249706Y-59169698D01*
X123005571Y-59228310D01*
X122773617Y-59324388D01*
X122773605Y-59324394D01*
X122559549Y-59455569D01*
X122559547Y-59455570D01*
X122368638Y-59618620D01*
X122368620Y-59618638D01*
X122205570Y-59809547D01*
X122205569Y-59809549D01*
X122074394Y-60023605D01*
X122074388Y-60023617D01*
X121978310Y-60255571D01*
X121919698Y-60499706D01*
X121900000Y-60750000D01*
X102500500Y-60750000D01*
X102500500Y-56963739D01*
X102519407Y-56905548D01*
X102568907Y-56869584D01*
X102630093Y-56869584D01*
X102679591Y-56905547D01*
X102779207Y-57042656D01*
X102957344Y-57220793D01*
X103161155Y-57368870D01*
X103385621Y-57483241D01*
X103625215Y-57561090D01*
X103625216Y-57561090D01*
X103625219Y-57561091D01*
X103874035Y-57600500D01*
X103874038Y-57600500D01*
X104125965Y-57600500D01*
X104374780Y-57561091D01*
X104374781Y-57561090D01*
X104374785Y-57561090D01*
X104614379Y-57483241D01*
X104838845Y-57368870D01*
X105042656Y-57220793D01*
X105220793Y-57042656D01*
X105368870Y-56838845D01*
X105483241Y-56614379D01*
X105561090Y-56374785D01*
X105600500Y-56125962D01*
X105600500Y-55874038D01*
X105600500Y-55874034D01*
X105561091Y-55625219D01*
X105561090Y-55625215D01*
X105483241Y-55385621D01*
X105368870Y-55161155D01*
X105220793Y-54957344D01*
X105042656Y-54779207D01*
X104905547Y-54679591D01*
X104869584Y-54630093D01*
X104869584Y-54568907D01*
X104905548Y-54519407D01*
X104963739Y-54500500D01*
X142036261Y-54500500D01*
X142094452Y-54519407D01*
G37*
%TD.AperFunction*%
%TD*%
M02*
