%TF.GenerationSoftware,KiCad,Pcbnew,7.0.6*%
%TF.CreationDate,2023-12-03T11:26:54-05:00*%
%TF.ProjectId,oe-commutator-controller,6f652d63-6f6d-46d7-9574-61746f722d63,C*%
%TF.SameCoordinates,Original*%
%TF.FileFunction,Soldermask,Bot*%
%TF.FilePolarity,Negative*%
%FSLAX46Y46*%
G04 Gerber Fmt 4.6, Leading zero omitted, Abs format (unit mm)*
G04 Created by KiCad (PCBNEW 7.0.6) date 2023-12-03 11:26:54*
%MOMM*%
%LPD*%
G01*
G04 APERTURE LIST*
%ADD10C,1.600000*%
%ADD11C,2.700000*%
G04 APERTURE END LIST*
D10*
X124300000Y-60750000D02*
G75*
G03*
X124300000Y-60750000I-800000J0D01*
G01*
%TO.C,G\u002A\u002A\u002A*%
G36*
X127811272Y-145926557D02*
G01*
X127807794Y-145951485D01*
X127781533Y-146034150D01*
X127734888Y-146125413D01*
X127673202Y-146206820D01*
X127598156Y-146276566D01*
X127511432Y-146332844D01*
X127414710Y-146373847D01*
X127412710Y-146374487D01*
X127353122Y-146387963D01*
X127282510Y-146395681D01*
X127208021Y-146397458D01*
X127136800Y-146393114D01*
X127075995Y-146382466D01*
X126997391Y-146355333D01*
X126908980Y-146306992D01*
X126829512Y-146243118D01*
X126760503Y-146165203D01*
X126703469Y-146074739D01*
X126659929Y-145973217D01*
X126658814Y-145969881D01*
X126655168Y-145957499D01*
X126652083Y-145943391D01*
X126649514Y-145925964D01*
X126647414Y-145903622D01*
X126646138Y-145881677D01*
X126921318Y-145881677D01*
X126944229Y-145932366D01*
X126958140Y-145957911D01*
X126992380Y-146003062D01*
X127035107Y-146045497D01*
X127080992Y-146080201D01*
X127124708Y-146102163D01*
X127174396Y-146113928D01*
X127239031Y-146117914D01*
X127302417Y-146111244D01*
X127356985Y-146094178D01*
X127371431Y-146086870D01*
X127427813Y-146047489D01*
X127477493Y-145996296D01*
X127514425Y-145939241D01*
X127538010Y-145891313D01*
X127538010Y-145356525D01*
X127538010Y-144821738D01*
X127514425Y-144773810D01*
X127506712Y-144759310D01*
X127466023Y-144703163D01*
X127414098Y-144654367D01*
X127356985Y-144618873D01*
X127311968Y-144603852D01*
X127249487Y-144595496D01*
X127184543Y-144597754D01*
X127124708Y-144610887D01*
X127099834Y-144621832D01*
X127054207Y-144651820D01*
X127009513Y-144691633D01*
X126971077Y-144736259D01*
X126944229Y-144780685D01*
X126921318Y-144831373D01*
X126921318Y-145356525D01*
X126921318Y-145881677D01*
X126646138Y-145881677D01*
X126645736Y-145874770D01*
X126644433Y-145837812D01*
X126643458Y-145791154D01*
X126642765Y-145733201D01*
X126642308Y-145662356D01*
X126642039Y-145577025D01*
X126641912Y-145475613D01*
X126641880Y-145356525D01*
X126641882Y-145321709D01*
X126641935Y-145207672D01*
X126642097Y-145110870D01*
X126642414Y-145029707D01*
X126642931Y-144962590D01*
X126643697Y-144907922D01*
X126644758Y-144864108D01*
X126646161Y-144829553D01*
X126647951Y-144802662D01*
X126650177Y-144781839D01*
X126652883Y-144765491D01*
X126656119Y-144752020D01*
X126659929Y-144739833D01*
X126694837Y-144655313D01*
X126749620Y-144562807D01*
X126816644Y-144482590D01*
X126894392Y-144416152D01*
X126981348Y-144364986D01*
X127075995Y-144330585D01*
X127087541Y-144327880D01*
X127141337Y-144320135D01*
X127205002Y-144316524D01*
X127271438Y-144317050D01*
X127333544Y-144321715D01*
X127384222Y-144330520D01*
X127406085Y-144336580D01*
X127500933Y-144374613D01*
X127587252Y-144428442D01*
X127663070Y-144496059D01*
X127726415Y-144575457D01*
X127775314Y-144664628D01*
X127807794Y-144761565D01*
X127811153Y-144785273D01*
X127814211Y-144826618D01*
X127816833Y-144882768D01*
X127819019Y-144951454D01*
X127820770Y-145030403D01*
X127822085Y-145117343D01*
X127822964Y-145210004D01*
X127823408Y-145306113D01*
X127823416Y-145403400D01*
X127822988Y-145499592D01*
X127822125Y-145592419D01*
X127820826Y-145679607D01*
X127819091Y-145758887D01*
X127816920Y-145827986D01*
X127814314Y-145884634D01*
X127813829Y-145891313D01*
X127811272Y-145926557D01*
G37*
G36*
X113752842Y-144311741D02*
G01*
X113844006Y-144331817D01*
X113931275Y-144367778D01*
X114012645Y-144419378D01*
X114086109Y-144486368D01*
X114149659Y-144568500D01*
X114175403Y-144613534D01*
X114209708Y-144701726D01*
X114227714Y-144794942D01*
X114229710Y-144890267D01*
X114215987Y-144984785D01*
X114186835Y-145075580D01*
X114142544Y-145159738D01*
X114083404Y-145234341D01*
X114076416Y-145240844D01*
X114052399Y-145260630D01*
X114015987Y-145288944D01*
X113969387Y-145324128D01*
X113914802Y-145364528D01*
X113854438Y-145408486D01*
X113790499Y-145454348D01*
X113730382Y-145497291D01*
X113663649Y-145545675D01*
X113609980Y-145585931D01*
X113567762Y-145619630D01*
X113535381Y-145648349D01*
X113511224Y-145673660D01*
X113493676Y-145697137D01*
X113481126Y-145720355D01*
X113471958Y-145744887D01*
X113464561Y-145772308D01*
X113460627Y-145791145D01*
X113456973Y-145862797D01*
X113471982Y-145930090D01*
X113505422Y-145992332D01*
X113557061Y-146048831D01*
X113560858Y-146052122D01*
X113620504Y-146091489D01*
X113685950Y-146112517D01*
X113757899Y-146115438D01*
X113820213Y-146103961D01*
X113884341Y-146075229D01*
X113942143Y-146029121D01*
X113994780Y-145964900D01*
X114029376Y-145929707D01*
X114072577Y-145910786D01*
X114121877Y-145908871D01*
X114174909Y-145924492D01*
X114184673Y-145929328D01*
X114219116Y-145957006D01*
X114238993Y-145995779D01*
X114245317Y-146047416D01*
X114243305Y-146071765D01*
X114225380Y-146126344D01*
X114188761Y-146183562D01*
X114133293Y-146243695D01*
X114100379Y-146272959D01*
X114015930Y-146331404D01*
X113923922Y-146372455D01*
X113822685Y-146396935D01*
X113795882Y-146399979D01*
X113731416Y-146401296D01*
X113662930Y-146396246D01*
X113599808Y-146385319D01*
X113581043Y-146380423D01*
X113491849Y-146345670D01*
X113409200Y-146294790D01*
X113335404Y-146230087D01*
X113272765Y-146153865D01*
X113223589Y-146068427D01*
X113190181Y-145976077D01*
X113184618Y-145949745D01*
X113177862Y-145888304D01*
X113176584Y-145820539D01*
X113180776Y-145754494D01*
X113190431Y-145698212D01*
X113195958Y-145678215D01*
X113228670Y-145593467D01*
X113273713Y-145513482D01*
X113327329Y-145445209D01*
X113354254Y-145419771D01*
X113398438Y-145383215D01*
X113457171Y-145338142D01*
X113529447Y-145285324D01*
X113614262Y-145225528D01*
X113625822Y-145217492D01*
X113685699Y-145175631D01*
X113741180Y-145136464D01*
X113789970Y-145101639D01*
X113829773Y-145072802D01*
X113858294Y-145051601D01*
X113873239Y-145039684D01*
X113901592Y-145007602D01*
X113929837Y-144953614D01*
X113944313Y-144893080D01*
X113945096Y-144829982D01*
X113932262Y-144768305D01*
X113905889Y-144712031D01*
X113866052Y-144665145D01*
X113828422Y-144635995D01*
X113766144Y-144604275D01*
X113701883Y-144591687D01*
X113635210Y-144598173D01*
X113565699Y-144623674D01*
X113559630Y-144626699D01*
X113521063Y-144649176D01*
X113491723Y-144674918D01*
X113463248Y-144711059D01*
X113439071Y-144742075D01*
X113405339Y-144772132D01*
X113368459Y-144787857D01*
X113323955Y-144791847D01*
X113305558Y-144790393D01*
X113260000Y-144775733D01*
X113224828Y-144747862D01*
X113201479Y-144709817D01*
X113191386Y-144664633D01*
X113195986Y-144615346D01*
X113216714Y-144564992D01*
X113220149Y-144559475D01*
X113241694Y-144530605D01*
X113271058Y-144496684D01*
X113302926Y-144463942D01*
X113308857Y-144458327D01*
X113389388Y-144395256D01*
X113476059Y-144349309D01*
X113566863Y-144320240D01*
X113659793Y-144307800D01*
X113752842Y-144311741D01*
G37*
G36*
X115792384Y-144325480D02*
G01*
X115830286Y-144355672D01*
X115855199Y-144396516D01*
X115864188Y-144444672D01*
X115864107Y-144445907D01*
X115860458Y-144463596D01*
X115851637Y-144498282D01*
X115838000Y-144548728D01*
X115819903Y-144613698D01*
X115797699Y-144691957D01*
X115771743Y-144782268D01*
X115742391Y-144883395D01*
X115709998Y-144994102D01*
X115674918Y-145113153D01*
X115637506Y-145239312D01*
X115598118Y-145371342D01*
X115332011Y-146260738D01*
X115416380Y-146543362D01*
X115423785Y-146568080D01*
X115445323Y-146638999D01*
X115465623Y-146704472D01*
X115483851Y-146761890D01*
X115499169Y-146808642D01*
X115510742Y-146842119D01*
X115517733Y-146859712D01*
X115528171Y-146878370D01*
X115572042Y-146932193D01*
X115629540Y-146975506D01*
X115697696Y-147006414D01*
X115773541Y-147023021D01*
X115775386Y-147023233D01*
X115814137Y-147029505D01*
X115847912Y-147038049D01*
X115869585Y-147047080D01*
X115895427Y-147069337D01*
X115920260Y-147109344D01*
X115931042Y-147155176D01*
X115927623Y-147202356D01*
X115909850Y-147246402D01*
X115877571Y-147282837D01*
X115863617Y-147291978D01*
X115843838Y-147298769D01*
X115815555Y-147302084D01*
X115773409Y-147302959D01*
X115728344Y-147301338D01*
X115630752Y-147285309D01*
X115539588Y-147251732D01*
X115453697Y-147200108D01*
X115371923Y-147129939D01*
X115326394Y-147080341D01*
X115287733Y-147027090D01*
X115255089Y-146967380D01*
X115226142Y-146896949D01*
X115198569Y-146811533D01*
X115194608Y-146798119D01*
X115184450Y-146763932D01*
X115169396Y-146713411D01*
X115149824Y-146647815D01*
X115126110Y-146568403D01*
X115098629Y-146476433D01*
X115067759Y-146373163D01*
X115033876Y-146259852D01*
X114997354Y-146137759D01*
X114958572Y-146008141D01*
X114917905Y-145872259D01*
X114875729Y-145731369D01*
X114832421Y-145586731D01*
X114798225Y-145472442D01*
X114756746Y-145333541D01*
X114717109Y-145200513D01*
X114679650Y-145074501D01*
X114644707Y-144956649D01*
X114612616Y-144848102D01*
X114583715Y-144750004D01*
X114558340Y-144663497D01*
X114536828Y-144589727D01*
X114519517Y-144529837D01*
X114506742Y-144484971D01*
X114498841Y-144456273D01*
X114496150Y-144444887D01*
X114496934Y-144438282D01*
X114503713Y-144414131D01*
X114515137Y-144385301D01*
X114527530Y-144363813D01*
X114560445Y-144332162D01*
X114601682Y-144314068D01*
X114647048Y-144310241D01*
X114692349Y-144321395D01*
X114733390Y-144348242D01*
X114734630Y-144349410D01*
X114740886Y-144355988D01*
X114747086Y-144364295D01*
X114753657Y-144375620D01*
X114761030Y-144391248D01*
X114769634Y-144412469D01*
X114779897Y-144440568D01*
X114792249Y-144476833D01*
X114807121Y-144522551D01*
X114824940Y-144579009D01*
X114846136Y-144647494D01*
X114871139Y-144729294D01*
X114900377Y-144825695D01*
X114934281Y-144937985D01*
X114973280Y-145067451D01*
X114974262Y-145070715D01*
X115007682Y-145181729D01*
X115039473Y-145287330D01*
X115069197Y-145386070D01*
X115096420Y-145476497D01*
X115120705Y-145557165D01*
X115141616Y-145626624D01*
X115158716Y-145683425D01*
X115171569Y-145726119D01*
X115179740Y-145753257D01*
X115182792Y-145763390D01*
X115185558Y-145756276D01*
X115193395Y-145732117D01*
X115205858Y-145692266D01*
X115222514Y-145638150D01*
X115242931Y-145571193D01*
X115266675Y-145492822D01*
X115293314Y-145404461D01*
X115322413Y-145307538D01*
X115353541Y-145203476D01*
X115386263Y-145093701D01*
X115415600Y-144995429D01*
X115447782Y-144888361D01*
X115478363Y-144787370D01*
X115506865Y-144694009D01*
X115532804Y-144609827D01*
X115555702Y-144536376D01*
X115575076Y-144475206D01*
X115590446Y-144427870D01*
X115601332Y-144395918D01*
X115607252Y-144380900D01*
X115624976Y-144356591D01*
X115660977Y-144328289D01*
X115703265Y-144311464D01*
X115745416Y-144309439D01*
X115792384Y-144325480D01*
G37*
G36*
X122681148Y-144335236D02*
G01*
X122753748Y-144335774D01*
X122811232Y-144337076D01*
X122855657Y-144339475D01*
X122889083Y-144343303D01*
X122913567Y-144348893D01*
X122931167Y-144356576D01*
X122943942Y-144366686D01*
X122953948Y-144379555D01*
X122963245Y-144395516D01*
X122965866Y-144401053D01*
X122968392Y-144408852D01*
X122970606Y-144419643D01*
X122972528Y-144434591D01*
X122974178Y-144454857D01*
X122975577Y-144481603D01*
X122976746Y-144515994D01*
X122977704Y-144559192D01*
X122978473Y-144612358D01*
X122979073Y-144676657D01*
X122979525Y-144753251D01*
X122979848Y-144843303D01*
X122980064Y-144947975D01*
X122980193Y-145068431D01*
X122980255Y-145205833D01*
X122980271Y-145361343D01*
X122980272Y-145398652D01*
X122980284Y-145553623D01*
X122980261Y-145690714D01*
X122980140Y-145811059D01*
X122979857Y-145915794D01*
X122979348Y-146006054D01*
X122978549Y-146082976D01*
X122977398Y-146147695D01*
X122975830Y-146201348D01*
X122973781Y-146245068D01*
X122971189Y-146279993D01*
X122967989Y-146307258D01*
X122964117Y-146327998D01*
X122959511Y-146343349D01*
X122954105Y-146354448D01*
X122947838Y-146362429D01*
X122940644Y-146368428D01*
X122932461Y-146373582D01*
X122923224Y-146379025D01*
X122891260Y-146391706D01*
X122838478Y-146397157D01*
X122824252Y-146397008D01*
X122794583Y-146394063D01*
X122772521Y-146385169D01*
X122749581Y-146367493D01*
X122743352Y-146361612D01*
X122720190Y-146332300D01*
X122705938Y-146302451D01*
X122705054Y-146297251D01*
X122703231Y-146271932D01*
X122701602Y-146227972D01*
X122700173Y-146165806D01*
X122698949Y-146085866D01*
X122697934Y-145988589D01*
X122697133Y-145874406D01*
X122696552Y-145743754D01*
X122696196Y-145597065D01*
X122696068Y-145434774D01*
X122696015Y-144602439D01*
X122510525Y-144606691D01*
X122496563Y-144607015D01*
X122435101Y-144608613D01*
X122388859Y-144610411D01*
X122354444Y-144612836D01*
X122328465Y-144616314D01*
X122307530Y-144621275D01*
X122288246Y-144628144D01*
X122267221Y-144637349D01*
X122213971Y-144667196D01*
X122154771Y-144718762D01*
X122109807Y-144783194D01*
X122084141Y-144831373D01*
X122079323Y-145568513D01*
X122078468Y-145696089D01*
X122077593Y-145816782D01*
X122076731Y-145920741D01*
X122075847Y-146009283D01*
X122074901Y-146083727D01*
X122073858Y-146145391D01*
X122072679Y-146195593D01*
X122071327Y-146235651D01*
X122069764Y-146266884D01*
X122067953Y-146290609D01*
X122065856Y-146308146D01*
X122063437Y-146320812D01*
X122060657Y-146329926D01*
X122057479Y-146336806D01*
X122054874Y-146341349D01*
X122026232Y-146372873D01*
X121985392Y-146391238D01*
X121930781Y-146397193D01*
X121921412Y-146397121D01*
X121890343Y-146394410D01*
X121867439Y-146385545D01*
X121843815Y-146367493D01*
X121837586Y-146361612D01*
X121814424Y-146332300D01*
X121800172Y-146302451D01*
X121798432Y-146287675D01*
X121796764Y-146255010D01*
X121795290Y-146206755D01*
X121794011Y-146144814D01*
X121792925Y-146071085D01*
X121792035Y-145987470D01*
X121791338Y-145895870D01*
X121790837Y-145798185D01*
X121790531Y-145696316D01*
X121790420Y-145592163D01*
X121790504Y-145487628D01*
X121790783Y-145384611D01*
X121791258Y-145285012D01*
X121791928Y-145190732D01*
X121792794Y-145103673D01*
X121793856Y-145025735D01*
X121795114Y-144958817D01*
X121796569Y-144904823D01*
X121798219Y-144865650D01*
X121800067Y-144843202D01*
X121818715Y-144758394D01*
X121856093Y-144662939D01*
X121908259Y-144575813D01*
X121973475Y-144499007D01*
X122050007Y-144434510D01*
X122136117Y-144384312D01*
X122230069Y-144350404D01*
X122237211Y-144348670D01*
X122259665Y-144344490D01*
X122287571Y-144341222D01*
X122323232Y-144338768D01*
X122368951Y-144337029D01*
X122427030Y-144335908D01*
X122499772Y-144335308D01*
X122589481Y-144335129D01*
X122591374Y-144335129D01*
X122681148Y-144335236D01*
G37*
G36*
X124582593Y-145329347D02*
G01*
X124582895Y-145391137D01*
X124583370Y-145506820D01*
X124583543Y-145605697D01*
X124583301Y-145689437D01*
X124582532Y-145759706D01*
X124581123Y-145818172D01*
X124578964Y-145866503D01*
X124575941Y-145906367D01*
X124571943Y-145939430D01*
X124566857Y-145967361D01*
X124560571Y-145991827D01*
X124552974Y-146014496D01*
X124543952Y-146037035D01*
X124533395Y-146061111D01*
X124532615Y-146062845D01*
X124484071Y-146147628D01*
X124420425Y-146223374D01*
X124344487Y-146288050D01*
X124259070Y-146339623D01*
X124166985Y-146376063D01*
X124071043Y-146395336D01*
X123977328Y-146399365D01*
X123870420Y-146388463D01*
X123771567Y-146360383D01*
X123681281Y-146315280D01*
X123600076Y-146253307D01*
X123577904Y-146232615D01*
X123557149Y-146210898D01*
X123545455Y-146192715D01*
X123539671Y-146172709D01*
X123536644Y-146145524D01*
X123537103Y-146106359D01*
X123550911Y-146058710D01*
X123579094Y-146022885D01*
X123620358Y-146000329D01*
X123673411Y-145992489D01*
X123678810Y-145992523D01*
X123710884Y-145995198D01*
X123738210Y-146004056D01*
X123766699Y-146021785D01*
X123802259Y-146051071D01*
X123854074Y-146086783D01*
X123918645Y-146110120D01*
X123993386Y-146117754D01*
X124026953Y-146116210D01*
X124101127Y-146100217D01*
X124166425Y-146067254D01*
X124222081Y-146017784D01*
X124267328Y-145952269D01*
X124300377Y-145891313D01*
X124303484Y-145691370D01*
X124306591Y-145491427D01*
X123898780Y-145491391D01*
X123817180Y-145491364D01*
X123731847Y-145491233D01*
X123662449Y-145490917D01*
X123607136Y-145490334D01*
X123564060Y-145489403D01*
X123531373Y-145488041D01*
X123507226Y-145486167D01*
X123489771Y-145483698D01*
X123477160Y-145480554D01*
X123467543Y-145476651D01*
X123459073Y-145471908D01*
X123452605Y-145467858D01*
X123437616Y-145456776D01*
X123425736Y-145443646D01*
X123416606Y-145426313D01*
X123409870Y-145402625D01*
X123405171Y-145370431D01*
X123402152Y-145327577D01*
X123400454Y-145271910D01*
X123399932Y-145221624D01*
X123677155Y-145221624D01*
X123991873Y-145221624D01*
X124306591Y-145221624D01*
X124303484Y-145021681D01*
X124303008Y-144991961D01*
X124301818Y-144931374D01*
X124300329Y-144885724D01*
X124298209Y-144851934D01*
X124295126Y-144826925D01*
X124290751Y-144807620D01*
X124284750Y-144790941D01*
X124276793Y-144773810D01*
X124252033Y-144731375D01*
X124202414Y-144674277D01*
X124142439Y-144631550D01*
X124074497Y-144604740D01*
X124000975Y-144595390D01*
X123949541Y-144597925D01*
X123890227Y-144610874D01*
X123837515Y-144636877D01*
X123785412Y-144678237D01*
X123755447Y-144707272D01*
X123731408Y-144734994D01*
X123713359Y-144763558D01*
X123700377Y-144796037D01*
X123691539Y-144835500D01*
X123685920Y-144885017D01*
X123682596Y-144947660D01*
X123680645Y-145026499D01*
X123677155Y-145221624D01*
X123399932Y-145221624D01*
X123399721Y-145201279D01*
X123399596Y-145113530D01*
X123399923Y-145026044D01*
X123401113Y-144946172D01*
X123403518Y-144880469D01*
X123407492Y-144826269D01*
X123413389Y-144780907D01*
X123421564Y-144741720D01*
X123432371Y-144706043D01*
X123446164Y-144671210D01*
X123463299Y-144634557D01*
X123490247Y-144587309D01*
X123546603Y-144514615D01*
X123615444Y-144449071D01*
X123692961Y-144393659D01*
X123775342Y-144351358D01*
X123858778Y-144325151D01*
X123895978Y-144319744D01*
X123956126Y-144316665D01*
X124022598Y-144317957D01*
X124089052Y-144323258D01*
X124149144Y-144332206D01*
X124196530Y-144344438D01*
X124211994Y-144350179D01*
X124302065Y-144395202D01*
X124383826Y-144456019D01*
X124455082Y-144530400D01*
X124513634Y-144616113D01*
X124557288Y-144710926D01*
X124557961Y-144712799D01*
X124562622Y-144726124D01*
X124566576Y-144739154D01*
X124569892Y-144753520D01*
X124572636Y-144770851D01*
X124574875Y-144792780D01*
X124576674Y-144820935D01*
X124578102Y-144856948D01*
X124579224Y-144902449D01*
X124580108Y-144959069D01*
X124580820Y-145028438D01*
X124581427Y-145112187D01*
X124581996Y-145211947D01*
X124582045Y-145221624D01*
X124582593Y-145329347D01*
G37*
G36*
X120612639Y-145329347D02*
G01*
X120612940Y-145391137D01*
X120613416Y-145506820D01*
X120613589Y-145605697D01*
X120613346Y-145689437D01*
X120612577Y-145759706D01*
X120611169Y-145818172D01*
X120609009Y-145866503D01*
X120605987Y-145906367D01*
X120601988Y-145939430D01*
X120596902Y-145967361D01*
X120590617Y-145991827D01*
X120583019Y-146014496D01*
X120573998Y-146037035D01*
X120563440Y-146061111D01*
X120562661Y-146062845D01*
X120514117Y-146147628D01*
X120450470Y-146223374D01*
X120374533Y-146288050D01*
X120289116Y-146339623D01*
X120197030Y-146376063D01*
X120101088Y-146395336D01*
X120007374Y-146399365D01*
X119900466Y-146388463D01*
X119801613Y-146360383D01*
X119711327Y-146315280D01*
X119630121Y-146253307D01*
X119607950Y-146232615D01*
X119587194Y-146210898D01*
X119575501Y-146192715D01*
X119569717Y-146172709D01*
X119566690Y-146145524D01*
X119567148Y-146106359D01*
X119580957Y-146058710D01*
X119609139Y-146022885D01*
X119650403Y-146000329D01*
X119703457Y-145992489D01*
X119708855Y-145992523D01*
X119740929Y-145995198D01*
X119768256Y-146004056D01*
X119796744Y-146021785D01*
X119832304Y-146051071D01*
X119884119Y-146086783D01*
X119948690Y-146110120D01*
X120023432Y-146117754D01*
X120056998Y-146116210D01*
X120131172Y-146100217D01*
X120196471Y-146067254D01*
X120252127Y-146017784D01*
X120297374Y-145952269D01*
X120330423Y-145891313D01*
X120333529Y-145691370D01*
X120336636Y-145491427D01*
X119928825Y-145491391D01*
X119847225Y-145491364D01*
X119761893Y-145491233D01*
X119692495Y-145490917D01*
X119637182Y-145490334D01*
X119594106Y-145489403D01*
X119561419Y-145488041D01*
X119537272Y-145486167D01*
X119519817Y-145483698D01*
X119507205Y-145480554D01*
X119497589Y-145476651D01*
X119489118Y-145471908D01*
X119482650Y-145467858D01*
X119467662Y-145456776D01*
X119455781Y-145443646D01*
X119446652Y-145426313D01*
X119439916Y-145402625D01*
X119435217Y-145370431D01*
X119432197Y-145327577D01*
X119430500Y-145271910D01*
X119429978Y-145221624D01*
X119707200Y-145221624D01*
X120021918Y-145221624D01*
X120336636Y-145221624D01*
X120333529Y-145021681D01*
X120333054Y-144991961D01*
X120331864Y-144931374D01*
X120330374Y-144885724D01*
X120328254Y-144851934D01*
X120325172Y-144826925D01*
X120320796Y-144807620D01*
X120314795Y-144790941D01*
X120306838Y-144773810D01*
X120282079Y-144731375D01*
X120232459Y-144674277D01*
X120172485Y-144631550D01*
X120104542Y-144604740D01*
X120031020Y-144595390D01*
X119979587Y-144597925D01*
X119920272Y-144610874D01*
X119867560Y-144636877D01*
X119815458Y-144678237D01*
X119785493Y-144707272D01*
X119761453Y-144734994D01*
X119743405Y-144763558D01*
X119730423Y-144796037D01*
X119721584Y-144835500D01*
X119715965Y-144885017D01*
X119712642Y-144947660D01*
X119710690Y-145026499D01*
X119707200Y-145221624D01*
X119429978Y-145221624D01*
X119429767Y-145201279D01*
X119429642Y-145113530D01*
X119429968Y-145026044D01*
X119431159Y-144946172D01*
X119433564Y-144880469D01*
X119437538Y-144826269D01*
X119443435Y-144780907D01*
X119451610Y-144741720D01*
X119462416Y-144706043D01*
X119476210Y-144671210D01*
X119493344Y-144634557D01*
X119520292Y-144587309D01*
X119576649Y-144514615D01*
X119645490Y-144449071D01*
X119723006Y-144393659D01*
X119805388Y-144351358D01*
X119888824Y-144325151D01*
X119926023Y-144319744D01*
X119986171Y-144316665D01*
X120052644Y-144317957D01*
X120119098Y-144323258D01*
X120179189Y-144332206D01*
X120226576Y-144344438D01*
X120242040Y-144350179D01*
X120332110Y-144395202D01*
X120413872Y-144456019D01*
X120485127Y-144530400D01*
X120543680Y-144616113D01*
X120587333Y-144710926D01*
X120588007Y-144712799D01*
X120592667Y-144726124D01*
X120596622Y-144739154D01*
X120599938Y-144753520D01*
X120602682Y-144770851D01*
X120604920Y-144792780D01*
X120606720Y-144820935D01*
X120608147Y-144856948D01*
X120609270Y-144902449D01*
X120610154Y-144959069D01*
X120610866Y-145028438D01*
X120611473Y-145112187D01*
X120612042Y-145211947D01*
X120612091Y-145221624D01*
X120612639Y-145329347D01*
G37*
G36*
X126176709Y-144612509D02*
G01*
X126177366Y-144672874D01*
X126177905Y-144744011D01*
X126178339Y-144826865D01*
X126178678Y-144922379D01*
X126178934Y-145031498D01*
X126179118Y-145155167D01*
X126179241Y-145294330D01*
X126179315Y-145449931D01*
X126179351Y-145622915D01*
X126179361Y-145814226D01*
X126179363Y-145887486D01*
X126179383Y-146075103D01*
X126179394Y-146244716D01*
X126179360Y-146397252D01*
X126179245Y-146533638D01*
X126179013Y-146654804D01*
X126178629Y-146761676D01*
X126178055Y-146855182D01*
X126177257Y-146936251D01*
X126176197Y-147005809D01*
X126174841Y-147064785D01*
X126173152Y-147114107D01*
X126171095Y-147154701D01*
X126168632Y-147187497D01*
X126165729Y-147213422D01*
X126162349Y-147233403D01*
X126158456Y-147248368D01*
X126154014Y-147259246D01*
X126148987Y-147266964D01*
X126143340Y-147272450D01*
X126137036Y-147276631D01*
X126130039Y-147280435D01*
X126122314Y-147284791D01*
X126090350Y-147297473D01*
X126037568Y-147302923D01*
X126023342Y-147302774D01*
X125993672Y-147299830D01*
X125971611Y-147290935D01*
X125948671Y-147273259D01*
X125942441Y-147267378D01*
X125919279Y-147238066D01*
X125905028Y-147208217D01*
X125902951Y-147193847D01*
X125900726Y-147160191D01*
X125898826Y-147110066D01*
X125897284Y-147044997D01*
X125896136Y-146966511D01*
X125895415Y-146876136D01*
X125895158Y-146775398D01*
X125895104Y-146377921D01*
X125691734Y-146377921D01*
X125664572Y-146377879D01*
X125592383Y-146377173D01*
X125535631Y-146375464D01*
X125491433Y-146372585D01*
X125456903Y-146368369D01*
X125429158Y-146362647D01*
X125350072Y-146335446D01*
X125262561Y-146287775D01*
X125184346Y-146225479D01*
X125117161Y-146150549D01*
X125062744Y-146064974D01*
X125022830Y-145970744D01*
X124999156Y-145869849D01*
X124998470Y-145862405D01*
X125278601Y-145862405D01*
X125301905Y-145912459D01*
X125302372Y-145913457D01*
X125343761Y-145980405D01*
X125398355Y-146034956D01*
X125463630Y-146074577D01*
X125468373Y-146076695D01*
X125489433Y-146085546D01*
X125509248Y-146092116D01*
X125531238Y-146096844D01*
X125558821Y-146100170D01*
X125595417Y-146102533D01*
X125644443Y-146104371D01*
X125709318Y-146106124D01*
X125895104Y-146110789D01*
X125895104Y-145356614D01*
X125895104Y-144602439D01*
X125709615Y-144606777D01*
X125692558Y-144607180D01*
X125631905Y-144608798D01*
X125586285Y-144610625D01*
X125552275Y-144613100D01*
X125526456Y-144616661D01*
X125505405Y-144621745D01*
X125485702Y-144628790D01*
X125463926Y-144638236D01*
X125463436Y-144638457D01*
X125397881Y-144678471D01*
X125343216Y-144733339D01*
X125301905Y-144800591D01*
X125278601Y-144850645D01*
X125278601Y-145356525D01*
X125278601Y-145862405D01*
X124998470Y-145862405D01*
X124997603Y-145852999D01*
X124995763Y-145816250D01*
X124994091Y-145764314D01*
X124992629Y-145699468D01*
X124991419Y-145623990D01*
X124990503Y-145540155D01*
X124989922Y-145450241D01*
X124989720Y-145356525D01*
X124989848Y-145281893D01*
X124990354Y-145191009D01*
X124991204Y-145105735D01*
X124992357Y-145028347D01*
X124993771Y-144961123D01*
X124995403Y-144906340D01*
X124997212Y-144866274D01*
X124999156Y-144843202D01*
X125017805Y-144758394D01*
X125055183Y-144662939D01*
X125107348Y-144575813D01*
X125172565Y-144499007D01*
X125249096Y-144434510D01*
X125335206Y-144384312D01*
X125429158Y-144350404D01*
X125436301Y-144348670D01*
X125458755Y-144344490D01*
X125486661Y-144341222D01*
X125522321Y-144338768D01*
X125568040Y-144337029D01*
X125626119Y-144335908D01*
X125698862Y-144335308D01*
X125788571Y-144335129D01*
X125790464Y-144335129D01*
X125880238Y-144335236D01*
X125952837Y-144335774D01*
X126010321Y-144337076D01*
X126054747Y-144339475D01*
X126088173Y-144343303D01*
X126112657Y-144348893D01*
X126130257Y-144356576D01*
X126143031Y-144366686D01*
X126153038Y-144379555D01*
X126162335Y-144395516D01*
X126163651Y-144398136D01*
X126165873Y-144404051D01*
X126167876Y-144412239D01*
X126169671Y-144423644D01*
X126171269Y-144439210D01*
X126172682Y-144459881D01*
X126173921Y-144486602D01*
X126174998Y-144520318D01*
X126175923Y-144561972D01*
X126176552Y-144602439D01*
X126176709Y-144612509D01*
G37*
G36*
X119007665Y-144612509D02*
G01*
X119008322Y-144672874D01*
X119008861Y-144744011D01*
X119009295Y-144826865D01*
X119009634Y-144922379D01*
X119009890Y-145031498D01*
X119010074Y-145155167D01*
X119010197Y-145294330D01*
X119010271Y-145449931D01*
X119010307Y-145622915D01*
X119010317Y-145814226D01*
X119010319Y-145887486D01*
X119010339Y-146075103D01*
X119010350Y-146244716D01*
X119010316Y-146397252D01*
X119010201Y-146533638D01*
X119009969Y-146654804D01*
X119009585Y-146761676D01*
X119009011Y-146855182D01*
X119008213Y-146936251D01*
X119007153Y-147005809D01*
X119005797Y-147064785D01*
X119004108Y-147114107D01*
X119002051Y-147154701D01*
X118999588Y-147187497D01*
X118996685Y-147213422D01*
X118993305Y-147233403D01*
X118989412Y-147248368D01*
X118984970Y-147259246D01*
X118979943Y-147266964D01*
X118974296Y-147272450D01*
X118967992Y-147276631D01*
X118960995Y-147280435D01*
X118953270Y-147284791D01*
X118921306Y-147297473D01*
X118868524Y-147302923D01*
X118854298Y-147302774D01*
X118824628Y-147299830D01*
X118802567Y-147290935D01*
X118779627Y-147273259D01*
X118773397Y-147267378D01*
X118750235Y-147238066D01*
X118735984Y-147208217D01*
X118733907Y-147193847D01*
X118731682Y-147160191D01*
X118729782Y-147110066D01*
X118728240Y-147044997D01*
X118727092Y-146966511D01*
X118726371Y-146876136D01*
X118726114Y-146775398D01*
X118726060Y-146377921D01*
X118522690Y-146377921D01*
X118495528Y-146377879D01*
X118423339Y-146377173D01*
X118366587Y-146375464D01*
X118322389Y-146372585D01*
X118287859Y-146368369D01*
X118260114Y-146362647D01*
X118181028Y-146335446D01*
X118093517Y-146287775D01*
X118015302Y-146225479D01*
X117948117Y-146150549D01*
X117893700Y-146064974D01*
X117853786Y-145970744D01*
X117830112Y-145869849D01*
X117829426Y-145862405D01*
X118109557Y-145862405D01*
X118132861Y-145912459D01*
X118133328Y-145913457D01*
X118174717Y-145980405D01*
X118229311Y-146034956D01*
X118294586Y-146074577D01*
X118299329Y-146076695D01*
X118320389Y-146085546D01*
X118340204Y-146092116D01*
X118362194Y-146096844D01*
X118389777Y-146100170D01*
X118426373Y-146102533D01*
X118475399Y-146104371D01*
X118540274Y-146106124D01*
X118726060Y-146110789D01*
X118726060Y-145356614D01*
X118726060Y-144602439D01*
X118540571Y-144606777D01*
X118523514Y-144607180D01*
X118462861Y-144608798D01*
X118417241Y-144610625D01*
X118383231Y-144613100D01*
X118357412Y-144616661D01*
X118336361Y-144621745D01*
X118316658Y-144628790D01*
X118294882Y-144638236D01*
X118294392Y-144638457D01*
X118228837Y-144678471D01*
X118174172Y-144733339D01*
X118132861Y-144800591D01*
X118109557Y-144850645D01*
X118109557Y-145356525D01*
X118109557Y-145862405D01*
X117829426Y-145862405D01*
X117828559Y-145852999D01*
X117826719Y-145816250D01*
X117825047Y-145764314D01*
X117823585Y-145699468D01*
X117822375Y-145623990D01*
X117821459Y-145540155D01*
X117820878Y-145450241D01*
X117820676Y-145356525D01*
X117820804Y-145281893D01*
X117821310Y-145191009D01*
X117822160Y-145105735D01*
X117823313Y-145028347D01*
X117824727Y-144961123D01*
X117826359Y-144906340D01*
X117828168Y-144866274D01*
X117830112Y-144843202D01*
X117848761Y-144758394D01*
X117886139Y-144662939D01*
X117938304Y-144575813D01*
X118003521Y-144499007D01*
X118080052Y-144434510D01*
X118166162Y-144384312D01*
X118260114Y-144350404D01*
X118267257Y-144348670D01*
X118289711Y-144344490D01*
X118317617Y-144341222D01*
X118353277Y-144338768D01*
X118398996Y-144337029D01*
X118457075Y-144335908D01*
X118529818Y-144335308D01*
X118619527Y-144335129D01*
X118621420Y-144335129D01*
X118711194Y-144335236D01*
X118783793Y-144335774D01*
X118841277Y-144337076D01*
X118885703Y-144339475D01*
X118919129Y-144343303D01*
X118943613Y-144348893D01*
X118961213Y-144356576D01*
X118973987Y-144366686D01*
X118983994Y-144379555D01*
X118993291Y-144395516D01*
X118994607Y-144398136D01*
X118996829Y-144404051D01*
X118998832Y-144412239D01*
X119000627Y-144423644D01*
X119002225Y-144439210D01*
X119003638Y-144459881D01*
X119004877Y-144486602D01*
X119005954Y-144520318D01*
X119006879Y-144561972D01*
X119007508Y-144602439D01*
X119007665Y-144612509D01*
G37*
G36*
X117237446Y-143410195D02*
G01*
X117267943Y-143413012D01*
X117290503Y-143421894D01*
X117313844Y-143439791D01*
X117320073Y-143445672D01*
X117343236Y-143474984D01*
X117357487Y-143504833D01*
X117358495Y-143513609D01*
X117359789Y-143541346D01*
X117360984Y-143586032D01*
X117362081Y-143646327D01*
X117363080Y-143720889D01*
X117363980Y-143808376D01*
X117364781Y-143907447D01*
X117365484Y-144016760D01*
X117366088Y-144134974D01*
X117366594Y-144260747D01*
X117367002Y-144392738D01*
X117367310Y-144529605D01*
X117367521Y-144670006D01*
X117367632Y-144812601D01*
X117367646Y-144956047D01*
X117367561Y-145099003D01*
X117367377Y-145240128D01*
X117367094Y-145378079D01*
X117366714Y-145511517D01*
X117366234Y-145639098D01*
X117365657Y-145759481D01*
X117364980Y-145871325D01*
X117364205Y-145973289D01*
X117363332Y-146064030D01*
X117362360Y-146142208D01*
X117361290Y-146206481D01*
X117360121Y-146255506D01*
X117358853Y-146287944D01*
X117357487Y-146302451D01*
X117355202Y-146309259D01*
X117338077Y-146339989D01*
X117313844Y-146367493D01*
X117306604Y-146373684D01*
X117284374Y-146388711D01*
X117260439Y-146395564D01*
X117226085Y-146397193D01*
X117220468Y-146397130D01*
X117166711Y-146388782D01*
X117124991Y-146366944D01*
X117096854Y-146332388D01*
X117096012Y-146330483D01*
X117093670Y-146321627D01*
X117091597Y-146307195D01*
X117089773Y-146286047D01*
X117088176Y-146257041D01*
X117086785Y-146219035D01*
X117085580Y-146170889D01*
X117084538Y-146111460D01*
X117083639Y-146039608D01*
X117082861Y-145954192D01*
X117082184Y-145854069D01*
X117081586Y-145738099D01*
X117081045Y-145605140D01*
X117080541Y-145454050D01*
X117077928Y-144602448D01*
X116892643Y-144606696D01*
X116879053Y-144607010D01*
X116817540Y-144608609D01*
X116771261Y-144610406D01*
X116736820Y-144612829D01*
X116710823Y-144616307D01*
X116689875Y-144621268D01*
X116670579Y-144628139D01*
X116649543Y-144637349D01*
X116583570Y-144676009D01*
X116530107Y-144727567D01*
X116489416Y-144792830D01*
X116461660Y-144850645D01*
X116461598Y-145558877D01*
X116461505Y-145674496D01*
X116461145Y-145810133D01*
X116460523Y-145930621D01*
X116459647Y-146035372D01*
X116458524Y-146123796D01*
X116457162Y-146195304D01*
X116455569Y-146249309D01*
X116453752Y-146285221D01*
X116451721Y-146302451D01*
X116449436Y-146309259D01*
X116432310Y-146339989D01*
X116408078Y-146367493D01*
X116402037Y-146372683D01*
X116379375Y-146388322D01*
X116355361Y-146395481D01*
X116321111Y-146397193D01*
X116314019Y-146397114D01*
X116261087Y-146389758D01*
X116221743Y-146369905D01*
X116194414Y-146336806D01*
X116194253Y-146336510D01*
X116191106Y-146329666D01*
X116188374Y-146320718D01*
X116186029Y-146308344D01*
X116184042Y-146291225D01*
X116182382Y-146268040D01*
X116181022Y-146237469D01*
X116179931Y-146198190D01*
X116179081Y-146148884D01*
X116178442Y-146088229D01*
X116177984Y-146014906D01*
X116177680Y-145927593D01*
X116177498Y-145824970D01*
X116177411Y-145705717D01*
X116177388Y-145568513D01*
X116177402Y-145465286D01*
X116177483Y-145340746D01*
X116177660Y-145233091D01*
X116177964Y-145140945D01*
X116178422Y-145062933D01*
X116179066Y-144997680D01*
X116179922Y-144943810D01*
X116181022Y-144899948D01*
X116182395Y-144864720D01*
X116184068Y-144836749D01*
X116186072Y-144814661D01*
X116188437Y-144797080D01*
X116191190Y-144782631D01*
X116194361Y-144769939D01*
X116197621Y-144758600D01*
X116235423Y-144663421D01*
X116288589Y-144576256D01*
X116354995Y-144499239D01*
X116432514Y-144434502D01*
X116519021Y-144384179D01*
X116612390Y-144350404D01*
X116620558Y-144348432D01*
X116650172Y-144343194D01*
X116687495Y-144339414D01*
X116735412Y-144336921D01*
X116796812Y-144335549D01*
X116874580Y-144335129D01*
X117077564Y-144335129D01*
X117080359Y-143918380D01*
X117081052Y-143826816D01*
X117081969Y-143737425D01*
X117083067Y-143664266D01*
X117084407Y-143605709D01*
X117086049Y-143560124D01*
X117088054Y-143525881D01*
X117090483Y-143501349D01*
X117093396Y-143484897D01*
X117096854Y-143474896D01*
X117098878Y-143471128D01*
X117128358Y-143437734D01*
X117171275Y-143417131D01*
X117226085Y-143410091D01*
X117237446Y-143410195D01*
G37*
G36*
X130446650Y-144936923D02*
G01*
X130438225Y-144983165D01*
X130433057Y-145012115D01*
X130431420Y-145022285D01*
X130436559Y-145018944D01*
X130457156Y-145004630D01*
X130492368Y-144979844D01*
X130540983Y-144945449D01*
X130601786Y-144902308D01*
X130673565Y-144851284D01*
X130755106Y-144793238D01*
X130845196Y-144729033D01*
X130942622Y-144659533D01*
X131046169Y-144585599D01*
X131154626Y-144508095D01*
X131236107Y-144449895D01*
X131341955Y-144374442D01*
X131442408Y-144303008D01*
X131536203Y-144236481D01*
X131622078Y-144175752D01*
X131698769Y-144121708D01*
X131765015Y-144075240D01*
X131819552Y-144037238D01*
X131861118Y-144008589D01*
X131888450Y-143990184D01*
X131900286Y-143982912D01*
X131901826Y-143982338D01*
X131942079Y-143974958D01*
X131988144Y-143976672D01*
X132028087Y-143987091D01*
X132030643Y-143988665D01*
X132047656Y-144002244D01*
X132077986Y-144028336D01*
X132120391Y-144065791D01*
X132173630Y-144113461D01*
X132236462Y-144170198D01*
X132307645Y-144234854D01*
X132385938Y-144306279D01*
X132470099Y-144383325D01*
X132558888Y-144464844D01*
X132651063Y-144549686D01*
X132745383Y-144636704D01*
X132840606Y-144724749D01*
X132935492Y-144812672D01*
X133028798Y-144899325D01*
X133119283Y-144983559D01*
X133205707Y-145064226D01*
X133286827Y-145140176D01*
X133361403Y-145210262D01*
X133428193Y-145273335D01*
X133485955Y-145328247D01*
X133533450Y-145373848D01*
X133543929Y-145384082D01*
X133569434Y-145408990D01*
X133592668Y-145432526D01*
X133601909Y-145443305D01*
X133603407Y-145446731D01*
X133614516Y-145495873D01*
X133610997Y-145548633D01*
X133594188Y-145597907D01*
X133565430Y-145636596D01*
X133554410Y-145642187D01*
X133525250Y-145655387D01*
X133478926Y-145675763D01*
X133416374Y-145702917D01*
X133338534Y-145736449D01*
X133255990Y-145771827D01*
X133246344Y-145775961D01*
X133140742Y-145821053D01*
X133022666Y-145871326D01*
X132893056Y-145926381D01*
X132752848Y-145985820D01*
X132602982Y-146049243D01*
X132444396Y-146116251D01*
X132278028Y-146186446D01*
X132104817Y-146259427D01*
X131925701Y-146334797D01*
X131741618Y-146412156D01*
X131694516Y-146431936D01*
X131471783Y-146525426D01*
X131267203Y-146611215D01*
X131080077Y-146689590D01*
X130909707Y-146760837D01*
X130755395Y-146825242D01*
X130616441Y-146883092D01*
X130492148Y-146934673D01*
X130381818Y-146980271D01*
X130284751Y-147020173D01*
X130200250Y-147054666D01*
X130127615Y-147084034D01*
X130066150Y-147108566D01*
X130015155Y-147128546D01*
X129973931Y-147144262D01*
X129941781Y-147156000D01*
X129918007Y-147164046D01*
X129901909Y-147168687D01*
X129892789Y-147170209D01*
X129892480Y-147170212D01*
X129837461Y-147162573D01*
X129791265Y-147140145D01*
X129758371Y-147105098D01*
X129756257Y-147100877D01*
X129747076Y-147077047D01*
X129733142Y-147036453D01*
X129715094Y-146981237D01*
X129693572Y-146913546D01*
X129669217Y-146835524D01*
X129642667Y-146749314D01*
X129614564Y-146657063D01*
X129607474Y-146633570D01*
X130366965Y-146633570D01*
X130368688Y-146632927D01*
X130385690Y-146625976D01*
X130419555Y-146611910D01*
X130468787Y-146591358D01*
X130531892Y-146564948D01*
X130607375Y-146533311D01*
X130693741Y-146497075D01*
X130789494Y-146456870D01*
X130893141Y-146413326D01*
X131003185Y-146367070D01*
X131118133Y-146318733D01*
X131236489Y-146268944D01*
X131356758Y-146218333D01*
X131477445Y-146167527D01*
X131597055Y-146117158D01*
X131714094Y-146067853D01*
X131827066Y-146020243D01*
X131934477Y-145974957D01*
X132034832Y-145932623D01*
X132126634Y-145893871D01*
X132208391Y-145859331D01*
X132278606Y-145829632D01*
X132335786Y-145805402D01*
X132378434Y-145787272D01*
X132405055Y-145775871D01*
X132414156Y-145771827D01*
X132404951Y-145772278D01*
X132377059Y-145774406D01*
X132332426Y-145778062D01*
X132273007Y-145783070D01*
X132200758Y-145789259D01*
X132117634Y-145796453D01*
X132025591Y-145804479D01*
X131926586Y-145813163D01*
X131822574Y-145822331D01*
X131715511Y-145831809D01*
X131607353Y-145841424D01*
X131500055Y-145851001D01*
X131395574Y-145860366D01*
X131295865Y-145869347D01*
X131202884Y-145877768D01*
X131118588Y-145885455D01*
X131044931Y-145892236D01*
X130983869Y-145897937D01*
X130937360Y-145902382D01*
X130907357Y-145905399D01*
X130895818Y-145906813D01*
X130894783Y-145907572D01*
X130883647Y-145920516D01*
X130862446Y-145947722D01*
X130862253Y-145947970D01*
X130831961Y-145988108D01*
X130794126Y-146039103D01*
X130750106Y-146099129D01*
X130701260Y-146166358D01*
X130648944Y-146238965D01*
X130638695Y-146253246D01*
X130586009Y-146326614D01*
X130536503Y-146395488D01*
X130491650Y-146457822D01*
X130452921Y-146511573D01*
X130421792Y-146554696D01*
X130399734Y-146585145D01*
X130388220Y-146600877D01*
X130382250Y-146608991D01*
X130370023Y-146626841D01*
X130366965Y-146633570D01*
X129607474Y-146633570D01*
X129585547Y-146560915D01*
X129556256Y-146463014D01*
X129527331Y-146365506D01*
X129499412Y-146270534D01*
X129473140Y-146180244D01*
X129449153Y-146096780D01*
X129428093Y-146022288D01*
X129425666Y-146013494D01*
X129769428Y-146013494D01*
X129773114Y-146033361D01*
X129781479Y-146067596D01*
X129793630Y-146112651D01*
X129808673Y-146164979D01*
X129816893Y-146192697D01*
X129831355Y-146240965D01*
X129843145Y-146279659D01*
X129851218Y-146305373D01*
X129854532Y-146314702D01*
X129854705Y-146314372D01*
X129857601Y-146301572D01*
X129857721Y-146300965D01*
X130193747Y-146300965D01*
X130194692Y-146300382D01*
X130204856Y-146288328D01*
X130224599Y-146262665D01*
X130252121Y-146225794D01*
X130285625Y-146180114D01*
X130323312Y-146128026D01*
X130335845Y-146110543D01*
X130371863Y-146059691D01*
X130402539Y-146015474D01*
X130426173Y-145980400D01*
X130441064Y-145956980D01*
X130445512Y-145947722D01*
X130445205Y-145947520D01*
X130432051Y-145946770D01*
X130404742Y-145948095D01*
X130369024Y-145950935D01*
X130330639Y-145954725D01*
X130295334Y-145958905D01*
X130268852Y-145962911D01*
X130256938Y-145966182D01*
X130255125Y-145971383D01*
X130250258Y-145991726D01*
X130249739Y-145993893D01*
X130241853Y-146030896D01*
X130232206Y-146078881D01*
X130221536Y-146134342D01*
X130214622Y-146171530D01*
X130205547Y-146222166D01*
X130198659Y-146262922D01*
X130194534Y-146290340D01*
X130193747Y-146300965D01*
X129857721Y-146300965D01*
X129863250Y-146272928D01*
X129870923Y-146232217D01*
X129879892Y-146183216D01*
X129880610Y-146179242D01*
X129890082Y-146126960D01*
X129898642Y-146079939D01*
X129905376Y-146043191D01*
X129909369Y-146021728D01*
X129915091Y-145991726D01*
X129844973Y-145998273D01*
X129844624Y-145998306D01*
X129808743Y-146002312D01*
X129781813Y-146006525D01*
X129769638Y-146010039D01*
X129769428Y-146013494D01*
X129425666Y-146013494D01*
X129410599Y-145958911D01*
X129397310Y-145908794D01*
X129388868Y-145874083D01*
X129385911Y-145856921D01*
X129386688Y-145851813D01*
X129392768Y-145831079D01*
X129405021Y-145795800D01*
X129423610Y-145745567D01*
X129448694Y-145679973D01*
X129470626Y-145623756D01*
X130317566Y-145623756D01*
X130364792Y-145622507D01*
X130367188Y-145622433D01*
X130395017Y-145620903D01*
X130434962Y-145617979D01*
X130482941Y-145614043D01*
X130534867Y-145609472D01*
X130586657Y-145604647D01*
X130634225Y-145599946D01*
X130673487Y-145595749D01*
X130700359Y-145592435D01*
X130710756Y-145590383D01*
X130711021Y-145589977D01*
X130717442Y-145580833D01*
X130732435Y-145559797D01*
X130744313Y-145543202D01*
X131151089Y-145543202D01*
X131151988Y-145545548D01*
X131166164Y-145549374D01*
X131192340Y-145550310D01*
X131197530Y-145550028D01*
X131222792Y-145548138D01*
X131265798Y-145544632D01*
X131324723Y-145539672D01*
X131397744Y-145533420D01*
X131483039Y-145526038D01*
X131578783Y-145517690D01*
X131683153Y-145508538D01*
X131794327Y-145498744D01*
X131910480Y-145488471D01*
X132029790Y-145477882D01*
X132150433Y-145467138D01*
X132270585Y-145456403D01*
X132388424Y-145445838D01*
X132502126Y-145435607D01*
X132609868Y-145425872D01*
X132709826Y-145416796D01*
X132800178Y-145408541D01*
X132879099Y-145401269D01*
X132944766Y-145395143D01*
X132995357Y-145390325D01*
X133029047Y-145386979D01*
X133044014Y-145385266D01*
X133045934Y-145384082D01*
X133044689Y-145378395D01*
X133036956Y-145367353D01*
X133021860Y-145350106D01*
X132998522Y-145325799D01*
X132966067Y-145293581D01*
X132923616Y-145252600D01*
X132870293Y-145202002D01*
X132805220Y-145140936D01*
X132727521Y-145068549D01*
X132636319Y-144983989D01*
X132530736Y-144886403D01*
X132462578Y-144823516D01*
X132376990Y-144744658D01*
X132296726Y-144670830D01*
X132223015Y-144603155D01*
X132157084Y-144542754D01*
X132100158Y-144490750D01*
X132053464Y-144448264D01*
X132018230Y-144416418D01*
X131995682Y-144396335D01*
X131987048Y-144389137D01*
X131986788Y-144389269D01*
X131978401Y-144399365D01*
X131959351Y-144424338D01*
X131930831Y-144462544D01*
X131894031Y-144512337D01*
X131850141Y-144572073D01*
X131800354Y-144640109D01*
X131745861Y-144714800D01*
X131687852Y-144794502D01*
X131648340Y-144848902D01*
X131627518Y-144877569D01*
X131566051Y-144962359D01*
X131504642Y-145047226D01*
X131444482Y-145130526D01*
X131386762Y-145210615D01*
X131332672Y-145285849D01*
X131283405Y-145354582D01*
X131240151Y-145415172D01*
X131204102Y-145465973D01*
X131176447Y-145505341D01*
X131158380Y-145531632D01*
X131151089Y-145543202D01*
X130744313Y-145543202D01*
X130756499Y-145526177D01*
X130790129Y-145479281D01*
X130833822Y-145418414D01*
X130888075Y-145342887D01*
X130953385Y-145252005D01*
X131030248Y-145145076D01*
X131243171Y-144848902D01*
X131183380Y-144891295D01*
X131167933Y-144902289D01*
X131135190Y-144925664D01*
X131089282Y-144958480D01*
X131032203Y-144999312D01*
X130965945Y-145046732D01*
X130892502Y-145099316D01*
X130813867Y-145155637D01*
X130732032Y-145214268D01*
X130340475Y-145494848D01*
X130329020Y-145559302D01*
X130317566Y-145623756D01*
X129470626Y-145623756D01*
X129480436Y-145598611D01*
X129518998Y-145501072D01*
X129560883Y-145396115D01*
X129915072Y-145396115D01*
X129915614Y-145395785D01*
X129927071Y-145387640D01*
X129950082Y-145370885D01*
X129980470Y-145348558D01*
X130043929Y-145301765D01*
X130076027Y-145130178D01*
X130083826Y-145088642D01*
X130094321Y-145033248D01*
X130103353Y-144986153D01*
X130110153Y-144951349D01*
X130113955Y-144932831D01*
X130116405Y-144920737D01*
X130116619Y-144913294D01*
X130112677Y-144917546D01*
X130104005Y-144934739D01*
X130090031Y-144966120D01*
X130070183Y-145012937D01*
X130043886Y-145076436D01*
X130010569Y-145157864D01*
X129988723Y-145211556D01*
X129964486Y-145271390D01*
X129943984Y-145322305D01*
X129928235Y-145361760D01*
X129918258Y-145387210D01*
X129915072Y-145396115D01*
X129560883Y-145396115D01*
X129564541Y-145386948D01*
X129617227Y-145255832D01*
X129677217Y-145107316D01*
X129744673Y-144940993D01*
X129819757Y-144756454D01*
X129902631Y-144553291D01*
X129923441Y-144502341D01*
X129986070Y-144349146D01*
X130046655Y-144201151D01*
X130104718Y-144059514D01*
X130159781Y-143925395D01*
X130211366Y-143799950D01*
X130258995Y-143684340D01*
X130302190Y-143579722D01*
X130340472Y-143487254D01*
X130373364Y-143408096D01*
X130400388Y-143343405D01*
X130421064Y-143294339D01*
X130434916Y-143262059D01*
X130441465Y-143247721D01*
X130442561Y-143245762D01*
X130477212Y-143204720D01*
X130524252Y-143178545D01*
X130579949Y-143169351D01*
X130589008Y-143169604D01*
X130641942Y-143181411D01*
X130687688Y-143208453D01*
X130721994Y-143247404D01*
X130740609Y-143294943D01*
X130740797Y-143296593D01*
X130739581Y-143316918D01*
X130734502Y-143356185D01*
X130725532Y-143414555D01*
X130712644Y-143492185D01*
X130695810Y-143589236D01*
X130675002Y-143705867D01*
X130650193Y-143842237D01*
X130621355Y-143998506D01*
X130588462Y-144174832D01*
X130573592Y-144254224D01*
X130550108Y-144379789D01*
X130527946Y-144498491D01*
X130507384Y-144608841D01*
X130488697Y-144709349D01*
X130472162Y-144798525D01*
X130458054Y-144874880D01*
X130450993Y-144913294D01*
X130446650Y-144936923D01*
G37*
%TD*%
D11*
%TO.C,H3*%
X143000000Y-56000000D03*
%TD*%
%TO.C,H4*%
X104000000Y-56000000D03*
%TD*%
%TO.C,H2*%
X143000000Y-147000000D03*
%TD*%
%TO.C,H1*%
X104000000Y-147000000D03*
%TD*%
M02*
