%TF.GenerationSoftware,KiCad,Pcbnew,8.0.5*%
%TF.CreationDate,2024-09-27T18:29:33-04:00*%
%TF.ProjectId,oe-commutator-controller,6f652d63-6f6d-46d7-9574-61746f722d63,D*%
%TF.SameCoordinates,Original*%
%TF.FileFunction,Legend,Top*%
%TF.FilePolarity,Positive*%
%FSLAX46Y46*%
G04 Gerber Fmt 4.6, Leading zero omitted, Abs format (unit mm)*
G04 Created by KiCad (PCBNEW 8.0.5) date 2024-09-27 18:29:33*
%MOMM*%
%LPD*%
G01*
G04 APERTURE LIST*
%ADD10C,0.150000*%
%ADD11C,0.200000*%
%ADD12C,0.120000*%
%ADD13C,0.100000*%
G04 APERTURE END LIST*
D10*
X105300000Y-98100000D02*
X128700000Y-98100000D01*
X128700000Y-107100000D01*
X105300000Y-107100000D01*
X105300000Y-98100000D01*
X105300000Y-87400000D02*
X128700000Y-87400000D01*
X128700000Y-96400000D01*
X105300000Y-96400000D01*
X105300000Y-87400000D01*
D11*
X106103006Y-60498524D02*
X106045863Y-60555667D01*
X106045863Y-60555667D02*
X105874435Y-60612809D01*
X105874435Y-60612809D02*
X105760149Y-60612809D01*
X105760149Y-60612809D02*
X105588720Y-60555667D01*
X105588720Y-60555667D02*
X105474435Y-60441381D01*
X105474435Y-60441381D02*
X105417292Y-60327095D01*
X105417292Y-60327095D02*
X105360149Y-60098524D01*
X105360149Y-60098524D02*
X105360149Y-59927095D01*
X105360149Y-59927095D02*
X105417292Y-59698524D01*
X105417292Y-59698524D02*
X105474435Y-59584238D01*
X105474435Y-59584238D02*
X105588720Y-59469952D01*
X105588720Y-59469952D02*
X105760149Y-59412809D01*
X105760149Y-59412809D02*
X105874435Y-59412809D01*
X105874435Y-59412809D02*
X106045863Y-59469952D01*
X106045863Y-59469952D02*
X106103006Y-59527095D01*
X106788720Y-60612809D02*
X106674435Y-60555667D01*
X106674435Y-60555667D02*
X106617292Y-60498524D01*
X106617292Y-60498524D02*
X106560149Y-60384238D01*
X106560149Y-60384238D02*
X106560149Y-60041381D01*
X106560149Y-60041381D02*
X106617292Y-59927095D01*
X106617292Y-59927095D02*
X106674435Y-59869952D01*
X106674435Y-59869952D02*
X106788720Y-59812809D01*
X106788720Y-59812809D02*
X106960149Y-59812809D01*
X106960149Y-59812809D02*
X107074435Y-59869952D01*
X107074435Y-59869952D02*
X107131578Y-59927095D01*
X107131578Y-59927095D02*
X107188720Y-60041381D01*
X107188720Y-60041381D02*
X107188720Y-60384238D01*
X107188720Y-60384238D02*
X107131578Y-60498524D01*
X107131578Y-60498524D02*
X107074435Y-60555667D01*
X107074435Y-60555667D02*
X106960149Y-60612809D01*
X106960149Y-60612809D02*
X106788720Y-60612809D01*
X107703006Y-60612809D02*
X107703006Y-59812809D01*
X107703006Y-59927095D02*
X107760149Y-59869952D01*
X107760149Y-59869952D02*
X107874434Y-59812809D01*
X107874434Y-59812809D02*
X108045863Y-59812809D01*
X108045863Y-59812809D02*
X108160149Y-59869952D01*
X108160149Y-59869952D02*
X108217292Y-59984238D01*
X108217292Y-59984238D02*
X108217292Y-60612809D01*
X108217292Y-59984238D02*
X108274434Y-59869952D01*
X108274434Y-59869952D02*
X108388720Y-59812809D01*
X108388720Y-59812809D02*
X108560149Y-59812809D01*
X108560149Y-59812809D02*
X108674434Y-59869952D01*
X108674434Y-59869952D02*
X108731577Y-59984238D01*
X108731577Y-59984238D02*
X108731577Y-60612809D01*
X109303006Y-60612809D02*
X109303006Y-59812809D01*
X109303006Y-59927095D02*
X109360149Y-59869952D01*
X109360149Y-59869952D02*
X109474434Y-59812809D01*
X109474434Y-59812809D02*
X109645863Y-59812809D01*
X109645863Y-59812809D02*
X109760149Y-59869952D01*
X109760149Y-59869952D02*
X109817292Y-59984238D01*
X109817292Y-59984238D02*
X109817292Y-60612809D01*
X109817292Y-59984238D02*
X109874434Y-59869952D01*
X109874434Y-59869952D02*
X109988720Y-59812809D01*
X109988720Y-59812809D02*
X110160149Y-59812809D01*
X110160149Y-59812809D02*
X110274434Y-59869952D01*
X110274434Y-59869952D02*
X110331577Y-59984238D01*
X110331577Y-59984238D02*
X110331577Y-60612809D01*
X111417292Y-59812809D02*
X111417292Y-60612809D01*
X110903006Y-59812809D02*
X110903006Y-60441381D01*
X110903006Y-60441381D02*
X110960149Y-60555667D01*
X110960149Y-60555667D02*
X111074434Y-60612809D01*
X111074434Y-60612809D02*
X111245863Y-60612809D01*
X111245863Y-60612809D02*
X111360149Y-60555667D01*
X111360149Y-60555667D02*
X111417292Y-60498524D01*
X111817291Y-59812809D02*
X112274434Y-59812809D01*
X111988720Y-59412809D02*
X111988720Y-60441381D01*
X111988720Y-60441381D02*
X112045863Y-60555667D01*
X112045863Y-60555667D02*
X112160148Y-60612809D01*
X112160148Y-60612809D02*
X112274434Y-60612809D01*
X113188720Y-60612809D02*
X113188720Y-59984238D01*
X113188720Y-59984238D02*
X113131577Y-59869952D01*
X113131577Y-59869952D02*
X113017291Y-59812809D01*
X113017291Y-59812809D02*
X112788720Y-59812809D01*
X112788720Y-59812809D02*
X112674434Y-59869952D01*
X113188720Y-60555667D02*
X113074434Y-60612809D01*
X113074434Y-60612809D02*
X112788720Y-60612809D01*
X112788720Y-60612809D02*
X112674434Y-60555667D01*
X112674434Y-60555667D02*
X112617291Y-60441381D01*
X112617291Y-60441381D02*
X112617291Y-60327095D01*
X112617291Y-60327095D02*
X112674434Y-60212809D01*
X112674434Y-60212809D02*
X112788720Y-60155667D01*
X112788720Y-60155667D02*
X113074434Y-60155667D01*
X113074434Y-60155667D02*
X113188720Y-60098524D01*
X113588719Y-59812809D02*
X114045862Y-59812809D01*
X113760148Y-59412809D02*
X113760148Y-60441381D01*
X113760148Y-60441381D02*
X113817291Y-60555667D01*
X113817291Y-60555667D02*
X113931576Y-60612809D01*
X113931576Y-60612809D02*
X114045862Y-60612809D01*
X114617290Y-60612809D02*
X114503005Y-60555667D01*
X114503005Y-60555667D02*
X114445862Y-60498524D01*
X114445862Y-60498524D02*
X114388719Y-60384238D01*
X114388719Y-60384238D02*
X114388719Y-60041381D01*
X114388719Y-60041381D02*
X114445862Y-59927095D01*
X114445862Y-59927095D02*
X114503005Y-59869952D01*
X114503005Y-59869952D02*
X114617290Y-59812809D01*
X114617290Y-59812809D02*
X114788719Y-59812809D01*
X114788719Y-59812809D02*
X114903005Y-59869952D01*
X114903005Y-59869952D02*
X114960148Y-59927095D01*
X114960148Y-59927095D02*
X115017290Y-60041381D01*
X115017290Y-60041381D02*
X115017290Y-60384238D01*
X115017290Y-60384238D02*
X114960148Y-60498524D01*
X114960148Y-60498524D02*
X114903005Y-60555667D01*
X114903005Y-60555667D02*
X114788719Y-60612809D01*
X114788719Y-60612809D02*
X114617290Y-60612809D01*
X115531576Y-60612809D02*
X115531576Y-59812809D01*
X115531576Y-60041381D02*
X115588719Y-59927095D01*
X115588719Y-59927095D02*
X115645862Y-59869952D01*
X115645862Y-59869952D02*
X115760147Y-59812809D01*
X115760147Y-59812809D02*
X115874433Y-59812809D01*
X106103006Y-62430457D02*
X106045863Y-62487600D01*
X106045863Y-62487600D02*
X105874435Y-62544742D01*
X105874435Y-62544742D02*
X105760149Y-62544742D01*
X105760149Y-62544742D02*
X105588720Y-62487600D01*
X105588720Y-62487600D02*
X105474435Y-62373314D01*
X105474435Y-62373314D02*
X105417292Y-62259028D01*
X105417292Y-62259028D02*
X105360149Y-62030457D01*
X105360149Y-62030457D02*
X105360149Y-61859028D01*
X105360149Y-61859028D02*
X105417292Y-61630457D01*
X105417292Y-61630457D02*
X105474435Y-61516171D01*
X105474435Y-61516171D02*
X105588720Y-61401885D01*
X105588720Y-61401885D02*
X105760149Y-61344742D01*
X105760149Y-61344742D02*
X105874435Y-61344742D01*
X105874435Y-61344742D02*
X106045863Y-61401885D01*
X106045863Y-61401885D02*
X106103006Y-61459028D01*
X106788720Y-62544742D02*
X106674435Y-62487600D01*
X106674435Y-62487600D02*
X106617292Y-62430457D01*
X106617292Y-62430457D02*
X106560149Y-62316171D01*
X106560149Y-62316171D02*
X106560149Y-61973314D01*
X106560149Y-61973314D02*
X106617292Y-61859028D01*
X106617292Y-61859028D02*
X106674435Y-61801885D01*
X106674435Y-61801885D02*
X106788720Y-61744742D01*
X106788720Y-61744742D02*
X106960149Y-61744742D01*
X106960149Y-61744742D02*
X107074435Y-61801885D01*
X107074435Y-61801885D02*
X107131578Y-61859028D01*
X107131578Y-61859028D02*
X107188720Y-61973314D01*
X107188720Y-61973314D02*
X107188720Y-62316171D01*
X107188720Y-62316171D02*
X107131578Y-62430457D01*
X107131578Y-62430457D02*
X107074435Y-62487600D01*
X107074435Y-62487600D02*
X106960149Y-62544742D01*
X106960149Y-62544742D02*
X106788720Y-62544742D01*
X107703006Y-61744742D02*
X107703006Y-62544742D01*
X107703006Y-61859028D02*
X107760149Y-61801885D01*
X107760149Y-61801885D02*
X107874434Y-61744742D01*
X107874434Y-61744742D02*
X108045863Y-61744742D01*
X108045863Y-61744742D02*
X108160149Y-61801885D01*
X108160149Y-61801885D02*
X108217292Y-61916171D01*
X108217292Y-61916171D02*
X108217292Y-62544742D01*
X108617291Y-61744742D02*
X109074434Y-61744742D01*
X108788720Y-61344742D02*
X108788720Y-62373314D01*
X108788720Y-62373314D02*
X108845863Y-62487600D01*
X108845863Y-62487600D02*
X108960148Y-62544742D01*
X108960148Y-62544742D02*
X109074434Y-62544742D01*
X109474434Y-62544742D02*
X109474434Y-61744742D01*
X109474434Y-61973314D02*
X109531577Y-61859028D01*
X109531577Y-61859028D02*
X109588720Y-61801885D01*
X109588720Y-61801885D02*
X109703005Y-61744742D01*
X109703005Y-61744742D02*
X109817291Y-61744742D01*
X110388719Y-62544742D02*
X110274434Y-62487600D01*
X110274434Y-62487600D02*
X110217291Y-62430457D01*
X110217291Y-62430457D02*
X110160148Y-62316171D01*
X110160148Y-62316171D02*
X110160148Y-61973314D01*
X110160148Y-61973314D02*
X110217291Y-61859028D01*
X110217291Y-61859028D02*
X110274434Y-61801885D01*
X110274434Y-61801885D02*
X110388719Y-61744742D01*
X110388719Y-61744742D02*
X110560148Y-61744742D01*
X110560148Y-61744742D02*
X110674434Y-61801885D01*
X110674434Y-61801885D02*
X110731577Y-61859028D01*
X110731577Y-61859028D02*
X110788719Y-61973314D01*
X110788719Y-61973314D02*
X110788719Y-62316171D01*
X110788719Y-62316171D02*
X110731577Y-62430457D01*
X110731577Y-62430457D02*
X110674434Y-62487600D01*
X110674434Y-62487600D02*
X110560148Y-62544742D01*
X110560148Y-62544742D02*
X110388719Y-62544742D01*
X111474433Y-62544742D02*
X111360148Y-62487600D01*
X111360148Y-62487600D02*
X111303005Y-62373314D01*
X111303005Y-62373314D02*
X111303005Y-61344742D01*
X113245862Y-61916171D02*
X113417290Y-61973314D01*
X113417290Y-61973314D02*
X113474433Y-62030457D01*
X113474433Y-62030457D02*
X113531576Y-62144742D01*
X113531576Y-62144742D02*
X113531576Y-62316171D01*
X113531576Y-62316171D02*
X113474433Y-62430457D01*
X113474433Y-62430457D02*
X113417290Y-62487600D01*
X113417290Y-62487600D02*
X113303005Y-62544742D01*
X113303005Y-62544742D02*
X112845862Y-62544742D01*
X112845862Y-62544742D02*
X112845862Y-61344742D01*
X112845862Y-61344742D02*
X113245862Y-61344742D01*
X113245862Y-61344742D02*
X113360148Y-61401885D01*
X113360148Y-61401885D02*
X113417290Y-61459028D01*
X113417290Y-61459028D02*
X113474433Y-61573314D01*
X113474433Y-61573314D02*
X113474433Y-61687600D01*
X113474433Y-61687600D02*
X113417290Y-61801885D01*
X113417290Y-61801885D02*
X113360148Y-61859028D01*
X113360148Y-61859028D02*
X113245862Y-61916171D01*
X113245862Y-61916171D02*
X112845862Y-61916171D01*
X114217290Y-62544742D02*
X114103005Y-62487600D01*
X114103005Y-62487600D02*
X114045862Y-62430457D01*
X114045862Y-62430457D02*
X113988719Y-62316171D01*
X113988719Y-62316171D02*
X113988719Y-61973314D01*
X113988719Y-61973314D02*
X114045862Y-61859028D01*
X114045862Y-61859028D02*
X114103005Y-61801885D01*
X114103005Y-61801885D02*
X114217290Y-61744742D01*
X114217290Y-61744742D02*
X114388719Y-61744742D01*
X114388719Y-61744742D02*
X114503005Y-61801885D01*
X114503005Y-61801885D02*
X114560148Y-61859028D01*
X114560148Y-61859028D02*
X114617290Y-61973314D01*
X114617290Y-61973314D02*
X114617290Y-62316171D01*
X114617290Y-62316171D02*
X114560148Y-62430457D01*
X114560148Y-62430457D02*
X114503005Y-62487600D01*
X114503005Y-62487600D02*
X114388719Y-62544742D01*
X114388719Y-62544742D02*
X114217290Y-62544742D01*
X115645862Y-62544742D02*
X115645862Y-61916171D01*
X115645862Y-61916171D02*
X115588719Y-61801885D01*
X115588719Y-61801885D02*
X115474433Y-61744742D01*
X115474433Y-61744742D02*
X115245862Y-61744742D01*
X115245862Y-61744742D02*
X115131576Y-61801885D01*
X115645862Y-62487600D02*
X115531576Y-62544742D01*
X115531576Y-62544742D02*
X115245862Y-62544742D01*
X115245862Y-62544742D02*
X115131576Y-62487600D01*
X115131576Y-62487600D02*
X115074433Y-62373314D01*
X115074433Y-62373314D02*
X115074433Y-62259028D01*
X115074433Y-62259028D02*
X115131576Y-62144742D01*
X115131576Y-62144742D02*
X115245862Y-62087600D01*
X115245862Y-62087600D02*
X115531576Y-62087600D01*
X115531576Y-62087600D02*
X115645862Y-62030457D01*
X116217290Y-62544742D02*
X116217290Y-61744742D01*
X116217290Y-61973314D02*
X116274433Y-61859028D01*
X116274433Y-61859028D02*
X116331576Y-61801885D01*
X116331576Y-61801885D02*
X116445861Y-61744742D01*
X116445861Y-61744742D02*
X116560147Y-61744742D01*
X117474433Y-62544742D02*
X117474433Y-61344742D01*
X117474433Y-62487600D02*
X117360147Y-62544742D01*
X117360147Y-62544742D02*
X117131575Y-62544742D01*
X117131575Y-62544742D02*
X117017290Y-62487600D01*
X117017290Y-62487600D02*
X116960147Y-62430457D01*
X116960147Y-62430457D02*
X116903004Y-62316171D01*
X116903004Y-62316171D02*
X116903004Y-61973314D01*
X116903004Y-61973314D02*
X116960147Y-61859028D01*
X116960147Y-61859028D02*
X117017290Y-61801885D01*
X117017290Y-61801885D02*
X117131575Y-61744742D01*
X117131575Y-61744742D02*
X117360147Y-61744742D01*
X117360147Y-61744742D02*
X117474433Y-61801885D01*
X106103006Y-64476675D02*
X105703006Y-63905247D01*
X105417292Y-64476675D02*
X105417292Y-63276675D01*
X105417292Y-63276675D02*
X105874435Y-63276675D01*
X105874435Y-63276675D02*
X105988720Y-63333818D01*
X105988720Y-63333818D02*
X106045863Y-63390961D01*
X106045863Y-63390961D02*
X106103006Y-63505247D01*
X106103006Y-63505247D02*
X106103006Y-63676675D01*
X106103006Y-63676675D02*
X106045863Y-63790961D01*
X106045863Y-63790961D02*
X105988720Y-63848104D01*
X105988720Y-63848104D02*
X105874435Y-63905247D01*
X105874435Y-63905247D02*
X105417292Y-63905247D01*
X107074435Y-64419533D02*
X106960149Y-64476675D01*
X106960149Y-64476675D02*
X106731578Y-64476675D01*
X106731578Y-64476675D02*
X106617292Y-64419533D01*
X106617292Y-64419533D02*
X106560149Y-64305247D01*
X106560149Y-64305247D02*
X106560149Y-63848104D01*
X106560149Y-63848104D02*
X106617292Y-63733818D01*
X106617292Y-63733818D02*
X106731578Y-63676675D01*
X106731578Y-63676675D02*
X106960149Y-63676675D01*
X106960149Y-63676675D02*
X107074435Y-63733818D01*
X107074435Y-63733818D02*
X107131578Y-63848104D01*
X107131578Y-63848104D02*
X107131578Y-63962390D01*
X107131578Y-63962390D02*
X106560149Y-64076675D01*
X107531577Y-63676675D02*
X107817291Y-64476675D01*
X107817291Y-64476675D02*
X108103006Y-63676675D01*
X108560149Y-64362390D02*
X108617292Y-64419533D01*
X108617292Y-64419533D02*
X108560149Y-64476675D01*
X108560149Y-64476675D02*
X108503006Y-64419533D01*
X108503006Y-64419533D02*
X108560149Y-64362390D01*
X108560149Y-64362390D02*
X108560149Y-64476675D01*
X110045864Y-64476675D02*
X110045864Y-63276675D01*
X110045864Y-63276675D02*
X110331578Y-63276675D01*
X110331578Y-63276675D02*
X110503007Y-63333818D01*
X110503007Y-63333818D02*
X110617292Y-63448104D01*
X110617292Y-63448104D02*
X110674435Y-63562390D01*
X110674435Y-63562390D02*
X110731578Y-63790961D01*
X110731578Y-63790961D02*
X110731578Y-63962390D01*
X110731578Y-63962390D02*
X110674435Y-64190961D01*
X110674435Y-64190961D02*
X110617292Y-64305247D01*
X110617292Y-64305247D02*
X110503007Y-64419533D01*
X110503007Y-64419533D02*
X110331578Y-64476675D01*
X110331578Y-64476675D02*
X110045864Y-64476675D01*
X109009048Y-145601004D02*
X109009048Y-146529576D01*
X109009048Y-146529576D02*
X108947143Y-146715290D01*
X108947143Y-146715290D02*
X108823334Y-146839100D01*
X108823334Y-146839100D02*
X108637619Y-146901004D01*
X108637619Y-146901004D02*
X108513810Y-146901004D01*
X109628095Y-146901004D02*
X109628095Y-145601004D01*
X109628095Y-145601004D02*
X110123333Y-145601004D01*
X110123333Y-145601004D02*
X110247143Y-145662909D01*
X110247143Y-145662909D02*
X110309048Y-145724814D01*
X110309048Y-145724814D02*
X110370952Y-145848623D01*
X110370952Y-145848623D02*
X110370952Y-146034338D01*
X110370952Y-146034338D02*
X110309048Y-146158147D01*
X110309048Y-146158147D02*
X110247143Y-146220052D01*
X110247143Y-146220052D02*
X110123333Y-146281957D01*
X110123333Y-146281957D02*
X109628095Y-146281957D01*
X110928095Y-146901004D02*
X110928095Y-145601004D01*
X110928095Y-145601004D02*
X111670952Y-146901004D01*
X111670952Y-146901004D02*
X111670952Y-145601004D01*
X112351905Y-146839100D02*
X112351905Y-146901004D01*
X112351905Y-146901004D02*
X112290000Y-147024814D01*
X112290000Y-147024814D02*
X112228096Y-147086719D01*
X114642381Y-146777195D02*
X114580477Y-146839100D01*
X114580477Y-146839100D02*
X114394762Y-146901004D01*
X114394762Y-146901004D02*
X114270953Y-146901004D01*
X114270953Y-146901004D02*
X114085239Y-146839100D01*
X114085239Y-146839100D02*
X113961429Y-146715290D01*
X113961429Y-146715290D02*
X113899524Y-146591480D01*
X113899524Y-146591480D02*
X113837620Y-146343861D01*
X113837620Y-146343861D02*
X113837620Y-146158147D01*
X113837620Y-146158147D02*
X113899524Y-145910528D01*
X113899524Y-145910528D02*
X113961429Y-145786719D01*
X113961429Y-145786719D02*
X114085239Y-145662909D01*
X114085239Y-145662909D02*
X114270953Y-145601004D01*
X114270953Y-145601004D02*
X114394762Y-145601004D01*
X114394762Y-145601004D02*
X114580477Y-145662909D01*
X114580477Y-145662909D02*
X114642381Y-145724814D01*
X115137620Y-146839100D02*
X115323334Y-146901004D01*
X115323334Y-146901004D02*
X115632858Y-146901004D01*
X115632858Y-146901004D02*
X115756667Y-146839100D01*
X115756667Y-146839100D02*
X115818572Y-146777195D01*
X115818572Y-146777195D02*
X115880477Y-146653385D01*
X115880477Y-146653385D02*
X115880477Y-146529576D01*
X115880477Y-146529576D02*
X115818572Y-146405766D01*
X115818572Y-146405766D02*
X115756667Y-146343861D01*
X115756667Y-146343861D02*
X115632858Y-146281957D01*
X115632858Y-146281957D02*
X115385239Y-146220052D01*
X115385239Y-146220052D02*
X115261429Y-146158147D01*
X115261429Y-146158147D02*
X115199524Y-146096242D01*
X115199524Y-146096242D02*
X115137620Y-145972433D01*
X115137620Y-145972433D02*
X115137620Y-145848623D01*
X115137620Y-145848623D02*
X115199524Y-145724814D01*
X115199524Y-145724814D02*
X115261429Y-145662909D01*
X115261429Y-145662909D02*
X115385239Y-145601004D01*
X115385239Y-145601004D02*
X115694762Y-145601004D01*
X115694762Y-145601004D02*
X115880477Y-145662909D01*
X116499524Y-146839100D02*
X116499524Y-146901004D01*
X116499524Y-146901004D02*
X116437619Y-147024814D01*
X116437619Y-147024814D02*
X116375715Y-147086719D01*
X118294762Y-145601004D02*
X118542381Y-145601004D01*
X118542381Y-145601004D02*
X118666191Y-145662909D01*
X118666191Y-145662909D02*
X118790000Y-145786719D01*
X118790000Y-145786719D02*
X118851905Y-146034338D01*
X118851905Y-146034338D02*
X118851905Y-146467671D01*
X118851905Y-146467671D02*
X118790000Y-146715290D01*
X118790000Y-146715290D02*
X118666191Y-146839100D01*
X118666191Y-146839100D02*
X118542381Y-146901004D01*
X118542381Y-146901004D02*
X118294762Y-146901004D01*
X118294762Y-146901004D02*
X118170953Y-146839100D01*
X118170953Y-146839100D02*
X118047143Y-146715290D01*
X118047143Y-146715290D02*
X117985239Y-146467671D01*
X117985239Y-146467671D02*
X117985239Y-146034338D01*
X117985239Y-146034338D02*
X118047143Y-145786719D01*
X118047143Y-145786719D02*
X118170953Y-145662909D01*
X118170953Y-145662909D02*
X118294762Y-145601004D01*
X119409048Y-146034338D02*
X119409048Y-147334338D01*
X119409048Y-146096242D02*
X119532858Y-146034338D01*
X119532858Y-146034338D02*
X119780477Y-146034338D01*
X119780477Y-146034338D02*
X119904286Y-146096242D01*
X119904286Y-146096242D02*
X119966191Y-146158147D01*
X119966191Y-146158147D02*
X120028096Y-146281957D01*
X120028096Y-146281957D02*
X120028096Y-146653385D01*
X120028096Y-146653385D02*
X119966191Y-146777195D01*
X119966191Y-146777195D02*
X119904286Y-146839100D01*
X119904286Y-146839100D02*
X119780477Y-146901004D01*
X119780477Y-146901004D02*
X119532858Y-146901004D01*
X119532858Y-146901004D02*
X119409048Y-146839100D01*
X121080476Y-146839100D02*
X120956667Y-146901004D01*
X120956667Y-146901004D02*
X120709048Y-146901004D01*
X120709048Y-146901004D02*
X120585238Y-146839100D01*
X120585238Y-146839100D02*
X120523334Y-146715290D01*
X120523334Y-146715290D02*
X120523334Y-146220052D01*
X120523334Y-146220052D02*
X120585238Y-146096242D01*
X120585238Y-146096242D02*
X120709048Y-146034338D01*
X120709048Y-146034338D02*
X120956667Y-146034338D01*
X120956667Y-146034338D02*
X121080476Y-146096242D01*
X121080476Y-146096242D02*
X121142381Y-146220052D01*
X121142381Y-146220052D02*
X121142381Y-146343861D01*
X121142381Y-146343861D02*
X120523334Y-146467671D01*
X121699524Y-146034338D02*
X121699524Y-146901004D01*
X121699524Y-146158147D02*
X121761429Y-146096242D01*
X121761429Y-146096242D02*
X121885239Y-146034338D01*
X121885239Y-146034338D02*
X122070953Y-146034338D01*
X122070953Y-146034338D02*
X122194762Y-146096242D01*
X122194762Y-146096242D02*
X122256667Y-146220052D01*
X122256667Y-146220052D02*
X122256667Y-146901004D01*
X123866190Y-146220052D02*
X124299524Y-146220052D01*
X124485238Y-146901004D02*
X123866190Y-146901004D01*
X123866190Y-146901004D02*
X123866190Y-145601004D01*
X123866190Y-145601004D02*
X124485238Y-145601004D01*
X125042380Y-146034338D02*
X125042380Y-147334338D01*
X125042380Y-146096242D02*
X125166190Y-146034338D01*
X125166190Y-146034338D02*
X125413809Y-146034338D01*
X125413809Y-146034338D02*
X125537618Y-146096242D01*
X125537618Y-146096242D02*
X125599523Y-146158147D01*
X125599523Y-146158147D02*
X125661428Y-146281957D01*
X125661428Y-146281957D02*
X125661428Y-146653385D01*
X125661428Y-146653385D02*
X125599523Y-146777195D01*
X125599523Y-146777195D02*
X125537618Y-146839100D01*
X125537618Y-146839100D02*
X125413809Y-146901004D01*
X125413809Y-146901004D02*
X125166190Y-146901004D01*
X125166190Y-146901004D02*
X125042380Y-146839100D01*
X126218570Y-146901004D02*
X126218570Y-145601004D01*
X126775713Y-146901004D02*
X126775713Y-146220052D01*
X126775713Y-146220052D02*
X126713808Y-146096242D01*
X126713808Y-146096242D02*
X126589999Y-146034338D01*
X126589999Y-146034338D02*
X126404285Y-146034338D01*
X126404285Y-146034338D02*
X126280475Y-146096242D01*
X126280475Y-146096242D02*
X126218570Y-146158147D01*
X127270951Y-146034338D02*
X127580475Y-146901004D01*
X127889998Y-146034338D02*
X127580475Y-146901004D01*
X127580475Y-146901004D02*
X127456665Y-147210528D01*
X127456665Y-147210528D02*
X127394760Y-147272433D01*
X127394760Y-147272433D02*
X127270951Y-147334338D01*
X128323332Y-146839100D02*
X128447141Y-146901004D01*
X128447141Y-146901004D02*
X128694760Y-146901004D01*
X128694760Y-146901004D02*
X128818570Y-146839100D01*
X128818570Y-146839100D02*
X128880474Y-146715290D01*
X128880474Y-146715290D02*
X128880474Y-146653385D01*
X128880474Y-146653385D02*
X128818570Y-146529576D01*
X128818570Y-146529576D02*
X128694760Y-146467671D01*
X128694760Y-146467671D02*
X128509046Y-146467671D01*
X128509046Y-146467671D02*
X128385236Y-146405766D01*
X128385236Y-146405766D02*
X128323332Y-146281957D01*
X128323332Y-146281957D02*
X128323332Y-146220052D01*
X128323332Y-146220052D02*
X128385236Y-146096242D01*
X128385236Y-146096242D02*
X128509046Y-146034338D01*
X128509046Y-146034338D02*
X128694760Y-146034338D01*
X128694760Y-146034338D02*
X128818570Y-146096242D01*
X130428093Y-146901004D02*
X130428093Y-145601004D01*
X131047141Y-146034338D02*
X131047141Y-146901004D01*
X131047141Y-146158147D02*
X131109046Y-146096242D01*
X131109046Y-146096242D02*
X131232856Y-146034338D01*
X131232856Y-146034338D02*
X131418570Y-146034338D01*
X131418570Y-146034338D02*
X131542379Y-146096242D01*
X131542379Y-146096242D02*
X131604284Y-146220052D01*
X131604284Y-146220052D02*
X131604284Y-146901004D01*
X132780474Y-146839100D02*
X132656665Y-146901004D01*
X132656665Y-146901004D02*
X132409046Y-146901004D01*
X132409046Y-146901004D02*
X132285236Y-146839100D01*
X132285236Y-146839100D02*
X132223331Y-146777195D01*
X132223331Y-146777195D02*
X132161427Y-146653385D01*
X132161427Y-146653385D02*
X132161427Y-146281957D01*
X132161427Y-146281957D02*
X132223331Y-146158147D01*
X132223331Y-146158147D02*
X132285236Y-146096242D01*
X132285236Y-146096242D02*
X132409046Y-146034338D01*
X132409046Y-146034338D02*
X132656665Y-146034338D01*
X132656665Y-146034338D02*
X132780474Y-146096242D01*
X133337617Y-146777195D02*
X133399522Y-146839100D01*
X133399522Y-146839100D02*
X133337617Y-146901004D01*
X133337617Y-146901004D02*
X133275713Y-146839100D01*
X133275713Y-146839100D02*
X133337617Y-146777195D01*
X133337617Y-146777195D02*
X133337617Y-146901004D01*
X134018570Y-146839100D02*
X134018570Y-146901004D01*
X134018570Y-146901004D02*
X133956665Y-147024814D01*
X133956665Y-147024814D02*
X133894761Y-147086719D01*
X135628094Y-145601004D02*
X135504285Y-145848623D01*
X136123333Y-145724814D02*
X136185237Y-145662909D01*
X136185237Y-145662909D02*
X136309047Y-145601004D01*
X136309047Y-145601004D02*
X136618571Y-145601004D01*
X136618571Y-145601004D02*
X136742380Y-145662909D01*
X136742380Y-145662909D02*
X136804285Y-145724814D01*
X136804285Y-145724814D02*
X136866190Y-145848623D01*
X136866190Y-145848623D02*
X136866190Y-145972433D01*
X136866190Y-145972433D02*
X136804285Y-146158147D01*
X136804285Y-146158147D02*
X136061428Y-146901004D01*
X136061428Y-146901004D02*
X136866190Y-146901004D01*
X137980475Y-146034338D02*
X137980475Y-146901004D01*
X137670951Y-145539100D02*
X137361428Y-146467671D01*
X137361428Y-146467671D02*
X138166189Y-146467671D01*
D10*
X126433333Y-80754819D02*
X126100000Y-80278628D01*
X125861905Y-80754819D02*
X125861905Y-79754819D01*
X125861905Y-79754819D02*
X126242857Y-79754819D01*
X126242857Y-79754819D02*
X126338095Y-79802438D01*
X126338095Y-79802438D02*
X126385714Y-79850057D01*
X126385714Y-79850057D02*
X126433333Y-79945295D01*
X126433333Y-79945295D02*
X126433333Y-80088152D01*
X126433333Y-80088152D02*
X126385714Y-80183390D01*
X126385714Y-80183390D02*
X126338095Y-80231009D01*
X126338095Y-80231009D02*
X126242857Y-80278628D01*
X126242857Y-80278628D02*
X125861905Y-80278628D01*
X127290476Y-80088152D02*
X127290476Y-80754819D01*
X127052381Y-79707200D02*
X126814286Y-80421485D01*
X126814286Y-80421485D02*
X127433333Y-80421485D01*
X105666666Y-118029819D02*
X105666666Y-118744104D01*
X105666666Y-118744104D02*
X105619047Y-118886961D01*
X105619047Y-118886961D02*
X105523809Y-118982200D01*
X105523809Y-118982200D02*
X105380952Y-119029819D01*
X105380952Y-119029819D02*
X105285714Y-119029819D01*
X106666666Y-119029819D02*
X106095238Y-119029819D01*
X106380952Y-119029819D02*
X106380952Y-118029819D01*
X106380952Y-118029819D02*
X106285714Y-118172676D01*
X106285714Y-118172676D02*
X106190476Y-118267914D01*
X106190476Y-118267914D02*
X106095238Y-118315533D01*
X134859580Y-65142857D02*
X134907200Y-65190476D01*
X134907200Y-65190476D02*
X134954819Y-65333333D01*
X134954819Y-65333333D02*
X134954819Y-65428571D01*
X134954819Y-65428571D02*
X134907200Y-65571428D01*
X134907200Y-65571428D02*
X134811961Y-65666666D01*
X134811961Y-65666666D02*
X134716723Y-65714285D01*
X134716723Y-65714285D02*
X134526247Y-65761904D01*
X134526247Y-65761904D02*
X134383390Y-65761904D01*
X134383390Y-65761904D02*
X134192914Y-65714285D01*
X134192914Y-65714285D02*
X134097676Y-65666666D01*
X134097676Y-65666666D02*
X134002438Y-65571428D01*
X134002438Y-65571428D02*
X133954819Y-65428571D01*
X133954819Y-65428571D02*
X133954819Y-65333333D01*
X133954819Y-65333333D02*
X134002438Y-65190476D01*
X134002438Y-65190476D02*
X134050057Y-65142857D01*
X133954819Y-64809523D02*
X133954819Y-64190476D01*
X133954819Y-64190476D02*
X134335771Y-64523809D01*
X134335771Y-64523809D02*
X134335771Y-64380952D01*
X134335771Y-64380952D02*
X134383390Y-64285714D01*
X134383390Y-64285714D02*
X134431009Y-64238095D01*
X134431009Y-64238095D02*
X134526247Y-64190476D01*
X134526247Y-64190476D02*
X134764342Y-64190476D01*
X134764342Y-64190476D02*
X134859580Y-64238095D01*
X134859580Y-64238095D02*
X134907200Y-64285714D01*
X134907200Y-64285714D02*
X134954819Y-64380952D01*
X134954819Y-64380952D02*
X134954819Y-64666666D01*
X134954819Y-64666666D02*
X134907200Y-64761904D01*
X134907200Y-64761904D02*
X134859580Y-64809523D01*
X134954819Y-63714285D02*
X134954819Y-63523809D01*
X134954819Y-63523809D02*
X134907200Y-63428571D01*
X134907200Y-63428571D02*
X134859580Y-63380952D01*
X134859580Y-63380952D02*
X134716723Y-63285714D01*
X134716723Y-63285714D02*
X134526247Y-63238095D01*
X134526247Y-63238095D02*
X134145295Y-63238095D01*
X134145295Y-63238095D02*
X134050057Y-63285714D01*
X134050057Y-63285714D02*
X134002438Y-63333333D01*
X134002438Y-63333333D02*
X133954819Y-63428571D01*
X133954819Y-63428571D02*
X133954819Y-63619047D01*
X133954819Y-63619047D02*
X134002438Y-63714285D01*
X134002438Y-63714285D02*
X134050057Y-63761904D01*
X134050057Y-63761904D02*
X134145295Y-63809523D01*
X134145295Y-63809523D02*
X134383390Y-63809523D01*
X134383390Y-63809523D02*
X134478628Y-63761904D01*
X134478628Y-63761904D02*
X134526247Y-63714285D01*
X134526247Y-63714285D02*
X134573866Y-63619047D01*
X134573866Y-63619047D02*
X134573866Y-63428571D01*
X134573866Y-63428571D02*
X134526247Y-63333333D01*
X134526247Y-63333333D02*
X134478628Y-63285714D01*
X134478628Y-63285714D02*
X134383390Y-63238095D01*
X133333333Y-77954819D02*
X133000000Y-77478628D01*
X132761905Y-77954819D02*
X132761905Y-76954819D01*
X132761905Y-76954819D02*
X133142857Y-76954819D01*
X133142857Y-76954819D02*
X133238095Y-77002438D01*
X133238095Y-77002438D02*
X133285714Y-77050057D01*
X133285714Y-77050057D02*
X133333333Y-77145295D01*
X133333333Y-77145295D02*
X133333333Y-77288152D01*
X133333333Y-77288152D02*
X133285714Y-77383390D01*
X133285714Y-77383390D02*
X133238095Y-77431009D01*
X133238095Y-77431009D02*
X133142857Y-77478628D01*
X133142857Y-77478628D02*
X132761905Y-77478628D01*
X133809524Y-77954819D02*
X134000000Y-77954819D01*
X134000000Y-77954819D02*
X134095238Y-77907200D01*
X134095238Y-77907200D02*
X134142857Y-77859580D01*
X134142857Y-77859580D02*
X134238095Y-77716723D01*
X134238095Y-77716723D02*
X134285714Y-77526247D01*
X134285714Y-77526247D02*
X134285714Y-77145295D01*
X134285714Y-77145295D02*
X134238095Y-77050057D01*
X134238095Y-77050057D02*
X134190476Y-77002438D01*
X134190476Y-77002438D02*
X134095238Y-76954819D01*
X134095238Y-76954819D02*
X133904762Y-76954819D01*
X133904762Y-76954819D02*
X133809524Y-77002438D01*
X133809524Y-77002438D02*
X133761905Y-77050057D01*
X133761905Y-77050057D02*
X133714286Y-77145295D01*
X133714286Y-77145295D02*
X133714286Y-77383390D01*
X133714286Y-77383390D02*
X133761905Y-77478628D01*
X133761905Y-77478628D02*
X133809524Y-77526247D01*
X133809524Y-77526247D02*
X133904762Y-77573866D01*
X133904762Y-77573866D02*
X134095238Y-77573866D01*
X134095238Y-77573866D02*
X134190476Y-77526247D01*
X134190476Y-77526247D02*
X134238095Y-77478628D01*
X134238095Y-77478628D02*
X134285714Y-77383390D01*
X106459580Y-81242857D02*
X106507200Y-81290476D01*
X106507200Y-81290476D02*
X106554819Y-81433333D01*
X106554819Y-81433333D02*
X106554819Y-81528571D01*
X106554819Y-81528571D02*
X106507200Y-81671428D01*
X106507200Y-81671428D02*
X106411961Y-81766666D01*
X106411961Y-81766666D02*
X106316723Y-81814285D01*
X106316723Y-81814285D02*
X106126247Y-81861904D01*
X106126247Y-81861904D02*
X105983390Y-81861904D01*
X105983390Y-81861904D02*
X105792914Y-81814285D01*
X105792914Y-81814285D02*
X105697676Y-81766666D01*
X105697676Y-81766666D02*
X105602438Y-81671428D01*
X105602438Y-81671428D02*
X105554819Y-81528571D01*
X105554819Y-81528571D02*
X105554819Y-81433333D01*
X105554819Y-81433333D02*
X105602438Y-81290476D01*
X105602438Y-81290476D02*
X105650057Y-81242857D01*
X106554819Y-80290476D02*
X106554819Y-80861904D01*
X106554819Y-80576190D02*
X105554819Y-80576190D01*
X105554819Y-80576190D02*
X105697676Y-80671428D01*
X105697676Y-80671428D02*
X105792914Y-80766666D01*
X105792914Y-80766666D02*
X105840533Y-80861904D01*
X105554819Y-79385714D02*
X105554819Y-79861904D01*
X105554819Y-79861904D02*
X106031009Y-79909523D01*
X106031009Y-79909523D02*
X105983390Y-79861904D01*
X105983390Y-79861904D02*
X105935771Y-79766666D01*
X105935771Y-79766666D02*
X105935771Y-79528571D01*
X105935771Y-79528571D02*
X105983390Y-79433333D01*
X105983390Y-79433333D02*
X106031009Y-79385714D01*
X106031009Y-79385714D02*
X106126247Y-79338095D01*
X106126247Y-79338095D02*
X106364342Y-79338095D01*
X106364342Y-79338095D02*
X106459580Y-79385714D01*
X106459580Y-79385714D02*
X106507200Y-79433333D01*
X106507200Y-79433333D02*
X106554819Y-79528571D01*
X106554819Y-79528571D02*
X106554819Y-79766666D01*
X106554819Y-79766666D02*
X106507200Y-79861904D01*
X106507200Y-79861904D02*
X106459580Y-79909523D01*
X107633333Y-79959580D02*
X107585714Y-80007200D01*
X107585714Y-80007200D02*
X107442857Y-80054819D01*
X107442857Y-80054819D02*
X107347619Y-80054819D01*
X107347619Y-80054819D02*
X107204762Y-80007200D01*
X107204762Y-80007200D02*
X107109524Y-79911961D01*
X107109524Y-79911961D02*
X107061905Y-79816723D01*
X107061905Y-79816723D02*
X107014286Y-79626247D01*
X107014286Y-79626247D02*
X107014286Y-79483390D01*
X107014286Y-79483390D02*
X107061905Y-79292914D01*
X107061905Y-79292914D02*
X107109524Y-79197676D01*
X107109524Y-79197676D02*
X107204762Y-79102438D01*
X107204762Y-79102438D02*
X107347619Y-79054819D01*
X107347619Y-79054819D02*
X107442857Y-79054819D01*
X107442857Y-79054819D02*
X107585714Y-79102438D01*
X107585714Y-79102438D02*
X107633333Y-79150057D01*
X108490476Y-79054819D02*
X108300000Y-79054819D01*
X108300000Y-79054819D02*
X108204762Y-79102438D01*
X108204762Y-79102438D02*
X108157143Y-79150057D01*
X108157143Y-79150057D02*
X108061905Y-79292914D01*
X108061905Y-79292914D02*
X108014286Y-79483390D01*
X108014286Y-79483390D02*
X108014286Y-79864342D01*
X108014286Y-79864342D02*
X108061905Y-79959580D01*
X108061905Y-79959580D02*
X108109524Y-80007200D01*
X108109524Y-80007200D02*
X108204762Y-80054819D01*
X108204762Y-80054819D02*
X108395238Y-80054819D01*
X108395238Y-80054819D02*
X108490476Y-80007200D01*
X108490476Y-80007200D02*
X108538095Y-79959580D01*
X108538095Y-79959580D02*
X108585714Y-79864342D01*
X108585714Y-79864342D02*
X108585714Y-79626247D01*
X108585714Y-79626247D02*
X108538095Y-79531009D01*
X108538095Y-79531009D02*
X108490476Y-79483390D01*
X108490476Y-79483390D02*
X108395238Y-79435771D01*
X108395238Y-79435771D02*
X108204762Y-79435771D01*
X108204762Y-79435771D02*
X108109524Y-79483390D01*
X108109524Y-79483390D02*
X108061905Y-79531009D01*
X108061905Y-79531009D02*
X108014286Y-79626247D01*
X131538095Y-87654819D02*
X132109523Y-87654819D01*
X131823809Y-88654819D02*
X131823809Y-87654819D01*
X132442857Y-88654819D02*
X132442857Y-87654819D01*
X132442857Y-87654819D02*
X132823809Y-87654819D01*
X132823809Y-87654819D02*
X132919047Y-87702438D01*
X132919047Y-87702438D02*
X132966666Y-87750057D01*
X132966666Y-87750057D02*
X133014285Y-87845295D01*
X133014285Y-87845295D02*
X133014285Y-87988152D01*
X133014285Y-87988152D02*
X132966666Y-88083390D01*
X132966666Y-88083390D02*
X132919047Y-88131009D01*
X132919047Y-88131009D02*
X132823809Y-88178628D01*
X132823809Y-88178628D02*
X132442857Y-88178628D01*
X133871428Y-87988152D02*
X133871428Y-88654819D01*
X133633333Y-87607200D02*
X133395238Y-88321485D01*
X133395238Y-88321485D02*
X134014285Y-88321485D01*
X114833333Y-69454819D02*
X114500000Y-68978628D01*
X114261905Y-69454819D02*
X114261905Y-68454819D01*
X114261905Y-68454819D02*
X114642857Y-68454819D01*
X114642857Y-68454819D02*
X114738095Y-68502438D01*
X114738095Y-68502438D02*
X114785714Y-68550057D01*
X114785714Y-68550057D02*
X114833333Y-68645295D01*
X114833333Y-68645295D02*
X114833333Y-68788152D01*
X114833333Y-68788152D02*
X114785714Y-68883390D01*
X114785714Y-68883390D02*
X114738095Y-68931009D01*
X114738095Y-68931009D02*
X114642857Y-68978628D01*
X114642857Y-68978628D02*
X114261905Y-68978628D01*
X115785714Y-69454819D02*
X115214286Y-69454819D01*
X115500000Y-69454819D02*
X115500000Y-68454819D01*
X115500000Y-68454819D02*
X115404762Y-68597676D01*
X115404762Y-68597676D02*
X115309524Y-68692914D01*
X115309524Y-68692914D02*
X115214286Y-68740533D01*
X116157142Y-128159580D02*
X116109523Y-128207200D01*
X116109523Y-128207200D02*
X115966666Y-128254819D01*
X115966666Y-128254819D02*
X115871428Y-128254819D01*
X115871428Y-128254819D02*
X115728571Y-128207200D01*
X115728571Y-128207200D02*
X115633333Y-128111961D01*
X115633333Y-128111961D02*
X115585714Y-128016723D01*
X115585714Y-128016723D02*
X115538095Y-127826247D01*
X115538095Y-127826247D02*
X115538095Y-127683390D01*
X115538095Y-127683390D02*
X115585714Y-127492914D01*
X115585714Y-127492914D02*
X115633333Y-127397676D01*
X115633333Y-127397676D02*
X115728571Y-127302438D01*
X115728571Y-127302438D02*
X115871428Y-127254819D01*
X115871428Y-127254819D02*
X115966666Y-127254819D01*
X115966666Y-127254819D02*
X116109523Y-127302438D01*
X116109523Y-127302438D02*
X116157142Y-127350057D01*
X116490476Y-127254819D02*
X117109523Y-127254819D01*
X117109523Y-127254819D02*
X116776190Y-127635771D01*
X116776190Y-127635771D02*
X116919047Y-127635771D01*
X116919047Y-127635771D02*
X117014285Y-127683390D01*
X117014285Y-127683390D02*
X117061904Y-127731009D01*
X117061904Y-127731009D02*
X117109523Y-127826247D01*
X117109523Y-127826247D02*
X117109523Y-128064342D01*
X117109523Y-128064342D02*
X117061904Y-128159580D01*
X117061904Y-128159580D02*
X117014285Y-128207200D01*
X117014285Y-128207200D02*
X116919047Y-128254819D01*
X116919047Y-128254819D02*
X116633333Y-128254819D01*
X116633333Y-128254819D02*
X116538095Y-128207200D01*
X116538095Y-128207200D02*
X116490476Y-128159580D01*
X117728571Y-127254819D02*
X117823809Y-127254819D01*
X117823809Y-127254819D02*
X117919047Y-127302438D01*
X117919047Y-127302438D02*
X117966666Y-127350057D01*
X117966666Y-127350057D02*
X118014285Y-127445295D01*
X118014285Y-127445295D02*
X118061904Y-127635771D01*
X118061904Y-127635771D02*
X118061904Y-127873866D01*
X118061904Y-127873866D02*
X118014285Y-128064342D01*
X118014285Y-128064342D02*
X117966666Y-128159580D01*
X117966666Y-128159580D02*
X117919047Y-128207200D01*
X117919047Y-128207200D02*
X117823809Y-128254819D01*
X117823809Y-128254819D02*
X117728571Y-128254819D01*
X117728571Y-128254819D02*
X117633333Y-128207200D01*
X117633333Y-128207200D02*
X117585714Y-128159580D01*
X117585714Y-128159580D02*
X117538095Y-128064342D01*
X117538095Y-128064342D02*
X117490476Y-127873866D01*
X117490476Y-127873866D02*
X117490476Y-127635771D01*
X117490476Y-127635771D02*
X117538095Y-127445295D01*
X117538095Y-127445295D02*
X117585714Y-127350057D01*
X117585714Y-127350057D02*
X117633333Y-127302438D01*
X117633333Y-127302438D02*
X117728571Y-127254819D01*
X138857142Y-108154819D02*
X138523809Y-107678628D01*
X138285714Y-108154819D02*
X138285714Y-107154819D01*
X138285714Y-107154819D02*
X138666666Y-107154819D01*
X138666666Y-107154819D02*
X138761904Y-107202438D01*
X138761904Y-107202438D02*
X138809523Y-107250057D01*
X138809523Y-107250057D02*
X138857142Y-107345295D01*
X138857142Y-107345295D02*
X138857142Y-107488152D01*
X138857142Y-107488152D02*
X138809523Y-107583390D01*
X138809523Y-107583390D02*
X138761904Y-107631009D01*
X138761904Y-107631009D02*
X138666666Y-107678628D01*
X138666666Y-107678628D02*
X138285714Y-107678628D01*
X139809523Y-108154819D02*
X139238095Y-108154819D01*
X139523809Y-108154819D02*
X139523809Y-107154819D01*
X139523809Y-107154819D02*
X139428571Y-107297676D01*
X139428571Y-107297676D02*
X139333333Y-107392914D01*
X139333333Y-107392914D02*
X139238095Y-107440533D01*
X140761904Y-108154819D02*
X140190476Y-108154819D01*
X140476190Y-108154819D02*
X140476190Y-107154819D01*
X140476190Y-107154819D02*
X140380952Y-107297676D01*
X140380952Y-107297676D02*
X140285714Y-107392914D01*
X140285714Y-107392914D02*
X140190476Y-107440533D01*
X136954819Y-90142857D02*
X136478628Y-90476190D01*
X136954819Y-90714285D02*
X135954819Y-90714285D01*
X135954819Y-90714285D02*
X135954819Y-90333333D01*
X135954819Y-90333333D02*
X136002438Y-90238095D01*
X136002438Y-90238095D02*
X136050057Y-90190476D01*
X136050057Y-90190476D02*
X136145295Y-90142857D01*
X136145295Y-90142857D02*
X136288152Y-90142857D01*
X136288152Y-90142857D02*
X136383390Y-90190476D01*
X136383390Y-90190476D02*
X136431009Y-90238095D01*
X136431009Y-90238095D02*
X136478628Y-90333333D01*
X136478628Y-90333333D02*
X136478628Y-90714285D01*
X136954819Y-89190476D02*
X136954819Y-89761904D01*
X136954819Y-89476190D02*
X135954819Y-89476190D01*
X135954819Y-89476190D02*
X136097676Y-89571428D01*
X136097676Y-89571428D02*
X136192914Y-89666666D01*
X136192914Y-89666666D02*
X136240533Y-89761904D01*
X136288152Y-88333333D02*
X136954819Y-88333333D01*
X135907200Y-88571428D02*
X136621485Y-88809523D01*
X136621485Y-88809523D02*
X136621485Y-88190476D01*
X132454819Y-66642857D02*
X131978628Y-66976190D01*
X132454819Y-67214285D02*
X131454819Y-67214285D01*
X131454819Y-67214285D02*
X131454819Y-66833333D01*
X131454819Y-66833333D02*
X131502438Y-66738095D01*
X131502438Y-66738095D02*
X131550057Y-66690476D01*
X131550057Y-66690476D02*
X131645295Y-66642857D01*
X131645295Y-66642857D02*
X131788152Y-66642857D01*
X131788152Y-66642857D02*
X131883390Y-66690476D01*
X131883390Y-66690476D02*
X131931009Y-66738095D01*
X131931009Y-66738095D02*
X131978628Y-66833333D01*
X131978628Y-66833333D02*
X131978628Y-67214285D01*
X131550057Y-66261904D02*
X131502438Y-66214285D01*
X131502438Y-66214285D02*
X131454819Y-66119047D01*
X131454819Y-66119047D02*
X131454819Y-65880952D01*
X131454819Y-65880952D02*
X131502438Y-65785714D01*
X131502438Y-65785714D02*
X131550057Y-65738095D01*
X131550057Y-65738095D02*
X131645295Y-65690476D01*
X131645295Y-65690476D02*
X131740533Y-65690476D01*
X131740533Y-65690476D02*
X131883390Y-65738095D01*
X131883390Y-65738095D02*
X132454819Y-66309523D01*
X132454819Y-66309523D02*
X132454819Y-65690476D01*
X131788152Y-64833333D02*
X132454819Y-64833333D01*
X131407200Y-65071428D02*
X132121485Y-65309523D01*
X132121485Y-65309523D02*
X132121485Y-64690476D01*
X118099580Y-74066666D02*
X118147200Y-74114285D01*
X118147200Y-74114285D02*
X118194819Y-74257142D01*
X118194819Y-74257142D02*
X118194819Y-74352380D01*
X118194819Y-74352380D02*
X118147200Y-74495237D01*
X118147200Y-74495237D02*
X118051961Y-74590475D01*
X118051961Y-74590475D02*
X117956723Y-74638094D01*
X117956723Y-74638094D02*
X117766247Y-74685713D01*
X117766247Y-74685713D02*
X117623390Y-74685713D01*
X117623390Y-74685713D02*
X117432914Y-74638094D01*
X117432914Y-74638094D02*
X117337676Y-74590475D01*
X117337676Y-74590475D02*
X117242438Y-74495237D01*
X117242438Y-74495237D02*
X117194819Y-74352380D01*
X117194819Y-74352380D02*
X117194819Y-74257142D01*
X117194819Y-74257142D02*
X117242438Y-74114285D01*
X117242438Y-74114285D02*
X117290057Y-74066666D01*
X117528152Y-73209523D02*
X118194819Y-73209523D01*
X117147200Y-73447618D02*
X117861485Y-73685713D01*
X117861485Y-73685713D02*
X117861485Y-73066666D01*
X141554819Y-93942857D02*
X141078628Y-94276190D01*
X141554819Y-94514285D02*
X140554819Y-94514285D01*
X140554819Y-94514285D02*
X140554819Y-94133333D01*
X140554819Y-94133333D02*
X140602438Y-94038095D01*
X140602438Y-94038095D02*
X140650057Y-93990476D01*
X140650057Y-93990476D02*
X140745295Y-93942857D01*
X140745295Y-93942857D02*
X140888152Y-93942857D01*
X140888152Y-93942857D02*
X140983390Y-93990476D01*
X140983390Y-93990476D02*
X141031009Y-94038095D01*
X141031009Y-94038095D02*
X141078628Y-94133333D01*
X141078628Y-94133333D02*
X141078628Y-94514285D01*
X141554819Y-92990476D02*
X141554819Y-93561904D01*
X141554819Y-93276190D02*
X140554819Y-93276190D01*
X140554819Y-93276190D02*
X140697676Y-93371428D01*
X140697676Y-93371428D02*
X140792914Y-93466666D01*
X140792914Y-93466666D02*
X140840533Y-93561904D01*
X140554819Y-92657142D02*
X140554819Y-92038095D01*
X140554819Y-92038095D02*
X140935771Y-92371428D01*
X140935771Y-92371428D02*
X140935771Y-92228571D01*
X140935771Y-92228571D02*
X140983390Y-92133333D01*
X140983390Y-92133333D02*
X141031009Y-92085714D01*
X141031009Y-92085714D02*
X141126247Y-92038095D01*
X141126247Y-92038095D02*
X141364342Y-92038095D01*
X141364342Y-92038095D02*
X141459580Y-92085714D01*
X141459580Y-92085714D02*
X141507200Y-92133333D01*
X141507200Y-92133333D02*
X141554819Y-92228571D01*
X141554819Y-92228571D02*
X141554819Y-92514285D01*
X141554819Y-92514285D02*
X141507200Y-92609523D01*
X141507200Y-92609523D02*
X141459580Y-92657142D01*
X142457142Y-106354819D02*
X142123809Y-105878628D01*
X141885714Y-106354819D02*
X141885714Y-105354819D01*
X141885714Y-105354819D02*
X142266666Y-105354819D01*
X142266666Y-105354819D02*
X142361904Y-105402438D01*
X142361904Y-105402438D02*
X142409523Y-105450057D01*
X142409523Y-105450057D02*
X142457142Y-105545295D01*
X142457142Y-105545295D02*
X142457142Y-105688152D01*
X142457142Y-105688152D02*
X142409523Y-105783390D01*
X142409523Y-105783390D02*
X142361904Y-105831009D01*
X142361904Y-105831009D02*
X142266666Y-105878628D01*
X142266666Y-105878628D02*
X141885714Y-105878628D01*
X143409523Y-106354819D02*
X142838095Y-106354819D01*
X143123809Y-106354819D02*
X143123809Y-105354819D01*
X143123809Y-105354819D02*
X143028571Y-105497676D01*
X143028571Y-105497676D02*
X142933333Y-105592914D01*
X142933333Y-105592914D02*
X142838095Y-105640533D01*
X144314285Y-105354819D02*
X143838095Y-105354819D01*
X143838095Y-105354819D02*
X143790476Y-105831009D01*
X143790476Y-105831009D02*
X143838095Y-105783390D01*
X143838095Y-105783390D02*
X143933333Y-105735771D01*
X143933333Y-105735771D02*
X144171428Y-105735771D01*
X144171428Y-105735771D02*
X144266666Y-105783390D01*
X144266666Y-105783390D02*
X144314285Y-105831009D01*
X144314285Y-105831009D02*
X144361904Y-105926247D01*
X144361904Y-105926247D02*
X144361904Y-106164342D01*
X144361904Y-106164342D02*
X144314285Y-106259580D01*
X144314285Y-106259580D02*
X144266666Y-106307200D01*
X144266666Y-106307200D02*
X144171428Y-106354819D01*
X144171428Y-106354819D02*
X143933333Y-106354819D01*
X143933333Y-106354819D02*
X143838095Y-106307200D01*
X143838095Y-106307200D02*
X143790476Y-106259580D01*
X114938095Y-65254819D02*
X115509523Y-65254819D01*
X115223809Y-66254819D02*
X115223809Y-65254819D01*
X115842857Y-66254819D02*
X115842857Y-65254819D01*
X115842857Y-65254819D02*
X116223809Y-65254819D01*
X116223809Y-65254819D02*
X116319047Y-65302438D01*
X116319047Y-65302438D02*
X116366666Y-65350057D01*
X116366666Y-65350057D02*
X116414285Y-65445295D01*
X116414285Y-65445295D02*
X116414285Y-65588152D01*
X116414285Y-65588152D02*
X116366666Y-65683390D01*
X116366666Y-65683390D02*
X116319047Y-65731009D01*
X116319047Y-65731009D02*
X116223809Y-65778628D01*
X116223809Y-65778628D02*
X115842857Y-65778628D01*
X117366666Y-66254819D02*
X116795238Y-66254819D01*
X117080952Y-66254819D02*
X117080952Y-65254819D01*
X117080952Y-65254819D02*
X116985714Y-65397676D01*
X116985714Y-65397676D02*
X116890476Y-65492914D01*
X116890476Y-65492914D02*
X116795238Y-65540533D01*
X123757142Y-79759580D02*
X123709523Y-79807200D01*
X123709523Y-79807200D02*
X123566666Y-79854819D01*
X123566666Y-79854819D02*
X123471428Y-79854819D01*
X123471428Y-79854819D02*
X123328571Y-79807200D01*
X123328571Y-79807200D02*
X123233333Y-79711961D01*
X123233333Y-79711961D02*
X123185714Y-79616723D01*
X123185714Y-79616723D02*
X123138095Y-79426247D01*
X123138095Y-79426247D02*
X123138095Y-79283390D01*
X123138095Y-79283390D02*
X123185714Y-79092914D01*
X123185714Y-79092914D02*
X123233333Y-78997676D01*
X123233333Y-78997676D02*
X123328571Y-78902438D01*
X123328571Y-78902438D02*
X123471428Y-78854819D01*
X123471428Y-78854819D02*
X123566666Y-78854819D01*
X123566666Y-78854819D02*
X123709523Y-78902438D01*
X123709523Y-78902438D02*
X123757142Y-78950057D01*
X124709523Y-79854819D02*
X124138095Y-79854819D01*
X124423809Y-79854819D02*
X124423809Y-78854819D01*
X124423809Y-78854819D02*
X124328571Y-78997676D01*
X124328571Y-78997676D02*
X124233333Y-79092914D01*
X124233333Y-79092914D02*
X124138095Y-79140533D01*
X125661904Y-79854819D02*
X125090476Y-79854819D01*
X125376190Y-79854819D02*
X125376190Y-78854819D01*
X125376190Y-78854819D02*
X125280952Y-78997676D01*
X125280952Y-78997676D02*
X125185714Y-79092914D01*
X125185714Y-79092914D02*
X125090476Y-79140533D01*
X114333333Y-73559580D02*
X114285714Y-73607200D01*
X114285714Y-73607200D02*
X114142857Y-73654819D01*
X114142857Y-73654819D02*
X114047619Y-73654819D01*
X114047619Y-73654819D02*
X113904762Y-73607200D01*
X113904762Y-73607200D02*
X113809524Y-73511961D01*
X113809524Y-73511961D02*
X113761905Y-73416723D01*
X113761905Y-73416723D02*
X113714286Y-73226247D01*
X113714286Y-73226247D02*
X113714286Y-73083390D01*
X113714286Y-73083390D02*
X113761905Y-72892914D01*
X113761905Y-72892914D02*
X113809524Y-72797676D01*
X113809524Y-72797676D02*
X113904762Y-72702438D01*
X113904762Y-72702438D02*
X114047619Y-72654819D01*
X114047619Y-72654819D02*
X114142857Y-72654819D01*
X114142857Y-72654819D02*
X114285714Y-72702438D01*
X114285714Y-72702438D02*
X114333333Y-72750057D01*
X115238095Y-72654819D02*
X114761905Y-72654819D01*
X114761905Y-72654819D02*
X114714286Y-73131009D01*
X114714286Y-73131009D02*
X114761905Y-73083390D01*
X114761905Y-73083390D02*
X114857143Y-73035771D01*
X114857143Y-73035771D02*
X115095238Y-73035771D01*
X115095238Y-73035771D02*
X115190476Y-73083390D01*
X115190476Y-73083390D02*
X115238095Y-73131009D01*
X115238095Y-73131009D02*
X115285714Y-73226247D01*
X115285714Y-73226247D02*
X115285714Y-73464342D01*
X115285714Y-73464342D02*
X115238095Y-73559580D01*
X115238095Y-73559580D02*
X115190476Y-73607200D01*
X115190476Y-73607200D02*
X115095238Y-73654819D01*
X115095238Y-73654819D02*
X114857143Y-73654819D01*
X114857143Y-73654819D02*
X114761905Y-73607200D01*
X114761905Y-73607200D02*
X114714286Y-73559580D01*
X130059580Y-92542857D02*
X130107200Y-92590476D01*
X130107200Y-92590476D02*
X130154819Y-92733333D01*
X130154819Y-92733333D02*
X130154819Y-92828571D01*
X130154819Y-92828571D02*
X130107200Y-92971428D01*
X130107200Y-92971428D02*
X130011961Y-93066666D01*
X130011961Y-93066666D02*
X129916723Y-93114285D01*
X129916723Y-93114285D02*
X129726247Y-93161904D01*
X129726247Y-93161904D02*
X129583390Y-93161904D01*
X129583390Y-93161904D02*
X129392914Y-93114285D01*
X129392914Y-93114285D02*
X129297676Y-93066666D01*
X129297676Y-93066666D02*
X129202438Y-92971428D01*
X129202438Y-92971428D02*
X129154819Y-92828571D01*
X129154819Y-92828571D02*
X129154819Y-92733333D01*
X129154819Y-92733333D02*
X129202438Y-92590476D01*
X129202438Y-92590476D02*
X129250057Y-92542857D01*
X129250057Y-92161904D02*
X129202438Y-92114285D01*
X129202438Y-92114285D02*
X129154819Y-92019047D01*
X129154819Y-92019047D02*
X129154819Y-91780952D01*
X129154819Y-91780952D02*
X129202438Y-91685714D01*
X129202438Y-91685714D02*
X129250057Y-91638095D01*
X129250057Y-91638095D02*
X129345295Y-91590476D01*
X129345295Y-91590476D02*
X129440533Y-91590476D01*
X129440533Y-91590476D02*
X129583390Y-91638095D01*
X129583390Y-91638095D02*
X130154819Y-92209523D01*
X130154819Y-92209523D02*
X130154819Y-91590476D01*
X129154819Y-90733333D02*
X129154819Y-90923809D01*
X129154819Y-90923809D02*
X129202438Y-91019047D01*
X129202438Y-91019047D02*
X129250057Y-91066666D01*
X129250057Y-91066666D02*
X129392914Y-91161904D01*
X129392914Y-91161904D02*
X129583390Y-91209523D01*
X129583390Y-91209523D02*
X129964342Y-91209523D01*
X129964342Y-91209523D02*
X130059580Y-91161904D01*
X130059580Y-91161904D02*
X130107200Y-91114285D01*
X130107200Y-91114285D02*
X130154819Y-91019047D01*
X130154819Y-91019047D02*
X130154819Y-90828571D01*
X130154819Y-90828571D02*
X130107200Y-90733333D01*
X130107200Y-90733333D02*
X130059580Y-90685714D01*
X130059580Y-90685714D02*
X129964342Y-90638095D01*
X129964342Y-90638095D02*
X129726247Y-90638095D01*
X129726247Y-90638095D02*
X129631009Y-90685714D01*
X129631009Y-90685714D02*
X129583390Y-90733333D01*
X129583390Y-90733333D02*
X129535771Y-90828571D01*
X129535771Y-90828571D02*
X129535771Y-91019047D01*
X129535771Y-91019047D02*
X129583390Y-91114285D01*
X129583390Y-91114285D02*
X129631009Y-91161904D01*
X129631009Y-91161904D02*
X129726247Y-91209523D01*
X120233333Y-85959580D02*
X120185714Y-86007200D01*
X120185714Y-86007200D02*
X120042857Y-86054819D01*
X120042857Y-86054819D02*
X119947619Y-86054819D01*
X119947619Y-86054819D02*
X119804762Y-86007200D01*
X119804762Y-86007200D02*
X119709524Y-85911961D01*
X119709524Y-85911961D02*
X119661905Y-85816723D01*
X119661905Y-85816723D02*
X119614286Y-85626247D01*
X119614286Y-85626247D02*
X119614286Y-85483390D01*
X119614286Y-85483390D02*
X119661905Y-85292914D01*
X119661905Y-85292914D02*
X119709524Y-85197676D01*
X119709524Y-85197676D02*
X119804762Y-85102438D01*
X119804762Y-85102438D02*
X119947619Y-85054819D01*
X119947619Y-85054819D02*
X120042857Y-85054819D01*
X120042857Y-85054819D02*
X120185714Y-85102438D01*
X120185714Y-85102438D02*
X120233333Y-85150057D01*
X120709524Y-86054819D02*
X120900000Y-86054819D01*
X120900000Y-86054819D02*
X120995238Y-86007200D01*
X120995238Y-86007200D02*
X121042857Y-85959580D01*
X121042857Y-85959580D02*
X121138095Y-85816723D01*
X121138095Y-85816723D02*
X121185714Y-85626247D01*
X121185714Y-85626247D02*
X121185714Y-85245295D01*
X121185714Y-85245295D02*
X121138095Y-85150057D01*
X121138095Y-85150057D02*
X121090476Y-85102438D01*
X121090476Y-85102438D02*
X120995238Y-85054819D01*
X120995238Y-85054819D02*
X120804762Y-85054819D01*
X120804762Y-85054819D02*
X120709524Y-85102438D01*
X120709524Y-85102438D02*
X120661905Y-85150057D01*
X120661905Y-85150057D02*
X120614286Y-85245295D01*
X120614286Y-85245295D02*
X120614286Y-85483390D01*
X120614286Y-85483390D02*
X120661905Y-85578628D01*
X120661905Y-85578628D02*
X120709524Y-85626247D01*
X120709524Y-85626247D02*
X120804762Y-85673866D01*
X120804762Y-85673866D02*
X120995238Y-85673866D01*
X120995238Y-85673866D02*
X121090476Y-85626247D01*
X121090476Y-85626247D02*
X121138095Y-85578628D01*
X121138095Y-85578628D02*
X121185714Y-85483390D01*
X111459580Y-75842857D02*
X111507200Y-75890476D01*
X111507200Y-75890476D02*
X111554819Y-76033333D01*
X111554819Y-76033333D02*
X111554819Y-76128571D01*
X111554819Y-76128571D02*
X111507200Y-76271428D01*
X111507200Y-76271428D02*
X111411961Y-76366666D01*
X111411961Y-76366666D02*
X111316723Y-76414285D01*
X111316723Y-76414285D02*
X111126247Y-76461904D01*
X111126247Y-76461904D02*
X110983390Y-76461904D01*
X110983390Y-76461904D02*
X110792914Y-76414285D01*
X110792914Y-76414285D02*
X110697676Y-76366666D01*
X110697676Y-76366666D02*
X110602438Y-76271428D01*
X110602438Y-76271428D02*
X110554819Y-76128571D01*
X110554819Y-76128571D02*
X110554819Y-76033333D01*
X110554819Y-76033333D02*
X110602438Y-75890476D01*
X110602438Y-75890476D02*
X110650057Y-75842857D01*
X111554819Y-74890476D02*
X111554819Y-75461904D01*
X111554819Y-75176190D02*
X110554819Y-75176190D01*
X110554819Y-75176190D02*
X110697676Y-75271428D01*
X110697676Y-75271428D02*
X110792914Y-75366666D01*
X110792914Y-75366666D02*
X110840533Y-75461904D01*
X110888152Y-74033333D02*
X111554819Y-74033333D01*
X110507200Y-74271428D02*
X111221485Y-74509523D01*
X111221485Y-74509523D02*
X111221485Y-73890476D01*
X118233333Y-85959580D02*
X118185714Y-86007200D01*
X118185714Y-86007200D02*
X118042857Y-86054819D01*
X118042857Y-86054819D02*
X117947619Y-86054819D01*
X117947619Y-86054819D02*
X117804762Y-86007200D01*
X117804762Y-86007200D02*
X117709524Y-85911961D01*
X117709524Y-85911961D02*
X117661905Y-85816723D01*
X117661905Y-85816723D02*
X117614286Y-85626247D01*
X117614286Y-85626247D02*
X117614286Y-85483390D01*
X117614286Y-85483390D02*
X117661905Y-85292914D01*
X117661905Y-85292914D02*
X117709524Y-85197676D01*
X117709524Y-85197676D02*
X117804762Y-85102438D01*
X117804762Y-85102438D02*
X117947619Y-85054819D01*
X117947619Y-85054819D02*
X118042857Y-85054819D01*
X118042857Y-85054819D02*
X118185714Y-85102438D01*
X118185714Y-85102438D02*
X118233333Y-85150057D01*
X118804762Y-85483390D02*
X118709524Y-85435771D01*
X118709524Y-85435771D02*
X118661905Y-85388152D01*
X118661905Y-85388152D02*
X118614286Y-85292914D01*
X118614286Y-85292914D02*
X118614286Y-85245295D01*
X118614286Y-85245295D02*
X118661905Y-85150057D01*
X118661905Y-85150057D02*
X118709524Y-85102438D01*
X118709524Y-85102438D02*
X118804762Y-85054819D01*
X118804762Y-85054819D02*
X118995238Y-85054819D01*
X118995238Y-85054819D02*
X119090476Y-85102438D01*
X119090476Y-85102438D02*
X119138095Y-85150057D01*
X119138095Y-85150057D02*
X119185714Y-85245295D01*
X119185714Y-85245295D02*
X119185714Y-85292914D01*
X119185714Y-85292914D02*
X119138095Y-85388152D01*
X119138095Y-85388152D02*
X119090476Y-85435771D01*
X119090476Y-85435771D02*
X118995238Y-85483390D01*
X118995238Y-85483390D02*
X118804762Y-85483390D01*
X118804762Y-85483390D02*
X118709524Y-85531009D01*
X118709524Y-85531009D02*
X118661905Y-85578628D01*
X118661905Y-85578628D02*
X118614286Y-85673866D01*
X118614286Y-85673866D02*
X118614286Y-85864342D01*
X118614286Y-85864342D02*
X118661905Y-85959580D01*
X118661905Y-85959580D02*
X118709524Y-86007200D01*
X118709524Y-86007200D02*
X118804762Y-86054819D01*
X118804762Y-86054819D02*
X118995238Y-86054819D01*
X118995238Y-86054819D02*
X119090476Y-86007200D01*
X119090476Y-86007200D02*
X119138095Y-85959580D01*
X119138095Y-85959580D02*
X119185714Y-85864342D01*
X119185714Y-85864342D02*
X119185714Y-85673866D01*
X119185714Y-85673866D02*
X119138095Y-85578628D01*
X119138095Y-85578628D02*
X119090476Y-85531009D01*
X119090476Y-85531009D02*
X118995238Y-85483390D01*
X126433333Y-82054819D02*
X126100000Y-81578628D01*
X125861905Y-82054819D02*
X125861905Y-81054819D01*
X125861905Y-81054819D02*
X126242857Y-81054819D01*
X126242857Y-81054819D02*
X126338095Y-81102438D01*
X126338095Y-81102438D02*
X126385714Y-81150057D01*
X126385714Y-81150057D02*
X126433333Y-81245295D01*
X126433333Y-81245295D02*
X126433333Y-81388152D01*
X126433333Y-81388152D02*
X126385714Y-81483390D01*
X126385714Y-81483390D02*
X126338095Y-81531009D01*
X126338095Y-81531009D02*
X126242857Y-81578628D01*
X126242857Y-81578628D02*
X125861905Y-81578628D01*
X127290476Y-81054819D02*
X127100000Y-81054819D01*
X127100000Y-81054819D02*
X127004762Y-81102438D01*
X127004762Y-81102438D02*
X126957143Y-81150057D01*
X126957143Y-81150057D02*
X126861905Y-81292914D01*
X126861905Y-81292914D02*
X126814286Y-81483390D01*
X126814286Y-81483390D02*
X126814286Y-81864342D01*
X126814286Y-81864342D02*
X126861905Y-81959580D01*
X126861905Y-81959580D02*
X126909524Y-82007200D01*
X126909524Y-82007200D02*
X127004762Y-82054819D01*
X127004762Y-82054819D02*
X127195238Y-82054819D01*
X127195238Y-82054819D02*
X127290476Y-82007200D01*
X127290476Y-82007200D02*
X127338095Y-81959580D01*
X127338095Y-81959580D02*
X127385714Y-81864342D01*
X127385714Y-81864342D02*
X127385714Y-81626247D01*
X127385714Y-81626247D02*
X127338095Y-81531009D01*
X127338095Y-81531009D02*
X127290476Y-81483390D01*
X127290476Y-81483390D02*
X127195238Y-81435771D01*
X127195238Y-81435771D02*
X127004762Y-81435771D01*
X127004762Y-81435771D02*
X126909524Y-81483390D01*
X126909524Y-81483390D02*
X126861905Y-81531009D01*
X126861905Y-81531009D02*
X126814286Y-81626247D01*
X122761905Y-58854819D02*
X122761905Y-57854819D01*
X122761905Y-57854819D02*
X123000000Y-57854819D01*
X123000000Y-57854819D02*
X123142857Y-57902438D01*
X123142857Y-57902438D02*
X123238095Y-57997676D01*
X123238095Y-57997676D02*
X123285714Y-58092914D01*
X123285714Y-58092914D02*
X123333333Y-58283390D01*
X123333333Y-58283390D02*
X123333333Y-58426247D01*
X123333333Y-58426247D02*
X123285714Y-58616723D01*
X123285714Y-58616723D02*
X123238095Y-58711961D01*
X123238095Y-58711961D02*
X123142857Y-58807200D01*
X123142857Y-58807200D02*
X123000000Y-58854819D01*
X123000000Y-58854819D02*
X122761905Y-58854819D01*
X124285714Y-58854819D02*
X123714286Y-58854819D01*
X124000000Y-58854819D02*
X124000000Y-57854819D01*
X124000000Y-57854819D02*
X123904762Y-57997676D01*
X123904762Y-57997676D02*
X123809524Y-58092914D01*
X123809524Y-58092914D02*
X123714286Y-58140533D01*
X117059580Y-134342857D02*
X117107200Y-134390476D01*
X117107200Y-134390476D02*
X117154819Y-134533333D01*
X117154819Y-134533333D02*
X117154819Y-134628571D01*
X117154819Y-134628571D02*
X117107200Y-134771428D01*
X117107200Y-134771428D02*
X117011961Y-134866666D01*
X117011961Y-134866666D02*
X116916723Y-134914285D01*
X116916723Y-134914285D02*
X116726247Y-134961904D01*
X116726247Y-134961904D02*
X116583390Y-134961904D01*
X116583390Y-134961904D02*
X116392914Y-134914285D01*
X116392914Y-134914285D02*
X116297676Y-134866666D01*
X116297676Y-134866666D02*
X116202438Y-134771428D01*
X116202438Y-134771428D02*
X116154819Y-134628571D01*
X116154819Y-134628571D02*
X116154819Y-134533333D01*
X116154819Y-134533333D02*
X116202438Y-134390476D01*
X116202438Y-134390476D02*
X116250057Y-134342857D01*
X116250057Y-133961904D02*
X116202438Y-133914285D01*
X116202438Y-133914285D02*
X116154819Y-133819047D01*
X116154819Y-133819047D02*
X116154819Y-133580952D01*
X116154819Y-133580952D02*
X116202438Y-133485714D01*
X116202438Y-133485714D02*
X116250057Y-133438095D01*
X116250057Y-133438095D02*
X116345295Y-133390476D01*
X116345295Y-133390476D02*
X116440533Y-133390476D01*
X116440533Y-133390476D02*
X116583390Y-133438095D01*
X116583390Y-133438095D02*
X117154819Y-134009523D01*
X117154819Y-134009523D02*
X117154819Y-133390476D01*
X117154819Y-132914285D02*
X117154819Y-132723809D01*
X117154819Y-132723809D02*
X117107200Y-132628571D01*
X117107200Y-132628571D02*
X117059580Y-132580952D01*
X117059580Y-132580952D02*
X116916723Y-132485714D01*
X116916723Y-132485714D02*
X116726247Y-132438095D01*
X116726247Y-132438095D02*
X116345295Y-132438095D01*
X116345295Y-132438095D02*
X116250057Y-132485714D01*
X116250057Y-132485714D02*
X116202438Y-132533333D01*
X116202438Y-132533333D02*
X116154819Y-132628571D01*
X116154819Y-132628571D02*
X116154819Y-132819047D01*
X116154819Y-132819047D02*
X116202438Y-132914285D01*
X116202438Y-132914285D02*
X116250057Y-132961904D01*
X116250057Y-132961904D02*
X116345295Y-133009523D01*
X116345295Y-133009523D02*
X116583390Y-133009523D01*
X116583390Y-133009523D02*
X116678628Y-132961904D01*
X116678628Y-132961904D02*
X116726247Y-132914285D01*
X116726247Y-132914285D02*
X116773866Y-132819047D01*
X116773866Y-132819047D02*
X116773866Y-132628571D01*
X116773866Y-132628571D02*
X116726247Y-132533333D01*
X116726247Y-132533333D02*
X116678628Y-132485714D01*
X116678628Y-132485714D02*
X116583390Y-132438095D01*
X129754819Y-66642857D02*
X129278628Y-66976190D01*
X129754819Y-67214285D02*
X128754819Y-67214285D01*
X128754819Y-67214285D02*
X128754819Y-66833333D01*
X128754819Y-66833333D02*
X128802438Y-66738095D01*
X128802438Y-66738095D02*
X128850057Y-66690476D01*
X128850057Y-66690476D02*
X128945295Y-66642857D01*
X128945295Y-66642857D02*
X129088152Y-66642857D01*
X129088152Y-66642857D02*
X129183390Y-66690476D01*
X129183390Y-66690476D02*
X129231009Y-66738095D01*
X129231009Y-66738095D02*
X129278628Y-66833333D01*
X129278628Y-66833333D02*
X129278628Y-67214285D01*
X128850057Y-66261904D02*
X128802438Y-66214285D01*
X128802438Y-66214285D02*
X128754819Y-66119047D01*
X128754819Y-66119047D02*
X128754819Y-65880952D01*
X128754819Y-65880952D02*
X128802438Y-65785714D01*
X128802438Y-65785714D02*
X128850057Y-65738095D01*
X128850057Y-65738095D02*
X128945295Y-65690476D01*
X128945295Y-65690476D02*
X129040533Y-65690476D01*
X129040533Y-65690476D02*
X129183390Y-65738095D01*
X129183390Y-65738095D02*
X129754819Y-66309523D01*
X129754819Y-66309523D02*
X129754819Y-65690476D01*
X128754819Y-65357142D02*
X128754819Y-64738095D01*
X128754819Y-64738095D02*
X129135771Y-65071428D01*
X129135771Y-65071428D02*
X129135771Y-64928571D01*
X129135771Y-64928571D02*
X129183390Y-64833333D01*
X129183390Y-64833333D02*
X129231009Y-64785714D01*
X129231009Y-64785714D02*
X129326247Y-64738095D01*
X129326247Y-64738095D02*
X129564342Y-64738095D01*
X129564342Y-64738095D02*
X129659580Y-64785714D01*
X129659580Y-64785714D02*
X129707200Y-64833333D01*
X129707200Y-64833333D02*
X129754819Y-64928571D01*
X129754819Y-64928571D02*
X129754819Y-65214285D01*
X129754819Y-65214285D02*
X129707200Y-65309523D01*
X129707200Y-65309523D02*
X129659580Y-65357142D01*
X119333333Y-69454819D02*
X119000000Y-68978628D01*
X118761905Y-69454819D02*
X118761905Y-68454819D01*
X118761905Y-68454819D02*
X119142857Y-68454819D01*
X119142857Y-68454819D02*
X119238095Y-68502438D01*
X119238095Y-68502438D02*
X119285714Y-68550057D01*
X119285714Y-68550057D02*
X119333333Y-68645295D01*
X119333333Y-68645295D02*
X119333333Y-68788152D01*
X119333333Y-68788152D02*
X119285714Y-68883390D01*
X119285714Y-68883390D02*
X119238095Y-68931009D01*
X119238095Y-68931009D02*
X119142857Y-68978628D01*
X119142857Y-68978628D02*
X118761905Y-68978628D01*
X119714286Y-68550057D02*
X119761905Y-68502438D01*
X119761905Y-68502438D02*
X119857143Y-68454819D01*
X119857143Y-68454819D02*
X120095238Y-68454819D01*
X120095238Y-68454819D02*
X120190476Y-68502438D01*
X120190476Y-68502438D02*
X120238095Y-68550057D01*
X120238095Y-68550057D02*
X120285714Y-68645295D01*
X120285714Y-68645295D02*
X120285714Y-68740533D01*
X120285714Y-68740533D02*
X120238095Y-68883390D01*
X120238095Y-68883390D02*
X119666667Y-69454819D01*
X119666667Y-69454819D02*
X120285714Y-69454819D01*
X120757142Y-110859580D02*
X120709523Y-110907200D01*
X120709523Y-110907200D02*
X120566666Y-110954819D01*
X120566666Y-110954819D02*
X120471428Y-110954819D01*
X120471428Y-110954819D02*
X120328571Y-110907200D01*
X120328571Y-110907200D02*
X120233333Y-110811961D01*
X120233333Y-110811961D02*
X120185714Y-110716723D01*
X120185714Y-110716723D02*
X120138095Y-110526247D01*
X120138095Y-110526247D02*
X120138095Y-110383390D01*
X120138095Y-110383390D02*
X120185714Y-110192914D01*
X120185714Y-110192914D02*
X120233333Y-110097676D01*
X120233333Y-110097676D02*
X120328571Y-110002438D01*
X120328571Y-110002438D02*
X120471428Y-109954819D01*
X120471428Y-109954819D02*
X120566666Y-109954819D01*
X120566666Y-109954819D02*
X120709523Y-110002438D01*
X120709523Y-110002438D02*
X120757142Y-110050057D01*
X121138095Y-110050057D02*
X121185714Y-110002438D01*
X121185714Y-110002438D02*
X121280952Y-109954819D01*
X121280952Y-109954819D02*
X121519047Y-109954819D01*
X121519047Y-109954819D02*
X121614285Y-110002438D01*
X121614285Y-110002438D02*
X121661904Y-110050057D01*
X121661904Y-110050057D02*
X121709523Y-110145295D01*
X121709523Y-110145295D02*
X121709523Y-110240533D01*
X121709523Y-110240533D02*
X121661904Y-110383390D01*
X121661904Y-110383390D02*
X121090476Y-110954819D01*
X121090476Y-110954819D02*
X121709523Y-110954819D01*
X122661904Y-110954819D02*
X122090476Y-110954819D01*
X122376190Y-110954819D02*
X122376190Y-109954819D01*
X122376190Y-109954819D02*
X122280952Y-110097676D01*
X122280952Y-110097676D02*
X122185714Y-110192914D01*
X122185714Y-110192914D02*
X122090476Y-110240533D01*
X120559580Y-132142857D02*
X120607200Y-132190476D01*
X120607200Y-132190476D02*
X120654819Y-132333333D01*
X120654819Y-132333333D02*
X120654819Y-132428571D01*
X120654819Y-132428571D02*
X120607200Y-132571428D01*
X120607200Y-132571428D02*
X120511961Y-132666666D01*
X120511961Y-132666666D02*
X120416723Y-132714285D01*
X120416723Y-132714285D02*
X120226247Y-132761904D01*
X120226247Y-132761904D02*
X120083390Y-132761904D01*
X120083390Y-132761904D02*
X119892914Y-132714285D01*
X119892914Y-132714285D02*
X119797676Y-132666666D01*
X119797676Y-132666666D02*
X119702438Y-132571428D01*
X119702438Y-132571428D02*
X119654819Y-132428571D01*
X119654819Y-132428571D02*
X119654819Y-132333333D01*
X119654819Y-132333333D02*
X119702438Y-132190476D01*
X119702438Y-132190476D02*
X119750057Y-132142857D01*
X119750057Y-131761904D02*
X119702438Y-131714285D01*
X119702438Y-131714285D02*
X119654819Y-131619047D01*
X119654819Y-131619047D02*
X119654819Y-131380952D01*
X119654819Y-131380952D02*
X119702438Y-131285714D01*
X119702438Y-131285714D02*
X119750057Y-131238095D01*
X119750057Y-131238095D02*
X119845295Y-131190476D01*
X119845295Y-131190476D02*
X119940533Y-131190476D01*
X119940533Y-131190476D02*
X120083390Y-131238095D01*
X120083390Y-131238095D02*
X120654819Y-131809523D01*
X120654819Y-131809523D02*
X120654819Y-131190476D01*
X119654819Y-130857142D02*
X119654819Y-130190476D01*
X119654819Y-130190476D02*
X120654819Y-130619047D01*
X120484819Y-124761904D02*
X121294342Y-124761904D01*
X121294342Y-124761904D02*
X121389580Y-124714285D01*
X121389580Y-124714285D02*
X121437200Y-124666666D01*
X121437200Y-124666666D02*
X121484819Y-124571428D01*
X121484819Y-124571428D02*
X121484819Y-124380952D01*
X121484819Y-124380952D02*
X121437200Y-124285714D01*
X121437200Y-124285714D02*
X121389580Y-124238095D01*
X121389580Y-124238095D02*
X121294342Y-124190476D01*
X121294342Y-124190476D02*
X120484819Y-124190476D01*
X120484819Y-123809523D02*
X120484819Y-123142857D01*
X120484819Y-123142857D02*
X121484819Y-123571428D01*
X107769642Y-126309580D02*
X107722023Y-126357200D01*
X107722023Y-126357200D02*
X107579166Y-126404819D01*
X107579166Y-126404819D02*
X107483928Y-126404819D01*
X107483928Y-126404819D02*
X107341071Y-126357200D01*
X107341071Y-126357200D02*
X107245833Y-126261961D01*
X107245833Y-126261961D02*
X107198214Y-126166723D01*
X107198214Y-126166723D02*
X107150595Y-125976247D01*
X107150595Y-125976247D02*
X107150595Y-125833390D01*
X107150595Y-125833390D02*
X107198214Y-125642914D01*
X107198214Y-125642914D02*
X107245833Y-125547676D01*
X107245833Y-125547676D02*
X107341071Y-125452438D01*
X107341071Y-125452438D02*
X107483928Y-125404819D01*
X107483928Y-125404819D02*
X107579166Y-125404819D01*
X107579166Y-125404819D02*
X107722023Y-125452438D01*
X107722023Y-125452438D02*
X107769642Y-125500057D01*
X108102976Y-125404819D02*
X108722023Y-125404819D01*
X108722023Y-125404819D02*
X108388690Y-125785771D01*
X108388690Y-125785771D02*
X108531547Y-125785771D01*
X108531547Y-125785771D02*
X108626785Y-125833390D01*
X108626785Y-125833390D02*
X108674404Y-125881009D01*
X108674404Y-125881009D02*
X108722023Y-125976247D01*
X108722023Y-125976247D02*
X108722023Y-126214342D01*
X108722023Y-126214342D02*
X108674404Y-126309580D01*
X108674404Y-126309580D02*
X108626785Y-126357200D01*
X108626785Y-126357200D02*
X108531547Y-126404819D01*
X108531547Y-126404819D02*
X108245833Y-126404819D01*
X108245833Y-126404819D02*
X108150595Y-126357200D01*
X108150595Y-126357200D02*
X108102976Y-126309580D01*
X109102976Y-125500057D02*
X109150595Y-125452438D01*
X109150595Y-125452438D02*
X109245833Y-125404819D01*
X109245833Y-125404819D02*
X109483928Y-125404819D01*
X109483928Y-125404819D02*
X109579166Y-125452438D01*
X109579166Y-125452438D02*
X109626785Y-125500057D01*
X109626785Y-125500057D02*
X109674404Y-125595295D01*
X109674404Y-125595295D02*
X109674404Y-125690533D01*
X109674404Y-125690533D02*
X109626785Y-125833390D01*
X109626785Y-125833390D02*
X109055357Y-126404819D01*
X109055357Y-126404819D02*
X109674404Y-126404819D01*
X108807142Y-122454819D02*
X108473809Y-121978628D01*
X108235714Y-122454819D02*
X108235714Y-121454819D01*
X108235714Y-121454819D02*
X108616666Y-121454819D01*
X108616666Y-121454819D02*
X108711904Y-121502438D01*
X108711904Y-121502438D02*
X108759523Y-121550057D01*
X108759523Y-121550057D02*
X108807142Y-121645295D01*
X108807142Y-121645295D02*
X108807142Y-121788152D01*
X108807142Y-121788152D02*
X108759523Y-121883390D01*
X108759523Y-121883390D02*
X108711904Y-121931009D01*
X108711904Y-121931009D02*
X108616666Y-121978628D01*
X108616666Y-121978628D02*
X108235714Y-121978628D01*
X109188095Y-121550057D02*
X109235714Y-121502438D01*
X109235714Y-121502438D02*
X109330952Y-121454819D01*
X109330952Y-121454819D02*
X109569047Y-121454819D01*
X109569047Y-121454819D02*
X109664285Y-121502438D01*
X109664285Y-121502438D02*
X109711904Y-121550057D01*
X109711904Y-121550057D02*
X109759523Y-121645295D01*
X109759523Y-121645295D02*
X109759523Y-121740533D01*
X109759523Y-121740533D02*
X109711904Y-121883390D01*
X109711904Y-121883390D02*
X109140476Y-122454819D01*
X109140476Y-122454819D02*
X109759523Y-122454819D01*
X110378571Y-121454819D02*
X110473809Y-121454819D01*
X110473809Y-121454819D02*
X110569047Y-121502438D01*
X110569047Y-121502438D02*
X110616666Y-121550057D01*
X110616666Y-121550057D02*
X110664285Y-121645295D01*
X110664285Y-121645295D02*
X110711904Y-121835771D01*
X110711904Y-121835771D02*
X110711904Y-122073866D01*
X110711904Y-122073866D02*
X110664285Y-122264342D01*
X110664285Y-122264342D02*
X110616666Y-122359580D01*
X110616666Y-122359580D02*
X110569047Y-122407200D01*
X110569047Y-122407200D02*
X110473809Y-122454819D01*
X110473809Y-122454819D02*
X110378571Y-122454819D01*
X110378571Y-122454819D02*
X110283333Y-122407200D01*
X110283333Y-122407200D02*
X110235714Y-122359580D01*
X110235714Y-122359580D02*
X110188095Y-122264342D01*
X110188095Y-122264342D02*
X110140476Y-122073866D01*
X110140476Y-122073866D02*
X110140476Y-121835771D01*
X110140476Y-121835771D02*
X110188095Y-121645295D01*
X110188095Y-121645295D02*
X110235714Y-121550057D01*
X110235714Y-121550057D02*
X110283333Y-121502438D01*
X110283333Y-121502438D02*
X110378571Y-121454819D01*
D12*
X134938095Y-132856379D02*
X134938095Y-133665902D01*
X134938095Y-133665902D02*
X134985714Y-133761140D01*
X134985714Y-133761140D02*
X135033333Y-133808760D01*
X135033333Y-133808760D02*
X135128571Y-133856379D01*
X135128571Y-133856379D02*
X135319047Y-133856379D01*
X135319047Y-133856379D02*
X135414285Y-133808760D01*
X135414285Y-133808760D02*
X135461904Y-133761140D01*
X135461904Y-133761140D02*
X135509523Y-133665902D01*
X135509523Y-133665902D02*
X135509523Y-132856379D01*
X136461904Y-132856379D02*
X135985714Y-132856379D01*
X135985714Y-132856379D02*
X135938095Y-133332569D01*
X135938095Y-133332569D02*
X135985714Y-133284950D01*
X135985714Y-133284950D02*
X136080952Y-133237331D01*
X136080952Y-133237331D02*
X136319047Y-133237331D01*
X136319047Y-133237331D02*
X136414285Y-133284950D01*
X136414285Y-133284950D02*
X136461904Y-133332569D01*
X136461904Y-133332569D02*
X136509523Y-133427807D01*
X136509523Y-133427807D02*
X136509523Y-133665902D01*
X136509523Y-133665902D02*
X136461904Y-133761140D01*
X136461904Y-133761140D02*
X136414285Y-133808760D01*
X136414285Y-133808760D02*
X136319047Y-133856379D01*
X136319047Y-133856379D02*
X136080952Y-133856379D01*
X136080952Y-133856379D02*
X135985714Y-133808760D01*
X135985714Y-133808760D02*
X135938095Y-133761140D01*
D10*
X121033333Y-73854819D02*
X120700000Y-73378628D01*
X120461905Y-73854819D02*
X120461905Y-72854819D01*
X120461905Y-72854819D02*
X120842857Y-72854819D01*
X120842857Y-72854819D02*
X120938095Y-72902438D01*
X120938095Y-72902438D02*
X120985714Y-72950057D01*
X120985714Y-72950057D02*
X121033333Y-73045295D01*
X121033333Y-73045295D02*
X121033333Y-73188152D01*
X121033333Y-73188152D02*
X120985714Y-73283390D01*
X120985714Y-73283390D02*
X120938095Y-73331009D01*
X120938095Y-73331009D02*
X120842857Y-73378628D01*
X120842857Y-73378628D02*
X120461905Y-73378628D01*
X121938095Y-72854819D02*
X121461905Y-72854819D01*
X121461905Y-72854819D02*
X121414286Y-73331009D01*
X121414286Y-73331009D02*
X121461905Y-73283390D01*
X121461905Y-73283390D02*
X121557143Y-73235771D01*
X121557143Y-73235771D02*
X121795238Y-73235771D01*
X121795238Y-73235771D02*
X121890476Y-73283390D01*
X121890476Y-73283390D02*
X121938095Y-73331009D01*
X121938095Y-73331009D02*
X121985714Y-73426247D01*
X121985714Y-73426247D02*
X121985714Y-73664342D01*
X121985714Y-73664342D02*
X121938095Y-73759580D01*
X121938095Y-73759580D02*
X121890476Y-73807200D01*
X121890476Y-73807200D02*
X121795238Y-73854819D01*
X121795238Y-73854819D02*
X121557143Y-73854819D01*
X121557143Y-73854819D02*
X121461905Y-73807200D01*
X121461905Y-73807200D02*
X121414286Y-73759580D01*
X124433333Y-83059580D02*
X124385714Y-83107200D01*
X124385714Y-83107200D02*
X124242857Y-83154819D01*
X124242857Y-83154819D02*
X124147619Y-83154819D01*
X124147619Y-83154819D02*
X124004762Y-83107200D01*
X124004762Y-83107200D02*
X123909524Y-83011961D01*
X123909524Y-83011961D02*
X123861905Y-82916723D01*
X123861905Y-82916723D02*
X123814286Y-82726247D01*
X123814286Y-82726247D02*
X123814286Y-82583390D01*
X123814286Y-82583390D02*
X123861905Y-82392914D01*
X123861905Y-82392914D02*
X123909524Y-82297676D01*
X123909524Y-82297676D02*
X124004762Y-82202438D01*
X124004762Y-82202438D02*
X124147619Y-82154819D01*
X124147619Y-82154819D02*
X124242857Y-82154819D01*
X124242857Y-82154819D02*
X124385714Y-82202438D01*
X124385714Y-82202438D02*
X124433333Y-82250057D01*
X125385714Y-83154819D02*
X124814286Y-83154819D01*
X125100000Y-83154819D02*
X125100000Y-82154819D01*
X125100000Y-82154819D02*
X125004762Y-82297676D01*
X125004762Y-82297676D02*
X124909524Y-82392914D01*
X124909524Y-82392914D02*
X124814286Y-82440533D01*
X111954819Y-129842857D02*
X111478628Y-130176190D01*
X111954819Y-130414285D02*
X110954819Y-130414285D01*
X110954819Y-130414285D02*
X110954819Y-130033333D01*
X110954819Y-130033333D02*
X111002438Y-129938095D01*
X111002438Y-129938095D02*
X111050057Y-129890476D01*
X111050057Y-129890476D02*
X111145295Y-129842857D01*
X111145295Y-129842857D02*
X111288152Y-129842857D01*
X111288152Y-129842857D02*
X111383390Y-129890476D01*
X111383390Y-129890476D02*
X111431009Y-129938095D01*
X111431009Y-129938095D02*
X111478628Y-130033333D01*
X111478628Y-130033333D02*
X111478628Y-130414285D01*
X111050057Y-129461904D02*
X111002438Y-129414285D01*
X111002438Y-129414285D02*
X110954819Y-129319047D01*
X110954819Y-129319047D02*
X110954819Y-129080952D01*
X110954819Y-129080952D02*
X111002438Y-128985714D01*
X111002438Y-128985714D02*
X111050057Y-128938095D01*
X111050057Y-128938095D02*
X111145295Y-128890476D01*
X111145295Y-128890476D02*
X111240533Y-128890476D01*
X111240533Y-128890476D02*
X111383390Y-128938095D01*
X111383390Y-128938095D02*
X111954819Y-129509523D01*
X111954819Y-129509523D02*
X111954819Y-128890476D01*
X111050057Y-128509523D02*
X111002438Y-128461904D01*
X111002438Y-128461904D02*
X110954819Y-128366666D01*
X110954819Y-128366666D02*
X110954819Y-128128571D01*
X110954819Y-128128571D02*
X111002438Y-128033333D01*
X111002438Y-128033333D02*
X111050057Y-127985714D01*
X111050057Y-127985714D02*
X111145295Y-127938095D01*
X111145295Y-127938095D02*
X111240533Y-127938095D01*
X111240533Y-127938095D02*
X111383390Y-127985714D01*
X111383390Y-127985714D02*
X111954819Y-128557142D01*
X111954819Y-128557142D02*
X111954819Y-127938095D01*
X137157142Y-142409580D02*
X137109523Y-142457200D01*
X137109523Y-142457200D02*
X136966666Y-142504819D01*
X136966666Y-142504819D02*
X136871428Y-142504819D01*
X136871428Y-142504819D02*
X136728571Y-142457200D01*
X136728571Y-142457200D02*
X136633333Y-142361961D01*
X136633333Y-142361961D02*
X136585714Y-142266723D01*
X136585714Y-142266723D02*
X136538095Y-142076247D01*
X136538095Y-142076247D02*
X136538095Y-141933390D01*
X136538095Y-141933390D02*
X136585714Y-141742914D01*
X136585714Y-141742914D02*
X136633333Y-141647676D01*
X136633333Y-141647676D02*
X136728571Y-141552438D01*
X136728571Y-141552438D02*
X136871428Y-141504819D01*
X136871428Y-141504819D02*
X136966666Y-141504819D01*
X136966666Y-141504819D02*
X137109523Y-141552438D01*
X137109523Y-141552438D02*
X137157142Y-141600057D01*
X137538095Y-141600057D02*
X137585714Y-141552438D01*
X137585714Y-141552438D02*
X137680952Y-141504819D01*
X137680952Y-141504819D02*
X137919047Y-141504819D01*
X137919047Y-141504819D02*
X138014285Y-141552438D01*
X138014285Y-141552438D02*
X138061904Y-141600057D01*
X138061904Y-141600057D02*
X138109523Y-141695295D01*
X138109523Y-141695295D02*
X138109523Y-141790533D01*
X138109523Y-141790533D02*
X138061904Y-141933390D01*
X138061904Y-141933390D02*
X137490476Y-142504819D01*
X137490476Y-142504819D02*
X138109523Y-142504819D01*
X138966666Y-141838152D02*
X138966666Y-142504819D01*
X138728571Y-141457200D02*
X138490476Y-142171485D01*
X138490476Y-142171485D02*
X139109523Y-142171485D01*
X134357142Y-84059580D02*
X134309523Y-84107200D01*
X134309523Y-84107200D02*
X134166666Y-84154819D01*
X134166666Y-84154819D02*
X134071428Y-84154819D01*
X134071428Y-84154819D02*
X133928571Y-84107200D01*
X133928571Y-84107200D02*
X133833333Y-84011961D01*
X133833333Y-84011961D02*
X133785714Y-83916723D01*
X133785714Y-83916723D02*
X133738095Y-83726247D01*
X133738095Y-83726247D02*
X133738095Y-83583390D01*
X133738095Y-83583390D02*
X133785714Y-83392914D01*
X133785714Y-83392914D02*
X133833333Y-83297676D01*
X133833333Y-83297676D02*
X133928571Y-83202438D01*
X133928571Y-83202438D02*
X134071428Y-83154819D01*
X134071428Y-83154819D02*
X134166666Y-83154819D01*
X134166666Y-83154819D02*
X134309523Y-83202438D01*
X134309523Y-83202438D02*
X134357142Y-83250057D01*
X135309523Y-84154819D02*
X134738095Y-84154819D01*
X135023809Y-84154819D02*
X135023809Y-83154819D01*
X135023809Y-83154819D02*
X134928571Y-83297676D01*
X134928571Y-83297676D02*
X134833333Y-83392914D01*
X134833333Y-83392914D02*
X134738095Y-83440533D01*
X135880952Y-83583390D02*
X135785714Y-83535771D01*
X135785714Y-83535771D02*
X135738095Y-83488152D01*
X135738095Y-83488152D02*
X135690476Y-83392914D01*
X135690476Y-83392914D02*
X135690476Y-83345295D01*
X135690476Y-83345295D02*
X135738095Y-83250057D01*
X135738095Y-83250057D02*
X135785714Y-83202438D01*
X135785714Y-83202438D02*
X135880952Y-83154819D01*
X135880952Y-83154819D02*
X136071428Y-83154819D01*
X136071428Y-83154819D02*
X136166666Y-83202438D01*
X136166666Y-83202438D02*
X136214285Y-83250057D01*
X136214285Y-83250057D02*
X136261904Y-83345295D01*
X136261904Y-83345295D02*
X136261904Y-83392914D01*
X136261904Y-83392914D02*
X136214285Y-83488152D01*
X136214285Y-83488152D02*
X136166666Y-83535771D01*
X136166666Y-83535771D02*
X136071428Y-83583390D01*
X136071428Y-83583390D02*
X135880952Y-83583390D01*
X135880952Y-83583390D02*
X135785714Y-83631009D01*
X135785714Y-83631009D02*
X135738095Y-83678628D01*
X135738095Y-83678628D02*
X135690476Y-83773866D01*
X135690476Y-83773866D02*
X135690476Y-83964342D01*
X135690476Y-83964342D02*
X135738095Y-84059580D01*
X135738095Y-84059580D02*
X135785714Y-84107200D01*
X135785714Y-84107200D02*
X135880952Y-84154819D01*
X135880952Y-84154819D02*
X136071428Y-84154819D01*
X136071428Y-84154819D02*
X136166666Y-84107200D01*
X136166666Y-84107200D02*
X136214285Y-84059580D01*
X136214285Y-84059580D02*
X136261904Y-83964342D01*
X136261904Y-83964342D02*
X136261904Y-83773866D01*
X136261904Y-83773866D02*
X136214285Y-83678628D01*
X136214285Y-83678628D02*
X136166666Y-83631009D01*
X136166666Y-83631009D02*
X136071428Y-83583390D01*
X127207142Y-108459580D02*
X127159523Y-108507200D01*
X127159523Y-108507200D02*
X127016666Y-108554819D01*
X127016666Y-108554819D02*
X126921428Y-108554819D01*
X126921428Y-108554819D02*
X126778571Y-108507200D01*
X126778571Y-108507200D02*
X126683333Y-108411961D01*
X126683333Y-108411961D02*
X126635714Y-108316723D01*
X126635714Y-108316723D02*
X126588095Y-108126247D01*
X126588095Y-108126247D02*
X126588095Y-107983390D01*
X126588095Y-107983390D02*
X126635714Y-107792914D01*
X126635714Y-107792914D02*
X126683333Y-107697676D01*
X126683333Y-107697676D02*
X126778571Y-107602438D01*
X126778571Y-107602438D02*
X126921428Y-107554819D01*
X126921428Y-107554819D02*
X127016666Y-107554819D01*
X127016666Y-107554819D02*
X127159523Y-107602438D01*
X127159523Y-107602438D02*
X127207142Y-107650057D01*
X127588095Y-107650057D02*
X127635714Y-107602438D01*
X127635714Y-107602438D02*
X127730952Y-107554819D01*
X127730952Y-107554819D02*
X127969047Y-107554819D01*
X127969047Y-107554819D02*
X128064285Y-107602438D01*
X128064285Y-107602438D02*
X128111904Y-107650057D01*
X128111904Y-107650057D02*
X128159523Y-107745295D01*
X128159523Y-107745295D02*
X128159523Y-107840533D01*
X128159523Y-107840533D02*
X128111904Y-107983390D01*
X128111904Y-107983390D02*
X127540476Y-108554819D01*
X127540476Y-108554819D02*
X128159523Y-108554819D01*
X128540476Y-107650057D02*
X128588095Y-107602438D01*
X128588095Y-107602438D02*
X128683333Y-107554819D01*
X128683333Y-107554819D02*
X128921428Y-107554819D01*
X128921428Y-107554819D02*
X129016666Y-107602438D01*
X129016666Y-107602438D02*
X129064285Y-107650057D01*
X129064285Y-107650057D02*
X129111904Y-107745295D01*
X129111904Y-107745295D02*
X129111904Y-107840533D01*
X129111904Y-107840533D02*
X129064285Y-107983390D01*
X129064285Y-107983390D02*
X128492857Y-108554819D01*
X128492857Y-108554819D02*
X129111904Y-108554819D01*
X124469642Y-126209580D02*
X124422023Y-126257200D01*
X124422023Y-126257200D02*
X124279166Y-126304819D01*
X124279166Y-126304819D02*
X124183928Y-126304819D01*
X124183928Y-126304819D02*
X124041071Y-126257200D01*
X124041071Y-126257200D02*
X123945833Y-126161961D01*
X123945833Y-126161961D02*
X123898214Y-126066723D01*
X123898214Y-126066723D02*
X123850595Y-125876247D01*
X123850595Y-125876247D02*
X123850595Y-125733390D01*
X123850595Y-125733390D02*
X123898214Y-125542914D01*
X123898214Y-125542914D02*
X123945833Y-125447676D01*
X123945833Y-125447676D02*
X124041071Y-125352438D01*
X124041071Y-125352438D02*
X124183928Y-125304819D01*
X124183928Y-125304819D02*
X124279166Y-125304819D01*
X124279166Y-125304819D02*
X124422023Y-125352438D01*
X124422023Y-125352438D02*
X124469642Y-125400057D01*
X124802976Y-125304819D02*
X125422023Y-125304819D01*
X125422023Y-125304819D02*
X125088690Y-125685771D01*
X125088690Y-125685771D02*
X125231547Y-125685771D01*
X125231547Y-125685771D02*
X125326785Y-125733390D01*
X125326785Y-125733390D02*
X125374404Y-125781009D01*
X125374404Y-125781009D02*
X125422023Y-125876247D01*
X125422023Y-125876247D02*
X125422023Y-126114342D01*
X125422023Y-126114342D02*
X125374404Y-126209580D01*
X125374404Y-126209580D02*
X125326785Y-126257200D01*
X125326785Y-126257200D02*
X125231547Y-126304819D01*
X125231547Y-126304819D02*
X124945833Y-126304819D01*
X124945833Y-126304819D02*
X124850595Y-126257200D01*
X124850595Y-126257200D02*
X124802976Y-126209580D01*
X126374404Y-126304819D02*
X125802976Y-126304819D01*
X126088690Y-126304819D02*
X126088690Y-125304819D01*
X126088690Y-125304819D02*
X125993452Y-125447676D01*
X125993452Y-125447676D02*
X125898214Y-125542914D01*
X125898214Y-125542914D02*
X125802976Y-125590533D01*
X124372080Y-129717857D02*
X124419700Y-129765476D01*
X124419700Y-129765476D02*
X124467319Y-129908333D01*
X124467319Y-129908333D02*
X124467319Y-130003571D01*
X124467319Y-130003571D02*
X124419700Y-130146428D01*
X124419700Y-130146428D02*
X124324461Y-130241666D01*
X124324461Y-130241666D02*
X124229223Y-130289285D01*
X124229223Y-130289285D02*
X124038747Y-130336904D01*
X124038747Y-130336904D02*
X123895890Y-130336904D01*
X123895890Y-130336904D02*
X123705414Y-130289285D01*
X123705414Y-130289285D02*
X123610176Y-130241666D01*
X123610176Y-130241666D02*
X123514938Y-130146428D01*
X123514938Y-130146428D02*
X123467319Y-130003571D01*
X123467319Y-130003571D02*
X123467319Y-129908333D01*
X123467319Y-129908333D02*
X123514938Y-129765476D01*
X123514938Y-129765476D02*
X123562557Y-129717857D01*
X123467319Y-129384523D02*
X123467319Y-128765476D01*
X123467319Y-128765476D02*
X123848271Y-129098809D01*
X123848271Y-129098809D02*
X123848271Y-128955952D01*
X123848271Y-128955952D02*
X123895890Y-128860714D01*
X123895890Y-128860714D02*
X123943509Y-128813095D01*
X123943509Y-128813095D02*
X124038747Y-128765476D01*
X124038747Y-128765476D02*
X124276842Y-128765476D01*
X124276842Y-128765476D02*
X124372080Y-128813095D01*
X124372080Y-128813095D02*
X124419700Y-128860714D01*
X124419700Y-128860714D02*
X124467319Y-128955952D01*
X124467319Y-128955952D02*
X124467319Y-129241666D01*
X124467319Y-129241666D02*
X124419700Y-129336904D01*
X124419700Y-129336904D02*
X124372080Y-129384523D01*
X123467319Y-128432142D02*
X123467319Y-127813095D01*
X123467319Y-127813095D02*
X123848271Y-128146428D01*
X123848271Y-128146428D02*
X123848271Y-128003571D01*
X123848271Y-128003571D02*
X123895890Y-127908333D01*
X123895890Y-127908333D02*
X123943509Y-127860714D01*
X123943509Y-127860714D02*
X124038747Y-127813095D01*
X124038747Y-127813095D02*
X124276842Y-127813095D01*
X124276842Y-127813095D02*
X124372080Y-127860714D01*
X124372080Y-127860714D02*
X124419700Y-127908333D01*
X124419700Y-127908333D02*
X124467319Y-128003571D01*
X124467319Y-128003571D02*
X124467319Y-128289285D01*
X124467319Y-128289285D02*
X124419700Y-128384523D01*
X124419700Y-128384523D02*
X124372080Y-128432142D01*
X110907142Y-120459580D02*
X110859523Y-120507200D01*
X110859523Y-120507200D02*
X110716666Y-120554819D01*
X110716666Y-120554819D02*
X110621428Y-120554819D01*
X110621428Y-120554819D02*
X110478571Y-120507200D01*
X110478571Y-120507200D02*
X110383333Y-120411961D01*
X110383333Y-120411961D02*
X110335714Y-120316723D01*
X110335714Y-120316723D02*
X110288095Y-120126247D01*
X110288095Y-120126247D02*
X110288095Y-119983390D01*
X110288095Y-119983390D02*
X110335714Y-119792914D01*
X110335714Y-119792914D02*
X110383333Y-119697676D01*
X110383333Y-119697676D02*
X110478571Y-119602438D01*
X110478571Y-119602438D02*
X110621428Y-119554819D01*
X110621428Y-119554819D02*
X110716666Y-119554819D01*
X110716666Y-119554819D02*
X110859523Y-119602438D01*
X110859523Y-119602438D02*
X110907142Y-119650057D01*
X111288095Y-119650057D02*
X111335714Y-119602438D01*
X111335714Y-119602438D02*
X111430952Y-119554819D01*
X111430952Y-119554819D02*
X111669047Y-119554819D01*
X111669047Y-119554819D02*
X111764285Y-119602438D01*
X111764285Y-119602438D02*
X111811904Y-119650057D01*
X111811904Y-119650057D02*
X111859523Y-119745295D01*
X111859523Y-119745295D02*
X111859523Y-119840533D01*
X111859523Y-119840533D02*
X111811904Y-119983390D01*
X111811904Y-119983390D02*
X111240476Y-120554819D01*
X111240476Y-120554819D02*
X111859523Y-120554819D01*
X112430952Y-119983390D02*
X112335714Y-119935771D01*
X112335714Y-119935771D02*
X112288095Y-119888152D01*
X112288095Y-119888152D02*
X112240476Y-119792914D01*
X112240476Y-119792914D02*
X112240476Y-119745295D01*
X112240476Y-119745295D02*
X112288095Y-119650057D01*
X112288095Y-119650057D02*
X112335714Y-119602438D01*
X112335714Y-119602438D02*
X112430952Y-119554819D01*
X112430952Y-119554819D02*
X112621428Y-119554819D01*
X112621428Y-119554819D02*
X112716666Y-119602438D01*
X112716666Y-119602438D02*
X112764285Y-119650057D01*
X112764285Y-119650057D02*
X112811904Y-119745295D01*
X112811904Y-119745295D02*
X112811904Y-119792914D01*
X112811904Y-119792914D02*
X112764285Y-119888152D01*
X112764285Y-119888152D02*
X112716666Y-119935771D01*
X112716666Y-119935771D02*
X112621428Y-119983390D01*
X112621428Y-119983390D02*
X112430952Y-119983390D01*
X112430952Y-119983390D02*
X112335714Y-120031009D01*
X112335714Y-120031009D02*
X112288095Y-120078628D01*
X112288095Y-120078628D02*
X112240476Y-120173866D01*
X112240476Y-120173866D02*
X112240476Y-120364342D01*
X112240476Y-120364342D02*
X112288095Y-120459580D01*
X112288095Y-120459580D02*
X112335714Y-120507200D01*
X112335714Y-120507200D02*
X112430952Y-120554819D01*
X112430952Y-120554819D02*
X112621428Y-120554819D01*
X112621428Y-120554819D02*
X112716666Y-120507200D01*
X112716666Y-120507200D02*
X112764285Y-120459580D01*
X112764285Y-120459580D02*
X112811904Y-120364342D01*
X112811904Y-120364342D02*
X112811904Y-120173866D01*
X112811904Y-120173866D02*
X112764285Y-120078628D01*
X112764285Y-120078628D02*
X112716666Y-120031009D01*
X112716666Y-120031009D02*
X112621428Y-119983390D01*
X124457142Y-84559580D02*
X124409523Y-84607200D01*
X124409523Y-84607200D02*
X124266666Y-84654819D01*
X124266666Y-84654819D02*
X124171428Y-84654819D01*
X124171428Y-84654819D02*
X124028571Y-84607200D01*
X124028571Y-84607200D02*
X123933333Y-84511961D01*
X123933333Y-84511961D02*
X123885714Y-84416723D01*
X123885714Y-84416723D02*
X123838095Y-84226247D01*
X123838095Y-84226247D02*
X123838095Y-84083390D01*
X123838095Y-84083390D02*
X123885714Y-83892914D01*
X123885714Y-83892914D02*
X123933333Y-83797676D01*
X123933333Y-83797676D02*
X124028571Y-83702438D01*
X124028571Y-83702438D02*
X124171428Y-83654819D01*
X124171428Y-83654819D02*
X124266666Y-83654819D01*
X124266666Y-83654819D02*
X124409523Y-83702438D01*
X124409523Y-83702438D02*
X124457142Y-83750057D01*
X125409523Y-84654819D02*
X124838095Y-84654819D01*
X125123809Y-84654819D02*
X125123809Y-83654819D01*
X125123809Y-83654819D02*
X125028571Y-83797676D01*
X125028571Y-83797676D02*
X124933333Y-83892914D01*
X124933333Y-83892914D02*
X124838095Y-83940533D01*
X125790476Y-83750057D02*
X125838095Y-83702438D01*
X125838095Y-83702438D02*
X125933333Y-83654819D01*
X125933333Y-83654819D02*
X126171428Y-83654819D01*
X126171428Y-83654819D02*
X126266666Y-83702438D01*
X126266666Y-83702438D02*
X126314285Y-83750057D01*
X126314285Y-83750057D02*
X126361904Y-83845295D01*
X126361904Y-83845295D02*
X126361904Y-83940533D01*
X126361904Y-83940533D02*
X126314285Y-84083390D01*
X126314285Y-84083390D02*
X125742857Y-84654819D01*
X125742857Y-84654819D02*
X126361904Y-84654819D01*
X122033333Y-77759580D02*
X121985714Y-77807200D01*
X121985714Y-77807200D02*
X121842857Y-77854819D01*
X121842857Y-77854819D02*
X121747619Y-77854819D01*
X121747619Y-77854819D02*
X121604762Y-77807200D01*
X121604762Y-77807200D02*
X121509524Y-77711961D01*
X121509524Y-77711961D02*
X121461905Y-77616723D01*
X121461905Y-77616723D02*
X121414286Y-77426247D01*
X121414286Y-77426247D02*
X121414286Y-77283390D01*
X121414286Y-77283390D02*
X121461905Y-77092914D01*
X121461905Y-77092914D02*
X121509524Y-76997676D01*
X121509524Y-76997676D02*
X121604762Y-76902438D01*
X121604762Y-76902438D02*
X121747619Y-76854819D01*
X121747619Y-76854819D02*
X121842857Y-76854819D01*
X121842857Y-76854819D02*
X121985714Y-76902438D01*
X121985714Y-76902438D02*
X122033333Y-76950057D01*
X122366667Y-76854819D02*
X122985714Y-76854819D01*
X122985714Y-76854819D02*
X122652381Y-77235771D01*
X122652381Y-77235771D02*
X122795238Y-77235771D01*
X122795238Y-77235771D02*
X122890476Y-77283390D01*
X122890476Y-77283390D02*
X122938095Y-77331009D01*
X122938095Y-77331009D02*
X122985714Y-77426247D01*
X122985714Y-77426247D02*
X122985714Y-77664342D01*
X122985714Y-77664342D02*
X122938095Y-77759580D01*
X122938095Y-77759580D02*
X122890476Y-77807200D01*
X122890476Y-77807200D02*
X122795238Y-77854819D01*
X122795238Y-77854819D02*
X122509524Y-77854819D01*
X122509524Y-77854819D02*
X122414286Y-77807200D01*
X122414286Y-77807200D02*
X122366667Y-77759580D01*
X113557142Y-133604819D02*
X113223809Y-133128628D01*
X112985714Y-133604819D02*
X112985714Y-132604819D01*
X112985714Y-132604819D02*
X113366666Y-132604819D01*
X113366666Y-132604819D02*
X113461904Y-132652438D01*
X113461904Y-132652438D02*
X113509523Y-132700057D01*
X113509523Y-132700057D02*
X113557142Y-132795295D01*
X113557142Y-132795295D02*
X113557142Y-132938152D01*
X113557142Y-132938152D02*
X113509523Y-133033390D01*
X113509523Y-133033390D02*
X113461904Y-133081009D01*
X113461904Y-133081009D02*
X113366666Y-133128628D01*
X113366666Y-133128628D02*
X112985714Y-133128628D01*
X114509523Y-133604819D02*
X113938095Y-133604819D01*
X114223809Y-133604819D02*
X114223809Y-132604819D01*
X114223809Y-132604819D02*
X114128571Y-132747676D01*
X114128571Y-132747676D02*
X114033333Y-132842914D01*
X114033333Y-132842914D02*
X113938095Y-132890533D01*
X114985714Y-133604819D02*
X115176190Y-133604819D01*
X115176190Y-133604819D02*
X115271428Y-133557200D01*
X115271428Y-133557200D02*
X115319047Y-133509580D01*
X115319047Y-133509580D02*
X115414285Y-133366723D01*
X115414285Y-133366723D02*
X115461904Y-133176247D01*
X115461904Y-133176247D02*
X115461904Y-132795295D01*
X115461904Y-132795295D02*
X115414285Y-132700057D01*
X115414285Y-132700057D02*
X115366666Y-132652438D01*
X115366666Y-132652438D02*
X115271428Y-132604819D01*
X115271428Y-132604819D02*
X115080952Y-132604819D01*
X115080952Y-132604819D02*
X114985714Y-132652438D01*
X114985714Y-132652438D02*
X114938095Y-132700057D01*
X114938095Y-132700057D02*
X114890476Y-132795295D01*
X114890476Y-132795295D02*
X114890476Y-133033390D01*
X114890476Y-133033390D02*
X114938095Y-133128628D01*
X114938095Y-133128628D02*
X114985714Y-133176247D01*
X114985714Y-133176247D02*
X115080952Y-133223866D01*
X115080952Y-133223866D02*
X115271428Y-133223866D01*
X115271428Y-133223866D02*
X115366666Y-133176247D01*
X115366666Y-133176247D02*
X115414285Y-133128628D01*
X115414285Y-133128628D02*
X115461904Y-133033390D01*
X128057142Y-134154819D02*
X127723809Y-133678628D01*
X127485714Y-134154819D02*
X127485714Y-133154819D01*
X127485714Y-133154819D02*
X127866666Y-133154819D01*
X127866666Y-133154819D02*
X127961904Y-133202438D01*
X127961904Y-133202438D02*
X128009523Y-133250057D01*
X128009523Y-133250057D02*
X128057142Y-133345295D01*
X128057142Y-133345295D02*
X128057142Y-133488152D01*
X128057142Y-133488152D02*
X128009523Y-133583390D01*
X128009523Y-133583390D02*
X127961904Y-133631009D01*
X127961904Y-133631009D02*
X127866666Y-133678628D01*
X127866666Y-133678628D02*
X127485714Y-133678628D01*
X129009523Y-134154819D02*
X128438095Y-134154819D01*
X128723809Y-134154819D02*
X128723809Y-133154819D01*
X128723809Y-133154819D02*
X128628571Y-133297676D01*
X128628571Y-133297676D02*
X128533333Y-133392914D01*
X128533333Y-133392914D02*
X128438095Y-133440533D01*
X129390476Y-133250057D02*
X129438095Y-133202438D01*
X129438095Y-133202438D02*
X129533333Y-133154819D01*
X129533333Y-133154819D02*
X129771428Y-133154819D01*
X129771428Y-133154819D02*
X129866666Y-133202438D01*
X129866666Y-133202438D02*
X129914285Y-133250057D01*
X129914285Y-133250057D02*
X129961904Y-133345295D01*
X129961904Y-133345295D02*
X129961904Y-133440533D01*
X129961904Y-133440533D02*
X129914285Y-133583390D01*
X129914285Y-133583390D02*
X129342857Y-134154819D01*
X129342857Y-134154819D02*
X129961904Y-134154819D01*
X139454819Y-68461904D02*
X140264342Y-68461904D01*
X140264342Y-68461904D02*
X140359580Y-68414285D01*
X140359580Y-68414285D02*
X140407200Y-68366666D01*
X140407200Y-68366666D02*
X140454819Y-68271428D01*
X140454819Y-68271428D02*
X140454819Y-68080952D01*
X140454819Y-68080952D02*
X140407200Y-67985714D01*
X140407200Y-67985714D02*
X140359580Y-67938095D01*
X140359580Y-67938095D02*
X140264342Y-67890476D01*
X140264342Y-67890476D02*
X139454819Y-67890476D01*
X140454819Y-67366666D02*
X140454819Y-67176190D01*
X140454819Y-67176190D02*
X140407200Y-67080952D01*
X140407200Y-67080952D02*
X140359580Y-67033333D01*
X140359580Y-67033333D02*
X140216723Y-66938095D01*
X140216723Y-66938095D02*
X140026247Y-66890476D01*
X140026247Y-66890476D02*
X139645295Y-66890476D01*
X139645295Y-66890476D02*
X139550057Y-66938095D01*
X139550057Y-66938095D02*
X139502438Y-66985714D01*
X139502438Y-66985714D02*
X139454819Y-67080952D01*
X139454819Y-67080952D02*
X139454819Y-67271428D01*
X139454819Y-67271428D02*
X139502438Y-67366666D01*
X139502438Y-67366666D02*
X139550057Y-67414285D01*
X139550057Y-67414285D02*
X139645295Y-67461904D01*
X139645295Y-67461904D02*
X139883390Y-67461904D01*
X139883390Y-67461904D02*
X139978628Y-67414285D01*
X139978628Y-67414285D02*
X140026247Y-67366666D01*
X140026247Y-67366666D02*
X140073866Y-67271428D01*
X140073866Y-67271428D02*
X140073866Y-67080952D01*
X140073866Y-67080952D02*
X140026247Y-66985714D01*
X140026247Y-66985714D02*
X139978628Y-66938095D01*
X139978628Y-66938095D02*
X139883390Y-66890476D01*
X130059580Y-103242857D02*
X130107200Y-103290476D01*
X130107200Y-103290476D02*
X130154819Y-103433333D01*
X130154819Y-103433333D02*
X130154819Y-103528571D01*
X130154819Y-103528571D02*
X130107200Y-103671428D01*
X130107200Y-103671428D02*
X130011961Y-103766666D01*
X130011961Y-103766666D02*
X129916723Y-103814285D01*
X129916723Y-103814285D02*
X129726247Y-103861904D01*
X129726247Y-103861904D02*
X129583390Y-103861904D01*
X129583390Y-103861904D02*
X129392914Y-103814285D01*
X129392914Y-103814285D02*
X129297676Y-103766666D01*
X129297676Y-103766666D02*
X129202438Y-103671428D01*
X129202438Y-103671428D02*
X129154819Y-103528571D01*
X129154819Y-103528571D02*
X129154819Y-103433333D01*
X129154819Y-103433333D02*
X129202438Y-103290476D01*
X129202438Y-103290476D02*
X129250057Y-103242857D01*
X129250057Y-102861904D02*
X129202438Y-102814285D01*
X129202438Y-102814285D02*
X129154819Y-102719047D01*
X129154819Y-102719047D02*
X129154819Y-102480952D01*
X129154819Y-102480952D02*
X129202438Y-102385714D01*
X129202438Y-102385714D02*
X129250057Y-102338095D01*
X129250057Y-102338095D02*
X129345295Y-102290476D01*
X129345295Y-102290476D02*
X129440533Y-102290476D01*
X129440533Y-102290476D02*
X129583390Y-102338095D01*
X129583390Y-102338095D02*
X130154819Y-102909523D01*
X130154819Y-102909523D02*
X130154819Y-102290476D01*
X129154819Y-101671428D02*
X129154819Y-101576190D01*
X129154819Y-101576190D02*
X129202438Y-101480952D01*
X129202438Y-101480952D02*
X129250057Y-101433333D01*
X129250057Y-101433333D02*
X129345295Y-101385714D01*
X129345295Y-101385714D02*
X129535771Y-101338095D01*
X129535771Y-101338095D02*
X129773866Y-101338095D01*
X129773866Y-101338095D02*
X129964342Y-101385714D01*
X129964342Y-101385714D02*
X130059580Y-101433333D01*
X130059580Y-101433333D02*
X130107200Y-101480952D01*
X130107200Y-101480952D02*
X130154819Y-101576190D01*
X130154819Y-101576190D02*
X130154819Y-101671428D01*
X130154819Y-101671428D02*
X130107200Y-101766666D01*
X130107200Y-101766666D02*
X130059580Y-101814285D01*
X130059580Y-101814285D02*
X129964342Y-101861904D01*
X129964342Y-101861904D02*
X129773866Y-101909523D01*
X129773866Y-101909523D02*
X129535771Y-101909523D01*
X129535771Y-101909523D02*
X129345295Y-101861904D01*
X129345295Y-101861904D02*
X129250057Y-101814285D01*
X129250057Y-101814285D02*
X129202438Y-101766666D01*
X129202438Y-101766666D02*
X129154819Y-101671428D01*
X120238095Y-74854819D02*
X120238095Y-75664342D01*
X120238095Y-75664342D02*
X120285714Y-75759580D01*
X120285714Y-75759580D02*
X120333333Y-75807200D01*
X120333333Y-75807200D02*
X120428571Y-75854819D01*
X120428571Y-75854819D02*
X120619047Y-75854819D01*
X120619047Y-75854819D02*
X120714285Y-75807200D01*
X120714285Y-75807200D02*
X120761904Y-75759580D01*
X120761904Y-75759580D02*
X120809523Y-75664342D01*
X120809523Y-75664342D02*
X120809523Y-74854819D01*
X121238095Y-74950057D02*
X121285714Y-74902438D01*
X121285714Y-74902438D02*
X121380952Y-74854819D01*
X121380952Y-74854819D02*
X121619047Y-74854819D01*
X121619047Y-74854819D02*
X121714285Y-74902438D01*
X121714285Y-74902438D02*
X121761904Y-74950057D01*
X121761904Y-74950057D02*
X121809523Y-75045295D01*
X121809523Y-75045295D02*
X121809523Y-75140533D01*
X121809523Y-75140533D02*
X121761904Y-75283390D01*
X121761904Y-75283390D02*
X121190476Y-75854819D01*
X121190476Y-75854819D02*
X121809523Y-75854819D01*
X109733333Y-84154819D02*
X109400000Y-83678628D01*
X109161905Y-84154819D02*
X109161905Y-83154819D01*
X109161905Y-83154819D02*
X109542857Y-83154819D01*
X109542857Y-83154819D02*
X109638095Y-83202438D01*
X109638095Y-83202438D02*
X109685714Y-83250057D01*
X109685714Y-83250057D02*
X109733333Y-83345295D01*
X109733333Y-83345295D02*
X109733333Y-83488152D01*
X109733333Y-83488152D02*
X109685714Y-83583390D01*
X109685714Y-83583390D02*
X109638095Y-83631009D01*
X109638095Y-83631009D02*
X109542857Y-83678628D01*
X109542857Y-83678628D02*
X109161905Y-83678628D01*
X110066667Y-83154819D02*
X110685714Y-83154819D01*
X110685714Y-83154819D02*
X110352381Y-83535771D01*
X110352381Y-83535771D02*
X110495238Y-83535771D01*
X110495238Y-83535771D02*
X110590476Y-83583390D01*
X110590476Y-83583390D02*
X110638095Y-83631009D01*
X110638095Y-83631009D02*
X110685714Y-83726247D01*
X110685714Y-83726247D02*
X110685714Y-83964342D01*
X110685714Y-83964342D02*
X110638095Y-84059580D01*
X110638095Y-84059580D02*
X110590476Y-84107200D01*
X110590476Y-84107200D02*
X110495238Y-84154819D01*
X110495238Y-84154819D02*
X110209524Y-84154819D01*
X110209524Y-84154819D02*
X110114286Y-84107200D01*
X110114286Y-84107200D02*
X110066667Y-84059580D01*
X128638095Y-122204819D02*
X129209523Y-122204819D01*
X128923809Y-123204819D02*
X128923809Y-122204819D01*
X129542857Y-123204819D02*
X129542857Y-122204819D01*
X129542857Y-122204819D02*
X129923809Y-122204819D01*
X129923809Y-122204819D02*
X130019047Y-122252438D01*
X130019047Y-122252438D02*
X130066666Y-122300057D01*
X130066666Y-122300057D02*
X130114285Y-122395295D01*
X130114285Y-122395295D02*
X130114285Y-122538152D01*
X130114285Y-122538152D02*
X130066666Y-122633390D01*
X130066666Y-122633390D02*
X130019047Y-122681009D01*
X130019047Y-122681009D02*
X129923809Y-122728628D01*
X129923809Y-122728628D02*
X129542857Y-122728628D01*
X130495238Y-122300057D02*
X130542857Y-122252438D01*
X130542857Y-122252438D02*
X130638095Y-122204819D01*
X130638095Y-122204819D02*
X130876190Y-122204819D01*
X130876190Y-122204819D02*
X130971428Y-122252438D01*
X130971428Y-122252438D02*
X131019047Y-122300057D01*
X131019047Y-122300057D02*
X131066666Y-122395295D01*
X131066666Y-122395295D02*
X131066666Y-122490533D01*
X131066666Y-122490533D02*
X131019047Y-122633390D01*
X131019047Y-122633390D02*
X130447619Y-123204819D01*
X130447619Y-123204819D02*
X131066666Y-123204819D01*
X118859580Y-133242857D02*
X118907200Y-133290476D01*
X118907200Y-133290476D02*
X118954819Y-133433333D01*
X118954819Y-133433333D02*
X118954819Y-133528571D01*
X118954819Y-133528571D02*
X118907200Y-133671428D01*
X118907200Y-133671428D02*
X118811961Y-133766666D01*
X118811961Y-133766666D02*
X118716723Y-133814285D01*
X118716723Y-133814285D02*
X118526247Y-133861904D01*
X118526247Y-133861904D02*
X118383390Y-133861904D01*
X118383390Y-133861904D02*
X118192914Y-133814285D01*
X118192914Y-133814285D02*
X118097676Y-133766666D01*
X118097676Y-133766666D02*
X118002438Y-133671428D01*
X118002438Y-133671428D02*
X117954819Y-133528571D01*
X117954819Y-133528571D02*
X117954819Y-133433333D01*
X117954819Y-133433333D02*
X118002438Y-133290476D01*
X118002438Y-133290476D02*
X118050057Y-133242857D01*
X117954819Y-132909523D02*
X117954819Y-132290476D01*
X117954819Y-132290476D02*
X118335771Y-132623809D01*
X118335771Y-132623809D02*
X118335771Y-132480952D01*
X118335771Y-132480952D02*
X118383390Y-132385714D01*
X118383390Y-132385714D02*
X118431009Y-132338095D01*
X118431009Y-132338095D02*
X118526247Y-132290476D01*
X118526247Y-132290476D02*
X118764342Y-132290476D01*
X118764342Y-132290476D02*
X118859580Y-132338095D01*
X118859580Y-132338095D02*
X118907200Y-132385714D01*
X118907200Y-132385714D02*
X118954819Y-132480952D01*
X118954819Y-132480952D02*
X118954819Y-132766666D01*
X118954819Y-132766666D02*
X118907200Y-132861904D01*
X118907200Y-132861904D02*
X118859580Y-132909523D01*
X118288152Y-131433333D02*
X118954819Y-131433333D01*
X117907200Y-131671428D02*
X118621485Y-131909523D01*
X118621485Y-131909523D02*
X118621485Y-131290476D01*
X139557142Y-103354819D02*
X139223809Y-102878628D01*
X138985714Y-103354819D02*
X138985714Y-102354819D01*
X138985714Y-102354819D02*
X139366666Y-102354819D01*
X139366666Y-102354819D02*
X139461904Y-102402438D01*
X139461904Y-102402438D02*
X139509523Y-102450057D01*
X139509523Y-102450057D02*
X139557142Y-102545295D01*
X139557142Y-102545295D02*
X139557142Y-102688152D01*
X139557142Y-102688152D02*
X139509523Y-102783390D01*
X139509523Y-102783390D02*
X139461904Y-102831009D01*
X139461904Y-102831009D02*
X139366666Y-102878628D01*
X139366666Y-102878628D02*
X138985714Y-102878628D01*
X140509523Y-103354819D02*
X139938095Y-103354819D01*
X140223809Y-103354819D02*
X140223809Y-102354819D01*
X140223809Y-102354819D02*
X140128571Y-102497676D01*
X140128571Y-102497676D02*
X140033333Y-102592914D01*
X140033333Y-102592914D02*
X139938095Y-102640533D01*
X141080952Y-102783390D02*
X140985714Y-102735771D01*
X140985714Y-102735771D02*
X140938095Y-102688152D01*
X140938095Y-102688152D02*
X140890476Y-102592914D01*
X140890476Y-102592914D02*
X140890476Y-102545295D01*
X140890476Y-102545295D02*
X140938095Y-102450057D01*
X140938095Y-102450057D02*
X140985714Y-102402438D01*
X140985714Y-102402438D02*
X141080952Y-102354819D01*
X141080952Y-102354819D02*
X141271428Y-102354819D01*
X141271428Y-102354819D02*
X141366666Y-102402438D01*
X141366666Y-102402438D02*
X141414285Y-102450057D01*
X141414285Y-102450057D02*
X141461904Y-102545295D01*
X141461904Y-102545295D02*
X141461904Y-102592914D01*
X141461904Y-102592914D02*
X141414285Y-102688152D01*
X141414285Y-102688152D02*
X141366666Y-102735771D01*
X141366666Y-102735771D02*
X141271428Y-102783390D01*
X141271428Y-102783390D02*
X141080952Y-102783390D01*
X141080952Y-102783390D02*
X140985714Y-102831009D01*
X140985714Y-102831009D02*
X140938095Y-102878628D01*
X140938095Y-102878628D02*
X140890476Y-102973866D01*
X140890476Y-102973866D02*
X140890476Y-103164342D01*
X140890476Y-103164342D02*
X140938095Y-103259580D01*
X140938095Y-103259580D02*
X140985714Y-103307200D01*
X140985714Y-103307200D02*
X141080952Y-103354819D01*
X141080952Y-103354819D02*
X141271428Y-103354819D01*
X141271428Y-103354819D02*
X141366666Y-103307200D01*
X141366666Y-103307200D02*
X141414285Y-103259580D01*
X141414285Y-103259580D02*
X141461904Y-103164342D01*
X141461904Y-103164342D02*
X141461904Y-102973866D01*
X141461904Y-102973866D02*
X141414285Y-102878628D01*
X141414285Y-102878628D02*
X141366666Y-102831009D01*
X141366666Y-102831009D02*
X141271428Y-102783390D01*
X139904819Y-90892857D02*
X139428628Y-91226190D01*
X139904819Y-91464285D02*
X138904819Y-91464285D01*
X138904819Y-91464285D02*
X138904819Y-91083333D01*
X138904819Y-91083333D02*
X138952438Y-90988095D01*
X138952438Y-90988095D02*
X139000057Y-90940476D01*
X139000057Y-90940476D02*
X139095295Y-90892857D01*
X139095295Y-90892857D02*
X139238152Y-90892857D01*
X139238152Y-90892857D02*
X139333390Y-90940476D01*
X139333390Y-90940476D02*
X139381009Y-90988095D01*
X139381009Y-90988095D02*
X139428628Y-91083333D01*
X139428628Y-91083333D02*
X139428628Y-91464285D01*
X139904819Y-89940476D02*
X139904819Y-90511904D01*
X139904819Y-90226190D02*
X138904819Y-90226190D01*
X138904819Y-90226190D02*
X139047676Y-90321428D01*
X139047676Y-90321428D02*
X139142914Y-90416666D01*
X139142914Y-90416666D02*
X139190533Y-90511904D01*
X138904819Y-89321428D02*
X138904819Y-89226190D01*
X138904819Y-89226190D02*
X138952438Y-89130952D01*
X138952438Y-89130952D02*
X139000057Y-89083333D01*
X139000057Y-89083333D02*
X139095295Y-89035714D01*
X139095295Y-89035714D02*
X139285771Y-88988095D01*
X139285771Y-88988095D02*
X139523866Y-88988095D01*
X139523866Y-88988095D02*
X139714342Y-89035714D01*
X139714342Y-89035714D02*
X139809580Y-89083333D01*
X139809580Y-89083333D02*
X139857200Y-89130952D01*
X139857200Y-89130952D02*
X139904819Y-89226190D01*
X139904819Y-89226190D02*
X139904819Y-89321428D01*
X139904819Y-89321428D02*
X139857200Y-89416666D01*
X139857200Y-89416666D02*
X139809580Y-89464285D01*
X139809580Y-89464285D02*
X139714342Y-89511904D01*
X139714342Y-89511904D02*
X139523866Y-89559523D01*
X139523866Y-89559523D02*
X139285771Y-89559523D01*
X139285771Y-89559523D02*
X139095295Y-89511904D01*
X139095295Y-89511904D02*
X139000057Y-89464285D01*
X139000057Y-89464285D02*
X138952438Y-89416666D01*
X138952438Y-89416666D02*
X138904819Y-89321428D01*
X139654819Y-87233333D02*
X140369104Y-87233333D01*
X140369104Y-87233333D02*
X140511961Y-87280952D01*
X140511961Y-87280952D02*
X140607200Y-87376190D01*
X140607200Y-87376190D02*
X140654819Y-87519047D01*
X140654819Y-87519047D02*
X140654819Y-87614285D01*
X139750057Y-86804761D02*
X139702438Y-86757142D01*
X139702438Y-86757142D02*
X139654819Y-86661904D01*
X139654819Y-86661904D02*
X139654819Y-86423809D01*
X139654819Y-86423809D02*
X139702438Y-86328571D01*
X139702438Y-86328571D02*
X139750057Y-86280952D01*
X139750057Y-86280952D02*
X139845295Y-86233333D01*
X139845295Y-86233333D02*
X139940533Y-86233333D01*
X139940533Y-86233333D02*
X140083390Y-86280952D01*
X140083390Y-86280952D02*
X140654819Y-86852380D01*
X140654819Y-86852380D02*
X140654819Y-86233333D01*
X116566666Y-143254819D02*
X116566666Y-143969104D01*
X116566666Y-143969104D02*
X116519047Y-144111961D01*
X116519047Y-144111961D02*
X116423809Y-144207200D01*
X116423809Y-144207200D02*
X116280952Y-144254819D01*
X116280952Y-144254819D02*
X116185714Y-144254819D01*
X116947619Y-143254819D02*
X117566666Y-143254819D01*
X117566666Y-143254819D02*
X117233333Y-143635771D01*
X117233333Y-143635771D02*
X117376190Y-143635771D01*
X117376190Y-143635771D02*
X117471428Y-143683390D01*
X117471428Y-143683390D02*
X117519047Y-143731009D01*
X117519047Y-143731009D02*
X117566666Y-143826247D01*
X117566666Y-143826247D02*
X117566666Y-144064342D01*
X117566666Y-144064342D02*
X117519047Y-144159580D01*
X117519047Y-144159580D02*
X117471428Y-144207200D01*
X117471428Y-144207200D02*
X117376190Y-144254819D01*
X117376190Y-144254819D02*
X117090476Y-144254819D01*
X117090476Y-144254819D02*
X116995238Y-144207200D01*
X116995238Y-144207200D02*
X116947619Y-144159580D01*
X126957142Y-124254819D02*
X126623809Y-123778628D01*
X126385714Y-124254819D02*
X126385714Y-123254819D01*
X126385714Y-123254819D02*
X126766666Y-123254819D01*
X126766666Y-123254819D02*
X126861904Y-123302438D01*
X126861904Y-123302438D02*
X126909523Y-123350057D01*
X126909523Y-123350057D02*
X126957142Y-123445295D01*
X126957142Y-123445295D02*
X126957142Y-123588152D01*
X126957142Y-123588152D02*
X126909523Y-123683390D01*
X126909523Y-123683390D02*
X126861904Y-123731009D01*
X126861904Y-123731009D02*
X126766666Y-123778628D01*
X126766666Y-123778628D02*
X126385714Y-123778628D01*
X127338095Y-123350057D02*
X127385714Y-123302438D01*
X127385714Y-123302438D02*
X127480952Y-123254819D01*
X127480952Y-123254819D02*
X127719047Y-123254819D01*
X127719047Y-123254819D02*
X127814285Y-123302438D01*
X127814285Y-123302438D02*
X127861904Y-123350057D01*
X127861904Y-123350057D02*
X127909523Y-123445295D01*
X127909523Y-123445295D02*
X127909523Y-123540533D01*
X127909523Y-123540533D02*
X127861904Y-123683390D01*
X127861904Y-123683390D02*
X127290476Y-124254819D01*
X127290476Y-124254819D02*
X127909523Y-124254819D01*
X128861904Y-124254819D02*
X128290476Y-124254819D01*
X128576190Y-124254819D02*
X128576190Y-123254819D01*
X128576190Y-123254819D02*
X128480952Y-123397676D01*
X128480952Y-123397676D02*
X128385714Y-123492914D01*
X128385714Y-123492914D02*
X128290476Y-123540533D01*
X126238095Y-70094819D02*
X126238095Y-70904342D01*
X126238095Y-70904342D02*
X126285714Y-70999580D01*
X126285714Y-70999580D02*
X126333333Y-71047200D01*
X126333333Y-71047200D02*
X126428571Y-71094819D01*
X126428571Y-71094819D02*
X126619047Y-71094819D01*
X126619047Y-71094819D02*
X126714285Y-71047200D01*
X126714285Y-71047200D02*
X126761904Y-70999580D01*
X126761904Y-70999580D02*
X126809523Y-70904342D01*
X126809523Y-70904342D02*
X126809523Y-70094819D01*
X127809523Y-71094819D02*
X127238095Y-71094819D01*
X127523809Y-71094819D02*
X127523809Y-70094819D01*
X127523809Y-70094819D02*
X127428571Y-70237676D01*
X127428571Y-70237676D02*
X127333333Y-70332914D01*
X127333333Y-70332914D02*
X127238095Y-70380533D01*
X120657142Y-81859580D02*
X120609523Y-81907200D01*
X120609523Y-81907200D02*
X120466666Y-81954819D01*
X120466666Y-81954819D02*
X120371428Y-81954819D01*
X120371428Y-81954819D02*
X120228571Y-81907200D01*
X120228571Y-81907200D02*
X120133333Y-81811961D01*
X120133333Y-81811961D02*
X120085714Y-81716723D01*
X120085714Y-81716723D02*
X120038095Y-81526247D01*
X120038095Y-81526247D02*
X120038095Y-81383390D01*
X120038095Y-81383390D02*
X120085714Y-81192914D01*
X120085714Y-81192914D02*
X120133333Y-81097676D01*
X120133333Y-81097676D02*
X120228571Y-81002438D01*
X120228571Y-81002438D02*
X120371428Y-80954819D01*
X120371428Y-80954819D02*
X120466666Y-80954819D01*
X120466666Y-80954819D02*
X120609523Y-81002438D01*
X120609523Y-81002438D02*
X120657142Y-81050057D01*
X121609523Y-81954819D02*
X121038095Y-81954819D01*
X121323809Y-81954819D02*
X121323809Y-80954819D01*
X121323809Y-80954819D02*
X121228571Y-81097676D01*
X121228571Y-81097676D02*
X121133333Y-81192914D01*
X121133333Y-81192914D02*
X121038095Y-81240533D01*
X122228571Y-80954819D02*
X122323809Y-80954819D01*
X122323809Y-80954819D02*
X122419047Y-81002438D01*
X122419047Y-81002438D02*
X122466666Y-81050057D01*
X122466666Y-81050057D02*
X122514285Y-81145295D01*
X122514285Y-81145295D02*
X122561904Y-81335771D01*
X122561904Y-81335771D02*
X122561904Y-81573866D01*
X122561904Y-81573866D02*
X122514285Y-81764342D01*
X122514285Y-81764342D02*
X122466666Y-81859580D01*
X122466666Y-81859580D02*
X122419047Y-81907200D01*
X122419047Y-81907200D02*
X122323809Y-81954819D01*
X122323809Y-81954819D02*
X122228571Y-81954819D01*
X122228571Y-81954819D02*
X122133333Y-81907200D01*
X122133333Y-81907200D02*
X122085714Y-81859580D01*
X122085714Y-81859580D02*
X122038095Y-81764342D01*
X122038095Y-81764342D02*
X121990476Y-81573866D01*
X121990476Y-81573866D02*
X121990476Y-81335771D01*
X121990476Y-81335771D02*
X122038095Y-81145295D01*
X122038095Y-81145295D02*
X122085714Y-81050057D01*
X122085714Y-81050057D02*
X122133333Y-81002438D01*
X122133333Y-81002438D02*
X122228571Y-80954819D01*
X114759580Y-85466666D02*
X114807200Y-85514285D01*
X114807200Y-85514285D02*
X114854819Y-85657142D01*
X114854819Y-85657142D02*
X114854819Y-85752380D01*
X114854819Y-85752380D02*
X114807200Y-85895237D01*
X114807200Y-85895237D02*
X114711961Y-85990475D01*
X114711961Y-85990475D02*
X114616723Y-86038094D01*
X114616723Y-86038094D02*
X114426247Y-86085713D01*
X114426247Y-86085713D02*
X114283390Y-86085713D01*
X114283390Y-86085713D02*
X114092914Y-86038094D01*
X114092914Y-86038094D02*
X113997676Y-85990475D01*
X113997676Y-85990475D02*
X113902438Y-85895237D01*
X113902438Y-85895237D02*
X113854819Y-85752380D01*
X113854819Y-85752380D02*
X113854819Y-85657142D01*
X113854819Y-85657142D02*
X113902438Y-85514285D01*
X113902438Y-85514285D02*
X113950057Y-85466666D01*
X113854819Y-85133332D02*
X113854819Y-84466666D01*
X113854819Y-84466666D02*
X114854819Y-84895237D01*
X140438095Y-133954819D02*
X141009523Y-133954819D01*
X140723809Y-134954819D02*
X140723809Y-133954819D01*
X141342857Y-134954819D02*
X141342857Y-133954819D01*
X141342857Y-133954819D02*
X141723809Y-133954819D01*
X141723809Y-133954819D02*
X141819047Y-134002438D01*
X141819047Y-134002438D02*
X141866666Y-134050057D01*
X141866666Y-134050057D02*
X141914285Y-134145295D01*
X141914285Y-134145295D02*
X141914285Y-134288152D01*
X141914285Y-134288152D02*
X141866666Y-134383390D01*
X141866666Y-134383390D02*
X141819047Y-134431009D01*
X141819047Y-134431009D02*
X141723809Y-134478628D01*
X141723809Y-134478628D02*
X141342857Y-134478628D01*
X142247619Y-133954819D02*
X142866666Y-133954819D01*
X142866666Y-133954819D02*
X142533333Y-134335771D01*
X142533333Y-134335771D02*
X142676190Y-134335771D01*
X142676190Y-134335771D02*
X142771428Y-134383390D01*
X142771428Y-134383390D02*
X142819047Y-134431009D01*
X142819047Y-134431009D02*
X142866666Y-134526247D01*
X142866666Y-134526247D02*
X142866666Y-134764342D01*
X142866666Y-134764342D02*
X142819047Y-134859580D01*
X142819047Y-134859580D02*
X142771428Y-134907200D01*
X142771428Y-134907200D02*
X142676190Y-134954819D01*
X142676190Y-134954819D02*
X142390476Y-134954819D01*
X142390476Y-134954819D02*
X142295238Y-134907200D01*
X142295238Y-134907200D02*
X142247619Y-134859580D01*
X130359819Y-60979404D02*
X131169342Y-60979404D01*
X131169342Y-60979404D02*
X131264580Y-60931785D01*
X131264580Y-60931785D02*
X131312200Y-60884166D01*
X131312200Y-60884166D02*
X131359819Y-60788928D01*
X131359819Y-60788928D02*
X131359819Y-60598452D01*
X131359819Y-60598452D02*
X131312200Y-60503214D01*
X131312200Y-60503214D02*
X131264580Y-60455595D01*
X131264580Y-60455595D02*
X131169342Y-60407976D01*
X131169342Y-60407976D02*
X130359819Y-60407976D01*
X130788390Y-59788928D02*
X130740771Y-59884166D01*
X130740771Y-59884166D02*
X130693152Y-59931785D01*
X130693152Y-59931785D02*
X130597914Y-59979404D01*
X130597914Y-59979404D02*
X130550295Y-59979404D01*
X130550295Y-59979404D02*
X130455057Y-59931785D01*
X130455057Y-59931785D02*
X130407438Y-59884166D01*
X130407438Y-59884166D02*
X130359819Y-59788928D01*
X130359819Y-59788928D02*
X130359819Y-59598452D01*
X130359819Y-59598452D02*
X130407438Y-59503214D01*
X130407438Y-59503214D02*
X130455057Y-59455595D01*
X130455057Y-59455595D02*
X130550295Y-59407976D01*
X130550295Y-59407976D02*
X130597914Y-59407976D01*
X130597914Y-59407976D02*
X130693152Y-59455595D01*
X130693152Y-59455595D02*
X130740771Y-59503214D01*
X130740771Y-59503214D02*
X130788390Y-59598452D01*
X130788390Y-59598452D02*
X130788390Y-59788928D01*
X130788390Y-59788928D02*
X130836009Y-59884166D01*
X130836009Y-59884166D02*
X130883628Y-59931785D01*
X130883628Y-59931785D02*
X130978866Y-59979404D01*
X130978866Y-59979404D02*
X131169342Y-59979404D01*
X131169342Y-59979404D02*
X131264580Y-59931785D01*
X131264580Y-59931785D02*
X131312200Y-59884166D01*
X131312200Y-59884166D02*
X131359819Y-59788928D01*
X131359819Y-59788928D02*
X131359819Y-59598452D01*
X131359819Y-59598452D02*
X131312200Y-59503214D01*
X131312200Y-59503214D02*
X131264580Y-59455595D01*
X131264580Y-59455595D02*
X131169342Y-59407976D01*
X131169342Y-59407976D02*
X130978866Y-59407976D01*
X130978866Y-59407976D02*
X130883628Y-59455595D01*
X130883628Y-59455595D02*
X130836009Y-59503214D01*
X130836009Y-59503214D02*
X130788390Y-59598452D01*
X107879819Y-70549404D02*
X108689342Y-70549404D01*
X108689342Y-70549404D02*
X108784580Y-70501785D01*
X108784580Y-70501785D02*
X108832200Y-70454166D01*
X108832200Y-70454166D02*
X108879819Y-70358928D01*
X108879819Y-70358928D02*
X108879819Y-70168452D01*
X108879819Y-70168452D02*
X108832200Y-70073214D01*
X108832200Y-70073214D02*
X108784580Y-70025595D01*
X108784580Y-70025595D02*
X108689342Y-69977976D01*
X108689342Y-69977976D02*
X107879819Y-69977976D01*
X108213152Y-69073214D02*
X108879819Y-69073214D01*
X107832200Y-69311309D02*
X108546485Y-69549404D01*
X108546485Y-69549404D02*
X108546485Y-68930357D01*
X107633333Y-81359580D02*
X107585714Y-81407200D01*
X107585714Y-81407200D02*
X107442857Y-81454819D01*
X107442857Y-81454819D02*
X107347619Y-81454819D01*
X107347619Y-81454819D02*
X107204762Y-81407200D01*
X107204762Y-81407200D02*
X107109524Y-81311961D01*
X107109524Y-81311961D02*
X107061905Y-81216723D01*
X107061905Y-81216723D02*
X107014286Y-81026247D01*
X107014286Y-81026247D02*
X107014286Y-80883390D01*
X107014286Y-80883390D02*
X107061905Y-80692914D01*
X107061905Y-80692914D02*
X107109524Y-80597676D01*
X107109524Y-80597676D02*
X107204762Y-80502438D01*
X107204762Y-80502438D02*
X107347619Y-80454819D01*
X107347619Y-80454819D02*
X107442857Y-80454819D01*
X107442857Y-80454819D02*
X107585714Y-80502438D01*
X107585714Y-80502438D02*
X107633333Y-80550057D01*
X108014286Y-80550057D02*
X108061905Y-80502438D01*
X108061905Y-80502438D02*
X108157143Y-80454819D01*
X108157143Y-80454819D02*
X108395238Y-80454819D01*
X108395238Y-80454819D02*
X108490476Y-80502438D01*
X108490476Y-80502438D02*
X108538095Y-80550057D01*
X108538095Y-80550057D02*
X108585714Y-80645295D01*
X108585714Y-80645295D02*
X108585714Y-80740533D01*
X108585714Y-80740533D02*
X108538095Y-80883390D01*
X108538095Y-80883390D02*
X107966667Y-81454819D01*
X107966667Y-81454819D02*
X108585714Y-81454819D01*
X137957142Y-70759580D02*
X137909523Y-70807200D01*
X137909523Y-70807200D02*
X137766666Y-70854819D01*
X137766666Y-70854819D02*
X137671428Y-70854819D01*
X137671428Y-70854819D02*
X137528571Y-70807200D01*
X137528571Y-70807200D02*
X137433333Y-70711961D01*
X137433333Y-70711961D02*
X137385714Y-70616723D01*
X137385714Y-70616723D02*
X137338095Y-70426247D01*
X137338095Y-70426247D02*
X137338095Y-70283390D01*
X137338095Y-70283390D02*
X137385714Y-70092914D01*
X137385714Y-70092914D02*
X137433333Y-69997676D01*
X137433333Y-69997676D02*
X137528571Y-69902438D01*
X137528571Y-69902438D02*
X137671428Y-69854819D01*
X137671428Y-69854819D02*
X137766666Y-69854819D01*
X137766666Y-69854819D02*
X137909523Y-69902438D01*
X137909523Y-69902438D02*
X137957142Y-69950057D01*
X138290476Y-69854819D02*
X138909523Y-69854819D01*
X138909523Y-69854819D02*
X138576190Y-70235771D01*
X138576190Y-70235771D02*
X138719047Y-70235771D01*
X138719047Y-70235771D02*
X138814285Y-70283390D01*
X138814285Y-70283390D02*
X138861904Y-70331009D01*
X138861904Y-70331009D02*
X138909523Y-70426247D01*
X138909523Y-70426247D02*
X138909523Y-70664342D01*
X138909523Y-70664342D02*
X138861904Y-70759580D01*
X138861904Y-70759580D02*
X138814285Y-70807200D01*
X138814285Y-70807200D02*
X138719047Y-70854819D01*
X138719047Y-70854819D02*
X138433333Y-70854819D01*
X138433333Y-70854819D02*
X138338095Y-70807200D01*
X138338095Y-70807200D02*
X138290476Y-70759580D01*
X139480952Y-70283390D02*
X139385714Y-70235771D01*
X139385714Y-70235771D02*
X139338095Y-70188152D01*
X139338095Y-70188152D02*
X139290476Y-70092914D01*
X139290476Y-70092914D02*
X139290476Y-70045295D01*
X139290476Y-70045295D02*
X139338095Y-69950057D01*
X139338095Y-69950057D02*
X139385714Y-69902438D01*
X139385714Y-69902438D02*
X139480952Y-69854819D01*
X139480952Y-69854819D02*
X139671428Y-69854819D01*
X139671428Y-69854819D02*
X139766666Y-69902438D01*
X139766666Y-69902438D02*
X139814285Y-69950057D01*
X139814285Y-69950057D02*
X139861904Y-70045295D01*
X139861904Y-70045295D02*
X139861904Y-70092914D01*
X139861904Y-70092914D02*
X139814285Y-70188152D01*
X139814285Y-70188152D02*
X139766666Y-70235771D01*
X139766666Y-70235771D02*
X139671428Y-70283390D01*
X139671428Y-70283390D02*
X139480952Y-70283390D01*
X139480952Y-70283390D02*
X139385714Y-70331009D01*
X139385714Y-70331009D02*
X139338095Y-70378628D01*
X139338095Y-70378628D02*
X139290476Y-70473866D01*
X139290476Y-70473866D02*
X139290476Y-70664342D01*
X139290476Y-70664342D02*
X139338095Y-70759580D01*
X139338095Y-70759580D02*
X139385714Y-70807200D01*
X139385714Y-70807200D02*
X139480952Y-70854819D01*
X139480952Y-70854819D02*
X139671428Y-70854819D01*
X139671428Y-70854819D02*
X139766666Y-70807200D01*
X139766666Y-70807200D02*
X139814285Y-70759580D01*
X139814285Y-70759580D02*
X139861904Y-70664342D01*
X139861904Y-70664342D02*
X139861904Y-70473866D01*
X139861904Y-70473866D02*
X139814285Y-70378628D01*
X139814285Y-70378628D02*
X139766666Y-70331009D01*
X139766666Y-70331009D02*
X139671428Y-70283390D01*
X142309580Y-139142857D02*
X142357200Y-139190476D01*
X142357200Y-139190476D02*
X142404819Y-139333333D01*
X142404819Y-139333333D02*
X142404819Y-139428571D01*
X142404819Y-139428571D02*
X142357200Y-139571428D01*
X142357200Y-139571428D02*
X142261961Y-139666666D01*
X142261961Y-139666666D02*
X142166723Y-139714285D01*
X142166723Y-139714285D02*
X141976247Y-139761904D01*
X141976247Y-139761904D02*
X141833390Y-139761904D01*
X141833390Y-139761904D02*
X141642914Y-139714285D01*
X141642914Y-139714285D02*
X141547676Y-139666666D01*
X141547676Y-139666666D02*
X141452438Y-139571428D01*
X141452438Y-139571428D02*
X141404819Y-139428571D01*
X141404819Y-139428571D02*
X141404819Y-139333333D01*
X141404819Y-139333333D02*
X141452438Y-139190476D01*
X141452438Y-139190476D02*
X141500057Y-139142857D01*
X141500057Y-138761904D02*
X141452438Y-138714285D01*
X141452438Y-138714285D02*
X141404819Y-138619047D01*
X141404819Y-138619047D02*
X141404819Y-138380952D01*
X141404819Y-138380952D02*
X141452438Y-138285714D01*
X141452438Y-138285714D02*
X141500057Y-138238095D01*
X141500057Y-138238095D02*
X141595295Y-138190476D01*
X141595295Y-138190476D02*
X141690533Y-138190476D01*
X141690533Y-138190476D02*
X141833390Y-138238095D01*
X141833390Y-138238095D02*
X142404819Y-138809523D01*
X142404819Y-138809523D02*
X142404819Y-138190476D01*
X141404819Y-137857142D02*
X141404819Y-137238095D01*
X141404819Y-137238095D02*
X141785771Y-137571428D01*
X141785771Y-137571428D02*
X141785771Y-137428571D01*
X141785771Y-137428571D02*
X141833390Y-137333333D01*
X141833390Y-137333333D02*
X141881009Y-137285714D01*
X141881009Y-137285714D02*
X141976247Y-137238095D01*
X141976247Y-137238095D02*
X142214342Y-137238095D01*
X142214342Y-137238095D02*
X142309580Y-137285714D01*
X142309580Y-137285714D02*
X142357200Y-137333333D01*
X142357200Y-137333333D02*
X142404819Y-137428571D01*
X142404819Y-137428571D02*
X142404819Y-137714285D01*
X142404819Y-137714285D02*
X142357200Y-137809523D01*
X142357200Y-137809523D02*
X142309580Y-137857142D01*
X106723809Y-73178628D02*
X106723809Y-73654819D01*
X106390476Y-72654819D02*
X106723809Y-73178628D01*
X106723809Y-73178628D02*
X107057142Y-72654819D01*
X107914285Y-73654819D02*
X107342857Y-73654819D01*
X107628571Y-73654819D02*
X107628571Y-72654819D01*
X107628571Y-72654819D02*
X107533333Y-72797676D01*
X107533333Y-72797676D02*
X107438095Y-72892914D01*
X107438095Y-72892914D02*
X107342857Y-72940533D01*
X130296666Y-84854819D02*
X130296666Y-85569104D01*
X130296666Y-85569104D02*
X130249047Y-85711961D01*
X130249047Y-85711961D02*
X130153809Y-85807200D01*
X130153809Y-85807200D02*
X130010952Y-85854819D01*
X130010952Y-85854819D02*
X129915714Y-85854819D01*
X130772857Y-85854819D02*
X130772857Y-84854819D01*
X130772857Y-84854819D02*
X131153809Y-84854819D01*
X131153809Y-84854819D02*
X131249047Y-84902438D01*
X131249047Y-84902438D02*
X131296666Y-84950057D01*
X131296666Y-84950057D02*
X131344285Y-85045295D01*
X131344285Y-85045295D02*
X131344285Y-85188152D01*
X131344285Y-85188152D02*
X131296666Y-85283390D01*
X131296666Y-85283390D02*
X131249047Y-85331009D01*
X131249047Y-85331009D02*
X131153809Y-85378628D01*
X131153809Y-85378628D02*
X130772857Y-85378628D01*
X132296666Y-85854819D02*
X131725238Y-85854819D01*
X132010952Y-85854819D02*
X132010952Y-84854819D01*
X132010952Y-84854819D02*
X131915714Y-84997676D01*
X131915714Y-84997676D02*
X131820476Y-85092914D01*
X131820476Y-85092914D02*
X131725238Y-85140533D01*
X134759580Y-94042857D02*
X134807200Y-94090476D01*
X134807200Y-94090476D02*
X134854819Y-94233333D01*
X134854819Y-94233333D02*
X134854819Y-94328571D01*
X134854819Y-94328571D02*
X134807200Y-94471428D01*
X134807200Y-94471428D02*
X134711961Y-94566666D01*
X134711961Y-94566666D02*
X134616723Y-94614285D01*
X134616723Y-94614285D02*
X134426247Y-94661904D01*
X134426247Y-94661904D02*
X134283390Y-94661904D01*
X134283390Y-94661904D02*
X134092914Y-94614285D01*
X134092914Y-94614285D02*
X133997676Y-94566666D01*
X133997676Y-94566666D02*
X133902438Y-94471428D01*
X133902438Y-94471428D02*
X133854819Y-94328571D01*
X133854819Y-94328571D02*
X133854819Y-94233333D01*
X133854819Y-94233333D02*
X133902438Y-94090476D01*
X133902438Y-94090476D02*
X133950057Y-94042857D01*
X133950057Y-93661904D02*
X133902438Y-93614285D01*
X133902438Y-93614285D02*
X133854819Y-93519047D01*
X133854819Y-93519047D02*
X133854819Y-93280952D01*
X133854819Y-93280952D02*
X133902438Y-93185714D01*
X133902438Y-93185714D02*
X133950057Y-93138095D01*
X133950057Y-93138095D02*
X134045295Y-93090476D01*
X134045295Y-93090476D02*
X134140533Y-93090476D01*
X134140533Y-93090476D02*
X134283390Y-93138095D01*
X134283390Y-93138095D02*
X134854819Y-93709523D01*
X134854819Y-93709523D02*
X134854819Y-93090476D01*
X133854819Y-92185714D02*
X133854819Y-92661904D01*
X133854819Y-92661904D02*
X134331009Y-92709523D01*
X134331009Y-92709523D02*
X134283390Y-92661904D01*
X134283390Y-92661904D02*
X134235771Y-92566666D01*
X134235771Y-92566666D02*
X134235771Y-92328571D01*
X134235771Y-92328571D02*
X134283390Y-92233333D01*
X134283390Y-92233333D02*
X134331009Y-92185714D01*
X134331009Y-92185714D02*
X134426247Y-92138095D01*
X134426247Y-92138095D02*
X134664342Y-92138095D01*
X134664342Y-92138095D02*
X134759580Y-92185714D01*
X134759580Y-92185714D02*
X134807200Y-92233333D01*
X134807200Y-92233333D02*
X134854819Y-92328571D01*
X134854819Y-92328571D02*
X134854819Y-92566666D01*
X134854819Y-92566666D02*
X134807200Y-92661904D01*
X134807200Y-92661904D02*
X134759580Y-92709523D01*
X135857142Y-103354819D02*
X135523809Y-102878628D01*
X135285714Y-103354819D02*
X135285714Y-102354819D01*
X135285714Y-102354819D02*
X135666666Y-102354819D01*
X135666666Y-102354819D02*
X135761904Y-102402438D01*
X135761904Y-102402438D02*
X135809523Y-102450057D01*
X135809523Y-102450057D02*
X135857142Y-102545295D01*
X135857142Y-102545295D02*
X135857142Y-102688152D01*
X135857142Y-102688152D02*
X135809523Y-102783390D01*
X135809523Y-102783390D02*
X135761904Y-102831009D01*
X135761904Y-102831009D02*
X135666666Y-102878628D01*
X135666666Y-102878628D02*
X135285714Y-102878628D01*
X136809523Y-103354819D02*
X136238095Y-103354819D01*
X136523809Y-103354819D02*
X136523809Y-102354819D01*
X136523809Y-102354819D02*
X136428571Y-102497676D01*
X136428571Y-102497676D02*
X136333333Y-102592914D01*
X136333333Y-102592914D02*
X136238095Y-102640533D01*
X137666666Y-102354819D02*
X137476190Y-102354819D01*
X137476190Y-102354819D02*
X137380952Y-102402438D01*
X137380952Y-102402438D02*
X137333333Y-102450057D01*
X137333333Y-102450057D02*
X137238095Y-102592914D01*
X137238095Y-102592914D02*
X137190476Y-102783390D01*
X137190476Y-102783390D02*
X137190476Y-103164342D01*
X137190476Y-103164342D02*
X137238095Y-103259580D01*
X137238095Y-103259580D02*
X137285714Y-103307200D01*
X137285714Y-103307200D02*
X137380952Y-103354819D01*
X137380952Y-103354819D02*
X137571428Y-103354819D01*
X137571428Y-103354819D02*
X137666666Y-103307200D01*
X137666666Y-103307200D02*
X137714285Y-103259580D01*
X137714285Y-103259580D02*
X137761904Y-103164342D01*
X137761904Y-103164342D02*
X137761904Y-102926247D01*
X137761904Y-102926247D02*
X137714285Y-102831009D01*
X137714285Y-102831009D02*
X137666666Y-102783390D01*
X137666666Y-102783390D02*
X137571428Y-102735771D01*
X137571428Y-102735771D02*
X137380952Y-102735771D01*
X137380952Y-102735771D02*
X137285714Y-102783390D01*
X137285714Y-102783390D02*
X137238095Y-102831009D01*
X137238095Y-102831009D02*
X137190476Y-102926247D01*
X113759580Y-69242857D02*
X113807200Y-69290476D01*
X113807200Y-69290476D02*
X113854819Y-69433333D01*
X113854819Y-69433333D02*
X113854819Y-69528571D01*
X113854819Y-69528571D02*
X113807200Y-69671428D01*
X113807200Y-69671428D02*
X113711961Y-69766666D01*
X113711961Y-69766666D02*
X113616723Y-69814285D01*
X113616723Y-69814285D02*
X113426247Y-69861904D01*
X113426247Y-69861904D02*
X113283390Y-69861904D01*
X113283390Y-69861904D02*
X113092914Y-69814285D01*
X113092914Y-69814285D02*
X112997676Y-69766666D01*
X112997676Y-69766666D02*
X112902438Y-69671428D01*
X112902438Y-69671428D02*
X112854819Y-69528571D01*
X112854819Y-69528571D02*
X112854819Y-69433333D01*
X112854819Y-69433333D02*
X112902438Y-69290476D01*
X112902438Y-69290476D02*
X112950057Y-69242857D01*
X113854819Y-68290476D02*
X113854819Y-68861904D01*
X113854819Y-68576190D02*
X112854819Y-68576190D01*
X112854819Y-68576190D02*
X112997676Y-68671428D01*
X112997676Y-68671428D02*
X113092914Y-68766666D01*
X113092914Y-68766666D02*
X113140533Y-68861904D01*
X113854819Y-67814285D02*
X113854819Y-67623809D01*
X113854819Y-67623809D02*
X113807200Y-67528571D01*
X113807200Y-67528571D02*
X113759580Y-67480952D01*
X113759580Y-67480952D02*
X113616723Y-67385714D01*
X113616723Y-67385714D02*
X113426247Y-67338095D01*
X113426247Y-67338095D02*
X113045295Y-67338095D01*
X113045295Y-67338095D02*
X112950057Y-67385714D01*
X112950057Y-67385714D02*
X112902438Y-67433333D01*
X112902438Y-67433333D02*
X112854819Y-67528571D01*
X112854819Y-67528571D02*
X112854819Y-67719047D01*
X112854819Y-67719047D02*
X112902438Y-67814285D01*
X112902438Y-67814285D02*
X112950057Y-67861904D01*
X112950057Y-67861904D02*
X113045295Y-67909523D01*
X113045295Y-67909523D02*
X113283390Y-67909523D01*
X113283390Y-67909523D02*
X113378628Y-67861904D01*
X113378628Y-67861904D02*
X113426247Y-67814285D01*
X113426247Y-67814285D02*
X113473866Y-67719047D01*
X113473866Y-67719047D02*
X113473866Y-67528571D01*
X113473866Y-67528571D02*
X113426247Y-67433333D01*
X113426247Y-67433333D02*
X113378628Y-67385714D01*
X113378628Y-67385714D02*
X113283390Y-67338095D01*
X134214819Y-99351904D02*
X135024342Y-99351904D01*
X135024342Y-99351904D02*
X135119580Y-99304285D01*
X135119580Y-99304285D02*
X135167200Y-99256666D01*
X135167200Y-99256666D02*
X135214819Y-99161428D01*
X135214819Y-99161428D02*
X135214819Y-98970952D01*
X135214819Y-98970952D02*
X135167200Y-98875714D01*
X135167200Y-98875714D02*
X135119580Y-98828095D01*
X135119580Y-98828095D02*
X135024342Y-98780476D01*
X135024342Y-98780476D02*
X134214819Y-98780476D01*
X134214819Y-97875714D02*
X134214819Y-98066190D01*
X134214819Y-98066190D02*
X134262438Y-98161428D01*
X134262438Y-98161428D02*
X134310057Y-98209047D01*
X134310057Y-98209047D02*
X134452914Y-98304285D01*
X134452914Y-98304285D02*
X134643390Y-98351904D01*
X134643390Y-98351904D02*
X135024342Y-98351904D01*
X135024342Y-98351904D02*
X135119580Y-98304285D01*
X135119580Y-98304285D02*
X135167200Y-98256666D01*
X135167200Y-98256666D02*
X135214819Y-98161428D01*
X135214819Y-98161428D02*
X135214819Y-97970952D01*
X135214819Y-97970952D02*
X135167200Y-97875714D01*
X135167200Y-97875714D02*
X135119580Y-97828095D01*
X135119580Y-97828095D02*
X135024342Y-97780476D01*
X135024342Y-97780476D02*
X134786247Y-97780476D01*
X134786247Y-97780476D02*
X134691009Y-97828095D01*
X134691009Y-97828095D02*
X134643390Y-97875714D01*
X134643390Y-97875714D02*
X134595771Y-97970952D01*
X134595771Y-97970952D02*
X134595771Y-98161428D01*
X134595771Y-98161428D02*
X134643390Y-98256666D01*
X134643390Y-98256666D02*
X134691009Y-98304285D01*
X134691009Y-98304285D02*
X134786247Y-98351904D01*
X133057142Y-106854819D02*
X132723809Y-106378628D01*
X132485714Y-106854819D02*
X132485714Y-105854819D01*
X132485714Y-105854819D02*
X132866666Y-105854819D01*
X132866666Y-105854819D02*
X132961904Y-105902438D01*
X132961904Y-105902438D02*
X133009523Y-105950057D01*
X133009523Y-105950057D02*
X133057142Y-106045295D01*
X133057142Y-106045295D02*
X133057142Y-106188152D01*
X133057142Y-106188152D02*
X133009523Y-106283390D01*
X133009523Y-106283390D02*
X132961904Y-106331009D01*
X132961904Y-106331009D02*
X132866666Y-106378628D01*
X132866666Y-106378628D02*
X132485714Y-106378628D01*
X134009523Y-106854819D02*
X133438095Y-106854819D01*
X133723809Y-106854819D02*
X133723809Y-105854819D01*
X133723809Y-105854819D02*
X133628571Y-105997676D01*
X133628571Y-105997676D02*
X133533333Y-106092914D01*
X133533333Y-106092914D02*
X133438095Y-106140533D01*
X134342857Y-105854819D02*
X135009523Y-105854819D01*
X135009523Y-105854819D02*
X134580952Y-106854819D01*
X132933333Y-81154819D02*
X132600000Y-80678628D01*
X132361905Y-81154819D02*
X132361905Y-80154819D01*
X132361905Y-80154819D02*
X132742857Y-80154819D01*
X132742857Y-80154819D02*
X132838095Y-80202438D01*
X132838095Y-80202438D02*
X132885714Y-80250057D01*
X132885714Y-80250057D02*
X132933333Y-80345295D01*
X132933333Y-80345295D02*
X132933333Y-80488152D01*
X132933333Y-80488152D02*
X132885714Y-80583390D01*
X132885714Y-80583390D02*
X132838095Y-80631009D01*
X132838095Y-80631009D02*
X132742857Y-80678628D01*
X132742857Y-80678628D02*
X132361905Y-80678628D01*
X133504762Y-80583390D02*
X133409524Y-80535771D01*
X133409524Y-80535771D02*
X133361905Y-80488152D01*
X133361905Y-80488152D02*
X133314286Y-80392914D01*
X133314286Y-80392914D02*
X133314286Y-80345295D01*
X133314286Y-80345295D02*
X133361905Y-80250057D01*
X133361905Y-80250057D02*
X133409524Y-80202438D01*
X133409524Y-80202438D02*
X133504762Y-80154819D01*
X133504762Y-80154819D02*
X133695238Y-80154819D01*
X133695238Y-80154819D02*
X133790476Y-80202438D01*
X133790476Y-80202438D02*
X133838095Y-80250057D01*
X133838095Y-80250057D02*
X133885714Y-80345295D01*
X133885714Y-80345295D02*
X133885714Y-80392914D01*
X133885714Y-80392914D02*
X133838095Y-80488152D01*
X133838095Y-80488152D02*
X133790476Y-80535771D01*
X133790476Y-80535771D02*
X133695238Y-80583390D01*
X133695238Y-80583390D02*
X133504762Y-80583390D01*
X133504762Y-80583390D02*
X133409524Y-80631009D01*
X133409524Y-80631009D02*
X133361905Y-80678628D01*
X133361905Y-80678628D02*
X133314286Y-80773866D01*
X133314286Y-80773866D02*
X133314286Y-80964342D01*
X133314286Y-80964342D02*
X133361905Y-81059580D01*
X133361905Y-81059580D02*
X133409524Y-81107200D01*
X133409524Y-81107200D02*
X133504762Y-81154819D01*
X133504762Y-81154819D02*
X133695238Y-81154819D01*
X133695238Y-81154819D02*
X133790476Y-81107200D01*
X133790476Y-81107200D02*
X133838095Y-81059580D01*
X133838095Y-81059580D02*
X133885714Y-80964342D01*
X133885714Y-80964342D02*
X133885714Y-80773866D01*
X133885714Y-80773866D02*
X133838095Y-80678628D01*
X133838095Y-80678628D02*
X133790476Y-80631009D01*
X133790476Y-80631009D02*
X133695238Y-80583390D01*
X110233333Y-77954819D02*
X109900000Y-77478628D01*
X109661905Y-77954819D02*
X109661905Y-76954819D01*
X109661905Y-76954819D02*
X110042857Y-76954819D01*
X110042857Y-76954819D02*
X110138095Y-77002438D01*
X110138095Y-77002438D02*
X110185714Y-77050057D01*
X110185714Y-77050057D02*
X110233333Y-77145295D01*
X110233333Y-77145295D02*
X110233333Y-77288152D01*
X110233333Y-77288152D02*
X110185714Y-77383390D01*
X110185714Y-77383390D02*
X110138095Y-77431009D01*
X110138095Y-77431009D02*
X110042857Y-77478628D01*
X110042857Y-77478628D02*
X109661905Y-77478628D01*
X110566667Y-76954819D02*
X111233333Y-76954819D01*
X111233333Y-76954819D02*
X110804762Y-77954819D01*
X143407200Y-94733332D02*
X143454819Y-94590475D01*
X143454819Y-94590475D02*
X143454819Y-94352380D01*
X143454819Y-94352380D02*
X143407200Y-94257142D01*
X143407200Y-94257142D02*
X143359580Y-94209523D01*
X143359580Y-94209523D02*
X143264342Y-94161904D01*
X143264342Y-94161904D02*
X143169104Y-94161904D01*
X143169104Y-94161904D02*
X143073866Y-94209523D01*
X143073866Y-94209523D02*
X143026247Y-94257142D01*
X143026247Y-94257142D02*
X142978628Y-94352380D01*
X142978628Y-94352380D02*
X142931009Y-94542856D01*
X142931009Y-94542856D02*
X142883390Y-94638094D01*
X142883390Y-94638094D02*
X142835771Y-94685713D01*
X142835771Y-94685713D02*
X142740533Y-94733332D01*
X142740533Y-94733332D02*
X142645295Y-94733332D01*
X142645295Y-94733332D02*
X142550057Y-94685713D01*
X142550057Y-94685713D02*
X142502438Y-94638094D01*
X142502438Y-94638094D02*
X142454819Y-94542856D01*
X142454819Y-94542856D02*
X142454819Y-94304761D01*
X142454819Y-94304761D02*
X142502438Y-94161904D01*
X142454819Y-93828570D02*
X143454819Y-93590475D01*
X143454819Y-93590475D02*
X142740533Y-93399999D01*
X142740533Y-93399999D02*
X143454819Y-93209523D01*
X143454819Y-93209523D02*
X142454819Y-92971428D01*
X143454819Y-92066666D02*
X143454819Y-92638094D01*
X143454819Y-92352380D02*
X142454819Y-92352380D01*
X142454819Y-92352380D02*
X142597676Y-92447618D01*
X142597676Y-92447618D02*
X142692914Y-92542856D01*
X142692914Y-92542856D02*
X142740533Y-92638094D01*
X133757142Y-72459580D02*
X133709523Y-72507200D01*
X133709523Y-72507200D02*
X133566666Y-72554819D01*
X133566666Y-72554819D02*
X133471428Y-72554819D01*
X133471428Y-72554819D02*
X133328571Y-72507200D01*
X133328571Y-72507200D02*
X133233333Y-72411961D01*
X133233333Y-72411961D02*
X133185714Y-72316723D01*
X133185714Y-72316723D02*
X133138095Y-72126247D01*
X133138095Y-72126247D02*
X133138095Y-71983390D01*
X133138095Y-71983390D02*
X133185714Y-71792914D01*
X133185714Y-71792914D02*
X133233333Y-71697676D01*
X133233333Y-71697676D02*
X133328571Y-71602438D01*
X133328571Y-71602438D02*
X133471428Y-71554819D01*
X133471428Y-71554819D02*
X133566666Y-71554819D01*
X133566666Y-71554819D02*
X133709523Y-71602438D01*
X133709523Y-71602438D02*
X133757142Y-71650057D01*
X134709523Y-72554819D02*
X134138095Y-72554819D01*
X134423809Y-72554819D02*
X134423809Y-71554819D01*
X134423809Y-71554819D02*
X134328571Y-71697676D01*
X134328571Y-71697676D02*
X134233333Y-71792914D01*
X134233333Y-71792914D02*
X134138095Y-71840533D01*
X135042857Y-71554819D02*
X135661904Y-71554819D01*
X135661904Y-71554819D02*
X135328571Y-71935771D01*
X135328571Y-71935771D02*
X135471428Y-71935771D01*
X135471428Y-71935771D02*
X135566666Y-71983390D01*
X135566666Y-71983390D02*
X135614285Y-72031009D01*
X135614285Y-72031009D02*
X135661904Y-72126247D01*
X135661904Y-72126247D02*
X135661904Y-72364342D01*
X135661904Y-72364342D02*
X135614285Y-72459580D01*
X135614285Y-72459580D02*
X135566666Y-72507200D01*
X135566666Y-72507200D02*
X135471428Y-72554819D01*
X135471428Y-72554819D02*
X135185714Y-72554819D01*
X135185714Y-72554819D02*
X135090476Y-72507200D01*
X135090476Y-72507200D02*
X135042857Y-72459580D01*
X136244580Y-62030357D02*
X136292200Y-62077976D01*
X136292200Y-62077976D02*
X136339819Y-62220833D01*
X136339819Y-62220833D02*
X136339819Y-62316071D01*
X136339819Y-62316071D02*
X136292200Y-62458928D01*
X136292200Y-62458928D02*
X136196961Y-62554166D01*
X136196961Y-62554166D02*
X136101723Y-62601785D01*
X136101723Y-62601785D02*
X135911247Y-62649404D01*
X135911247Y-62649404D02*
X135768390Y-62649404D01*
X135768390Y-62649404D02*
X135577914Y-62601785D01*
X135577914Y-62601785D02*
X135482676Y-62554166D01*
X135482676Y-62554166D02*
X135387438Y-62458928D01*
X135387438Y-62458928D02*
X135339819Y-62316071D01*
X135339819Y-62316071D02*
X135339819Y-62220833D01*
X135339819Y-62220833D02*
X135387438Y-62077976D01*
X135387438Y-62077976D02*
X135435057Y-62030357D01*
X135339819Y-61697023D02*
X135339819Y-61077976D01*
X135339819Y-61077976D02*
X135720771Y-61411309D01*
X135720771Y-61411309D02*
X135720771Y-61268452D01*
X135720771Y-61268452D02*
X135768390Y-61173214D01*
X135768390Y-61173214D02*
X135816009Y-61125595D01*
X135816009Y-61125595D02*
X135911247Y-61077976D01*
X135911247Y-61077976D02*
X136149342Y-61077976D01*
X136149342Y-61077976D02*
X136244580Y-61125595D01*
X136244580Y-61125595D02*
X136292200Y-61173214D01*
X136292200Y-61173214D02*
X136339819Y-61268452D01*
X136339819Y-61268452D02*
X136339819Y-61554166D01*
X136339819Y-61554166D02*
X136292200Y-61649404D01*
X136292200Y-61649404D02*
X136244580Y-61697023D01*
X135339819Y-60220833D02*
X135339819Y-60411309D01*
X135339819Y-60411309D02*
X135387438Y-60506547D01*
X135387438Y-60506547D02*
X135435057Y-60554166D01*
X135435057Y-60554166D02*
X135577914Y-60649404D01*
X135577914Y-60649404D02*
X135768390Y-60697023D01*
X135768390Y-60697023D02*
X136149342Y-60697023D01*
X136149342Y-60697023D02*
X136244580Y-60649404D01*
X136244580Y-60649404D02*
X136292200Y-60601785D01*
X136292200Y-60601785D02*
X136339819Y-60506547D01*
X136339819Y-60506547D02*
X136339819Y-60316071D01*
X136339819Y-60316071D02*
X136292200Y-60220833D01*
X136292200Y-60220833D02*
X136244580Y-60173214D01*
X136244580Y-60173214D02*
X136149342Y-60125595D01*
X136149342Y-60125595D02*
X135911247Y-60125595D01*
X135911247Y-60125595D02*
X135816009Y-60173214D01*
X135816009Y-60173214D02*
X135768390Y-60220833D01*
X135768390Y-60220833D02*
X135720771Y-60316071D01*
X135720771Y-60316071D02*
X135720771Y-60506547D01*
X135720771Y-60506547D02*
X135768390Y-60601785D01*
X135768390Y-60601785D02*
X135816009Y-60649404D01*
X135816009Y-60649404D02*
X135911247Y-60697023D01*
X137954580Y-62550357D02*
X138002200Y-62597976D01*
X138002200Y-62597976D02*
X138049819Y-62740833D01*
X138049819Y-62740833D02*
X138049819Y-62836071D01*
X138049819Y-62836071D02*
X138002200Y-62978928D01*
X138002200Y-62978928D02*
X137906961Y-63074166D01*
X137906961Y-63074166D02*
X137811723Y-63121785D01*
X137811723Y-63121785D02*
X137621247Y-63169404D01*
X137621247Y-63169404D02*
X137478390Y-63169404D01*
X137478390Y-63169404D02*
X137287914Y-63121785D01*
X137287914Y-63121785D02*
X137192676Y-63074166D01*
X137192676Y-63074166D02*
X137097438Y-62978928D01*
X137097438Y-62978928D02*
X137049819Y-62836071D01*
X137049819Y-62836071D02*
X137049819Y-62740833D01*
X137049819Y-62740833D02*
X137097438Y-62597976D01*
X137097438Y-62597976D02*
X137145057Y-62550357D01*
X137049819Y-62217023D02*
X137049819Y-61597976D01*
X137049819Y-61597976D02*
X137430771Y-61931309D01*
X137430771Y-61931309D02*
X137430771Y-61788452D01*
X137430771Y-61788452D02*
X137478390Y-61693214D01*
X137478390Y-61693214D02*
X137526009Y-61645595D01*
X137526009Y-61645595D02*
X137621247Y-61597976D01*
X137621247Y-61597976D02*
X137859342Y-61597976D01*
X137859342Y-61597976D02*
X137954580Y-61645595D01*
X137954580Y-61645595D02*
X138002200Y-61693214D01*
X138002200Y-61693214D02*
X138049819Y-61788452D01*
X138049819Y-61788452D02*
X138049819Y-62074166D01*
X138049819Y-62074166D02*
X138002200Y-62169404D01*
X138002200Y-62169404D02*
X137954580Y-62217023D01*
X137049819Y-61264642D02*
X137049819Y-60597976D01*
X137049819Y-60597976D02*
X138049819Y-61026547D01*
X122857142Y-65459580D02*
X122809523Y-65507200D01*
X122809523Y-65507200D02*
X122666666Y-65554819D01*
X122666666Y-65554819D02*
X122571428Y-65554819D01*
X122571428Y-65554819D02*
X122428571Y-65507200D01*
X122428571Y-65507200D02*
X122333333Y-65411961D01*
X122333333Y-65411961D02*
X122285714Y-65316723D01*
X122285714Y-65316723D02*
X122238095Y-65126247D01*
X122238095Y-65126247D02*
X122238095Y-64983390D01*
X122238095Y-64983390D02*
X122285714Y-64792914D01*
X122285714Y-64792914D02*
X122333333Y-64697676D01*
X122333333Y-64697676D02*
X122428571Y-64602438D01*
X122428571Y-64602438D02*
X122571428Y-64554819D01*
X122571428Y-64554819D02*
X122666666Y-64554819D01*
X122666666Y-64554819D02*
X122809523Y-64602438D01*
X122809523Y-64602438D02*
X122857142Y-64650057D01*
X123190476Y-64554819D02*
X123809523Y-64554819D01*
X123809523Y-64554819D02*
X123476190Y-64935771D01*
X123476190Y-64935771D02*
X123619047Y-64935771D01*
X123619047Y-64935771D02*
X123714285Y-64983390D01*
X123714285Y-64983390D02*
X123761904Y-65031009D01*
X123761904Y-65031009D02*
X123809523Y-65126247D01*
X123809523Y-65126247D02*
X123809523Y-65364342D01*
X123809523Y-65364342D02*
X123761904Y-65459580D01*
X123761904Y-65459580D02*
X123714285Y-65507200D01*
X123714285Y-65507200D02*
X123619047Y-65554819D01*
X123619047Y-65554819D02*
X123333333Y-65554819D01*
X123333333Y-65554819D02*
X123238095Y-65507200D01*
X123238095Y-65507200D02*
X123190476Y-65459580D01*
X124714285Y-64554819D02*
X124238095Y-64554819D01*
X124238095Y-64554819D02*
X124190476Y-65031009D01*
X124190476Y-65031009D02*
X124238095Y-64983390D01*
X124238095Y-64983390D02*
X124333333Y-64935771D01*
X124333333Y-64935771D02*
X124571428Y-64935771D01*
X124571428Y-64935771D02*
X124666666Y-64983390D01*
X124666666Y-64983390D02*
X124714285Y-65031009D01*
X124714285Y-65031009D02*
X124761904Y-65126247D01*
X124761904Y-65126247D02*
X124761904Y-65364342D01*
X124761904Y-65364342D02*
X124714285Y-65459580D01*
X124714285Y-65459580D02*
X124666666Y-65507200D01*
X124666666Y-65507200D02*
X124571428Y-65554819D01*
X124571428Y-65554819D02*
X124333333Y-65554819D01*
X124333333Y-65554819D02*
X124238095Y-65507200D01*
X124238095Y-65507200D02*
X124190476Y-65459580D01*
D12*
%TO.C,R4*%
X124246359Y-80120000D02*
X124553641Y-80120000D01*
X124246359Y-80880000D02*
X124553641Y-80880000D01*
%TO.C,J1*%
X105690000Y-110775000D02*
X105690000Y-115975000D01*
X106260000Y-110775000D02*
X105690000Y-110775000D01*
X106260000Y-115975000D02*
X105690000Y-115975000D01*
X108800000Y-110775000D02*
X107780000Y-110775000D01*
X108800000Y-115975000D02*
X107780000Y-115975000D01*
X111340000Y-110775000D02*
X110320000Y-110775000D01*
X111340000Y-115975000D02*
X110320000Y-115975000D01*
X113880000Y-110775000D02*
X112860000Y-110775000D01*
X113880000Y-115975000D02*
X112860000Y-115975000D01*
X116420000Y-110775000D02*
X115400000Y-110775000D01*
X116420000Y-115975000D02*
X115400000Y-115975000D01*
X117940000Y-109335000D02*
X117940000Y-110775000D01*
X118510000Y-110775000D02*
X117940000Y-110775000D01*
X118510000Y-110775000D02*
X118510000Y-115975000D01*
X118510000Y-115975000D02*
X117940000Y-115975000D01*
%TO.C,C39*%
X133990000Y-67359420D02*
X133990000Y-67640580D01*
X135010000Y-67359420D02*
X135010000Y-67640580D01*
%TO.C,R9*%
X135346359Y-77120000D02*
X135653641Y-77120000D01*
X135346359Y-77880000D02*
X135653641Y-77880000D01*
%TO.C,C15*%
X105740000Y-78192164D02*
X105740000Y-78407836D01*
X106460000Y-78192164D02*
X106460000Y-78407836D01*
%TO.C,C6*%
X110007836Y-79240000D02*
X109792164Y-79240000D01*
X110007836Y-79960000D02*
X109792164Y-79960000D01*
%TO.C,TP4*%
X136700000Y-87100000D02*
G75*
G02*
X134300000Y-87100000I-1200000J0D01*
G01*
X134300000Y-87100000D02*
G75*
G02*
X136700000Y-87100000I1200000J0D01*
G01*
%TO.C,R1*%
X115977500Y-68762742D02*
X115977500Y-69237258D01*
X117022500Y-68762742D02*
X117022500Y-69237258D01*
%TO.C,C30*%
X113965000Y-129138748D02*
X113965000Y-129661252D01*
X115435000Y-129138748D02*
X115435000Y-129661252D01*
%TO.C,R11*%
X136262742Y-107177500D02*
X136737258Y-107177500D01*
X136262742Y-108222500D02*
X136737258Y-108222500D01*
%TO.C,R14*%
X137477500Y-89737258D02*
X137477500Y-89262742D01*
X138522500Y-89737258D02*
X138522500Y-89262742D01*
%TO.C,R24*%
X131477500Y-68762742D02*
X131477500Y-69237258D01*
X132522500Y-68762742D02*
X132522500Y-69237258D01*
%TO.C,C4*%
X118540000Y-74007836D02*
X118540000Y-73792164D01*
X119260000Y-74007836D02*
X119260000Y-73792164D01*
%TO.C,R13*%
X139077500Y-93062742D02*
X139077500Y-93537258D01*
X140122500Y-93062742D02*
X140122500Y-93537258D01*
%TO.C,R15*%
X139962742Y-105377500D02*
X140437258Y-105377500D01*
X139962742Y-106422500D02*
X140437258Y-106422500D01*
%TO.C,TP1*%
X119800000Y-64600000D02*
G75*
G02*
X117400000Y-64600000I-1200000J0D01*
G01*
X117400000Y-64600000D02*
G75*
G02*
X119800000Y-64600000I1200000J0D01*
G01*
%TO.C,C11*%
X122092164Y-79040000D02*
X122307836Y-79040000D01*
X122092164Y-79760000D02*
X122307836Y-79760000D01*
%TO.C,C5*%
X114707836Y-73940000D02*
X114492164Y-73940000D01*
X114707836Y-74660000D02*
X114492164Y-74660000D01*
%TO.C,C26*%
X130640000Y-92611252D02*
X130640000Y-91188748D01*
X133360000Y-92611252D02*
X133360000Y-91188748D01*
%TO.C,C9*%
X119540000Y-83992164D02*
X119540000Y-84207836D01*
X120260000Y-83992164D02*
X120260000Y-84207836D01*
%TO.C,C14*%
X109440000Y-75292164D02*
X109440000Y-75507836D01*
X110160000Y-75292164D02*
X110160000Y-75507836D01*
%TO.C,C8*%
X118540000Y-83992164D02*
X118540000Y-84207836D01*
X119260000Y-83992164D02*
X119260000Y-84207836D01*
%TO.C,R6*%
X124246359Y-81120000D02*
X124553641Y-81120000D01*
X124246359Y-81880000D02*
X124553641Y-81880000D01*
%TO.C,D1*%
X121600000Y-62150000D02*
X121600000Y-62450000D01*
X121600000Y-62450000D02*
X125200000Y-62450000D01*
X121800000Y-59050000D02*
X125200000Y-59050000D01*
%TO.C,C29*%
X115965000Y-130438748D02*
X115965000Y-130961252D01*
X117435000Y-130438748D02*
X117435000Y-130961252D01*
%TO.C,R23*%
X128777500Y-68762742D02*
X128777500Y-69237258D01*
X129822500Y-68762742D02*
X129822500Y-69237258D01*
%TO.C,R2*%
X117477500Y-68762742D02*
X117477500Y-69237258D01*
X118522500Y-68762742D02*
X118522500Y-69237258D01*
%TO.C,C21*%
X119840000Y-112304437D02*
X119840000Y-119760000D01*
X119840000Y-119760000D02*
X122790000Y-119760000D01*
X120904437Y-111240000D02*
X119840000Y-112304437D01*
X120904437Y-111240000D02*
X122790000Y-111240000D01*
X127295563Y-111240000D02*
X125410000Y-111240000D01*
X127295563Y-111240000D02*
X128360000Y-112304437D01*
X128360000Y-112304437D02*
X128360000Y-119760000D01*
X128360000Y-119760000D02*
X125410000Y-119760000D01*
%TO.C,C27*%
X119690000Y-128559420D02*
X119690000Y-128840580D01*
X120710000Y-128559420D02*
X120710000Y-128840580D01*
%TO.C,U7*%
X113590000Y-121390000D02*
X114065000Y-121390000D01*
X113590000Y-121865000D02*
X113590000Y-121390000D01*
X113590000Y-126135000D02*
X113590000Y-126610000D01*
X113590000Y-126610000D02*
X114065000Y-126610000D01*
X119335000Y-121390000D02*
X119570000Y-121390000D01*
X119810000Y-121865000D02*
X119810000Y-121690000D01*
X119810000Y-126135000D02*
X119810000Y-126610000D01*
X119810000Y-126610000D02*
X119335000Y-126610000D01*
X120140000Y-121630000D02*
X119810000Y-121390000D01*
X120140000Y-121150000D01*
X120140000Y-121630000D01*
G36*
X120140000Y-121630000D02*
G01*
X119810000Y-121390000D01*
X120140000Y-121150000D01*
X120140000Y-121630000D01*
G37*
%TO.C,C32*%
X111271920Y-125440000D02*
X111553080Y-125440000D01*
X111271920Y-126460000D02*
X111553080Y-126460000D01*
%TO.C,R20*%
X110177064Y-122840000D02*
X108722936Y-122840000D01*
X110177064Y-124660000D02*
X108722936Y-124660000D01*
D13*
%TO.C,U5*%
X129250000Y-109950000D02*
X129250000Y-111450000D01*
X129250000Y-109950000D02*
X130750000Y-109950000D01*
X129250000Y-132250000D02*
X129250000Y-130750000D01*
X129250000Y-132250000D02*
X130750000Y-132250000D01*
X142050000Y-109950000D02*
X139050000Y-109950000D01*
X142050000Y-109950000D02*
X142050000Y-112950000D01*
X142050000Y-132250000D02*
X140550000Y-132250000D01*
X142050000Y-132250000D02*
X142050000Y-130750000D01*
D12*
%TO.C,R5*%
X121046359Y-71920000D02*
X121353641Y-71920000D01*
X121046359Y-72680000D02*
X121353641Y-72680000D01*
%TO.C,C1*%
X121959420Y-82190000D02*
X122240580Y-82190000D01*
X121959420Y-83210000D02*
X122240580Y-83210000D01*
%TO.C,R22*%
X112377500Y-129437258D02*
X112377500Y-128962742D01*
X113422500Y-129437258D02*
X113422500Y-128962742D01*
%TO.C,C24*%
X127740000Y-135740000D02*
X127740000Y-138690000D01*
X127740000Y-144260000D02*
X127740000Y-141310000D01*
X135195563Y-135740000D02*
X127740000Y-135740000D01*
X135195563Y-144260000D02*
X127740000Y-144260000D01*
X136260000Y-136804437D02*
X135195563Y-135740000D01*
X136260000Y-136804437D02*
X136260000Y-138690000D01*
X136260000Y-143195563D02*
X135195563Y-144260000D01*
X136260000Y-143195563D02*
X136260000Y-141310000D01*
%TO.C,C18*%
X135140580Y-81690000D02*
X134859420Y-81690000D01*
X135140580Y-82710000D02*
X134859420Y-82710000D01*
%TO.C,C22*%
X130638748Y-107140000D02*
X132061252Y-107140000D01*
X130638748Y-108960000D02*
X132061252Y-108960000D01*
%TO.C,C31*%
X122453080Y-125340000D02*
X122171920Y-125340000D01*
X122453080Y-126360000D02*
X122171920Y-126360000D01*
%TO.C,C33*%
X121677500Y-129336252D02*
X121677500Y-128813748D01*
X123147500Y-129336252D02*
X123147500Y-128813748D01*
%TO.C,C28*%
X114540580Y-119590000D02*
X114259420Y-119590000D01*
X114540580Y-120610000D02*
X114259420Y-120610000D01*
%TO.C,C12*%
X121959420Y-83690000D02*
X122240580Y-83690000D01*
X121959420Y-84710000D02*
X122240580Y-84710000D01*
%TO.C,C3*%
X122092164Y-78040000D02*
X122307836Y-78040000D01*
X122092164Y-78760000D02*
X122307836Y-78760000D01*
%TO.C,R19*%
X114437258Y-131377500D02*
X113962742Y-131377500D01*
X114437258Y-132422500D02*
X113962742Y-132422500D01*
%TO.C,R12*%
X131462742Y-133177500D02*
X131937258Y-133177500D01*
X131462742Y-134222500D02*
X131937258Y-134222500D01*
%TO.C,U9*%
X135740000Y-67700000D02*
X135740000Y-66900000D01*
X135740000Y-67700000D02*
X135740000Y-68500000D01*
X138860000Y-67700000D02*
X138860000Y-66900000D01*
X138860000Y-67700000D02*
X138860000Y-68500000D01*
X135790000Y-69000000D02*
X135460000Y-69240000D01*
X135460000Y-68760000D01*
X135790000Y-69000000D01*
G36*
X135790000Y-69000000D02*
G01*
X135460000Y-69240000D01*
X135460000Y-68760000D01*
X135790000Y-69000000D01*
G37*
%TO.C,C20*%
X133360000Y-103311252D02*
X133360000Y-101888748D01*
X130640000Y-103311252D02*
X130640000Y-101888748D01*
%TO.C,U2*%
X112390000Y-75390000D02*
X113040000Y-75390000D01*
X112390000Y-76040000D02*
X112390000Y-75390000D01*
X112390000Y-81960000D02*
X112390000Y-82610000D01*
X112390000Y-82610000D02*
X113040000Y-82610000D01*
X118960000Y-75390000D02*
X119370000Y-75390000D01*
X119610000Y-76040000D02*
X119610000Y-75690000D01*
X119610000Y-81960000D02*
X119610000Y-82610000D01*
X119610000Y-82610000D02*
X118960000Y-82610000D01*
X119940000Y-75630000D02*
X119610000Y-75390000D01*
X119940000Y-75150000D01*
X119940000Y-75630000D01*
G36*
X119940000Y-75630000D02*
G01*
X119610000Y-75390000D01*
X119940000Y-75150000D01*
X119940000Y-75630000D01*
G37*
%TO.C,R3*%
X109746359Y-81820000D02*
X110053641Y-81820000D01*
X109746359Y-82580000D02*
X110053641Y-82580000D01*
%TO.C,TP2*%
X128500000Y-121600000D02*
G75*
G02*
X126100000Y-121600000I-1200000J0D01*
G01*
X126100000Y-121600000D02*
G75*
G02*
X128500000Y-121600000I1200000J0D01*
G01*
%TO.C,C34*%
X117990000Y-129659420D02*
X117990000Y-129940580D01*
X119010000Y-129659420D02*
X119010000Y-129940580D01*
%TO.C,R18*%
X139962742Y-103577500D02*
X140437258Y-103577500D01*
X139962742Y-104622500D02*
X140437258Y-104622500D01*
%TO.C,R10*%
X137577500Y-93062742D02*
X137577500Y-93537258D01*
X138622500Y-93062742D02*
X138622500Y-93537258D01*
%TO.C,J2*%
X136810000Y-81960000D02*
X136810000Y-82760000D01*
X136810000Y-82760000D02*
X136960000Y-82760000D01*
X140890000Y-74420000D02*
X139480000Y-74420000D01*
X140890000Y-83580000D02*
X139480000Y-83580000D01*
D13*
%TO.C,J3*%
X110400000Y-141200000D02*
X110400000Y-136200000D01*
X112300000Y-141200000D02*
X110400000Y-141200000D01*
X113000000Y-142900000D02*
X113000000Y-142600000D01*
X114800000Y-136200000D02*
X110400000Y-136200000D01*
X119900000Y-136200000D02*
X116400000Y-136200000D01*
X120700000Y-141200000D02*
X120700000Y-142800000D01*
X120700000Y-142800000D02*
X120700000Y-142900000D01*
X120700000Y-142900000D02*
X113000000Y-142900000D01*
X121650000Y-135500000D02*
X122350000Y-135900000D01*
X122350000Y-135100000D02*
X121650000Y-135500000D01*
X122350000Y-135900000D02*
X122350000Y-135100000D01*
X123400000Y-136200000D02*
X121500000Y-136200000D01*
X123400000Y-136200000D02*
X123400000Y-141200000D01*
X123400000Y-141200000D02*
X120700000Y-141200000D01*
D12*
%TO.C,R21*%
X123185436Y-122840000D02*
X124639564Y-122840000D01*
X123185436Y-124660000D02*
X124639564Y-124660000D01*
%TO.C,U1*%
X124275000Y-71475000D02*
X124275000Y-71735000D01*
X124275000Y-76925000D02*
X124275000Y-76665000D01*
X127000000Y-71475000D02*
X124275000Y-71475000D01*
X127000000Y-71475000D02*
X129725000Y-71475000D01*
X127000000Y-76925000D02*
X124275000Y-76925000D01*
X127000000Y-76925000D02*
X129725000Y-76925000D01*
X129725000Y-71475000D02*
X129725000Y-71735000D01*
X129725000Y-76925000D02*
X129725000Y-76665000D01*
X123492500Y-71735000D02*
X123252500Y-71405000D01*
X123732500Y-71405000D01*
X123492500Y-71735000D01*
G36*
X123492500Y-71735000D02*
G01*
X123252500Y-71405000D01*
X123732500Y-71405000D01*
X123492500Y-71735000D01*
G37*
%TO.C,C10*%
X122092164Y-80040000D02*
X122307836Y-80040000D01*
X122092164Y-80760000D02*
X122307836Y-80760000D01*
%TO.C,C7*%
X115040000Y-85192164D02*
X115040000Y-85407836D01*
X115760000Y-85192164D02*
X115760000Y-85407836D01*
%TO.C,TP3*%
X139900000Y-134500000D02*
G75*
G02*
X137500000Y-134500000I-1200000J0D01*
G01*
X137500000Y-134500000D02*
G75*
G02*
X139900000Y-134500000I1200000J0D01*
G01*
%TO.C,U8*%
X131795000Y-58717500D02*
X131795000Y-61717500D01*
X135015000Y-58717500D02*
X135015000Y-61717500D01*
X135185000Y-58167500D02*
X134705000Y-58167500D01*
X134705000Y-57687500D01*
X135185000Y-58167500D01*
G36*
X135185000Y-58167500D02*
G01*
X134705000Y-58167500D01*
X134705000Y-57687500D01*
X135185000Y-58167500D01*
G37*
%TO.C,U4*%
X109390000Y-71287500D02*
X109390000Y-68287500D01*
X112610000Y-71287500D02*
X112610000Y-68287500D01*
X109660000Y-72327500D02*
X109180000Y-71847500D01*
X109660000Y-71847500D01*
X109660000Y-72327500D01*
G36*
X109660000Y-72327500D02*
G01*
X109180000Y-71847500D01*
X109660000Y-71847500D01*
X109660000Y-72327500D01*
G37*
%TO.C,C2*%
X110007836Y-80640000D02*
X109792164Y-80640000D01*
X110007836Y-81360000D02*
X109792164Y-81360000D01*
%TO.C,C38*%
X135740580Y-69990000D02*
X135459420Y-69990000D01*
X135740580Y-71010000D02*
X135459420Y-71010000D01*
%TO.C,C23*%
X139190000Y-137788748D02*
X139190000Y-139211252D01*
X141010000Y-137788748D02*
X141010000Y-139211252D01*
%TO.C,Y1*%
X105200000Y-73950000D02*
X105200000Y-77250000D01*
X105200000Y-77250000D02*
X109200000Y-77250000D01*
%TO.C,JP1*%
X127700000Y-81815000D02*
X130810000Y-81815000D01*
X127700000Y-84475000D02*
X127700000Y-81815000D01*
X127700000Y-84475000D02*
X128270000Y-84475000D01*
X128270000Y-84475000D02*
X128270000Y-85995000D01*
X129790000Y-84475000D02*
X132900000Y-84475000D01*
X132330000Y-81815000D02*
X132900000Y-81815000D01*
X132900000Y-84475000D02*
X132900000Y-81815000D01*
%TO.C,C25*%
X135165000Y-93661252D02*
X135165000Y-93138748D01*
X136635000Y-93661252D02*
X136635000Y-93138748D01*
%TO.C,R16*%
X136262742Y-103577500D02*
X136737258Y-103577500D01*
X136262742Y-104622500D02*
X136737258Y-104622500D01*
%TO.C,C19*%
X113040000Y-71007836D02*
X113040000Y-70792164D01*
X113760000Y-71007836D02*
X113760000Y-70792164D01*
%TO.C,U6*%
X135600000Y-98590000D02*
X135600000Y-97090000D01*
X135600000Y-98590000D02*
X135600000Y-100090000D01*
X139820000Y-98590000D02*
X139820000Y-97090000D01*
X139820000Y-98590000D02*
X139820000Y-100090000D01*
X135625000Y-100777500D02*
X135295000Y-101017500D01*
X135295000Y-100537500D01*
X135625000Y-100777500D01*
G36*
X135625000Y-100777500D02*
G01*
X135295000Y-101017500D01*
X135295000Y-100537500D01*
X135625000Y-100777500D01*
G37*
%TO.C,R17*%
X136737258Y-105377500D02*
X136262742Y-105377500D01*
X136737258Y-106422500D02*
X136262742Y-106422500D01*
%TO.C,R8*%
X134946359Y-80320000D02*
X135253641Y-80320000D01*
X134946359Y-81080000D02*
X135253641Y-81080000D01*
%TO.C,R7*%
X110053641Y-78220000D02*
X109746359Y-78220000D01*
X110053641Y-78980000D02*
X109746359Y-78980000D01*
D13*
%TO.C,SW1*%
X141395000Y-96100000D02*
X141395000Y-99700000D01*
X144495000Y-96100000D02*
X144495000Y-97000000D01*
X144495000Y-98900000D02*
X144495000Y-99700000D01*
D12*
%TO.C,C13*%
X131840000Y-71907836D02*
X131840000Y-71692164D01*
X132560000Y-71907836D02*
X132560000Y-71692164D01*
%TO.C,C36*%
X135375000Y-58446920D02*
X135375000Y-58728080D01*
X136395000Y-58446920D02*
X136395000Y-58728080D01*
%TO.C,C37*%
X136860000Y-58546248D02*
X136860000Y-59068752D01*
X138330000Y-58546248D02*
X138330000Y-59068752D01*
%TO.C,C35*%
X123761252Y-62865000D02*
X123238748Y-62865000D01*
X123761252Y-64335000D02*
X123238748Y-64335000D01*
%TD*%
M02*
