%TF.GenerationSoftware,KiCad,Pcbnew,7.0.6*%
%TF.CreationDate,2023-12-03T11:26:54-05:00*%
%TF.ProjectId,oe-commutator-controller,6f652d63-6f6d-46d7-9574-61746f722d63,C*%
%TF.SameCoordinates,Original*%
%TF.FileFunction,Paste,Top*%
%TF.FilePolarity,Positive*%
%FSLAX46Y46*%
G04 Gerber Fmt 4.6, Leading zero omitted, Abs format (unit mm)*
G04 Created by KiCad (PCBNEW 7.0.6) date 2023-12-03 11:26:54*
%MOMM*%
%LPD*%
G01*
G04 APERTURE LIST*
G04 Aperture macros list*
%AMRoundRect*
0 Rectangle with rounded corners*
0 $1 Rounding radius*
0 $2 $3 $4 $5 $6 $7 $8 $9 X,Y pos of 4 corners*
0 Add a 4 corners polygon primitive as box body*
4,1,4,$2,$3,$4,$5,$6,$7,$8,$9,$2,$3,0*
0 Add four circle primitives for the rounded corners*
1,1,$1+$1,$2,$3*
1,1,$1+$1,$4,$5*
1,1,$1+$1,$6,$7*
1,1,$1+$1,$8,$9*
0 Add four rect primitives between the rounded corners*
20,1,$1+$1,$2,$3,$4,$5,0*
20,1,$1+$1,$4,$5,$6,$7,0*
20,1,$1+$1,$6,$7,$8,$9,0*
20,1,$1+$1,$8,$9,$2,$3,0*%
G04 Aperture macros list end*
%ADD10RoundRect,0.080000X-0.620000X-0.320000X0.620000X-0.320000X0.620000X0.320000X-0.620000X0.320000X0*%
%ADD11RoundRect,0.250000X0.475000X-0.250000X0.475000X0.250000X-0.475000X0.250000X-0.475000X-0.250000X0*%
%ADD12RoundRect,0.200000X0.200000X0.275000X-0.200000X0.275000X-0.200000X-0.275000X0.200000X-0.275000X0*%
%ADD13RoundRect,0.127000X0.508000X1.463000X-0.508000X1.463000X-0.508000X-1.463000X0.508000X-1.463000X0*%
%ADD14RoundRect,0.200000X-0.275000X0.200000X-0.275000X-0.200000X0.275000X-0.200000X0.275000X0.200000X0*%
%ADD15RoundRect,0.250000X-0.650000X0.325000X-0.650000X-0.325000X0.650000X-0.325000X0.650000X0.325000X0*%
%ADD16RoundRect,0.250000X0.250000X0.475000X-0.250000X0.475000X-0.250000X-0.475000X0.250000X-0.475000X0*%
%ADD17RoundRect,0.105000X-0.420000X0.595000X-0.420000X-0.595000X0.420000X-0.595000X0.420000X0.595000X0*%
%ADD18RoundRect,0.200000X0.275000X-0.200000X0.275000X0.200000X-0.275000X0.200000X-0.275000X-0.200000X0*%
%ADD19RoundRect,0.242500X-0.307500X0.242500X-0.307500X-0.242500X0.307500X-0.242500X0.307500X0.242500X0*%
%ADD20RoundRect,0.062500X-0.062500X0.362500X-0.062500X-0.362500X0.062500X-0.362500X0.062500X0.362500X0*%
%ADD21RoundRect,0.062500X-0.362500X0.062500X-0.362500X-0.062500X0.362500X-0.062500X0.362500X0.062500X0*%
%ADD22RoundRect,0.200000X-0.200000X-0.275000X0.200000X-0.275000X0.200000X0.275000X-0.200000X0.275000X0*%
%ADD23RoundRect,0.250000X-0.475000X0.250000X-0.475000X-0.250000X0.475000X-0.250000X0.475000X0.250000X0*%
%ADD24RoundRect,0.225000X0.225000X0.250000X-0.225000X0.250000X-0.225000X-0.250000X0.225000X-0.250000X0*%
%ADD25RoundRect,0.225000X-0.250000X0.225000X-0.250000X-0.225000X0.250000X-0.225000X0.250000X0.225000X0*%
%ADD26RoundRect,0.250000X-0.325000X-0.650000X0.325000X-0.650000X0.325000X0.650000X-0.325000X0.650000X0*%
%ADD27RoundRect,0.250000X0.312500X0.625000X-0.312500X0.625000X-0.312500X-0.625000X0.312500X-0.625000X0*%
%ADD28RoundRect,0.250001X1.999999X0.799999X-1.999999X0.799999X-1.999999X-0.799999X1.999999X-0.799999X0*%
%ADD29RoundRect,0.167500X0.407500X-0.167500X0.407500X0.167500X-0.407500X0.167500X-0.407500X-0.167500X0*%
%ADD30RoundRect,0.100000X0.100000X-0.625000X0.100000X0.625000X-0.100000X0.625000X-0.100000X-0.625000X0*%
%ADD31RoundRect,0.250000X1.100000X-0.325000X1.100000X0.325000X-1.100000X0.325000X-1.100000X-0.325000X0*%
%ADD32RoundRect,0.250000X-0.250000X-0.475000X0.250000X-0.475000X0.250000X0.475000X-0.250000X0.475000X0*%
%ADD33R,1.000000X1.900000*%
%ADD34R,1.900000X1.000000*%
%ADD35RoundRect,0.167500X-0.312500X0.167500X-0.312500X-0.167500X0.312500X-0.167500X0.312500X0.167500X0*%
%ADD36RoundRect,0.225000X-0.225000X-0.250000X0.225000X-0.250000X0.225000X0.250000X-0.225000X0.250000X0*%
%ADD37C,2.160000*%
%ADD38RoundRect,0.250000X-0.312500X-0.625000X0.312500X-0.625000X0.312500X0.625000X-0.312500X0.625000X0*%
%ADD39RoundRect,0.250001X-0.799999X1.999999X-0.799999X-1.999999X0.799999X-1.999999X0.799999X1.999999X0*%
G04 APERTURE END LIST*
D10*
%TO.C,D1*%
X120900000Y-61475000D03*
X126100000Y-61475000D03*
X126100000Y-60025000D03*
X120900000Y-60025000D03*
%TD*%
D11*
%TO.C,C17*%
X135900000Y-94350000D03*
X135900000Y-92450000D03*
%TD*%
D12*
%TO.C,R4*%
X128025000Y-78700000D03*
X126375000Y-78700000D03*
%TD*%
D13*
%TO.C,J1*%
X120710000Y-136600000D03*
X118170000Y-140800000D03*
X115630000Y-136600000D03*
X113090000Y-140800000D03*
%TD*%
D14*
%TO.C,R9*%
X138100000Y-92475000D03*
X138100000Y-94125000D03*
%TD*%
D15*
%TO.C,C15*%
X140100000Y-137025000D03*
X140100000Y-139975000D03*
%TD*%
D16*
%TO.C,C6*%
X124450000Y-64050000D03*
X122550000Y-64050000D03*
%TD*%
D17*
%TO.C,S5*%
X142275000Y-96100000D03*
X142275000Y-99700000D03*
X143725000Y-99700000D03*
X143725000Y-96100000D03*
%TD*%
D18*
%TO.C,R1*%
X116600000Y-130625000D03*
X116600000Y-128975000D03*
%TD*%
D19*
%TO.C,U3*%
X118070000Y-122800000D03*
X116700000Y-122800000D03*
X115330000Y-122800000D03*
X118070000Y-124000000D03*
X116700000Y-124000000D03*
X115330000Y-124000000D03*
X118070000Y-125200000D03*
X116700000Y-125200000D03*
X115330000Y-125200000D03*
D20*
X118950000Y-121550000D03*
X118450000Y-121550000D03*
X117950000Y-121550000D03*
X117450000Y-121550000D03*
X116950000Y-121550000D03*
X116450000Y-121550000D03*
X115950000Y-121550000D03*
X115450000Y-121550000D03*
X114950000Y-121550000D03*
X114450000Y-121550000D03*
D21*
X113750000Y-122250000D03*
X113750000Y-122750000D03*
X113750000Y-123250000D03*
X113750000Y-123750000D03*
X113750000Y-124250000D03*
X113750000Y-124750000D03*
X113750000Y-125250000D03*
X113750000Y-125750000D03*
D20*
X114450000Y-126450000D03*
X114950000Y-126450000D03*
X115450000Y-126450000D03*
X115950000Y-126450000D03*
X116450000Y-126450000D03*
X116950000Y-126450000D03*
X117450000Y-126450000D03*
X117950000Y-126450000D03*
X118450000Y-126450000D03*
X118950000Y-126450000D03*
D21*
X119650000Y-125750000D03*
X119650000Y-125250000D03*
X119650000Y-124750000D03*
X119650000Y-124250000D03*
X119650000Y-123750000D03*
X119650000Y-123250000D03*
X119650000Y-122750000D03*
X119650000Y-122250000D03*
%TD*%
D22*
%TO.C,R11*%
X130925000Y-133700000D03*
X132575000Y-133700000D03*
%TD*%
%TO.C,R14*%
X139375000Y-105900000D03*
X141025000Y-105900000D03*
%TD*%
D23*
%TO.C,C4*%
X114700000Y-128450000D03*
X114700000Y-130350000D03*
%TD*%
D18*
%TO.C,R13*%
X138000000Y-90625000D03*
X138000000Y-88975000D03*
%TD*%
D22*
%TO.C,R15*%
X135675000Y-104100000D03*
X137325000Y-104100000D03*
%TD*%
D23*
%TO.C,C11*%
X138310000Y-60950000D03*
X138310000Y-59050000D03*
%TD*%
D24*
%TO.C,C5*%
X123087500Y-125850000D03*
X121537500Y-125850000D03*
%TD*%
D25*
%TO.C,C9*%
X136210000Y-59025000D03*
X136210000Y-60575000D03*
%TD*%
D26*
%TO.C,C14*%
X129875000Y-108050000D03*
X132825000Y-108050000D03*
%TD*%
D11*
%TO.C,C8*%
X122412500Y-130025000D03*
X122412500Y-128125000D03*
%TD*%
D27*
%TO.C,R6*%
X110912500Y-123750000D03*
X107987500Y-123750000D03*
%TD*%
D18*
%TO.C,R2*%
X134175000Y-75025000D03*
X134175000Y-73375000D03*
%TD*%
D28*
%TO.C,C16*%
X135600000Y-140000000D03*
X128400000Y-140000000D03*
%TD*%
D29*
%TO.C,U5*%
X137000000Y-99000000D03*
X138420000Y-99000000D03*
X137000000Y-98180000D03*
X138420000Y-98180000D03*
D30*
X136085000Y-100740000D03*
X136735000Y-100740000D03*
X137385000Y-100740000D03*
X138035000Y-100740000D03*
X138685000Y-100740000D03*
X139335000Y-100740000D03*
X139335000Y-96440000D03*
X138685000Y-96440000D03*
X138035000Y-96440000D03*
X137385000Y-96440000D03*
X136735000Y-96440000D03*
X136085000Y-96440000D03*
%TD*%
D22*
%TO.C,R5*%
X128975000Y-62400000D03*
X130625000Y-62400000D03*
%TD*%
D25*
%TO.C,C1*%
X120200000Y-127925000D03*
X120200000Y-129475000D03*
%TD*%
D31*
%TO.C,C18*%
X132000000Y-93875000D03*
X132000000Y-90925000D03*
%TD*%
%TO.C,C12*%
X132000000Y-104975000D03*
X132000000Y-102025000D03*
%TD*%
D32*
%TO.C,C3*%
X116550000Y-132300000D03*
X118450000Y-132300000D03*
%TD*%
D14*
%TO.C,R12*%
X139600000Y-92475000D03*
X139600000Y-94125000D03*
%TD*%
D33*
%TO.C,U1*%
X141730000Y-66730000D03*
X139190000Y-70030000D03*
X136650000Y-66730000D03*
X134110000Y-70030000D03*
X131570000Y-66730000D03*
X129030000Y-70030000D03*
X126490000Y-66730000D03*
X123950000Y-70030000D03*
X121410000Y-66730000D03*
X118870000Y-70030000D03*
X116330000Y-66730000D03*
X113790000Y-70030000D03*
X111250000Y-66730000D03*
D34*
X107060000Y-68380000D03*
X107060000Y-83620000D03*
D33*
X111250000Y-85270000D03*
X113790000Y-81970000D03*
X116330000Y-85270000D03*
X118870000Y-81970000D03*
X121410000Y-85270000D03*
X123950000Y-81970000D03*
X126490000Y-85270000D03*
X129030000Y-81970000D03*
X131570000Y-85270000D03*
X134110000Y-81970000D03*
X136650000Y-85270000D03*
X139190000Y-81970000D03*
X141730000Y-85270000D03*
D34*
X110360000Y-70920000D03*
X107060000Y-73460000D03*
X110360000Y-76000000D03*
X107060000Y-78540000D03*
X110360000Y-81080000D03*
%TD*%
D35*
%TO.C,U2*%
X134000000Y-60000000D03*
X132810000Y-60000000D03*
X134000000Y-60820000D03*
X132810000Y-60820000D03*
D20*
X134405000Y-58960000D03*
X133905000Y-58960000D03*
X133405000Y-58960000D03*
X132905000Y-58960000D03*
X132405000Y-58960000D03*
X132405000Y-61860000D03*
X132905000Y-61860000D03*
X133405000Y-61860000D03*
X133905000Y-61860000D03*
X134405000Y-61860000D03*
%TD*%
D22*
%TO.C,R3*%
X122175000Y-78700000D03*
X123825000Y-78700000D03*
%TD*%
%TO.C,R10*%
X135675000Y-107700000D03*
X137325000Y-107700000D03*
%TD*%
D25*
%TO.C,C10*%
X118500000Y-129025000D03*
X118500000Y-130575000D03*
%TD*%
D36*
%TO.C,C7*%
X110637500Y-125950000D03*
X112187500Y-125950000D03*
%TD*%
D37*
%TO.C,U4*%
X140410000Y-111620000D03*
X134070000Y-111620000D03*
X130890000Y-130680000D03*
X140410000Y-130680000D03*
%TD*%
D24*
%TO.C,C2*%
X113775000Y-120000000D03*
X112225000Y-120000000D03*
%TD*%
D12*
%TO.C,R16*%
X137325000Y-105900000D03*
X135675000Y-105900000D03*
%TD*%
D22*
%TO.C,R17*%
X139375000Y-104100000D03*
X141025000Y-104100000D03*
%TD*%
D18*
%TO.C,R8*%
X112600000Y-130025000D03*
X112600000Y-128375000D03*
%TD*%
D38*
%TO.C,R7*%
X122450000Y-123750000D03*
X125375000Y-123750000D03*
%TD*%
D39*
%TO.C,C13*%
X124100000Y-111900000D03*
X124100000Y-119100000D03*
%TD*%
M02*
