<?xml version="1.0" encoding="utf-8"?><!-- Generator: Iparigrafika Gear Generator by Abel Vincze http://geargenerator.com/ --><svg version="1.2" class="svggear" xmlns="http://www.w3.org/2000/svg" xmlns:xlink="http://www.w3.org/1999/xlink" x="0px" y="0px" width="721px" height="721px" viewBox="-360.5 -360.5 721 721" overflow="scroll" xml:space="preserve"><path id="gearpoly0" data-id="0" class="gear" fill="#ddd" stroke="#444" stroke-width="1" stroke-miterlimit="10" d="M272.5694444,0 293.6986666,-0.0005204 293.853211,-0.0048958 294.1179548,-0.0174051 294.4925993,-0.0423218 294.9767213,-0.0839103 295.5697739,-0.1464221 296.2710863,-0.2340931 297.0798646,-0.3511404 297.9951921,-0.5017587 299.01603,-0.6901177 300.141218,-0.9203583 301.3694751,-1.1965902 302.6994002,-1.522888 304.1294732,-1.9032887 305.6580557,-2.3417883 307.2833926,-2.842339 309.0036123,-3.4088458 310.8167287,-4.0451637 312.7206421,-4.7550948 314.7131405,-5.5423853 316.791901,-6.4107224 318.9544914,-7.3637317 321.1983717,-8.4049741 323.5208954,-9.5379432 325.9193118,-10.7660623 328.390767,-12.0926819 330.9323064,-13.5210769 333.5408759,-15.0544438 336.2133245,-16.6958983 338.9464059,-18.4484728 341.7367805,-20.3151137 344.5810178,-22.2986788 346.0222386,-23.3351763 346.3844582,-23.599016 346.407122,-23.6155689 346.4127884,-23.6197083 346.4176497,-23.6237932 344.1800221,-45.8626645 344.1744444,-45.865699 344.168067,-45.8686266 344.1425599,-45.8803326 343.7350392,-46.0667227 342.1162178,-46.7953254 338.9338295,-48.1725044 335.8275179,-49.4458333 332.8000752,-50.6187962 329.8541871,-51.6949457 326.9924307,-52.6779002 324.2172733,-53.5713405 321.5310707,-54.3790076 318.9360661,-55.1046994 316.4343885,-55.7522677 314.0280516,-56.3256152 311.7189529,-56.8286927 309.5088719,-57.2654958 307.39947,-57.6400619 305.3922889,-57.9564671 303.4887498,-58.2188231 301.6901531,-58.431274 299.9976769,-58.5979935 298.4123774,-58.723181 296.9351872,-58.8110591 295.5669158,-58.8658702 294.3082485,-58.891873 293.1597465,-58.8933399 292.1218466,-58.874553 291.1948608,-58.8398017 290.3789765,-58.7933789 289.6742561,-58.739578 289.0806377,-58.6826895 288.5979347,-58.626998 288.2258361,-58.5767791 287.963907,-58.5362957 287.8115888,-58.5097953 267.1057976,-54.3009663 256.1314956,-93.2242405 275.9862918,-100.4513491 276.1300195,-100.5083179 276.3745189,-100.6106205 276.7180475,-100.7621705 277.1587493,-100.9668304 277.6946562,-101.2284082 278.323689,-101.550655 279.0436594,-101.9372619 279.8522714,-102.3918573 280.7471227,-102.9180039 281.7257067,-103.5191963 282.785414,-104.198858 283.9235343,-104.9603388 285.1372586,-105.8069123 286.4236807,-106.7417732 287.7797993,-107.768035 289.2025203,-108.888727 290.6886589,-110.1067925 292.2349415,-111.4250863 293.8380084,-112.846372 295.4944155,-114.3733199 297.2006374,-116.0085052 298.9530692,-117.7544052 300.7480294,-119.6133978 302.5817621,-121.587759 304.4504397,-123.6796612 306.3501656,-125.891171 308.2769768,-128.2242479 310.2268465,-130.6807419 312.1956871,-133.2623921 314.1793528,-135.970825 316.1736424,-138.807553 317.1734439,-140.2744686 317.4235805,-140.6462833 317.439216,-140.6695894 317.4431249,-140.6754171 317.4462959,-140.6809184 307.7374719,-160.8133078 307.7311927,-160.8142517 307.7241986,-160.8148215 307.6962261,-160.8170977 307.2495327,-160.8528668 305.4791414,-160.9838598 302.0176517,-161.1895438 298.6631694,-161.3236605 295.417127,-161.3904387 292.2808328,-161.3941354 289.2554712,-161.3390321 286.3421017,-161.2294316 283.5416585,-161.0696551 280.8549506,-160.8640384 278.2826612,-160.6169294 275.8253478,-160.3326842 273.4834421,-160.0156642 271.2572499,-159.6702326 269.1469514,-159.3007516 267.1526011,-158.9115788 265.2741285,-158.5070641 263.5113379,-158.0915464 261.8639091,-157.6693505 260.3313982,-157.2447839 258.9132374,-156.8221336 257.6087363,-156.4056627 256.4170825,-155.9996078 255.337342,-155.6081754 254.3684606,-155.2355389 253.5092645,-154.8858355 252.7584615,-154.5631635 252.114642,-154.2715786 251.5762802,-154.0150914 251.1417353,-153.7976644 250.8092529,-153.6232089 250.5769662,-153.4955819 250.4428976,-153.4185837 232.4253227,-142.3817805 208.8003083,-175.2042617 224.985897,-188.7862625 225.1014724,-188.8889535 225.2962371,-189.0687102 225.5672153,-189.3286144 225.9113417,-189.6716606 226.3254646,-190.1007543 226.8063472,-190.6187091 227.3506707,-191.2282452 227.9550367,-191.9319867 228.6159691,-192.73246 229.3299173,-193.6320915 230.0932584,-194.6332058 230.9023,-195.7380238 231.7532825,-196.9486608 232.6423826,-198.267125 233.565715,-199.6953154 234.5193363,-201.2350207 235.4992468,-202.8879172 236.5013941,-204.655568 237.5216759,-206.5394207 238.5559425,-208.5408071 239.6000003,-210.6609409 240.6496145,-212.9009173 241.7005125,-215.2617114 242.7483862,-217.7441776 243.7888961,-220.349048 244.8176736,-223.076932 245.8303246,-225.9283153 246.8224324,-228.9035593 247.789561,-232.0029001 248.7272584,-235.2264482 249.6310595,-238.5741878 250.0688509,-240.2945898 250.1767343,-240.729533 250.1834557,-240.7567812 250.1851357,-240.7635945 250.1862339,-240.7698485 234.1772409,-256.367493 234.1710176,-256.3662323 234.1642504,-256.3643756 234.1371863,-256.3569473 233.7051981,-256.2377811 231.9967722,-255.7553648 228.6736878,-254.7647454 225.475635,-253.7434733 222.4025133,-252.6960124 219.4540965,-251.6268104 216.630033,-250.5402956 213.9298467,-249.4408738 211.3529377,-248.332925 208.8985831,-247.2208003 206.565938,-246.108819 204.3540363,-245.0012652 202.2617921,-243.9023849 200.2880003,-242.8163828 198.4313382,-241.7474197 196.6903669,-240.6996089 195.0635322,-239.677014 193.5491663,-238.6836451 192.1454892,-237.723457 190.8506103,-236.8003452 189.66253,-235.9181443 188.5791414,-235.080624 187.598232,-234.2914876 186.7174856,-233.5543685 185.9344841,-232.8728277 185.2467095,-232.2503517 184.6515458,-231.6903494 184.1462813,-231.19615 183.7281105,-230.7710003 183.3941362,-230.4180627 183.1413723,-230.1404124 182.9667451,-229.9410355 182.8670968,-229.8228267 169.7109237,-213.2892506 136.2847222,-236.0520632 146.8488826,-254.3507666 146.9223656,-254.4867936 147.0439042,-254.7223231 147.2096478,-255.0592331 147.4156922,-255.4992893 147.6580817,-256.0441438 147.9328126,-256.6953337 148.2358358,-257.4542799 148.5630602,-258.3222859 148.9103556,-259.300537 149.2735553,-260.3900987 149.6484601,-261.5919165 150.0308404,-262.9068143 150.4164402,-264.3354942 150.8009797,-265.8785353 151.1801585,-267.5363936 151.5496591,-269.309401 151.9051499,-271.1977648 152.2422882,-273.2015677 152.5567238,-275.3207672 152.8441021,-277.5551952 153.100067,-279.9045581 153.3202648,-282.3684366 153.5003466,-284.9462857 153.6359724,-287.6374347 153.7228138,-290.4410876 153.7565571,-293.3563227 153.7329072,-296.3820936 153.6475902,-299.5172293 153.4963568,-302.7604344 153.2749857,-306.1102901 152.9792866,-309.5652545 152.8022638,-311.3316371 152.7548817,-311.7772483 152.7518784,-311.8051521 152.7511268,-311.8121291 152.7500198,-311.8183815 132.3717786,-320.9999748 132.3663617,-320.9966617 132.3606376,-320.9926025 132.3377463,-320.9763657 131.9725674,-320.7166374 130.5321683,-319.6789983 127.7483022,-317.6115588 125.0924112,-315.5580784 122.5628742,-313.5227176 120.1579573,-311.5095785 117.8758156,-309.5227019 115.7144949,-307.5660652 113.6719333,-305.6435791 111.7459635,-303.7590851 109.9343141,-301.9163529 108.2346121,-300.1190778 106.6443849,-298.3708784 105.1610618,-296.6752937 103.7819771,-295.0357811 102.5043717,-293.4557138 101.3253952,-291.9383786 100.2421088,-290.4869736 99.2514875,-289.1046061 98.3504222,-287.7942901 97.5357224,-286.558945 96.8041189,-285.4013927 96.1522661,-284.3243562 95.5767448,-283.3304578 95.0740648,-282.4222167 94.6406673,-281.6020478 94.2729285,-280.8722598 93.9671613,-280.2350536 93.719619,-279.6925208 93.5264977,-279.246642 93.3839392,-278.8992856 93.2880343,-278.6522067 93.2348253,-278.507045 86.5268826,-258.4708893 47.3311873,-268.4285021 50.9997258,-289.2368143 51.0222532,-289.3897706 51.0559062,-289.6526645 51.0964243,-290.0259441 51.1395346,-290.509933 51.180955,-291.1048308 51.2163975,-291.8107126 51.2415713,-292.6275288 51.2521862,-293.555105 51.2439555,-294.5931423 51.2125996,-295.7412171 51.1538489,-296.9987813 51.0634474,-298.3651629 50.9371553,-299.8395657 50.7707531,-301.4210703 50.5600437,-303.1086344 50.3008564,-304.9010929 49.98905,-306.7971595 49.6205154,-308.7954264 49.1911793,-310.8943658 48.6970072,-313.0923304 48.1340061,-315.3875546 47.4982283,-317.7781551 46.7857735,-320.2621325 45.9927929,-322.8373722 45.1154914,-325.5016455 44.1501306,-328.2526114 43.0930324,-331.0878173 41.940581,-334.004701 40.6892267,-337.0005921 39.3354877,-340.0727134 37.8759541,-343.2181828 37.1054686,-344.8174942 36.908536,-345.2200261 36.8961701,-345.2452199 36.8930776,-345.251519 36.8898988,-345.2570158 14.6003261,-346.9151223 14.5963691,-346.9101563 14.5923786,-346.9043841 14.5764211,-346.8812973 14.3220975,-346.512334 13.3234585,-345.0446267 11.4145861,-342.1497307 9.6211965,-339.3117221 7.9403436,-336.533956 6.3689951,-333.819694 4.9040352,-331.1721023 3.5422672,-328.59425 2.2804162,-326.0891068 1.1151315,-323.6595412 0.0429894,-321.3083188 -0.9395037,-319.0381003 -1.8359091,-316.8514405 -2.6498527,-314.7507857 -3.385022,-312.7384731 -4.0451637,-310.8167287 -4.63408,-308.9876663 -5.1556264,-307.253286 -5.6137084,-305.6154729 -6.0122784,-304.0759962 -6.3553328,-302.6365078 -6.646909,-301.2985413 -6.8910821,-300.0635113 -7.0919619,-298.9327124 -7.2536899,-297.9073182 -7.380436,-296.9883809 -7.4763953,-296.1768304 -7.5457851,-295.473474 -7.5928416,-294.8789954 -7.6218168,-294.393955 -7.636975,-294.0187889 -7.6425902,-293.7538092 -7.6429421,-293.5992034 -7.0935776,-272.4771242 -47.3311873,-268.4285021 -51.0007507,-289.2366336 -51.031896,-289.3880703 -51.0901875,-289.6466198 -51.1797821,-290.0112459 -51.3048056,-290.4807912 -51.4693502,-291.053979 -51.6774709,-291.7294129 -51.9331829,-292.505579 -52.2404579,-293.380846 -52.6032219,-294.3534669 -53.0253516,-295.42158 -53.5106714,-296.5832099 -54.0629511,-297.8362695 -54.6859022,-299.1785605 -55.3831757,-300.6077758 -56.1583586,-302.1215004 -57.0149719,-303.7172132 -57.9564671,-305.3922889 -58.9862238,-307.1439993 -60.1075473,-308.9695156 -61.3236654,-310.8659099 -62.6377262,-312.8301574 -64.0527956,-314.8591382 -65.5718543,-316.9496396 -67.1977962,-319.098358 -68.9334252,-321.3019012 -70.7814533,-323.5567907 -72.7444982,-325.8594638 -74.8250812,-328.2062763 -77.0256248,-330.5935047 -79.3484506,-333.0173485 -81.7957776,-335.473933 -83.0667937,-336.7132725 -83.3895239,-337.0241738 -83.4097608,-337.0436189 -83.4148213,-337.0484804 -83.4196883,-337.0525585 -104.9321412,-330.9871861 -104.9341611,-330.9811662 -104.9359367,-330.9743773 -104.9430357,-330.947225 -105.0558289,-330.5135291 -105.492257,-328.7927807 -106.2958976,-325.4195955 -107.0104765,-322.1393645 -107.6399095,-318.9542326 -108.1881618,-315.8662277 -108.6592442,-312.8772596 -109.0572101,-309.9891187 -109.3861528,-307.2034757 -109.6502019,-304.5218799 -109.8535204,-301.9457594 -110.0003015,-299.4764195 -110.0947653,-297.1150426 -110.1411559,-294.8626877 -110.1437376,-292.7202897 -110.1067925,-290.6886589 -110.0346167,-288.7684812 -109.931517,-286.9603175 -109.8018082,-285.2646034 -109.6498095,-283.6816495 -109.4798411,-282.2116413 -109.2962216,-280.8546391 -109.1032642,-279.6105784 -108.9052734,-278.4792701 -108.7065426,-277.4604005 -108.5113499,-276.5535322 -108.3239555,-275.7581042 -108.1485985,-275.0734326 -107.9894935,-274.4987112 -107.8508277,-274.0330122 -107.7367574,-273.675287 -107.6514055,-273.4243671 -107.5988579,-273.2789647 -99.8584476,-253.6185965 -136.2847222,-236.0520632 -146.849784,-254.3502462 -146.9308454,-254.4818978 -147.0740506,-254.704918 -147.2829514,-255.0169113 -147.5610291,-255.415379 -147.9116922,-255.8977218 -148.3382737,-256.4612406 -148.8440288,-257.1031395 -149.4321318,-257.8205272 -150.1056744,-258.6104193 -150.8676627,-259.4697404 -151.721015,-260.3953263 -152.6685598,-261.3839263 -153.7130329,-262.4322055 -154.8570761,-263.536747 -156.1032341,-264.6940546 -157.4539532,-265.9005552 -158.9115788,-267.1526011 -160.4783539,-268.446473 -162.1564167,-269.7783819 -163.9477989,-271.1444728 -165.8544244,-272.5408264 -167.8781069,-273.9634625 -170.0205488,-275.4083425 -172.2833393,-276.8713724 -174.6679532,-278.3484056 -177.1757492,-279.8352458 -179.8079687,-281.3276499 -182.5657343,-282.821331 -185.4500491,-284.3119616 -188.4617947,-285.7951765 -191.6017312,-287.2665757 -193.2199748,-287.9964608 -193.6295765,-288.1782323 -193.6552436,-288.1895832 -193.6616616,-288.1924208 -193.6676299,-288.1945883 -211.8082436,-275.1373104 -211.8080827,-275.1309627 -211.8074294,-275.1239759 -211.8048135,-275.0960331 -211.7624717,-274.6499147 -211.5840494,-272.8836729 -211.1855273,-269.4390544 -210.7351067,-266.1122452 -210.237201,-262.9039214 -209.6962298,-259.8146327 -209.1166151,-256.8448018 -208.5027784,-253.9947248 -207.8591374,-251.2645715 -207.1901026,-248.6543857 -206.5000744,-246.1640852 -205.7934395,-243.7934626 -205.074568,-241.5421857 -204.3478101,-239.4097979 -203.6174929,-237.3957192 -202.8879172,-235.4992468 -202.1633547,-233.7195556 -201.4480442,-232.0556996 -200.7461894,-230.5066126 -200.0619552,-229.0711091 -199.3994648,-227.7478858 -198.7627969,-226.5355225 -198.1559824,-225.4324832 -197.5830017,-224.4371179 -197.0477819,-223.5476637 -196.5541935,-222.762246 -196.106048,-222.0788809 -195.7070948,-221.4954756 -195.3610187,-221.0098313 -195.071437,-220.6196439 -194.8418968,-220.3225065 -194.6758726,-220.1159109 -194.5767635,-219.9972498 -180.578915,-204.1699231 -208.8003083,-175.2042617 -224.986566,-188.7854653 -225.1077663,-188.8814527 -225.3186127,-189.0420441 -225.6216232,-189.2637735 -226.0192147,-189.5431026 -226.5137011,-189.8764226 -227.1072915,-190.2600576 -227.8020881,-190.6902669 -228.6000852,-191.1632477 -229.5031673,-191.6751384 -230.5131072,-192.2220207 -231.6315651,-192.7999233 -232.860087,-193.4048241 -234.2001033,-194.0326534 -235.6529276,-194.6792971 -237.2197556,-195.3405994 -238.9016639,-196.012366 -240.6996089,-196.6903669 -242.6144261,-197.3703401 -244.646829,-198.0479939 -246.7974083,-198.7190105 -249.0666312,-199.3790494 -251.454841,-200.0237499 -253.9622559,-200.6487347 -256.5889691,-201.2496132 -259.3349483,-201.8219844 -262.200035,-202.3614404 -265.1839444,-202.8635694 -268.2862655,-203.3239591 -271.5064605,-203.7382 -274.843865,-204.1018884 -278.2976884,-204.4106298 -280.0679753,-204.5430255 -280.5150445,-204.5737428 -280.5430459,-204.5756306 -280.5500474,-204.5761019 -280.5563971,-204.5760974 -293.1371458,-186.1018145 -293.1348237,-186.0959046 -293.1318201,-186.0895626 -293.119805,-186.0641996 -292.9274352,-185.6594672 -292.1556829,-184.0607669 -290.6030656,-180.9601869 -289.0419729,-177.9880617 -287.4767833,-175.1435173 -285.9118377,-172.4255586 -284.351436,-169.8330702 -282.7998344,-167.3648184 -281.2612423,-165.0194518 -279.7398191,-162.7955028 -278.2396718,-160.6913893 -276.7648515,-158.7054161 -275.3193512,-156.8357763 -273.9071026,-155.0805531 -272.5319735,-153.4377215 -271.1977648,-151.9051499 -269.9082085,-150.4806022 -268.6669643,-149.1617396 -267.4776175,-147.9461224 -266.3436766,-146.8312123 -265.2685703,-145.8143742 -264.2556454,-144.8928786 -263.3081646,-144.0639035 -262.4293039,-143.324537 -261.6221505,-142.6717793 -260.8897005,-142.1025454 -260.2348568,-141.613667 -259.6604271,-141.2018954 -259.1691219,-140.863904 -258.7635521,-140.5962905 -258.4462279,-140.3955801 -258.2195564,-140.2582274 -258.0858397,-140.1806197 -239.5189003,-130.0953437 -256.1314956,-93.2242405 -275.9866478,-100.450371 -276.1333684,-100.4991168 -276.3864246,-100.5779096 -276.7469973,-100.6826315 -277.2161473,-100.8091306 -277.7948148,-100.9532247 -278.4838181,-101.1107038 -279.2838536,-101.2773338 -280.1954946,-101.4488593 -281.219191,-101.621007 -282.3552689,-101.7894885 -283.6039299,-101.9500041 -284.9652511,-102.0982457 -286.4391848,-102.2298997 -288.0255582,-102.3406508 -289.7240737,-102.426185 -291.5343082,-102.4821926 -293.4557138,-102.5043717 -295.487618,-102.4884313 -297.6292232,-102.4300949 -299.8796079,-102.3251029 -302.2377265,-102.1692165 -304.7024101,-101.958221 -307.2723668,-101.6879282 -309.9461824,-101.3541804 -312.7223213,-100.9528532 -315.5991269,-100.4798587 -318.5748228,-99.9311485 -321.6475136,-99.302717 -324.8151858,-98.5906046 -328.075709,-97.7909003 -331.426837,-96.8997452 -333.1356446,-96.4186827 -333.5662582,-96.2946408 -333.5932166,-96.2868376 -333.599957,-96.2848859 -333.6059222,-96.28271 -339.1093821,-74.6196931 -339.1051787,-74.6149339 -339.1001871,-74.6100017 -339.080222,-74.5902776 -338.7610269,-74.2757479 -337.4890292,-73.0374159 -334.9695854,-70.6548501 -332.4861114,-68.3958912 -330.0424228,-66.2582202 -327.6422583,-64.2394173 -325.2892772,-62.336964 -322.9870568,-60.5482449 -320.7390905,-58.8705507 -318.548785,-57.3010796 -316.4194584,-55.8369403 -314.3543378,-54.4751542 -312.3565574,-53.2126577 -310.4291561,-52.0463049 -308.5750759,-50.97287 -306.7971595,-49.98905 -305.0981489,-49.0914673 -303.4806833,-48.2766723 -301.9472974,-47.5411464 -300.5004198,-46.8813042 -299.1423711,-46.293497 -297.8753631,-45.7740151 -296.7014962,-45.3190908 -295.6227591,-44.9249016 -294.6410267,-44.5875728 -293.7580593,-44.3031805 -292.9755013,-44.0677548 -292.2948798,-43.8772826 -291.717604,-43.7277109 -291.2449639,-43.6149495 -290.8781297,-43.5348747 -290.6181507,-43.4833316 -290.4659547,-43.456138 -269.5693712,-40.3293459 -272.5694444,0 -293.6986666,0.0005204 -293.853211,0.0048958 -294.1179548,0.0174051 -294.4925993,0.0423218 -294.9767213,0.0839103 -295.5697739,0.1464221 -296.2710863,0.2340931 -297.0798646,0.3511404 -297.9951921,0.5017587 -299.01603,0.6901177 -300.141218,0.9203583 -301.3694751,1.1965902 -302.6994002,1.522888 -304.1294732,1.9032887 -305.6580557,2.3417883 -307.2833926,2.842339 -309.0036123,3.4088458 -310.8167287,4.0451637 -312.7206421,4.7550948 -314.7131405,5.5423853 -316.791901,6.4107224 -318.9544914,7.3637317 -321.1983717,8.4049741 -323.5208954,9.5379432 -325.9193118,10.7660623 -328.390767,12.0926819 -330.9323064,13.5210769 -333.5408759,15.0544438 -336.2133245,16.6958983 -338.9464059,18.4484728 -341.7367805,20.3151137 -344.5810178,22.2986788 -346.0222386,23.3351763 -346.3844582,23.599016 -346.407122,23.6155689 -346.4127884,23.6197083 -346.4176497,23.6237932 -344.1800221,45.8626645 -344.1744444,45.865699 -344.168067,45.8686266 -344.1425599,45.8803326 -343.7350392,46.0667227 -342.1162178,46.7953254 -338.9338295,48.1725044 -335.8275179,49.4458333 -332.8000752,50.6187962 -329.8541871,51.6949457 -326.9924307,52.6779002 -324.2172733,53.5713405 -321.5310707,54.3790076 -318.9360661,55.1046994 -316.4343885,55.7522677 -314.0280516,56.3256152 -311.7189529,56.8286927 -309.5088719,57.2654958 -307.39947,57.6400619 -305.3922889,57.9564671 -303.4887498,58.2188231 -301.6901531,58.431274 -299.9976769,58.5979935 -298.4123774,58.723181 -296.9351872,58.8110591 -295.5669158,58.8658702 -294.3082485,58.891873 -293.1597465,58.8933399 -292.1218466,58.874553 -291.1948608,58.8398017 -290.3789765,58.7933789 -289.6742561,58.739578 -289.0806377,58.6826895 -288.5979347,58.626998 -288.2258361,58.5767791 -287.963907,58.5362957 -287.8115888,58.5097953 -267.1057976,54.3009663 -256.1314956,93.2242405 -275.9862918,100.4513491 -276.1300195,100.5083179 -276.3745189,100.6106205 -276.7180475,100.7621705 -277.1587493,100.9668304 -277.6946562,101.2284082 -278.323689,101.550655 -279.0436594,101.9372619 -279.8522714,102.3918573 -280.7471227,102.9180039 -281.7257067,103.5191963 -282.785414,104.198858 -283.9235343,104.9603388 -285.1372586,105.8069123 -286.4236807,106.7417732 -287.7797993,107.768035 -289.2025203,108.888727 -290.6886589,110.1067925 -292.2349415,111.4250863 -293.8380084,112.846372 -295.4944155,114.3733199 -297.2006374,116.0085052 -298.9530692,117.7544052 -300.7480294,119.6133978 -302.5817621,121.587759 -304.4504397,123.6796612 -306.3501656,125.891171 -308.2769768,128.2242479 -310.2268465,130.6807419 -312.1956871,133.2623921 -314.1793528,135.970825 -316.1736424,138.807553 -317.1734439,140.2744686 -317.4235805,140.6462833 -317.439216,140.6695894 -317.4431249,140.6754171 -317.4462959,140.6809184 -307.7374719,160.8133078 -307.7311927,160.8142517 -307.7241986,160.8148215 -307.6962261,160.8170977 -307.2495327,160.8528668 -305.4791414,160.9838598 -302.0176517,161.1895438 -298.6631694,161.3236605 -295.417127,161.3904387 -292.2808328,161.3941354 -289.2554712,161.3390321 -286.3421017,161.2294316 -283.5416585,161.0696551 -280.8549506,160.8640384 -278.2826612,160.6169294 -275.8253478,160.3326842 -273.4834421,160.0156642 -271.2572499,159.6702326 -269.1469514,159.3007516 -267.1526011,158.9115788 -265.2741285,158.5070641 -263.5113379,158.0915464 -261.8639091,157.6693505 -260.3313982,157.2447839 -258.9132374,156.8221336 -257.6087363,156.4056627 -256.4170825,155.9996078 -255.337342,155.6081754 -254.3684606,155.2355389 -253.5092645,154.8858355 -252.7584615,154.5631635 -252.114642,154.2715786 -251.5762802,154.0150914 -251.1417353,153.7976644 -250.8092529,153.6232089 -250.5769662,153.4955819 -250.4428976,153.4185837 -232.4253227,142.3817805 -208.8003083,175.2042617 -224.985897,188.7862625 -225.1014724,188.8889535 -225.2962371,189.0687102 -225.5672153,189.3286144 -225.9113417,189.6716606 -226.3254646,190.1007543 -226.8063472,190.6187091 -227.3506707,191.2282452 -227.9550367,191.9319867 -228.6159691,192.73246 -229.3299173,193.6320915 -230.0932584,194.6332058 -230.9023,195.7380238 -231.7532825,196.9486608 -232.6423826,198.267125 -233.565715,199.6953154 -234.5193363,201.2350207 -235.4992468,202.8879172 -236.5013941,204.655568 -237.5216759,206.5394207 -238.5559425,208.5408071 -239.6000003,210.6609409 -240.6496145,212.9009173 -241.7005125,215.2617114 -242.7483862,217.7441776 -243.7888961,220.349048 -244.8176736,223.076932 -245.8303246,225.9283153 -246.8224324,228.9035593 -247.789561,232.0029001 -248.7272584,235.2264482 -249.6310595,238.5741878 -250.0688509,240.2945898 -250.1767343,240.729533 -250.1834557,240.7567812 -250.1851357,240.7635945 -250.1862339,240.7698485 -234.1772409,256.367493 -234.1710176,256.3662323 -234.1642504,256.3643756 -234.1371863,256.3569473 -233.7051981,256.2377811 -231.9967722,255.7553648 -228.6736878,254.7647454 -225.475635,253.7434733 -222.4025133,252.6960124 -219.4540965,251.6268104 -216.630033,250.5402956 -213.9298467,249.4408738 -211.3529377,248.332925 -208.8985831,247.2208003 -206.565938,246.108819 -204.3540363,245.0012652 -202.2617921,243.9023849 -200.2880003,242.8163828 -198.4313382,241.7474197 -196.6903669,240.6996089 -195.0635322,239.677014 -193.5491663,238.6836451 -192.1454892,237.723457 -190.8506103,236.8003452 -189.66253,235.9181443 -188.5791414,235.080624 -187.598232,234.2914876 -186.7174856,233.5543685 -185.9344841,232.8728277 -185.2467095,232.2503517 -184.6515458,231.6903494 -184.1462813,231.19615 -183.7281105,230.7710003 -183.3941362,230.4180627 -183.1413723,230.1404124 -182.9667451,229.9410355 -182.8670968,229.8228267 -169.7109237,213.2892506 -136.2847222,236.0520632 -146.8488826,254.3507666 -146.9223656,254.4867936 -147.0439042,254.7223231 -147.2096478,255.0592331 -147.4156922,255.4992893 -147.6580817,256.0441438 -147.9328126,256.6953337 -148.2358358,257.4542799 -148.5630602,258.3222859 -148.9103556,259.300537 -149.2735553,260.3900987 -149.6484601,261.5919165 -150.0308404,262.9068143 -150.4164402,264.3354942 -150.8009797,265.8785353 -151.1801585,267.5363936 -151.5496591,269.309401 -151.9051499,271.1977648 -152.2422882,273.2015677 -152.5567238,275.3207672 -152.8441021,277.5551952 -153.100067,279.9045581 -153.3202648,282.3684366 -153.5003466,284.9462857 -153.6359724,287.6374347 -153.7228138,290.4410876 -153.7565571,293.3563227 -153.7329072,296.3820936 -153.6475902,299.5172293 -153.4963568,302.7604344 -153.2749857,306.1102901 -152.9792866,309.5652545 -152.8022638,311.3316371 -152.7548817,311.7772483 -152.7518784,311.8051521 -152.7511268,311.8121291 -152.7500198,311.8183815 -132.3717786,320.9999748 -132.3663617,320.9966617 -132.3606376,320.9926025 -132.3377463,320.9763657 -131.9725674,320.7166374 -130.5321683,319.6789983 -127.7483022,317.6115588 -125.0924112,315.5580784 -122.5628742,313.5227176 -120.1579573,311.5095785 -117.8758156,309.5227019 -115.7144949,307.5660652 -113.6719333,305.6435791 -111.7459635,303.7590851 -109.9343141,301.9163529 -108.2346121,300.1190778 -106.6443849,298.3708784 -105.1610618,296.6752937 -103.7819771,295.0357811 -102.5043717,293.4557138 -101.3253952,291.9383786 -100.2421088,290.4869736 -99.2514875,289.1046061 -98.3504222,287.7942901 -97.5357224,286.558945 -96.8041189,285.4013927 -96.1522661,284.3243562 -95.5767448,283.3304578 -95.0740648,282.4222167 -94.6406673,281.6020478 -94.2729285,280.8722598 -93.9671613,280.2350536 -93.719619,279.6925208 -93.5264977,279.246642 -93.3839392,278.8992856 -93.2880343,278.6522067 -93.2348253,278.507045 -86.5268826,258.4708893 -47.3311873,268.4285021 -50.9997258,289.2368143 -51.0222532,289.3897706 -51.0559062,289.6526645 -51.0964243,290.0259441 -51.1395346,290.509933 -51.180955,291.1048308 -51.2163975,291.8107126 -51.2415713,292.6275288 -51.2521862,293.555105 -51.2439555,294.5931423 -51.2125996,295.7412171 -51.1538489,296.9987813 -51.0634474,298.3651629 -50.9371553,299.8395657 -50.7707531,301.4210703 -50.5600437,303.1086344 -50.3008564,304.9010929 -49.98905,306.7971595 -49.6205154,308.7954264 -49.1911793,310.8943658 -48.6970072,313.0923304 -48.1340061,315.3875546 -47.4982283,317.7781551 -46.7857735,320.2621325 -45.9927929,322.8373722 -45.1154914,325.5016455 -44.1501306,328.2526114 -43.0930324,331.0878173 -41.940581,334.004701 -40.6892267,337.0005921 -39.3354877,340.0727134 -37.8759541,343.2181828 -37.1054686,344.8174942 -36.908536,345.2200261 -36.8961701,345.2452199 -36.8930776,345.251519 -36.8898988,345.2570158 -14.6003261,346.9151223 -14.5963691,346.9101563 -14.5923786,346.9043841 -14.5764211,346.8812973 -14.3220975,346.512334 -13.3234585,345.0446267 -11.4145861,342.1497307 -9.6211965,339.3117221 -7.9403436,336.533956 -6.3689951,333.819694 -4.9040352,331.1721023 -3.5422672,328.59425 -2.2804162,326.0891068 -1.1151315,323.6595412 -0.0429894,321.3083188 0.9395037,319.0381003 1.8359091,316.8514405 2.6498527,314.7507857 3.385022,312.7384731 4.0451637,310.8167287 4.63408,308.9876663 5.1556264,307.253286 5.6137084,305.6154729 6.0122784,304.0759962 6.3553328,302.6365078 6.646909,301.2985413 6.8910821,300.0635113 7.0919619,298.9327124 7.2536899,297.9073182 7.380436,296.9883809 7.4763953,296.1768304 7.5457851,295.473474 7.5928416,294.8789954 7.6218168,294.393955 7.636975,294.0187889 7.6425902,293.7538092 7.6429421,293.5992034 7.0935776,272.4771242 47.3311873,268.4285021 51.0007507,289.2366336 51.031896,289.3880703 51.0901875,289.6466198 51.1797821,290.0112459 51.3048056,290.4807912 51.4693502,291.053979 51.6774709,291.7294129 51.9331829,292.505579 52.2404579,293.380846 52.6032219,294.3534669 53.0253516,295.42158 53.5106714,296.5832099 54.0629511,297.8362695 54.6859022,299.1785605 55.3831757,300.6077758 56.1583586,302.1215004 57.0149719,303.7172132 57.9564671,305.3922889 58.9862238,307.1439993 60.1075473,308.9695156 61.3236654,310.8659099 62.6377262,312.8301574 64.0527956,314.8591382 65.5718543,316.9496396 67.1977962,319.098358 68.9334252,321.3019012 70.7814533,323.5567907 72.7444982,325.8594638 74.8250812,328.2062763 77.0256248,330.5935047 79.3484506,333.0173485 81.7957776,335.473933 83.0667937,336.7132725 83.3895239,337.0241738 83.4097608,337.0436189 83.4148213,337.0484804 83.4196883,337.0525585 104.9321412,330.9871861 104.9341611,330.9811662 104.9359367,330.9743773 104.9430357,330.947225 105.0558289,330.5135291 105.492257,328.7927807 106.2958976,325.4195955 107.0104765,322.1393645 107.6399095,318.9542326 108.1881618,315.8662277 108.6592442,312.8772596 109.0572101,309.9891187 109.3861528,307.2034757 109.6502019,304.5218799 109.8535204,301.9457594 110.0003015,299.4764195 110.0947653,297.1150426 110.1411559,294.8626877 110.1437376,292.7202897 110.1067925,290.6886589 110.0346167,288.7684812 109.931517,286.9603175 109.8018082,285.2646034 109.6498095,283.6816495 109.4798411,282.2116413 109.2962216,280.8546391 109.1032642,279.6105784 108.9052734,278.4792701 108.7065426,277.4604005 108.5113499,276.5535322 108.3239555,275.7581042 108.1485985,275.0734326 107.9894935,274.4987112 107.8508277,274.0330122 107.7367574,273.675287 107.6514055,273.4243671 107.5988579,273.2789647 99.8584476,253.6185965 136.2847222,236.0520632 146.849784,254.3502462 146.9308454,254.4818978 147.0740506,254.704918 147.2829514,255.0169113 147.5610291,255.415379 147.9116922,255.8977218 148.3382737,256.4612406 148.8440288,257.1031395 149.4321318,257.8205272 150.1056744,258.6104193 150.8676627,259.4697404 151.721015,260.3953263 152.6685598,261.3839263 153.7130329,262.4322055 154.8570761,263.536747 156.1032341,264.6940546 157.4539532,265.9005552 158.9115788,267.1526011 160.4783539,268.446473 162.1564167,269.7783819 163.9477989,271.1444728 165.8544244,272.5408264 167.8781069,273.9634625 170.0205488,275.4083425 172.2833393,276.8713724 174.6679532,278.3484056 177.1757492,279.8352458 179.8079687,281.3276499 182.5657343,282.821331 185.4500491,284.3119616 188.4617947,285.7951765 191.6017312,287.2665757 193.2199748,287.9964608 193.6295765,288.1782323 193.6552436,288.1895832 193.6616616,288.1924208 193.6676299,288.1945883 211.8082436,275.1373104 211.8080827,275.1309627 211.8074294,275.1239759 211.8048135,275.0960331 211.7624717,274.6499147 211.5840494,272.8836729 211.1855273,269.4390544 210.7351067,266.1122452 210.237201,262.9039214 209.6962298,259.8146327 209.1166151,256.8448018 208.5027784,253.9947248 207.8591374,251.2645715 207.1901026,248.6543857 206.5000744,246.1640852 205.7934395,243.7934626 205.074568,241.5421857 204.3478101,239.4097979 203.6174929,237.3957192 202.8879172,235.4992468 202.1633547,233.7195556 201.4480442,232.0556996 200.7461894,230.5066126 200.0619552,229.0711091 199.3994648,227.7478858 198.7627969,226.5355225 198.1559824,225.4324832 197.5830017,224.4371179 197.0477819,223.5476637 196.5541935,222.762246 196.106048,222.0788809 195.7070948,221.4954756 195.3610187,221.0098313 195.071437,220.6196439 194.8418968,220.3225065 194.6758726,220.1159109 194.5767635,219.9972498 180.578915,204.1699231 208.8003083,175.2042617 224.986566,188.7854653 225.1077663,188.8814527 225.3186127,189.0420441 225.6216232,189.2637735 226.0192147,189.5431026 226.5137011,189.8764226 227.1072915,190.2600576 227.8020881,190.6902669 228.6000852,191.1632477 229.5031673,191.6751384 230.5131072,192.2220207 231.6315651,192.7999233 232.860087,193.4048241 234.2001033,194.0326534 235.6529276,194.6792971 237.2197556,195.3405994 238.9016639,196.012366 240.6996089,196.6903669 242.6144261,197.3703401 244.646829,198.0479939 246.7974083,198.7190105 249.0666312,199.3790494 251.454841,200.0237499 253.9622559,200.6487347 256.5889691,201.2496132 259.3349483,201.8219844 262.200035,202.3614404 265.1839444,202.8635694 268.2862655,203.3239591 271.5064605,203.7382 274.843865,204.1018884 278.2976884,204.4106298 280.0679753,204.5430255 280.5150445,204.5737428 280.5430459,204.5756306 280.5500474,204.5761019 280.5563971,204.5760974 293.1371458,186.1018145 293.1348237,186.0959046 293.1318201,186.0895626 293.119805,186.0641996 292.9274352,185.6594672 292.1556829,184.0607669 290.6030656,180.9601869 289.0419729,177.9880617 287.4767833,175.1435173 285.9118377,172.4255586 284.351436,169.8330702 282.7998344,167.3648184 281.2612423,165.0194518 279.7398191,162.7955028 278.2396718,160.6913893 276.7648515,158.7054161 275.3193512,156.8357763 273.9071026,155.0805531 272.5319735,153.4377215 271.1977648,151.9051499 269.9082085,150.4806022 268.6669643,149.1617396 267.4776175,147.9461224 266.3436766,146.8312123 265.2685703,145.8143742 264.2556454,144.8928786 263.3081646,144.0639035 262.4293039,143.324537 261.6221505,142.6717793 260.8897005,142.1025454 260.2348568,141.613667 259.6604271,141.2018954 259.1691219,140.863904 258.7635521,140.5962905 258.4462279,140.3955801 258.2195564,140.2582274 258.0858397,140.1806197 239.5189003,130.0953437 256.1314956,93.2242405 275.9866478,100.450371 276.1333684,100.4991168 276.3864246,100.5779096 276.7469973,100.6826315 277.2161473,100.8091306 277.7948148,100.9532247 278.4838181,101.1107038 279.2838536,101.2773338 280.1954946,101.4488593 281.219191,101.621007 282.3552689,101.7894885 283.6039299,101.9500041 284.9652511,102.0982457 286.4391848,102.2298997 288.0255582,102.3406508 289.7240737,102.426185 291.5343082,102.4821926 293.4557138,102.5043717 295.487618,102.4884313 297.6292232,102.4300949 299.8796079,102.3251029 302.2377265,102.1692165 304.7024101,101.958221 307.2723668,101.6879282 309.9461824,101.3541804 312.7223213,100.9528532 315.5991269,100.4798587 318.5748228,99.9311485 321.6475136,99.302717 324.8151858,98.5906046 328.075709,97.7909003 331.426837,96.8997452 333.1356446,96.4186827 333.5662582,96.2946408 333.5932166,96.2868376 333.599957,96.2848859 333.6059222,96.28271 339.1093821,74.6196931 339.1051787,74.6149339 339.1001871,74.6100017 339.080222,74.5902776 338.7610269,74.2757479 337.4890292,73.0374159 334.9695854,70.6548501 332.4861114,68.3958912 330.0424228,66.2582202 327.6422583,64.2394173 325.2892772,62.336964 322.9870568,60.5482449 320.7390905,58.8705507 318.548785,57.3010796 316.4194584,55.8369403 314.3543378,54.4751542 312.3565574,53.2126577 310.4291561,52.0463049 308.5750759,50.97287 306.7971595,49.98905 305.0981489,49.0914673 303.4806833,48.2766723 301.9472974,47.5411464 300.5004198,46.8813042 299.1423711,46.293497 297.8753631,45.7740151 296.7014962,45.3190908 295.6227591,44.9249016 294.6410267,44.5875728 293.7580593,44.3031805 292.9755013,44.0677548 292.2948798,43.8772826 291.717604,43.7277109 291.2449639,43.6149495 290.8781297,43.5348747 290.6181507,43.4833316 290.4659547,43.456138 269.5693712,40.3293459 z"/><g class="guides"><polyline fill="none" stroke="#444" stroke-width="0.5" stroke-miterlimit="10" points="10,0 -10,0"/><polyline fill="none" stroke="#444" stroke-width="0.5" stroke-miterlimit="10" points="0,10 0,-10"/></g><circle fill="#c00" class="firstmarker" stroke="none" stroke-miterlimit="10" cx="310.9300429" cy="-31.2851146" r="13.6284722"/><g class="geartext"><g class="text"><polyline fill="none" stroke="#444" stroke-width="0.5" stroke-linecap="square" stroke-miterlimit="1"  points="258.39 -59.12 258.22 -59.85 258.05 -60.58 257.88 -61.31 257.71 -62.04 "/><polyline fill="none" stroke="#444" stroke-width="0.5" stroke-linecap="square" stroke-miterlimit="1"  points="256.59 -60.24 259.51 -60.93 "/><polyline fill="none" stroke="#444" stroke-width="0.5" stroke-linecap="square" stroke-miterlimit="1"  points="259.85 -59.46 258.95 -60.02 258.05 -60.58 257.15 -61.14 256.25 -61.69 "/><polyline fill="none" stroke="#444" stroke-width="0.5" stroke-linecap="square" stroke-miterlimit="1"  points="256.93 -58.79 257.49 -59.68 258.05 -60.58 258.61 -61.49 259.16 -62.4 "/><polyline fill="none" stroke="#444" stroke-width="0.5" stroke-linecap="square" stroke-miterlimit="1"  points="257.74 -55.15 256.85 -55.72 256.69 -56.44 257.26 -57.33 260.19 -57.99 261.08 -57.41 261.24 -56.67 260.67 -55.78 257.74 -55.15 "/><polyline fill="none" stroke="#444" stroke-width="0.5" stroke-linecap="square" stroke-miterlimit="1"  points="263.02 -47.77 258.59 -46.97 259.56 -47.9 260.53 -48.84 261.5 -49.79 262.46 -50.74 258.04 -49.89 "/><polyline fill="none" stroke="#444" stroke-width="0.5" stroke-linecap="square" stroke-miterlimit="1"  points="262.31 -43.06 262.19 -43.8 262.06 -44.54 261.93 -45.28 261.81 -46.02 "/><polyline fill="none" stroke="#444" stroke-width="0.5" stroke-linecap="square" stroke-miterlimit="1"  points="260.83 -42.81 260.71 -43.55 260.58 -44.29 260.46 -45.03 260.33 -45.76 "/><polyline fill="none" stroke="#444" stroke-width="0.5" stroke-linecap="square" stroke-miterlimit="1"  points="263.29 -41.69 264.15 -41.06 259.7 -40.37 "/><polyline fill="none" stroke="#444" stroke-width="0.5" stroke-linecap="square" stroke-miterlimit="1"  points="259.81 -39.63 259.7 -40.37 259.59 -41.1 "/><polyline fill="none" stroke="#444" stroke-width="0.5" stroke-linecap="square" stroke-miterlimit="1"  points="262.37 -37.75 261.52 -38.38 260.78 -38.27 260.14 -37.43 260.25 -36.69 260.35 -35.95 261.19 -35.32 261.94 -35.42 262.58 -36.26 262.47 -37 262.37 -37.75 263 -38.6 263.74 -38.71 264.6 -38.07 264.7 -37.32 264.81 -36.57 264.17 -35.72 263.42 -35.62 262.58 -36.26 "/><polyline fill="none" stroke="#444" stroke-width="0.5" stroke-linecap="square" stroke-miterlimit="1"  points="263.33 -30.31 263.42 -29.56 263.5 -28.82 263.58 -28.07 264.4 -27.4 265.15 -27.48 265.82 -28.31 265.73 -29.06 265.65 -29.81 265.57 -30.57 261.1 -30.05 "/><polyline fill="none" stroke="#444" stroke-width="0.5" stroke-linecap="square" stroke-miterlimit="1"  points="261.57 -25.61 264.55 -25.91 "/><polyline fill="none" stroke="#444" stroke-width="0.5" stroke-linecap="square" stroke-miterlimit="1"  points="265.3 -25.98 266.05 -26.05 "/><polyline fill="none" stroke="#444" stroke-width="0.5" stroke-linecap="square" stroke-miterlimit="1"  points="262.71 -21.23 261.9 -21.91 262.59 -22.72 266.32 -23.04 "/><polyline fill="none" stroke="#444" stroke-width="0.5" stroke-linecap="square" stroke-miterlimit="1"  points="264.96 -21.41 264.89 -22.16 264.83 -22.91 264.76 -23.66 264.7 -24.41 "/><polyline fill="none" stroke="#444" stroke-width="0.5" stroke-linecap="square" stroke-miterlimit="1"  points="262.29 -16.72 262.24 -17.46 262.19 -18.2 262.14 -18.95 262.83 -19.74 264.32 -19.86 265.13 -19.16 265.18 -18.41 265.23 -17.66 265.28 -16.91 "/><polyline fill="none" stroke="#444" stroke-width="0.5" stroke-linecap="square" stroke-miterlimit="1"  points="263.87 -15.32 264.67 -14.62 265.46 -13.91 265.49 -13.16 264.78 -12.37 262.53 -12.27 "/><polyline fill="none" stroke="#444" stroke-width="0.5" stroke-linecap="square" stroke-miterlimit="1"  points="262.38 -15.24 266.87 -15.5 "/><polyline fill="none" stroke="#444" stroke-width="0.5" stroke-linecap="square" stroke-miterlimit="1"  points="262.72 -7.06 262.74 -6.32 262.76 -5.58 262.77 -4.83 263.54 -4.1 266.54 -4.15 267.27 -4.92 267.26 -5.67 267.24 -6.43 267.22 -7.18 "/><polyline fill="none" stroke="#444" stroke-width="0.5" stroke-linecap="square" stroke-miterlimit="1"  points="267.24 -6.43 262.74 -6.32 "/><polyline fill="none" stroke="#444" stroke-width="0.5" stroke-linecap="square" stroke-miterlimit="1"  points="265.82 0.38 265.82 -0.38 265.82 -1.13 265.81 -1.88 265.81 -2.63 "/><polyline fill="none" stroke="#444" stroke-width="0.5" stroke-linecap="square" stroke-miterlimit="1"  points="264.32 0.37 264.32 -0.37 264.32 -1.12 264.31 -1.87 264.31 -2.62 "/><polyline fill="none" stroke="#444" stroke-width="0.5" stroke-linecap="square" stroke-miterlimit="1"  points="262.77 4.83 262.79 4.09 262.8 3.35 262.81 2.6 262.81 1.86 264.31 1.87 265.06 2.62 265.05 3.37 265.04 4.12 265.77 4.89 266.52 4.9 267.29 4.16 267.3 3.4 267.31 2.65 266.56 1.89 "/><polyline fill="none" stroke="#444" stroke-width="0.5" stroke-linecap="square" stroke-miterlimit="1"  points="267.15 9.45 267.18 8.7 267.2 7.94 267.22 7.18 267.24 6.43 265.74 6.39 265.72 7.14 265.7 7.9 265.68 8.65 264.9 9.37 263.4 9.32 262.68 8.55 262.7 7.81 262.72 7.06 263.49 6.34 "/><polyline fill="none" stroke="#444" stroke-width="0.5" stroke-linecap="square" stroke-miterlimit="1"  points="264.67 14.62 264.62 15.37 264.58 16.12 264.53 16.86 265.23 17.66 265.98 17.71 266.78 17.01 266.82 16.25 266.87 15.5 266.91 14.74 262.42 14.49 "/><polyline fill="none" stroke="#444" stroke-width="0.5" stroke-linecap="square" stroke-miterlimit="1"  points="264.89 22.16 264.96 21.41 265.02 20.66 265.07 19.91 265.13 19.16 "/><polyline fill="none" stroke="#444" stroke-width="0.5" stroke-linecap="square" stroke-miterlimit="1"  points="263.4 22.04 263.46 21.29 263.52 20.55 263.58 19.8 263.63 19.05 "/><polyline fill="none" stroke="#444" stroke-width="0.5" stroke-linecap="square" stroke-miterlimit="1"  points="262.31 25.69 261.64 24.87 261.71 24.13 262.52 23.46 265.51 23.73 266.19 24.55 266.12 25.3 265.3 25.98 262.31 25.69 "/><polyline fill="none" stroke="#444" stroke-width="0.5" stroke-linecap="square" stroke-miterlimit="1"  points="262.17 27.17 261.42 27.09 "/><polyline fill="none" stroke="#444" stroke-width="0.5" stroke-linecap="square" stroke-miterlimit="1"  points="265.73 29.06 265.65 29.81 265.57 30.57 265.48 31.32 265.39 32.07 263.24 31.05 261.1 30.05 "/><polyline fill="none" stroke="#444" stroke-width="0.5" stroke-linecap="square" stroke-miterlimit="1"  points="260.35 35.95 260.45 35.22 260.55 34.48 260.64 33.74 260.74 33 262.23 33.19 262.88 34.03 262.78 34.77 262.68 35.52 263.32 36.36 264.06 36.47 264.91 35.82 265.01 35.07 265.11 34.32 264.46 33.48 "/><polyline fill="none" stroke="#444" stroke-width="0.5" stroke-linecap="square" stroke-miterlimit="1"  points="261.81 41.45 261.69 42.19 261.57 42.94 261.45 43.67 262.06 44.54 262.8 44.67 263.67 44.05 263.79 43.3 263.91 42.55 264.03 41.81 259.59 41.1 "/><polyline fill="none" stroke="#444" stroke-width="0.5" stroke-linecap="square" stroke-miterlimit="1"  points="258.85 45.5 260.33 45.76 261.67 46.76 263.02 47.77 261.41 48.24 259.79 48.71 258.32 48.43 "/><polyline fill="none" stroke="#444" stroke-width="0.5" stroke-linecap="square" stroke-miterlimit="1"  points="260.33 45.76 260.2 46.5 260.06 47.24 259.93 47.97 259.79 48.71 "/><polyline fill="none" stroke="#444" stroke-width="0.5" stroke-linecap="square" stroke-miterlimit="1"  points="260.4 53.41 260.55 52.67 260.7 51.94 260.84 51.2 260.99 50.46 "/><polyline fill="none" stroke="#444" stroke-width="0.5" stroke-linecap="square" stroke-miterlimit="1"  points="258.93 53.11 259.08 52.38 259.23 51.64 259.37 50.91 259.51 50.18 "/><polyline fill="none" stroke="#444" stroke-width="0.5" stroke-linecap="square" stroke-miterlimit="1"  points="256.53 57.17 256.69 56.44 256.85 55.72 257 54.99 257.16 54.26 258.62 54.57 259.2 55.46 259.04 56.2 258.88 56.93 259.45 57.82 260.19 57.99 261.08 57.41 261.24 56.67 261.4 55.93 260.83 55.04 "/><polyline fill="none" stroke="#444" stroke-width="0.5" stroke-linecap="square" stroke-miterlimit="1"  points="256.42 60.97 255.86 60.07 256.03 59.35 256.93 58.79 259.85 59.46 260.42 60.36 260.24 61.1 259.34 61.66 256.42 60.97 "/></g></g><g class="guides gearguides" opacity="0.2"><circle class="pitch" fill="none" stroke="#f00" stroke-miterlimit="10" cx="0" cy="0" r="312.5"/><circle class="outer" fill="none" stroke="#ccc" stroke-miterlimit="10" stroke-dasharray="2,2" cx="0" cy="0" r="347.22"/><circle class="base" fill="none" stroke="#00f" stroke-miterlimit="10" stroke-dasharray="2,2" cx="0" cy="0" r="293.65"/></g></svg>