<?xml version="1.0" encoding="UTF-8" standalone="no"?>
<!-- Created with Inkscape (http://www.inkscape.org/) -->

<svg
   width="32.15107mm"
   height="3.7689362mm"
   viewBox="0 0 32.15107 3.7689362"
   version="1.1"
   id="svg5"
   xml:space="preserve"
   sodipodi:docname="enable-disable.svg"
   inkscape:version="1.2.1 (9c6d41e410, 2022-07-14)"
   xmlns:inkscape="http://www.inkscape.org/namespaces/inkscape"
   xmlns:sodipodi="http://sodipodi.sourceforge.net/DTD/sodipodi-0.dtd"
   xmlns="http://www.w3.org/2000/svg"
   xmlns:svg="http://www.w3.org/2000/svg"><sodipodi:namedview
     id="namedview7"
     pagecolor="#ffffff"
     bordercolor="#666666"
     borderopacity="1.0"
     inkscape:showpageshadow="2"
     inkscape:pageopacity="0.0"
     inkscape:pagecheckerboard="0"
     inkscape:deskcolor="#d1d1d1"
     inkscape:document-units="mm"
     showgrid="false"
     inkscape:zoom="2.1089996"
     inkscape:cx="73.731642"
     inkscape:cy="59.743967"
     inkscape:window-width="1920"
     inkscape:window-height="1017"
     inkscape:window-x="-8"
     inkscape:window-y="-8"
     inkscape:window-maximized="1"
     inkscape:current-layer="layer1" /><defs
     id="defs2" /><g
     inkscape:label="Layer 1"
     inkscape:groupmode="layer"
     id="layer1"
     transform="translate(-56.938684,-82.542814)"><g
       aria-label="Enable / Disable"
       id="text236"
       style="font-size:4.64708px;line-height:1.25;font-family:Arial;-inkscape-font-specification:Arial;letter-spacing:-0.0697063px;word-spacing:0px;stroke-width:0;fill:#2c40ac;fill-opacity:1;stroke:none;stroke-dasharray:none"><path
         d="m 58.9264,84.596331 h -1.306991 v 0.884942 h 1.533899 v 0.546849 h -2.214624 v -3.303783 h 2.210086 v 0.551386 h -1.529361 v 0.787372 H 58.9264 Z"
         style="font-weight:bold;font-family:Roboto;-inkscape-font-specification:'Roboto Bold';fill:#2c40ac;fill-opacity:1;stroke:none;stroke-width:0;stroke-dasharray:none"
         id="path8113" /><path
         d="m 60.043424,83.572975 0.02042,0.283635 q 0.263214,-0.329016 0.705685,-0.329016 0.390282,0 0.580885,0.229177 0.190603,0.229177 0.195141,0.685263 v 1.586088 h -0.655765 v -1.570205 q 0,-0.208755 -0.09076,-0.301788 -0.09076,-0.0953 -0.301788,-0.0953 -0.276828,0 -0.415242,0.235984 v 1.73131 h -0.655765 v -2.455147 z"
         style="font-weight:bold;font-family:Roboto;-inkscape-font-specification:'Roboto Bold';fill:#2c40ac;fill-opacity:1;stroke:none;stroke-width:0;stroke-dasharray:none"
         id="path8115" /><path
         d="m 63.395493,86.028122 q -0.04538,-0.08849 -0.0658,-0.220101 -0.238254,0.265483 -0.61946,0.265483 -0.360784,0 -0.599037,-0.208756 -0.235985,-0.208756 -0.235985,-0.526427 0,-0.390282 0.288174,-0.599038 0.290442,-0.208755 0.837291,-0.211024 h 0.301788 v -0.140683 q 0,-0.170181 -0.08849,-0.27229 -0.08623,-0.102109 -0.274559,-0.102109 -0.165643,0 -0.260945,0.07942 -0.09303,0.07942 -0.09303,0.217832 h -0.655765 q 0,-0.213294 0.131607,-0.39482 0.131607,-0.181527 0.372129,-0.283636 0.240523,-0.104377 0.540042,-0.104377 0.453816,0 0.719299,0.229177 0.267751,0.226908 0.267751,0.639881 v 1.064199 q 0.0023,0.349439 0.09757,0.528697 v 0.03857 z m -0.542311,-0.456086 q 0.145222,0 0.267752,-0.06353 0.122531,-0.0658 0.181527,-0.174719 V 84.911734 H 63.0574 q -0.492391,0 -0.524158,0.340362 l -0.0023,0.03857 q 0,0.122531 0.08622,0.201949 0.08622,0.07942 0.235984,0.07942 z"
         style="font-weight:bold;font-family:Roboto;-inkscape-font-specification:'Roboto Bold';fill:#2c40ac;fill-opacity:1;stroke:none;stroke-width:0;stroke-dasharray:none"
         id="path8117" /><path
         d="m 66.606879,84.823239 q 0,0.589962 -0.251868,0.921248 -0.251868,0.329017 -0.703416,0.329017 -0.399358,0 -0.637612,-0.306326 l -0.0295,0.260944 h -0.589961 v -3.48531 h 0.655765 v 1.250264 q 0.226908,-0.265482 0.596768,-0.265482 0.449278,0 0.703416,0.331286 0.256406,0.329016 0.256406,0.928054 z m -0.655765,-0.04765 q 0,-0.37213 -0.117992,-0.542311 -0.117992,-0.17245 -0.351708,-0.17245 -0.313133,0 -0.431125,0.256406 v 0.968898 q 0.120261,0.258675 0.435663,0.258675 0.317672,0 0.417511,-0.313133 0.04765,-0.149759 0.04765,-0.456085 z"
         style="font-weight:bold;font-family:Roboto;-inkscape-font-specification:'Roboto Bold';fill:#2c40ac;fill-opacity:1;stroke:none;stroke-width:0;stroke-dasharray:none"
         id="path8119" /><path
         d="m 67.633139,86.028122 h -0.658033 v -3.48531 h 0.658033 z"
         style="font-weight:bold;font-family:Roboto;-inkscape-font-specification:'Roboto Bold';fill:#2c40ac;fill-opacity:1;stroke:none;stroke-width:0;stroke-dasharray:none"
         id="path8121" /><path
         d="m 69.233477,86.073504 q -0.540041,0 -0.880404,-0.331286 -0.338093,-0.331286 -0.338093,-0.882673 v -0.06354 q 0,-0.36986 0.142952,-0.660302 0.142953,-0.292712 0.403897,-0.449279 0.263214,-0.158835 0.599038,-0.158835 0.503736,0 0.791909,0.317671 0.290443,0.317672 0.290443,0.900826 v 0.267751 h -1.563398 q 0.03177,0.240523 0.190603,0.385744 0.161105,0.145221 0.406166,0.145221 0.378937,0 0.59223,-0.274558 l 0.32221,0.360784 q -0.14749,0.208755 -0.399359,0.326747 -0.251868,0.115724 -0.558194,0.115724 z m -0.07488,-2.014945 q -0.195141,0 -0.317672,0.131607 -0.120261,0.131606 -0.154297,0.376667 H 69.5988 v -0.05219 q -0.0045,-0.217832 -0.117993,-0.335824 -0.113454,-0.120261 -0.322209,-0.120261 z"
         style="font-weight:bold;font-family:Roboto;-inkscape-font-specification:'Roboto Bold';fill:#2c40ac;fill-opacity:1;stroke:none;stroke-width:0;stroke-dasharray:none"
         id="path8123" /><path
         d="m 71.839654,86.311757 h -0.487853 l 1.216228,-3.587418 h 0.487853 z"
         style="font-weight:bold;font-family:Roboto;-inkscape-font-specification:'Roboto Bold';fill:#2c40ac;fill-opacity:1;stroke:none;stroke-width:0;stroke-dasharray:none"
         id="path8125" /><path
         d="m 74.429947,86.028122 v -3.303783 h 1.016548 q 0.435664,0 0.778295,0.19741 0.344901,0.195141 0.537773,0.558194 0.192872,0.360784 0.192872,0.821408 v 0.152028 q 0,0.460624 -0.190603,0.819139 -0.188334,0.358515 -0.533234,0.555925 -0.344901,0.19741 -0.778295,0.199679 z m 0.680724,-2.752397 v 2.205548 h 0.329017 q 0.399358,0 0.610383,-0.260944 0.211025,-0.260945 0.215563,-0.746528 v -0.17472 q 0,-0.503736 -0.208756,-0.762411 -0.208755,-0.260945 -0.610383,-0.260945 z"
         style="font-weight:bold;font-family:Roboto;-inkscape-font-specification:'Roboto Bold';fill:#2c40ac;fill-opacity:1;stroke:none;stroke-width:0;stroke-dasharray:none"
         id="path8127" /><path
         d="m 78.029345,86.028122 h -0.658033 v -2.455147 h 0.658033 z m -0.696608,-3.09049 q 0,-0.14749 0.09757,-0.242792 0.09984,-0.0953 0.27002,-0.0953 0.167913,0 0.267752,0.0953 0.09984,0.0953 0.09984,0.242792 0,0.14976 -0.102109,0.245061 -0.09984,0.0953 -0.265483,0.0953 -0.165643,0 -0.267751,-0.0953 -0.09984,-0.0953 -0.09984,-0.245061 z"
         style="font-weight:bold;font-family:Roboto;-inkscape-font-specification:'Roboto Bold';fill:#2c40ac;fill-opacity:1;stroke:none;stroke-width:0;stroke-dasharray:none"
         id="path8129" /><path
         d="m 79.829364,85.349666 q 0,-0.120261 -0.120261,-0.188333 -0.117992,-0.07034 -0.381206,-0.1248 -0.875865,-0.183796 -0.875865,-0.744259 0,-0.326748 0.27002,-0.544579 0.27229,-0.220101 0.710223,-0.220101 0.467431,0 0.746528,0.220101 0.281366,0.2201 0.281366,0.571808 h -0.655765 q 0,-0.140683 -0.09076,-0.231446 -0.09076,-0.09303 -0.283635,-0.09303 -0.165643,0 -0.256406,0.07488 -0.09076,0.07488 -0.09076,0.190603 0,0.108916 0.102109,0.176988 0.104378,0.0658 0.349439,0.115724 0.245061,0.04765 0.412973,0.108916 0.519619,0.190602 0.519619,0.660302 0,0.335825 -0.288173,0.54458 -0.288173,0.206487 -0.744259,0.206487 -0.308595,0 -0.549118,-0.108916 -0.238253,-0.111185 -0.374398,-0.301788 -0.136145,-0.192872 -0.136145,-0.415242 h 0.621728 q 0.0091,0.174719 0.129338,0.267751 0.120261,0.09303 0.32221,0.09303 0.188333,0 0.283635,-0.07034 0.09757,-0.07261 0.09757,-0.188334 z"
         style="font-weight:bold;font-family:Roboto;-inkscape-font-specification:'Roboto Bold';fill:#2c40ac;fill-opacity:1;stroke:none;stroke-width:0;stroke-dasharray:none"
         id="path8131" /><path
         d="m 82.242032,86.028122 q -0.04538,-0.08849 -0.0658,-0.220101 -0.238254,0.265483 -0.61946,0.265483 -0.360784,0 -0.599037,-0.208756 -0.235985,-0.208756 -0.235985,-0.526427 0,-0.390282 0.288174,-0.599038 0.290442,-0.208755 0.837291,-0.211024 H 82.149 v -0.140683 q 0,-0.170181 -0.08849,-0.27229 -0.08623,-0.102109 -0.274559,-0.102109 -0.165643,0 -0.260945,0.07942 -0.09303,0.07942 -0.09303,0.217832 h -0.655765 q 0,-0.213294 0.131607,-0.39482 0.131607,-0.181527 0.372129,-0.283636 0.240523,-0.104377 0.540042,-0.104377 0.453816,0 0.719299,0.229177 0.267752,0.226908 0.267752,0.639881 v 1.064199 q 0.0023,0.349439 0.09757,0.528697 v 0.03857 z m -0.542311,-0.456086 q 0.145222,0 0.267752,-0.06353 0.122531,-0.0658 0.181527,-0.174719 v -0.422049 h -0.245061 q -0.492391,0 -0.524158,0.340362 l -0.0023,0.03857 q 0,0.122531 0.08622,0.201949 0.08622,0.07942 0.235984,0.07942 z"
         style="font-weight:bold;font-family:Roboto;-inkscape-font-specification:'Roboto Bold';fill:#2c40ac;fill-opacity:1;stroke:none;stroke-width:0;stroke-dasharray:none"
         id="path8133" /><path
         d="m 85.45342,84.823239 q 0,0.589962 -0.251868,0.921248 -0.251868,0.329017 -0.703416,0.329017 -0.399358,0 -0.637612,-0.306326 l -0.0295,0.260944 h -0.589961 v -3.48531 h 0.655765 v 1.250264 q 0.226908,-0.265482 0.596768,-0.265482 0.449278,0 0.703416,0.331286 0.256406,0.329016 0.256406,0.928054 z m -0.655765,-0.04765 q 0,-0.37213 -0.117992,-0.542311 -0.117992,-0.17245 -0.351708,-0.17245 -0.313133,0 -0.431125,0.256406 v 0.968898 q 0.120261,0.258675 0.435663,0.258675 0.317672,0 0.417511,-0.313133 0.04765,-0.149759 0.04765,-0.456085 z"
         style="font-weight:bold;font-family:Roboto;-inkscape-font-specification:'Roboto Bold';fill:#2c40ac;fill-opacity:1;stroke:none;stroke-width:0;stroke-dasharray:none"
         id="path8135" /><path
         d="m 86.47968,86.028122 h -0.658034 v -3.48531 h 0.658034 z"
         style="font-weight:bold;font-family:Roboto;-inkscape-font-specification:'Roboto Bold';fill:#2c40ac;fill-opacity:1;stroke:none;stroke-width:0;stroke-dasharray:none"
         id="path8137" /><path
         d="m 88.080018,86.073504 q -0.540042,0 -0.880404,-0.331286 -0.338093,-0.331286 -0.338093,-0.882673 v -0.06354 q 0,-0.36986 0.142952,-0.660302 0.142952,-0.292712 0.403896,-0.449279 0.263214,-0.158835 0.599038,-0.158835 0.503736,0 0.79191,0.317671 0.290442,0.317672 0.290442,0.900826 v 0.267751 h -1.563397 q 0.03177,0.240523 0.190603,0.385744 0.161104,0.145221 0.406165,0.145221 0.378937,0 0.592231,-0.274558 l 0.322209,0.360784 q -0.14749,0.208755 -0.399358,0.326747 -0.251868,0.115724 -0.558194,0.115724 z m -0.07488,-2.014945 q -0.195141,0 -0.317671,0.131607 -0.120262,0.131606 -0.154298,0.376667 h 0.912171 v -0.05219 q -0.0045,-0.217832 -0.117992,-0.335824 -0.113454,-0.120261 -0.32221,-0.120261 z"
         style="font-weight:bold;font-family:Roboto;-inkscape-font-specification:'Roboto Bold';fill:#2c40ac;fill-opacity:1;stroke:none;stroke-width:0;stroke-dasharray:none"
         id="path8139" /></g></g></svg>
